<svg xmlns="http://www.w3.org/2000/svg">
<defs>
<font id="AtypDisplay-Regular" horiz-adv-x="0" >
  <font-face 
    font-family="Atyp Display"
    font-weight="400"
    font-stretch="normal"
    units-per-em="1000"
    panose-1="0 0 5 0 0 0 0 0 0 0"
    ascent="779"
    descent="-221"
    x-height="506"
    cap-height="700"
    bbox="-478 -300 1937 1110"
    underline-thickness="50"
    underline-position="-200"
    unicode-range="U+000D-1F7E4"
  />
<missing-glyph horiz-adv-x="700" 
d="M690 0h-590v590h184v55q0 55 55 55h112q55 0 55 -55v-55h184v-590zM339 645v-55h112v55h-112zM189 429l-4 -24q17 -11 39 -11q18 0 29.5 9t11.5 26q0 16 -14 23t-28 10.5t-14 8.5q0 9 16 9q14 0 31 -9l4 24q-15 9 -35 9q-18 0 -29.5 -9t-11.5 -26q0 -13 8.5 -20.5
t19 -9.5t19 -5.5t8.5 -7.5q0 -9 -15 -9q-16 0 -35 12zM317 502h-24v-64q0 -20 11.5 -32t31.5 -12t31.5 12t11.5 32v64h-24v-64q0 -20 -19 -20t-19 20v64zM413 420l-3 -24h73l3 24h-26v58h23l3 24h-73l-3 -24h26v-58h-23zM547 478v-82h24v82h31l3 24h-89l-3 -24h34zM248 294
l26 3q0 52 -42 52q-21 0 -33 -15.5t-12 -39.5q0 -28 13.5 -41.5t34.5 -13.5t38 12l-5 24q-21 -12 -33 -12q-22 0 -22 31t19 31q16 0 16 -31zM418 274l-4 -24q16 -11 39 -11q18 0 29.5 9t11.5 26q0 16 -14 23t-28 10.5t-14 8.5q0 9 16 9q14 0 31 -9l4 24q-15 9 -35 9
q-18 0 -29.5 -9t-11.5 -26q0 -16 13.5 -23.5t27.5 -11t14 -8.5q0 -9 -15 -9q-16 0 -35 12zM315 347l-19 -106h25l5 27h32l5 -27h24l-18 106h-54zM528 347v-106h71l3 24h-50v17h47l3 24h-50v17h47l3 24h-74zM354 292h-24l5 31h14zM220 168v-82h24v82h31l3 24h-89l-3 -24h34z
M331 117v-31h24v31l36 75h-27l-21 -45l-20 45h-28zM416 192v-106h24v33h19q17 0 28.5 10.5t11.5 25.5t-11.5 26t-28.5 11h-43zM528 192v-106h71l3 24h-50v17h47l3 24h-50v17h47l3 24h-74zM459 143h-19v25h19q14 0 14 -13q0 -12 -14 -12z" />
    <glyph glyph-name="f_b" unicode="fb" horiz-adv-x="1055" 
d="M771 516q103 0 171.5 -75.5t68.5 -187.5q0 -113 -68.5 -188t-171.5 -75q-75 0 -132.5 43.5t-82.5 115.5v-149h-75v438h-268v-438h-75v438h-114v68h114v59q0 89 43.5 132t134.5 43h51v-68h-51q-55 0 -79 -24t-24 -80v-62h268v234h75v-384q25 73 82.5 116.5t132.5 43.5z
M750 60q78 0 131 55.5t53 137.5t-53 137.5t-131 55.5q-84 0 -139 -55t-55 -138t55 -138t139 -55z" />
    <glyph glyph-name="f_f" unicode="ff" horiz-adv-x="744" 
d="M213 0h-75v438h-114v68h114v59q0 89 43.5 132t134.5 43h51v-68h-51q-55 0 -79 -24t-24 -80v-62h268v59q0 89 43.5 132t134.5 43h51v-68h-51q-55 0 -79 -24t-24 -80v-62h154v-68h-154v-438h-75v438h-268v-438z" />
    <glyph glyph-name="f_h" unicode="fh" horiz-adv-x="1007" 
d="M743 516q89 0 146.5 -62t57.5 -156v-298h-75v289q0 67 -44 112.5t-109 45.5q-71 0 -117 -45t-46 -113v-289h-75v438h-268v-438h-75v438h-114v68h114v59q0 89 43.5 132t134.5 43h51v-68h-51q-55 0 -79 -24t-24 -80v-62h268v234h75v-364q21 64 71 102t116 38z" />
    <glyph glyph-name="f_i" unicode="fi" horiz-adv-x="620" 
d="M213 506h343v-506h-75v438h-268v-438h-75v438h-114v68h114v59q0 89 43.5 132t134.5 43h51v-68h-51q-55 0 -79 -24t-24 -80v-62zM519 608q-21 0 -35 14t-14 34q0 21 14 35t35 14q20 0 34.5 -14t14.5 -35q0 -20 -14.5 -34t-34.5 -14z" />
    <glyph glyph-name="f_j" unicode="fj" horiz-adv-x="620" 
d="M213 506h343v-553q0 -169 -170 -159v67q54 -2 74.5 18t20.5 74v485h-268v-438h-75v438h-114v68h114v59q0 89 43.5 132t134.5 43h51v-68h-51q-55 0 -79 -24t-24 -80v-62zM519 608q-21 0 -35 14t-14 34q0 21 14 35t35 14q20 0 34.5 -14t14.5 -35q0 -20 -14.5 -34t-34.5 -14
z" />
    <glyph glyph-name="f_k" unicode="fk" horiz-adv-x="946" 
d="M702 297l240 -297h-97l-194 242l-95 -101v-141h-75v438h-268v-438h-75v438h-114v68h114v59q0 89 43.5 132t134.5 43h51v-68h-51q-55 0 -79 -24t-24 -80v-62h268v234h75v-501l246 267h96z" />
    <glyph glyph-name="f_l" unicode="fl" horiz-adv-x="620" 
d="M481 506v234h75v-740h-75v438h-268v-438h-75v438h-114v68h114v59q0 89 43.5 132t134.5 43h51v-68h-51q-55 0 -79 -24t-24 -80v-62h268z" />
    <glyph glyph-name="f_t" unicode="ft" horiz-adv-x="740" 
d="M695 506v-68h-153v-266q0 -56 24 -80t79 -24h50v-68h-50q-91 0 -134.5 43t-43.5 132v263h-254v-438h-75v438h-114v68h114v59q0 89 43.5 132t134.5 43h51v-68h-51q-55 0 -79 -24t-24 -80v-62h254v181l75 23v-204h153z" />
    <glyph glyph-name="f_hbar" unicode="f&#x127;" horiz-adv-x="1007" 
d="M743 516q89 0 146.5 -62t57.5 -156v-298h-75v289q0 67 -44 112.5t-109 45.5q-71 0 -117 -45t-46 -113v-289h-75v438h-268v-438h-75v438h-114v68h114v59q0 89 43.5 132t134.5 43h43v-68h-43q-55 0 -79 -24t-24 -80v-62h268v70h-71v61h71v103h75v-103h160v-61h-160v-200
q21 64 71 102t116 38z" />
    <glyph glyph-name="f_iacute" unicode="f&#xed;" horiz-adv-x="620" 
d="M213 506h343v-506h-75v438h-268v-438h-75v438h-114v68h114v59q0 89 43.5 132t134.5 43h51v-68h-51q-55 0 -79 -24t-24 -80v-62zM571 736h85l-116 -160h-79z" />
    <glyph glyph-name="f_imacron" unicode="f&#x12b;" horiz-adv-x="620" 
d="M213 506h343v-506h-75v438h-268v-438h-75v438h-114v68h114v59q0 89 43.5 132t134.5 43h40v-68h-40q-55 0 -79 -24t-24 -80v-62zM400 626v61h237v-61h-237z" />
    <glyph glyph-name="f_lcaron" unicode="f&#x13e;" horiz-adv-x="620" 
d="M610 575l35 188h72l-45 -188h-62zM213 506h268v234h75v-740h-75v438h-268v-438h-75v438h-114v68h114v59q0 89 43.5 132t134.5 43h51v-68h-51q-55 0 -79 -24t-24 -80v-62z" />
    <glyph glyph-name="f_f_b" unicode="ffb" horiz-adv-x="1398" 
d="M1114 516q103 0 171.5 -75.5t68.5 -187.5q0 -113 -68.5 -188t-171.5 -75q-75 0 -132.5 43.5t-82.5 115.5v-149h-75v438h-268v-438h-75v438h-268v-438h-75v438h-114v68h114v59q0 89 43.5 132t134.5 43h51v-68h-51q-55 0 -79 -24t-24 -80v-62h268v59q0 89 43.5 132
t134.5 43h51v-68h-51q-55 0 -79 -24t-24 -80v-62h268v234h75v-384q25 73 82.5 116.5t132.5 43.5zM1093 60q78 0 131 55.5t53 137.5t-53 137.5t-131 55.5q-84 0 -139 -55t-55 -138t55 -138t139 -55z" />
    <glyph glyph-name="f_f_h" unicode="ffh" horiz-adv-x="1349" 
d="M1085 516q90 0 147.5 -62t57.5 -156v-298h-75v289q0 67 -44 112.5t-109 45.5q-71 0 -117 -45t-46 -113v-289h-75v438h-268v-438h-75v438h-268v-438h-75v438h-114v68h114v59q0 89 43.5 132t134.5 43h51v-68h-51q-55 0 -79 -24t-24 -80v-62h268v59q0 89 43.5 132t134.5 43
h51v-68h-51q-55 0 -79 -24t-24 -80v-62h268v234h75v-364q21 64 71 102t115 38z" />
    <glyph glyph-name="f_f_i" unicode="ffi" horiz-adv-x="963" 
d="M556 506h343v-506h-75v438h-268v-438h-75v438h-268v-438h-75v438h-114v68h114v59q0 89 43.5 132t134.5 43h51v-68h-51q-55 0 -79 -24t-24 -80v-62h268v59q0 89 43.5 132t134.5 43h51v-68h-51q-55 0 -79 -24t-24 -80v-62zM861 608q-20 0 -34 14t-14 34q0 21 14 35t34 14
q21 0 35 -14t14 -35q0 -20 -14 -34t-35 -14z" />
    <glyph glyph-name="f_f_j" unicode="ffj" horiz-adv-x="963" 
d="M556 506h343v-553q0 -169 -171 -159v67q55 -2 75.5 18t20.5 74v485h-268v-438h-75v438h-268v-438h-75v438h-114v68h114v59q0 89 43.5 132t134.5 43h51v-68h-51q-55 0 -79 -24t-24 -80v-62h268v59q0 89 43.5 132t134.5 43h51v-68h-51q-55 0 -79 -24t-24 -80v-62zM862 608
q-21 0 -35 14t-14 34q0 21 14 35t35 14q20 0 34 -14t14 -35q0 -20 -14 -34t-34 -14z" />
    <glyph glyph-name="f_f_k" unicode="ffk" horiz-adv-x="1289" 
d="M1045 297l240 -297h-97l-194 242l-95 -101v-141h-75v438h-268v-438h-75v438h-268v-438h-75v438h-114v68h114v59q0 89 43.5 132t134.5 43h51v-68h-51q-55 0 -79 -24t-24 -80v-62h268v59q0 89 43.5 132t134.5 43h51v-68h-51q-55 0 -79 -24t-24 -80v-62h268v234h75v-501
l246 267h96z" />
    <glyph glyph-name="f_f_l" unicode="ffl" horiz-adv-x="963" 
d="M824 506v234h75v-740h-75v438h-268v-438h-75v438h-268v-438h-75v438h-114v68h114v59q0 89 43.5 132t134.5 43h51v-68h-51q-55 0 -79 -24t-24 -80v-62h268v59q0 89 43.5 132t134.5 43h51v-68h-51q-55 0 -79 -24t-24 -80v-62h268z" />
    <glyph glyph-name="f_f_t" unicode="fft" horiz-adv-x="1097" 
d="M213 0h-75v438h-114v68h114v59q0 89 43.5 132t134.5 43h51v-68h-51q-55 0 -79 -24t-24 -80v-62h268v59q0 89 43.5 132t134.5 43h51v-68h-51q-55 0 -79 -24t-24 -80v-62h268v181l75 23v-204h153v-68h-153v-266q0 -56 24 -80t79 -24h50v-68h-50q-91 0 -134.5 43t-43.5 132
v263h-268v-438h-75v438h-268v-438z" />
    <glyph glyph-name="idieresis_idieresis" unicode="&#xef;&#xef;" horiz-adv-x="407" 
d="M-30 657q0 20 14 34t34 14t34 -14t14 -34t-14 -34.5t-34 -14.5t-34 14.5t-14 34.5zM156 657q0 20 14 34t34 14t34 -14t14 -34t-14 -34.5t-34 -14.5t-34 14.5t-14 34.5zM342 657q0 20 14 34t34 14t34 -14t14 -34t-14 -34.5t-34 -14.5t-34 14.5t-14 34.5zM139 0h-75v506h75
v-506zM342 0h-75v506h75v-506z" />
    <glyph glyph-name="t_t" unicode="tt" horiz-adv-x="780" 
d="M138 438h-114v68h114v181l75 23v-204h294v181l75 23v-204h153v-68h-153v-266q0 -56 24 -80t79 -24h50v-68h-50q-91 0 -134.5 43t-43.5 132v263h-294v-266q0 -56 24 -80t79 -24h51v-68h-51q-91 0 -134.5 43t-43.5 132v263z" />
    <glyph glyph-name="tcaron_t" unicode="&#x165;t" horiz-adv-x="780" 
d="M329 575h-61l35 188h71zM138 438h-114v68h114v181l75 23v-204h294v181l75 23v-204h153v-68h-153v-266q0 -56 24 -80t79 -24h50v-68h-50q-91 0 -134.5 43t-43.5 132v263h-294v-266q0 -56 24 -80t79 -24h51v-68h-51q-91 0 -134.5 43t-43.5 132v263z" />
    <glyph glyph-name="uni04330443" unicode="&#x433;&#x443;" horiz-adv-x="880" 
d="M620 23l179 483h77l-263 -706h-77l75 200h-59l-163 438h-250v-438h-75v506h381z" />
    <glyph glyph-name="uni04560457" unicode="&#x456;&#x457;" horiz-adv-x="415" 
d="M53 656q0 21 14 35t35 14q20 0 34.5 -14t14.5 -35q0 -20 -14.5 -34t-34.5 -14q-21 0 -35 14t-14 34zM203 656q0 20 14 34t34 14t33.5 -14t13.5 -34t-14 -33.5t-33 -13.5q-20 0 -34 13.5t-14 33.5zM351 656q0 20 13.5 34t33.5 14t34 -14t14 -34q0 -19 -14 -33t-34 -14
t-33.5 13.5t-13.5 33.5zM139 0h-75v506h75v-506zM351 0h-75v506h75v-506z" />
    <glyph glyph-name="lambda_lambda" unicode="&#x3bb;&#x3bb;" horiz-adv-x="971" 
d="M683 740l284 -740h-77l-183 476l-171 -476h-97l-182 476l-171 -476h-82l191 506h50l-89 234h77l252 -660l160 426h51l-90 234h77z" />
    <glyph glyph-name=".notdef" horiz-adv-x="700" 
d="M690 0h-590v590h184v55q0 55 55 55h112q55 0 55 -55v-55h184v-590zM339 645v-55h112v55h-112zM189 429l-4 -24q17 -11 39 -11q18 0 29.5 9t11.5 26q0 16 -14 23t-28 10.5t-14 8.5q0 9 16 9q14 0 31 -9l4 24q-15 9 -35 9q-18 0 -29.5 -9t-11.5 -26q0 -13 8.5 -20.5
t19 -9.5t19 -5.5t8.5 -7.5q0 -9 -15 -9q-16 0 -35 12zM317 502h-24v-64q0 -20 11.5 -32t31.5 -12t31.5 12t11.5 32v64h-24v-64q0 -20 -19 -20t-19 20v64zM413 420l-3 -24h73l3 24h-26v58h23l3 24h-73l-3 -24h26v-58h-23zM547 478v-82h24v82h31l3 24h-89l-3 -24h34zM248 294
l26 3q0 52 -42 52q-21 0 -33 -15.5t-12 -39.5q0 -28 13.5 -41.5t34.5 -13.5t38 12l-5 24q-21 -12 -33 -12q-22 0 -22 31t19 31q16 0 16 -31zM418 274l-4 -24q16 -11 39 -11q18 0 29.5 9t11.5 26q0 16 -14 23t-28 10.5t-14 8.5q0 9 16 9q14 0 31 -9l4 24q-15 9 -35 9
q-18 0 -29.5 -9t-11.5 -26q0 -16 13.5 -23.5t27.5 -11t14 -8.5q0 -9 -15 -9q-16 0 -35 12zM315 347l-19 -106h25l5 27h32l5 -27h24l-18 106h-54zM528 347v-106h71l3 24h-50v17h47l3 24h-50v17h47l3 24h-74zM354 292h-24l5 31h14zM220 168v-82h24v82h31l3 24h-89l-3 -24h34z
M331 117v-31h24v31l36 75h-27l-21 -45l-20 45h-28zM416 192v-106h24v33h19q17 0 28.5 10.5t11.5 25.5t-11.5 26t-28.5 11h-43zM528 192v-106h71l3 24h-50v17h47l3 24h-50v17h47l3 24h-74zM459 143h-19v25h19q14 0 14 -13q0 -12 -14 -12z" />
    <glyph glyph-name="uni0000" horiz-adv-x="600" 
 />
    <glyph glyph-name="nonmarkingreturn" horiz-adv-x="333" 
 />
    <glyph glyph-name="CR" unicode="&#xd;" horiz-adv-x="600" 
 />
    <glyph glyph-name="space" unicode=" " horiz-adv-x="300" 
 />
    <glyph glyph-name="exclam" unicode="!" horiz-adv-x="263" 
d="M160 199h-56l-13 307v194h81v-194zM83 43q0 20 14 34t35 14q20 0 34.5 -14t14.5 -34t-14.5 -34.5t-34.5 -14.5q-21 0 -35 14.5t-14 34.5z" />
    <glyph glyph-name="quotedbl" unicode="&#x22;" horiz-adv-x="379" 
d="M136 435h-72v265h72v-265zM315 435h-72v265h72v-265z" />
    <glyph glyph-name="numbersign" unicode="#" horiz-adv-x="704" 
d="M659 509l-19 -68h-100l-52 -182h100l-19 -68h-100l-55 -191h-72l55 191h-181l-55 -191h-72l55 191h-100l20 68h99l52 182h-100l20 68h99l55 191h72l-55 -191h181l55 191h72l-55 -191h100zM235 259h181l52 182h-181z" />
    <glyph glyph-name="dollar" unicode="$" horiz-adv-x="615" 
d="M564 183q0 -79 -63 -132t-160 -60v-111h-63v112q-95 8 -155.5 58t-71.5 130l78 16q8 -57 46 -92t103 -42v265q-38 10 -62.5 19t-55 25t-48.5 35t-30.5 49t-12.5 67q0 75 58.5 127t150.5 60v111h63v-112q88 -9 145.5 -60.5t68.5 -127.5l-78 -16q-8 53 -43.5 89t-92.5 45
v-249q51 -14 82.5 -25.5t68 -34.5t54.5 -59.5t18 -86.5zM149 525q0 -48 33.5 -74t95.5 -44v233q-59 -7 -94 -38t-35 -77zM341 310v-249q66 6 104.5 39t38.5 81q0 53 -37 81t-106 48z" />
    <glyph glyph-name="percent" unicode="%" horiz-adv-x="949" 
d="M37 490q0 92 52 154t132 62t132 -62t52 -154t-52 -154t-132 -62t-132 62t-52 154zM307 0h-77l412 700h77zM107 490q0 -66 32 -109.5t82 -43.5t82 43.5t32 109.5t-32 110t-82 44t-82 -44t-32 -110zM544 210q0 92 52 154t132 62t132 -62t52 -154t-52 -154t-132 -62t-132 62
t-52 154zM614 210q0 -66 32 -109.5t82 -43.5t82 43.5t32 109.5t-32 110t-82 44t-82 -44t-32 -110z" />
    <glyph glyph-name="ampersand" unicode="&#x26;" horiz-adv-x="648" 
d="M661 51l-37 -61q-62 38 -134 86q-91 -86 -234 -86q-98 0 -162 50t-64 135q0 113 144 183q-73 99 -73 177q0 74 50.5 124.5t132.5 50.5q77 0 124.5 -46.5t47.5 -113.5q0 -70 -49 -117.5t-134 -85.5q75 -82 203 -174q51 90 23 210h73q30 -144 -38 -252q66 -44 127 -80z
M283 643q-47 0 -77.5 -32t-30.5 -81q0 -60 62 -140q35 18 56 30.5t45 32t35 42.5t11 50q0 44 -28 71t-73 27zM258 57q107 0 174 61q-138 101 -220 194q-51 -28 -78.5 -59.5t-27.5 -76.5q0 -54 41.5 -86.5t110.5 -32.5z" />
    <glyph glyph-name="quotesingle" unicode="'" horiz-adv-x="200" 
d="M136 435h-72v265h72v-265z" />
    <glyph glyph-name="parenleft" unicode="(" horiz-adv-x="297" 
d="M51 350q0 130 42 250t108 200h77q-66 -80 -108 -200t-42 -250q0 -129 42 -249.5t108 -200.5h-77q-66 80 -108 200.5t-42 249.5z" />
    <glyph glyph-name="parenright" unicode=")" horiz-adv-x="315" 
d="M246 350q0 -130 -42 -250t-108 -200h-77q66 80 108 200t42 250q0 129 -42 249.5t-108 200.5h77q66 -80 108 -200.5t42 -249.5z" />
    <glyph glyph-name="asterisk" unicode="*" horiz-adv-x="413" 
d="M340 639l28 -49l-112 -61l112 -61l-28 -49l-108 67l3 -128h-57l3 128l-108 -67l-28 49l112 61l-112 61l28 49l108 -66l-3 127h57l-3 -127z" />
    <glyph glyph-name="plus" unicode="+" horiz-adv-x="526" 
d="M225 315h-161v70h161v162h75v-162h162v-70h-162v-162h-75v162z" />
    <glyph glyph-name="comma" unicode="," horiz-adv-x="209" 
d="M106 97q35 0 57 -28.5t22 -69.5q0 -102 -97 -155l-37 43q44 24 60.5 56t8.5 56q-23 -8 -45 5t-22 41q0 22 15.5 37t37.5 15z" />
    <glyph glyph-name="hyphen" unicode="-" horiz-adv-x="312" 
d="M268 220h-224v67h224v-67z" />
    <glyph glyph-name="period" unicode="." horiz-adv-x="209" 
d="M53 45q0 22 15 37t37 15q21 0 36 -15t15 -37q0 -21 -15 -36t-36 -15q-22 0 -37 15t-15 36z" />
    <glyph glyph-name="slash" unicode="/" horiz-adv-x="312" 
d="M75 -100h-75l237 900h75z" />
    <glyph glyph-name="zero" unicode="0" horiz-adv-x="664" 
d="M54 350q0 154 79 257t199 103q121 0 199.5 -102.5t78.5 -257.5t-78.5 -257.5t-199.5 -102.5q-120 0 -199 103t-79 257zM134 350q0 -124 56 -206t142 -82t142 82t56 206t-56 206t-142 82t-142 -82t-56 -206z" />
    <glyph glyph-name="one" unicode="1" horiz-adv-x="537" 
d="M338 710v-639h185v-71h-479v71h216v550l-216 -57v70z" />
    <glyph glyph-name="two" unicode="2" horiz-adv-x="607" 
d="M415 300l-237 -229h365v-71h-477v63l298 291q80 80 80 155q0 58 -38.5 93.5t-101.5 35.5q-75 0 -116 -44t-41 -119h-79q0 106 63.5 170.5t174.5 64.5q98 0 158 -54.5t60 -145.5q0 -106 -109 -210z" />
    <glyph glyph-name="three" unicode="3" horiz-adv-x="573" 
d="M496 637l-195 -222q102 -5 160 -63t58 -148q0 -93 -66 -153.5t-177 -60.5q-108 0 -171.5 56.5t-70.5 154.5l80 9q5 -68 47 -108t115 -40q76 0 119.5 41t43.5 105t-44.5 104.5t-132.5 40.5h-45v64l185 212h-337v71h431v-63z" />
    <glyph glyph-name="four" unicode="4" horiz-adv-x="602" 
d="M467 700v-467h101v-70h-101v-163h-78v163h-375v70l309 467h144zM389 674l-289 -441h289v441z" />
    <glyph glyph-name="five" unicode="5" horiz-adv-x="584" 
d="M331 435q86 0 147.5 -56t61.5 -160q0 -99 -70 -164t-178 -65q-103 0 -166.5 54.5t-71.5 145.5l80 9q5 -61 47 -99t111 -38q73 0 120.5 44.5t47.5 112.5q0 72 -44 115t-118 43q-97 0 -147 -72l-74 11l47 384h362v-71h-299l-35 -282q58 88 179 88z" />
    <glyph glyph-name="six" unicode="6" horiz-adv-x="576" 
d="M388 700l-194 -317q44 38 103 44t110.5 -15.5t88 -73t36.5 -119.5q0 -98 -68.5 -163.5t-175.5 -65.5t-175.5 65t-68.5 164q0 67 46 141l208 340h90zM288 62q71 0 117.5 44.5t46.5 112.5t-46.5 113t-117.5 45t-117.5 -45t-46.5 -113t46.5 -112.5t117.5 -44.5z" />
    <glyph glyph-name="seven" unicode="7" horiz-adv-x="533" 
d="M24 700h475v-63l-117 -252h117v-70h-150l-147 -315h-86l149 315h-241v70h274l115 244h-389v71z" />
    <glyph glyph-name="eight" unicode="8" horiz-adv-x="624" 
d="M396 359q79 -18 126 -66.5t47 -111.5q0 -82 -72 -136.5t-185 -54.5q-114 0 -186 54.5t-72 136.5q0 63 47.5 111.5t126.5 66.5q-64 20 -103 65t-39 103q0 77 64.5 130t161.5 53q96 0 161 -53t65 -130q0 -58 -39 -103t-103 -65zM164 515q0 -53 42 -88t106 -35
q63 0 105.5 35t42.5 88t-42.5 88.5t-105.5 35.5q-64 0 -106 -35.5t-42 -88.5zM312 61q78 0 128.5 37t50.5 94q0 58 -50.5 95.5t-128.5 37.5t-129 -37.5t-51 -95.5q0 -57 50.5 -94t129.5 -37z" />
    <glyph glyph-name="nine" unicode="9" horiz-adv-x="576" 
d="M288 710q107 0 175.5 -65t68.5 -164q0 -67 -46 -141l-209 -340h-89l196 319q-44 -39 -103.5 -45.5t-111.5 15t-88.5 73t-36.5 119.5q0 98 68.5 163.5t175.5 65.5zM288 323q71 0 117.5 45t46.5 113t-46.5 112.5t-117.5 44.5t-117.5 -44.5t-46.5 -112.5t46.5 -113
t117.5 -45z" />
    <glyph glyph-name="colon" unicode=":" horiz-adv-x="209" 
d="M53 460q0 22 15 37t37 15q21 0 36 -15t15 -37q0 -21 -15 -36t-36 -15q-22 0 -37 15t-15 36zM53 45q0 22 15 37t37 15q21 0 36 -15t15 -37q0 -21 -15 -36t-36 -15q-22 0 -37 15t-15 36z" />
    <glyph glyph-name="semicolon" unicode=";" horiz-adv-x="209" 
d="M105 409q-22 0 -37 15t-15 36q0 22 15 37t37 15q21 0 36 -15t15 -37q0 -21 -15 -36t-36 -15zM106 97q35 0 57 -28.5t22 -69.5q0 -102 -97 -155l-37 43q44 24 60.5 56t8.5 56q-23 -8 -45 5t-22 41q0 22 15.5 37t37.5 15z" />
    <glyph glyph-name="less" unicode="&#x3c;" horiz-adv-x="526" 
d="M64 385l398 173v-76l-306 -131l306 -132v-77l-398 173v70z" />
    <glyph glyph-name="equal" unicode="=" horiz-adv-x="526" 
d="M462 423h-398v71h398v-71zM462 206h-398v71h398v-71z" />
    <glyph glyph-name="greater" unicode="&#x3e;" horiz-adv-x="526" 
d="M64 481v77l398 -173v-70l-398 -173v76l306 132z" />
    <glyph glyph-name="question" unicode="?" horiz-adv-x="522" 
d="M290 192h-75q0 47 14 84.5t34.5 59.5t44.5 44t44.5 39t34.5 43.5t14 58.5q0 51 -37.5 84t-101.5 33q-76 0 -117 -43.5t-41 -119.5h-80q0 106 64 170.5t174 64.5q101 0 159.5 -51.5t58.5 -132.5q0 -51 -19.5 -89t-47.5 -62t-56 -47t-47.5 -57t-19.5 -79zM204 43
q0 20 14.5 34t34.5 14t34.5 -14t14.5 -34t-14.5 -34.5t-34.5 -14.5t-34.5 14.5t-14.5 34.5z" />
    <glyph glyph-name="at" unicode="@" horiz-adv-x="1015" 
d="M560 710q181 0 296 -116.5t115 -293.5q0 -134 -63 -212t-148 -78q-57 0 -86 33.5t-27 85.5q-35 -56 -89.5 -89.5t-118.5 -33.5q-80 0 -133 57t-53 146q0 112 75 191.5t182 79.5q62 0 109 -38t63 -102l23 131h69l-55 -313q-7 -35 5 -60t46 -25q53 0 95 60t42 167
q0 151 -97 250.5t-251 99.5q-190 0 -325.5 -131t-135.5 -319q0 -151 97.5 -250.5t250.5 -99.5q139 0 261 77l31 -51q-134 -86 -292 -86q-181 0 -296.5 116.5t-115.5 292.5q0 140 71 258t192 185.5t263 67.5zM466 70q69 0 124.5 44.5t71.5 111.5l4 21q1 8 1 23q0 63 -39 104
t-102 41q-81 0 -141.5 -58.5t-60.5 -140.5q0 -64 39 -105t103 -41z" />
    <glyph glyph-name="A" unicode="A" horiz-adv-x="719" 
d="M705 0h-84l-73 186h-380l-73 -186h-81l277 700h137zM358 674l-163 -417h326z" />
    <glyph glyph-name="B" unicode="B" horiz-adv-x="622" 
d="M398 353q80 -7 128.5 -52.5t48.5 -116.5q0 -78 -56.5 -131t-144.5 -53h-310v700h280q88 0 144.5 -53t56.5 -131q0 -64 -39.5 -107t-107.5 -56zM339 631h-198v-247h198q58 0 95 35.5t37 88.5q0 52 -37 87.5t-95 35.5zM141 69h224q57 0 94 36t37 88q0 53 -37 88t-94 35
h-224v-247z" />
    <glyph glyph-name="C" unicode="C" horiz-adv-x="771" 
d="M44 350q0 152 104.5 256t258.5 104q111 0 196 -57.5t124 -144.5l-71 -30q-33 71 -99.5 115.5t-149.5 44.5q-119 0 -201 -83.5t-82 -204.5t82 -204.5t201 -83.5q83 0 149.5 44.5t99.5 115.5l71 -30q-39 -87 -124 -144.5t-196 -57.5q-154 0 -258.5 104t-104.5 256z" />
    <glyph glyph-name="D" unicode="D" horiz-adv-x="709" 
d="M311 0h-247v700h247q151 0 252.5 -100.5t101.5 -249.5t-101.5 -249.5t-252.5 -100.5zM142 629v-558h164q120 0 199.5 80t79.5 199q0 120 -79.5 199.5t-199.5 79.5h-164z" />
    <glyph glyph-name="E" unicode="E" horiz-adv-x="542" 
d="M495 0h-431v700h431v-71h-353v-244h343v-70h-343v-244h353v-71z" />
    <glyph glyph-name="F" unicode="F" horiz-adv-x="502" 
d="M142 0h-78v700h411v-71h-333v-249h323v-71h-323v-309z" />
    <glyph glyph-name="G" unicode="G" horiz-adv-x="814" 
d="M352 378h408q8 -110 -39.5 -200t-131 -139t-182.5 -49q-154 0 -258.5 104t-104.5 256t104.5 256t258.5 104q111 0 196 -57.5t124 -144.5l-71 -30q-33 71 -99.5 115.5t-149.5 44.5q-119 0 -201 -83.5t-82 -204.5t82 -204.5t201 -83.5q111 0 186 71.5t83 173.5h-324v71z
" />
    <glyph glyph-name="H" unicode="H" horiz-adv-x="713" 
d="M142 0h-78v700h78v-315h429v315h78v-700h-78v315h-429v-315z" />
    <glyph glyph-name="I" unicode="I" horiz-adv-x="206" 
d="M142 0h-78v700h78v-700z" />
    <glyph glyph-name="J" unicode="J" horiz-adv-x="513" 
d="M28 180l78 11q4 -63 42 -96t95 -33q65 0 101.5 43.5t36.5 111.5v483h78v-483q0 -101 -59.5 -164t-157.5 -63q-89 0 -148 50.5t-66 139.5z" />
    <glyph glyph-name="K" unicode="K" horiz-adv-x="633" 
d="M311 412l315 -412h-95l-274 354l-115 -122v-232h-78v700h78v-362l342 362h98z" />
    <glyph glyph-name="L" unicode="L" horiz-adv-x="515" 
d="M495 0h-431v700h78v-629h353v-71z" />
    <glyph glyph-name="M" unicode="M" horiz-adv-x="842" 
d="M772 700v-700h-75v681l-210 -681h-138l-210 684v-684h-75v700h147l208 -677l208 677h145z" />
    <glyph glyph-name="N" unicode="N" horiz-adv-x="719" 
d="M577 16v684h78v-700h-153l-360 683v-683h-78v700h153z" />
    <glyph glyph-name="O" unicode="O" horiz-adv-x="814" 
d="M44 350q0 152 104.5 256t258.5 104t258.5 -104t104.5 -256t-104.5 -256t-258.5 -104t-258.5 104t-104.5 256zM124 350q0 -121 82 -204.5t201 -83.5q120 0 201.5 83t81.5 205t-81.5 205t-201.5 83q-119 0 -201 -83.5t-82 -204.5z" />
    <glyph glyph-name="P" unicode="P" horiz-adv-x="569" 
d="M142 0h-78v700h264q99 0 161.5 -59.5t62.5 -149.5q0 -89 -62.5 -148.5t-161.5 -59.5h-186v-283zM142 629v-275h186q63 0 103.5 39.5t40.5 98.5t-40.5 98t-103.5 39h-186z" />
    <glyph glyph-name="Q" unicode="Q" horiz-adv-x="814" 
d="M770 350q0 -159 -113 -264l92 -110l-57 -49l-96 114q-83 -51 -189 -51q-154 0 -258.5 104t-104.5 256t104.5 256t258.5 104t258.5 -104t104.5 -256zM407 62q78 0 141 37l-108 128l57 48l110 -131q83 83 83 206q0 122 -81.5 205t-201.5 83q-119 0 -201 -83.5t-82 -204.5
t82 -204.5t201 -83.5z" />
    <glyph glyph-name="R" unicode="R" horiz-adv-x="610" 
d="M372 296l204 -296h-94l-203 294h-137v-294h-78v700h279q95 0 156 -58t61 -144q0 -80 -52 -136.5t-136 -65.5zM343 629h-201v-262h201q60 0 98.5 37.5t38.5 93.5t-38.5 93.5t-98.5 37.5z" />
    <glyph glyph-name="S" unicode="S" horiz-adv-x="609" 
d="M51 180l78 16q10 -65 57.5 -100.5t125.5 -35.5q74 0 120 34t46 87q0 39 -22.5 66t-58.5 42t-79.5 26.5t-87.5 26t-80 34.5t-58.5 57t-22.5 89q0 81 66.5 134.5t167.5 53.5t167.5 -53t79.5 -137l-79 -16q-9 61 -54.5 99t-114.5 38q-67 0 -110 -33t-43 -83
q0 -38 22.5 -63.5t58.5 -39t80 -25t87.5 -26t79.5 -35.5t58.5 -59.5t22.5 -93.5q0 -84 -71 -138.5t-177 -54.5q-107 0 -177 51t-82 139z" />
    <glyph glyph-name="T" unicode="T" horiz-adv-x="572" 
d="M325 0h-78v629h-237v71h552v-71h-237v-629z" />
    <glyph glyph-name="U" unicode="U" horiz-adv-x="679" 
d="M54 259v441h78v-441q0 -86 58 -141.5t149 -55.5q93 0 150.5 55t57.5 142v441h78v-441q0 -118 -80.5 -193.5t-205.5 -75.5t-205 75.5t-80 193.5z" />
    <glyph glyph-name="V" unicode="V" horiz-adv-x="689" 
d="M346 24l248 676h81l-263 -700h-136l-262 700h83z" />
    <glyph glyph-name="W" unicode="W" horiz-adv-x="1049" 
d="M755 25l167 675h80l-175 -700h-146l-157 676l-158 -676h-144l-175 700h79l169 -673l157 673h145z" />
    <glyph glyph-name="X" unicode="X" horiz-adv-x="647" 
d="M539 700h94l-262 -349l262 -351h-96l-214 290l-215 -290h-94l262 349l-262 351h96l215 -289z" />
    <glyph glyph-name="Y" unicode="Y" horiz-adv-x="617" 
d="M613 700l-266 -457v-172h137v-71h-351v71h136v172l-265 457h92l215 -380l214 380h88z" />
    <glyph glyph-name="Z" unicode="Z" horiz-adv-x="585" 
d="M50 700h485v-132l-452 -497h452v-71h-485v132l452 497h-452v71z" />
    <glyph glyph-name="bracketleft" unicode="[" horiz-adv-x="297" 
d="M278 -100h-214v900h214v-71h-136v-758h136v-71z" />
    <glyph glyph-name="backslash" unicode="\" horiz-adv-x="312" 
d="M312 -100h-75l-237 900h75z" />
    <glyph glyph-name="bracketright" unicode="]" horiz-adv-x="297" 
d="M233 -100h-214v71h136v758h-136v71h214v-900z" />
    <glyph glyph-name="asciicircum" unicode="^" horiz-adv-x="600" 
d="M364 740l192 -506h-81l-177 482l-177 -482h-77l192 506h128z" />
    <glyph glyph-name="underscore" unicode="_" horiz-adv-x="506" 
d="M496 -78h-486v68h486v-68z" />
    <glyph glyph-name="grave" unicode="`" horiz-adv-x="295" 
d="M245 576h-79l-116 160h85z" />
    <glyph glyph-name="a" unicode="a" horiz-adv-x="523" 
d="M269 516q86 0 140 -45.5t54 -127.5v-343h-75v138q-51 -148 -198 -148q-69 0 -112.5 38t-43.5 101q0 68 49.5 105t128.5 45l113 13q63 6 63 58q0 47 -33 74t-87 27t-93 -27t-53 -83l-73 20q18 75 77.5 115t142.5 40zM209 53q77 0 128 51.5t51 120.5v42q-14 -30 -68 -36
l-109 -12q-46 -6 -74 -27.5t-28 -58.5q0 -36 27.5 -58t72.5 -22z" />
    <glyph glyph-name="b" unicode="b" horiz-adv-x="638" 
d="M354 516q103 0 171.5 -75.5t68.5 -187.5q0 -113 -68.5 -188t-171.5 -75q-75 0 -132.5 43.5t-82.5 115.5v-149h-75v740h75v-384q25 73 82.5 116.5t132.5 43.5zM333 60q78 0 131 55.5t53 137.5t-53 137.5t-131 55.5q-84 0 -139 -55t-55 -138t55 -138t139 -55z" />
    <glyph glyph-name="c" unicode="c" horiz-adv-x="593" 
d="M44 253q0 112 76.5 187.5t189.5 75.5q82 0 146.5 -42.5t95.5 -115.5l-69 -24q-23 52 -69 82t-104 30q-80 0 -134.5 -55.5t-54.5 -137.5t54.5 -137.5t134.5 -55.5q58 0 104 30t69 82l69 -24q-31 -73 -95.5 -115.5t-146.5 -42.5q-113 0 -189.5 75.5t-76.5 187.5z" />
    <glyph glyph-name="d" unicode="d" horiz-adv-x="638" 
d="M499 359v381h75v-740h-75v147q-26 -72 -83 -114.5t-132 -42.5q-103 0 -171.5 75t-68.5 188q0 112 68.5 187.5t171.5 75.5q75 0 132 -42.5t83 -114.5zM305 60q84 0 139 55t55 138t-55 138t-139 55q-77 0 -130.5 -55.5t-53.5 -137.5t53.5 -137.5t130.5 -55.5z" />
    <glyph glyph-name="e" unicode="e" horiz-adv-x="610" 
d="M305 516q117 0 192.5 -82.5t66.5 -203.5h-445q8 -76 61.5 -124.5t130.5 -48.5q59 0 105 29t70 79l64 -27q-32 -67 -95 -107.5t-145 -40.5q-113 0 -189.5 75.5t-76.5 187.5t75 187.5t186 75.5zM305 449q-69 0 -120 -44t-64 -113h367q-11 68 -61.5 112.5t-121.5 44.5z" />
    <glyph glyph-name="f" unicode="f" horiz-adv-x="401" 
d="M213 0h-75v438h-114v68h114v59q0 89 43.5 132t134.5 43h51v-68h-51q-55 0 -79 -24t-24 -80v-62h154v-68h-154v-438z" />
    <glyph glyph-name="g" unicode="g" horiz-adv-x="638" 
d="M499 361v145h75v-453q0 -112 -76.5 -187.5t-189.5 -75.5q-81 0 -144 40.5t-95 107.5l68 32q24 -51 69 -81t102 -30q81 0 136 55.5t55 138.5v98q-26 -71 -83 -113t-132 -42q-103 0 -171.5 74.5t-68.5 185.5t68.5 185.5t171.5 74.5q75 0 132 -42t83 -113zM306 65
q84 0 138.5 54.5t54.5 136.5q0 81 -54.5 135.5t-138.5 54.5q-78 0 -131.5 -54.5t-53.5 -135.5t53.5 -136t131.5 -55z" />
    <glyph glyph-name="h" unicode="h" horiz-adv-x="590" 
d="M326 516q89 0 146.5 -62t57.5 -156v-298h-75v289q0 67 -44 112.5t-109 45.5q-71 0 -117 -45t-46 -113v-289h-75v740h75v-364q21 64 71 102t116 38z" />
    <glyph glyph-name="i" unicode="i" horiz-adv-x="203" 
d="M53 656q0 21 14 35t35 14q20 0 34.5 -14t14.5 -35q0 -20 -14.5 -34t-34.5 -14q-21 0 -35 14t-14 34zM139 0h-75v506h75v-506z" />
    <glyph glyph-name="j" unicode="j" horiz-adv-x="223" 
d="M73 656q0 21 14 35t35 14q20 0 34.5 -14t14.5 -35q0 -20 -14.5 -34t-34.5 -14q-21 0 -35 14t-14 34zM-11 -206v67q54 -2 74.5 18t20.5 74v553h75v-553q0 -169 -170 -159z" />
    <glyph glyph-name="k" unicode="k" horiz-adv-x="529" 
d="M285 297l240 -297h-97l-194 242l-95 -101v-141h-75v740h75v-501l246 267h96z" />
    <glyph glyph-name="l" unicode="l" horiz-adv-x="203" 
d="M139 0h-75v740h75v-740z" />
    <glyph glyph-name="m" unicode="m" horiz-adv-x="901" 
d="M657 516q80 0 132.5 -62t52.5 -156v-298h-75v289q0 67 -39 112.5t-95 45.5q-62 0 -102.5 -45t-40.5 -113v-289h-75v289q0 67 -38.5 112.5t-94.5 45.5q-62 0 -102.5 -45t-40.5 -113v-289h-75v506h75v-126q21 62 65.5 99t102.5 37q63 0 109 -40t64 -106q18 66 65.5 106
t111.5 40z" />
    <glyph glyph-name="n" unicode="n" horiz-adv-x="590" 
d="M326 516q89 0 146.5 -62t57.5 -156v-298h-75v289q0 67 -44 112.5t-109 45.5q-71 0 -117 -45t-46 -113v-289h-75v506h75v-130q21 64 71 102t116 38z" />
    <glyph glyph-name="o" unicode="o" horiz-adv-x="620" 
d="M44 253q0 112 76.5 187.5t189.5 75.5t189.5 -75.5t76.5 -187.5t-76.5 -187.5t-189.5 -75.5t-189.5 75.5t-76.5 187.5zM121 253q0 -82 54.5 -137.5t134.5 -55.5q81 0 135 55t54 138t-54 138t-135 55q-80 0 -134.5 -55.5t-54.5 -137.5z" />
    <glyph glyph-name="p" unicode="p" horiz-adv-x="638" 
d="M354 516q103 0 171.5 -75.5t68.5 -187.5q0 -113 -68.5 -188t-171.5 -75q-75 0 -132.5 43.5t-82.5 115.5v-349h-75v706h75v-150q25 73 82.5 116.5t132.5 43.5zM333 60q78 0 131 55.5t53 137.5t-53 137.5t-131 55.5q-84 0 -139 -55t-55 -138t55 -138t139 -55z" />
    <glyph glyph-name="q" unicode="q" horiz-adv-x="638" 
d="M499 359v147h75v-706h-75v347q-26 -72 -83 -114.5t-132 -42.5q-103 0 -171.5 75t-68.5 188q0 112 68.5 187.5t171.5 75.5q75 0 132 -42.5t83 -114.5zM305 60q84 0 139 55t55 138t-55 138t-139 55q-77 0 -130.5 -55.5t-53.5 -137.5t53.5 -137.5t130.5 -55.5z" />
    <glyph glyph-name="r" unicode="r" horiz-adv-x="365" 
d="M139 506v-136q26 87 80.5 121t125.5 21v-73q-85 19 -145.5 -25.5t-60.5 -124.5v-289h-75v506h75z" />
    <glyph glyph-name="s" unicode="s" horiz-adv-x="482" 
d="M34 131l76 15q16 -93 131 -93q58 0 94.5 23.5t36.5 60.5q0 38 -33.5 58t-80.5 28.5t-94.5 19t-81 41.5t-33.5 85q0 64 54 105.5t138 41.5q82 0 134 -38t64 -103l-75 -15q-17 92 -123 92q-51 0 -84 -22t-33 -58q0 -35 33.5 -53.5t81 -26.5t95 -19.5t81 -44.5t33.5 -89
q0 -65 -59 -107t-148 -42q-86 0 -140.5 38t-66.5 103z" />
    <glyph glyph-name="t" unicode="t" horiz-adv-x="411" 
d="M138 438h-114v68h114v181l75 23v-204h154v-68h-154v-266q0 -56 24 -80t79 -24h51v-68h-51q-91 0 -134.5 43t-43.5 132v263z" />
    <glyph glyph-name="u" unicode="u" horiz-adv-x="565" 
d="M59 207v299h75v-299q0 -65 42 -106t106 -41t106 41t42 106v299h75v-299q0 -96 -63 -156.5t-160 -60.5t-160 60.5t-63 156.5z" />
    <glyph glyph-name="v" unicode="v" horiz-adv-x="520" 
d="M263 23l176 483h77l-192 -506h-128l-192 506h82z" />
    <glyph glyph-name="w" unicode="w" horiz-adv-x="845" 
d="M616 20l142 486h73l-154 -506h-124l-130 484l-131 -484h-124l-154 506h75l142 -484l125 484h135z" />
    <glyph glyph-name="x" unicode="x" horiz-adv-x="512" 
d="M406 506h89l-193 -252l193 -254h-93l-147 200l-149 -200h-89l193 252l-193 254h94l146 -199z" />
    <glyph glyph-name="y" unicode="y" horiz-adv-x="520" 
d="M260 22l179 484h77l-262 -706h-77l75 200h-59l-189 506h82z" />
    <glyph glyph-name="z" unicode="z" horiz-adv-x="519" 
d="M50 506h419v-121l-392 -317h392v-68h-419v121l392 317h-392v68z" />
    <glyph glyph-name="braceleft" unicode="{" horiz-adv-x="339" 
d="M194 206l-10 -98q-9 -61 28.5 -99t96.5 -38l-8 -71q-91 0 -150.5 56t-44.5 146l10 105q10 58 -15 83t-87 25v70q62 0 87 25t15 83l-10 105q-15 90 44.5 146t150.5 56l8 -71q-59 0 -96.5 -38t-28.5 -99l10 -98q9 -52 -13 -90t-69 -54q45 -14 68.5 -52t13.5 -92z" />
    <glyph glyph-name="bar" unicode="|" horiz-adv-x="200" 
d="M136 -200h-72v1100h72v-1100z" />
    <glyph glyph-name="braceright" unicode="}" horiz-adv-x="339" 
d="M233 598l-10 -105q-10 -58 15 -83t86 -25v-70q-61 0 -86 -25t-15 -83l10 -105q15 -90 -44.5 -146t-150.5 -56l-9 71q60 0 97 38t29 99l-10 98q-10 51 12 89.5t70 54.5q-45 14 -68.5 52t-13.5 92l10 98q8 61 -29 99t-97 38l9 71q91 0 150.5 -56t44.5 -146z" />
    <glyph glyph-name="asciitilde" unicode="~" horiz-adv-x="525" 
d="M106 293l-62 29q17 49 52 77.5t83 28.5q31 0 56.5 -13t38.5 -29t31.5 -29t37.5 -13q52 0 76 63l61 -29q-16 -49 -51 -77.5t-83 -28.5q-31 0 -56.5 13t-38.5 29t-31.5 29t-37.5 13q-52 0 -76 -63z" />
    <glyph glyph-name="uni00A0" unicode="&#xa0;" horiz-adv-x="300" 
 />
    <glyph glyph-name="exclamdown" unicode="&#xa1;" horiz-adv-x="263" 
d="M181 458q0 -21 -14.5 -35t-34.5 -14q-21 0 -35 14t-14 35q0 20 14 34t35 14q20 0 34.5 -14t14.5 -34zM104 301h56l12 -307v-194h-81v194z" />
    <glyph glyph-name="cent" unicode="&#xa2;" horiz-adv-x="592" 
d="M341 444v-382q99 16 142 110l69 -24q-28 -66 -83.5 -107.5t-127.5 -48.5v-101h-64v101q-101 11 -167 84t-66 177q0 103 66 176.5t167 84.5v101h64v-101q72 -7 127.5 -48.5t83.5 -107.5l-69 -24q-43 94 -142 110zM121 253q0 -73 44 -126t112 -64v380q-68 -11 -112 -64
t-44 -126z" />
    <glyph glyph-name="sterling" unicode="&#xa3;" horiz-adv-x="649" 
d="M458 321h-222v-250h369v-71h-541v71h94v250h-94v59h94v113q0 94 63.5 155.5t159.5 61.5t160 -61.5t64 -155.5h-78q0 62 -42 103.5t-104 41.5q-61 0 -103 -42t-42 -103v-113h222v-59z" />
    <glyph glyph-name="currency" unicode="&#xa4;" horiz-adv-x="709" 
d="M622 350q0 -91 -52 -159l96 -97l-54 -54l-97 97q-69 -50 -159 -50t-159 50l-97 -97l-54 54l96 97q-52 68 -52 159t52 159l-96 97l54 54l97 -97q69 50 159 50t159 -50l97 97l54 -54l-96 -97q52 -68 52 -159zM167 350q0 -82 54.5 -137.5t134.5 -55.5q81 0 135 55t54 138
t-54 138t-135 55q-80 0 -134.5 -55.5t-54.5 -137.5z" />
    <glyph glyph-name="yen" unicode="&#xa5;" horiz-adv-x="631" 
d="M532 700h88l-146 -251h97v-56h-130l-50 -86h180v-56h-212l-5 -8v-172h137v-71h-351v71h137v172l-5 8h-212v56h180l-50 86h-130v56h97l-146 251h92l215 -380z" />
    <glyph glyph-name="brokenbar" unicode="&#xa6;" horiz-adv-x="200" 
d="M136 450h-72v450h72v-450zM136 -200h-72v450h72v-450z" />
    <glyph glyph-name="section" unicode="&#xa7;" horiz-adv-x="598" 
d="M472 89q55 -43 55 -121q0 -76 -64 -127t-161 -51t-159.5 46t-78.5 131l78 16q11 -60 54 -92t106 -32t104 30.5t41 76.5q0 34 -21.5 57.5t-56.5 35.5t-76.5 21.5t-83.5 22.5t-77 31.5t-56.5 53.5t-21.5 85q0 34 20.5 72.5t51.5 65.5q-55 45 -55 121t63.5 127t161.5 51
q97 0 159.5 -46t78.5 -131l-78 -16q-11 60 -54 92t-106 32t-104 -30.5t-41 -76.5q0 -34 21.5 -57.5t56.5 -35.5t77 -21.5t83.5 -22.5t76.5 -31.5t56.5 -53.5t21.5 -85q0 -34 -20.5 -72.5t-51.5 -65.5zM135 280q0 -41 28.5 -67.5t63 -37t93.5 -25.5t90 -27q23 19 38 46.5
t15 50.5q0 41 -28.5 67.5t-63 37t-93.5 25.5t-90 27q-23 -20 -38 -47t-15 -50z" />
    <glyph glyph-name="dieresis" unicode="&#xa8;" horiz-adv-x="407" 
d="M50 656q0 20 14 34t34 14t33.5 -14t13.5 -34t-13.5 -33.5t-33.5 -13.5t-34 13.5t-14 33.5zM262 656q0 20 13.5 34t33.5 14t34 -14t14 -34t-14 -33.5t-34 -13.5q-19 0 -33 13.5t-14 33.5z" />
    <glyph glyph-name="copyright" unicode="&#xa9;" horiz-adv-x="808" 
d="M44 350q0 152 104 256t256 104t256 -104t104 -256t-104 -256t-256 -104t-256 104t-104 256zM106 350q0 -128 86 -215t212 -87q127 0 213 87t86 215t-86 215t-213 87q-126 0 -212 -87t-86 -215zM208 350q0 83 57 139.5t142 56.5q61 0 109 -31.5t71 -86.5l-62 -21
q-15 35 -46.5 56t-71.5 21q-56 0 -93.5 -38.5t-37.5 -95.5t37.5 -95.5t93.5 -38.5q40 0 71.5 21t46.5 56l62 -21q-23 -55 -71 -86.5t-109 -31.5q-85 0 -142 56.5t-57 139.5z" />
    <glyph glyph-name="ordfeminine" unicode="&#xaa;" horiz-adv-x="382" 
d="M191 707q63 0 102.5 -33.5t39.5 -93.5v-236h-66v86q-40 -93 -133 -93q-49 0 -79.5 27t-30.5 72q0 50 35.5 77t94.5 32l72 7q41 3 41 37q0 28 -21 45.5t-55 17.5q-75 0 -91 -70l-65 16q11 51 53 80t103 29zM152 391q48 0 81.5 32.5t33.5 76.5v25q-14 -20 -43 -23l-70 -8
q-63 -7 -63 -54q0 -22 16.5 -35.5t44.5 -13.5z" />
    <glyph glyph-name="guillemotleft" unicode="&#xab;" horiz-adv-x="525" 
d="M276 448v-80l-170 -113l170 -114v-83l-232 160v70zM248 288l233 160v-80l-171 -113l171 -114v-83l-233 160v70z" />
    <glyph glyph-name="logicalnot" unicode="&#xac;" horiz-adv-x="526" 
d="M387 315h-323v70h398v-232h-75v162z" />
    <glyph glyph-name="uni00AD" unicode="&#xad;" horiz-adv-x="312" 
d="M268 220h-224v67h224v-67z" />
    <glyph glyph-name="registered" unicode="&#xae;" horiz-adv-x="208" 
d="M104 705q34 0 57 -23t23 -57t-23 -56.5t-57 -22.5q-33 0 -56.5 23t-23.5 56q0 34 23.5 57t56.5 23zM104 563q26 0 43.5 18t17.5 44q0 27 -17.5 44.5t-43.5 17.5t-43.5 -17.5t-17.5 -44.5q0 -26 17.5 -44t43.5 -18zM141 640q0 -21 -20 -26l20 -30h-22l-19 29h-8v-29h-19
v83h38q12 0 21 -7.5t9 -19.5zM92 628h17q13 0 13 12q0 11 -13 11h-17v-23z" />
    <glyph glyph-name="macron" unicode="&#xaf;" horiz-adv-x="406" 
d="M356 626h-306v61h306v-61z" />
    <glyph glyph-name="degree" unicode="&#xb0;" horiz-adv-x="423" 
d="M44 545q0 71 48 118t120 47q71 0 119 -47.5t48 -117.5t-48 -117t-119 -47q-72 0 -120 47t-48 117zM115 545q0 -41 28 -69.5t69 -28.5q40 0 68 28.5t28 69.5q0 42 -27.5 70t-68.5 28t-69 -28t-28 -70z" />
    <glyph glyph-name="plusminus" unicode="&#xb1;" horiz-adv-x="526" 
d="M225 315h-161v70h161v162h75v-162h162v-70h-162v-162h-75v162zM462 0h-398v71h398v-71z" />
    <glyph glyph-name="acute" unicode="&#xb4;" horiz-adv-x="295" 
d="M129 576h-79l110 160h85z" />
    <glyph glyph-name="uni00B5" unicode="&#xb5;" horiz-adv-x="595" 
d="M455 217v289h75v-506h-75v128q-22 -64 -70.5 -101t-114.5 -37q-78 0 -131 47v-237h-75v706h75v-289q0 -73 40 -115.5t108 -42.5q74 0 121 45t47 113z" />
    <glyph glyph-name="paragraph" unicode="&#xb6;" horiz-adv-x="562" 
d="M321 0h-70v374h-44q-69 0 -116 47t-47 116t47 116t116 47h261v-700h-69v635h-78v-635z" />
    <glyph glyph-name="periodcentered" unicode="&#xb7;" horiz-adv-x="209" 
d="M53 350q0 22 15 37t37 15q21 0 36 -15t15 -37q0 -21 -15 -36.5t-36 -15.5q-22 0 -37 15.5t-15 36.5z" />
    <glyph glyph-name="cedilla" unicode="&#xb8;" horiz-adv-x="289" 
d="M50 -203l6 63q19 -4 38 -4q35 0 53.5 16t18.5 41q0 51 -58 87l32 3q47 -14 73 -44.5t26 -65.5q0 -43 -35 -73t-98 -30q-27 0 -56 7z" />
    <glyph glyph-name="ordmasculine" unicode="&#xba;" horiz-adv-x="444" 
d="M34 522q0 79 54 132t134 53t134 -53t54 -132t-54 -132t-134 -53t-134 53t-54 132zM102 522q0 -53 34.5 -89t85.5 -36t85.5 36t34.5 89t-34.5 89t-85.5 36t-85.5 -36t-34.5 -89z" />
    <glyph glyph-name="guillemotright" unicode="&#xbb;" horiz-adv-x="525" 
d="M44 448l232 -160v-70l-232 -160v80l171 113l-171 114v83zM248 365v83l233 -160v-70l-233 -160v80l171 113z" />
    <glyph glyph-name="onequarter" unicode="&#xbc;" horiz-adv-x="850" 
d="M231 341h113v-61h-314v61h134v287l-134 -32v61l201 49v-365zM206 0l412 700h76l-412 -700h-76zM772 420v-272h61v-61h-61v-87h-67v87h-237v61l188 272h116zM705 396l-165 -248h165v248z" />
    <glyph glyph-name="onehalf" unicode="&#xbd;" horiz-adv-x="880" 
d="M231 341h113v-61h-314v61h134v287l-134 -32v61l201 49v-365zM206 0l412 700h76l-412 -700h-76zM756 174l-141 -113h227v-61h-318v57l192 162q48 42 48 80q0 30 -22 48t-59 18q-42 0 -66.5 -22.5t-24.5 -61.5h-68q0 66 43.5 105.5t116.5 39.5q67 0 108 -34t41 -91
q0 -69 -77 -127z" />
    <glyph glyph-name="threequarters" unicode="&#xbe;" horiz-adv-x="842" 
d="M349 404q0 -58 -44.5 -94t-118.5 -36q-70 0 -112.5 34.5t-46.5 96.5l70 8q2 -36 26 -57t64 -21q44 0 68.5 20.5t24.5 51.5q0 32 -26 53t-74 21h-34v51l103 107h-201v61h286v-60l-110 -109q55 -8 90 -42t35 -85zM197 0l412 700h76l-412 -700h-76zM763 420v-272h61v-61h-61
v-87h-67v87h-236v61l187 272h116zM696 395l-165 -247h165v247z" />
    <glyph glyph-name="questiondown" unicode="&#xbf;" horiz-adv-x="522" 
d="M318 458q0 -21 -14.5 -35t-34.5 -14t-34.5 14t-14.5 35q0 20 14.5 34t34.5 14t34.5 -14t14.5 -34zM231 308h75q0 -47 -14 -84.5t-34.5 -59.5t-44.5 -44t-44.5 -39t-34.5 -43.5t-14 -58.5q0 -51 37.5 -84t101.5 -33q76 0 117.5 44t41.5 119h79q0 -106 -63.5 -170.5
t-174.5 -64.5q-101 0 -159.5 51.5t-58.5 132.5q0 51 19.5 89t47.5 62t56 47t47.5 57t19.5 79z" />
    <glyph glyph-name="Agrave" unicode="&#xc0;" horiz-adv-x="719" 
d="M292 900l149 -151h-89l-155 151h95zM705 0h-84l-73 186h-380l-73 -186h-81l277 700h137zM358 674l-163 -417h326z" />
    <glyph glyph-name="Aacute" unicode="&#xc1;" horiz-adv-x="719" 
d="M426 900h95l-155 -151h-89zM705 0h-84l-73 186h-380l-73 -186h-81l277 700h137zM358 674l-163 -417h326z" />
    <glyph glyph-name="Acircumflex" unicode="&#xc2;" horiz-adv-x="719" 
d="M459 749l-99 100l-100 -100h-89l150 151h77l150 -151h-89zM705 0h-84l-73 186h-380l-73 -186h-81l277 700h137zM358 674l-163 -417h326z" />
    <glyph glyph-name="Atilde" unicode="&#xc3;" horiz-adv-x="719" 
d="M281 825q-40 0 -58 -48l-52 25q13 39 42 62.5t68 23.5q33 0 61 -16t51.5 -31.5t44.5 -15.5q39 0 57 48l52 -25q-13 -39 -41.5 -62.5t-67.5 -23.5q-42 0 -88 31.5t-69 31.5zM705 0h-84l-73 186h-380l-73 -186h-81l277 700h137zM358 674l-163 -417h326z" />
    <glyph glyph-name="Adieresis" unicode="&#xc4;" horiz-adv-x="719" 
d="M251 778q-20 0 -34 13.5t-14 33.5t14 34t34 14q19 0 33 -14t14 -34q0 -19 -14 -33t-33 -14zM469 778q-19 0 -33 14t-14 33q0 20 14 34t33 14q20 0 34 -14t14 -34t-14 -33.5t-34 -13.5zM705 0h-84l-73 186h-380l-73 -186h-81l277 700h137zM358 674l-163 -417h326z" />
    <glyph glyph-name="Aring" unicode="&#xc5;" horiz-adv-x="719" 
d="M359 728q-47 0 -78.5 29.5t-31.5 73.5t31.5 74t78.5 30t78.5 -30t31.5 -74t-31.5 -73.5t-78.5 -29.5zM359 885q-23 0 -38.5 -15.5t-15.5 -38.5q0 -22 15.5 -37.5t38.5 -15.5t38.5 15.5t15.5 37.5q0 23 -15.5 38.5t-38.5 15.5zM705 0h-84l-73 186h-380l-73 -186h-81
l277 700h137zM358 674l-163 -417h326z" />
    <glyph glyph-name="AE" unicode="&#xc6;" horiz-adv-x="972" 
d="M925 700v-71h-353v-244h343v-70h-343v-244h353v-71h-431v186h-290l-121 -186h-89l457 700h474zM494 631l-244 -374h244v374z" />
    <glyph glyph-name="Ccedilla" unicode="&#xc7;" horiz-adv-x="771" 
d="M407 62q83 0 149.5 44.5t99.5 115.5l71 -30q-38 -85 -120 -142t-189 -60q32 -17 49 -43t17 -54q0 -43 -35 -73t-98 -30q-27 0 -56 7l6 63q19 -4 38 -4q35 0 53.5 16t18.5 41q0 45 -47 79q-139 15 -229.5 116t-90.5 242q0 152 104.5 256t258.5 104q111 0 196 -57.5
t124 -144.5l-71 -30q-33 71 -99.5 115.5t-149.5 44.5q-119 0 -201 -83.5t-82 -204.5t82 -204.5t201 -83.5z" />
    <glyph glyph-name="Egrave" unicode="&#xc8;" horiz-adv-x="542" 
d="M353 749h-89l-155 151h95zM495 0h-431v700h431v-71h-353v-244h343v-70h-343v-244h353v-71z" />
    <glyph glyph-name="Eacute" unicode="&#xc9;" horiz-adv-x="542" 
d="M278 749h-89l149 151h95zM495 0h-431v700h431v-71h-353v-244h343v-70h-343v-244h353v-71z" />
    <glyph glyph-name="Ecircumflex" unicode="&#xca;" horiz-adv-x="542" 
d="M370 749l-99 100l-100 -100h-89l150 151h77l150 -151h-89zM495 700v-71h-353v-244h343v-70h-343v-244h353v-71h-431v700h431z" />
    <glyph glyph-name="Edieresis" unicode="&#xcb;" horiz-adv-x="542" 
d="M114 825q0 20 14 34t34 14q19 0 33 -14t14 -34q0 -19 -13.5 -33t-33.5 -14t-34 13.5t-14 33.5zM333 825q0 20 14 34t33 14q20 0 34 -14t14 -34t-14 -33.5t-34 -13.5t-33.5 14t-13.5 33zM495 0h-431v700h431v-71h-353v-244h343v-70h-343v-244h353v-71z" />
    <glyph glyph-name="Igrave" unicode="&#xcc;" horiz-adv-x="206" 
d="M185 749h-89l-155 151h95zM142 0h-78v700h78v-700z" />
    <glyph glyph-name="Iacute" unicode="&#xcd;" horiz-adv-x="206" 
d="M110 749h-89l149 151h95zM142 0h-78v700h78v-700z" />
    <glyph glyph-name="Icircumflex" unicode="&#xce;" horiz-adv-x="206" 
d="M64 900h77l150 -151h-89l-99 100l-100 -100h-89zM142 0h-78v700h78v-700z" />
    <glyph glyph-name="Idieresis" unicode="&#xcf;" horiz-adv-x="206" 
d="M-35 825q0 20 14 34t33 14q20 0 34 -14t14 -34t-14 -33.5t-34 -13.5t-33.5 14t-13.5 33zM146 825q0 19 14 33.5t34 14.5q19 0 33 -14t14 -34q0 -19 -13.5 -33t-33.5 -14t-34 14t-14 33zM142 0h-78v700h78v-700z" />
    <glyph glyph-name="Eth" unicode="&#xd0;" horiz-adv-x="759" 
d="M114 700h247q151 0 252.5 -100.5t101.5 -249.5t-101.5 -249.5t-252.5 -100.5h-247v319h-71v62h71v319zM192 71h164q120 0 199.5 80t79.5 199q0 120 -79.5 199.5t-199.5 79.5h-164v-248h166v-62h-166v-248z" />
    <glyph glyph-name="Ntilde" unicode="&#xd1;" horiz-adv-x="719" 
d="M281 825q-40 0 -58 -48l-52 25q13 39 42 62.5t68 23.5q33 0 61 -16t51.5 -31.5t44.5 -15.5q39 0 57 48l52 -25q-13 -39 -41.5 -62.5t-67.5 -23.5q-42 0 -88 31.5t-69 31.5zM577 16v684h78v-700h-153l-360 683v-683h-78v700h153z" />
    <glyph glyph-name="Ograve" unicode="&#xd2;" horiz-adv-x="814" 
d="M489 749h-89l-155 151h95zM44 350q0 152 104.5 256t258.5 104t258.5 -104t104.5 -256t-104.5 -256t-258.5 -104t-258.5 104t-104.5 256zM124 350q0 -121 82 -204.5t201 -83.5q120 0 201.5 83t81.5 205t-81.5 205t-201.5 83q-119 0 -201 -83.5t-82 -204.5z" />
    <glyph glyph-name="Oacute" unicode="&#xd3;" horiz-adv-x="814" 
d="M414 749h-89l149 151h95zM44 350q0 152 104.5 256t258.5 104t258.5 -104t104.5 -256t-104.5 -256t-258.5 -104t-258.5 104t-104.5 256zM124 350q0 -121 82 -204.5t201 -83.5q120 0 201.5 83t81.5 205t-81.5 205t-201.5 83q-119 0 -201 -83.5t-82 -204.5z" />
    <glyph glyph-name="Ocircumflex" unicode="&#xd4;" horiz-adv-x="814" 
d="M506 749l-99 100l-100 -100h-89l150 151h77l150 -151h-89zM407 710q154 0 258.5 -104t104.5 -256t-104.5 -256t-258.5 -104t-258.5 104t-104.5 256t104.5 256t258.5 104zM407 62q120 0 201.5 83t81.5 205t-81.5 205t-201.5 83q-119 0 -201 -83.5t-82 -204.5t82 -204.5
t201 -83.5z" />
    <glyph glyph-name="Otilde" unicode="&#xd5;" horiz-adv-x="814" 
d="M271 777l-52 25q13 39 42 62.5t68 23.5q41 0 87 -31.5t70 -31.5q39 0 57 48l52 -25q-13 -39 -41.5 -62.5t-67.5 -23.5q-42 0 -88 31.5t-69 31.5q-40 0 -58 -48zM44 350q0 152 104.5 256t258.5 104t258.5 -104t104.5 -256t-104.5 -256t-258.5 -104t-258.5 104t-104.5 256z
M124 350q0 -121 82 -204.5t201 -83.5q120 0 201.5 83t81.5 205t-81.5 205t-201.5 83q-119 0 -201 -83.5t-82 -204.5z" />
    <glyph glyph-name="Odieresis" unicode="&#xd6;" horiz-adv-x="814" 
d="M250 825q0 20 14 34t34 14q19 0 33 -14t14 -34q0 -19 -13.5 -33t-33.5 -14t-34 13.5t-14 33.5zM469 825q0 20 14 34t33 14q20 0 34 -14t14 -34t-14 -33.5t-34 -13.5t-33.5 14t-13.5 33zM44 350q0 152 104.5 256t258.5 104t258.5 -104t104.5 -256t-104.5 -256t-258.5 -104
t-258.5 104t-104.5 256zM124 350q0 -121 82 -204.5t201 -83.5q120 0 201.5 83t81.5 205t-81.5 205t-201.5 83q-119 0 -201 -83.5t-82 -204.5z" />
    <glyph glyph-name="multiply" unicode="&#xd7;" horiz-adv-x="526" 
d="M393 530l50 -50l-128 -128l128 -129l-53 -53l-128 129l-129 -129l-50 50l129 129l-129 128l53 53l129 -128z" />
    <glyph glyph-name="Oslash" unicode="&#xd8;" horiz-adv-x="814" 
d="M695 698l-51 -72q126 -107 126 -276q0 -152 -104.5 -256t-258.5 -104q-96 0 -178 44l-51 -73l-58 41l50 72q-59 49 -92.5 121t-33.5 155q0 152 104.5 256t258.5 104q96 0 178 -44l51 73zM124 350q0 -128 90 -213l328 468q-63 33 -135 33q-119 0 -201 -83.5t-82 -204.5z
M407 62q120 0 201.5 83t81.5 205q0 129 -90 213l-328 -468q63 -33 135 -33z" />
    <glyph glyph-name="Ugrave" unicode="&#xd9;" horiz-adv-x="679" 
d="M421 749h-89l-155 151h95zM54 259v441h78v-441q0 -86 58 -141.5t149 -55.5q93 0 150.5 55t57.5 142v441h78v-441q0 -118 -80.5 -193.5t-205.5 -75.5t-205 75.5t-80 193.5z" />
    <glyph glyph-name="Uacute" unicode="&#xda;" horiz-adv-x="679" 
d="M346 749h-89l149 151h95zM54 259v441h78v-441q0 -86 58 -141.5t149 -55.5q93 0 150.5 55t57.5 142v441h78v-441q0 -118 -80.5 -193.5t-205.5 -75.5t-205 75.5t-80 193.5z" />
    <glyph glyph-name="Ucircumflex" unicode="&#xdb;" horiz-adv-x="679" 
d="M439 749l-99 100l-100 -100h-89l150 151h77l150 -151h-89zM547 259v441h78v-441q0 -118 -80.5 -193.5t-205.5 -75.5t-205 75.5t-80 193.5v441h78v-441q0 -86 58 -141.5t149 -55.5q93 0 150.5 55t57.5 142z" />
    <glyph glyph-name="Udieresis" unicode="&#xdc;" horiz-adv-x="679" 
d="M183 825q0 20 14 34t34 14q19 0 33 -14t14 -34q0 -19 -14 -33t-33 -14q-20 0 -34 13.5t-14 33.5zM402 825q0 20 14 34t33 14q20 0 34 -14t14 -34t-14 -33.5t-34 -13.5q-19 0 -33 14t-14 33zM54 259v441h78v-441q0 -86 58 -141.5t149 -55.5q93 0 150.5 55t57.5 142v441h78
v-441q0 -118 -80.5 -193.5t-205.5 -75.5t-205 75.5t-80 193.5z" />
    <glyph glyph-name="Yacute" unicode="&#xdd;" horiz-adv-x="617" 
d="M375 900h95l-155 -151h-89zM613 700l-266 -457v-172h137v-71h-351v71h136v172l-265 457h92l215 -380l214 380h88z" />
    <glyph glyph-name="Thorn" unicode="&#xde;" horiz-adv-x="569" 
d="M142 0h-78v700h78v-141h186q99 0 161.5 -59.5t62.5 -149.5q0 -89 -62.5 -148.5t-161.5 -59.5h-186v-142zM142 488v-275h186q63 0 103.5 39.5t40.5 98.5t-40.5 98t-103.5 39h-186z" />
    <glyph glyph-name="germandbls" unicode="&#xdf;" horiz-adv-x="592" 
d="M363 396q85 -11 140 -60.5t55 -132.5q0 -95 -64.5 -154t-161.5 -59q-64 0 -122 24l13 67q48 -21 102 -21q68 0 113 41t45 109q0 65 -47.5 107t-122.5 42h-50v68h29q64 0 106.5 36.5t42.5 89.5q0 55 -41.5 91.5t-105.5 36.5q-66 0 -110.5 -41t-44.5 -116v-524h-75v523
q0 104 65 165.5t167 61.5q92 0 155.5 -53t63.5 -134q0 -62 -41.5 -106.5t-110.5 -60.5z" />
    <glyph glyph-name="agrave" unicode="&#xe0;" horiz-adv-x="523" 
d="M209 736l110 -160h-79l-116 160h85zM269 516q86 0 140 -45.5t54 -127.5v-343h-75v138q-51 -148 -198 -148q-69 0 -112.5 38t-43.5 101q0 68 49.5 105t128.5 45l113 13q63 6 63 58q0 47 -33 74t-87 27t-93 -27t-53 -83l-73 20q18 75 77.5 115t142.5 40zM209 53
q77 0 128 51.5t51 120.5v42q-14 -30 -68 -36l-109 -12q-46 -6 -74 -27.5t-28 -58.5q0 -36 27.5 -58t72.5 -22z" />
    <glyph glyph-name="aacute" unicode="&#xe1;" horiz-adv-x="523" 
d="M314 736h85l-116 -160h-79zM269 516q86 0 140 -45.5t54 -127.5v-343h-75v138q-51 -148 -198 -148q-69 0 -112.5 38t-43.5 101q0 68 49.5 105t128.5 45l113 13q63 6 63 58q0 47 -33 74t-87 27t-93 -27t-53 -83l-73 20q18 75 77.5 115t142.5 40zM209 53q77 0 128 51.5
t51 120.5v42q-14 -30 -68 -36l-109 -12q-46 -6 -74 -27.5t-28 -58.5q0 -36 27.5 -58t72.5 -22z" />
    <glyph glyph-name="acircumflex" unicode="&#xe2;" horiz-adv-x="523" 
d="M342 576l-80 109l-80 -109h-76l113 160h86l113 -160h-76zM269 516q86 0 140 -45.5t54 -127.5v-343h-75v138q-51 -148 -198 -148q-69 0 -112.5 38t-43.5 101q0 68 49.5 105t128.5 45l113 13q63 6 63 58q0 47 -33 74t-87 27t-93 -27t-53 -83l-73 20q18 75 77.5 115
t142.5 40zM209 53q77 0 128 51.5t51 120.5v42q-14 -30 -68 -36l-109 -12q-46 -6 -74 -27.5t-28 -58.5q0 -36 27.5 -58t72.5 -22z" />
    <glyph glyph-name="atilde" unicode="&#xe3;" horiz-adv-x="523" 
d="M190 657q-40 0 -58 -48l-52 25q13 39 42 62.5t68 23.5q40 0 81.5 -32t62.5 -32q39 0 57 48l52 -25q-13 -39 -41.5 -62.5t-67.5 -23.5q-32 0 -58 16t-46.5 32t-39.5 16zM269 516q86 0 140 -45.5t54 -127.5v-343h-75v138q-51 -148 -198 -148q-69 0 -112.5 38t-43.5 101
q0 68 49.5 105t128.5 45l113 13q63 6 63 58q0 47 -33 74t-87 27t-93 -27t-53 -83l-73 20q18 75 77.5 115t142.5 40zM209 53q77 0 128 51.5t51 120.5v42q-14 -30 -68 -36l-109 -12q-46 -6 -74 -27.5t-28 -58.5q0 -36 27.5 -58t72.5 -22z" />
    <glyph glyph-name="adieresis" unicode="&#xe4;" horiz-adv-x="523" 
d="M156 609q-20 0 -34 13.5t-14 33.5t14 34t34 14t33.5 -14t13.5 -34t-13.5 -33.5t-33.5 -13.5zM367 609q-19 0 -33 13.5t-14 33.5t13.5 34t33.5 14t34 -14t14 -34t-14 -33.5t-34 -13.5zM269 516q86 0 140 -45.5t54 -127.5v-343h-75v138q-51 -148 -198 -148q-69 0 -112.5 38
t-43.5 101q0 68 49.5 105t128.5 45l113 13q63 6 63 58q0 47 -33 74t-87 27t-93 -27t-53 -83l-73 20q18 75 77.5 115t142.5 40zM209 53q77 0 128 51.5t51 120.5v42q-14 -30 -68 -36l-109 -12q-46 -6 -74 -27.5t-28 -58.5q0 -36 27.5 -58t72.5 -22z" />
    <glyph glyph-name="aring" unicode="&#xe5;" horiz-adv-x="523" 
d="M262 554q-46 0 -77.5 29t-31.5 73t31 73.5t78 29.5q46 0 77 -29.5t31 -73.5q0 -43 -31 -72.5t-77 -29.5zM262 710q-23 0 -38.5 -15.5t-15.5 -38.5q0 -22 15.5 -37.5t38.5 -15.5q22 0 37.5 15.5t15.5 37.5q0 23 -15 38.5t-38 15.5zM269 516q86 0 140 -45.5t54 -127.5v-343
h-75v138q-51 -148 -198 -148q-69 0 -112.5 38t-43.5 101q0 68 49.5 105t128.5 45l113 13q63 6 63 58q0 47 -33 74t-87 27t-93 -27t-53 -83l-73 20q18 75 77.5 115t142.5 40zM209 53q77 0 128 51.5t51 120.5v42q-14 -30 -68 -36l-109 -12q-46 -6 -74 -27.5t-28 -58.5
q0 -36 27.5 -58t72.5 -22z" />
    <glyph glyph-name="ae" unicode="&#xe6;" horiz-adv-x="960" 
d="M662 516q114 0 187.5 -82.5t65.5 -203.5h-445q8 -76 62.5 -124.5t133.5 -48.5q56 0 101.5 29t68.5 79l65 -27q-29 -67 -87.5 -107.5t-134.5 -40.5q-75 0 -132.5 43.5t-83.5 116.5v-150h-75v138q-51 -148 -198 -148q-69 0 -112.5 38t-43.5 101q0 68 49.5 105t128.5 45
l113 13q63 6 63 58q0 47 -33 74t-87 27t-93 -27t-53 -83l-73 20q18 75 77.5 115t142.5 40q67 0 116 -28.5t68 -80.5q34 51 88.5 80t120.5 29zM656 449q-70 0 -120.5 -44t-63.5 -113h367q-11 68 -61.5 112.5t-121.5 44.5zM209 53q77 0 128 51.5t51 120.5v42q-14 -30 -68 -36
l-109 -12q-46 -6 -74 -27.5t-28 -58.5q0 -36 27.5 -58t72.5 -22z" />
    <glyph glyph-name="ccedilla" unicode="&#xe7;" horiz-adv-x="593" 
d="M310 60q58 0 104 30t69 82l69 -24q-29 -67 -85.5 -108.5t-130.5 -48.5q68 -35 68 -98q0 -43 -35 -73t-98 -30q-27 0 -56 7l6 63q19 -4 38 -4q35 0 53.5 16t18.5 41q0 43 -45 78q-105 8 -173.5 82t-68.5 180q0 112 76.5 187.5t189.5 75.5q82 0 146.5 -42.5t95.5 -115.5
l-69 -24q-23 52 -69 82t-104 30q-80 0 -134.5 -55.5t-54.5 -137.5t54.5 -137.5t134.5 -55.5z" />
    <glyph glyph-name="egrave" unicode="&#xe8;" horiz-adv-x="610" 
d="M253 736l110 -160h-79l-116 160h85zM305 516q117 0 192.5 -82.5t66.5 -203.5h-445q8 -76 61.5 -124.5t130.5 -48.5q59 0 105 29t70 79l64 -27q-32 -67 -95 -107.5t-145 -40.5q-113 0 -189.5 75.5t-76.5 187.5t75 187.5t186 75.5zM305 449q-69 0 -120 -44t-64 -113h367
q-11 68 -61.5 112.5t-121.5 44.5z" />
    <glyph glyph-name="eacute" unicode="&#xe9;" horiz-adv-x="610" 
d="M358 736h85l-116 -160h-79zM305 516q117 0 192.5 -82.5t66.5 -203.5h-445q8 -76 61.5 -124.5t130.5 -48.5q59 0 105 29t70 79l64 -27q-32 -67 -95 -107.5t-145 -40.5q-113 0 -189.5 75.5t-76.5 187.5t75 187.5t186 75.5zM305 449q-69 0 -120 -44t-64 -113h367
q-11 68 -61.5 112.5t-121.5 44.5z" />
    <glyph glyph-name="ecircumflex" unicode="&#xea;" horiz-adv-x="610" 
d="M385 576l-80 109l-80 -109h-76l113 160h86l113 -160h-76zM305 516q117 0 192.5 -82.5t66.5 -203.5h-445q8 -76 61.5 -124.5t130.5 -48.5q59 0 105 29t70 79l64 -27q-32 -67 -95 -107.5t-145 -40.5q-113 0 -189.5 75.5t-76.5 187.5t75 187.5t186 75.5zM305 449
q-69 0 -120 -44t-64 -113h367q-11 68 -61.5 112.5t-121.5 44.5z" />
    <glyph glyph-name="edieresis" unicode="&#xeb;" horiz-adv-x="610" 
d="M200 609q-20 0 -34 13.5t-14 33.5t14 34t34 14t33.5 -14t13.5 -34t-13.5 -33.5t-33.5 -13.5zM411 609q-19 0 -33 13.5t-14 33.5t13.5 34t33.5 14t34 -14t14 -34t-14 -33.5t-34 -13.5zM305 516q117 0 192.5 -82.5t66.5 -203.5h-445q8 -76 61.5 -124.5t130.5 -48.5
q59 0 105 29t70 79l64 -27q-32 -67 -95 -107.5t-145 -40.5q-113 0 -189.5 75.5t-76.5 187.5t75 187.5t186 75.5zM305 449q-69 0 -120 -44t-64 -113h367q-11 68 -61.5 112.5t-121.5 44.5z" />
    <glyph glyph-name="igrave" unicode="&#xec;" horiz-adv-x="203" 
d="M159 576h-79l-116 160h85zM139 0h-75v506h75v-506z" />
    <glyph glyph-name="iacute" unicode="&#xed;" horiz-adv-x="203" 
d="M123 576h-79l110 160h85zM139 0h-75v506h75v-506z" />
    <glyph glyph-name="icircumflex" unicode="&#xee;" horiz-adv-x="203" 
d="M59 736h86l113 -160h-76l-80 109l-80 -109h-76zM139 0h-75v506h75v-506z" />
    <glyph glyph-name="idieresis" unicode="&#xef;" horiz-adv-x="203" 
d="M-30 656q0 20 13.5 34t33.5 14t34 -14t14 -34t-14 -33.5t-34 -13.5q-19 0 -33 13.5t-14 33.5zM139 656q0 20 13.5 34t33.5 14t34 -14t14 -34q0 -19 -14 -33t-34 -14t-33.5 13.5t-13.5 33.5zM139 0h-75v506h75v-506z" />
    <glyph glyph-name="eth" unicode="&#xf0;" horiz-adv-x="606" 
d="M472 655l-111 -38q201 -173 201 -371q0 -110 -74 -183t-185 -73q-110 0 -184.5 72t-74.5 179q0 103 67.5 171t162.5 68q126 0 191 -106q-46 105 -187 215l-163 -56l-19 58l122 42q-54 36 -105 65l59 52q74 -44 133 -88l149 51zM303 60q78 0 130 52t52 129q0 78 -53 130
t-134 52q-75 0 -126 -52t-51 -130q0 -77 52 -129t130 -52z" />
    <glyph glyph-name="ntilde" unicode="&#xf1;" horiz-adv-x="590" 
d="M224 657q-40 0 -58 -48l-52 25q13 39 42 62.5t68 23.5q40 0 81.5 -32t62.5 -32q39 0 57 48l52 -25q-13 -39 -41.5 -62.5t-67.5 -23.5q-32 0 -58 16t-46.5 32t-39.5 16zM326 516q89 0 146.5 -62t57.5 -156v-298h-75v289q0 67 -44 112.5t-109 45.5q-71 0 -117 -45t-46 -113
v-289h-75v506h75v-130q21 64 71 102t116 38z" />
    <glyph glyph-name="ograve" unicode="&#xf2;" horiz-adv-x="620" 
d="M368 576h-79l-116 160h85zM44 253q0 112 76.5 187.5t189.5 75.5t189.5 -75.5t76.5 -187.5t-76.5 -187.5t-189.5 -75.5t-189.5 75.5t-76.5 187.5zM121 253q0 -82 54.5 -137.5t134.5 -55.5q81 0 135 55t54 138t-54 138t-135 55q-80 0 -134.5 -55.5t-54.5 -137.5z" />
    <glyph glyph-name="oacute" unicode="&#xf3;" horiz-adv-x="620" 
d="M332 576h-79l110 160h85zM44 253q0 112 76.5 187.5t189.5 75.5t189.5 -75.5t76.5 -187.5t-76.5 -187.5t-189.5 -75.5t-189.5 75.5t-76.5 187.5zM121 253q0 -82 54.5 -137.5t134.5 -55.5q81 0 135 55t54 138t-54 138t-135 55q-80 0 -134.5 -55.5t-54.5 -137.5z" />
    <glyph glyph-name="ocircumflex" unicode="&#xf4;" horiz-adv-x="620" 
d="M390 576l-80 109l-80 -109h-76l113 160h86l113 -160h-76zM310 516q113 0 189.5 -75.5t76.5 -187.5t-76.5 -187.5t-189.5 -75.5t-189.5 75.5t-76.5 187.5t76.5 187.5t189.5 75.5zM310 60q81 0 135 55t54 138t-54 138t-135 55q-80 0 -134.5 -55.5t-54.5 -137.5t54.5 -137.5
t134.5 -55.5z" />
    <glyph glyph-name="otilde" unicode="&#xf5;" horiz-adv-x="620" 
d="M180 609l-52 25q13 39 42 62.5t68 23.5q40 0 81.5 -32t62.5 -32q39 0 57 48l52 -25q-13 -39 -41.5 -62.5t-67.5 -23.5q-32 0 -58 16t-46.5 32t-39.5 16q-40 0 -58 -48zM44 253q0 112 76.5 187.5t189.5 75.5t189.5 -75.5t76.5 -187.5t-76.5 -187.5t-189.5 -75.5
t-189.5 75.5t-76.5 187.5zM121 253q0 -82 54.5 -137.5t134.5 -55.5q81 0 135 55t54 138t-54 138t-135 55q-80 0 -134.5 -55.5t-54.5 -137.5z" />
    <glyph glyph-name="odieresis" unicode="&#xf6;" horiz-adv-x="620" 
d="M157 656q0 20 14 34t34 14t33.5 -14t13.5 -34t-14 -33.5t-33 -13.5q-20 0 -34 13.5t-14 33.5zM369 656q0 20 13.5 34t33.5 14t34 -14t14 -34t-14 -33.5t-34 -13.5t-33.5 13.5t-13.5 33.5zM44 253q0 112 76.5 187.5t189.5 75.5t189.5 -75.5t76.5 -187.5t-76.5 -187.5
t-189.5 -75.5t-189.5 75.5t-76.5 187.5zM121 253q0 -82 54.5 -137.5t134.5 -55.5q81 0 135 55t54 138t-54 138t-135 55q-80 0 -134.5 -55.5t-54.5 -137.5z" />
    <glyph glyph-name="divide" unicode="&#xf7;" horiz-adv-x="526" 
d="M214 537q0 20 14.5 34.5t34.5 14.5t34.5 -14.5t14.5 -34.5t-14.5 -34.5t-34.5 -14.5t-34.5 14.5t-14.5 34.5zM462 315h-398v70h398v-70zM214 163q0 21 14.5 35t34.5 14t34.5 -14t14.5 -35q0 -20 -14.5 -34.5t-34.5 -14.5t-34.5 14.5t-14.5 34.5z" />
    <glyph glyph-name="oslash" unicode="&#xf8;" horiz-adv-x="620" 
d="M541 523l-51 -73q86 -78 86 -197q0 -112 -76.5 -187.5t-189.5 -75.5q-66 0 -122 28l-52 -74l-57 39l51 73q-86 78 -86 197q0 112 76.5 187.5t189.5 75.5q66 0 122 -28l52 74zM118 253q0 -82 53 -138l222 316q-37 18 -83 18q-82 0 -137 -56t-55 -140zM310 57q82 0 137 56
t55 140q0 82 -53 138l-222 -316q37 -18 83 -18z" />
    <glyph glyph-name="ugrave" unicode="&#xf9;" horiz-adv-x="565" 
d="M340 576h-79l-116 160h85zM59 207v299h75v-299q0 -65 42 -106t106 -41t106 41t42 106v299h75v-299q0 -96 -63 -156.5t-160 -60.5t-160 60.5t-63 156.5z" />
    <glyph glyph-name="uacute" unicode="&#xfa;" horiz-adv-x="565" 
d="M304 576h-79l110 160h85zM59 207v299h75v-299q0 -65 42 -106t106 -41t106 41t42 106v299h75v-299q0 -96 -63 -156.5t-160 -60.5t-160 60.5t-63 156.5z" />
    <glyph glyph-name="ucircumflex" unicode="&#xfb;" horiz-adv-x="565" 
d="M362 576l-80 109l-80 -109h-76l113 160h86l113 -160h-76zM430 207v299h75v-299q0 -96 -63 -156.5t-160 -60.5t-160 60.5t-63 156.5v299h75v-299q0 -65 42 -106t106 -41t106 41t42 106z" />
    <glyph glyph-name="udieresis" unicode="&#xfc;" horiz-adv-x="565" 
d="M129 656q0 20 14 34t34 14t33.5 -14t13.5 -34t-14 -33.5t-33 -13.5q-20 0 -34 13.5t-14 33.5zM341 656q0 20 13.5 34t33.5 14t34 -14t14 -34t-14 -33.5t-34 -13.5t-33.5 13.5t-13.5 33.5zM59 207v299h75v-299q0 -65 42 -106t106 -41t106 41t42 106v299h75v-299
q0 -96 -63 -156.5t-160 -60.5t-160 60.5t-63 156.5z" />
    <glyph glyph-name="yacute" unicode="&#xfd;" horiz-adv-x="520" 
d="M313 736h85l-116 -160h-79zM260 22l179 484h77l-262 -706h-77l75 200h-59l-189 506h82z" />
    <glyph glyph-name="thorn" unicode="&#xfe;" horiz-adv-x="638" 
d="M354 516q103 0 171.5 -75.5t68.5 -187.5q0 -113 -68.5 -188t-171.5 -75q-75 0 -132.5 43.5t-82.5 115.5v-349h-75v940h75v-384q25 73 82.5 116.5t132.5 43.5zM333 60q78 0 131 55.5t53 137.5t-53 137.5t-131 55.5q-84 0 -139 -55t-55 -138t55 -138t139 -55z" />
    <glyph glyph-name="ydieresis" unicode="&#xff;" horiz-adv-x="520" 
d="M155 609q-20 0 -34 13.5t-14 33.5t14 34t34 14t33.5 -14t13.5 -34t-14 -33.5t-33 -13.5zM366 609q-20 0 -33.5 13.5t-13.5 33.5t13.5 34t33.5 14t34 -14t14 -34t-14 -33.5t-34 -13.5zM260 22l179 484h77l-262 -706h-77l75 200h-59l-189 506h82z" />
    <glyph glyph-name="Amacron" unicode="&#x100;" horiz-adv-x="719" 
d="M201 856h316v-62h-316v62zM705 0h-84l-73 186h-380l-73 -186h-81l277 700h137zM358 674l-163 -417h326z" />
    <glyph glyph-name="amacron" unicode="&#x101;" horiz-adv-x="523" 
d="M109 687h306v-61h-306v61zM269 516q86 0 140 -45.5t54 -127.5v-343h-75v138q-51 -148 -198 -148q-69 0 -112.5 38t-43.5 101q0 68 49.5 105t128.5 45l113 13q63 6 63 58q0 47 -33 74t-87 27t-93 -27t-53 -83l-73 20q18 75 77.5 115t142.5 40zM209 53q77 0 128 51.5
t51 120.5v42q-14 -30 -68 -36l-109 -12q-46 -6 -74 -27.5t-28 -58.5q0 -36 27.5 -58t72.5 -22z" />
    <glyph glyph-name="Abreve" unicode="&#x102;" horiz-adv-x="719" 
d="M360 753q-70 0 -115 39.5t-53 107.5h67q5 -40 31.5 -63.5t69.5 -23.5q42 0 68.5 23.5t31.5 63.5h67q-7 -68 -52.5 -107.5t-114.5 -39.5zM705 0h-84l-73 186h-380l-73 -186h-81l277 700h137zM358 674l-163 -417h326z" />
    <glyph glyph-name="abreve" unicode="&#x103;" horiz-adv-x="523" 
d="M262 577q-65 0 -105.5 42.5t-40.5 113.5h63q0 -43 23 -69t60 -26q38 0 60.5 26t22.5 69h63q0 -71 -40.5 -113.5t-105.5 -42.5zM269 516q86 0 140 -45.5t54 -127.5v-343h-75v138q-51 -148 -198 -148q-69 0 -112.5 38t-43.5 101q0 68 49.5 105t128.5 45l113 13q63 6 63 58
q0 47 -33 74t-87 27t-93 -27t-53 -83l-73 20q18 75 77.5 115t142.5 40zM209 53q77 0 128 51.5t51 120.5v42q-14 -30 -68 -36l-109 -12q-46 -6 -74 -27.5t-28 -58.5q0 -36 27.5 -58t72.5 -22z" />
    <glyph glyph-name="Aogonek" unicode="&#x104;" horiz-adv-x="719" 
d="M743 -133l4 -62q-37 -15 -73 -15q-53 0 -81.5 26.5t-28.5 65.5q0 72 84 118h-27l-73 186h-380l-73 -186h-81l277 700h137l277 -700h-15q-53 -43 -53 -94q0 -22 14 -36t39 -14t53 11zM358 674l-163 -417h326z" />
    <glyph glyph-name="aogonek" unicode="&#x105;" horiz-adv-x="523" 
d="M517 -133l4 -62q-37 -15 -73 -15q-53 0 -81.5 26.5t-28.5 65.5q0 72 84 118h-34v138q-51 -148 -198 -148q-69 0 -112.5 38t-43.5 101q0 68 49.5 105t128.5 45l113 13q63 6 63 58q0 47 -33 74t-87 27t-93 -27t-53 -83l-73 20q18 75 77.5 115t142.5 40q86 0 140 -45.5
t54 -127.5v-343h1q-53 -43 -53 -94q0 -22 14 -36t39 -14q26 0 53 11zM209 53q77 0 128 51.5t51 120.5v42q-14 -30 -68 -36l-109 -12q-46 -6 -74 -27.5t-28 -58.5q0 -36 27.5 -58t72.5 -22z" />
    <glyph glyph-name="Cacute" unicode="&#x106;" horiz-adv-x="771" 
d="M414 749h-89l149 151h95zM44 350q0 152 104.5 256t258.5 104q111 0 196 -57.5t124 -144.5l-71 -30q-33 71 -99.5 115.5t-149.5 44.5q-119 0 -201 -83.5t-82 -204.5t82 -204.5t201 -83.5q83 0 149.5 44.5t99.5 115.5l71 -30q-39 -87 -124 -144.5t-196 -57.5
q-154 0 -258.5 104t-104.5 256z" />
    <glyph glyph-name="cacute" unicode="&#x107;" horiz-adv-x="593" 
d="M332 576h-79l110 160h85zM44 253q0 112 76.5 187.5t189.5 75.5q82 0 146.5 -42.5t95.5 -115.5l-69 -24q-23 52 -69 82t-104 30q-80 0 -134.5 -55.5t-54.5 -137.5t54.5 -137.5t134.5 -55.5q58 0 104 30t69 82l69 -24q-31 -73 -95.5 -115.5t-146.5 -42.5
q-113 0 -189.5 75.5t-76.5 187.5z" />
    <glyph glyph-name="Ccircumflex" unicode="&#x108;" horiz-adv-x="771" 
d="M506 749l-99 100l-100 -100h-89l150 151h77l150 -151h-89zM407 62q83 0 149.5 44.5t99.5 115.5l71 -30q-39 -87 -124 -144.5t-196 -57.5q-154 0 -258.5 104t-104.5 256t104.5 256t258.5 104q111 0 196 -57.5t124 -144.5l-71 -30q-33 71 -99.5 115.5t-149.5 44.5
q-119 0 -201 -83.5t-82 -204.5t82 -204.5t201 -83.5z" />
    <glyph glyph-name="ccircumflex" unicode="&#x109;" horiz-adv-x="593" 
d="M390 576l-80 109l-80 -109h-76l113 160h86l113 -160h-76zM310 60q58 0 104 30t69 82l69 -24q-31 -73 -95.5 -115.5t-146.5 -42.5q-113 0 -189.5 75.5t-76.5 187.5t76.5 187.5t189.5 75.5q82 0 146.5 -42.5t95.5 -115.5l-69 -24q-23 52 -69 82t-104 30q-80 0 -134.5 -55.5
t-54.5 -137.5t54.5 -137.5t134.5 -55.5z" />
    <glyph glyph-name="Cdotaccent" unicode="&#x10a;" horiz-adv-x="771" 
d="M358 825q0 20 14.5 34.5t34.5 14.5t34.5 -14.5t14.5 -34.5t-14.5 -34.5t-34.5 -14.5t-34.5 14.5t-14.5 34.5zM44 350q0 152 104.5 256t258.5 104q111 0 196 -57.5t124 -144.5l-71 -30q-33 71 -99.5 115.5t-149.5 44.5q-119 0 -201 -83.5t-82 -204.5t82 -204.5t201 -83.5
q83 0 149.5 44.5t99.5 115.5l71 -30q-39 -87 -124 -144.5t-196 -57.5q-154 0 -258.5 104t-104.5 256z" />
    <glyph glyph-name="cdotaccent" unicode="&#x10b;" horiz-adv-x="593" 
d="M261 656q0 21 14.5 35t34.5 14t34.5 -14t14.5 -35q0 -20 -14.5 -34t-34.5 -14t-34.5 14t-14.5 34zM44 253q0 112 76.5 187.5t189.5 75.5q82 0 146.5 -42.5t95.5 -115.5l-69 -24q-23 52 -69 82t-104 30q-80 0 -134.5 -55.5t-54.5 -137.5t54.5 -137.5t134.5 -55.5
q58 0 104 30t69 82l69 -24q-31 -73 -95.5 -115.5t-146.5 -42.5q-113 0 -189.5 75.5t-76.5 187.5z" />
    <glyph glyph-name="Ccaron" unicode="&#x10c;" horiz-adv-x="771" 
d="M595 900l-150 -151h-77l-150 151h89l100 -99l99 99h89zM407 62q83 0 149.5 44.5t99.5 115.5l71 -30q-39 -87 -124 -144.5t-196 -57.5q-154 0 -258.5 104t-104.5 256t104.5 256t258.5 104q111 0 196 -57.5t124 -144.5l-71 -30q-33 71 -99.5 115.5t-149.5 44.5
q-119 0 -201 -83.5t-82 -204.5t82 -204.5t201 -83.5z" />
    <glyph glyph-name="ccaron" unicode="&#x10d;" horiz-adv-x="593" 
d="M466 736l-113 -160h-86l-113 160h76l80 -108l80 108h76zM310 60q58 0 104 30t69 82l69 -24q-31 -73 -95.5 -115.5t-146.5 -42.5q-113 0 -189.5 75.5t-76.5 187.5t76.5 187.5t189.5 75.5q82 0 146.5 -42.5t95.5 -115.5l-69 -24q-23 52 -69 82t-104 30q-80 0 -134.5 -55.5
t-54.5 -137.5t54.5 -137.5t134.5 -55.5z" />
    <glyph glyph-name="Dcaron" unicode="&#x10e;" horiz-adv-x="709" 
d="M493 900l-150 -151h-77l-150 151h89l100 -99l99 99h89zM64 700h247q151 0 252.5 -100.5t101.5 -249.5t-101.5 -249.5t-252.5 -100.5h-247v700zM142 71h164q120 0 199.5 80t79.5 199q0 120 -79.5 199.5t-199.5 79.5h-164v-558z" />
    <glyph glyph-name="dcaron" unicode="&#x10f;" horiz-adv-x="758" 
d="M628 575l35 188h72l-45 -188h-62zM499 359v381h75v-740h-75v147q-26 -72 -83 -114.5t-132 -42.5q-103 0 -171.5 75t-68.5 188q0 112 68.5 187.5t171.5 75.5q75 0 132 -42.5t83 -114.5zM305 60q84 0 139 55t55 138t-55 138t-139 55q-77 0 -130.5 -55.5t-53.5 -137.5
t53.5 -137.5t130.5 -55.5z" />
    <glyph glyph-name="Dcroat" unicode="&#x110;" horiz-adv-x="759" 
d="M114 700h247q151 0 252.5 -100.5t101.5 -249.5t-101.5 -249.5t-252.5 -100.5h-247v319h-71v62h71v319zM192 71h164q120 0 199.5 80t79.5 199q0 120 -79.5 199.5t-199.5 79.5h-164v-248h166v-62h-166v-248z" />
    <glyph glyph-name="dcroat" unicode="&#x111;" horiz-adv-x="638" 
d="M574 637h71v-61h-71v-576h-75v147q-26 -72 -83 -114.5t-132 -42.5q-103 0 -171.5 75t-68.5 188q0 112 68.5 187.5t171.5 75.5q75 0 132 -42.5t83 -114.5v217h-159v61h159v103h75v-103zM305 60q84 0 139 55t55 138t-55 138t-139 55q-77 0 -130.5 -55.5t-53.5 -137.5
t53.5 -137.5t130.5 -55.5z" />
    <glyph glyph-name="Emacron" unicode="&#x112;" horiz-adv-x="542" 
d="M429 794h-316v62h316v-62zM495 0h-431v700h431v-71h-353v-244h343v-70h-343v-244h353v-71z" />
    <glyph glyph-name="emacron" unicode="&#x113;" horiz-adv-x="610" 
d="M152 687h306v-61h-306v61zM305 516q117 0 192.5 -82.5t66.5 -203.5h-445q8 -76 61.5 -124.5t130.5 -48.5q59 0 105 29t70 79l64 -27q-32 -67 -95 -107.5t-145 -40.5q-113 0 -189.5 75.5t-76.5 187.5t75 187.5t186 75.5zM305 449q-69 0 -120 -44t-64 -113h367
q-11 68 -61.5 112.5t-121.5 44.5z" />
    <glyph glyph-name="Ebreve" unicode="&#x114;" horiz-adv-x="542" 
d="M103 900h67q5 -40 31.5 -63.5t69.5 -23.5q42 0 68.5 23.5t31.5 63.5h67q-7 -68 -52.5 -107.5t-114.5 -39.5q-71 0 -116 39.5t-52 107.5zM495 0h-431v700h431v-71h-353v-244h343v-70h-343v-244h353v-71z" />
    <glyph glyph-name="ebreve" unicode="&#x115;" horiz-adv-x="610" 
d="M305 577q-65 0 -105.5 42.5t-40.5 113.5h63q0 -43 23 -69t60 -26q38 0 60.5 26t22.5 69h63q0 -71 -40.5 -113.5t-105.5 -42.5zM305 516q117 0 192.5 -82.5t66.5 -203.5h-445q8 -76 61.5 -124.5t130.5 -48.5q59 0 105 29t70 79l64 -27q-32 -67 -95 -107.5t-145 -40.5
q-113 0 -189.5 75.5t-76.5 187.5t75 187.5t186 75.5zM305 449q-69 0 -120 -44t-64 -113h367q-11 68 -61.5 112.5t-121.5 44.5z" />
    <glyph glyph-name="Edotaccent" unicode="&#x116;" horiz-adv-x="542" 
d="M222 825q0 20 14.5 34.5t34.5 14.5t34.5 -14.5t14.5 -34.5t-14.5 -34.5t-34.5 -14.5t-34.5 14.5t-14.5 34.5zM495 0h-431v700h431v-71h-353v-244h343v-70h-343v-244h353v-71z" />
    <glyph glyph-name="edotaccent" unicode="&#x117;" horiz-adv-x="610" 
d="M305 608q-20 0 -34.5 14t-14.5 34q0 21 14.5 35t34.5 14t34.5 -14t14.5 -35q0 -20 -14.5 -34t-34.5 -14zM305 516q117 0 192.5 -82.5t66.5 -203.5h-445q8 -76 61.5 -124.5t130.5 -48.5q59 0 105 29t70 79l64 -27q-32 -67 -95 -107.5t-145 -40.5q-113 0 -189.5 75.5
t-76.5 187.5t75 187.5t186 75.5zM305 449q-69 0 -120 -44t-64 -113h367q-11 68 -61.5 112.5t-121.5 44.5z" />
    <glyph glyph-name="Eogonek" unicode="&#x118;" horiz-adv-x="542" 
d="M548 -133l4 -62q-37 -15 -73 -15q-53 0 -81.5 26.5t-28.5 65.5q0 72 84 118h-389v700h431v-71h-353v-244h343v-70h-343v-244h353v-71q-53 -43 -53 -94q0 -22 14 -36t39 -14t53 11z" />
    <glyph glyph-name="eogonek" unicode="&#x119;" horiz-adv-x="611" 
d="M305 516q117 0 192.5 -82.5t66.5 -203.5h-445q8 -76 61.5 -124.5t130.5 -48.5q59 0 105 29t70 79l64 -27q-16 -33 -37 -57l2 1q-68 -94 -68 -169q0 -57 54 -57q25 0 52 11l5 -62q-37 -15 -74 -15q-52 0 -80.5 27t-28.5 69q0 68 58 132q-56 -28 -123 -28
q-113 0 -189.5 75.5t-76.5 187.5t75 187.5t186 75.5zM305 449q-69 0 -120 -44t-64 -113h367q-11 68 -61.5 112.5t-121.5 44.5z" />
    <glyph glyph-name="Ecaron" unicode="&#x11a;" horiz-adv-x="542" 
d="M459 900l-150 -151h-77l-150 151h89l100 -99l99 99h89zM495 700v-71h-353v-244h343v-70h-343v-244h353v-71h-431v700h431z" />
    <glyph glyph-name="ecaron" unicode="&#x11b;" horiz-adv-x="610" 
d="M461 736l-113 -160h-86l-113 160h76l80 -108l80 108h76zM305 516q117 0 192.5 -82.5t66.5 -203.5h-445q8 -76 61.5 -124.5t130.5 -48.5q59 0 105 29t70 79l64 -27q-32 -67 -95 -107.5t-145 -40.5q-113 0 -189.5 75.5t-76.5 187.5t75 187.5t186 75.5zM305 449
q-69 0 -120 -44t-64 -113h367q-11 68 -61.5 112.5t-121.5 44.5z" />
    <glyph glyph-name="Gcircumflex" unicode="&#x11c;" horiz-adv-x="814" 
d="M506 749l-99 100l-100 -100h-89l150 151h77l150 -151h-89zM352 378h408q8 -110 -39.5 -200t-131 -139t-182.5 -49q-154 0 -258.5 104t-104.5 256t104.5 256t258.5 104q111 0 196 -57.5t124 -144.5l-71 -30q-33 71 -99.5 115.5t-149.5 44.5q-119 0 -201 -83.5t-82 -204.5
t82 -204.5t201 -83.5q111 0 186 71.5t83 173.5h-324v71z" />
    <glyph glyph-name="gcircumflex" unicode="&#x11d;" horiz-adv-x="638" 
d="M399 576l-80 109l-80 -109h-76l113 160h86l113 -160h-76zM499 361v145h75v-453q0 -112 -76.5 -187.5t-189.5 -75.5q-81 0 -144 40.5t-95 107.5l68 32q24 -51 69 -81t102 -30q81 0 136 55.5t55 138.5v98q-26 -71 -83 -113t-132 -42q-103 0 -171.5 74.5t-68.5 185.5
t68.5 185.5t171.5 74.5q75 0 132 -42t83 -113zM306 65q84 0 138.5 54.5t54.5 136.5q0 81 -54.5 135.5t-138.5 54.5q-78 0 -131.5 -54.5t-53.5 -135.5t53.5 -136t131.5 -55z" />
    <glyph glyph-name="Gbreve" unicode="&#x11e;" horiz-adv-x="814" 
d="M408 753q-70 0 -115 39.5t-53 107.5h67q5 -40 31.5 -63.5t69.5 -23.5q42 0 68.5 23.5t31.5 63.5h67q-7 -68 -52.5 -107.5t-114.5 -39.5zM352 378h408q8 -110 -39.5 -200t-131 -139t-182.5 -49q-154 0 -258.5 104t-104.5 256t104.5 256t258.5 104q111 0 196 -57.5
t124 -144.5l-71 -30q-33 71 -99.5 115.5t-149.5 44.5q-119 0 -201 -83.5t-82 -204.5t82 -204.5t201 -83.5q111 0 186 71.5t83 173.5h-324v71z" />
    <glyph glyph-name="gbreve" unicode="&#x11f;" horiz-adv-x="638" 
d="M319 577q-65 0 -105.5 42.5t-40.5 113.5h63q0 -43 23 -69t60 -26q38 0 60.5 26t22.5 69h63q0 -71 -40.5 -113.5t-105.5 -42.5zM499 361v145h75v-453q0 -112 -76.5 -187.5t-189.5 -75.5q-81 0 -144 40.5t-95 107.5l68 32q24 -51 69 -81t102 -30q81 0 136 55.5t55 138.5v98
q-26 -71 -83 -113t-132 -42q-103 0 -171.5 74.5t-68.5 185.5t68.5 185.5t171.5 74.5q75 0 132 -42t83 -113zM306 65q84 0 138.5 54.5t54.5 136.5q0 81 -54.5 135.5t-138.5 54.5q-78 0 -131.5 -54.5t-53.5 -135.5t53.5 -136t131.5 -55z" />
    <glyph glyph-name="Gdotaccent" unicode="&#x120;" horiz-adv-x="814" 
d="M407 776q-20 0 -34.5 14.5t-14.5 34.5t14.5 34.5t34.5 14.5t34.5 -14.5t14.5 -34.5t-14.5 -34.5t-34.5 -14.5zM352 378h408q8 -110 -39.5 -200t-131 -139t-182.5 -49q-154 0 -258.5 104t-104.5 256t104.5 256t258.5 104q111 0 196 -57.5t124 -144.5l-71 -30
q-33 71 -99.5 115.5t-149.5 44.5q-119 0 -201 -83.5t-82 -204.5t82 -204.5t201 -83.5q111 0 186 71.5t83 173.5h-324v71z" />
    <glyph glyph-name="gdotaccent" unicode="&#x121;" horiz-adv-x="638" 
d="M319 608q-20 0 -34.5 14t-14.5 34q0 21 14.5 35t34.5 14t34.5 -14t14.5 -35q0 -20 -14.5 -34t-34.5 -14zM499 361v145h75v-453q0 -112 -76.5 -187.5t-189.5 -75.5q-81 0 -144 40.5t-95 107.5l68 32q24 -51 69 -81t102 -30q81 0 136 55.5t55 138.5v98q-26 -71 -83 -113
t-132 -42q-103 0 -171.5 74.5t-68.5 185.5t68.5 185.5t171.5 74.5q75 0 132 -42t83 -113zM306 65q84 0 138.5 54.5t54.5 136.5q0 81 -54.5 135.5t-138.5 54.5q-78 0 -131.5 -54.5t-53.5 -135.5t53.5 -136t131.5 -55z" />
    <glyph glyph-name="uni0122" unicode="&#x122;" horiz-adv-x="814" 
d="M352 378h408q8 -110 -39.5 -200t-131 -139t-182.5 -49q-154 0 -258.5 104t-104.5 256t104.5 256t258.5 104q111 0 196 -57.5t124 -144.5l-71 -30q-33 71 -99.5 115.5t-149.5 44.5q-119 0 -201 -83.5t-82 -204.5t82 -204.5t201 -83.5q111 0 186 71.5t83 173.5h-324v71z
M417 -210h-64l35 154h74z" />
    <glyph glyph-name="uni0123" unicode="&#x123;" horiz-adv-x="638" 
d="M310 740h64l-35 -154h-74zM499 361v145h75v-453q0 -112 -76.5 -187.5t-189.5 -75.5q-81 0 -144 40.5t-95 107.5l68 32q24 -51 69 -81t102 -30q81 0 136 55.5t55 138.5v98q-26 -71 -83 -113t-132 -42q-103 0 -171.5 74.5t-68.5 185.5t68.5 185.5t171.5 74.5q75 0 132 -42
t83 -113zM306 65q84 0 138.5 54.5t54.5 136.5q0 81 -54.5 135.5t-138.5 54.5q-78 0 -131.5 -54.5t-53.5 -135.5t53.5 -136t131.5 -55z" />
    <glyph glyph-name="Hcircumflex" unicode="&#x124;" horiz-adv-x="713" 
d="M456 749l-99 100l-100 -100h-89l150 151h77l150 -151h-89zM571 385v315h78v-700h-78v315h-429v-315h-78v700h78v-315h429z" />
    <glyph glyph-name="hcircumflex" unicode="&#x125;" horiz-adv-x="590" 
d="M290 789h-89l-99 100l-100 -100h-89l150 151h77zM326 516q89 0 146.5 -62t57.5 -156v-298h-75v289q0 67 -44 112.5t-109 45.5q-71 0 -117 -45t-46 -113v-289h-75v740h75v-364q21 64 71 102t116 38z" />
    <glyph glyph-name="Hbar" unicode="&#x126;" horiz-adv-x="713" 
d="M649 574h71v-62h-71v-512h-78v315h-429v-315h-78v512h-71v62h71v126h78v-126h429v126h78v-126zM142 385h429v127h-429v-127z" />
    <glyph glyph-name="hbar" unicode="&#x127;" horiz-adv-x="590" 
d="M326 516q89 0 146.5 -62t57.5 -156v-298h-75v289q0 67 -44 112.5t-109 45.5q-71 0 -117 -45t-46 -113v-289h-75v576h-71v61h71v103h75v-103h160v-61h-160v-200q21 64 71 102t116 38z" />
    <glyph glyph-name="Itilde" unicode="&#x128;" horiz-adv-x="206" 
d="M-33 777l-52 25q13 39 42 62.5t68 23.5q41 0 87 -31.5t70 -31.5q39 0 57 48l52 -25q-13 -39 -41.5 -62.5t-67.5 -23.5q-42 0 -88 31.5t-69 31.5q-40 0 -58 -48zM142 0h-78v700h78v-700z" />
    <glyph glyph-name="itilde" unicode="&#x129;" horiz-adv-x="203" 
d="M-28 609l-52 25q13 39 42 62.5t68 23.5q40 0 81.5 -32t62.5 -32q39 0 57 48l52 -25q-13 -39 -41.5 -62.5t-67.5 -23.5q-32 0 -58 16t-46.5 32t-39.5 16q-40 0 -58 -48zM139 0h-75v506h75v-506z" />
    <glyph glyph-name="Imacron" unicode="&#x12a;" horiz-adv-x="206" 
d="M227 794h-248v62h248v-62zM142 0h-78v700h78v-700z" />
    <glyph glyph-name="imacron" unicode="&#x12b;" horiz-adv-x="203" 
d="M220 626h-237v61h237v-61zM139 0h-75v506h75v-506z" />
    <glyph glyph-name="Ibreve" unicode="&#x12c;" horiz-adv-x="206" 
d="M-64 900h67q5 -40 31.5 -63.5t69.5 -23.5q42 0 68.5 23.5t31.5 63.5h67q-7 -68 -52.5 -107.5t-114.5 -39.5q-70 0 -115 39.5t-53 107.5zM142 0h-78v700h78v-700z" />
    <glyph glyph-name="ibreve" unicode="&#x12d;" horiz-adv-x="203" 
d="M-44 733h63q0 -43 23 -69t60 -26q38 0 60.5 26t22.5 69h63q0 -71 -40.5 -113.5t-105.5 -42.5t-105.5 42.5t-40.5 113.5zM139 0h-75v506h75v-506z" />
    <glyph glyph-name="Iogonek" unicode="&#x12e;" horiz-adv-x="206" 
d="M191 -133l4 -62q-37 -15 -73 -15q-53 0 -81.5 26.5t-28.5 65.5q0 72 84 118h-32v700h78v-700h-4q-53 -43 -53 -94q0 -22 14 -36t39 -14q26 0 53 11z" />
    <glyph glyph-name="iogonek" unicode="&#x12f;" horiz-adv-x="203" 
d="M102 608q-20 0 -34.5 14t-14.5 34q0 21 14.5 35t34.5 14t34.5 -14t14.5 -35q0 -20 -14.5 -34t-34.5 -14zM187 -133l4 -62q-37 -15 -73 -15q-53 0 -81.5 26.5t-28.5 65.5q0 72 84 118h-28v506h75v-506h-5q-53 -43 -53 -94q0 -22 14 -36t39 -14t53 11z" />
    <glyph glyph-name="Idotaccent" unicode="&#x130;" horiz-adv-x="206" 
d="M54 825q0 20 14.5 34.5t34.5 14.5t34.5 -14.5t14.5 -34.5t-14.5 -34.5t-34.5 -14.5t-34.5 14.5t-14.5 34.5zM142 0h-78v700h78v-700z" />
    <glyph glyph-name="dotlessi" unicode="&#x131;" horiz-adv-x="203" 
d="M139 0h-75v506h75v-506z" />
    <glyph glyph-name="IJ" unicode="&#x132;" horiz-adv-x="720" 
d="M142 0h-78v700h78v-700zM234 180l78 11q4 -63 42 -96t95 -33q65 0 101.5 43.5t36.5 111.5v483h78v-483q0 -101 -59.5 -164t-157.5 -63q-89 0 -148 50.5t-66 139.5z" />
    <glyph glyph-name="ij" unicode="&#x133;" horiz-adv-x="427" 
d="M53 656q0 21 14 35t35 14q20 0 34.5 -14t14.5 -35q0 -20 -14.5 -34t-34.5 -14q-21 0 -35 14t-14 34zM276 656q0 21 14 35t35 14q20 0 34.5 -14t14.5 -35q0 -20 -14.5 -34t-34.5 -14q-21 0 -35 14t-14 34zM139 0h-75v506h75v-506zM192 -206v67q54 -2 74.5 18t20.5 74v553
h75v-553q0 -169 -170 -159z" />
    <glyph glyph-name="Jcircumflex" unicode="&#x134;" horiz-adv-x="513" 
d="M382 900h77l150 -151h-89l-99 100l-100 -100h-89zM381 217v483h78v-483q0 -101 -59.5 -164t-157.5 -63q-89 0 -148 50.5t-66 139.5l78 11q4 -63 42 -96t95 -33q65 0 101.5 43.5t36.5 111.5z" />
    <glyph glyph-name="jcircumflex" unicode="&#x135;" horiz-adv-x="223" 
d="M79 736h86l113 -160h-76l-80 109l-80 -109h-76zM84 -47v553h75v-553q0 -169 -170 -159v67q54 -2 74.5 18t20.5 74z" />
    <glyph glyph-name="uni0136" unicode="&#x136;" horiz-adv-x="633" 
d="M582 700l-271 -288l315 -412h-95l-274 354l-115 -122v-232h-78v700h78v-362l342 362h98zM309 -210h-64l35 154h74z" />
    <glyph glyph-name="uni0137" unicode="&#x137;" horiz-adv-x="529" 
d="M481 506l-196 -209l240 -297h-97l-194 242l-95 -101v-141h-75v740h75v-501l246 267h96zM274 -210h-64l35 154h74z" />
    <glyph glyph-name="kgreenlandic" unicode="&#x138;" horiz-adv-x="529" 
d="M285 297l240 -297h-97l-194 242l-95 -101v-141h-75v506h75v-267l246 267h96z" />
    <glyph glyph-name="Lacute" unicode="&#x139;" horiz-adv-x="515" 
d="M110 749h-89l149 151h95zM495 0h-431v700h78v-629h353v-71z" />
    <glyph glyph-name="lacute" unicode="&#x13a;" horiz-adv-x="203" 
d="M109 789h-89l149 151h95zM139 0h-75v740h75v-740z" />
    <glyph glyph-name="uni013B" unicode="&#x13b;" horiz-adv-x="515" 
d="M495 0h-431v700h78v-629h353v-71zM267 -210h-64l35 154h74z" />
    <glyph glyph-name="uni013C" unicode="&#x13c;" horiz-adv-x="203" 
d="M139 0h-75v740h75v-740zM111 -210h-64l35 154h74z" />
    <glyph glyph-name="Lcaron" unicode="&#x13d;" horiz-adv-x="515" 
d="M298 575h-62l35 188h72zM495 0h-431v700h78v-629h353v-71z" />
    <glyph glyph-name="lcaron" unicode="&#x13e;" horiz-adv-x="323" 
d="M255 575h-62l35 188h72zM139 0h-75v740h75v-740z" />
    <glyph glyph-name="Ldot" unicode="&#x13f;" horiz-adv-x="515" 
d="M495 0h-431v700h78v-629h353v-71zM267 350q0 22 15 37t37 15t37 -15t15 -37q0 -21 -15 -36.5t-37 -15.5t-37 15.5t-15 36.5z" />
    <glyph glyph-name="ldot" unicode="&#x140;" horiz-adv-x="307" 
d="M139 0h-75v740h75v-740zM203 350q0 22 15 37t37 15t37 -15t15 -37q0 -21 -15 -36.5t-37 -15.5t-37 15.5t-15 36.5z" />
    <glyph glyph-name="Lslash" unicode="&#x141;" horiz-adv-x="535" 
d="M162 319v-248h353v-71h-431v295l-84 -25v65l84 25v340h78v-316l259 78v-65z" />
    <glyph glyph-name="lslash" unicode="&#x142;" horiz-adv-x="258" 
d="M166 410l87 30v-63l-87 -30v-347h-75v320l-87 -30v63l87 30v357h75v-330z" />
    <glyph glyph-name="Nacute" unicode="&#x143;" horiz-adv-x="719" 
d="M426 900h95l-155 -151h-89zM577 16v684h78v-700h-153l-360 683v-683h-78v700h153z" />
    <glyph glyph-name="nacute" unicode="&#x144;" horiz-adv-x="590" 
d="M348 736h85l-116 -160h-79zM326 516q89 0 146.5 -62t57.5 -156v-298h-75v289q0 67 -44 112.5t-109 45.5q-71 0 -117 -45t-46 -113v-289h-75v506h75v-130q21 64 71 102t116 38z" />
    <glyph glyph-name="uni0145" unicode="&#x145;" horiz-adv-x="719" 
d="M577 16v684h78v-700h-153l-360 683v-683h-78v700h153zM369 -210h-64l35 154h74z" />
    <glyph glyph-name="uni0146" unicode="&#x146;" horiz-adv-x="590" 
d="M326 516q89 0 146.5 -62t57.5 -156v-298h-75v289q0 67 -44 112.5t-109 45.5q-71 0 -117 -45t-46 -113v-289h-75v506h75v-130q21 64 71 102t116 38zM305 -210h-64l35 154h74z" />
    <glyph glyph-name="Ncaron" unicode="&#x147;" horiz-adv-x="719" 
d="M548 900l-150 -151h-77l-150 151h89l100 -99l99 99h89zM577 16v684h78v-700h-153l-360 683v-683h-78v700h153z" />
    <glyph glyph-name="ncaron" unicode="&#x148;" horiz-adv-x="590" 
d="M451 736l-113 -160h-86l-113 160h76l80 -108l80 108h76zM326 516q89 0 146.5 -62t57.5 -156v-298h-75v289q0 67 -44 112.5t-109 45.5q-71 0 -117 -45t-46 -113v-289h-75v506h75v-130q21 64 71 102t116 38z" />
    <glyph glyph-name="napostrophe" unicode="&#x149;" horiz-adv-x="799" 
d="M106 750q35 0 57 -28.5t22 -70.5q0 -101 -97 -154l-37 42q44 24 61 56.5t8 56.5q-23 -8 -45 5t-22 41q0 22 15.5 37t37.5 15zM535 516q89 0 146.5 -62t57.5 -156v-298h-75v289q0 67 -44 112.5t-109 45.5q-71 0 -117 -45t-46 -113v-289h-75v506h75v-130q21 64 71 102
t116 38z" />
    <glyph glyph-name="Eng" unicode="&#x14a;" horiz-adv-x="719" 
d="M577 16v684h78v-747q0 -169 -171 -159v67q54 -2 74.5 18t20.5 67v54h-77l-360 683v-683h-78v700h153z" />
    <glyph glyph-name="eng" unicode="&#x14b;" horiz-adv-x="590" 
d="M326 516q89 0 146.5 -62t57.5 -156v-345q0 -169 -170 -159v67q54 -2 74.5 18t20.5 74v336q0 67 -44 112.5t-109 45.5q-71 0 -117 -45t-46 -113v-289h-75v506h75v-130q21 64 71 102t116 38z" />
    <glyph glyph-name="Omacron" unicode="&#x14c;" horiz-adv-x="814" 
d="M565 794h-316v62h316v-62zM44 350q0 152 104.5 256t258.5 104t258.5 -104t104.5 -256t-104.5 -256t-258.5 -104t-258.5 104t-104.5 256zM124 350q0 -121 82 -204.5t201 -83.5q120 0 201.5 83t81.5 205t-81.5 205t-201.5 83q-119 0 -201 -83.5t-82 -204.5z" />
    <glyph glyph-name="omacron" unicode="&#x14d;" horiz-adv-x="620" 
d="M463 626h-306v61h306v-61zM44 253q0 112 76.5 187.5t189.5 75.5t189.5 -75.5t76.5 -187.5t-76.5 -187.5t-189.5 -75.5t-189.5 75.5t-76.5 187.5zM121 253q0 -82 54.5 -137.5t134.5 -55.5q81 0 135 55t54 138t-54 138t-135 55q-80 0 -134.5 -55.5t-54.5 -137.5z" />
    <glyph glyph-name="Obreve" unicode="&#x14e;" horiz-adv-x="814" 
d="M240 900h67q5 -40 31.5 -63.5t69.5 -23.5q42 0 68.5 23.5t31.5 63.5h67q-7 -68 -52.5 -107.5t-114.5 -39.5q-70 0 -115 39.5t-53 107.5zM44 350q0 152 104.5 256t258.5 104t258.5 -104t104.5 -256t-104.5 -256t-258.5 -104t-258.5 104t-104.5 256zM124 350
q0 -121 82 -204.5t201 -83.5q120 0 201.5 83t81.5 205t-81.5 205t-201.5 83q-119 0 -201 -83.5t-82 -204.5z" />
    <glyph glyph-name="obreve" unicode="&#x14f;" horiz-adv-x="620" 
d="M164 733h63q0 -43 23 -69t60 -26q38 0 60.5 26t22.5 69h63q0 -71 -40.5 -113.5t-105.5 -42.5t-105.5 42.5t-40.5 113.5zM44 253q0 112 76.5 187.5t189.5 75.5t189.5 -75.5t76.5 -187.5t-76.5 -187.5t-189.5 -75.5t-189.5 75.5t-76.5 187.5zM121 253q0 -82 54.5 -137.5
t134.5 -55.5q81 0 135 55t54 138t-54 138t-135 55q-80 0 -134.5 -55.5t-54.5 -137.5z" />
    <glyph glyph-name="Ohungarumlaut" unicode="&#x150;" horiz-adv-x="814" 
d="M316 749h-83l149 151h89zM506 749h-83l149 151h89zM44 350q0 152 104.5 256t258.5 104t258.5 -104t104.5 -256t-104.5 -256t-258.5 -104t-258.5 104t-104.5 256zM124 350q0 -121 82 -204.5t201 -83.5q120 0 201.5 83t81.5 205t-81.5 205t-201.5 83q-119 0 -201 -83.5
t-82 -204.5z" />
    <glyph glyph-name="ohungarumlaut" unicode="&#x151;" horiz-adv-x="620" 
d="M244 576h-73l110 160h79zM412 576h-73l110 160h79zM44 253q0 112 76.5 187.5t189.5 75.5t189.5 -75.5t76.5 -187.5t-76.5 -187.5t-189.5 -75.5t-189.5 75.5t-76.5 187.5zM121 253q0 -82 54.5 -137.5t134.5 -55.5q81 0 135 55t54 138t-54 138t-135 55q-80 0 -134.5 -55.5
t-54.5 -137.5z" />
    <glyph glyph-name="OE" unicode="&#x152;" horiz-adv-x="1082" 
d="M1035 700v-71h-352v-244h342v-70h-342v-244h352v-71h-430v98q-77 -108 -222 -108q-140 0 -239.5 102t-99.5 258q0 155 100 257.5t239 102.5q145 0 222 -108v98h430zM407 62q116 0 198 74v428q-82 74 -198 74q-120 0 -201.5 -82.5t-81.5 -205.5t81.5 -205.5t201.5 -82.5z
" />
    <glyph glyph-name="oe" unicode="&#x153;" horiz-adv-x="1066" 
d="M760 516q117 0 192.5 -82.5t66.5 -203.5h-445q8 -76 61.5 -124.5t130.5 -48.5q59 0 105 29t70 79l64 -27q-32 -67 -95 -107.5t-145 -40.5q-75 0 -134 34t-93 94q-34 -60 -94 -94t-134 -34q-113 0 -189.5 75.5t-76.5 187.5t76.5 187.5t189.5 75.5q74 0 134 -34.5t93 -93.5
q34 59 92.5 93.5t130.5 34.5zM760 449q-69 0 -120 -44t-64 -113h367q-11 68 -61.5 112.5t-121.5 44.5zM310 60q81 0 135 55t54 138t-54 138t-135 55q-80 0 -134.5 -55.5t-54.5 -137.5t54.5 -137.5t134.5 -55.5z" />
    <glyph glyph-name="Racute" unicode="&#x154;" horiz-adv-x="610" 
d="M332 900h95l-155 -151h-89zM372 296l204 -296h-94l-203 294h-137v-294h-78v700h279q95 0 156 -58t61 -144q0 -80 -52 -136.5t-136 -65.5zM343 629h-201v-262h201q60 0 98.5 37.5t38.5 93.5t-38.5 93.5t-98.5 37.5z" />
    <glyph glyph-name="racute" unicode="&#x155;" horiz-adv-x="365" 
d="M235 736h85l-116 -160h-79zM139 506v-136q26 87 80.5 121t125.5 21v-73q-85 19 -145.5 -25.5t-60.5 -124.5v-289h-75v506h75z" />
    <glyph glyph-name="uni0156" unicode="&#x156;" horiz-adv-x="610" 
d="M372 296l204 -296h-94l-203 294h-137v-294h-78v700h279q95 0 156 -58t61 -144q0 -80 -52 -136.5t-136 -65.5zM343 629h-201v-262h201q60 0 98.5 37.5t38.5 93.5t-38.5 93.5t-98.5 37.5zM293 -210h-64l35 154h74z" />
    <glyph glyph-name="uni0157" unicode="&#x157;" horiz-adv-x="365" 
d="M139 506v-136q26 87 80.5 121t125.5 21v-73q-85 19 -145.5 -25.5t-60.5 -124.5v-289h-75v506h75zM110 -210h-64l35 154h74z" />
    <glyph glyph-name="Rcaron" unicode="&#x158;" horiz-adv-x="610" 
d="M454 900l-150 -151h-77l-150 151h89l100 -99l99 99h89zM372 296l204 -296h-94l-203 294h-137v-294h-78v700h279q95 0 156 -58t61 -144q0 -80 -52 -136.5t-136 -65.5zM343 629h-201v-262h201q60 0 98.5 37.5t38.5 93.5t-38.5 93.5t-98.5 37.5z" />
    <glyph glyph-name="rcaron" unicode="&#x159;" horiz-adv-x="365" 
d="M339 736l-113 -160h-86l-113 160h76l80 -108l80 108h76zM139 506v-136q26 87 80.5 121t125.5 21v-73q-85 19 -145.5 -25.5t-60.5 -124.5v-289h-75v506h75z" />
    <glyph glyph-name="Sacute" unicode="&#x15a;" horiz-adv-x="609" 
d="M310 749h-89l149 151h95zM51 180l78 16q10 -65 57.5 -100.5t125.5 -35.5q74 0 120 34t46 87q0 39 -22.5 66t-58.5 42t-79.5 26.5t-87.5 26t-80 34.5t-58.5 57t-22.5 89q0 81 66.5 134.5t167.5 53.5t167.5 -53t79.5 -137l-79 -16q-9 61 -54.5 99t-114.5 38q-67 0 -110 -33
t-43 -83q0 -38 22.5 -63.5t58.5 -39t80 -25t87.5 -26t79.5 -35.5t58.5 -59.5t22.5 -93.5q0 -84 -71 -138.5t-177 -54.5q-107 0 -177 51t-82 139z" />
    <glyph glyph-name="sacute" unicode="&#x15b;" horiz-adv-x="482" 
d="M262 576h-79l110 160h85zM34 131l76 15q16 -93 131 -93q58 0 94.5 23.5t36.5 60.5q0 38 -33.5 58t-80.5 28.5t-94.5 19t-81 41.5t-33.5 85q0 64 54 105.5t138 41.5q82 0 134 -38t64 -103l-75 -15q-17 92 -123 92q-51 0 -84 -22t-33 -58q0 -35 33.5 -53.5t81 -26.5
t95 -19.5t81 -44.5t33.5 -89q0 -65 -59 -107t-148 -42q-86 0 -140.5 38t-66.5 103z" />
    <glyph glyph-name="Scircumflex" unicode="&#x15c;" horiz-adv-x="609" 
d="M403 749l-99 100l-100 -100h-89l150 151h77l150 -151h-89zM149 525q0 -38 22.5 -63.5t58.5 -39t80 -25t87.5 -26t79.5 -35.5t58.5 -59.5t22.5 -93.5q0 -84 -71 -138.5t-177 -54.5q-107 0 -177 51t-82 139l78 16q10 -65 57.5 -100.5t125.5 -35.5q74 0 120 34t46 87
q0 39 -22.5 66t-58.5 42t-79.5 26.5t-87.5 26t-80 34.5t-58.5 57t-22.5 89q0 81 66.5 134.5t167.5 53.5t167.5 -53t79.5 -137l-79 -16q-9 61 -54.5 99t-114.5 38q-67 0 -110 -33t-43 -83z" />
    <glyph glyph-name="scircumflex" unicode="&#x15d;" horiz-adv-x="482" 
d="M321 576l-80 109l-80 -109h-76l113 160h86l113 -160h-76zM124 372q0 -35 33.5 -53.5t81 -26.5t95 -19.5t81 -44.5t33.5 -89q0 -65 -59 -107t-148 -42q-86 0 -140.5 38t-66.5 103l76 15q16 -93 131 -93q58 0 94.5 23.5t36.5 60.5q0 38 -33.5 58t-80.5 28.5t-94.5 19
t-81 41.5t-33.5 85q0 64 54 105.5t138 41.5q82 0 134 -38t64 -103l-75 -15q-17 92 -123 92q-51 0 -84 -22t-33 -58z" />
    <glyph glyph-name="Scedilla" unicode="&#x15e;" horiz-adv-x="609" 
d="M558 183q0 -81 -65.5 -134.5t-164.5 -58.5q67 -34 67 -97q0 -43 -35 -73t-98 -30q-27 0 -56 7l6 63q19 -4 38 -4q35 0 53.5 16t18.5 41q0 43 -45 78q-94 8 -154.5 58t-71.5 131l78 16q10 -65 57.5 -100.5t125.5 -35.5q74 0 120 34t46 87q0 39 -22.5 66t-58.5 42
t-79.5 26.5t-87.5 26t-80 34.5t-58.5 57t-22.5 89q0 81 66.5 134.5t167.5 53.5t167.5 -53t79.5 -137l-79 -16q-9 61 -54.5 99t-114.5 38q-67 0 -110 -33t-43 -83q0 -38 22.5 -63.5t58.5 -39t80 -25t87.5 -26t79.5 -35.5t58.5 -59.5t22.5 -93.5z" />
    <glyph glyph-name="scedilla" unicode="&#x15f;" horiz-adv-x="482" 
d="M448 139q0 -60 -50.5 -101t-130.5 -47q68 -35 68 -98q0 -43 -35 -73t-98 -30q-27 0 -56 7l6 63q19 -4 38 -4q35 0 53.5 16t18.5 41q0 43 -45 78q-76 5 -124 42.5t-59 97.5l76 15q16 -93 131 -93q58 0 94.5 23.5t36.5 60.5q0 38 -33.5 58t-80.5 28.5t-94.5 19t-81 41.5
t-33.5 85q0 64 54 105.5t138 41.5q82 0 134 -38t64 -103l-75 -15q-17 92 -123 92q-51 0 -84 -22t-33 -58q0 -35 33.5 -53.5t81 -26.5t95 -19.5t81 -44.5t33.5 -89z" />
    <glyph glyph-name="Scaron" unicode="&#x160;" horiz-adv-x="609" 
d="M492 900l-150 -151h-77l-150 151h89l100 -99l99 99h89zM149 525q0 -38 22.5 -63.5t58.5 -39t80 -25t87.5 -26t79.5 -35.5t58.5 -59.5t22.5 -93.5q0 -84 -71 -138.5t-177 -54.5q-107 0 -177 51t-82 139l78 16q10 -65 57.5 -100.5t125.5 -35.5q74 0 120 34t46 87
q0 39 -22.5 66t-58.5 42t-79.5 26.5t-87.5 26t-80 34.5t-58.5 57t-22.5 89q0 81 66.5 134.5t167.5 53.5t167.5 -53t79.5 -137l-79 -16q-9 61 -54.5 99t-114.5 38q-67 0 -110 -33t-43 -83z" />
    <glyph glyph-name="scaron" unicode="&#x161;" horiz-adv-x="482" 
d="M397 736l-113 -160h-86l-113 160h76l80 -108l80 108h76zM124 372q0 -35 33.5 -53.5t81 -26.5t95 -19.5t81 -44.5t33.5 -89q0 -65 -59 -107t-148 -42q-86 0 -140.5 38t-66.5 103l76 15q16 -93 131 -93q58 0 94.5 23.5t36.5 60.5q0 38 -33.5 58t-80.5 28.5t-94.5 19
t-81 41.5t-33.5 85q0 64 54 105.5t138 41.5q82 0 134 -38t64 -103l-75 -15q-17 92 -123 92q-51 0 -84 -22t-33 -58z" />
    <glyph glyph-name="uni0162" unicode="&#x162;" horiz-adv-x="572" 
d="M562 629h-237v-629h-29q43 -15 66 -44.5t23 -62.5q0 -43 -35 -73t-97 -30q-28 0 -56 7l5 63q19 -4 39 -4q34 0 53 16t19 41q0 22 -15.5 46t-43.5 41h-7v629h-237v71h552v-71z" />
    <glyph glyph-name="uni0163" unicode="&#x163;" horiz-adv-x="452" 
d="M367 506v-68h-154v-266q0 -56 24 -80t79 -24h51v-68h-51q-35 0 -62 6q76 -50 76 -111q0 -45 -35.5 -75t-96.5 -30q-28 0 -56 7l6 63q17 -4 38 -4q35 0 53.5 16t18.5 41q0 45 -68 122q-52 43 -52 140v263h-114v68h114v181l75 23v-204h154z" />
    <glyph glyph-name="Tcaron" unicode="&#x164;" horiz-adv-x="572" 
d="M474 900l-150 -151h-77l-150 151h89l100 -99l99 99h89zM10 629v71h552v-71h-237v-629h-78v629h-237z" />
    <glyph glyph-name="tcaron" unicode="&#x165;" horiz-adv-x="426" 
d="M329 575h-61l35 188h71zM138 438h-114v68h114v181l75 23v-204h154v-68h-154v-266q0 -56 24 -80t79 -24h51v-68h-51q-91 0 -134.5 43t-43.5 132v263z" />
    <glyph glyph-name="Tbar" unicode="&#x166;" horiz-adv-x="572" 
d="M562 700v-71h-237v-248h119v-62h-119v-319h-78v319h-119v62h119v248h-237v71h552z" />
    <glyph glyph-name="tbar" unicode="&#x167;" horiz-adv-x="411" 
d="M367 506v-68h-154v-123h136v-62h-136v-81q0 -56 24 -80t79 -24h51v-68h-51q-91 0 -134.5 43t-43.5 132v78h-95v62h95v123h-114v68h114v181l75 23v-204h154z" />
    <glyph glyph-name="Utilde" unicode="&#x168;" horiz-adv-x="679" 
d="M203 777l-52 25q13 39 42 62.5t68 23.5q41 0 87 -31.5t70 -31.5q39 0 57 48l52 -25q-13 -39 -41.5 -62.5t-67.5 -23.5q-42 0 -88 31.5t-69 31.5q-40 0 -58 -48zM54 259v441h78v-441q0 -86 58 -141.5t149 -55.5q93 0 150.5 55t57.5 142v441h78v-441q0 -118 -80.5 -193.5
t-205.5 -75.5t-205 75.5t-80 193.5z" />
    <glyph glyph-name="utilde" unicode="&#x169;" horiz-adv-x="565" 
d="M153 609l-52 25q13 39 42 62.5t68 23.5q40 0 81.5 -32t62.5 -32q39 0 57 48l52 -25q-13 -39 -41.5 -62.5t-67.5 -23.5q-32 0 -58 16t-46.5 32t-39.5 16q-40 0 -58 -48zM59 207v299h75v-299q0 -65 42 -106t106 -41t106 41t42 106v299h75v-299q0 -96 -63 -156.5t-160 -60.5
t-160 60.5t-63 156.5z" />
    <glyph glyph-name="Umacron" unicode="&#x16a;" horiz-adv-x="679" 
d="M497 794h-316v62h316v-62zM54 259v441h78v-441q0 -86 58 -141.5t149 -55.5q93 0 150.5 55t57.5 142v441h78v-441q0 -118 -80.5 -193.5t-205.5 -75.5t-205 75.5t-80 193.5z" />
    <glyph glyph-name="umacron" unicode="&#x16b;" horiz-adv-x="565" 
d="M435 626h-306v61h306v-61zM59 207v299h75v-299q0 -65 42 -106t106 -41t106 41t42 106v299h75v-299q0 -96 -63 -156.5t-160 -60.5t-160 60.5t-63 156.5z" />
    <glyph glyph-name="Ubreve" unicode="&#x16c;" horiz-adv-x="679" 
d="M172 900h67q5 -40 31.5 -63.5t69.5 -23.5q42 0 68.5 23.5t31.5 63.5h67q-7 -68 -52.5 -107.5t-114.5 -39.5q-70 0 -115.5 39.5t-52.5 107.5zM54 259v441h78v-441q0 -86 58 -141.5t149 -55.5q93 0 150.5 55t57.5 142v441h78v-441q0 -118 -80.5 -193.5t-205.5 -75.5
t-205 75.5t-80 193.5z" />
    <glyph glyph-name="ubreve" unicode="&#x16d;" horiz-adv-x="565" 
d="M136 733h63q0 -43 23 -69t60 -26q38 0 60.5 26t22.5 69h63q0 -71 -40.5 -113.5t-105.5 -42.5t-105.5 42.5t-40.5 113.5zM59 207v299h75v-299q0 -65 42 -106t106 -41t106 41t42 106v299h75v-299q0 -96 -63 -156.5t-160 -60.5t-160 60.5t-63 156.5z" />
    <glyph glyph-name="Uring" unicode="&#x16e;" horiz-adv-x="679" 
d="M229 831q0 44 31.5 74t78.5 30t78.5 -30t31.5 -74t-31.5 -73.5t-78.5 -29.5t-78.5 29.5t-31.5 73.5zM285 831q0 -22 15.5 -37.5t38.5 -15.5t38.5 15.5t15.5 37.5q0 23 -15.5 38.5t-38.5 15.5t-38.5 -15.5t-15.5 -38.5zM54 259v441h78v-441q0 -86 58 -141.5t149 -55.5
q93 0 150.5 55t57.5 142v441h78v-441q0 -118 -80.5 -193.5t-205.5 -75.5t-205 75.5t-80 193.5z" />
    <glyph glyph-name="uring" unicode="&#x16f;" horiz-adv-x="565" 
d="M174 656q0 44 31 73.5t78 29.5q46 0 77 -29.5t31 -73.5q0 -43 -31 -72.5t-77 -29.5t-77.5 29t-31.5 73zM229 656q0 -22 15.5 -37.5t38.5 -15.5t38 15.5t15 37.5q0 23 -15 38.5t-38 15.5t-38.5 -15.5t-15.5 -38.5zM59 207v299h75v-299q0 -65 42 -106t106 -41t106 41
t42 106v299h75v-299q0 -96 -63 -156.5t-160 -60.5t-160 60.5t-63 156.5z" />
    <glyph glyph-name="Uhungarumlaut" unicode="&#x170;" horiz-adv-x="679" 
d="M248 749h-83l149 151h89zM438 749h-83l149 151h89zM54 259v441h78v-441q0 -86 58 -141.5t149 -55.5q93 0 150.5 55t57.5 142v441h78v-441q0 -118 -80.5 -193.5t-205.5 -75.5t-205 75.5t-80 193.5z" />
    <glyph glyph-name="uhungarumlaut" unicode="&#x171;" horiz-adv-x="565" 
d="M216 576h-73l110 160h79zM384 576h-73l110 160h79zM59 207v299h75v-299q0 -65 42 -106t106 -41t106 41t42 106v299h75v-299q0 -96 -63 -156.5t-160 -60.5t-160 60.5t-63 156.5z" />
    <glyph glyph-name="Uogonek" unicode="&#x172;" horiz-adv-x="679" 
d="M547 259v441h78v-441q0 -96 -55 -165.5t-147 -93.5q-53 -43 -53 -94q0 -22 14 -36t39 -14t53 11l4 -62q-37 -15 -73 -15q-53 0 -81.5 26.5t-28.5 65.5q0 63 69 109q-9 -1 -27 -1q-125 0 -205 75.5t-80 193.5v441h78v-441q0 -86 58 -141.5t149 -55.5q93 0 150.5 55
t57.5 142z" />
    <glyph glyph-name="uogonek" unicode="&#x173;" horiz-adv-x="565" 
d="M430 207v299h75v-299q0 -78 -42.5 -133.5t-112.5 -74.5q-52 -43 -52 -93q0 -22 14 -36t39 -14q26 0 53 11l4 -62q-37 -15 -73 -15q-53 0 -81.5 26.5t-28.5 65.5q0 64 68 108h-11q-97 0 -160 60.5t-63 156.5v299h75v-299q0 -65 42 -106t106 -41t106 41t42 106z" />
    <glyph glyph-name="Wcircumflex" unicode="&#x174;" horiz-adv-x="1049" 
d="M624 749l-99 100l-100 -100h-89l150 151h77l150 -151h-89zM755 25l167 675h80l-175 -700h-146l-157 676l-158 -676h-144l-175 700h79l169 -673l157 673h145z" />
    <glyph glyph-name="wcircumflex" unicode="&#x175;" horiz-adv-x="845" 
d="M503 576l-80 109l-80 -109h-76l113 160h86l113 -160h-76zM616 20l142 486h73l-154 -506h-124l-130 484l-131 -484h-124l-154 506h75l142 -484l125 484h135z" />
    <glyph glyph-name="Ycircumflex" unicode="&#x176;" horiz-adv-x="617" 
d="M408 749l-99 100l-100 -100h-89l150 151h77l150 -151h-89zM613 700l-266 -457v-172h137v-71h-351v71h136v172l-265 457h92l215 -380l214 380h88z" />
    <glyph glyph-name="ycircumflex" unicode="&#x177;" horiz-adv-x="520" 
d="M340 576l-80 109l-80 -109h-76l113 160h86l113 -160h-76zM260 22l179 484h77l-262 -706h-77l75 200h-59l-189 506h82z" />
    <glyph glyph-name="Ydieresis" unicode="&#x178;" horiz-adv-x="617" 
d="M200 778q-20 0 -34 13.5t-14 33.5t14 34t34 14q19 0 33 -14t14 -34q0 -19 -13.5 -33t-33.5 -14zM418 778q-20 0 -33.5 14t-13.5 33q0 20 14 34t33 14q20 0 34 -14t14 -34t-14 -33.5t-34 -13.5zM613 700l-266 -457v-172h137v-71h-351v71h136v172l-265 457h92l215 -380
l214 380h88z" />
    <glyph glyph-name="Zacute" unicode="&#x179;" horiz-adv-x="585" 
d="M359 900h95l-155 -151h-89zM50 700h485v-132l-452 -497h452v-71h-485v132l452 497h-452v71z" />
    <glyph glyph-name="zacute" unicode="&#x17a;" horiz-adv-x="519" 
d="M312 736h85l-116 -160h-79zM50 506h419v-121l-392 -317h392v-68h-419v121l392 317h-392v68z" />
    <glyph glyph-name="Zdotaccent" unicode="&#x17b;" horiz-adv-x="585" 
d="M292 776q-20 0 -34.5 14.5t-14.5 34.5t14.5 34.5t34.5 14.5t34.5 -14.5t14.5 -34.5t-14.5 -34.5t-34.5 -14.5zM50 700h485v-132l-452 -497h452v-71h-485v132l452 497h-452v71z" />
    <glyph glyph-name="zdotaccent" unicode="&#x17c;" horiz-adv-x="519" 
d="M259 608q-20 0 -34.5 14t-14.5 34q0 21 14.5 35t34.5 14t34.5 -14t14.5 -35q0 -20 -14.5 -34t-34.5 -14zM50 506h419v-121l-392 -317h392v-68h-419v121l392 317h-392v68z" />
    <glyph glyph-name="Zcaron" unicode="&#x17d;" horiz-adv-x="585" 
d="M481 900l-150 -151h-77l-150 151h89l100 -99l99 99h89zM50 700h485v-132l-452 -497h452v-71h-485v132l452 497h-452v71z" />
    <glyph glyph-name="zcaron" unicode="&#x17e;" horiz-adv-x="519" 
d="M415 736l-113 -160h-86l-113 160h76l80 -108l80 108h76zM50 506h419v-121l-392 -317h392v-68h-419v121l392 317h-392v68z" />
    <glyph glyph-name="uni018F" unicode="&#x18f;" horiz-adv-x="814" 
d="M407 710q154 0 258.5 -104t104.5 -256t-104.5 -256t-258.5 -104q-153 0 -258.5 111t-93.5 277h634q-10 112 -89.5 186t-192.5 74q-83 0 -149.5 -44.5t-98.5 -115.5l-72 30q39 87 124 144.5t196 57.5zM407 62q109 0 187 69t93 176h-549q8 -102 83 -173.5t186 -71.5z" />
    <glyph glyph-name="florin" unicode="&#x192;" horiz-adv-x="550" 
d="M313 532v-152h180v-59h-180v-150q0 -89 -42 -135t-112 -46q-57 0 -125 31l25 62q54 -23 89 -23q90 0 90 108v153h-161v59h161v149q0 89 41.5 135t111.5 46q57 0 125 -31l-25 -62q-53 24 -89 24q-42 0 -65.5 -27.5t-23.5 -81.5z" />
    <glyph glyph-name="uni019D" unicode="&#x19d;" horiz-adv-x="719" 
d="M577 16v684h78v-700h-153l-360 683v-730q0 -169 -171 -159v67q53 -2 73 18t20 74v747h153z" />
    <glyph glyph-name="Ohorn" unicode="&#x1a0;" horiz-adv-x="814" 
d="M597 659q80 -47 126.5 -129t46.5 -180q0 -152 -104.5 -256t-258.5 -104t-258.5 104t-104.5 256t104.5 256t258.5 104q40 0 74 -7q99 -20 153 -1t54 76q0 33 -16 72h70q17 -37 17 -77q0 -54 -41 -87t-121 -27zM407 62q120 0 201.5 83t81.5 205t-81.5 205t-201.5 83
q-119 0 -201 -83.5t-82 -204.5t82 -204.5t201 -83.5z" />
    <glyph glyph-name="ohorn" unicode="&#x1a1;" horiz-adv-x="636" 
d="M642 579q0 -56 -44.5 -89.5t-130.5 -22.5q51 -36 80 -91.5t29 -122.5q0 -112 -76.5 -187.5t-189.5 -75.5t-189.5 75.5t-76.5 187.5t76.5 187.5t189.5 75.5q26 0 54 -5q2 0 3 -1h2q97 -20 149.5 -1t52.5 75q0 33 -16 72h70q17 -37 17 -77zM310 60q81 0 135 55t54 138
t-54 138t-135 55q-80 0 -134.5 -55.5t-54.5 -137.5t54.5 -137.5t134.5 -55.5z" />
    <glyph glyph-name="Uhorn" unicode="&#x1af;" horiz-adv-x="755" 
d="M673 850h71q16 -35 16 -77q0 -58 -36.5 -88t-98.5 -19v-407q0 -118 -80.5 -193.5t-205.5 -75.5t-205 75.5t-80 193.5v441h78v-441q0 -86 58 -141.5t149 -55.5q93 0 150.5 55t57.5 142v441h40q103 0 103 78q0 34 -17 72z" />
    <glyph glyph-name="uhorn" unicode="&#x1b0;" horiz-adv-x="635" 
d="M554 656h71q16 -35 16 -77q0 -58 -36.5 -88t-99.5 -20v-264q0 -96 -63 -156.5t-160 -60.5t-160 60.5t-63 156.5v299h75v-299q0 -65 42 -106t106 -41t106 41t42 106v299h38q103 0 103 78q0 30 -17 72z" />
    <glyph glyph-name="uni01B7" unicode="&#x1b7;" horiz-adv-x="602" 
d="M541 637l-229 -239q114 -6 178.5 -58t64.5 -141q0 -94 -74.5 -151.5t-177.5 -57.5q-77 0 -147.5 27.5t-118.5 81.5l48 55q43 -45 101.5 -68.5t116.5 -23.5q75 0 124 39t49 98q0 68 -54 101.5t-147 33.5h-57v63l223 232h-359v71h459v-63z" />
    <glyph glyph-name="uni01C4" unicode="&#x1c4;" horiz-adv-x="1251" 
d="M1148 900l-150 -151h-77l-150 151h89l100 -99l99 99h89zM64 700h247q151 0 252.5 -100.5t101.5 -249.5t-101.5 -249.5t-252.5 -100.5h-247v700zM717 700h485v-132l-452 -497h452v-71h-485v132l452 497h-452v71zM142 71h164q120 0 199.5 80t79.5 199q0 120 -79.5 199.5
t-199.5 79.5h-164v-558z" />
    <glyph glyph-name="uni01C5" unicode="&#x1c5;" horiz-adv-x="1202" 
d="M1098 736l-113 -160h-86l-113 160h77l80 -108l79 108h76zM64 700h247q151 0 252.5 -100.5t101.5 -249.5t-101.5 -249.5t-252.5 -100.5h-247v700zM142 71h164q120 0 199.5 80t79.5 199q0 120 -79.5 199.5t-199.5 79.5h-164v-558zM733 506h419v-121l-392 -317h392v-68h-419
v121l392 317h-392v68z" />
    <glyph glyph-name="uni01C7" unicode="&#x1c7;" horiz-adv-x="1003" 
d="M495 0h-431v700h78v-629h353v-71zM518 180l78 11q4 -63 42 -96t95 -33q65 0 101.5 43.5t36.5 111.5v483h78v-483q0 -101 -59.5 -164t-157.5 -63q-89 0 -148 50.5t-66 139.5z" />
    <glyph glyph-name="uni01C8" unicode="&#x1c8;" horiz-adv-x="738" 
d="M588 656q0 21 14 35t35 14q20 0 34.5 -14t14.5 -35q0 -20 -14.5 -34t-34.5 -14q-21 0 -35 14t-14 34zM495 0h-431v700h78v-629h353v-71zM504 -206v67q54 -2 74.5 18t20.5 74v553h75v-553q0 -169 -170 -159z" />
    <glyph glyph-name="uni01CA" unicode="&#x1ca;" horiz-adv-x="1232" 
d="M217 700l360 -684v684h78v-700h-153l-360 683v-683h-78v700h153zM1100 217v483h78v-483q0 -101 -59.5 -164t-157.5 -63q-89 0 -148 50.5t-66 139.5l78 11q4 -63 42 -96t95 -33q65 0 101.5 43.5t36.5 111.5z" />
    <glyph glyph-name="uni01CB" unicode="&#x1cb;" horiz-adv-x="942" 
d="M841 608q-21 0 -35 14t-14 34q0 21 14 35t35 14q20 0 34.5 -14t14.5 -35q0 -20 -14.5 -34t-34.5 -14zM217 700l360 -684v684h78v-700h-153l-360 683v-683h-78v700h153zM803 -47v553h75v-553q0 -169 -170 -159v67q54 -2 74.5 18t20.5 74z" />
    <glyph glyph-name="uni01CD" unicode="&#x1cd;" horiz-adv-x="719" 
d="M548 900l-150 -151h-77l-150 151h89l100 -99l99 99h89zM705 0h-84l-73 186h-380l-73 -186h-81l277 700h137zM358 674l-163 -417h326z" />
    <glyph glyph-name="uni01CE" unicode="&#x1ce;" horiz-adv-x="523" 
d="M418 736l-113 -160h-86l-113 160h76l80 -108l80 108h76zM269 516q86 0 140 -45.5t54 -127.5v-343h-75v138q-51 -148 -198 -148q-69 0 -112.5 38t-43.5 101q0 68 49.5 105t128.5 45l113 13q63 6 63 58q0 47 -33 74t-87 27t-93 -27t-53 -83l-73 20q18 75 77.5 115t142.5 40
zM209 53q77 0 128 51.5t51 120.5v42q-14 -30 -68 -36l-109 -12q-46 -6 -74 -27.5t-28 -58.5q0 -36 27.5 -58t72.5 -22z" />
    <glyph glyph-name="uni01CF" unicode="&#x1cf;" horiz-adv-x="206" 
d="M291 900l-150 -151h-77l-150 151h89l100 -99l99 99h89zM142 0h-78v700h78v-700z" />
    <glyph glyph-name="uni01D0" unicode="&#x1d0;" horiz-adv-x="203" 
d="M102 628l80 108h76l-113 -160h-86l-113 160h76zM139 0h-75v506h75v-506z" />
    <glyph glyph-name="uni01D1" unicode="&#x1d1;" horiz-adv-x="814" 
d="M595 900l-150 -151h-77l-150 151h89l100 -99l99 99h89zM407 710q154 0 258.5 -104t104.5 -256t-104.5 -256t-258.5 -104t-258.5 104t-104.5 256t104.5 256t258.5 104zM407 62q120 0 201.5 83t81.5 205t-81.5 205t-201.5 83q-119 0 -201 -83.5t-82 -204.5t82 -204.5
t201 -83.5z" />
    <glyph glyph-name="uni01D2" unicode="&#x1d2;" horiz-adv-x="620" 
d="M466 736l-113 -160h-86l-113 160h76l80 -108l80 108h76zM310 516q113 0 189.5 -75.5t76.5 -187.5t-76.5 -187.5t-189.5 -75.5t-189.5 75.5t-76.5 187.5t76.5 187.5t189.5 75.5zM310 60q81 0 135 55t54 138t-54 138t-135 55q-80 0 -134.5 -55.5t-54.5 -137.5t54.5 -137.5
t134.5 -55.5z" />
    <glyph glyph-name="Gcaron" unicode="&#x1e6;" horiz-adv-x="814" 
d="M595 900l-150 -151h-77l-150 151h89l100 -99l99 99h89zM352 378h408q8 -110 -39.5 -200t-131 -139t-182.5 -49q-154 0 -258.5 104t-104.5 256t104.5 256t258.5 104q111 0 196 -57.5t124 -144.5l-71 -30q-33 71 -99.5 115.5t-149.5 44.5q-119 0 -201 -83.5t-82 -204.5
t82 -204.5t201 -83.5q111 0 186 71.5t83 173.5h-324v71z" />
    <glyph glyph-name="gcaron" unicode="&#x1e7;" horiz-adv-x="638" 
d="M475 736l-113 -160h-86l-113 160h76l80 -108l80 108h76zM499 361v145h75v-453q0 -112 -76.5 -187.5t-189.5 -75.5q-81 0 -144 40.5t-95 107.5l68 32q24 -51 69 -81t102 -30q81 0 136 55.5t55 138.5v98q-26 -71 -83 -113t-132 -42q-103 0 -171.5 74.5t-68.5 185.5
t68.5 185.5t171.5 74.5q75 0 132 -42t83 -113zM306 65q84 0 138.5 54.5t54.5 136.5q0 81 -54.5 135.5t-138.5 54.5q-78 0 -131.5 -54.5t-53.5 -135.5t53.5 -136t131.5 -55z" />
    <glyph glyph-name="uni01E8" unicode="&#x1e8;" horiz-adv-x="633" 
d="M478 900l-150 -151h-77l-150 151h89l100 -99l99 99h89zM311 412l315 -412h-95l-274 354l-115 -122v-232h-78v700h78v-362l342 362h98z" />
    <glyph glyph-name="uni01E9" unicode="&#x1e9;" horiz-adv-x="529" 
d="M421 970l-113 -160h-86l-113 160h76l80 -108l80 108h76zM285 297l240 -297h-97l-194 242l-95 -101v-141h-75v740h75v-501l246 267h96z" />
    <glyph glyph-name="uni01EA" unicode="&#x1ea;" horiz-adv-x="814" 
d="M451 -8q-44 -40 -44 -86q0 -22 14 -36t39 -14q26 0 53 11l4 -62q-37 -15 -73 -15q-53 0 -81.5 26.5t-28.5 65.5q0 63 68 108q-152 2 -255 105.5t-103 254.5q0 152 104.5 256t258.5 104t258.5 -104t104.5 -256q0 -140 -90.5 -241t-228.5 -117zM124 350q0 -121 82 -204.5
t201 -83.5q120 0 201.5 83t81.5 205t-81.5 205t-201.5 83q-119 0 -201 -83.5t-82 -204.5z" />
    <glyph glyph-name="uni01EB" unicode="&#x1eb;" horiz-adv-x="620" 
d="M352 -7q-45 -39 -45 -87q0 -22 14 -36t39 -14q26 0 53 11l4 -62q-37 -15 -73 -15q-53 0 -81.5 26.5t-28.5 65.5q0 63 68 108q-110 3 -184 78t-74 185q0 112 76.5 187.5t189.5 75.5t189.5 -75.5t76.5 -187.5q0 -101 -63 -173.5t-161 -86.5zM121 253q0 -82 54.5 -137.5
t134.5 -55.5q81 0 135 55t54 138t-54 138t-135 55q-80 0 -134.5 -55.5t-54.5 -137.5z" />
    <glyph glyph-name="uni01EE" unicode="&#x1ee;" horiz-adv-x="602" 
d="M491 900l-150 -151h-77l-150 151h89l100 -99l99 99h89zM541 637l-229 -239q114 -6 178.5 -58t64.5 -141q0 -94 -74.5 -151.5t-177.5 -57.5q-77 0 -147.5 27.5t-118.5 81.5l48 55q43 -45 101.5 -68.5t116.5 -23.5q75 0 124 39t49 98q0 68 -54 101.5t-147 33.5h-57v63
l223 232h-359v71h459v-63z" />
    <glyph glyph-name="uni01EF" unicode="&#x1ef;" horiz-adv-x="485" 
d="M390 736l-113 -160h-86l-113 160h76l80 -108l80 108h76zM431 442l-182 -223q90 -13 144.5 -71.5t54.5 -142.5q0 -92 -62 -153.5t-151 -61.5q-83 0 -141.5 42t-76.5 117l70 19q13 -53 52.5 -81t94.5 -28q59 0 98 42t39 104q0 63 -43.5 106t-113.5 43h-50v63l179 221h-298
v68h386v-64z" />
    <glyph glyph-name="uni01F1" unicode="&#x1f1;" horiz-adv-x="1251" 
d="M64 700h247q151 0 252.5 -100.5t101.5 -249.5t-101.5 -249.5t-252.5 -100.5h-247v700zM717 700h485v-132l-452 -497h452v-71h-485v132l452 497h-452v71zM142 71h164q120 0 199.5 80t79.5 199q0 120 -79.5 199.5t-199.5 79.5h-164v-558z" />
    <glyph glyph-name="uni01F2" unicode="&#x1f2;" horiz-adv-x="1202" 
d="M64 700h247q151 0 252.5 -100.5t101.5 -249.5t-101.5 -249.5t-252.5 -100.5h-247v700zM142 71h164q120 0 199.5 80t79.5 199q0 120 -79.5 199.5t-199.5 79.5h-164v-558zM733 506h419v-121l-392 -317h392v-68h-419v121l392 317h-392v68z" />
    <glyph glyph-name="uni01F4" unicode="&#x1f4;" horiz-adv-x="814" 
d="M474 900h95l-155 -151h-89zM352 378h408q8 -110 -39.5 -200t-131 -139t-182.5 -49q-154 0 -258.5 104t-104.5 256t104.5 256t258.5 104q111 0 196 -57.5t124 -144.5l-71 -30q-33 71 -99.5 115.5t-149.5 44.5q-119 0 -201 -83.5t-82 -204.5t82 -204.5t201 -83.5
q111 0 186 71.5t83 173.5h-324v71z" />
    <glyph glyph-name="uni01F5" unicode="&#x1f5;" horiz-adv-x="638" 
d="M372 736h85l-116 -160h-79zM499 361v145h75v-453q0 -112 -76.5 -187.5t-189.5 -75.5q-81 0 -144 40.5t-95 107.5l68 32q24 -51 69 -81t102 -30q81 0 136 55.5t55 138.5v98q-26 -71 -83 -113t-132 -42q-103 0 -171.5 74.5t-68.5 185.5t68.5 185.5t171.5 74.5q75 0 132 -42
t83 -113zM306 65q84 0 138.5 54.5t54.5 136.5q0 81 -54.5 135.5t-138.5 54.5q-78 0 -131.5 -54.5t-53.5 -135.5t53.5 -136t131.5 -55z" />
    <glyph glyph-name="AEacute" unicode="&#x1fc;" horiz-adv-x="972" 
d="M600 900h95l-155 -151h-89zM925 700v-71h-353v-244h343v-70h-343v-244h353v-71h-431v186h-290l-121 -186h-89l457 700h474zM494 631l-244 -374h244v374z" />
    <glyph glyph-name="aeacute" unicode="&#x1fd;" horiz-adv-x="960" 
d="M530 736h85l-116 -160h-79zM662 516q114 0 187.5 -82.5t65.5 -203.5h-445q8 -76 62.5 -124.5t133.5 -48.5q56 0 101.5 29t68.5 79l65 -27q-29 -67 -87.5 -107.5t-134.5 -40.5q-75 0 -132.5 43.5t-83.5 116.5v-150h-75v138q-51 -148 -198 -148q-69 0 -112.5 38t-43.5 101
q0 68 49.5 105t128.5 45l113 13q63 6 63 58q0 47 -33 74t-87 27t-93 -27t-53 -83l-73 20q18 75 77.5 115t142.5 40q67 0 116 -28.5t68 -80.5q34 51 88.5 80t120.5 29zM656 449q-70 0 -120.5 -44t-63.5 -113h367q-11 68 -61.5 112.5t-121.5 44.5zM209 53q77 0 128 51.5
t51 120.5v42q-14 -30 -68 -36l-109 -12q-46 -6 -74 -27.5t-28 -58.5q0 -36 27.5 -58t72.5 -22z" />
    <glyph glyph-name="Oslashacute" unicode="&#x1fe;" horiz-adv-x="814" 
d="M474 900h95l-155 -151h-89zM695 698l-51 -72q126 -107 126 -276q0 -152 -104.5 -256t-258.5 -104q-96 0 -178 44l-51 -73l-58 41l50 72q-59 49 -92.5 121t-33.5 155q0 152 104.5 256t258.5 104q96 0 178 -44l51 73zM124 350q0 -128 90 -213l328 468q-63 33 -135 33
q-119 0 -201 -83.5t-82 -204.5zM407 62q120 0 201.5 83t81.5 205q0 129 -90 213l-328 -468q63 -33 135 -33z" />
    <glyph glyph-name="oslashacute" unicode="&#x1ff;" horiz-adv-x="620" 
d="M363 736h85l-116 -160h-79zM541 523l-51 -73q86 -78 86 -197q0 -112 -76.5 -187.5t-189.5 -75.5q-66 0 -122 28l-52 -74l-57 39l51 73q-86 78 -86 197q0 112 76.5 187.5t189.5 75.5q66 0 122 -28l52 74zM118 253q0 -82 53 -138l222 316q-37 18 -83 18q-82 0 -137 -56
t-55 -140zM310 57q82 0 137 56t55 140q0 82 -53 138l-222 -316q37 -18 83 -18z" />
    <glyph glyph-name="uni0218" unicode="&#x218;" horiz-adv-x="609" 
d="M51 180l78 16q10 -65 57.5 -100.5t125.5 -35.5q74 0 120 34t46 87q0 39 -22.5 66t-58.5 42t-79.5 26.5t-87.5 26t-80 34.5t-58.5 57t-22.5 89q0 81 66.5 134.5t167.5 53.5t167.5 -53t79.5 -137l-79 -16q-9 61 -54.5 99t-114.5 38q-67 0 -110 -33t-43 -83
q0 -38 22.5 -63.5t58.5 -39t80 -25t87.5 -26t79.5 -35.5t58.5 -59.5t22.5 -93.5q0 -84 -71 -138.5t-177 -54.5q-107 0 -177 51t-82 139zM310 -210h-64l35 154h74z" />
    <glyph glyph-name="uni0219" unicode="&#x219;" horiz-adv-x="482" 
d="M34 131l76 15q16 -93 131 -93q58 0 94.5 23.5t36.5 60.5q0 38 -33.5 58t-80.5 28.5t-94.5 19t-81 41.5t-33.5 85q0 64 54 105.5t138 41.5q82 0 134 -38t64 -103l-75 -15q-17 92 -123 92q-51 0 -84 -22t-33 -58q0 -35 33.5 -53.5t81 -26.5t95 -19.5t81 -44.5t33.5 -89
q0 -65 -59 -107t-148 -42q-86 0 -140.5 38t-66.5 103zM250 -210h-64l35 154h74z" />
    <glyph glyph-name="uni021A" unicode="&#x21a;" horiz-adv-x="572" 
d="M325 0h-78v629h-237v71h552v-71h-237v-629zM295 -210h-64l35 154h74z" />
    <glyph glyph-name="uni021B" unicode="&#x21b;" horiz-adv-x="411" 
d="M138 438h-114v68h114v181l75 23v-204h154v-68h-154v-266q0 -56 24 -80t79 -24h51v-68h-51q-91 0 -134.5 43t-43.5 132v263zM260 -210h-64l35 154h74z" />
    <glyph glyph-name="uni0232" unicode="&#x232;" horiz-adv-x="617" 
d="M150 856h316v-62h-316v62zM613 700l-266 -457v-172h137v-71h-351v71h136v172l-265 457h92l215 -380l214 380h88z" />
    <glyph glyph-name="uni0233" unicode="&#x233;" horiz-adv-x="520" 
d="M107 687h306v-61h-306v61zM260 22l179 484h77l-262 -706h-77l75 200h-59l-189 506h82z" />
    <glyph glyph-name="uni0237" unicode="&#x237;" horiz-adv-x="223" 
d="M-11 -206v67q54 -2 74.5 18t20.5 74v553h75v-553q0 -169 -170 -159z" />
    <glyph glyph-name="uni0259" unicode="&#x259;" horiz-adv-x="611" 
d="M301 516q113 0 189.5 -75.5t76.5 -187.5t-75 -187.5t-186 -75.5q-117 0 -192.5 82.5t-66.5 203.5h445q-8 76 -62 124.5t-131 48.5q-58 0 -104 -29t-70 -79l-65 27q32 67 95.5 107.5t145.5 40.5zM306 57q69 0 120 44t64 113h-367q11 -68 61.5 -112.5t121.5 -44.5z" />
    <glyph glyph-name="uni0272" unicode="&#x272;" horiz-adv-x="590" 
d="M326 516q89 0 146.5 -62t57.5 -156v-298h-75v289q0 67 -44 112.5t-109 45.5q-71 0 -117 -45t-46 -113v-336q0 -169 -170 -159v67q54 -2 74.5 18t20.5 74v553h75v-130q21 64 71 102t116 38z" />
    <glyph glyph-name="uni0292" unicode="&#x292;" horiz-adv-x="485" 
d="M431 442l-182 -223q90 -13 144.5 -71.5t54.5 -142.5q0 -92 -62 -153.5t-151 -61.5q-83 0 -141.5 42t-76.5 117l70 19q13 -53 52.5 -81t94.5 -28q59 0 98 42t39 104q0 63 -43.5 106t-113.5 43h-50v63l179 221h-298v68h386v-64z" />
    <glyph glyph-name="uni02BC" unicode="&#x2bc;" horiz-adv-x="209" 
d="M106 750q35 0 57 -28.5t22 -70.5q0 -101 -97 -154l-37 42q44 24 61 56.5t8 56.5q-23 -8 -45 5t-22 41q0 22 15.5 37t37.5 15z" />
    <glyph glyph-name="circumflex" unicode="&#x2c6;" horiz-adv-x="412" 
d="M249 736l113 -160h-76l-80 109l-80 -109h-76l113 160h86z" />
    <glyph glyph-name="caron" unicode="&#x2c7;" horiz-adv-x="412" 
d="M206 628l80 108h76l-113 -160h-86l-113 160h76z" />
    <glyph glyph-name="breve" unicode="&#x2d8;" horiz-adv-x="392" 
d="M50 733h63q0 -43 23 -69t60 -26q38 0 60.5 26t22.5 69h63q0 -71 -40.5 -113.5t-105.5 -42.5t-105.5 42.5t-40.5 113.5z" />
    <glyph glyph-name="dotaccent" unicode="&#x2d9;" horiz-adv-x="198" 
d="M50 656q0 21 14.5 35t34.5 14t34.5 -14t14.5 -35q0 -20 -14.5 -34t-34.5 -14t-34.5 14t-14.5 34z" />
    <glyph glyph-name="ring" unicode="&#x2da;" horiz-adv-x="317" 
d="M50 656q0 44 31 73.5t78 29.5q46 0 77 -29.5t31 -73.5q0 -43 -31 -72.5t-77 -29.5t-77.5 29t-31.5 73zM105 656q0 -22 15.5 -37.5t38.5 -15.5t38 15.5t15 37.5q0 23 -15 38.5t-38 15.5t-38.5 -15.5t-15.5 -38.5z" />
    <glyph glyph-name="ogonek" unicode="&#x2db;" horiz-adv-x="283" 
d="M148 7l28 -7q-53 -43 -53 -94q0 -22 14 -36t39 -14q26 0 53 11l4 -62q-37 -15 -73 -15q-53 0 -81.5 26.5t-28.5 65.5q0 78 98 125z" />
    <glyph glyph-name="tilde" unicode="&#x2dc;" horiz-adv-x="463" 
d="M102 609l-52 25q13 39 42 62.5t68 23.5q40 0 81.5 -32t62.5 -32q39 0 57 48l52 -25q-13 -39 -41.5 -62.5t-67.5 -23.5q-32 0 -58 16t-46.5 32t-39.5 16q-40 0 -58 -48z" />
    <glyph glyph-name="hungarumlaut" unicode="&#x2dd;" horiz-adv-x="457" 
d="M123 576h-73l110 160h79zM291 576h-73l110 160h79z" />
    <glyph glyph-name="gravecomb" unicode="&#x300;" 
d="M-50 576h-79l-116 160h85z" />
    <glyph glyph-name="acutecomb" unicode="&#x301;" 
d="M-166 576h-79l110 160h85z" />
    <glyph glyph-name="uni0302" unicode="&#x302;" 
d="M-163 736l113 -160h-76l-80 109l-80 -109h-76l113 160h86z" />
    <glyph glyph-name="tildecomb" unicode="&#x303;" 
d="M-361 609l-52 25q13 39 42 62.5t68 23.5q40 0 81.5 -32t62.5 -32q39 0 57 48l52 -25q-13 -39 -41.5 -62.5t-67.5 -23.5q-32 0 -58 16t-46.5 32t-39.5 16q-40 0 -58 -48z" />
    <glyph glyph-name="uni0304" unicode="&#x304;" 
d="M-50 626h-306v61h306v-61z" />
    <glyph glyph-name="uni0306" unicode="&#x306;" 
d="M-342 733h63q0 -43 23 -69t60 -26q38 0 60.5 26t22.5 69h63q0 -71 -40.5 -113.5t-105.5 -42.5t-105.5 42.5t-40.5 113.5z" />
    <glyph glyph-name="uni0307" unicode="&#x307;" 
d="M-148 656q0 21 14.5 35t34.5 14t34.5 -14t14.5 -35q0 -20 -14.5 -34t-34.5 -14t-34.5 14t-14.5 34z" />
    <glyph glyph-name="uni0308" unicode="&#x308;" 
d="M-357 656q0 20 14 34t34 14t33.5 -14t13.5 -34t-14 -33.5t-33 -13.5q-20 0 -34 13.5t-14 33.5zM-145 656q0 20 13.5 34t33.5 14t34 -14t14 -34t-14 -33.5t-34 -13.5t-33.5 13.5t-13.5 33.5z" />
    <glyph glyph-name="hookabovecomb" unicode="&#x309;" 
d="M-161 547l-21 46q71 21 71 69q0 22 -14 36.5t-36 14.5q-23 0 -37.5 -16t-14.5 -39h-60q0 47 31.5 77t80.5 30q48 0 79.5 -29.5t31.5 -73.5q0 -41 -30.5 -71.5t-80.5 -43.5z" />
    <glyph glyph-name="uni030A" unicode="&#x30a;" 
d="M-267 656q0 44 31 73.5t78 29.5q46 0 77 -29.5t31 -73.5q0 -43 -31 -72.5t-77 -29.5t-77.5 29t-31.5 73zM-212 656q0 -22 15.5 -37.5t38.5 -15.5q22 0 37.5 15.5t15.5 37.5q0 23 -15 38.5t-38 15.5t-38.5 -15.5t-15.5 -38.5z" />
    <glyph glyph-name="uni030B" unicode="&#x30b;" 
d="M-334 576h-73l110 160h79zM-166 576h-73l110 160h79z" />
    <glyph glyph-name="uni030C" unicode="&#x30c;" 
d="M-206 628l80 108h76l-113 -160h-86l-113 160h76z" />
    <glyph glyph-name="uni0312" unicode="&#x312;" 
d="M-85 586h-74l45 154h64z" />
    <glyph glyph-name="uni031B" unicode="&#x31b;" 
d="M-223 481v25q103 0 103 78q0 30 -17 72h71q16 -35 16 -77q0 -66 -47 -95.5t-126 -2.5z" />
    <glyph glyph-name="dotbelowcomb" unicode="&#x323;" 
d="M-148 -151q0 21 14.5 35t34.5 14t34.5 -14t14.5 -35q0 -20 -14.5 -34.5t-34.5 -14.5t-34.5 14.5t-14.5 34.5z" />
    <glyph glyph-name="uni0326" unicode="&#x326;" 
d="M-95 -210h-64l35 154h74z" />
    <glyph glyph-name="uni0327" unicode="&#x327;" 
d="M-239 -203l6 63q19 -4 38 -4q35 0 53.5 16t18.5 41q0 51 -58 87l32 3q47 -14 73 -44.5t26 -65.5q0 -43 -35 -73t-98 -30q-27 0 -56 7z" />
    <glyph glyph-name="uni0328" unicode="&#x328;" 
d="M-135 7l28 -7q-53 -43 -53 -94q0 -22 14 -36t39 -14t53 11l4 -62q-37 -15 -73 -15q-53 0 -81.5 26.5t-28.5 65.5q0 78 98 125z" />
    <glyph glyph-name="uni0335" unicode="&#x335;" 
d="M-50 319h-328v62h328v-62z" />
    <glyph glyph-name="uni0374" unicode="&#x374;" horiz-adv-x="209" 
d="M106 750q35 0 57 -28.5t22 -70.5q0 -101 -97 -154l-37 42q44 24 61 56.5t8 56.5q-23 -8 -45 5t-22 41q0 22 15.5 37t37.5 15z" />
    <glyph glyph-name="uni0375" unicode="&#x375;" horiz-adv-x="209" 
d="M106 97q35 0 57 -28.5t22 -69.5q0 -102 -97 -155l-37 43q44 24 60.5 56t8.5 56q-23 -8 -45 5t-22 41q0 22 15.5 37t37.5 15z" />
    <glyph glyph-name="uni037A" unicode="&#x37a;" horiz-adv-x="252" 
d="M202 -144v-62q-74 -13 -113 17.5t-39 96.5v51h71v-47q0 -70 81 -56z" />
    <glyph glyph-name="uni037E" unicode="&#x37e;" horiz-adv-x="209" 
d="M105 409q-22 0 -37 15t-15 36q0 22 15 37t37 15q21 0 36 -15t15 -37q0 -21 -15 -36t-36 -15zM106 97q35 0 57 -28.5t22 -69.5q0 -102 -97 -155l-37 43q44 24 60.5 56t8.5 56q-23 -8 -45 5t-22 41q0 22 15.5 37t37.5 15z" />
    <glyph glyph-name="tonos" unicode="&#x384;" horiz-adv-x="257" 
d="M121 576h-71l80 160h77z" />
    <glyph glyph-name="dieresistonos" unicode="&#x385;" horiz-adv-x="436" 
d="M212 576h-66l80 160h71zM50 656q0 19 13 32t32 13q18 0 31 -13t13 -32q0 -18 -13 -31t-31 -13q-19 0 -32 13t-13 31zM297 656q0 19 12.5 32t31.5 13t32 -13t13 -32q0 -18 -13 -31t-32 -13t-31.5 13t-12.5 31z" />
    <glyph glyph-name="Alphatonos" unicode="&#x386;" horiz-adv-x="719" 
d="M705 0h-84l-73 186h-380l-73 -186h-81l277 700h137zM117 700h77l-86 -160h-71zM358 674l-163 -417h326z" />
    <glyph glyph-name="anoteleia" unicode="&#x387;" horiz-adv-x="209" 
d="M53 460q0 22 15 37t37 15q21 0 36 -15t15 -37q0 -21 -15 -36t-36 -15q-22 0 -37 15t-15 36z" />
    <glyph glyph-name="Epsilontonos" unicode="&#x388;" horiz-adv-x="542" 
d="M-86 540h-71l80 160h77zM495 0h-431v700h431v-71h-353v-244h343v-70h-343v-244h353v-71z" />
    <glyph glyph-name="Etatonos" unicode="&#x389;" horiz-adv-x="713" 
d="M-86 540h-71l80 160h77zM142 0h-78v700h78v-315h429v315h78v-700h-78v315h-429v-315z" />
    <glyph glyph-name="Iotatonos" unicode="&#x38a;" horiz-adv-x="206" 
d="M-86 540h-71l80 160h77zM142 0h-78v700h78v-700z" />
    <glyph glyph-name="Omicrontonos" unicode="&#x38c;" horiz-adv-x="814" 
d="M44 350q0 152 104.5 256t258.5 104t258.5 -104t104.5 -256t-104.5 -256t-258.5 -104t-258.5 104t-104.5 256zM-20 540h-71l80 160h77zM124 350q0 -121 82 -204.5t201 -83.5q120 0 201.5 83t81.5 205t-81.5 205t-201.5 83q-119 0 -201 -83.5t-82 -204.5z" />
    <glyph glyph-name="Upsilontonos" unicode="&#x38e;" horiz-adv-x="617" 
d="M-86 540h-71l80 160h77zM613 700l-266 -457v-172h137v-71h-351v71h136v172l-265 457h92l215 -380l214 380h88z" />
    <glyph glyph-name="Omegatonos" unicode="&#x38f;" horiz-adv-x="814" 
d="M558 71h217v-71h-269v65q179 130 179 294q0 118 -79.5 198.5t-198.5 80.5t-198.5 -80.5t-79.5 -198.5q0 -164 179 -294v-65h-269v71h217q-100 50 -153.5 128.5t-53.5 175.5q0 137 102 236t256 99q155 0 256.5 -98.5t101.5 -236.5q0 -97 -53.5 -175.5t-153.5 -128.5z
M-83 540l80 160h77l-86 -160h-71z" />
    <glyph glyph-name="iotadieresistonos" unicode="&#x390;" horiz-adv-x="267" 
d="M105 576h-65l80 160h71zM-56 656q0 19 12.5 32t31.5 13t32 -13t13 -32q0 -18 -13 -31t-32 -13t-31.5 13t-12.5 31zM190 656q0 19 13 32t32 13t32 -13t13 -32q0 -18 -13 -31t-32 -13t-32 13t-13 31zM64 175v331h75v-334q0 -56 24 -80t79 -24h13v-68h-13q-91 0 -134.5 43
t-43.5 132z" />
    <glyph glyph-name="Alpha" unicode="&#x391;" horiz-adv-x="719" 
d="M705 0h-84l-73 186h-380l-73 -186h-81l277 700h137zM358 674l-163 -417h326z" />
    <glyph glyph-name="Beta" unicode="&#x392;" horiz-adv-x="622" 
d="M398 353q80 -7 128.5 -52.5t48.5 -116.5q0 -78 -56.5 -131t-144.5 -53h-310v700h280q88 0 144.5 -53t56.5 -131q0 -64 -39.5 -107t-107.5 -56zM339 631h-198v-247h198q58 0 95 35.5t37 88.5q0 52 -37 87.5t-95 35.5zM141 69h224q57 0 94 36t37 88q0 53 -37 88t-94 35
h-224v-247z" />
    <glyph glyph-name="Gamma" unicode="&#x393;" horiz-adv-x="505" 
d="M142 0h-78v700h431v-71h-353v-629z" />
    <glyph glyph-name="uni0394" unicode="&#x394;" horiz-adv-x="719" 
d="M428 700l277 -700h-691l277 700h137zM358 674l-234 -599h468z" />
    <glyph glyph-name="Epsilon" unicode="&#x395;" horiz-adv-x="542" 
d="M495 0h-431v700h431v-71h-353v-244h343v-70h-343v-244h353v-71z" />
    <glyph glyph-name="Zeta" unicode="&#x396;" horiz-adv-x="585" 
d="M50 700h485v-132l-452 -497h452v-71h-485v132l452 497h-452v71z" />
    <glyph glyph-name="Eta" unicode="&#x397;" horiz-adv-x="713" 
d="M142 0h-78v700h78v-315h429v315h78v-700h-78v315h-429v-315z" />
    <glyph glyph-name="Theta" unicode="&#x398;" horiz-adv-x="814" 
d="M44 350q0 152 104.5 256t258.5 104t258.5 -104t104.5 -256t-104.5 -256t-258.5 -104t-258.5 104t-104.5 256zM124 350q0 -121 82 -204.5t201 -83.5q120 0 201.5 83t81.5 205t-81.5 205t-201.5 83q-119 0 -201 -83.5t-82 -204.5zM553 315h-292v70h292v-70z" />
    <glyph glyph-name="Iota" unicode="&#x399;" horiz-adv-x="206" 
d="M142 0h-78v700h78v-700z" />
    <glyph glyph-name="Kappa" unicode="&#x39a;" horiz-adv-x="633" 
d="M311 412l315 -412h-95l-274 354l-115 -122v-232h-78v700h78v-362l342 362h98z" />
    <glyph glyph-name="Lambda" unicode="&#x39b;" horiz-adv-x="689" 
d="M413 700l262 -700h-83l-249 676l-248 -676h-81l263 700h136z" />
    <glyph glyph-name="Mu" unicode="&#x39c;" horiz-adv-x="842" 
d="M772 700v-700h-75v681l-210 -681h-138l-210 684v-684h-75v700h147l208 -677l208 677h145z" />
    <glyph glyph-name="Nu" unicode="&#x39d;" horiz-adv-x="719" 
d="M577 16v684h78v-700h-153l-360 683v-683h-78v700h153z" />
    <glyph glyph-name="Xi" unicode="&#x39e;" horiz-adv-x="659" 
d="M595 700v-76h-227v-236h217v-76h-217v-236h227v-76h-531v76h226v236h-216v76h216v236h-226v76h531z" />
    <glyph glyph-name="Omicron" unicode="&#x39f;" horiz-adv-x="814" 
d="M44 350q0 152 104.5 256t258.5 104t258.5 -104t104.5 -256t-104.5 -256t-258.5 -104t-258.5 104t-104.5 256zM124 350q0 -121 82 -204.5t201 -83.5q120 0 201.5 83t81.5 205t-81.5 205t-201.5 83q-119 0 -201 -83.5t-82 -204.5z" />
    <glyph glyph-name="Pi" unicode="&#x3a0;" horiz-adv-x="713" 
d="M142 0h-78v700h585v-700h-78v629h-429v-629z" />
    <glyph glyph-name="Rho" unicode="&#x3a1;" horiz-adv-x="569" 
d="M142 0h-78v700h264q99 0 161.5 -59.5t62.5 -149.5q0 -89 -62.5 -148.5t-161.5 -59.5h-186v-283zM142 629v-275h186q63 0 103.5 39.5t40.5 98.5t-40.5 98t-103.5 39h-186z" />
    <glyph glyph-name="Sigma" unicode="&#x3a3;" horiz-adv-x="530" 
d="M40 700h450v-71h-416l302 -231v-93l-304 -230h418v-75h-450v131l288 219l-288 220v130z" />
    <glyph glyph-name="Tau" unicode="&#x3a4;" horiz-adv-x="572" 
d="M325 0h-78v629h-237v71h552v-71h-237v-629z" />
    <glyph glyph-name="Upsilon" unicode="&#x3a5;" horiz-adv-x="617" 
d="M613 700l-266 -457v-172h137v-71h-351v71h136v172l-265 457h92l215 -380l214 380h88z" />
    <glyph glyph-name="Phi" unicode="&#x3a6;" horiz-adv-x="853" 
d="M465 656h7q148 0 242.5 -86t94.5 -220t-94.5 -220t-242.5 -86h-7v-84h-78v84h-7q-148 0 -242 86t-94 220t94 220t242 86h7v84h78v-84zM380 114h7v472h-7q-114 0 -186 -66t-72 -170t72 -170t186 -66zM465 114h7q114 0 186.5 66t72.5 170t-72 170t-187 66h-7v-472z" />
    <glyph glyph-name="Chi" unicode="&#x3a7;" horiz-adv-x="647" 
d="M539 700h94l-262 -349l262 -351h-96l-214 290l-215 -290h-94l262 349l-262 351h96l215 -289z" />
    <glyph glyph-name="Psi" unicode="&#x3a8;" horiz-adv-x="745" 
d="M613 421v279h78v-279q0 -118 -78 -192t-202 -75v-154h-77v154q-124 1 -202 75t-78 192v279h78v-279q0 -86 55.5 -139.5t146.5 -54.5v473h77v-473q91 1 146.5 54.5t55.5 139.5z" />
    <glyph glyph-name="uni03A9" unicode="&#x3a9;" horiz-adv-x="814" 
d="M558 71h217v-71h-269v65q179 130 179 294q0 118 -79.5 198.5t-198.5 80.5t-198.5 -80.5t-79.5 -198.5q0 -164 179 -294v-65h-269v71h217q-100 50 -153.5 128.5t-53.5 175.5q0 137 102 236t256 99q155 0 256.5 -98.5t101.5 -236.5q0 -97 -53.5 -175.5t-153.5 -128.5z" />
    <glyph glyph-name="Iotadieresis" unicode="&#x3aa;" horiz-adv-x="206" 
d="M-35 825q0 20 14 34t33 14q20 0 34 -14t14 -34t-14 -33.5t-34 -13.5t-33.5 14t-13.5 33zM146 825q0 19 14 33.5t34 14.5q19 0 33 -14t14 -34q0 -19 -13.5 -33t-33.5 -14t-34 14t-14 33zM142 0h-78v700h78v-700z" />
    <glyph glyph-name="Upsilondieresis" unicode="&#x3ab;" horiz-adv-x="617" 
d="M200 778q-20 0 -34 13.5t-14 33.5t14 34t34 14q19 0 33 -14t14 -34q0 -19 -13.5 -33t-33.5 -14zM418 778q-20 0 -33.5 14t-13.5 33q0 20 14 34t33 14q20 0 34 -14t14 -34t-14 -33.5t-34 -13.5zM613 700l-266 -457v-172h137v-71h-351v71h136v172l-265 457h92l215 -380
l214 380h88z" />
    <glyph glyph-name="alphatonos" unicode="&#x3ac;" horiz-adv-x="702" 
d="M335 736h77l-86 -160h-71zM677 68h13v-68h-13q-157 0 -175 134q-30 -66 -87 -105t-129 -39q-104 0 -173 75t-69 188q0 112 68.5 187.5t171.5 75.5q75 0 132 -42.5t83 -114.5v147h75v-334q0 -56 24 -80t79 -24zM305 60q84 0 139 55t55 138t-55 138t-139 55
q-77 0 -130.5 -55.5t-53.5 -137.5t53.5 -137.5t130.5 -55.5z" />
    <glyph glyph-name="epsilontonos" unicode="&#x3ad;" horiz-adv-x="490" 
d="M288 736h85l-116 -160h-79zM250 57q43 0 89.5 17t80.5 50l43 -51q-38 -40 -95 -61.5t-118 -21.5q-86 0 -144.5 38.5t-58.5 103.5q0 45 37.5 79t114.5 42q-77 9 -114.5 42.5t-37.5 78.5q0 65 58.5 103.5t144.5 38.5q61 0 118 -21.5t95 -61.5l-43 -51q-33 33 -80 50t-90 17
q-57 0 -91.5 -23.5t-34.5 -59.5q0 -81 146 -81h68v-64h-68q-146 0 -146 -81q0 -36 34.5 -59.5t91.5 -23.5z" />
    <glyph glyph-name="etatonos" unicode="&#x3ae;" horiz-adv-x="590" 
d="M319 736h77l-86 -160h-71zM326 516q89 0 146.5 -62t57.5 -156v-498h-75v489q0 67 -44 112.5t-109 45.5q-71 0 -117 -45t-46 -113v-289h-75v506h75v-130q21 64 71 102t116 38z" />
    <glyph glyph-name="iotatonos" unicode="&#x3af;" horiz-adv-x="267" 
d="M134 576h-71l80 160h77zM64 175v331h75v-334q0 -56 24 -80t79 -24h13v-68h-13q-91 0 -134.5 43t-43.5 132z" />
    <glyph glyph-name="upsilondieresistonos" unicode="&#x3b0;" horiz-adv-x="565" 
d="M276 576h-66l80 160h71zM114 656q0 19 13 32t32 13q18 0 31 -13t13 -32q0 -18 -13 -31t-31 -13q-19 0 -32 13t-13 31zM361 656q0 19 12.5 32t31.5 13t32 -13t13 -32q0 -18 -13 -31t-32 -13t-31.5 13t-12.5 31zM59 207v299h75v-299q0 -65 42 -106t106 -41t106 41t42 106
v299h75v-299q0 -96 -63 -156.5t-160 -60.5t-160 60.5t-63 156.5z" />
    <glyph glyph-name="alpha" unicode="&#x3b1;" horiz-adv-x="702" 
d="M677 68h13v-68h-13q-157 0 -175 134q-30 -66 -87 -105t-129 -39q-104 0 -173 75t-69 188q0 112 68.5 187.5t171.5 75.5q75 0 132 -42.5t83 -114.5v147h75v-334q0 -56 24 -80t79 -24zM305 60q84 0 139 55t55 138t-55 138t-139 55q-77 0 -130.5 -55.5t-53.5 -137.5
t53.5 -137.5t130.5 -55.5z" />
    <glyph glyph-name="beta" unicode="&#x3b2;" horiz-adv-x="612" 
d="M362 396q86 -11 141 -61t55 -134q0 -91 -63 -151t-156 -60q-69 0 -122.5 36.5t-77.5 98.5v-325h-75v723q0 104 65 165.5t167 61.5q92 0 155.5 -53t63.5 -134q0 -63 -41.5 -107t-111.5 -60zM314 60q73 0 121 42.5t48 108.5q0 64 -47.5 106t-122.5 42h-50v68h29
q64 0 106.5 36.5t42.5 89.5q0 55 -41.5 91.5t-105.5 36.5q-66 0 -110.5 -41t-44.5 -116v-305q0 -71 49 -115t126 -44z" />
    <glyph glyph-name="gamma" unicode="&#x3b3;" horiz-adv-x="520" 
d="M262 78l177 428h77l-218 -519v-187h-75v187l-219 519h82z" />
    <glyph glyph-name="delta" unicode="&#x3b4;" horiz-adv-x="606" 
d="M519 672h-284q327 -236 327 -431q0 -107 -74.5 -179t-184.5 -72t-184.5 72t-74.5 179q0 103 66.5 171t157.5 68q74 0 142 -63q-88 115 -284 263v60h393v-68zM303 60q78 0 130 52t52 129q0 78 -52.5 130t-133.5 52q-75 0 -126.5 -52t-51.5 -130q0 -77 52 -129t130 -52z
" />
    <glyph glyph-name="epsilon" unicode="&#x3b5;" horiz-adv-x="490" 
d="M250 57q43 0 89.5 17t80.5 50l43 -51q-38 -40 -95 -61.5t-118 -21.5q-86 0 -144.5 38.5t-58.5 103.5q0 45 37.5 79t114.5 42q-77 9 -114.5 42.5t-37.5 78.5q0 65 58.5 103.5t144.5 38.5q61 0 118 -21.5t95 -61.5l-43 -51q-33 33 -80 50t-90 17q-57 0 -91.5 -23.5
t-34.5 -59.5q0 -81 146 -81h68v-64h-68q-146 0 -146 -81q0 -36 34.5 -59.5t91.5 -23.5z" />
    <glyph glyph-name="zeta" unicode="&#x3b6;" horiz-adv-x="486" 
d="M458 740v-60q-179 -165 -258 -273.5t-79 -197.5q0 -60 36.5 -93.5t116.5 -41.5q43 -4 70.5 -10t57 -21.5t40.5 -40t8 -68.5t-27 -104l-68 13q14 36 20.5 61.5t2.5 42.5t-11 27t-27.5 16.5t-38.5 9t-52 5.5q-89 8 -147 53.5t-58 141.5q0 111 93.5 235t270.5 237h-341v68
h391z" />
    <glyph glyph-name="eta" unicode="&#x3b7;" horiz-adv-x="590" 
d="M326 516q89 0 146.5 -62t57.5 -156v-498h-75v489q0 67 -44 112.5t-109 45.5q-71 0 -117 -45t-46 -113v-289h-75v506h75v-130q21 64 71 102t116 38z" />
    <glyph glyph-name="theta" unicode="&#x3b8;" horiz-adv-x="620" 
d="M310 750q114 0 185 -103.5t71 -276.5t-71 -276.5t-185 -103.5t-185 103.5t-71 276.5t71 276.5t185 103.5zM310 681q-75 0 -123.5 -74t-54.5 -203h356q-6 129 -54.5 203t-123.5 74zM310 60q75 0 123.5 74t54.5 202h-356q6 -128 54.5 -202t123.5 -74z" />
    <glyph glyph-name="iota" unicode="&#x3b9;" horiz-adv-x="267" 
d="M64 175v331h75v-334q0 -56 24 -80t79 -24h13v-68h-13q-91 0 -134.5 43t-43.5 132z" />
    <glyph glyph-name="kappa" unicode="&#x3ba;" horiz-adv-x="529" 
d="M285 297l240 -297h-97l-194 242l-95 -101v-141h-75v506h75v-267l246 267h96z" />
    <glyph glyph-name="lambda" unicode="&#x3bb;" horiz-adv-x="520" 
d="M233 740l283 -740h-77l-182 476l-171 -476h-82l191 506h50l-89 234h77z" />
    <glyph glyph-name="uni03BC" unicode="&#x3bc;" horiz-adv-x="595" 
d="M455 217v289h75v-506h-75v128q-22 -64 -70.5 -101t-114.5 -37q-78 0 -131 47v-237h-75v706h75v-289q0 -73 40 -115.5t108 -42.5q74 0 121 45t47 113z" />
    <glyph glyph-name="nu" unicode="&#x3bd;" horiz-adv-x="520" 
d="M263 23l176 483h77l-192 -506h-128l-192 506h82z" />
    <glyph glyph-name="xi" unicode="&#x3be;" horiz-adv-x="515" 
d="M304 74q43 -4 70.5 -10t57 -21.5t40.5 -40t8 -68.5t-27 -104l-68 13q14 36 20.5 61.5t2.5 42.5t-11 27t-27.5 16.5t-38.5 9t-52 5.5q-43 4 -78.5 15t-67.5 32.5t-50.5 58.5t-18.5 87q0 79 55.5 129.5t155.5 63.5q-93 12 -142 56t-49 116q0 82 60.5 134.5t149.5 52.5
q84 0 139.5 -41t74.5 -115l-70 -20q-29 107 -143 107q-57 0 -95.5 -36t-38.5 -90q0 -64 48 -99t132 -35h94v-68h-107q-87 0 -137 -37.5t-50 -102.5q0 -63 39.5 -97t123.5 -42z" />
    <glyph glyph-name="omicron" unicode="&#x3bf;" horiz-adv-x="620" 
d="M44 253q0 112 76.5 187.5t189.5 75.5t189.5 -75.5t76.5 -187.5t-76.5 -187.5t-189.5 -75.5t-189.5 75.5t-76.5 187.5zM121 253q0 -82 54.5 -137.5t134.5 -55.5q81 0 135 55t54 138t-54 138t-135 55q-80 0 -134.5 -55.5t-54.5 -137.5z" />
    <glyph glyph-name="pi" unicode="&#x3c0;" horiz-adv-x="648" 
d="M608 68h14v-68h-14q-91 0 -134.5 43t-43.5 132v263h-241v-438h-75v438h-94v68h595v-68h-110v-266q0 -56 24 -80t79 -24z" />
    <glyph glyph-name="rho" unicode="&#x3c1;" horiz-adv-x="638" 
d="M328 516q113 0 189.5 -75.5t76.5 -187.5q0 -113 -68.5 -188t-171.5 -75q-75 0 -132.5 43.5t-82.5 115.5v-349h-75v453q0 112 75.5 187.5t188.5 75.5zM333 60q78 0 131 55.5t53 137.5q0 83 -54 138t-135 55q-80 0 -134.5 -55.5t-54.5 -137.5q0 -83 55 -138t139 -55z" />
    <glyph glyph-name="uni03C2" unicode="&#x3c2;" horiz-adv-x="573" 
d="M472 -170l-67 13q11 27 17 48t6 37t-1.5 27t-12 19.5t-18.5 13t-28 9t-33.5 6.5t-41.5 5q-113 12 -181 75t-68 170q0 112 76.5 187.5t189.5 75.5q82 0 146.5 -42.5t95.5 -115.5l-69 -24q-23 52 -69 82t-104 30q-80 0 -134.5 -55.5t-54.5 -137.5q0 -159 202 -179
q43 -4 70.5 -10t57 -21.5t40.5 -40t8 -68.5t-27 -104z" />
    <glyph glyph-name="sigma" unicode="&#x3c3;" horiz-adv-x="630" 
d="M310 506h300v-70h-188q72 -26 113 -81.5t41 -128.5q0 -101 -76.5 -168.5t-189.5 -67.5t-189.5 74t-76.5 184t76.5 184t189.5 74zM499 244q0 84 -54 138t-135 54t-135 -53.5t-54 -134.5t54 -134.5t135 -53.5t135 53t54 131z" />
    <glyph glyph-name="tau" unicode="&#x3c4;" horiz-adv-x="486" 
d="M463 506v-68h-182v-266q0 -56 23.5 -80t78.5 -24h14v-68h-14q-91 0 -134 43t-43 132v263h-182v68h439z" />
    <glyph glyph-name="upsilon" unicode="&#x3c5;" horiz-adv-x="565" 
d="M59 207v299h75v-299q0 -65 42 -106t106 -41t106 41t42 106v299h75v-299q0 -96 -63 -156.5t-160 -60.5t-160 60.5t-63 156.5z" />
    <glyph glyph-name="phi" unicode="&#x3c6;" horiz-adv-x="689" 
d="M645 253q0 -112 -75 -186.5t-188 -76.5v-190h-75v190q-113 2 -188 76.5t-75 186.5q0 111 75 186t188 77v171l75 23v-194q112 -2 187.5 -77t75.5 -186zM121 253q0 -82 53 -136.5t133 -56.5v386q-80 -2 -133 -56.5t-53 -136.5zM382 446v-386q80 1 133 56t53 137t-53 137
t-133 56z" />
    <glyph glyph-name="chi" unicode="&#x3c7;" horiz-adv-x="512" 
d="M413 506h82l-197 -351l197 -355h-85l-155 284l-156 -284h-82l197 351l-197 355h85l155 -284z" />
    <glyph glyph-name="psi" unicode="&#x3c8;" horiz-adv-x="682" 
d="M548 214v292h75v-292q0 -102 -66.5 -163t-177.5 -61v-190h-75v190q-112 0 -178.5 61t-66.5 163v292h75v-292q0 -71 45.5 -112.5t124.5 -41.5v627l75 23v-650q79 0 124 41.5t45 112.5z" />
    <glyph glyph-name="omega" unicode="&#x3c9;" horiz-adv-x="772" 
d="M510 451l23 65q87 -28 136 -101.5t49 -185.5q0 -107 -48.5 -173t-130.5 -66q-63 0 -105 48.5t-49 140.5q-8 -93 -49.5 -141t-104.5 -48q-80 0 -128.5 66t-48.5 173q0 112 49 185.5t136 101.5l23 -65q-131 -49 -131 -224q0 -78 31 -122.5t81 -44.5q53 0 79 53t26 143v91
h75v-91q0 -90 26 -143t80 -53q50 0 81 44.5t31 122.5q0 175 -131 224z" />
    <glyph glyph-name="iotadieresis" unicode="&#x3ca;" horiz-adv-x="267" 
d="M-30 656q0 20 13.5 34t33.5 14t34 -14t14 -34t-14 -33.5t-34 -13.5q-19 0 -33 13.5t-14 33.5zM139 656q0 20 13.5 34t33.5 14t34 -14t14 -34q0 -19 -14 -33t-34 -14t-33.5 13.5t-13.5 33.5zM64 175v331h75v-334q0 -56 24 -80t79 -24h13v-68h-13q-91 0 -134.5 43
t-43.5 132z" />
    <glyph glyph-name="upsilondieresis" unicode="&#x3cb;" horiz-adv-x="565" 
d="M129 656q0 20 14 34t34 14t33.5 -14t13.5 -34t-14 -33.5t-33 -13.5q-20 0 -34 13.5t-14 33.5zM341 656q0 20 13.5 34t33.5 14t34 -14t14 -34t-14 -33.5t-34 -13.5t-33.5 13.5t-13.5 33.5zM59 207v299h75v-299q0 -65 42 -106t106 -41t106 41t42 106v299h75v-299
q0 -96 -63 -156.5t-160 -60.5t-160 60.5t-63 156.5z" />
    <glyph glyph-name="omicrontonos" unicode="&#x3cc;" horiz-adv-x="620" 
d="M324 576h-71l80 160h77zM44 253q0 112 76.5 187.5t189.5 75.5t189.5 -75.5t76.5 -187.5t-76.5 -187.5t-189.5 -75.5t-189.5 75.5t-76.5 187.5zM121 253q0 -82 54.5 -137.5t134.5 -55.5q81 0 135 55t54 138t-54 138t-135 55q-80 0 -134.5 -55.5t-54.5 -137.5z" />
    <glyph glyph-name="upsilontonos" unicode="&#x3cd;" horiz-adv-x="565" 
d="M296 576h-71l80 160h77zM59 207v299h75v-299q0 -65 42 -106t106 -41t106 41t42 106v299h75v-299q0 -96 -63 -156.5t-160 -60.5t-160 60.5t-63 156.5z" />
    <glyph glyph-name="omegatonos" unicode="&#x3ce;" horiz-adv-x="772" 
d="M408 736h77l-86 -160h-71zM510 451l23 65q87 -28 136 -101.5t49 -185.5q0 -107 -48.5 -173t-130.5 -66q-63 0 -105 48.5t-49 140.5q-8 -93 -49.5 -141t-104.5 -48q-80 0 -128.5 66t-48.5 173q0 112 49 185.5t136 101.5l23 -65q-131 -49 -131 -224q0 -78 31 -122.5
t81 -44.5q53 0 79 53t26 143v91h75v-91q0 -90 26 -143t80 -53q50 0 81 44.5t31 122.5q0 175 -131 224z" />
    <glyph glyph-name="uni0400" unicode="&#x400;" horiz-adv-x="542" 
d="M353 749h-89l-155 151h95zM495 0h-431v700h431v-71h-353v-244h343v-70h-343v-244h353v-71z" />
    <glyph glyph-name="uni0401" unicode="&#x401;" horiz-adv-x="542" 
d="M114 825q0 20 14 34t34 14q19 0 33 -14t14 -34q0 -19 -13.5 -33t-33.5 -14t-34 13.5t-14 33.5zM333 825q0 20 14 34t33 14q20 0 34 -14t14 -34t-14 -33.5t-34 -13.5t-33.5 14t-13.5 33zM495 0h-431v700h431v-71h-353v-244h343v-70h-343v-244h353v-71z" />
    <glyph glyph-name="uni0402" unicode="&#x402;" horiz-adv-x="739" 
d="M472 430q102 0 166 -59.5t64 -161.5q0 -99 -59.5 -159t-154.5 -60q-60 0 -113 22l14 70q43 -21 91 -21q64 0 103 40t39 108q0 71 -44 110.5t-121 39.5q-68 0 -152 -32v-327h-78v629h-217v71h552v-71h-257v-230q88 31 167 31z" />
    <glyph glyph-name="uni0403" unicode="&#x403;" horiz-adv-x="505" 
d="M286 749h-89l149 151h95zM142 0h-78v700h431v-71h-353v-629z" />
    <glyph glyph-name="uni0404" unicode="&#x404;" horiz-adv-x="771" 
d="M407 62q83 0 149.5 44.5t99.5 115.5l71 -30q-39 -87 -124 -144.5t-196 -57.5q-154 0 -258.5 104t-104.5 256t104.5 256t258.5 104q111 0 196 -57.5t124 -144.5l-71 -30q-33 71 -99.5 115.5t-149.5 44.5q-110 0 -189.5 -72t-91.5 -181h340v-70h-340q12 -109 91.5 -181
t189.5 -72z" />
    <glyph glyph-name="uni0405" unicode="&#x405;" horiz-adv-x="609" 
d="M51 180l78 16q10 -65 57.5 -100.5t125.5 -35.5q74 0 120 34t46 87q0 39 -22.5 66t-58.5 42t-79.5 26.5t-87.5 26t-80 34.5t-58.5 57t-22.5 89q0 81 66.5 134.5t167.5 53.5t167.5 -53t79.5 -137l-79 -16q-9 61 -54.5 99t-114.5 38q-67 0 -110 -33t-43 -83
q0 -38 22.5 -63.5t58.5 -39t80 -25t87.5 -26t79.5 -35.5t58.5 -59.5t22.5 -93.5q0 -84 -71 -138.5t-177 -54.5q-107 0 -177 51t-82 139z" />
    <glyph glyph-name="uni0406" unicode="&#x406;" horiz-adv-x="206" 
d="M142 0h-78v700h78v-700z" />
    <glyph glyph-name="uni0407" unicode="&#x407;" horiz-adv-x="206" 
d="M-35 825q0 20 14 34t33 14q20 0 34 -14t14 -34t-14 -33.5t-34 -13.5t-33.5 14t-13.5 33zM146 825q0 19 14 33.5t34 14.5q19 0 33 -14t14 -34q0 -19 -13.5 -33t-33.5 -14t-34 14t-14 33zM142 0h-78v700h78v-700z" />
    <glyph glyph-name="uni0408" unicode="&#x408;" horiz-adv-x="513" 
d="M28 180l78 11q4 -63 42 -96t95 -33q65 0 101.5 43.5t36.5 111.5v483h78v-483q0 -101 -59.5 -164t-157.5 -63q-89 0 -148 50.5t-66 139.5z" />
    <glyph glyph-name="uni0409" unicode="&#x409;" horiz-adv-x="1082" 
d="M16 -6h-6v70h9q48 0 75 19.5t43.5 83.5t16.5 183v350h494v-283h175q99 0 162 -59.5t63 -148.5t-63 -149t-162 -60h-253v629h-341v-279q0 -107 -13.5 -178t-42 -109.5t-65.5 -53.5t-92 -15zM648 346v-275h175q64 0 104.5 39t40.5 98t-40.5 98.5t-104.5 39.5h-175z" />
    <glyph glyph-name="uni040A" unicode="&#x40a;" horiz-adv-x="1073" 
d="M142 0h-78v700h78v-315h419v315h78v-297h176q98 0 161 -57.5t63 -143.5t-63 -144t-161 -58h-254v315h-419v-315zM639 332v-261h176q63 0 103.5 37t40.5 93t-40.5 93.5t-103.5 37.5h-176z" />
    <glyph glyph-name="uni040B" unicode="&#x40b;" horiz-adv-x="796" 
d="M517 463q96 0 158 -67.5t62 -171.5v-224h-78v217q0 76 -49.5 126.5t-122.5 50.5q-79 0 -130.5 -50t-51.5 -127v-217h-78v629h-217v71h552v-71h-257v-316q24 70 81 110t131 40z" />
    <glyph glyph-name="uni040C" unicode="&#x40c;" horiz-adv-x="643" 
d="M389 900h95l-155 -151h-89zM606 700l-251 -344l271 -356h-95l-243 315h-146v-315h-78v700h78v-315h146l231 315h87z" />
    <glyph glyph-name="uni040D" unicode="&#x40d;" horiz-adv-x="719" 
d="M292 900l149 -151h-89l-155 151h95zM142 17l362 683h151v-700h-78v684l-362 -684h-151v700h78v-683z" />
    <glyph glyph-name="uni040E" unicode="&#x40e;" horiz-adv-x="620" 
d="M311 750q-71 0 -117 40t-51 110h68q5 -43 31 -68t69 -25q42 0 68 25t31 68h68q-5 -70 -51 -110t-116 -40zM316 303l220 397h80l-388 -700h-80l123 222l-257 478h88z" />
    <glyph glyph-name="uni040F" unicode="&#x40f;" horiz-adv-x="713" 
d="M318 0h-254v700h78v-629h429v629h78v-700h-254v-160h-77v160z" />
    <glyph glyph-name="uni0410" unicode="&#x410;" horiz-adv-x="719" 
d="M705 0h-84l-73 186h-380l-73 -186h-81l277 700h137zM358 674l-163 -417h326z" />
    <glyph glyph-name="uni0411" unicode="&#x411;" horiz-adv-x="589" 
d="M329 0h-265v700h434v-71h-356v-224h187q98 0 159 -57.5t61 -144.5t-61 -145t-159 -58zM142 335v-264h187q62 0 101.5 37.5t39.5 93.5q0 57 -39.5 95t-101.5 38h-187z" />
    <glyph glyph-name="uni0412" unicode="&#x412;" horiz-adv-x="622" 
d="M398 353q80 -7 128.5 -52.5t48.5 -116.5q0 -78 -56.5 -131t-144.5 -53h-310v700h280q88 0 144.5 -53t56.5 -131q0 -64 -39.5 -107t-107.5 -56zM339 631h-198v-247h198q58 0 95 35.5t37 88.5q0 52 -37 87.5t-95 35.5zM141 69h224q57 0 94 36t37 88q0 53 -37 88t-94 35
h-224v-247z" />
    <glyph glyph-name="uni0413" unicode="&#x413;" horiz-adv-x="505" 
d="M142 0h-78v700h431v-71h-353v-629z" />
    <glyph glyph-name="uni0414" unicode="&#x414;" horiz-adv-x="759" 
d="M655 700v-629h87v-231h-78v160h-574v-160h-78v231h71q45 62 61.5 145t16.5 234v250h494zM170 71h407v558h-341v-179q0 -149 -14 -233.5t-52 -145.5z" />
    <glyph glyph-name="uni0415" unicode="&#x415;" horiz-adv-x="542" 
d="M495 0h-431v700h431v-71h-353v-244h343v-70h-343v-244h353v-71z" />
    <glyph glyph-name="uni0416" unicode="&#x416;" horiz-adv-x="978" 
d="M931 700l-207 -345l227 -355h-94l-201 315h-128v-315h-78v315h-128l-204 -315h-91l226 353l-206 347h87l188 -315h128v315h78v-315h128l188 315h87z" />
    <glyph glyph-name="uni0417" unicode="&#x417;" horiz-adv-x="602" 
d="M361 351q97 -13 145.5 -60.5t48.5 -109.5q0 -88 -73.5 -139.5t-178.5 -51.5q-77 0 -147.5 27.5t-118.5 81.5l48 55q43 -45 101.5 -68.5t116.5 -23.5q75 0 124 35.5t49 92.5q0 63 -54 94t-147 31h-84v70h84q93 0 147 31t54 94q0 57 -49 92.5t-124 35.5q-58 0 -116.5 -23.5
t-101.5 -68.5l-48 55q48 54 118.5 81.5t147.5 27.5q105 0 178.5 -51.5t73.5 -139.5q0 -62 -48.5 -108t-145.5 -60z" />
    <glyph glyph-name="uni0418" unicode="&#x418;" horiz-adv-x="719" 
d="M142 17l362 683h151v-700h-78v684l-362 -684h-151v700h78v-683z" />
    <glyph glyph-name="uni0419" unicode="&#x419;" horiz-adv-x="719" 
d="M360 750q-71 0 -117 40t-51 110h68q5 -43 31 -68t69 -25q42 0 68 25t31 68h68q-5 -70 -51 -110t-116 -40zM142 17l362 683h151v-700h-78v684l-362 -684h-151v700h78v-683z" />
    <glyph glyph-name="uni041A" unicode="&#x41a;" horiz-adv-x="643" 
d="M606 700l-251 -344l271 -356h-95l-243 315h-146v-315h-78v700h78v-315h146l231 315h87z" />
    <glyph glyph-name="uni041B" unicode="&#x41b;" horiz-adv-x="722" 
d="M16 -6h-6v70h9q48 0 75 19.5t43.5 83.5t16.5 183v350h504v-700h-78v629h-351v-279q0 -107 -13.5 -178t-42 -109.5t-65.5 -53.5t-92 -15z" />
    <glyph glyph-name="uni041C" unicode="&#x41c;" horiz-adv-x="842" 
d="M772 700v-700h-75v681l-210 -681h-138l-210 684v-684h-75v700h147l208 -677l208 677h145z" />
    <glyph glyph-name="uni041D" unicode="&#x41d;" horiz-adv-x="713" 
d="M142 0h-78v700h78v-315h429v315h78v-700h-78v315h-429v-315z" />
    <glyph glyph-name="uni041E" unicode="&#x41e;" horiz-adv-x="814" 
d="M44 350q0 152 104.5 256t258.5 104t258.5 -104t104.5 -256t-104.5 -256t-258.5 -104t-258.5 104t-104.5 256zM124 350q0 -121 82 -204.5t201 -83.5q120 0 201.5 83t81.5 205t-81.5 205t-201.5 83q-119 0 -201 -83.5t-82 -204.5z" />
    <glyph glyph-name="uni041F" unicode="&#x41f;" horiz-adv-x="713" 
d="M142 0h-78v700h585v-700h-78v629h-429v-629z" />
    <glyph glyph-name="uni0420" unicode="&#x420;" horiz-adv-x="569" 
d="M142 0h-78v700h264q99 0 161.5 -59.5t62.5 -149.5q0 -89 -62.5 -148.5t-161.5 -59.5h-186v-283zM142 629v-275h186q63 0 103.5 39.5t40.5 98.5t-40.5 98t-103.5 39h-186z" />
    <glyph glyph-name="uni0421" unicode="&#x421;" horiz-adv-x="771" 
d="M44 350q0 152 104.5 256t258.5 104q111 0 196 -57.5t124 -144.5l-71 -30q-33 71 -99.5 115.5t-149.5 44.5q-119 0 -201 -83.5t-82 -204.5t82 -204.5t201 -83.5q83 0 149.5 44.5t99.5 115.5l71 -30q-39 -87 -124 -144.5t-196 -57.5q-154 0 -258.5 104t-104.5 256z" />
    <glyph glyph-name="uni0422" unicode="&#x422;" horiz-adv-x="572" 
d="M325 0h-78v629h-237v71h552v-71h-237v-629z" />
    <glyph glyph-name="uni0423" unicode="&#x423;" horiz-adv-x="620" 
d="M316 303l220 397h80l-388 -700h-80l123 222l-257 478h88z" />
    <glyph glyph-name="uni0424" unicode="&#x424;" horiz-adv-x="853" 
d="M465 656h7q148 0 242.5 -86t94.5 -220t-94.5 -220t-242.5 -86h-7v-84h-78v84h-7q-148 0 -242 86t-94 220t94 220t242 86h7v84h78v-84zM380 114h7v472h-7q-114 0 -186 -66t-72 -170t72 -170t186 -66zM465 114h7q114 0 186.5 66t72.5 170t-72 170t-187 66h-7v-472z" />
    <glyph glyph-name="uni0425" unicode="&#x425;" horiz-adv-x="647" 
d="M539 700h94l-262 -349l262 -351h-96l-214 290l-215 -290h-94l262 349l-262 351h96l215 -289z" />
    <glyph glyph-name="uni0426" unicode="&#x426;" horiz-adv-x="753" 
d="M658 0h-594v700h78v-629h429v629h78v-629h87v-231h-78v160z" />
    <glyph glyph-name="uni0427" unicode="&#x427;" horiz-adv-x="643" 
d="M501 349v351h78v-700h-78v279q-121 -26 -197 -26q-144 0 -207 60t-63 194v193h78v-193q0 -99 45.5 -141t153.5 -42q73 0 190 25z" />
    <glyph glyph-name="uni0428" unicode="&#x428;" horiz-adv-x="949" 
d="M885 0h-821v700h78v-629h293v629h78v-629h294v629h78v-700z" />
    <glyph glyph-name="uni0429" unicode="&#x429;" horiz-adv-x="989" 
d="M894 0h-830v700h78v-629h293v629h78v-629h294v629h78v-629h87v-231h-78v160z" />
    <glyph glyph-name="uni042A" unicode="&#x42a;" horiz-adv-x="703" 
d="M191 629h-181v71h259v-283h175q99 0 162 -59.5t63 -148.5t-63 -149t-162 -60h-253v629zM269 346v-275h175q64 0 104.5 39t40.5 98t-40.5 98.5t-104.5 39.5h-175z" />
    <glyph glyph-name="uni042B" unicode="&#x42b;" horiz-adv-x="748" 
d="M318 0h-254v700h78v-283h176q99 0 161.5 -59.5t62.5 -148.5q0 -90 -62.5 -149.5t-161.5 -59.5zM684 0h-78v700h78v-700zM142 346v-275h176q63 0 103.5 39t40.5 98t-40.5 98.5t-103.5 39.5h-176z" />
    <glyph glyph-name="uni042C" unicode="&#x42c;" horiz-adv-x="586" 
d="M328 0h-264v700h78v-283h186q99 0 161.5 -59.5t62.5 -148.5q0 -90 -62.5 -149.5t-161.5 -59.5zM142 346v-275h186q63 0 103.5 39t40.5 98t-40.5 98.5t-103.5 39.5h-186z" />
    <glyph glyph-name="uni042D" unicode="&#x42d;" horiz-adv-x="771" 
d="M364 710q154 0 258.5 -104t104.5 -256t-104.5 -256t-258.5 -104q-110 0 -195.5 58t-124.5 144l72 30q32 -71 98.5 -115.5t149.5 -44.5q111 0 190.5 72t91.5 181h-341v70h341q-12 109 -91.5 181t-190.5 72q-83 0 -149.5 -44.5t-98.5 -115.5l-72 30q39 86 124.5 144
t195.5 58z" />
    <glyph glyph-name="uni042E" unicode="&#x42e;" horiz-adv-x="1050" 
d="M654 710q149 0 250.5 -104t101.5 -256t-101.5 -256t-250.5 -104q-139 0 -238 92.5t-111 232.5h-163v-315h-78v700h78v-315h163q12 140 111 232.5t238 92.5zM653 62q115 0 194 83t79 205t-79 205t-194 83t-194 -83t-79 -205t79 -205t194 -83z" />
    <glyph glyph-name="uni042F" unicode="&#x42f;" horiz-adv-x="610" 
d="M267 700h279v-700h-78v294h-138l-204 -294h-92l206 295q-84 9 -136.5 66t-52.5 137q0 86 61 144t155 58zM267 367h201v262h-201q-60 0 -98.5 -37.5t-38.5 -93.5t38.5 -93.5t98.5 -37.5z" />
    <glyph glyph-name="uni0430" unicode="&#x430;" horiz-adv-x="523" 
d="M269 516q86 0 140 -45.5t54 -127.5v-343h-75v138q-51 -148 -198 -148q-69 0 -112.5 38t-43.5 101q0 68 49.5 105t128.5 45l113 13q63 6 63 58q0 47 -33 74t-87 27t-93 -27t-53 -83l-73 20q18 75 77.5 115t142.5 40zM209 53q77 0 128 51.5t51 120.5v42q-14 -30 -68 -36
l-109 -12q-46 -6 -74 -27.5t-28 -58.5q0 -36 27.5 -58t72.5 -22z" />
    <glyph glyph-name="uni0431" unicode="&#x431;" horiz-adv-x="617" 
d="M337 496q100 0 168 -72.5t68 -177.5q0 -110 -74 -183t-185 -73q-112 0 -186 75t-74 194q0 181 37 277t124 139q55 27 164 43.5t164 31.5v-70q-39 -12 -147.5 -29t-147.5 -36q-110 -54 -116 -266q17 54 74 100.5t131 46.5zM314 60q78 0 130 52t52 131t-51 132t-126 53
q-81 0 -134 -52.5t-53 -132.5q0 -79 52 -131t130 -52z" />
    <glyph glyph-name="uni0432" unicode="&#x432;" horiz-adv-x="541" 
d="M359 255q65 -7 99.5 -39t34.5 -85q0 -58 -45 -94.5t-115 -36.5h-269v506h245q70 0 116 -37t46 -94q0 -46 -29.5 -77.5t-82.5 -42.5zM306 441h-170v-156h170q40 0 65.5 22.5t25.5 56.5q0 33 -25.5 55t-65.5 22zM136 65h194q39 0 64.5 22t25.5 56q0 33 -25.5 55.5
t-64.5 22.5h-194v-156z" />
    <glyph glyph-name="uni0433" unicode="&#x433;" horiz-adv-x="420" 
d="M139 0h-75v506h346v-68h-271v-438z" />
    <glyph glyph-name="uni0434" unicode="&#x434;" horiz-adv-x="608" 
d="M521 506v-438h70v-211h-72v143h-435v-143h-72v211h56q34 43 47 97.5t13 158.5v182h393zM149 68h297v370h-246v-114q0 -103 -11 -159.5t-40 -96.5z" />
    <glyph glyph-name="uni0435" unicode="&#x435;" horiz-adv-x="610" 
d="M305 516q117 0 192.5 -82.5t66.5 -203.5h-445q8 -76 61.5 -124.5t130.5 -48.5q59 0 105 29t70 79l64 -27q-32 -67 -95 -107.5t-145 -40.5q-113 0 -189.5 75.5t-76.5 187.5t75 187.5t186 75.5zM305 449q-69 0 -120 -44t-64 -113h367q-11 68 -61.5 112.5t-121.5 44.5z" />
    <glyph glyph-name="uni0436" unicode="&#x436;" horiz-adv-x="768" 
d="M739 506l-159 -248l174 -258h-89l-151 219h-92v-219h-75v219h-92l-154 -219h-87l174 256l-158 250h83l142 -219h92v219h75v-219h92l142 219h83z" />
    <glyph glyph-name="uni0437" unicode="&#x437;" horiz-adv-x="490" 
d="M291 253q77 -8 114.5 -42t37.5 -79q0 -65 -58.5 -103.5t-144.5 -38.5q-61 0 -118 21.5t-95 61.5l44 51q33 -33 79.5 -50t89.5 -17q57 0 91.5 23.5t34.5 59.5q0 81 -146 81h-68v64h68q146 0 146 81q0 36 -34.5 59.5t-91.5 23.5q-43 0 -89.5 -17t-79.5 -50l-44 51
q38 40 95 61.5t118 21.5q86 0 144.5 -38.5t58.5 -103.5q0 -45 -37.5 -78.5t-114.5 -42.5z" />
    <glyph glyph-name="uni0438" unicode="&#x438;" horiz-adv-x="597" 
d="M136 16l258 490h139v-506h-72v490l-258 -490h-139v506h72v-490z" />
    <glyph glyph-name="uni0439" unicode="&#x439;" horiz-adv-x="597" 
d="M299 577q-65 0 -105.5 42.5t-40.5 113.5h65q0 -45 22 -71.5t59 -26.5q38 0 59.5 26.5t21.5 71.5h65q0 -71 -40.5 -113.5t-105.5 -42.5zM136 16l258 490h139v-506h-72v490l-258 -490h-139v506h72v-490z" />
    <glyph glyph-name="uni043A" unicode="&#x43a;" horiz-adv-x="536" 
d="M503 506l-193 -248l209 -258h-92l-182 219h-106v-219h-75v506h75v-219h106l175 219h83z" />
    <glyph glyph-name="uni043B" unicode="&#x43b;" horiz-adv-x="599" 
d="M26 -6h-6v67h9q36 0 56 11.5t33.5 54.5t13.5 126v253h403v-506h-75v438h-256v-185q0 -141 -40 -200t-138 -59z" />
    <glyph glyph-name="uni043C" unicode="&#x43c;" horiz-adv-x="695" 
d="M631 506v-506h-69v490l-152 -490h-125l-152 490v-490h-69v506h134l150 -485l149 485h134z" />
    <glyph glyph-name="uni043D" unicode="&#x43d;" horiz-adv-x="595" 
d="M139 0h-75v506h75v-219h316v219h75v-506h-75v219h-316v-219z" />
    <glyph glyph-name="uni043E" unicode="&#x43e;" horiz-adv-x="620" 
d="M44 253q0 112 76.5 187.5t189.5 75.5t189.5 -75.5t76.5 -187.5t-76.5 -187.5t-189.5 -75.5t-189.5 75.5t-76.5 187.5zM121 253q0 -82 54.5 -137.5t134.5 -55.5q81 0 135 55t54 138t-54 138t-135 55q-80 0 -134.5 -55.5t-54.5 -137.5z" />
    <glyph glyph-name="uni043F" unicode="&#x43f;" horiz-adv-x="585" 
d="M139 0h-75v506h456v-506h-75v438h-306v-438z" />
    <glyph glyph-name="uni0440" unicode="&#x440;" horiz-adv-x="638" 
d="M354 516q103 0 171.5 -75.5t68.5 -187.5q0 -113 -68.5 -188t-171.5 -75q-75 0 -132.5 43.5t-82.5 115.5v-349h-75v706h75v-150q25 73 82.5 116.5t132.5 43.5zM333 60q78 0 131 55.5t53 137.5t-53 137.5t-131 55.5q-84 0 -139 -55t-55 -138t55 -138t139 -55z" />
    <glyph glyph-name="uni0441" unicode="&#x441;" horiz-adv-x="593" 
d="M44 253q0 112 76.5 187.5t189.5 75.5q82 0 146.5 -42.5t95.5 -115.5l-69 -24q-23 52 -69 82t-104 30q-80 0 -134.5 -55.5t-54.5 -137.5t54.5 -137.5t134.5 -55.5q58 0 104 30t69 82l69 -24q-31 -73 -95.5 -115.5t-146.5 -42.5q-113 0 -189.5 75.5t-76.5 187.5z" />
    <glyph glyph-name="uni0442" unicode="&#x442;" horiz-adv-x="486" 
d="M281 0h-75v438h-182v68h439v-68h-182v-438z" />
    <glyph glyph-name="uni0443" unicode="&#x443;" horiz-adv-x="520" 
d="M260 22l179 484h77l-262 -706h-77l75 200h-59l-189 506h82z" />
    <glyph glyph-name="uni0444" unicode="&#x444;" horiz-adv-x="689" 
d="M645 253q0 -112 -75 -186.5t-188 -76.5v-190h-75v190q-113 2 -188 76.5t-75 186.5q0 111 75 186t188 77v224h75v-224q112 -2 187.5 -77t75.5 -186zM121 253q0 -82 53 -136.5t133 -56.5v386q-80 -2 -133 -56.5t-53 -136.5zM382 446v-386q80 2 133 56.5t53 136.5t-53 136.5
t-133 56.5z" />
    <glyph glyph-name="uni0445" unicode="&#x445;" horiz-adv-x="512" 
d="M406 506h89l-193 -252l193 -254h-93l-147 200l-149 -200h-89l193 252l-193 254h94l146 -199z" />
    <glyph glyph-name="uni0446" unicode="&#x446;" horiz-adv-x="617" 
d="M528 0h-464v506h75v-438h316v438h75v-438h70v-211h-72v143z" />
    <glyph glyph-name="uni0447" unicode="&#x447;" horiz-adv-x="535" 
d="M395 259v247h75v-506h-75v192q-83 -17 -148 -17q-119 0 -166 47t-47 143v141h75v-141q0 -63 31 -92.5t114 -29.5q61 0 141 16z" />
    <glyph glyph-name="uni0448" unicode="&#x448;" horiz-adv-x="780" 
d="M716 0h-652v506h75v-438h214v438h74v-438h214v438h75v-506z" />
    <glyph glyph-name="uni0449" unicode="&#x449;" horiz-adv-x="803" 
d="M713 0h-649v506h75v-438h214v438h74v-438h214v438h75v-438h70v-211h-73v143z" />
    <glyph glyph-name="uni044A" unicode="&#x44a;" horiz-adv-x="579" 
d="M370 0h-220v438h-140v68h215v-175h145q79 0 128.5 -47t49.5 -119q0 -71 -49.5 -118t-128.5 -47zM225 263v-195h139q48 0 78 27.5t30 69.5q0 43 -30 70.5t-78 27.5h-139z" />
    <glyph glyph-name="uni044B" unicode="&#x44b;" horiz-adv-x="656" 
d="M284 0h-220v506h75v-175h145q79 0 129 -47t50 -119q0 -71 -50 -118t-129 -47zM592 0h-75v506h75v-506zM139 263v-195h139q48 0 78 27.5t30 69.5q0 43 -30 70.5t-78 27.5h-139z" />
    <glyph glyph-name="uni044C" unicode="&#x44c;" horiz-adv-x="507" 
d="M294 0h-230v506h75v-175h155q79 0 129 -47t50 -119q0 -71 -50 -118t-129 -47zM139 263v-195h149q48 0 78 27.5t30 69.5q0 43 -30 70.5t-78 27.5h-149z" />
    <glyph glyph-name="uni044D" unicode="&#x44d;" horiz-adv-x="593" 
d="M283 516q114 0 190 -75.5t76 -187.5q0 -113 -76 -188t-190 -75q-82 0 -146.5 42.5t-95.5 115.5l67 23q23 -51 69.5 -82.5t105.5 -31.5q74 0 126.5 46t63.5 118h-236v64h236q-11 72 -63.5 118t-126.5 46q-59 0 -105 -30.5t-70 -83.5l-67 23q31 73 95.5 115.5t146.5 42.5z
" />
    <glyph glyph-name="uni044E" unicode="&#x44e;" horiz-adv-x="795" 
d="M495 516q109 0 182 -75.5t73 -187.5t-73 -187.5t-182 -75.5q-101 0 -172 64.5t-82 164.5h-102v-219h-75v506h75v-219h102q11 100 82 164.5t172 64.5zM493 60q77 0 129 55.5t52 137.5t-52 137.5t-129 55.5t-128.5 -55.5t-51.5 -137.5t51.5 -137.5t128.5 -55.5z" />
    <glyph glyph-name="uni044F" unicode="&#x44f;" horiz-adv-x="538" 
d="M222 506h252v-506h-75v200h-115l-152 -200h-88l154 201q-63 7 -101.5 49.5t-38.5 102.5q0 66 46 109.5t118 43.5zM225 268h174v170h-174q-40 0 -65.5 -24.5t-25.5 -60.5t25.5 -60.5t65.5 -24.5z" />
    <glyph glyph-name="uni0450" unicode="&#x450;" horiz-adv-x="610" 
d="M253 736l110 -160h-79l-116 160h85zM305 516q117 0 192.5 -82.5t66.5 -203.5h-445q8 -76 61.5 -124.5t130.5 -48.5q59 0 105 29t70 79l64 -27q-32 -67 -95 -107.5t-145 -40.5q-113 0 -189.5 75.5t-76.5 187.5t75 187.5t186 75.5zM305 449q-69 0 -120 -44t-64 -113h367
q-11 68 -61.5 112.5t-121.5 44.5z" />
    <glyph glyph-name="uni0451" unicode="&#x451;" horiz-adv-x="610" 
d="M200 609q-20 0 -34 13.5t-14 33.5t14 34t34 14t33.5 -14t13.5 -34t-13.5 -33.5t-33.5 -13.5zM411 609q-19 0 -33 13.5t-14 33.5t13.5 34t33.5 14t34 -14t14 -34t-14 -33.5t-34 -13.5zM305 516q117 0 192.5 -82.5t66.5 -203.5h-445q8 -76 61.5 -124.5t130.5 -48.5
q59 0 105 29t70 79l64 -27q-32 -67 -95 -107.5t-145 -40.5q-113 0 -189.5 75.5t-76.5 187.5t75 187.5t186 75.5zM305 449q-69 0 -120 -44t-64 -113h367q-11 68 -61.5 112.5t-121.5 44.5z" />
    <glyph glyph-name="uni0452" unicode="&#x452;" horiz-adv-x="592" 
d="M336 476q89 0 146.5 -62t57.5 -156v-243q0 -95 -56.5 -160t-149.5 -65q-40 0 -74 10l13 67q30 -8 58 -8q63 0 98.5 45t35.5 108v237q0 67 -44 112.5t-109 45.5q-71 0 -117 -45t-46 -113v-249h-75v576h-81v61h81v103h75v-103h171v-61h-171v-240q21 64 71 102t116 38z" />
    <glyph glyph-name="uni0453" unicode="&#x453;" horiz-adv-x="420" 
d="M259 576h-79l110 160h85zM139 0h-75v506h346v-68h-271v-438z" />
    <glyph glyph-name="uni0454" unicode="&#x454;" horiz-adv-x="593" 
d="M310 57q59 0 105.5 31.5t69.5 82.5l67 -23q-31 -73 -95.5 -115.5t-146.5 -42.5q-113 0 -189.5 75.5t-76.5 187.5t76.5 187.5t189.5 75.5q82 0 146.5 -42.5t95.5 -115.5l-67 -23q-23 52 -69.5 83t-105.5 31q-73 0 -126 -46t-64 -118h237v-64h-237q11 -72 64 -118t126 -46z
" />
    <glyph glyph-name="uni0455" unicode="&#x455;" horiz-adv-x="482" 
d="M34 131l76 15q16 -93 131 -93q58 0 94.5 23.5t36.5 60.5q0 38 -33.5 58t-80.5 28.5t-94.5 19t-81 41.5t-33.5 85q0 64 54 105.5t138 41.5q82 0 134 -38t64 -103l-75 -15q-17 92 -123 92q-51 0 -84 -22t-33 -58q0 -35 33.5 -53.5t81 -26.5t95 -19.5t81 -44.5t33.5 -89
q0 -65 -59 -107t-148 -42q-86 0 -140.5 38t-66.5 103z" />
    <glyph glyph-name="uni0456" unicode="&#x456;" horiz-adv-x="203" 
d="M53 656q0 21 14 35t35 14q20 0 34.5 -14t14.5 -35q0 -20 -14.5 -34t-34.5 -14q-21 0 -35 14t-14 34zM139 0h-75v506h75v-506z" />
    <glyph glyph-name="uni0457" unicode="&#x457;" horiz-adv-x="203" 
d="M-30 656q0 20 13.5 34t33.5 14t34 -14t14 -34t-14 -33.5t-34 -13.5q-19 0 -33 13.5t-14 33.5zM139 656q0 20 13.5 34t33.5 14t34 -14t14 -34q0 -19 -14 -33t-34 -14t-33.5 13.5t-13.5 33.5zM139 0h-75v506h75v-506z" />
    <glyph glyph-name="uni0458" unicode="&#x458;" horiz-adv-x="223" 
d="M73 656q0 21 14 35t35 14q20 0 34.5 -14t14.5 -35q0 -20 -14.5 -34t-34.5 -14q-21 0 -35 14t-14 34zM-11 -206v67q54 -2 74.5 18t20.5 74v553h75v-553q0 -169 -170 -159z" />
    <glyph glyph-name="uni0459" unicode="&#x459;" horiz-adv-x="882" 
d="M26 -6h-6v67h9q36 0 56 11.5t33.5 54.5t13.5 126v253h393v-175h145q79 0 128.5 -47t49.5 -119q0 -71 -49.5 -118t-128.5 -47h-220v438h-246v-185q0 -141 -40 -200t-138 -59zM525 263v-195h139q48 0 77.5 27.5t29.5 69.5q0 43 -29.5 70.5t-77.5 27.5h-139z" />
    <glyph glyph-name="uni045A" unicode="&#x45a;" horiz-adv-x="878" 
d="M139 0h-75v506h75v-219h306v219h75v-203h153q76 0 123.5 -43t47.5 -109q0 -65 -47.5 -108t-123.5 -43h-228v219h-306v-219zM520 235v-167h147q44 0 72 23.5t28 59.5t-27.5 60t-72.5 24h-147z" />
    <glyph glyph-name="uni045B" unicode="&#x45b;" horiz-adv-x="600" 
d="M336 476q89 0 146.5 -62t57.5 -156v-258h-75v249q0 67 -44 112.5t-109 45.5q-71 0 -117 -45t-46 -113v-249h-75v576h-81v61h81v103h75v-103h171v-61h-171v-240q21 64 71 102t116 38z" />
    <glyph glyph-name="uni045C" unicode="&#x45c;" horiz-adv-x="536" 
d="M326 736h85l-116 -160h-79zM503 506l-193 -248l209 -258h-92l-182 219h-106v-219h-75v506h75v-219h106l175 219h83z" />
    <glyph glyph-name="uni045D" unicode="&#x45d;" horiz-adv-x="597" 
d="M246 736l110 -160h-79l-116 160h85zM136 16l258 490h139v-506h-72v490l-258 -490h-139v506h72v-490z" />
    <glyph glyph-name="uni045E" unicode="&#x45e;" horiz-adv-x="520" 
d="M260 577q-65 0 -105.5 42.5t-40.5 113.5h65q0 -45 22 -71.5t59 -26.5q38 0 59.5 26.5t21.5 71.5h65q0 -71 -40.5 -113.5t-105.5 -42.5zM260 22l179 484h77l-262 -706h-77l75 200h-59l-189 506h82z" />
    <glyph glyph-name="uni045F" unicode="&#x45f;" horiz-adv-x="585" 
d="M256 0h-192v506h75v-438h306v438h75v-506h-192v-143h-72v143z" />
    <glyph glyph-name="uni0462" unicode="&#x462;" horiz-adv-x="644" 
d="M200 417h186q98 0 161 -59.5t63 -148.5t-63 -149t-161 -60h-264v541h-125v62h125v117h78v-117h165v-62h-165v-124zM200 71h186q63 0 103.5 39t40.5 98t-40.5 98.5t-103.5 39.5h-186v-275z" />
    <glyph glyph-name="uni0463" unicode="&#x463;" horiz-adv-x="576" 
d="M207 331h155q79 0 128.5 -47t49.5 -119q0 -71 -49.5 -118t-128.5 -47h-230v461h-118v62h118v217h75v-217h135v-62h-135v-130zM207 68h149q48 0 78 27.5t30 69.5q0 43 -30 70.5t-78 27.5h-149v-195z" />
    <glyph glyph-name="uni0472" unicode="&#x472;" horiz-adv-x="814" 
d="M407 710q154 0 258.5 -104t104.5 -256t-104.5 -256t-258.5 -104t-258.5 104t-104.5 256t104.5 256t258.5 104zM407 638q-118 0 -199.5 -81.5t-83.5 -200.5q57 67 146 67q54 0 149 -37.5t149 -37.5q55 0 121 28q-10 113 -89.5 187.5t-192.5 74.5zM407 62q118 0 199.5 81.5
t83.5 201.5q-55 -68 -146 -68q-54 0 -149 37.5t-150 37.5q-54 0 -120 -28q10 -113 90 -187.5t192 -74.5z" />
    <glyph glyph-name="uni0473" unicode="&#x473;" horiz-adv-x="620" 
d="M310 516q113 0 189.5 -75.5t76.5 -187.5t-76.5 -187.5t-189.5 -75.5t-189.5 75.5t-76.5 187.5t76.5 187.5t189.5 75.5zM310 449q-80 0 -135 -54.5t-57 -134.5q40 51 100 51q37 0 104.5 -26.5t103.5 -26.5t75 19q-9 75 -62.5 123.5t-128.5 48.5zM310 57q80 0 135 54.5
t57 134.5q-40 -52 -100 -52q-37 0 -104.5 26.5t-103.5 26.5t-75 -19q9 -74 62.5 -122.5t128.5 -48.5z" />
    <glyph glyph-name="uni0474" unicode="&#x474;" horiz-adv-x="780" 
d="M346 24l214 578q16 47 43 73.5t69.5 33t99.5 -22.5l-24 -63q-47 23 -72.5 12.5t-44.5 -60.5l-219 -575h-136l-262 700h83z" />
    <glyph glyph-name="uni0475" unicode="&#x475;" horiz-adv-x="628" 
d="M263 23l143 387q16 46 42.5 73t68.5 33t97 -24l-25 -63q-46 23 -72.5 12.5t-45.5 -59.5l-147 -382h-128l-192 506h82z" />
    <glyph glyph-name="uni0490" unicode="&#x490;" horiz-adv-x="505" 
d="M142 0h-78v700h353v150h78v-221h-353v-629z" />
    <glyph glyph-name="uni0491" unicode="&#x491;" horiz-adv-x="420" 
d="M139 0h-75v506h274v133h72v-201h-271v-438z" />
    <glyph glyph-name="uni0492" unicode="&#x492;" horiz-adv-x="545" 
d="M535 700v-71h-353v-254h193v-62h-193v-313h-78v313h-97v62h97v325h431z" />
    <glyph glyph-name="uni0493" unicode="&#x493;" horiz-adv-x="460" 
d="M450 506v-68h-271v-166h163v-62h-163v-210h-75v210h-90v62h90v234h346z" />
    <glyph glyph-name="uni0494" unicode="&#x494;" horiz-adv-x="613" 
d="M315 430q116 0 187 -84.5t71 -226.5q0 -150 -77 -239.5t-197 -89.5q-45 0 -91 11l13 72q41 -11 78 -11q87 0 141 69t54 185q0 112 -54 176.5t-140 64.5q-69 0 -158 -37v-320h-78v700h431v-71h-353v-239q88 40 173 40z" />
    <glyph glyph-name="uni0495" unicode="&#x495;" horiz-adv-x="510" 
d="M275 294q95 0 152.5 -66.5t57.5 -177.5q0 -117 -63 -188.5t-160 -71.5q-40 0 -74 10l13 67q29 -8 58 -8q65 0 107.5 52t42.5 136q0 82 -40 130t-106 48q-56 0 -124 -29v-196h-75v506h366v-68h-291v-173q71 29 136 29z" />
    <glyph glyph-name="uni0496" unicode="&#x496;" horiz-adv-x="1032" 
d="M724 355l182 -284h109v-231h-78v160h-80l-201 315h-128v-315h-78v315h-128l-204 -315h-91l226 353l-206 347h87l188 -315h128v315h78v-315h128l188 315h87z" />
    <glyph glyph-name="uni0497" unicode="&#x497;" horiz-adv-x="827" 
d="M580 258l128 -190h102v-211h-72v143h-73l-151 219h-92v-219h-75v219h-92l-154 -219h-87l174 256l-158 250h83l142 -219h92v219h75v-219h92l142 219h83z" />
    <glyph glyph-name="uni0498" unicode="&#x498;" horiz-adv-x="602" 
d="M361 351q97 -13 145.5 -60.5t48.5 -109.5q0 -80 -60.5 -130t-152.5 -59v-152h-78v152q-144 14 -227 107l48 55q43 -45 101.5 -68.5t116.5 -23.5q75 0 124 35.5t49 92.5q0 63 -54 94t-147 31h-84v70h84q93 0 147 31t54 94q0 57 -49 92.5t-124 35.5q-58 0 -116.5 -23.5
t-101.5 -68.5l-48 55q48 54 118.5 81.5t147.5 27.5q105 0 178.5 -51.5t73.5 -139.5q0 -62 -48.5 -108t-145.5 -60z" />
    <glyph glyph-name="uni0499" unicode="&#x499;" horiz-adv-x="490" 
d="M291 253q77 -8 114.5 -42t37.5 -79q0 -58 -47 -95t-120 -45v-135h-72v135q-111 12 -177 81l44 51q33 -33 79.5 -50t89.5 -17q57 0 91.5 23.5t34.5 59.5q0 81 -146 81h-68v64h68q146 0 146 81q0 36 -34.5 59.5t-91.5 23.5q-43 0 -89.5 -17t-79.5 -50l-44 51q38 40 95 61.5
t118 21.5q86 0 144.5 -38.5t58.5 -103.5q0 -45 -37.5 -78.5t-114.5 -42.5z" />
    <glyph glyph-name="uni049A" unicode="&#x49a;" horiz-adv-x="706" 
d="M355 356l217 -285h117v-231h-78v160h-80l-243 315h-146v-315h-78v700h78v-315h146l231 315h87z" />
    <glyph glyph-name="uni049B" unicode="&#x49b;" horiz-adv-x="589" 
d="M310 258l154 -190h108v-211h-72v143h-73l-182 219h-106v-219h-75v506h75v-219h106l175 219h83z" />
    <glyph glyph-name="uni049C" unicode="&#x49c;" horiz-adv-x="662" 
d="M625 700l-251 -344l271 -356h-96l-243 315h-37v-129h-61v129h-66v-315h-78v700h78v-315h66v129h61v-129h37l232 315h87z" />
    <glyph glyph-name="uni049D" unicode="&#x49d;" horiz-adv-x="556" 
d="M524 506l-193 -248l208 -258h-91l-180 219h-19v-130h-59v130h-51v-219h-75v506h75v-219h51v130h59v-130h19l173 219h83z" />
    <glyph glyph-name="uni049E" unicode="&#x49e;" horiz-adv-x="643" 
d="M606 700l-251 -344l271 -356h-95l-243 315h-146v-315h-78v556h-87v61h87v83h78v-83h163v-61h-163v-171h146l231 315h87z" />
    <glyph glyph-name="uni049F" unicode="&#x49f;" horiz-adv-x="546" 
d="M513 506l-193 -248l209 -258h-92l-182 219h-106v-219h-75v576h-84v61h84v103h75v-103h169v-61h-169v-289h106l175 219h83z" />
    <glyph glyph-name="uni04A0" unicode="&#x4a0;" horiz-adv-x="770" 
d="M733 700l-251 -344l271 -356h-96l-243 315h-145v-315h-78v629h-181v71h259v-315h145l232 315h87z" />
    <glyph glyph-name="uni04A1" unicode="&#x4a1;" horiz-adv-x="621" 
d="M589 506l-193 -248l208 -258h-91l-183 219h-105v-219h-75v438h-140v68h215v-219h105l176 219h83z" />
    <glyph glyph-name="uni04A2" unicode="&#x4a2;" horiz-adv-x="753" 
d="M649 700v-629h87v-231h-78v160h-87v315h-429v-315h-78v700h78v-315h429v315h78z" />
    <glyph glyph-name="uni04A3" unicode="&#x4a3;" horiz-adv-x="624" 
d="M530 506v-438h77v-211h-72v143h-80v219h-316v-219h-75v506h75v-219h316v219h75z" />
    <glyph glyph-name="uni04A4" unicode="&#x4a4;" horiz-adv-x="1011" 
d="M571 700h430v-71h-352v-629h-78v315h-429v-315h-78v700h78v-315h429v315z" />
    <glyph glyph-name="uni04A5" unicode="&#x4a5;" horiz-adv-x="812" 
d="M455 506h347v-68h-272v-438h-75v219h-316v-219h-75v506h75v-219h316v219z" />
    <glyph glyph-name="uni04A6" unicode="&#x4a6;" horiz-adv-x="1100" 
d="M801 430q116 0 187.5 -84.5t71.5 -226.5q0 -150 -77 -239.5t-198 -89.5q-44 0 -91 11l14 72q39 -11 78 -11q87 0 140.5 69t53.5 185q0 112 -53.5 176.5t-139.5 64.5q-69 0 -158 -37v-320h-78v629h-409v-629h-78v700h565v-309q89 39 172 39z" />
    <glyph glyph-name="uni04A7" unicode="&#x4a7;" horiz-adv-x="881" 
d="M651 294q90 0 148 -67t58 -177q0 -117 -63 -188.5t-160 -71.5q-41 0 -75 10l13 67q30 -8 58 -8q65 0 107.5 52t42.5 136q0 82 -40.5 130t-109.5 48q-54 0 -120 -29v-196h-75v438h-296v-438h-75v506h446v-284q62 72 141 72z" />
    <glyph glyph-name="uni04A8" unicode="&#x4a8;" horiz-adv-x="908" 
d="M874 75l10 -70q-60 -15 -122 -15q-97 0 -180 40q-82 -40 -182 -40q-154 0 -255 100.5t-101 252.5q0 157 104.5 262t258.5 105v-72q-120 0 -201.5 -84.5t-81.5 -210.5q0 -122 78 -201.5t198 -79.5q55 0 108 16q-63 52 -98 126.5t-35 161.5q0 124 60 194.5t149 70.5
t149 -70t60 -195q0 -86 -35.5 -161t-99.5 -127q51 -16 104 -16q49 0 112 13zM455 366q0 -80 34 -146t95 -106q61 40 95.5 106t34.5 146q0 86 -36 139.5t-94 53.5t-93.5 -53.5t-35.5 -139.5z" />
    <glyph glyph-name="uni04A9" unicode="&#x4a9;" horiz-adv-x="693" 
d="M667 66l9 -65q-46 -11 -89 -11q-76 0 -140 31q-65 -31 -141 -31q-113 0 -187.5 74t-74.5 187q0 116 76 192t190 76v-67q-82 0 -137 -56.5t-55 -144.5q0 -85 53 -139.5t135 -54.5q40 0 74 9q-90 82 -90 203q0 90 46 140.5t112 50.5q67 0 113 -50.5t46 -140.5
q0 -122 -92 -203q35 -9 72 -9q41 0 80 9zM359 269q0 -112 89 -172q90 58 90 172q0 57 -25 91.5t-65 34.5q-39 0 -64 -34.5t-25 -91.5z" />
    <glyph glyph-name="uni04AA" unicode="&#x4aa;" horiz-adv-x="771" 
d="M407 62q83 0 149.5 44.5t99.5 115.5l71 -30q-36 -78 -110 -134t-171 -66v-152h-78v152q-140 14 -232 115t-92 243q0 152 104.5 256t258.5 104q111 0 196 -57.5t124 -144.5l-71 -30q-33 71 -99.5 115.5t-149.5 44.5q-119 0 -201 -83.5t-82 -204.5t82 -204.5t201 -83.5z
" />
    <glyph glyph-name="uni04AB" unicode="&#x4ab;" horiz-adv-x="593" 
d="M310 60q58 0 104 30t69 82l69 -24q-27 -64 -81.5 -105.5t-124.5 -50.5v-135h-72v135q-100 13 -165 85.5t-65 175.5q0 112 76.5 187.5t189.5 75.5q82 0 146.5 -42.5t95.5 -115.5l-69 -24q-23 52 -69 82t-104 30q-80 0 -134.5 -55.5t-54.5 -137.5t54.5 -137.5t134.5 -55.5z
" />
    <glyph glyph-name="uni04AC" unicode="&#x4ac;" horiz-adv-x="572" 
d="M562 700v-71h-237v-558h87v-231h-78v160h-87v629h-237v71h552z" />
    <glyph glyph-name="uni04AD" unicode="&#x4ad;" horiz-adv-x="486" 
d="M463 506v-68h-182v-370h77v-211h-72v143h-80v438h-182v68h439z" />
    <glyph glyph-name="uni04AE" unicode="&#x4ae;" horiz-adv-x="617" 
d="M613 700l-266 -457v-172h137v-71h-351v71h136v172l-265 457h92l215 -380l214 380h88z" />
    <glyph glyph-name="uni04AF" unicode="&#x4af;" horiz-adv-x="520" 
d="M262 78l177 428h77l-218 -519v-187h-75v187l-219 519h82z" />
    <glyph glyph-name="uni04B0" unicode="&#x4b0;" horiz-adv-x="617" 
d="M525 700h88l-250 -430h132v-61h-148v-138h137v-71h-351v71h136v138h-147v61h131l-249 430h92l215 -380z" />
    <glyph glyph-name="uni04B1" unicode="&#x4b1;" horiz-adv-x="520" 
d="M439 506h77l-213 -506h136v-62h-141v-138h-75v138h-142v62h137l-214 506h82l176 -428z" />
    <glyph glyph-name="uni04B2" unicode="&#x4b2;" horiz-adv-x="712" 
d="M371 351l209 -280h115v-231h-78v160h-80l-214 290l-215 -290h-94l262 349l-262 351h96l215 -289l214 289h94z" />
    <glyph glyph-name="uni04B3" unicode="&#x4b3;" horiz-adv-x="564" 
d="M302 254l141 -186h104v-211h-72v143h-73l-147 200l-149 -200h-89l193 252l-193 254h94l146 -199l149 199h89z" />
    <glyph glyph-name="uni04B4" unicode="&#x4b4;" horiz-adv-x="936" 
d="M841 0h-594v629h-237v71h546v-71h-231v-558h429v629h77v-629h88v-231h-78v160z" />
    <glyph glyph-name="uni04B5" unicode="&#x4b5;" horiz-adv-x="759" 
d="M670 0h-464v438h-182v68h433v-68h-176v-370h316v438h75v-438h70v-211h-72v143z" />
    <glyph glyph-name="uni04B6" unicode="&#x4b6;" horiz-adv-x="683" 
d="M579 700v-629h87v-231h-78v160h-87v279q-121 -26 -197 -26q-144 0 -207 60t-63 194v193h78v-193q0 -99 45.5 -141t153.5 -42q73 0 190 25v351h78z" />
    <glyph glyph-name="uni04B7" unicode="&#x4b7;" horiz-adv-x="564" 
d="M470 506v-438h77v-211h-72v143h-80v192q-83 -17 -148 -17q-119 0 -166 47t-47 143v141h75v-141q0 -63 31 -92.5t114 -29.5q61 0 141 16v247h75z" />
    <glyph glyph-name="uni04B8" unicode="&#x4b8;" horiz-adv-x="643" 
d="M501 349v351h78v-700h-78v279q-93 -20 -161 -25v-118h-62v117q-130 5 -187 65.5t-57 188.5v193h78v-193q0 -92 38.5 -134t127.5 -48v139h62v-139q65 4 161 24z" />
    <glyph glyph-name="uni04B9" unicode="&#x4b9;" horiz-adv-x="535" 
d="M395 259v247h75v-506h-75v192q-53 -11 -105 -15v-125h-59v123q-110 4 -153.5 50.5t-43.5 139.5v141h75v-141q0 -59 26.5 -88t95.5 -33v136h59v-136q51 4 105 15z" />
    <glyph glyph-name="uni04BA" unicode="&#x4ba;" horiz-adv-x="634" 
d="M354 463q96 0 158.5 -67.5t62.5 -171.5v-224h-78v217q0 75 -50 126t-123 51q-79 0 -130.5 -50t-51.5 -127v-217h-78v700h78v-390q23 72 80.5 112.5t131.5 40.5z" />
    <glyph glyph-name="uni04BB" unicode="&#x4bb;" horiz-adv-x="590" 
d="M326 516q89 0 146.5 -62t57.5 -156v-298h-75v289q0 67 -44 112.5t-109 45.5q-71 0 -117 -45t-46 -113v-289h-75v740h75v-364q21 64 71 102t116 38z" />
    <glyph glyph-name="uni04BC" unicode="&#x4bc;" horiz-adv-x="912" 
d="M505 710q99 0 182 -49t130.5 -139t39.5 -200h-635q11 -112 90.5 -186t192.5 -74q83 0 149.5 44.5t98.5 115.5l72 -30q-39 -86 -124.5 -144t-195.5 -58q-147 0 -249.5 95t-112.5 238q-72 4 -112.5 39t-40.5 95q0 40 17 77h70q-16 -39 -16 -72q0 -70 83 -77
q12 140 114.5 232.5t246.5 92.5zM505 638q-109 0 -187.5 -69t-93.5 -176h550q-8 102 -83.5 173.5t-185.5 71.5z" />
    <glyph glyph-name="uni04BD" unicode="&#x4bd;" horiz-adv-x="708" 
d="M403 516q117 0 192.5 -82.5t66.5 -203.5h-445q8 -76 61.5 -124.5t130.5 -48.5q59 0 104.5 29t69.5 79l65 -27q-32 -67 -95 -107.5t-145 -40.5q-108 0 -182.5 68t-82.5 173q-68 7 -105.5 41.5t-37.5 91.5q0 41 17 78h70q-16 -41 -16 -72q0 -66 74 -76q14 97 85.5 159.5
t172.5 62.5zM403 449q-70 0 -120.5 -44t-63.5 -113h367q-11 68 -61.5 112.5t-121.5 44.5z" />
    <glyph glyph-name="uni04BE" unicode="&#x4be;" horiz-adv-x="912" 
d="M505 710q99 0 182 -49t130.5 -139t39.5 -200h-635q11 -112 90.5 -186t192.5 -74q83 0 149.5 44.5t98.5 115.5l72 -30q-36 -78 -110 -134t-171 -66v-152h-78v152q-133 14 -223 106t-100 225q-72 4 -112.5 39t-40.5 95q0 40 17 77h70q-16 -39 -16 -72q0 -70 83 -77
q12 140 114.5 232.5t246.5 92.5zM505 638q-109 0 -187.5 -69t-93.5 -176h550q-8 102 -83.5 173.5t-185.5 71.5z" />
    <glyph glyph-name="uni04BF" unicode="&#x4bf;" horiz-adv-x="708" 
d="M403 516q117 0 192.5 -82.5t66.5 -203.5h-445q8 -76 61.5 -124.5t130.5 -48.5q59 0 104.5 29t69.5 79l65 -27q-28 -60 -81.5 -99t-123.5 -47v-135h-72v135q-95 12 -158 78t-70 161q-68 7 -105.5 41.5t-37.5 91.5q0 41 17 78h70q-16 -41 -16 -72q0 -66 74 -76
q14 97 85.5 159.5t172.5 62.5zM403 449q-70 0 -120.5 -44t-63.5 -113h367q-11 68 -61.5 112.5t-121.5 44.5z" />
    <glyph glyph-name="uni04C0" unicode="&#x4c0;" horiz-adv-x="206" 
d="M142 0h-78v700h78v-700z" />
    <glyph glyph-name="uni04C1" unicode="&#x4c1;" horiz-adv-x="978" 
d="M489 750q-71 0 -117 40t-51 110h68q5 -43 31 -68t69 -25q42 0 68 25t31 68h68q-5 -70 -51 -110t-116 -40zM931 700l-207 -345l227 -355h-94l-201 315h-128v-315h-78v315h-128l-204 -315h-91l226 353l-206 347h87l188 -315h128v315h78v-315h128l188 315h87z" />
    <glyph glyph-name="uni04C2" unicode="&#x4c2;" horiz-adv-x="768" 
d="M384 577q-65 0 -105.5 42.5t-40.5 113.5h65q0 -45 22 -71.5t59 -26.5q38 0 59.5 26.5t21.5 71.5h65q0 -71 -40.5 -113.5t-105.5 -42.5zM739 506l-159 -248l174 -258h-89l-151 219h-92v-219h-75v219h-92l-154 -219h-87l174 256l-158 250h83l142 -219h92v219h75v-219h92
l142 219h83z" />
    <glyph glyph-name="uni04C3" unicode="&#x4c3;" horiz-adv-x="633" 
d="M606 700l-234 -320q92 -19 146.5 -94t54.5 -189q0 -140 -77 -223.5t-197 -83.5q-45 0 -91 11l13 72q41 -11 78 -11q87 0 141 63t54 170q0 103 -54 161.5t-140 58.5h-158v-315h-78v700h78v-315h145l232 315h87z" />
    <glyph glyph-name="uni04C4" unicode="&#x4c4;" horiz-adv-x="538" 
d="M503 506l-179 -230q77 -21 119 -80.5t42 -148.5q0 -115 -63 -186t-160 -71q-40 0 -74 10l13 67q29 -8 58 -8q65 0 107.5 52t42.5 136q0 80 -44 126t-128 46h-98v-219h-75v506h75v-219h101h5l175 219h83z" />
    <glyph glyph-name="uni04C5" unicode="&#x4c5;" horiz-adv-x="762" 
d="M658 700v-629h90l-78 -231h-78l55 160h-67v629h-351v-279q0 -107 -13.5 -178t-42 -109.5t-65.5 -53.5t-92 -15h-6v70h9q48 0 75 19.5t43.5 83.5t16.5 183v350h504z" />
    <glyph glyph-name="uni04C6" unicode="&#x4c6;" horiz-adv-x="629" 
d="M535 506v-438h80l-71 -211h-72l49 143h-61v438h-256v-185q0 -141 -40 -200t-138 -59h-6v67h9q36 0 56 11.5t33.5 54.5t13.5 126v253h403z" />
    <glyph glyph-name="uni04C7" unicode="&#x4c7;" horiz-adv-x="713" 
d="M571 385v315h78v-685q0 -95 -57 -160t-151 -65q-42 0 -78 10l13 71q34 -9 63 -9q61 0 96.5 45t35.5 108v300h-429v-315h-78v700h78v-315h429z" />
    <glyph glyph-name="uni04C8" unicode="&#x4c8;" horiz-adv-x="595" 
d="M455 287v219h75v-491q0 -95 -56.5 -160t-149.5 -65q-40 0 -74 10l13 67q30 -8 58 -8q63 0 98.5 45t35.5 108v207h-316v-219h-75v506h75v-219h316z" />
    <glyph glyph-name="uni04C9" unicode="&#x4c9;" horiz-adv-x="753" 
d="M649 700v-629h90l-78 -231h-78l55 160h-67v315h-429v-315h-78v700h78v-315h429v315h78z" />
    <glyph glyph-name="uni04CA" unicode="&#x4ca;" horiz-adv-x="624" 
d="M530 506v-438h80l-71 -211h-72l49 143h-61v219h-316v-219h-75v506h75v-219h316v219h75z" />
    <glyph glyph-name="uni04CB" unicode="&#x4cb;" horiz-adv-x="643" 
d="M501 349v351h78v-700h-87v-160h-78v231h87v208q-121 -26 -197 -26q-144 0 -207 60t-63 194v193h78v-193q0 -99 45.5 -141t153.5 -42q73 0 190 25z" />
    <glyph glyph-name="uni04CC" unicode="&#x4cc;" horiz-adv-x="535" 
d="M395 259v247h75v-506h-73v-143h-72v199h70v136q-83 -17 -148 -17q-119 0 -166 47t-47 143v141h75v-141q0 -63 31 -92.5t114 -29.5q61 0 141 16z" />
    <glyph glyph-name="uni04CD" unicode="&#x4cd;" horiz-adv-x="879" 
d="M772 700v-629h93l-78 -231h-78l55 160h-67v681l-210 -681h-138l-210 684v-684h-75v700h147l208 -677l208 677h145z" />
    <glyph glyph-name="uni04CE" unicode="&#x4ce;" horiz-adv-x="728" 
d="M631 506v-438h83l-71 -211h-72l49 143h-58v490l-152 -490h-125l-152 490v-490h-69v506h134l150 -485l149 485h134z" />
    <glyph glyph-name="uni04CF" unicode="&#x4cf;" horiz-adv-x="203" 
d="M139 0h-75v740h75v-740z" />
    <glyph glyph-name="uni04D0" unicode="&#x4d0;" horiz-adv-x="719" 
d="M360 750q-71 0 -117 40t-51 110h68q5 -43 31 -68t69 -25q42 0 68 25t31 68h68q-5 -70 -51 -110t-116 -40zM705 0h-84l-73 186h-380l-73 -186h-81l277 700h137zM358 674l-163 -417h326z" />
    <glyph glyph-name="uni04D1" unicode="&#x4d1;" horiz-adv-x="523" 
d="M262 577q-65 0 -105.5 42.5t-40.5 113.5h65q0 -45 22 -71.5t59 -26.5q38 0 59.5 26.5t21.5 71.5h65q0 -71 -40.5 -113.5t-105.5 -42.5zM269 516q86 0 140 -45.5t54 -127.5v-343h-75v138q-51 -148 -198 -148q-69 0 -112.5 38t-43.5 101q0 68 49.5 105t128.5 45l113 13
q63 6 63 58q0 47 -33 74t-87 27t-93 -27t-53 -83l-73 20q18 75 77.5 115t142.5 40zM209 53q77 0 128 51.5t51 120.5v42q-14 -30 -68 -36l-109 -12q-46 -6 -74 -27.5t-28 -58.5q0 -36 27.5 -58t72.5 -22z" />
    <glyph glyph-name="uni04D2" unicode="&#x4d2;" horiz-adv-x="719" 
d="M251 778q-20 0 -34 13.5t-14 33.5t14 34t34 14q19 0 33 -14t14 -34q0 -19 -14 -33t-33 -14zM469 778q-19 0 -33 14t-14 33q0 20 14 34t33 14q20 0 34 -14t14 -34t-14 -33.5t-34 -13.5zM705 0h-84l-73 186h-380l-73 -186h-81l277 700h137zM358 674l-163 -417h326z" />
    <glyph glyph-name="uni04D3" unicode="&#x4d3;" horiz-adv-x="523" 
d="M156 609q-20 0 -34 13.5t-14 33.5t14 34t34 14t33.5 -14t13.5 -34t-13.5 -33.5t-33.5 -13.5zM367 609q-19 0 -33 13.5t-14 33.5t13.5 34t33.5 14t34 -14t14 -34t-14 -33.5t-34 -13.5zM269 516q86 0 140 -45.5t54 -127.5v-343h-75v138q-51 -148 -198 -148q-69 0 -112.5 38
t-43.5 101q0 68 49.5 105t128.5 45l113 13q63 6 63 58q0 47 -33 74t-87 27t-93 -27t-53 -83l-73 20q18 75 77.5 115t142.5 40zM209 53q77 0 128 51.5t51 120.5v42q-14 -30 -68 -36l-109 -12q-46 -6 -74 -27.5t-28 -58.5q0 -36 27.5 -58t72.5 -22z" />
    <glyph glyph-name="uni04D4" unicode="&#x4d4;" horiz-adv-x="972" 
d="M925 700v-71h-353v-244h343v-70h-343v-244h353v-71h-431v186h-290l-121 -186h-89l457 700h474zM494 631l-244 -374h244v374z" />
    <glyph glyph-name="uni04D5" unicode="&#x4d5;" horiz-adv-x="960" 
d="M662 516q114 0 187.5 -82.5t65.5 -203.5h-445q8 -76 62.5 -124.5t133.5 -48.5q56 0 101.5 29t68.5 79l65 -27q-29 -67 -87.5 -107.5t-134.5 -40.5q-75 0 -132.5 43.5t-83.5 116.5v-150h-75v138q-51 -148 -198 -148q-69 0 -112.5 38t-43.5 101q0 68 49.5 105t128.5 45
l113 13q63 6 63 58q0 47 -33 74t-87 27t-93 -27t-53 -83l-73 20q18 75 77.5 115t142.5 40q67 0 116 -28.5t68 -80.5q34 51 88.5 80t120.5 29zM656 449q-70 0 -120.5 -44t-63.5 -113h367q-11 68 -61.5 112.5t-121.5 44.5zM209 53q77 0 128 51.5t51 120.5v42q-14 -30 -68 -36
l-109 -12q-46 -6 -74 -27.5t-28 -58.5q0 -36 27.5 -58t72.5 -22z" />
    <glyph glyph-name="uni04D6" unicode="&#x4d6;" horiz-adv-x="542" 
d="M103 900h68q5 -43 31 -68t69 -25q42 0 68 25t31 68h68q-5 -70 -51 -110t-116 -40q-71 0 -117 40t-51 110zM495 0h-431v700h431v-71h-353v-244h343v-70h-343v-244h353v-71z" />
    <glyph glyph-name="uni04D7" unicode="&#x4d7;" horiz-adv-x="610" 
d="M305 577q-65 0 -105.5 42.5t-40.5 113.5h65q0 -45 22 -71.5t59 -26.5q38 0 59.5 26.5t21.5 71.5h65q0 -71 -40.5 -113.5t-105.5 -42.5zM305 516q117 0 192.5 -82.5t66.5 -203.5h-445q8 -76 61.5 -124.5t130.5 -48.5q59 0 105 29t70 79l64 -27q-32 -67 -95 -107.5
t-145 -40.5q-113 0 -189.5 75.5t-76.5 187.5t75 187.5t186 75.5zM305 449q-69 0 -120 -44t-64 -113h367q-11 68 -61.5 112.5t-121.5 44.5z" />
    <glyph glyph-name="uni04D8" unicode="&#x4d8;" horiz-adv-x="814" 
d="M407 710q154 0 258.5 -104t104.5 -256t-104.5 -256t-258.5 -104q-153 0 -258.5 111t-93.5 277h634q-10 112 -89.5 186t-192.5 74q-83 0 -149.5 -44.5t-98.5 -115.5l-72 30q39 87 124 144.5t196 57.5zM407 62q109 0 187 69t93 176h-549q8 -102 83 -173.5t186 -71.5z" />
    <glyph glyph-name="uni04D9" unicode="&#x4d9;" horiz-adv-x="611" 
d="M301 516q113 0 189.5 -75.5t76.5 -187.5t-75 -187.5t-186 -75.5q-117 0 -192.5 82.5t-66.5 203.5h445q-8 76 -62 124.5t-131 48.5q-58 0 -104 -29t-70 -79l-65 27q32 67 95.5 107.5t145.5 40.5zM306 57q69 0 120 44t64 113h-367q11 -68 61.5 -112.5t121.5 -44.5z" />
    <glyph glyph-name="uni04DA" unicode="&#x4da;" horiz-adv-x="814" 
d="M299 778q-20 0 -34 13.5t-14 33.5t14 34t34 14q19 0 33 -14t14 -34q0 -19 -14 -33t-33 -14zM517 778q-19 0 -33 14t-14 33q0 20 14 34t33 14q20 0 34 -14t14 -34t-14 -33.5t-34 -13.5zM407 710q154 0 258.5 -104t104.5 -256t-104.5 -256t-258.5 -104q-153 0 -258.5 111
t-93.5 277h634q-10 112 -89.5 186t-192.5 74q-83 0 -149.5 -44.5t-98.5 -115.5l-72 30q39 87 124 144.5t196 57.5zM407 62q109 0 187 69t93 176h-549q8 -102 83 -173.5t186 -71.5z" />
    <glyph glyph-name="uni04DB" unicode="&#x4db;" horiz-adv-x="611" 
d="M197 609q-20 0 -34 13.5t-14 33.5t14 34t34 14t33.5 -14t13.5 -34t-14 -33.5t-33 -13.5zM408 609q-20 0 -33.5 13.5t-13.5 33.5t13.5 34t33.5 14t34 -14t14 -34t-14 -33.5t-34 -13.5zM301 516q113 0 189.5 -75.5t76.5 -187.5t-75 -187.5t-186 -75.5q-117 0 -192.5 82.5
t-66.5 203.5h445q-8 76 -62 124.5t-131 48.5q-58 0 -104 -29t-70 -79l-65 27q32 67 95.5 107.5t145.5 40.5zM306 57q69 0 120 44t64 113h-367q11 -68 61.5 -112.5t121.5 -44.5z" />
    <glyph glyph-name="uni04DC" unicode="&#x4dc;" horiz-adv-x="978" 
d="M380 778q-20 0 -34 13.5t-14 33.5t14 34t34 14q19 0 33 -14t14 -34q0 -19 -13.5 -33t-33.5 -14zM598 778q-20 0 -33.5 14t-13.5 33q0 20 14 34t33 14q20 0 34 -14t14 -34t-14 -33.5t-34 -13.5zM931 700l-207 -345l227 -355h-94l-201 315h-128v-315h-78v315h-128
l-204 -315h-91l226 353l-206 347h87l188 -315h128v315h78v-315h128l188 315h87z" />
    <glyph glyph-name="uni04DD" unicode="&#x4dd;" horiz-adv-x="768" 
d="M279 609q-20 0 -34 13.5t-14 33.5t14 34t34 14t33.5 -14t13.5 -34t-14 -33.5t-33 -13.5zM490 609q-20 0 -33.5 13.5t-13.5 33.5t13.5 34t33.5 14t34 -14t14 -34t-14 -33.5t-34 -13.5zM739 506l-159 -248l174 -258h-89l-151 219h-92v-219h-75v219h-92l-154 -219h-87
l174 256l-158 250h83l142 -219h92v219h75v-219h92l142 219h83z" />
    <glyph glyph-name="uni04DE" unicode="&#x4de;" horiz-adv-x="602" 
d="M194 778q-20 0 -34 13.5t-14 33.5t14 34t34 14q19 0 33 -14t14 -34q0 -19 -13.5 -33t-33.5 -14zM412 778q-20 0 -33.5 14t-13.5 33q0 20 14 34t33 14q20 0 34 -14t14 -34t-14 -33.5t-34 -13.5zM361 351q97 -13 145.5 -60.5t48.5 -109.5q0 -88 -73.5 -139.5t-178.5 -51.5
q-77 0 -147.5 27.5t-118.5 81.5l48 55q43 -45 101.5 -68.5t116.5 -23.5q75 0 124 35.5t49 92.5q0 63 -54 94t-147 31h-84v70h84q93 0 147 31t54 94q0 57 -49 92.5t-124 35.5q-58 0 -116.5 -23.5t-101.5 -68.5l-48 55q48 54 118.5 81.5t147.5 27.5q105 0 178.5 -51.5
t73.5 -139.5q0 -62 -48.5 -108t-145.5 -60z" />
    <glyph glyph-name="uni04DF" unicode="&#x4df;" horiz-adv-x="490" 
d="M135 609q-20 0 -34 13.5t-14 33.5t14 34t34 14t33.5 -14t13.5 -34t-14 -33.5t-33 -13.5zM346 609q-20 0 -33.5 13.5t-13.5 33.5t13.5 34t33.5 14t34 -14t14 -34t-14 -33.5t-34 -13.5zM291 253q77 -8 114.5 -42t37.5 -79q0 -65 -58.5 -103.5t-144.5 -38.5q-61 0 -118 21.5
t-95 61.5l44 51q33 -33 79.5 -50t89.5 -17q57 0 91.5 23.5t34.5 59.5q0 81 -146 81h-68v64h68q146 0 146 81q0 36 -34.5 59.5t-91.5 23.5q-43 0 -89.5 -17t-79.5 -50l-44 51q38 40 95 61.5t118 21.5q86 0 144.5 -38.5t58.5 -103.5q0 -45 -37.5 -78.5t-114.5 -42.5z" />
    <glyph glyph-name="uni04E0" unicode="&#x4e0;" horiz-adv-x="602" 
d="M541 637l-229 -239q114 -6 178.5 -58t64.5 -141q0 -94 -74.5 -151.5t-177.5 -57.5q-77 0 -147.5 27.5t-118.5 81.5l48 55q43 -45 101.5 -68.5t116.5 -23.5q75 0 124 39t49 98q0 68 -54 101.5t-147 33.5h-57v63l223 232h-359v71h459v-63z" />
    <glyph glyph-name="uni04E1" unicode="&#x4e1;" horiz-adv-x="485" 
d="M431 442l-182 -223q90 -13 144.5 -71.5t54.5 -142.5q0 -92 -62 -153.5t-151 -61.5q-83 0 -141.5 42t-76.5 117l70 19q13 -53 52.5 -81t94.5 -28q59 0 98 42t39 104q0 63 -43.5 106t-113.5 43h-50v63l179 221h-298v68h386v-64z" />
    <glyph glyph-name="uni04E2" unicode="&#x4e2;" horiz-adv-x="719" 
d="M201 856h316v-62h-316v62zM142 17l362 683h151v-700h-78v684l-362 -684h-151v700h78v-683z" />
    <glyph glyph-name="uni04E3" unicode="&#x4e3;" horiz-adv-x="597" 
d="M146 687h306v-61h-306v61zM136 16l258 490h139v-506h-72v490l-258 -490h-139v506h72v-490z" />
    <glyph glyph-name="uni04E4" unicode="&#x4e4;" horiz-adv-x="719" 
d="M251 778q-20 0 -34 13.5t-14 33.5t14 34t34 14q19 0 33 -14t14 -34q0 -19 -14 -33t-33 -14zM469 778q-19 0 -33 14t-14 33q0 20 14 34t33 14q20 0 34 -14t14 -34t-14 -33.5t-34 -13.5zM142 17l362 683h151v-700h-78v684l-362 -684h-151v700h78v-683z" />
    <glyph glyph-name="uni04E5" unicode="&#x4e5;" horiz-adv-x="597" 
d="M193 609q-20 0 -34 13.5t-14 33.5t14 34t34 14t33.5 -14t13.5 -34t-14 -33.5t-33 -13.5zM404 609q-20 0 -33.5 13.5t-13.5 33.5t13.5 34t33.5 14t34 -14t14 -34t-14 -33.5t-34 -13.5zM136 16l258 490h139v-506h-72v490l-258 -490h-139v506h72v-490z" />
    <glyph glyph-name="uni04E6" unicode="&#x4e6;" horiz-adv-x="814" 
d="M250 825q0 20 14 34t34 14q19 0 33 -14t14 -34q0 -19 -13.5 -33t-33.5 -14t-34 13.5t-14 33.5zM469 825q0 20 14 34t33 14q20 0 34 -14t14 -34t-14 -33.5t-34 -13.5t-33.5 14t-13.5 33zM44 350q0 152 104.5 256t258.5 104t258.5 -104t104.5 -256t-104.5 -256t-258.5 -104
t-258.5 104t-104.5 256zM124 350q0 -121 82 -204.5t201 -83.5q120 0 201.5 83t81.5 205t-81.5 205t-201.5 83q-119 0 -201 -83.5t-82 -204.5z" />
    <glyph glyph-name="uni04E7" unicode="&#x4e7;" horiz-adv-x="620" 
d="M157 656q0 20 14 34t34 14t33.5 -14t13.5 -34t-14 -33.5t-33 -13.5q-20 0 -34 13.5t-14 33.5zM369 656q0 20 13.5 34t33.5 14t34 -14t14 -34t-14 -33.5t-34 -13.5t-33.5 13.5t-13.5 33.5zM44 253q0 112 76.5 187.5t189.5 75.5t189.5 -75.5t76.5 -187.5t-76.5 -187.5
t-189.5 -75.5t-189.5 75.5t-76.5 187.5zM121 253q0 -82 54.5 -137.5t134.5 -55.5q81 0 135 55t54 138t-54 138t-135 55q-80 0 -134.5 -55.5t-54.5 -137.5z" />
    <glyph glyph-name="uni04E8" unicode="&#x4e8;" horiz-adv-x="814" 
d="M407 710q154 0 258.5 -104t104.5 -256t-104.5 -256t-258.5 -104t-258.5 104t-104.5 256t104.5 256t258.5 104zM407 638q-110 0 -189.5 -72t-91.5 -181h562q-12 109 -91.5 181t-189.5 72zM407 62q110 0 189.5 72t91.5 181h-562q12 -109 91.5 -181t189.5 -72z" />
    <glyph glyph-name="uni04E9" unicode="&#x4e9;" horiz-adv-x="620" 
d="M310 516q113 0 189.5 -75.5t76.5 -187.5t-76.5 -187.5t-189.5 -75.5t-189.5 75.5t-76.5 187.5t76.5 187.5t189.5 75.5zM310 449q-73 0 -126 -46t-64 -118h380q-11 72 -64 118t-126 46zM310 57q73 0 126 46t64 118h-380q11 -72 64 -118t126 -46z" />
    <glyph glyph-name="uni04EA" unicode="&#x4ea;" horiz-adv-x="814" 
d="M298 778q-20 0 -34 13.5t-14 33.5t14 34t34 14q19 0 33 -14t14 -34q0 -19 -13.5 -33t-33.5 -14zM516 778q-20 0 -33.5 14t-13.5 33q0 20 14 34t33 14q20 0 34 -14t14 -34t-14 -33.5t-34 -13.5zM407 710q154 0 258.5 -104t104.5 -256t-104.5 -256t-258.5 -104t-258.5 104
t-104.5 256t104.5 256t258.5 104zM407 638q-110 0 -189.5 -72t-91.5 -181h562q-12 109 -91.5 181t-189.5 72zM407 62q110 0 189.5 72t91.5 181h-562q12 -109 91.5 -181t189.5 -72z" />
    <glyph glyph-name="uni04EB" unicode="&#x4eb;" horiz-adv-x="620" 
d="M205 609q-20 0 -34 13.5t-14 33.5t14 34t34 14t33.5 -14t13.5 -34t-14 -33.5t-33 -13.5zM416 609q-20 0 -33.5 13.5t-13.5 33.5t13.5 34t33.5 14t34 -14t14 -34t-14 -33.5t-34 -13.5zM310 516q113 0 189.5 -75.5t76.5 -187.5t-76.5 -187.5t-189.5 -75.5t-189.5 75.5
t-76.5 187.5t76.5 187.5t189.5 75.5zM310 449q-73 0 -126 -46t-64 -118h380q-11 72 -64 118t-126 46zM310 57q73 0 126 46t64 118h-380q11 -72 64 -118t126 -46z" />
    <glyph glyph-name="uni04EC" unicode="&#x4ec;" horiz-adv-x="771" 
d="M255 778q-20 0 -34 13.5t-14 33.5t14 34t34 14q19 0 33 -14t14 -34q0 -19 -14 -33t-33 -14zM473 778q-19 0 -33 14t-14 33q0 20 14 34t33 14q20 0 34 -14t14 -34t-14 -33.5t-34 -13.5zM364 710q154 0 258.5 -104t104.5 -256t-104.5 -256t-258.5 -104q-110 0 -195.5 58
t-124.5 144l72 30q32 -71 98.5 -115.5t149.5 -44.5q111 0 190.5 72t91.5 181h-341v70h341q-12 109 -91.5 181t-190.5 72q-83 0 -149.5 -44.5t-98.5 -115.5l-72 30q39 86 124.5 144t195.5 58z" />
    <glyph glyph-name="uni04ED" unicode="&#x4ed;" horiz-adv-x="593" 
d="M178 609q-20 0 -34 13.5t-14 33.5t14 34t34 14t33.5 -14t13.5 -34t-13.5 -33.5t-33.5 -13.5zM389 609q-19 0 -33 13.5t-14 33.5t13.5 34t33.5 14t34 -14t14 -34t-14 -33.5t-34 -13.5zM283 516q114 0 190 -75.5t76 -187.5q0 -113 -76 -188t-190 -75q-82 0 -146.5 42.5
t-95.5 115.5l67 23q23 -51 69.5 -82.5t105.5 -31.5q74 0 126.5 46t63.5 118h-236v64h236q-11 72 -63.5 118t-126.5 46q-59 0 -105 -30.5t-70 -83.5l-67 23q31 73 95.5 115.5t146.5 42.5z" />
    <glyph glyph-name="uni04EE" unicode="&#x4ee;" horiz-adv-x="620" 
d="M152 856h316v-62h-316v62zM316 303l220 397h80l-388 -700h-80l123 222l-257 478h88z" />
    <glyph glyph-name="uni04EF" unicode="&#x4ef;" horiz-adv-x="520" 
d="M107 687h306v-61h-306v61zM260 22l179 484h77l-262 -706h-77l75 200h-59l-189 506h82z" />
    <glyph glyph-name="uni04F0" unicode="&#x4f0;" horiz-adv-x="620" 
d="M201 778q-20 0 -34 13.5t-14 33.5t14 34t34 14q19 0 33 -14t14 -34q0 -19 -14 -33t-33 -14zM419 778q-19 0 -33 14t-14 33q0 20 14 34t33 14q20 0 34 -14t14 -34t-14 -33.5t-34 -13.5zM316 303l220 397h80l-388 -700h-80l123 222l-257 478h88z" />
    <glyph glyph-name="uni04F1" unicode="&#x4f1;" horiz-adv-x="520" 
d="M155 609q-20 0 -34 13.5t-14 33.5t14 34t34 14t33.5 -14t13.5 -34t-14 -33.5t-33 -13.5zM366 609q-20 0 -33.5 13.5t-13.5 33.5t13.5 34t33.5 14t34 -14t14 -34t-14 -33.5t-34 -13.5zM260 22l179 484h77l-262 -706h-77l75 200h-59l-189 506h82z" />
    <glyph glyph-name="uni04F2" unicode="&#x4f2;" horiz-adv-x="620" 
d="M285 900h89l-155 -151h-83zM564 900l-155 -151h-83l149 151h89zM316 303l220 397h80l-388 -700h-80l123 222l-257 478h88z" />
    <glyph glyph-name="uni04F3" unicode="&#x4f3;" horiz-adv-x="520" 
d="M231 736h79l-116 -160h-73zM478 736l-116 -160h-73l110 160h79zM260 22l179 484h77l-262 -706h-77l75 200h-59l-189 506h82z" />
    <glyph glyph-name="uni04F4" unicode="&#x4f4;" horiz-adv-x="643" 
d="M213 778q-20 0 -34 13.5t-14 33.5t14 34t34 14q19 0 33 -14t14 -34q0 -19 -14 -33t-33 -14zM431 778q-19 0 -33 14t-14 33q0 20 14 34t33 14q20 0 34 -14t14 -34t-14 -33.5t-34 -13.5zM501 349v351h78v-700h-78v279q-121 -26 -197 -26q-144 0 -207 60t-63 194v193h78
v-193q0 -99 45.5 -141t153.5 -42q73 0 190 25z" />
    <glyph glyph-name="uni04F5" unicode="&#x4f5;" horiz-adv-x="535" 
d="M162 609q-20 0 -34 13.5t-14 33.5t14 34t34 14t33.5 -14t13.5 -34t-13.5 -33.5t-33.5 -13.5zM373 609q-19 0 -33 13.5t-14 33.5t13.5 34t33.5 14t34 -14t14 -34t-14 -33.5t-34 -13.5zM395 259v247h75v-506h-75v192q-83 -17 -148 -17q-119 0 -166 47t-47 143v141h75v-141
q0 -63 31 -92.5t114 -29.5q61 0 141 16z" />
    <glyph glyph-name="uni04F6" unicode="&#x4f6;" horiz-adv-x="505" 
d="M495 700v-71h-353v-558h87v-231h-78v160h-87v700h431z" />
    <glyph glyph-name="uni04F7" unicode="&#x4f7;" horiz-adv-x="420" 
d="M410 506v-68h-271v-370h77v-211h-72v143h-80v506h346z" />
    <glyph glyph-name="uni04F8" unicode="&#x4f8;" horiz-adv-x="748" 
d="M217 825q0 20 14 34t34 14q19 0 33 -14t14 -34q0 -19 -14 -33t-33 -14q-20 0 -34 13.5t-14 33.5zM436 825q0 20 14 34t33 14q20 0 34 -14t14 -34t-14 -33.5t-34 -13.5q-19 0 -33 14t-14 33zM318 0h-254v700h78v-283h176q99 0 161.5 -59.5t62.5 -148.5q0 -90 -62.5 -149.5
t-161.5 -59.5zM684 0h-78v700h78v-700zM142 346v-275h176q63 0 103.5 39t40.5 98t-40.5 98.5t-103.5 39.5h-176z" />
    <glyph glyph-name="uni04F9" unicode="&#x4f9;" horiz-adv-x="656" 
d="M175 656q0 20 14 34t34 14t33.5 -14t13.5 -34t-14 -33.5t-33 -13.5q-20 0 -34 13.5t-14 33.5zM387 656q0 20 13.5 34t33.5 14t34 -14t14 -34t-14 -33.5t-34 -13.5t-33.5 13.5t-13.5 33.5zM284 0h-220v506h75v-175h145q79 0 129 -47t50 -119q0 -71 -50 -118t-129 -47z
M592 0h-75v506h75v-506zM139 263v-195h139q48 0 78 27.5t30 69.5q0 43 -30 70.5t-78 27.5h-139z" />
    <glyph glyph-name="uni04FC" unicode="&#x4fc;" horiz-adv-x="647" 
d="M633 700l-262 -349l183 -245q73 -97 73 -171q0 -62 -45.5 -103.5t-117.5 -41.5q-39 0 -75 10l13 67q30 -8 59 -8q38 0 62 23.5t24 56.5q0 28 -11.5 54t-43.5 68l-169 229l-215 -290h-94l262 349l-262 351h96l215 -289l214 289h94z" />
    <glyph glyph-name="uni04FD" unicode="&#x4fd;" horiz-adv-x="512" 
d="M495 506l-193 -251l132 -174q54 -72 54 -146q0 -62 -45.5 -103.5t-117.5 -41.5q-39 0 -75 10l13 67q30 -8 59 -8q40 0 65 23.5t25 56.5q0 48 -38 100l-119 161l-149 -200h-89l193 252l-193 254h94l146 -199l149 199h89z" />
    <glyph glyph-name="uni0510" unicode="&#x510;" horiz-adv-x="602" 
d="M300 62q57 0 116 23.5t101 68.5l48 -55q-47 -53 -118 -81t-147 -28q-105 0 -179 51.5t-74 139.5q0 62 48.5 108t146.5 60q-98 14 -146.5 60.5t-48.5 109.5q0 88 74 139.5t179 51.5q76 0 147 -28t118 -81l-48 -55q-42 45 -101 68.5t-116 23.5q-76 0 -124.5 -35.5
t-48.5 -92.5q0 -63 54 -94t146 -31h84v-70h-84q-92 0 -146 -31t-54 -94q0 -57 48.5 -92.5t124.5 -35.5z" />
    <glyph glyph-name="uni0511" unicode="&#x511;" horiz-adv-x="490" 
d="M250 57q43 0 89.5 17t80.5 50l43 -51q-38 -40 -95 -61.5t-118 -21.5q-86 0 -144.5 38.5t-58.5 103.5q0 45 37.5 79t114.5 42q-77 9 -114.5 42.5t-37.5 78.5q0 65 58.5 103.5t144.5 38.5q61 0 118 -21.5t95 -61.5l-43 -51q-33 33 -80 50t-90 17q-57 0 -91.5 -23.5
t-34.5 -59.5q0 -81 146 -81h68v-64h-68q-146 0 -146 -81q0 -36 34.5 -59.5t91.5 -23.5z" />
    <glyph glyph-name="uni0512" unicode="&#x512;" horiz-adv-x="722" 
d="M16 -6h-6v70h9q48 0 75 19.5t43.5 83.5t16.5 183v350h504v-685q0 -95 -57 -160t-152 -65q-41 0 -77 10l13 71q35 -9 63 -9q61 0 96.5 45t35.5 108v614h-351v-279q0 -107 -13.5 -178t-42 -109.5t-65.5 -53.5t-92 -15z" />
    <glyph glyph-name="uni0513" unicode="&#x513;" horiz-adv-x="599" 
d="M26 -6h-6v67h9q36 0 56 11.5t33.5 54.5t13.5 126v253h403v-491q0 -95 -56.5 -160t-149.5 -65q-39 0 -75 10l13 67q30 -8 58 -8q63 0 99 45t36 108v426h-256v-185q0 -141 -40 -200t-138 -59z" />
    <glyph glyph-name="uni051C" unicode="&#x51c;" horiz-adv-x="1049" 
d="M755 25l167 675h80l-175 -700h-146l-157 676l-158 -676h-144l-175 700h79l169 -673l157 673h145z" />
    <glyph glyph-name="uni051D" unicode="&#x51d;" horiz-adv-x="845" 
d="M616 20l142 486h73l-154 -506h-124l-130 484l-131 -484h-124l-154 506h75l142 -484l125 484h135z" />
    <glyph glyph-name="uni0524" unicode="&#x524;" horiz-adv-x="753" 
d="M649 700v-629h87v-231h-78v160h-87v629h-429v-629h-78v700h585z" />
    <glyph glyph-name="uni0525" unicode="&#x525;" horiz-adv-x="614" 
d="M520 506v-438h77v-211h-72v143h-80v438h-306v-438h-75v506h456z" />
    <glyph glyph-name="uni0526" unicode="&#x526;" horiz-adv-x="679" 
d="M575 224v-153h87v-231h-78v160h-87v217q0 75 -50 126t-123 51q-79 0 -130.5 -50t-51.5 -127v-217h-78v700h78v-390q23 72 80.5 112.5t131.5 40.5q96 0 158.5 -67.5t62.5 -171.5z" />
    <glyph glyph-name="uni0527" unicode="&#x527;" horiz-adv-x="624" 
d="M530 298v-230h77v-211h-72v143h-80v289q0 67 -44 112.5t-109 45.5q-71 0 -117 -45t-46 -113v-289h-75v740h75v-364q21 64 71 102t116 38q89 0 146.5 -62t57.5 -156z" />
    <glyph glyph-name="Wgrave" unicode="&#x1e80;" horiz-adv-x="1049" 
d="M457 900l149 -151h-89l-155 151h95zM755 25l167 675h80l-175 -700h-146l-157 676l-158 -676h-144l-175 700h79l169 -673l157 673h145z" />
    <glyph glyph-name="wgrave" unicode="&#x1e81;" horiz-adv-x="845" 
d="M370 736l110 -160h-79l-116 160h85zM616 20l142 486h73l-154 -506h-124l-130 484l-131 -484h-124l-154 506h75l142 -484l125 484h135z" />
    <glyph glyph-name="Wacute" unicode="&#x1e82;" horiz-adv-x="1049" 
d="M591 900h95l-155 -151h-89zM755 25l167 675h80l-175 -700h-146l-157 676l-158 -676h-144l-175 700h79l169 -673l157 673h145z" />
    <glyph glyph-name="wacute" unicode="&#x1e83;" horiz-adv-x="845" 
d="M475 736h85l-116 -160h-79zM616 20l142 486h73l-154 -506h-124l-130 484l-131 -484h-124l-154 506h75l142 -484l125 484h135z" />
    <glyph glyph-name="Wdieresis" unicode="&#x1e84;" horiz-adv-x="1049" 
d="M416 778q-20 0 -34 13.5t-14 33.5t14 34t34 14q19 0 33 -14t14 -34q0 -19 -13.5 -33t-33.5 -14zM634 778q-20 0 -33.5 14t-13.5 33q0 20 14 34t33 14q20 0 34 -14t14 -34t-14 -33.5t-34 -13.5zM755 25l167 675h80l-175 -700h-146l-157 676l-158 -676h-144l-175 700h79
l169 -673l157 673h145z" />
    <glyph glyph-name="wdieresis" unicode="&#x1e85;" horiz-adv-x="845" 
d="M317 609q-20 0 -34 13.5t-14 33.5t14 34t34 14t33.5 -14t13.5 -34t-14 -33.5t-33 -13.5zM528 609q-20 0 -33.5 13.5t-13.5 33.5t13.5 34t33.5 14t34 -14t14 -34t-14 -33.5t-34 -13.5zM616 20l142 486h73l-154 -506h-124l-130 484l-131 -484h-124l-154 506h75l142 -484
l125 484h135z" />
    <glyph glyph-name="uni1E9E" unicode="&#x1e9e;" horiz-adv-x="658" 
d="M583 637l-181 -223q97 -10 152.5 -68t55.5 -142q0 -94 -64.5 -154t-171.5 -60q-80 0 -154 32l13 67q65 -30 132 -30q75 0 120.5 41t45.5 105q0 62 -45 103.5t-125 41.5h-45v64l172 215h-206q-66 0 -103 -43.5t-37 -112.5v-473h-78v473q0 101 60 164t158 63h301v-63z" />
    <glyph glyph-name="uni1EA0" unicode="&#x1ea0;" horiz-adv-x="719" 
d="M428 700l277 -700h-84l-73 186h-380l-73 -186h-81l277 700h137zM358 674l-163 -417h326zM359 -102q20 0 34.5 -14t14.5 -35q0 -20 -14.5 -34.5t-34.5 -14.5t-34.5 14.5t-14.5 34.5q0 21 14.5 35t34.5 14z" />
    <glyph glyph-name="uni1EA1" unicode="&#x1ea1;" horiz-adv-x="523" 
d="M269 516q86 0 140 -45.5t54 -127.5v-343h-75v138q-51 -148 -198 -148q-69 0 -112.5 38t-43.5 101q0 68 49.5 105t128.5 45l113 13q63 6 63 58q0 47 -33 74t-87 27t-93 -27t-53 -83l-73 20q18 75 77.5 115t142.5 40zM209 53q77 0 128 51.5t51 120.5v42q-14 -30 -68 -36
l-109 -12q-46 -6 -74 -27.5t-28 -58.5q0 -36 27.5 -58t72.5 -22zM262 -102q20 0 34.5 -14t14.5 -35q0 -20 -14.5 -34.5t-34.5 -14.5t-34.5 14.5t-14.5 34.5q0 21 14.5 35t34.5 14z" />
    <glyph glyph-name="uni1EA2" unicode="&#x1ea2;" horiz-adv-x="719" 
d="M359 907q-23 0 -37.5 -16t-13.5 -39h-62q0 47 31.5 77t81.5 30q49 0 81 -29.5t32 -73.5q0 -40 -30 -70.5t-81 -44.5l-21 46q70 21 70 69q0 22 -14.5 36.5t-36.5 14.5zM705 0h-84l-73 186h-380l-73 -186h-81l277 700h137zM358 674l-163 -417h326z" />
    <glyph glyph-name="uni1EA3" unicode="&#x1ea3;" horiz-adv-x="523" 
d="M262 713q-23 0 -37.5 -16t-14.5 -39h-60q0 47 31.5 77t80.5 30q48 0 79.5 -29.5t31.5 -73.5q0 -41 -30.5 -71.5t-80.5 -43.5l-21 46q71 21 71 69q0 22 -14 36.5t-36 14.5zM269 516q86 0 140 -45.5t54 -127.5v-343h-75v138q-51 -148 -198 -148q-69 0 -112.5 38t-43.5 101
q0 68 49.5 105t128.5 45l113 13q63 6 63 58q0 47 -33 74t-87 27t-93 -27t-53 -83l-73 20q18 75 77.5 115t142.5 40zM209 53q77 0 128 51.5t51 120.5v42q-14 -30 -68 -36l-109 -12q-46 -6 -74 -27.5t-28 -58.5q0 -36 27.5 -58t72.5 -22z" />
    <glyph glyph-name="uni1EA4" unicode="&#x1ea4;" horiz-adv-x="719" 
d="M628 1039h92l-151 -147h-86zM459 749l-99 100l-100 -100h-89l150 151h77l150 -151h-89zM428 700l277 -700h-84l-73 186h-380l-73 -186h-81l277 700h137zM358 674l-163 -417h326z" />
    <glyph glyph-name="uni1EA5" unicode="&#x1ea5;" horiz-adv-x="523" 
d="M483 911h83l-113 -156h-77zM342 576l-80 109l-80 -109h-76l113 160h86l113 -160h-76zM269 516q86 0 140 -45.5t54 -127.5v-343h-75v138q-51 -148 -198 -148q-69 0 -112.5 38t-43.5 101q0 68 49.5 105t128.5 45l113 13q63 6 63 58q0 47 -33 74t-87 27t-93 -27t-53 -83
l-73 20q18 75 77.5 115t142.5 40zM209 53q77 0 128 51.5t51 120.5v42q-14 -30 -68 -36l-109 -12q-46 -6 -74 -27.5t-28 -58.5q0 -36 27.5 -58t72.5 -22z" />
    <glyph glyph-name="uni1EA6" unicode="&#x1ea6;" horiz-adv-x="719" 
d="M497 1039l145 -147h-86l-151 147h92zM459 749l-99 100l-100 -100h-89l150 151h77l150 -151h-89zM705 0h-84l-73 186h-380l-73 -186h-81l277 700h137zM358 674l-163 -417h326z" />
    <glyph glyph-name="uni1EA7" unicode="&#x1ea7;" horiz-adv-x="523" 
d="M381 911l107 -156h-77l-112 156h82zM342 576l-80 109l-80 -109h-76l113 160h86l113 -160h-76zM269 516q86 0 140 -45.5t54 -127.5v-343h-75v138q-51 -148 -198 -148q-69 0 -112.5 38t-43.5 101q0 68 49.5 105t128.5 45l113 13q63 6 63 58q0 47 -33 74t-87 27t-93 -27
t-53 -83l-73 20q18 75 77.5 115t142.5 40zM209 53q77 0 128 51.5t51 120.5v42q-14 -30 -68 -36l-109 -12q-46 -6 -74 -27.5t-28 -58.5q0 -36 27.5 -58t72.5 -22z" />
    <glyph glyph-name="uni1EA8" unicode="&#x1ea8;" horiz-adv-x="719" 
d="M536 1045q-22 0 -36 -15.5t-13 -37.5h-60q0 46 30.5 75t78.5 29t79 -28.5t31 -71.5q0 -40 -29.5 -69.5t-78.5 -42.5l-21 45q68 21 68 67q0 22 -13.5 35.5t-35.5 13.5zM459 749l-99 100l-100 -100h-89l150 151h77l150 -151h-89zM705 0h-84l-73 186h-380l-73 -186h-81
l277 700h137zM358 674l-163 -417h326z" />
    <glyph glyph-name="uni1EA9" unicode="&#x1ea9;" horiz-adv-x="523" 
d="M420 938q47 0 77.5 -28.5t30.5 -70.5q0 -40 -29 -69.5t-79 -42.5l-20 44q69 21 69 68q0 21 -13.5 35t-35.5 14t-36 -15.5t-13 -37.5h-59q0 45 30.5 74t77.5 29zM342 576l-80 109l-80 -109h-76l113 160h86l113 -160h-76zM269 516q86 0 140 -45.5t54 -127.5v-343h-75v138
q-51 -148 -198 -148q-69 0 -112.5 38t-43.5 101q0 68 49.5 105t128.5 45l113 13q63 6 63 58q0 47 -33 74t-87 27t-93 -27t-53 -83l-73 20q18 75 77.5 115t142.5 40zM209 53q77 0 128 51.5t51 120.5v42q-14 -30 -68 -36l-109 -12q-46 -6 -74 -27.5t-28 -58.5q0 -36 27.5 -58
t72.5 -22z" />
    <glyph glyph-name="uni1EAA" unicode="&#x1eaa;" horiz-adv-x="719" 
d="M284 1022q-38 0 -55 -47l-51 24q13 38 41 61t65 23q32 0 59.5 -15.5t50 -31t43.5 -15.5q39 0 55 47l51 -25q-12 -38 -40.5 -60.5t-65.5 -22.5q-32 0 -59.5 15.5t-50 31t-43.5 15.5zM459 749l-99 100l-100 -100h-89l150 151h77l150 -151h-89zM705 0h-84l-73 186h-380
l-73 -186h-81l277 700h137zM358 674l-163 -417h326z" />
    <glyph glyph-name="uni1EAB" unicode="&#x1eab;" horiz-adv-x="523" 
d="M193 869q-38 0 -56 -47l-51 25q13 38 41 60.5t66 22.5q39 0 79.5 -30.5t60.5 -30.5q39 0 55 46l51 -24q-12 -38 -40.5 -60.5t-65.5 -22.5q-40 0 -80 30.5t-60 30.5zM106 576l113 160h86l113 -160h-76l-80 109l-80 -109h-76zM269 516q86 0 140 -45.5t54 -127.5v-343h-75
v138q-51 -148 -198 -148q-69 0 -112.5 38t-43.5 101q0 68 49.5 105t128.5 45l113 13q63 6 63 58q0 47 -33 74t-87 27t-93 -27t-53 -83l-73 20q18 75 77.5 115t142.5 40zM209 53q77 0 128 51.5t51 120.5v42q-14 -30 -68 -36l-109 -12q-46 -6 -74 -27.5t-28 -58.5
q0 -36 27.5 -58t72.5 -22z" />
    <glyph glyph-name="uni1EAC" unicode="&#x1eac;" horiz-adv-x="719" 
d="M459 749l-99 100l-100 -100h-89l150 151h77l150 -151h-89zM428 700l277 -700h-84l-73 186h-380l-73 -186h-81l277 700h137zM358 674l-163 -417h326zM359 -102q20 0 34.5 -14t14.5 -35q0 -20 -14.5 -34.5t-34.5 -14.5t-34.5 14.5t-14.5 34.5q0 21 14.5 35t34.5 14z" />
    <glyph glyph-name="uni1EAD" unicode="&#x1ead;" horiz-adv-x="523" 
d="M342 576l-80 109l-80 -109h-76l113 160h86l113 -160h-76zM269 516q86 0 140 -45.5t54 -127.5v-343h-75v138q-51 -148 -198 -148q-69 0 -112.5 38t-43.5 101q0 68 49.5 105t128.5 45l113 13q63 6 63 58q0 47 -33 74t-87 27t-93 -27t-53 -83l-73 20q18 75 77.5 115
t142.5 40zM209 53q77 0 128 51.5t51 120.5v42q-14 -30 -68 -36l-109 -12q-46 -6 -74 -27.5t-28 -58.5q0 -36 27.5 -58t72.5 -22zM262 -102q20 0 34.5 -14t14.5 -35q0 -20 -14.5 -34.5t-34.5 -14.5t-34.5 14.5t-14.5 34.5q0 21 14.5 35t34.5 14z" />
    <glyph glyph-name="uni1EAE" unicode="&#x1eae;" horiz-adv-x="719" 
d="M426 1094h92l-150 -147h-87zM360 753q-70 0 -115 39.5t-53 107.5h67q5 -40 31.5 -63.5t69.5 -23.5q42 0 68.5 23.5t31.5 63.5h67q-7 -68 -52.5 -107.5t-114.5 -39.5zM705 0h-84l-73 186h-380l-73 -186h-81l277 700h137zM358 674l-163 -417h326z" />
    <glyph glyph-name="uni1EAF" unicode="&#x1eaf;" horiz-adv-x="523" 
d="M314 943h83l-113 -155h-77zM262 577q-65 0 -105.5 42.5t-40.5 113.5h63q0 -43 23 -69t60 -26q38 0 60.5 26t22.5 69h63q0 -71 -40.5 -113.5t-105.5 -42.5zM269 516q86 0 140 -45.5t54 -127.5v-343h-75v138q-51 -148 -198 -148q-69 0 -112.5 38t-43.5 101q0 68 49.5 105
t128.5 45l113 13q63 6 63 58q0 47 -33 74t-87 27t-93 -27t-53 -83l-73 20q18 75 77.5 115t142.5 40zM209 53q77 0 128 51.5t51 120.5v42q-14 -30 -68 -36l-109 -12q-46 -6 -74 -27.5t-28 -58.5q0 -36 27.5 -58t72.5 -22z" />
    <glyph glyph-name="uni1EB0" unicode="&#x1eb0;" horiz-adv-x="719" 
d="M296 1094l145 -147h-87l-150 147h92zM360 753q-70 0 -115 39.5t-53 107.5h67q5 -40 31.5 -63.5t69.5 -23.5q42 0 68.5 23.5t31.5 63.5h67q-7 -68 -52.5 -107.5t-114.5 -39.5zM705 0h-84l-73 186h-380l-73 -186h-81l277 700h137zM358 674l-163 -417h326z" />
    <glyph glyph-name="uni1EB1" unicode="&#x1eb1;" horiz-adv-x="523" 
d="M212 943l107 -155h-77l-112 155h82zM262 577q-65 0 -105.5 42.5t-40.5 113.5h63q0 -43 23 -69t60 -26q38 0 60.5 26t22.5 69h63q0 -71 -40.5 -113.5t-105.5 -42.5zM269 516q86 0 140 -45.5t54 -127.5v-343h-75v138q-51 -148 -198 -148q-69 0 -112.5 38t-43.5 101
q0 68 49.5 105t128.5 45l113 13q63 6 63 58q0 47 -33 74t-87 27t-93 -27t-53 -83l-73 20q18 75 77.5 115t142.5 40zM209 53q77 0 128 51.5t51 120.5v42q-14 -30 -68 -36l-109 -12q-46 -6 -74 -27.5t-28 -58.5q0 -36 27.5 -58t72.5 -22z" />
    <glyph glyph-name="uni1EB2" unicode="&#x1eb2;" horiz-adv-x="719" 
d="M361 1060q-23 0 -37 -15.5t-13 -37.5h-60q0 45 30.5 74t79.5 29q48 0 78.5 -28.5t30.5 -70.5q0 -40 -29.5 -69.5t-78.5 -42.5l-20 44q68 21 68 68q0 21 -14 35t-35 14zM360 753q-70 0 -115 39.5t-53 107.5h67q5 -40 31.5 -63.5t69.5 -23.5q42 0 68.5 23.5t31.5 63.5h67
q-7 -68 -52.5 -107.5t-114.5 -39.5zM705 0h-84l-73 186h-380l-73 -186h-81l277 700h137zM358 674l-163 -417h326z" />
    <glyph glyph-name="uni1EB3" unicode="&#x1eb3;" horiz-adv-x="523" 
d="M263 900q-23 0 -36.5 -15.5t-13.5 -37.5h-58q0 45 30.5 74t77.5 29t77.5 -28.5t30.5 -70.5q0 -40 -29.5 -69.5t-78.5 -42.5l-20 45q69 20 69 67q0 21 -14 35t-35 14zM262 577q-65 0 -105.5 42.5t-40.5 113.5h63q0 -43 23 -69t60 -26q38 0 60.5 26t22.5 69h63
q0 -71 -40.5 -113.5t-105.5 -42.5zM269 516q86 0 140 -45.5t54 -127.5v-343h-75v138q-51 -148 -198 -148q-69 0 -112.5 38t-43.5 101q0 68 49.5 105t128.5 45l113 13q63 6 63 58q0 47 -33 74t-87 27t-93 -27t-53 -83l-73 20q18 75 77.5 115t142.5 40zM209 53q77 0 128 51.5
t51 120.5v42q-14 -30 -68 -36l-109 -12q-46 -6 -74 -27.5t-28 -58.5q0 -36 27.5 -58t72.5 -22z" />
    <glyph glyph-name="uni1EB4" unicode="&#x1eb4;" horiz-adv-x="719" 
d="M284 1022q-38 0 -55 -47l-51 24q12 38 40 61t66 23q32 0 59.5 -15.5t50 -31t43.5 -15.5q39 0 55 47l51 -25q-13 -38 -41 -60.5t-65 -22.5q-32 0 -59.5 15.5t-50 31t-43.5 15.5zM360 813q42 0 68.5 23.5t31.5 63.5h67q-7 -68 -52.5 -107.5t-114.5 -39.5q-70 0 -115 39.5
t-53 107.5h67q5 -40 31.5 -63.5t69.5 -23.5zM705 0h-84l-73 186h-380l-73 -186h-81l277 700h137zM358 674l-163 -417h326z" />
    <glyph glyph-name="uni1EB5" unicode="&#x1eb5;" horiz-adv-x="523" 
d="M193 866q-38 0 -56 -47l-51 24q13 39 41 61.5t66 22.5q31 0 56 -15.5t45 -31t39 -15.5q37 0 55 47l51 -25q-13 -38 -41 -60.5t-65 -22.5q-40 0 -80 31t-60 31zM262 638q38 0 60.5 26t22.5 69h63q0 -71 -40.5 -113.5t-105.5 -42.5t-105.5 42.5t-40.5 113.5h63
q0 -43 23 -69t60 -26zM269 516q86 0 140 -45.5t54 -127.5v-343h-75v138q-51 -148 -198 -148q-69 0 -112.5 38t-43.5 101q0 68 49.5 105t128.5 45l113 13q63 6 63 58q0 47 -33 74t-87 27t-93 -27t-53 -83l-73 20q18 75 77.5 115t142.5 40zM209 53q77 0 128 51.5t51 120.5v42
q-14 -30 -68 -36l-109 -12q-46 -6 -74 -27.5t-28 -58.5q0 -36 27.5 -58t72.5 -22z" />
    </font>
</defs>
</svg>
