<svg xmlns="http://www.w3.org/2000/svg">
<defs>
<font id="AtypDisplay-Bold" horiz-adv-x="800" >
  <font-face 
    font-family="Atyp Display Bold"
    font-weight="400"
    font-stretch="normal"
    units-per-em="1000"
    panose-1="0 0 8 0 0 0 0 0 0 0"
    ascent="782"
    descent="-218"
    x-height="520"
    cap-height="700"
    bbox="-591 -318 1872 1132"
    underline-thickness="50"
    underline-position="-200"
    unicode-range="U+000D-1F7E4"
  />
<missing-glyph horiz-adv-x="700" 
d="M690 0h-590v590h184v55q0 55 55 55h112q55 0 55 -55v-55h184v-590zM339 645v-55h112v55h-112zM189 429l-4 -24q17 -11 39 -11q18 0 29.5 9t11.5 26q0 16 -14 23t-28 10.5t-14 8.5q0 9 16 9q14 0 31 -9l4 24q-15 9 -35 9q-18 0 -29.5 -9t-11.5 -26q0 -13 8.5 -20.5
t19 -9.5t19 -5.5t8.5 -7.5q0 -9 -15 -9q-16 0 -35 12zM317 502h-24v-64q0 -20 11.5 -32t31.5 -12t31.5 12t11.5 32v64h-24v-64q0 -20 -19 -20t-19 20v64zM413 420l-3 -24h73l3 24h-26v58h23l3 24h-73l-3 -24h26v-58h-23zM547 478v-82h24v82h31l3 24h-89l-3 -24h34zM248 294
l26 3q0 52 -42 52q-21 0 -33 -15.5t-12 -39.5q0 -28 13.5 -41.5t34.5 -13.5t38 12l-5 24q-21 -12 -33 -12q-22 0 -22 31t19 31q16 0 16 -31zM418 274l-4 -24q16 -11 39 -11q18 0 29.5 9t11.5 26q0 16 -14 23t-28 10.5t-14 8.5q0 9 16 9q14 0 31 -9l4 24q-15 9 -35 9
q-18 0 -29.5 -9t-11.5 -26q0 -16 13.5 -23.5t27.5 -11t14 -8.5q0 -9 -15 -9q-16 0 -35 12zM315 347l-19 -106h25l5 27h32l5 -27h24l-18 106h-54zM528 347v-106h71l3 24h-50v17h47l3 24h-50v17h47l3 24h-74zM354 292h-24l5 31h14zM220 168v-82h24v82h31l3 24h-89l-3 -24h34z
M331 117v-31h24v31l36 75h-27l-21 -45l-20 45h-28zM416 192v-106h24v33h19q17 0 28.5 10.5t11.5 25.5t-11.5 26t-28.5 11h-43zM528 192v-106h71l3 24h-50v17h47l3 24h-50v17h47l3 24h-74zM459 143h-19v25h19q14 0 14 -13q0 -12 -14 -12z" />
    <glyph glyph-name="f_b" unicode="fb" horiz-adv-x="1034" 
d="M789 530q93 0 154 -77.5t61 -192.5t-61 -192.5t-154 -77.5q-64 0 -111 42t-68 113v-145h-160v380h-180v-380h-160v380h-100v140h100v10q0 210 220 210h65v-140h-65q-60 0 -60 -60v-20h180v220h160v-365q21 71 68 113t111 42zM729 136q45 0 77 35.5t32 88.5t-32 88.5
t-77 35.5q-52 0 -85.5 -35t-33.5 -89t33.5 -89t85.5 -35z" />
    <glyph glyph-name="f_f" unicode="ff" horiz-adv-x="755" 
d="M270 0h-160v380h-100v140h100v10q0 210 220 210h65v-140h-65q-60 0 -60 -60v-20h180v10q0 210 220 210h65v-140h-65q-60 0 -60 -60v-20h125v-140h-125v-380h-160v380h-180v-380z" />
    <glyph glyph-name="f_h" unicode="fh" horiz-adv-x="1015" 
d="M785 530q84 0 134.5 -58.5t50.5 -152.5v-319h-160v289q0 43 -27 69.5t-68 26.5q-47 0 -76 -26.5t-29 -69.5v-289h-160v380h-180v-380h-160v380h-100v140h100v10q0 210 220 210h65v-140h-65q-60 0 -60 -60v-20h180v220h160v-350q21 65 67 102.5t108 37.5z" />
    <glyph glyph-name="f_i" unicode="fi" horiz-adv-x="660" 
d="M530 565q-39 0 -67 28.5t-28 66.5q0 39 28 67t67 28t67 -28t28 -67q0 -38 -28 -66.5t-67 -28.5zM270 520h340v-520h-160v380h-180v-380h-160v380h-100v140h100v10q0 210 220 210h65v-140h-65q-60 0 -60 -60v-20z" />
    <glyph glyph-name="f_j" unicode="fj" horiz-adv-x="660" 
d="M530 565q-39 0 -67 28.5t-28 66.5q0 39 28 67t67 28t67 -28t28 -67q0 -38 -28 -66.5t-67 -28.5zM270 520h340v-500q0 -243 -245 -230v140q54 0 69.5 17.5t15.5 72.5v360h-180v-380h-160v380h-100v140h100v10q0 210 220 210h65v-140h-65q-60 0 -60 -60v-20z" />
    <glyph glyph-name="f_k" unicode="fk" horiz-adv-x="990" 
d="M771 299l229 -299h-201l-137 178l-52 -58v-120h-160v380h-180v-380h-160v380h-100v140h100v10q0 210 220 210h65v-140h-65q-60 0 -60 -60v-20h180v220h160v-406l160 186h200z" />
    <glyph glyph-name="f_l" unicode="fl" horiz-adv-x="660" 
d="M450 520v220h160v-740h-160v380h-180v-380h-160v380h-100v140h100v10q0 210 220 210h65v-140h-65q-60 0 -60 -60v-20h180z" />
    <glyph glyph-name="f_t" unicode="ft" horiz-adv-x="765" 
d="M735 520v-140h-125v-180q0 -60 60 -60h65v-140h-65q-220 0 -220 210v170h-180v-380h-160v380h-100v140h100v10q0 210 220 210h65v-140h-65q-60 0 -60 -60v-20h180v140l160 50v-190h125z" />
    <glyph glyph-name="f_hbar" unicode="f&#x127;" horiz-adv-x="1015" 
d="M785 530q84 0 134.5 -58.5t50.5 -152.5v-319h-160v289q0 43 -27 69.5t-68 26.5q-47 0 -76 -26.5t-29 -69.5v-289h-160v380h-180v-380h-160v380h-100v140h100v10q0 210 220 210h40v-140h-40q-60 0 -60 -60v-20h180v30h-50v120h50v70h160v-70h110v-120h-110v-160
q21 65 67 102.5t108 37.5z" />
    <glyph glyph-name="f_iacute" unicode="f&#xed;" horiz-adv-x="660" 
d="M270 520h340v-520h-160v380h-180v-380h-160v380h-100v140h100v10q0 210 220 210h65v-140h-65q-60 0 -60 -60v-20zM533 740h177l-123 -160h-157z" />
    <glyph glyph-name="f_imacron" unicode="f&#x12b;" horiz-adv-x="660" 
d="M270 520h340v-520h-160v380h-180v-380h-160v380h-100v140h100v10q0 210 220 210h30v-140h-30q-60 0 -60 -60v-20zM390 600v120h280v-120h-280z" />
    <glyph glyph-name="f_lcaron" unicode="f&#x13e;" horiz-adv-x="660" 
d="M650 575l28 195h142l-52 -195h-118zM270 520h180v220h160v-740h-160v380h-180v-380h-160v380h-100v140h100v10q0 210 220 210h65v-140h-65q-60 0 -60 -60v-20z" />
    <glyph glyph-name="f_f_b" unicode="ffb" horiz-adv-x="1374" 
d="M1129 530q93 0 154 -77.5t61 -192.5t-61 -192.5t-154 -77.5q-64 0 -111 42t-68 113v-145h-160v380h-180v-380h-160v380h-180v-380h-160v380h-100v140h100v10q0 210 220 210h65v-140h-65q-60 0 -60 -60v-20h180v10q0 210 220 210h65v-140h-65q-60 0 -60 -60v-20h180v220
h160v-365q21 71 68 113t111 42zM1069 136q45 0 77 35.5t32 88.5t-32 88.5t-77 35.5q-52 0 -85.5 -35t-33.5 -89t33.5 -89t85.5 -35z" />
    <glyph glyph-name="f_f_h" unicode="ffh" horiz-adv-x="1355" 
d="M1125 530q84 0 134.5 -58.5t50.5 -152.5v-319h-160v289q0 43 -27 69.5t-68 26.5q-47 0 -76 -26.5t-29 -69.5v-289h-160v380h-180v-380h-160v380h-180v-380h-160v380h-100v140h100v10q0 210 220 210h65v-140h-65q-60 0 -60 -60v-20h180v10q0 210 220 210h65v-140h-65
q-60 0 -60 -60v-20h180v220h160v-350q21 65 67 102.5t108 37.5z" />
    <glyph glyph-name="f_f_i" unicode="ffi" horiz-adv-x="1000" 
d="M870 565q-39 0 -67 28.5t-28 66.5q0 39 28 67t67 28t67 -28t28 -67q0 -38 -28 -66.5t-67 -28.5zM610 520h340v-520h-160v380h-180v-380h-160v380h-180v-380h-160v380h-100v140h100v10q0 210 220 210h65v-140h-65q-60 0 -60 -60v-20h180v10q0 210 220 210h65v-140h-65
q-60 0 -60 -60v-20z" />
    <glyph glyph-name="f_f_j" unicode="ffj" horiz-adv-x="1000" 
d="M870 565q-39 0 -67 28.5t-28 66.5q0 39 28 67t67 28t67 -28t28 -67q0 -38 -28 -66.5t-67 -28.5zM610 520h340v-500q0 -243 -245 -230v140q54 0 69.5 17.5t15.5 72.5v360h-180v-380h-160v380h-180v-380h-160v380h-100v140h100v10q0 210 220 210h65v-140h-65q-60 0 -60 -60
v-20h180v10q0 210 220 210h65v-140h-65q-60 0 -60 -60v-20z" />
    <glyph glyph-name="f_f_k" unicode="ffk" horiz-adv-x="1330" 
d="M1111 299l229 -299h-201l-137 178l-52 -58v-120h-160v380h-180v-380h-160v380h-180v-380h-160v380h-100v140h100v10q0 210 220 210h65v-140h-65q-60 0 -60 -60v-20h180v10q0 210 220 210h65v-140h-65q-60 0 -60 -60v-20h180v220h160v-406l160 186h200z" />
    <glyph glyph-name="f_f_l" unicode="ffl" horiz-adv-x="1000" 
d="M790 520v220h160v-740h-160v380h-180v-380h-160v380h-180v-380h-160v380h-100v140h100v10q0 210 220 210h65v-140h-65q-60 0 -60 -60v-20h180v10q0 210 220 210h65v-140h-65q-60 0 -60 -60v-20h180z" />
    <glyph glyph-name="f_f_t" unicode="fft" horiz-adv-x="1105" 
d="M270 0h-160v380h-100v140h100v10q0 210 220 210h65v-140h-65q-60 0 -60 -60v-20h180v10q0 210 220 210h65v-140h-65q-60 0 -60 -60v-20h180v140l160 50v-190h125v-140h-125v-180q0 -60 60 -60h65v-140h-65q-220 0 -220 210v170h-180v-380h-160v380h-180v-380z" />
    <glyph glyph-name="idieresis_idieresis" unicode="&#xef;&#xef;" horiz-adv-x="520" 
d="M-55 660q0 37 26.5 63.5t63.5 26.5t63.5 -26.5t26.5 -63.5q0 -36 -26.5 -63t-63.5 -27t-63.5 27t-26.5 63zM170 660q0 37 26.5 63.5t63.5 26.5t63.5 -26.5t26.5 -63.5q0 -36 -26.5 -63t-63.5 -27t-63.5 27t-26.5 63zM395 660q0 37 26.5 63.5t63.5 26.5t63.5 -26.5
t26.5 -63.5q0 -36 -26.5 -63t-63.5 -27t-63.5 27t-26.5 63zM210 0h-160v520h160v-520zM470 0h-160v520h160v-520z" />
    <glyph glyph-name="t_t" unicode="tt" horiz-adv-x="805" 
d="M110 380h-100v140h100v140l160 50v-190h220v140l160 50v-190h125v-140h-125v-180q0 -60 60 -60h65v-140h-65q-220 0 -220 210v170h-220v-180q0 -60 60 -60h65v-140h-65q-220 0 -220 210v170z" />
    <glyph glyph-name="tcaron_t" unicode="&#x165;t" horiz-adv-x="805" 
d="M428 575h-118l28 195h142zM110 380h-100v140h100v140l160 50v-190h220v140l160 50v-190h125v-140h-125v-180q0 -60 60 -60h65v-140h-65q-220 0 -220 210v170h-220v-180q0 -60 60 -60h65v-140h-65q-220 0 -220 210v170z" />
    <glyph glyph-name="uni04330443" unicode="&#x433;&#x443;" horiz-adv-x="930" 
d="M647 44l131 476h162l-198 -720h-162l55 200h-130l-106 380h-189v-380h-160v520h482z" />
    <glyph glyph-name="uni04560457" unicode="&#x456;&#x457;" horiz-adv-x="550" 
d="M35 660q0 39 28 67t67 28t67 -28t28 -67q0 -38 -28 -66.5t-67 -28.5t-67 28.5t-28 66.5zM235 660q0 37 26.5 63.5t63.5 26.5t63.5 -26.5t26.5 -63.5q0 -36 -26.5 -63t-63.5 -27t-63.5 27t-26.5 63zM425 660q0 37 26.5 63.5t63.5 26.5t63.5 -26.5t26.5 -63.5
q0 -36 -26.5 -63t-63.5 -27t-63.5 27t-26.5 63zM210 0h-160v520h160v-520zM500 0h-160v520h160v-520z" />
    <glyph glyph-name="lambda_lambda" unicode="&#x3bb;&#x3bb;" horiz-adv-x="1026" 
d="M812 740l224 -740h-162l-133 442l-113 -442h-220l-133 442l-113 -442h-172l156 520h105l-66 220h161l167 -551l99 331h105l-66 220h161z" />
    <glyph glyph-name=".notdef" horiz-adv-x="700" 
d="M690 0h-590v590h184v55q0 55 55 55h112q55 0 55 -55v-55h184v-590zM339 645v-55h112v55h-112zM189 429l-4 -24q17 -11 39 -11q18 0 29.5 9t11.5 26q0 16 -14 23t-28 10.5t-14 8.5q0 9 16 9q14 0 31 -9l4 24q-15 9 -35 9q-18 0 -29.5 -9t-11.5 -26q0 -13 8.5 -20.5
t19 -9.5t19 -5.5t8.5 -7.5q0 -9 -15 -9q-16 0 -35 12zM317 502h-24v-64q0 -20 11.5 -32t31.5 -12t31.5 12t11.5 32v64h-24v-64q0 -20 -19 -20t-19 20v64zM413 420l-3 -24h73l3 24h-26v58h23l3 24h-73l-3 -24h26v-58h-23zM547 478v-82h24v82h31l3 24h-89l-3 -24h34zM248 294
l26 3q0 52 -42 52q-21 0 -33 -15.5t-12 -39.5q0 -28 13.5 -41.5t34.5 -13.5t38 12l-5 24q-21 -12 -33 -12q-22 0 -22 31t19 31q16 0 16 -31zM418 274l-4 -24q16 -11 39 -11q18 0 29.5 9t11.5 26q0 16 -14 23t-28 10.5t-14 8.5q0 9 16 9q14 0 31 -9l4 24q-15 9 -35 9
q-18 0 -29.5 -9t-11.5 -26q0 -16 13.5 -23.5t27.5 -11t14 -8.5q0 -9 -15 -9q-16 0 -35 12zM315 347l-19 -106h25l5 27h32l5 -27h24l-18 106h-54zM528 347v-106h71l3 24h-50v17h47l3 24h-50v17h47l3 24h-74zM354 292h-24l5 31h14zM220 168v-82h24v82h31l3 24h-89l-3 -24h34z
M331 117v-31h24v31l36 75h-27l-21 -45l-20 45h-28zM416 192v-106h24v33h19q17 0 28.5 10.5t11.5 25.5t-11.5 26t-28.5 11h-43zM528 192v-106h71l3 24h-50v17h47l3 24h-50v17h47l3 24h-74zM459 143h-19v25h19q14 0 14 -13q0 -12 -14 -12z" />
    <glyph glyph-name="uni0000" horiz-adv-x="600" 
 />
    <glyph glyph-name="nonmarkingreturn" horiz-adv-x="333" 
 />
    <glyph glyph-name="CR" unicode="&#xd;" horiz-adv-x="600" 
 />
    <glyph glyph-name="space" unicode=" " horiz-adv-x="300" 
 />
    <glyph glyph-name="exclam" unicode="!" horiz-adv-x="320" 
d="M220 220h-120l-30 300v180h180v-180zM65 85q0 39 28 67t67 28t67 -28t28 -67q0 -38 -28 -66.5t-67 -28.5t-67 28.5t-28 66.5z" />
    <glyph glyph-name="quotedbl" unicode="&#x22;" horiz-adv-x="475" 
d="M200 400h-150v300h150v-300zM425 400h-150v300h150v-300z" />
    <glyph glyph-name="numbersign" unicode="#" horiz-adv-x="780" 
d="M750 544l-40 -140h-100l-30 -108h99l-40 -140h-99l-45 -156h-150l45 156h-110l-45 -156h-150l45 156h-100l40 140h100l30 108h-99l40 140h99l45 156h150l-45 -156h110l45 156h150l-45 -156h100zM320 296h110l30 108h-110z" />
    <glyph glyph-name="dollar" unicode="$" horiz-adv-x="657" 
d="M617 206q0 -80 -64 -139t-164 -73v-114h-120v114q-96 13 -156.5 64.5t-72.5 128.5l172 35q13 -57 57 -75v139q-46 12 -78 25t-66 36.5t-52 60.5t-18 87q0 78 60 136t154 74v115h120v-114q93 -13 152 -64.5t71 -128.5l-171 -35q-12 54 -52 74v-126q38 -9 65.5 -18.5
t60.5 -27t53.5 -39.5t34.5 -56.5t14 -78.5zM231 505q0 -27 38 -45v95q-38 -15 -38 -50zM389 254v-111q52 14 52 58q0 33 -52 53z" />
    <glyph glyph-name="percent" unicode="%" horiz-adv-x="996" 
d="M30 490q0 93 55 154.5t141 61.5t141 -61.5t55 -154.5t-55 -154.5t-141 -61.5t-141 61.5t-55 154.5zM372 0h-160l412 700h160zM168 490q0 -41 16 -67.5t42 -26.5t42 26.5t16 67.5t-16 67.5t-42 26.5t-42 -26.5t-16 -67.5zM574 210q0 93 55 154.5t141 61.5t141 -61.5
t55 -154.5t-55 -154.5t-141 -61.5t-141 61.5t-55 154.5zM712 210q0 -41 16 -67.5t42 -26.5t42 26.5t16 67.5t-16 67.5t-42 26.5t-42 -26.5t-16 -67.5z" />
    <glyph glyph-name="ampersand" unicode="&#x26;" horiz-adv-x="694" 
d="M714 116l-76 -126q-68 39 -123 74q-95 -74 -236 -74q-117 0 -183 58t-66 140q0 53 34 98t95 70q-71 92 -71 166q0 77 59 132.5t164 55.5q94 0 149.5 -54t55.5 -123q0 -65 -41 -114t-113 -72q37 -31 107 -81q14 55 -3 117h153q24 -110 -16 -203q63 -38 111 -64zM308 573
q-27 0 -44.5 -19t-17.5 -50q0 -35 40 -83q81 44 81 94q0 26 -17.5 42t-41.5 16zM284 127q56 0 100 25q-80 58 -144 118q-45 -32 -45 -74q0 -29 24 -49t65 -20z" />
    <glyph glyph-name="quotesingle" unicode="'" horiz-adv-x="250" 
d="M200 400h-150v300h150v-300z" />
    <glyph glyph-name="parenleft" unicode="(" horiz-adv-x="376" 
d="M55 350q0 130 42 250t108 200h166q-66 -80 -108 -200t-42 -250q0 -129 42 -249.5t108 -200.5h-166q-66 80 -108 200.5t-42 249.5z" />
    <glyph glyph-name="parenright" unicode=")" horiz-adv-x="376" 
d="M321 350q0 -130 -42 -250t-108 -200h-166q66 80 108 200t42 250q0 129 -42 249.5t-108 200.5h166q66 -80 108 -200.5t42 -249.5z" />
    <glyph glyph-name="asterisk" unicode="*" horiz-adv-x="430" 
d="M350 651l50 -87l-95 -49l95 -49l-50 -87l-90 58l5 -107h-100l5 107l-90 -58l-50 87l95 49l-95 49l50 87l90 -58l-5 107h100l-5 -107z" />
    <glyph glyph-name="plus" unicode="+" horiz-adv-x="540" 
d="M190 275h-140v150h140v140h160v-140h140v-150h-140v-140h-160v140z" />
    <glyph glyph-name="comma" unicode="," horiz-adv-x="280" 
d="M140 200q57 0 91 -42t34 -102q0 -93 -48.5 -154.5t-127.5 -83.5l-54 85q101 27 116 96q-45 -7 -80.5 20t-35.5 76q0 43 30.5 74t74.5 31z" />
    <glyph glyph-name="hyphen" unicode="-" horiz-adv-x="340" 
d="M310 192h-280v140h280v-140z" />
    <glyph glyph-name="period" unicode="." horiz-adv-x="280" 
d="M35 95q0 43 30.5 74t74.5 31q43 0 74 -31t31 -74q0 -42 -31 -73.5t-74 -31.5t-74 31.5t-31 73.5z" />
    <glyph glyph-name="slash" unicode="/" horiz-adv-x="369" 
d="M146 -100h-160l237 900h160z" />
    <glyph glyph-name="zero" unicode="0" horiz-adv-x="660" 
d="M40 350q0 154 82 257t208 103t208 -103t82 -257t-82 -257t-208 -103t-208 103t-82 257zM216 350q0 -88 32.5 -146t81.5 -58t81.5 58t32.5 146t-32.5 146t-81.5 58t-81.5 -58t-32.5 -146z" />
    <glyph glyph-name="one" unicode="1" horiz-adv-x="530" 
d="M380 710v-560h150v-150h-500v150h180v367l-180 -47v150z" />
    <glyph glyph-name="two" unicode="2" horiz-adv-x="625" 
d="M453 272l-145 -122h267v-150h-520v130l291 262q48 44 48 91q0 34 -23 53t-61 19t-61 -23.5t-23 -69.5h-176q0 116 74 182t191 66q116 0 185.5 -59.5t69.5 -162.5q0 -118 -117 -216z" />
    <glyph glyph-name="three" unicode="3" horiz-adv-x="580" 
d="M515 570l-154 -146q77 -14 128 -69.5t51 -142.5q0 -97 -73 -159.5t-187 -62.5q-115 0 -184 58.5t-76 169.5l176 20q0 -46 23 -69t62 -23q83 0 83 81q0 37 -28 57.5t-79 20.5h-72v130l121 115h-251v150h460v-130z" />
    <glyph glyph-name="four" unicode="4" horiz-adv-x="606" 
d="M507 700v-430h79v-150h-79v-120h-170v120h-337v150l193 430h314zM337 649l-171 -379h171v379z" />
    <glyph glyph-name="five" unicode="5" horiz-adv-x="594" 
d="M379 451q77 0 131 -55t54 -157q0 -108 -75.5 -178.5t-189.5 -70.5q-111 0 -179.5 55t-79.5 158l175 20q4 -37 26.5 -57t57.5 -20q38 0 63.5 26.5t25.5 66.5t-24.5 66.5t-59.5 26.5q-62 0 -86 -52l-158 18l50 402h400v-150h-267l-27 -211q38 112 163 112z" />
    <glyph glyph-name="six" unicode="6" horiz-adv-x="590" 
d="M445 700l-181 -323q31 40 81.5 51t98 -5.5t82 -65.5t34.5 -118q0 -105 -76 -177t-189 -72q-114 0 -189.5 70.5t-75.5 178.5q0 65 52 158l169 303h194zM295 146q38 0 63.5 26.5t25.5 66.5t-25.5 66.5t-63.5 26.5t-63.5 -26.5t-25.5 -66.5t25.5 -66.5t63.5 -26.5z" />
    <glyph glyph-name="seven" unicode="7" horiz-adv-x="540" 
d="M10 700h510v-130l-67 -145h67v-150h-136l-127 -275h-187l131 275h-191v150h263l60 125h-323v150z" />
    <glyph glyph-name="eight" unicode="8" horiz-adv-x="608" 
d="M421 360q70 -22 108.5 -68.5t38.5 -103.5q0 -86 -70 -142t-194 -56t-194 56t-70 142q0 57 38.5 103.5t108.5 68.5q-57 23 -90.5 66.5t-33.5 94.5q0 79 69 134t172 55t172 -55t69 -134q0 -51 -33.5 -94.5t-90.5 -66.5zM304 559q-30 0 -50 -19t-20 -47q0 -27 20 -46t50 -19
t50 19t20 46q0 28 -20 47t-50 19zM304 141q44 0 68.5 20.5t24.5 53.5t-25.5 55t-67.5 22t-67.5 -22t-25.5 -55t24.5 -53.5t68.5 -20.5z" />
    <glyph glyph-name="nine" unicode="9" horiz-adv-x="590" 
d="M295 710q114 0 189.5 -70.5t75.5 -178.5q0 -65 -52 -158l-169 -303h-194l181 323q-31 -40 -81.5 -51t-98 5.5t-82 65.5t-34.5 118q0 105 76 177t189 72zM295 368q38 0 63.5 26.5t25.5 66.5t-25.5 66.5t-63.5 26.5t-63.5 -26.5t-25.5 -66.5t25.5 -66.5t63.5 -26.5z" />
    <glyph glyph-name="colon" unicode=":" horiz-adv-x="280" 
d="M35 425q0 43 30.5 74t74.5 31q43 0 74 -31t31 -74q0 -42 -31 -73.5t-74 -31.5t-74 31.5t-31 73.5zM35 95q0 43 30.5 74t74.5 31q43 0 74 -31t31 -74q0 -42 -31 -73.5t-74 -31.5t-74 31.5t-31 73.5z" />
    <glyph glyph-name="semicolon" unicode=";" horiz-adv-x="280" 
d="M140 320q-43 0 -74 31.5t-31 73.5q0 43 30.5 74t74.5 31q43 0 74 -31t31 -74q0 -42 -31 -73.5t-74 -31.5zM140 200q57 0 91 -42t34 -102q0 -93 -48.5 -154.5t-127.5 -83.5l-54 85q101 27 116 96q-45 -7 -80.5 20t-35.5 76q0 43 30.5 74t74.5 31z" />
    <glyph glyph-name="less" unicode="&#x3c;" horiz-adv-x="540" 
d="M50 425l440 180v-158l-244 -94l244 -94v-164l-440 180v150z" />
    <glyph glyph-name="equal" unicode="=" horiz-adv-x="540" 
d="M490 405h-440v150h440v-150zM490 145h-440v150h440v-150z" />
    <glyph glyph-name="greater" unicode="&#x3e;" horiz-adv-x="540" 
d="M50 441v164l440 -180v-150l-440 -180v158l244 94z" />
    <glyph glyph-name="question" unicode="?" horiz-adv-x="550" 
d="M342 220h-160q0 52 18 91t43.5 61t51 39.5t43.5 37t18 42.5q0 29 -22 46.5t-59 17.5q-42 0 -65.5 -23.5t-23.5 -69.5h-176q0 116 74 182t191 66t186 -56.5t69 -148.5q0 -50 -19.5 -88.5t-47.5 -61t-56 -41.5t-47 -42t-18 -52zM167 85q0 39 28 67t67 28t67 -28t28 -67
q0 -38 -28 -66.5t-67 -28.5t-67 28.5t-28 66.5z" />
    <glyph glyph-name="at" unicode="@" horiz-adv-x="998" 
d="M634 482h142l-55 -310q-3 -17 5.5 -27.5t27.5 -10.5q34 0 62.5 45.5t28.5 121.5q0 128 -81.5 212t-213.5 84q-170 0 -289 -115t-119 -281q0 -128 81.5 -212t213.5 -84q123 0 225 64l68 -96q-132 -83 -292 -83q-186 0 -302 116t-116 294q0 140 71 257.5t193 185t267 67.5
q185 0 301 -116t116 -294q0 -123 -72 -206.5t-176 -83.5q-55 0 -94 27.5t-48 76.5q-31 -50 -76.5 -79.5t-100.5 -29.5q-71 0 -120 57.5t-49 145.5q0 118 67 200.5t162 82.5q52 0 93 -34t58 -97zM468 134q51 0 88 39t37 94q0 41 -23 68t-62 27q-51 0 -89 -39t-38 -94
q0 -42 24 -68.5t63 -26.5z" />
    <glyph glyph-name="A" unicode="A" horiz-adv-x="740" 
d="M740 0h-181l-41 138h-306l-41 -138h-171l219 700h302zM365 650l-108 -362h216z" />
    <glyph glyph-name="B" unicode="B" horiz-adv-x="650" 
d="M431 352q84 -10 131.5 -56t47.5 -115q0 -78 -59 -129.5t-156 -51.5h-345v700h315q97 0 156 -53t59 -131q0 -62 -39 -105t-110 -59zM348 555h-133v-135h133q35 0 55.5 19t20.5 49t-20.5 48.5t-55.5 18.5zM215 145h149q35 0 55 19t20 49t-20 48.5t-55 18.5h-149v-135z" />
    <glyph glyph-name="C" unicode="C" horiz-adv-x="760" 
d="M30 350q0 152 106.5 256t263.5 104q117 0 204 -59t126 -144l-158 -60q-23 47 -68.5 77t-103.5 30q-82 0 -138 -59t-56 -145t56 -145t138 -59q58 0 103.5 30t68.5 77l158 -60q-39 -85 -126 -144t-204 -59q-157 0 -263.5 104t-106.5 256z" />
    <glyph glyph-name="D" unicode="D" horiz-adv-x="730" 
d="M341 0h-291v700h291q155 0 257 -100.5t102 -249.5t-102 -249.5t-257 -100.5zM220 550v-400h106q89 0 143.5 56t54.5 144t-54.5 144t-143.5 56h-106z" />
    <glyph glyph-name="E" unicode="E" horiz-adv-x="570" 
d="M530 0h-480v700h480v-150h-310v-125h300v-150h-300v-125h310v-150z" />
    <glyph glyph-name="F" unicode="F" horiz-adv-x="530" 
d="M220 0h-170v700h460v-150h-290v-145h280v-150h-280v-255z" />
    <glyph glyph-name="G" unicode="G" 
d="M341 400h420q10 -92 -16.5 -170.5t-78.5 -130t-121 -80.5t-145 -29q-157 0 -263.5 104t-106.5 256t106.5 256t263.5 104q117 0 204 -59t126 -144l-158 -60q-23 47 -68.5 77t-103.5 30q-82 0 -138 -59t-56 -145t56 -145t138 -59q64 0 109 30.5t61 73.5h-229v150z" />
    <glyph glyph-name="H" unicode="H" horiz-adv-x="720" 
d="M220 0h-170v700h170v-275h280v275h170v-700h-170v275h-280v-275z" />
    <glyph glyph-name="I" unicode="I" horiz-adv-x="270" 
d="M220 0h-170v700h170v-700z" />
    <glyph glyph-name="J" unicode="J" horiz-adv-x="558" 
d="M0 218l170 25q1 -51 26.5 -74t62.5 -23q40 0 64.5 25t24.5 67v462h170v-462q0 -115 -77 -181.5t-187 -66.5q-104 0 -174.5 60.5t-79.5 167.5z" />
    <glyph glyph-name="K" unicode="K" horiz-adv-x="690" 
d="M416 416l274 -416h-204l-185 283l-81 -94v-189h-170v700h170v-271l229 271h211z" />
    <glyph glyph-name="L" unicode="L" horiz-adv-x="550" 
d="M530 0h-480v700h170v-550h310v-150z" />
    <glyph glyph-name="M" unicode="M" horiz-adv-x="920" 
d="M850 700v-700h-160v649l-90 -649h-301l-89 649v-649h-160v700h313l89 -649l90 649h308z" />
    <glyph glyph-name="N" unicode="N" horiz-adv-x="740" 
d="M520 51v649h170v-700h-329l-141 649v-649h-170v700h329z" />
    <glyph glyph-name="O" unicode="O" 
d="M30 350q0 152 106.5 256t263.5 104t263.5 -104t106.5 -256t-106.5 -256t-263.5 -104t-263.5 104t-106.5 256zM206 350q0 -86 56 -145t138 -59t138 59t56 145t-56 145t-138 59t-138 -59t-56 -145z" />
    <glyph glyph-name="P" unicode="P" horiz-adv-x="640" 
d="M220 0h-170v700h309q123 0 197 -69t74 -176t-74 -173.5t-197 -66.5h-139v-215zM220 550v-185h139q43 0 69 26t26 66q0 41 -26 67t-69 26h-139z" />
    <glyph glyph-name="Q" unicode="Q" 
d="M770 350q0 -138 -89 -238l76 -91l-122 -103l-85 101q-70 -29 -150 -29q-157 0 -263.5 104t-106.5 256t106.5 256t263.5 104t263.5 -104t106.5 -256zM400 146q23 0 40 4l-71 84l122 103l77 -91q26 46 26 104q0 86 -56 145t-138 59t-138 -59t-56 -145t56 -145t138 -59z" />
    <glyph glyph-name="R" unicode="R" horiz-adv-x="660" 
d="M477 251l163 -251h-202l-149 230h-69v-230h-170v700h310q118 0 189 -66t71 -169q0 -73 -37.5 -129.5t-105.5 -84.5zM360 550h-140v-165h140q38 0 61 23t23 59t-23 59.5t-61 23.5z" />
    <glyph glyph-name="S" unicode="S" horiz-adv-x="637" 
d="M40 187l172 35q18 -86 114 -86q42 0 68.5 19t26.5 46q0 22 -20 37t-52.5 24t-71.5 18.5t-78 24.5t-71.5 37t-52.5 61t-20 92q0 92 77 153.5t189 61.5q113 0 185.5 -54t85.5 -143l-172 -35q-8 40 -35 63t-70 23q-38 0 -61 -16.5t-23 -42.5q0 -24 27 -40t68 -24t88 -24
t88 -37t68 -66t27 -108q0 -92 -79.5 -154t-196.5 -62q-116 0 -191.5 54t-89.5 143z" />
    <glyph glyph-name="T" unicode="T" horiz-adv-x="600" 
d="M385 0h-170v550h-205v150h580v-150h-205v-550z" />
    <glyph glyph-name="U" unicode="U" horiz-adv-x="700" 
d="M40 282v418h170v-418q0 -60 38 -98t102 -38t102 38t38 98v418h170v-418q0 -128 -87 -210t-223 -82t-223 82t-87 210z" />
    <glyph glyph-name="V" unicode="V" horiz-adv-x="710" 
d="M360 51l179 649h171l-207 -700h-296l-207 700h181z" />
    <glyph glyph-name="W" unicode="W" horiz-adv-x="1070" 
d="M776 47l84 653h170l-90 -700h-328l-79 640l-80 -640h-323l-90 700h170l84 -653l81 653h320z" />
    <glyph glyph-name="X" unicode="X" horiz-adv-x="688" 
d="M487 700h201l-243 -348l243 -352h-206l-140 213l-141 -213h-201l243 348l-243 352h206l140 -213z" />
    <glyph glyph-name="Y" unicode="Y" horiz-adv-x="682" 
d="M692 700l-266 -458v-92h105v-150h-380v150h105v92l-266 458h200l156 -288l156 288h190z" />
    <glyph glyph-name="Z" unicode="Z" horiz-adv-x="620" 
d="M50 700h520v-303l-469 -247h469v-150h-520v303l469 247h-469v150z" />
    <glyph glyph-name="bracketleft" unicode="[" horiz-adv-x="325" 
d="M320 -100h-270v900h270v-150h-100v-600h100v-150z" />
    <glyph glyph-name="backslash" unicode="\" horiz-adv-x="369" 
d="M383 -100h-160l-237 900h160z" />
    <glyph glyph-name="bracketright" unicode="]" horiz-adv-x="325" 
d="M275 -100h-270v150h100v600h-100v150h270v-900z" />
    <glyph glyph-name="asciicircum" unicode="^" horiz-adv-x="640" 
d="M455 740l155 -520h-172l-123 470l-123 -470h-162l155 520h270z" />
    <glyph glyph-name="underscore" unicode="_" horiz-adv-x="520" 
d="M510 -150h-500v140h500v-140z" />
    <glyph glyph-name="grave" unicode="`" horiz-adv-x="380" 
d="M330 580h-157l-123 160h177z" />
    <glyph glyph-name="a" unicode="a" horiz-adv-x="546" 
d="M270 530q104 0 167.5 -53.5t63.5 -157.5v-319h-160v122q-39 -132 -170 -132q-61 0 -106 42t-45 110q0 152 208 172l71 6q42 3 42 34q0 20 -19.5 33t-49.5 13q-34 0 -54 -18t-24 -47l-159 34q8 67 70.5 114t164.5 47zM232 115q42 0 75.5 30t33.5 67v3q-10 -5 -37 -8
l-77 -9q-47 -6 -47 -42q0 -19 13.5 -30t38.5 -11z" />
    <glyph glyph-name="b" unicode="b" horiz-adv-x="634" 
d="M389 530q93 0 154 -77.5t61 -192.5t-61 -192.5t-154 -77.5q-64 0 -111 42t-68 113v-145h-160v740h160v-365q21 71 68 113t111 42zM329 136q45 0 77 35.5t32 88.5t-32 88.5t-77 35.5q-52 0 -85.5 -35t-33.5 -89t33.5 -89t85.5 -35z" />
    <glyph glyph-name="c" unicode="c" horiz-adv-x="580" 
d="M30 260q0 115 80.5 192.5t199.5 77.5q83 0 150 -43.5t100 -123.5l-146 -50q-31 71 -104 71q-49 0 -81.5 -35.5t-32.5 -88.5t32.5 -88.5t81.5 -35.5q73 0 104 71l146 -50q-33 -80 -100 -123.5t-150 -43.5q-119 0 -199.5 77.5t-80.5 192.5z" />
    <glyph glyph-name="d" unicode="d" horiz-adv-x="634" 
d="M424 375v365h160v-740h-160v145q-21 -71 -68 -113t-111 -42q-93 0 -154 77.5t-61 192.5t61 192.5t154 77.5q64 0 111 -42t68 -113zM305 136q52 0 85.5 35t33.5 89t-33.5 89t-85.5 35q-45 0 -77 -35.5t-32 -88.5t32 -88.5t77 -35.5z" />
    <glyph glyph-name="e" unicode="e" horiz-adv-x="610" 
d="M305 530q135 0 215 -98t54 -230h-377q14 -35 45.5 -55.5t72.5 -20.5q73 0 109 58l130 -60q-37 -61 -100 -97.5t-144 -36.5q-119 0 -199.5 77.5t-80.5 192.5t79 192.5t196 77.5zM305 394q-35 0 -63 -19.5t-43 -52.5h213q-29 72 -107 72z" />
    <glyph glyph-name="f" unicode="f" horiz-adv-x="415" 
d="M270 0h-160v380h-100v140h100v10q0 210 220 210h65v-140h-65q-60 0 -60 -60v-20h125v-140h-125v-380z" />
    <glyph glyph-name="g" unicode="g" horiz-adv-x="634" 
d="M424 380v140h160v-460q0 -115 -80.5 -192.5t-199.5 -77.5q-79 0 -142 37t-98 98l142 77q34 -67 98 -67q50 0 85 35.5t35 89.5v100q-21 -69 -68 -109.5t-111 -40.5q-93 0 -154 74.5t-61 185.5t61 185.5t154 74.5q64 0 111 -40.5t68 -109.5zM310 156q49 0 81.5 32.5
t32.5 81.5t-32.5 81.5t-81.5 32.5t-81.5 -32.5t-32.5 -81.5t32.5 -81.5t81.5 -32.5z" />
    <glyph glyph-name="h" unicode="h" horiz-adv-x="615" 
d="M385 530q84 0 134.5 -58.5t50.5 -152.5v-319h-160v289q0 43 -27 69.5t-68 26.5q-47 0 -76 -26.5t-29 -69.5v-289h-160v740h160v-350q21 65 67 102.5t108 37.5z" />
    <glyph glyph-name="i" unicode="i" horiz-adv-x="260" 
d="M35 660q0 39 28 67t67 28t67 -28t28 -67q0 -38 -28 -66.5t-67 -28.5t-67 28.5t-28 66.5zM210 0h-160v520h160v-520z" />
    <glyph glyph-name="j" unicode="j" horiz-adv-x="280" 
d="M55 660q0 39 28 67t67 28t67 -28t28 -67q0 -38 -28 -66.5t-67 -28.5t-67 28.5t-28 66.5zM-15 -210v140q54 0 69.5 17.5t15.5 72.5v500h160v-500q0 -243 -245 -230z" />
    <glyph glyph-name="k" unicode="k" horiz-adv-x="590" 
d="M371 299l229 -299h-201l-137 178l-52 -58v-120h-160v740h160v-406l160 186h200z" />
    <glyph glyph-name="l" unicode="l" horiz-adv-x="260" 
d="M210 0h-160v740h160v-740z" />
    <glyph glyph-name="m" unicode="m" horiz-adv-x="895" 
d="M680 530q77 0 123.5 -59t46.5 -152v-319h-160v289q0 42 -21 69t-54 27q-38 0 -61.5 -26.5t-23.5 -69.5v-289h-160v289q0 42 -21 69t-54 27q-38 0 -61.5 -26.5t-23.5 -69.5v-289h-160v520h160v-123q20 62 60.5 97.5t94.5 35.5q58 0 99 -36t57 -97q20 62 62 97.5t97 35.5z
" />
    <glyph glyph-name="n" unicode="n" horiz-adv-x="615" 
d="M385 530q84 0 134.5 -58.5t50.5 -152.5v-319h-160v289q0 43 -27 69.5t-68 26.5q-47 0 -76 -26.5t-29 -69.5v-289h-160v520h160v-130q21 65 67 102.5t108 37.5z" />
    <glyph glyph-name="o" unicode="o" horiz-adv-x="620" 
d="M30 260q0 115 80.5 192.5t199.5 77.5t199.5 -77.5t80.5 -192.5t-80.5 -192.5t-199.5 -77.5t-199.5 77.5t-80.5 192.5zM196 260q0 -53 32.5 -88.5t81.5 -35.5t81.5 35.5t32.5 88.5t-32.5 88.5t-81.5 35.5t-81.5 -35.5t-32.5 -88.5z" />
    <glyph glyph-name="p" unicode="p" horiz-adv-x="634" 
d="M389 530q93 0 154 -77.5t61 -192.5t-61 -192.5t-154 -77.5q-64 0 -111 42t-68 113v-345h-160v720h160v-145q21 71 68 113t111 42zM329 136q45 0 77 35.5t32 88.5t-32 88.5t-77 35.5q-52 0 -85.5 -35t-33.5 -89t33.5 -89t85.5 -35z" />
    <glyph glyph-name="q" unicode="q" horiz-adv-x="634" 
d="M424 375v145h160v-720h-160v345q-21 -71 -68 -113t-111 -42q-93 0 -154 77.5t-61 192.5t61 192.5t154 77.5q64 0 111 -42t68 -113zM305 136q52 0 85.5 35t33.5 89t-33.5 89t-85.5 35q-45 0 -77 -35.5t-32 -88.5t32 -88.5t77 -35.5z" />
    <glyph glyph-name="r" unicode="r" horiz-adv-x="417" 
d="M210 520v-130q13 49 34.5 81.5t46 44.5t52.5 14t54 -10v-150q-80 31 -133.5 6.5t-53.5 -87.5v-289h-160v520h160z" />
    <glyph glyph-name="s" unicode="s" horiz-adv-x="510" 
d="M20 142l159 34q7 -61 76 -61q34 0 54 12.5t20 29.5q0 18 -22 28t-54.5 13t-70.5 12t-70.5 22t-54.5 46t-22 83q0 72 63.5 120.5t156.5 48.5q95 0 157 -41t73 -111l-159 -34q-7 61 -71 61q-25 0 -42 -10.5t-17 -26.5q0 -19 22 -30t54.5 -14.5t70.5 -12.5t70.5 -22.5
t54.5 -46.5t22 -83q0 -71 -68.5 -120t-166.5 -49q-99 0 -161.5 41t-73.5 111z" />
    <glyph glyph-name="t" unicode="t" horiz-adv-x="425" 
d="M110 380h-100v140h100v140l160 50v-190h125v-140h-125v-180q0 -60 60 -60h65v-140h-65q-220 0 -220 210v170z" />
    <glyph glyph-name="u" unicode="u" horiz-adv-x="590" 
d="M45 222v298h160v-298q0 -39 24.5 -62.5t65.5 -23.5q39 0 64.5 23.5t25.5 62.5v298h160v-298q0 -103 -70.5 -167.5t-179.5 -64.5q-111 0 -180.5 64.5t-69.5 167.5z" />
    <glyph glyph-name="v" unicode="v" horiz-adv-x="560" 
d="M285 50l123 470h162l-155 -520h-270l-155 520h172z" />
    <glyph glyph-name="w" unicode="w" horiz-adv-x="848" 
d="M623 51l75 469h150l-93 -520h-266l-65 476l-65 -476h-266l-93 520h150l75 -469l55 469h288z" />
    <glyph glyph-name="x" unicode="x" horiz-adv-x="580" 
d="M385 520h185l-185 -257l185 -263h-196l-88 146l-91 -146h-185l185 257l-185 263h196l88 -146z" />
    <glyph glyph-name="y" unicode="y" horiz-adv-x="560" 
d="M277 44l131 476h162l-198 -720h-162l55 200h-130l-145 520h172z" />
    <glyph glyph-name="z" unicode="z" horiz-adv-x="540" 
d="M50 380v140h440v-265l-389 -115h389v-140h-440v265l389 115h-389z" />
    <glyph glyph-name="braceleft" unicode="{" horiz-adv-x="347" 
d="M275 170l-10 -28q-14 -39 9.5 -65.5t57.5 -26.5l-30 -150q-44 0 -87.5 15t-77.5 43.5t-47 70t5 93.5l10 28q45 125 -105 125v150q150 0 105 125l-10 28q-18 52 -5 93.5t47 70t77.5 43.5t87.5 15l30 -150q-34 0 -57 -27t-10 -65l10 -28q23 -63 -11 -110t-104 -70
q65 -19 102.5 -64t12.5 -116z" />
    <glyph glyph-name="bar" unicode="|" horiz-adv-x="250" 
d="M200 -200h-150v1100h150v-1100z" />
    <glyph glyph-name="braceright" unicode="}" horiz-adv-x="347" 
d="M347 425v-150q-150 0 -105 -125l10 -28q18 -52 5 -93.5t-47 -70t-77.5 -43.5t-87.5 -15l-30 150q34 0 57 27t10 65l-10 28q-23 63 11 110t104 70q-65 19 -102.5 64t-12.5 116l10 28q13 38 -10 65t-57 27l30 150q44 0 87.5 -15t77.5 -43.5t47 -70t-5 -93.5l-10 -28
q-45 -125 105 -125z" />
    <glyph glyph-name="asciitilde" unicode="~" horiz-adv-x="560" 
d="M154 254l-124 60q15 62 61.5 102t110.5 40q40 0 68 -15t46 -29.5t33 -14.5q40 0 58 49l123 -60q-14 -62 -60 -102t-111 -40q-40 0 -68 14.5t-46 29t-33 14.5q-42 0 -58 -48z" />
    <glyph glyph-name="uni00A0" unicode="&#xa0;" horiz-adv-x="300" 
 />
    <glyph glyph-name="exclamdown" unicode="&#xa1;" horiz-adv-x="320" 
d="M255 415q0 -39 -28 -67t-67 -28t-67 28t-28 67q0 38 28 66.5t67 28.5t67 -28.5t28 -66.5zM100 280h120l30 -300v-180h-180v180z" />
    <glyph glyph-name="cent" unicode="&#xa2;" horiz-adv-x="576" 
d="M367 369v-218q30 18 47 56l146 -50q-56 -135 -193 -161v-116h-120v116q-96 20 -156.5 93t-60.5 171t60.5 171t156.5 93v116h120v-116q137 -26 193 -161l-146 -50q-17 38 -47 56zM196 260q0 -69 51 -105v210q-51 -36 -51 -105z" />
    <glyph glyph-name="sterling" unicode="&#xa3;" horiz-adv-x="660" 
d="M500 295h-200v-145h330v-150h-580v150h80v145h-80v110h80v73q0 103 69.5 167.5t180.5 64.5q109 0 179.5 -64.5t70.5 -167.5h-170q0 34 -22.5 55t-57.5 21t-57.5 -21t-22.5 -55v-73h200v-110z" />
    <glyph glyph-name="currency" unicode="&#xa4;" horiz-adv-x="746" 
d="M658 350q0 -70 -32 -128l95 -95l-120 -120l-99 99q-57 -26 -124 -26t-124 26l-99 -99l-120 120l95 95q-32 58 -32 128t32 128l-95 95l120 120l99 -99q57 26 124 26t124 -26l99 99l120 -120l-95 -95q32 -58 32 -128zM264 350q0 -53 32.5 -88.5t81.5 -35.5t81.5 35.5
t32.5 88.5t-32.5 88.5t-81.5 35.5t-81.5 -35.5t-32.5 -88.5z" />
    <glyph glyph-name="yen" unicode="&#xa5;" horiz-adv-x="682" 
d="M502 700h190l-131 -225h71v-100h-129l-29 -50h158v-100h-206v-75h105v-150h-380v150h105v75h-206v100h158l-29 50h-129v100h71l-131 225h200l156 -288z" />
    <glyph glyph-name="brokenbar" unicode="&#xa6;" horiz-adv-x="250" 
d="M200 450h-150v450h150v-450zM200 -200h-150v450h150v-450z" />
    <glyph glyph-name="section" unicode="&#xa7;" horiz-adv-x="619" 
d="M520 121q49 -47 49 -130t-73.5 -142t-181.5 -59q-110 0 -178 48t-86 138l173 33q6 -37 31.5 -55t60.5 -18q33 0 55.5 14t22.5 37q0 27 -36.5 42t-88.5 26t-103.5 27.5t-88 58t-36.5 105.5q0 71 59 133q-49 47 -49 130t73.5 142t181.5 59q110 0 178 -48t86 -138l-173 -33
q-6 37 -31.5 55t-60.5 18q-33 0 -55.5 -14t-22.5 -37q0 -27 36.5 -42t88 -26t103.5 -27.5t88.5 -58t36.5 -105.5q0 -71 -59 -133zM220 270q0 -15 8 -26.5t28 -19.5t35 -12.5t48 -12t48 -11.5q12 19 12 42q0 15 -8 26.5t-28 19.5t-35 12.5t-48 12t-48 11.5q-12 -19 -12 -42z
" />
    <glyph glyph-name="dieresis" unicode="&#xa8;" horiz-adv-x="520" 
d="M50 660q0 37 26.5 63.5t63.5 26.5t63.5 -26.5t26.5 -63.5q0 -36 -26.5 -63t-63.5 -27t-63.5 27t-26.5 63zM290 660q0 37 26.5 63.5t63.5 26.5t63.5 -26.5t26.5 -63.5q0 -36 -26.5 -63t-63.5 -27t-63.5 27t-26.5 63z" />
    <glyph glyph-name="copyright" unicode="&#xa9;" horiz-adv-x="780" 
d="M30 350q0 152 104 256t256 104t256 -104t104 -256t-104 -256t-256 -104t-256 104t-104 256zM144 350q0 -107 70.5 -179.5t175.5 -72.5t175.5 72.5t70.5 179.5t-70.5 179.5t-175.5 72.5t-175.5 -72.5t-70.5 -179.5zM199 350q0 80 57 135t142 55q59 0 106 -30.5t71 -88.5
l-119 -40q-17 41 -58 41q-27 0 -45 -20.5t-18 -51.5t18 -51.5t45 -20.5q41 0 58 41l119 -40q-24 -58 -71 -88.5t-106 -30.5q-85 0 -142 55t-57 135z" />
    <glyph glyph-name="ordfeminine" unicode="&#xaa;" horiz-adv-x="393" 
d="M188 707q77 0 123.5 -38.5t46.5 -115.5v-219h-130v73q-32 -80 -111 -80q-42 0 -74.5 30.5t-32.5 78.5q0 113 152 125l41 3q25 1 25 19q0 9 -10 15.5t-26 6.5q-19 0 -30 -11t-12 -27l-129 26q3 46 48 80t119 34zM167 428q22 0 41.5 16.5t19.5 37.5v1q-9 -5 -19 -7l-46 -6
q-22 -3 -22 -22q0 -20 26 -20z" />
    <glyph glyph-name="guillemotleft" unicode="&#xab;" horiz-adv-x="585" 
d="M280 40l-250 145v150l250 145v-159l-118 -58l118 -58v-165zM305 335l250 145v-159l-118 -58l118 -58v-165l-250 145v150z" />
    <glyph glyph-name="logicalnot" unicode="&#xac;" horiz-adv-x="540" 
d="M330 275h-280v150h440v-290h-160v140z" />
    <glyph glyph-name="uni00AD" unicode="&#xad;" horiz-adv-x="340" 
d="M310 192h-280v140h280v-140z" />
    <glyph glyph-name="registered" unicode="&#xae;" horiz-adv-x="190" 
d="M95 705q34 0 59.5 -24.5t25.5 -59.5t-25 -59.5t-60 -24.5t-60 24.5t-25 59.5t25.5 59.5t59.5 24.5zM95 562q25 0 42 17t17 42q0 26 -17 43t-42 17t-42 -17t-17 -43q0 -25 17 -42t42 -17zM133 633q0 -16 -13 -24l17 -27h-31l-14 23h-5v-23h-27v79h45q12 0 20 -8.5t8 -19.5
zM100 639h-13v-12h13q6 0 6 6t-6 6z" />
    <glyph glyph-name="macron" unicode="&#xaf;" horiz-adv-x="420" 
d="M370 600h-320v120h320v-120z" />
    <glyph glyph-name="degree" unicode="&#xb0;" horiz-adv-x="480" 
d="M30 510q0 86 60 143t150 57t150 -57t60 -143t-60 -143t-150 -57t-150 57t-60 143zM176 510q0 -27 18 -45.5t46 -18.5t46 18.5t18 45.5t-18 45.5t-46 18.5t-46 -18.5t-18 -45.5z" />
    <glyph glyph-name="plusminus" unicode="&#xb1;" horiz-adv-x="540" 
d="M490 425v-150h-140v-125h140v-150h-440v150h140v125h-140v150h140v140h160v-140h140z" />
    <glyph glyph-name="acute" unicode="&#xb4;" horiz-adv-x="380" 
d="M207 580h-157l103 160h177z" />
    <glyph glyph-name="uni00B5" unicode="&#xb5;" horiz-adv-x="620" 
d="M410 231v289h160v-520h-160v128q-20 -64 -61 -101t-95 -37q-21 0 -44 5v-195h-160v720h160v-289q0 -44 23 -70t67 -26q51 0 80.5 26.5t29.5 69.5z" />
    <glyph glyph-name="paragraph" unicode="&#xb6;" horiz-adv-x="648" 
d="M378 0h-140v344h-30q-76 0 -127 51t-51 127t51 127t127 51h360v-700h-140v570h-50v-570z" />
    <glyph glyph-name="periodcentered" unicode="&#xb7;" horiz-adv-x="280" 
d="M35 350q0 44 30.5 74.5t74.5 30.5q43 0 74 -31t31 -74q0 -42 -31 -73.5t-74 -31.5t-74 31.5t-31 73.5z" />
    <glyph glyph-name="cedilla" unicode="&#xb8;" horiz-adv-x="336" 
d="M50 -199l20 125q12 -3 22 -3q19 0 30 9t11 24q0 21 -23 44l37 10q66 -12 101.5 -44.5t35.5 -71.5q0 -42 -41.5 -73t-112.5 -31q-40 0 -80 11z" />
    <glyph glyph-name="ordmasculine" unicode="&#xba;" horiz-adv-x="438" 
d="M20 517q0 80 57 135t142 55t142 -55t57 -135t-57 -135t-142 -55t-142 55t-57 135zM156 517q0 -31 18 -51.5t45 -20.5t45 20.5t18 51.5t-18 51.5t-45 20.5t-45 -20.5t-18 -51.5z" />
    <glyph glyph-name="guillemotright" unicode="&#xbb;" horiz-adv-x="585" 
d="M148 257l-118 58v165l250 -145v-150l-250 -145v159zM305 315v165l250 -145v-150l-250 -145v159l118 58z" />
    <glyph glyph-name="onequarter" unicode="&#xbc;" horiz-adv-x="931" 
d="M272 396h88v-116h-330v116h108v160l-108 -25v116l242 59v-310zM200 0l412 700h160l-412 -700h-160zM876 420v-249h45v-114h-45v-57h-132v57h-212v114l117 249h227zM744 373l-94 -202h94v202z" />
    <glyph glyph-name="onehalf" unicode="&#xbd;" horiz-adv-x="956" 
d="M272 396h88v-116h-330v116h108v160l-108 -25v116l242 59v-310zM200 0l412 700h160l-412 -700h-160zM837 153l-66 -37h155v-116h-349v108l188 139q23 17 23 34q0 29 -37 29q-16 0 -28.5 -10.5t-12.5 -31.5h-138q0 77 50.5 117.5t128.5 40.5q80 0 127.5 -37.5t47.5 -103.5
q0 -82 -89 -132z" />
    <glyph glyph-name="threequarters" unicode="&#xbe;" horiz-adv-x="918" 
d="M367 410q0 -65 -48 -100.5t-125 -35.5q-76 0 -122.5 35t-51.5 108l138 15q-1 -41 37 -41q34 0 34 27q0 29 -54 29h-54v99l63 38h-140v116h306v-116l-75 -50q92 -36 92 -124zM187 0l412 700h160l-412 -700h-160zM863 420v-249h45v-114h-45v-57h-132v57h-212v114l117 249
h227zM731 373l-94 -202h94v202z" />
    <glyph glyph-name="questiondown" unicode="&#xbf;" horiz-adv-x="550" 
d="M383 415q0 -39 -28 -67t-67 -28t-67 28t-28 67q0 38 28 66.5t67 28.5t67 -28.5t28 -66.5zM208 280h160q0 -52 -18 -91t-43.5 -61t-51 -39.5t-43.5 -37t-18 -42.5q0 -29 22 -46.5t59 -17.5q42 0 65.5 23.5t23.5 69.5h176q0 -116 -74 -182t-191 -66t-186 56.5t-69 148.5
q0 50 19.5 88.5t47.5 61t56 41.5t47 42t18 52z" />
    <glyph glyph-name="Agrave" unicode="&#xc0;" horiz-adv-x="740" 
d="M356 900l142 -155h-174l-162 155h194zM740 0h-181l-41 138h-306l-41 -138h-171l219 700h302zM365 650l-108 -362h216z" />
    <glyph glyph-name="Aacute" unicode="&#xc1;" horiz-adv-x="740" 
d="M384 900h194l-162 -155h-174zM740 0h-181l-41 138h-306l-41 -138h-171l219 700h302zM365 650l-108 -362h216z" />
    <glyph glyph-name="Acircumflex" unicode="&#xc2;" horiz-adv-x="740" 
d="M425 745l-55 56l-55 -56h-174l145 155h168l145 -155h-174zM740 0h-181l-41 138h-306l-41 -138h-171l219 700h302zM365 650l-108 -362h216z" />
    <glyph glyph-name="Atilde" unicode="&#xc3;" horiz-adv-x="740" 
d="M295 787q-33 0 -46 -39l-99 48q11 49 52 81.5t93 32.5q47 0 90.5 -23.5t59.5 -23.5q33 0 46 39l99 -48q-11 -49 -52 -81.5t-93 -32.5q-47 0 -90.5 23.5t-59.5 23.5zM740 0h-181l-41 138h-306l-41 -138h-171l219 700h302zM365 650l-108 -362h216z" />
    <glyph glyph-name="Adieresis" unicode="&#xc4;" horiz-adv-x="740" 
d="M250 735q-37 0 -63.5 27t-26.5 63q0 37 26.5 63.5t63.5 26.5t63.5 -26.5t26.5 -63.5q0 -36 -26.5 -63t-63.5 -27zM490 735q-37 0 -63.5 27t-26.5 63q0 37 26.5 63.5t63.5 26.5t63.5 -26.5t26.5 -63.5q0 -36 -26.5 -63t-63.5 -27zM740 0h-181l-41 138h-306l-41 -138h-171
l219 700h302zM365 650l-108 -362h216z" />
    <glyph glyph-name="Aring" unicode="&#xc5;" horiz-adv-x="740" 
d="M370 710q-61 0 -101.5 35.5t-40.5 89.5q0 53 40.5 89t101.5 36t101 -36t40 -89q0 -54 -40 -89.5t-101 -35.5zM370 875q-17 0 -29 -11.5t-12 -28.5t12 -28.5t29 -11.5t28.5 11.5t11.5 28.5t-11.5 28.5t-28.5 11.5zM740 0h-181l-41 138h-306l-41 -138h-171l219 700h302z
M365 650l-108 -362h216z" />
    <glyph glyph-name="AE" unicode="&#xc6;" horiz-adv-x="1000" 
d="M960 700v-150h-310v-125h300v-150h-300v-125h310v-150h-480v138h-236l-79 -138h-185l401 700h579zM480 551l-150 -263h150v263z" />
    <glyph glyph-name="Ccedilla" unicode="&#xc7;" horiz-adv-x="760" 
d="M400 146q58 0 103.5 30t68.5 77l158 -60q-36 -79 -114.5 -136t-184.5 -66q75 -34 75 -97q0 -42 -41.5 -73t-112.5 -31q-40 0 -80 11l20 125q12 -3 22 -3q19 0 30 9t11 24q0 18 -18 39q-134 21 -220.5 120t-86.5 235q0 152 106.5 256t263.5 104q117 0 204 -59t126 -144
l-158 -60q-23 47 -68.5 77t-103.5 30q-82 0 -138 -59t-56 -145t56 -145t138 -59z" />
    <glyph glyph-name="Egrave" unicode="&#xc8;" horiz-adv-x="570" 
d="M413 745h-174l-162 155h194zM530 0h-480v700h480v-150h-310v-125h300v-150h-300v-125h310v-150z" />
    <glyph glyph-name="Eacute" unicode="&#xc9;" horiz-adv-x="570" 
d="M331 745h-174l142 155h194zM530 0h-480v700h480v-150h-310v-125h300v-150h-300v-125h310v-150z" />
    <glyph glyph-name="Ecircumflex" unicode="&#xca;" horiz-adv-x="570" 
d="M340 745l-55 56l-55 -56h-174l145 155h168l145 -155h-174zM530 700v-150h-310v-125h300v-150h-300v-125h310v-150h-480v700h480z" />
    <glyph glyph-name="Edieresis" unicode="&#xcb;" horiz-adv-x="570" 
d="M75 825q0 37 26.5 63.5t63.5 26.5t63.5 -26.5t26.5 -63.5q0 -36 -26.5 -63t-63.5 -27t-63.5 27t-26.5 63zM315 825q0 37 26.5 63.5t63.5 26.5t63.5 -26.5t26.5 -63.5q0 -36 -26.5 -63t-63.5 -27t-63.5 27t-26.5 63zM530 0h-480v700h480v-150h-310v-125h300v-150h-300
v-125h310v-150z" />
    <glyph glyph-name="Igrave" unicode="&#xcc;" horiz-adv-x="270" 
d="M263 745h-174l-162 155h194zM220 0h-170v700h170v-700z" />
    <glyph glyph-name="Iacute" unicode="&#xcd;" horiz-adv-x="270" 
d="M181 745h-174l142 155h194zM220 0h-170v700h170v-700z" />
    <glyph glyph-name="Icircumflex" unicode="&#xce;" horiz-adv-x="270" 
d="M190 745l-55 56l-55 -56h-174l145 155h168l145 -155h-174zM220 0h-170v700h170v-700z" />
    <glyph glyph-name="Idieresis" unicode="&#xcf;" horiz-adv-x="270" 
d="M-60 825q0 37 26.5 63.5t63.5 26.5t63.5 -26.5t26.5 -63.5q0 -36 -26.5 -63t-63.5 -27t-63.5 27t-26.5 63zM150 825q0 37 26.5 63.5t63.5 26.5t63.5 -26.5t26.5 -63.5q0 -36 -26.5 -63t-63.5 -27t-63.5 27t-26.5 63zM220 0h-170v700h170v-700z" />
    <glyph glyph-name="Eth" unicode="&#xd0;" horiz-adv-x="780" 
d="M100 700h291q155 0 257 -100.5t102 -249.5t-102 -249.5t-257 -100.5h-291v290h-100v120h100v290zM270 150h106q89 0 143.5 56t54.5 144t-54.5 144t-143.5 56h-106v-140h60v-120h-60v-140z" />
    <glyph glyph-name="Ntilde" unicode="&#xd1;" horiz-adv-x="740" 
d="M295 787q-33 0 -46 -39l-99 48q11 49 52 81.5t93 32.5q47 0 90.5 -23.5t59.5 -23.5q33 0 46 39l99 -48q-11 -49 -52 -81.5t-93 -32.5q-47 0 -90.5 23.5t-59.5 23.5zM520 51v649h170v-700h-329l-141 649v-649h-170v700h329z" />
    <glyph glyph-name="Ograve" unicode="&#xd2;" 
d="M528 745h-174l-162 155h194zM30 350q0 152 106.5 256t263.5 104t263.5 -104t106.5 -256t-106.5 -256t-263.5 -104t-263.5 104t-106.5 256zM206 350q0 -86 56 -145t138 -59t138 59t56 145t-56 145t-138 59t-138 -59t-56 -145z" />
    <glyph glyph-name="Oacute" unicode="&#xd3;" 
d="M446 745h-174l142 155h194zM30 350q0 152 106.5 256t263.5 104t263.5 -104t106.5 -256t-106.5 -256t-263.5 -104t-263.5 104t-106.5 256zM206 350q0 -86 56 -145t138 -59t138 59t56 145t-56 145t-138 59t-138 -59t-56 -145z" />
    <glyph glyph-name="Ocircumflex" unicode="&#xd4;" 
d="M455 745l-55 56l-55 -56h-174l145 155h168l145 -155h-174zM400 710q157 0 263.5 -104t106.5 -256t-106.5 -256t-263.5 -104t-263.5 104t-106.5 256t106.5 256t263.5 104zM400 146q82 0 138 59t56 145t-56 145t-138 59t-138 -59t-56 -145t56 -145t138 -59z" />
    <glyph glyph-name="Otilde" unicode="&#xd5;" 
d="M279 748l-99 48q11 49 52 81.5t93 32.5q47 0 90.5 -23.5t59.5 -23.5q33 0 46 39l99 -48q-11 -49 -52 -81.5t-93 -32.5q-47 0 -90.5 23.5t-59.5 23.5q-33 0 -46 -39zM30 350q0 152 106.5 256t263.5 104t263.5 -104t106.5 -256t-106.5 -256t-263.5 -104t-263.5 104
t-106.5 256zM206 350q0 -86 56 -145t138 -59t138 59t56 145t-56 145t-138 59t-138 -59t-56 -145z" />
    <glyph glyph-name="Odieresis" unicode="&#xd6;" 
d="M190 825q0 37 26.5 63.5t63.5 26.5t63.5 -26.5t26.5 -63.5q0 -36 -26.5 -63t-63.5 -27t-63.5 27t-26.5 63zM430 825q0 37 26.5 63.5t63.5 26.5t63.5 -26.5t26.5 -63.5q0 -36 -26.5 -63t-63.5 -27t-63.5 27t-26.5 63zM30 350q0 152 106.5 256t263.5 104t263.5 -104
t106.5 -256t-106.5 -256t-263.5 -104t-263.5 104t-106.5 256zM206 350q0 -86 56 -145t138 -59t138 59t56 145t-56 145t-138 59t-138 -59t-56 -145z" />
    <glyph glyph-name="multiply" unicode="&#xd7;" horiz-adv-x="540" 
d="M387 573l106 -106l-113 -113l113 -114l-113 -113l-113 114l-114 -114l-106 106l114 114l-114 113l113 113l114 -113z" />
    <glyph glyph-name="Oslash" unicode="&#xd8;" 
d="M720 676l-52 -74q102 -104 102 -252q0 -152 -106.5 -256t-263.5 -104q-76 0 -142 26l-55 -78l-123 86l52 74q-102 104 -102 252q0 152 106.5 256t263.5 104q76 0 142 -26l55 78zM206 350q0 -58 27 -107l214 305q-22 6 -47 6q-82 0 -138 -59t-56 -145zM400 146
q82 0 138 59t56 145q0 58 -27 107l-214 -305q23 -6 47 -6z" />
    <glyph glyph-name="Ugrave" unicode="&#xd9;" horiz-adv-x="700" 
d="M478 745h-174l-162 155h194zM40 282v418h170v-418q0 -60 38 -98t102 -38t102 38t38 98v418h170v-418q0 -128 -87 -210t-223 -82t-223 82t-87 210z" />
    <glyph glyph-name="Uacute" unicode="&#xda;" horiz-adv-x="700" 
d="M396 745h-174l142 155h194zM40 282v418h170v-418q0 -60 38 -98t102 -38t102 38t38 98v418h170v-418q0 -128 -87 -210t-223 -82t-223 82t-87 210z" />
    <glyph glyph-name="Ucircumflex" unicode="&#xdb;" horiz-adv-x="700" 
d="M405 745l-55 56l-55 -56h-174l145 155h168l145 -155h-174zM490 282v418h170v-418q0 -128 -87 -210t-223 -82t-223 82t-87 210v418h170v-418q0 -60 38 -98t102 -38t102 38t38 98z" />
    <glyph glyph-name="Udieresis" unicode="&#xdc;" horiz-adv-x="700" 
d="M140 825q0 37 26.5 63.5t63.5 26.5t63.5 -26.5t26.5 -63.5q0 -36 -26.5 -63t-63.5 -27t-63.5 27t-26.5 63zM380 825q0 37 26.5 63.5t63.5 26.5t63.5 -26.5t26.5 -63.5q0 -36 -26.5 -63t-63.5 -27t-63.5 27t-26.5 63zM40 282v418h170v-418q0 -60 38 -98t102 -38t102 38
t38 98v418h170v-418q0 -128 -87 -210t-223 -82t-223 82t-87 210z" />
    <glyph glyph-name="Yacute" unicode="&#xdd;" horiz-adv-x="682" 
d="M355 900h194l-162 -155h-174zM692 700l-266 -458v-92h105v-150h-380v150h105v92l-266 458h200l156 -288l156 288h190z" />
    <glyph glyph-name="Thorn" unicode="&#xde;" horiz-adv-x="640" 
d="M220 0h-170v700h170v-105h139q123 0 197 -69t74 -176t-74 -173.5t-197 -66.5h-139v-110zM220 445v-185h139q43 0 69 26t26 66q0 41 -26 67t-69 26h-139z" />
    <glyph glyph-name="germandbls" unicode="&#xdf;" horiz-adv-x="617" 
d="M423 385q82 -19 128 -65.5t46 -119.5q0 -89 -62 -149.5t-159 -60.5q-62 0 -119 21l20 137q43 -12 72 -12q40 0 63.5 24t23.5 63q0 38 -27 62.5t-75 24.5h-41v140h24q38 0 64.5 22t26.5 55t-26.5 55t-64.5 22q-45 0 -76 -30t-31 -87v-487h-160v485q0 122 72.5 193.5
t199.5 71.5q101 0 171.5 -53t70.5 -137q0 -59 -37.5 -105.5t-103.5 -69.5z" />
    <glyph glyph-name="agrave" unicode="&#xe0;" horiz-adv-x="546" 
d="M267 740l103 -160h-157l-123 160h177zM270 530q104 0 167.5 -53.5t63.5 -157.5v-319h-160v122q-39 -132 -170 -132q-61 0 -106 42t-45 110q0 152 208 172l71 6q42 3 42 34q0 20 -19.5 33t-49.5 13q-34 0 -54 -18t-24 -47l-159 34q8 67 70.5 114t164.5 47zM232 115
q42 0 75.5 30t33.5 67v3q-10 -5 -37 -8l-77 -9q-47 -6 -47 -42q0 -19 13.5 -30t38.5 -11z" />
    <glyph glyph-name="aacute" unicode="&#xe1;" horiz-adv-x="546" 
d="M273 740h177l-123 -160h-157zM270 530q104 0 167.5 -53.5t63.5 -157.5v-319h-160v122q-39 -132 -170 -132q-61 0 -106 42t-45 110q0 152 208 172l71 6q42 3 42 34q0 20 -19.5 33t-49.5 13q-34 0 -54 -18t-24 -47l-159 34q8 67 70.5 114t164.5 47zM232 115q42 0 75.5 30
t33.5 67v3q-10 -5 -37 -8l-77 -9q-47 -6 -47 -42q0 -19 13.5 -30t38.5 -11z" />
    <glyph glyph-name="acircumflex" unicode="&#xe2;" horiz-adv-x="546" 
d="M325 580l-55 66l-55 -66h-147l113 160h178l113 -160h-147zM270 530q104 0 167.5 -53.5t63.5 -157.5v-319h-160v122q-39 -132 -170 -132q-61 0 -106 42t-45 110q0 152 208 172l71 6q42 3 42 34q0 20 -19.5 33t-49.5 13q-34 0 -54 -18t-24 -47l-159 34q8 67 70.5 114
t164.5 47zM232 115q42 0 75.5 30t33.5 67v3q-10 -5 -37 -8l-77 -9q-47 -6 -47 -42q0 -19 13.5 -30t38.5 -11z" />
    <glyph glyph-name="atilde" unicode="&#xe3;" horiz-adv-x="546" 
d="M205 622q-33 0 -46 -39l-99 48q11 49 52 81.5t93 32.5q42 0 80.5 -23.5t49.5 -23.5q33 0 46 39l99 -48q-11 -49 -52 -81.5t-93 -32.5q-42 0 -80.5 23.5t-49.5 23.5zM270 530q104 0 167.5 -53.5t63.5 -157.5v-319h-160v122q-39 -132 -170 -132q-61 0 -106 42t-45 110
q0 152 208 172l71 6q42 3 42 34q0 20 -19.5 33t-49.5 13q-34 0 -54 -18t-24 -47l-159 34q8 67 70.5 114t164.5 47zM232 115q42 0 75.5 30t33.5 67v3q-10 -5 -37 -8l-77 -9q-47 -6 -47 -42q0 -19 13.5 -30t38.5 -11z" />
    <glyph glyph-name="adieresis" unicode="&#xe4;" horiz-adv-x="546" 
d="M150 570q-37 0 -63.5 27t-26.5 63q0 37 26.5 63.5t63.5 26.5t63.5 -26.5t26.5 -63.5q0 -36 -26.5 -63t-63.5 -27zM390 570q-37 0 -63.5 27t-26.5 63q0 37 26.5 63.5t63.5 26.5t63.5 -26.5t26.5 -63.5q0 -36 -26.5 -63t-63.5 -27zM270 530q104 0 167.5 -53.5t63.5 -157.5
v-319h-160v122q-39 -132 -170 -132q-61 0 -106 42t-45 110q0 152 208 172l71 6q42 3 42 34q0 20 -19.5 33t-49.5 13q-34 0 -54 -18t-24 -47l-159 34q8 67 70.5 114t164.5 47zM232 115q42 0 75.5 30t33.5 67v3q-10 -5 -37 -8l-77 -9q-47 -6 -47 -42q0 -19 13.5 -30t38.5 -11z
" />
    <glyph glyph-name="aring" unicode="&#xe5;" horiz-adv-x="546" 
d="M270 540q-59 0 -98 34t-39 86q0 51 39.5 85.5t97.5 34.5t97 -34.5t39 -85.5q0 -52 -38.5 -86t-97.5 -34zM270 700q-17 0 -29 -11.5t-12 -28.5t12 -28.5t29 -11.5t28.5 11.5t11.5 28.5t-11.5 28.5t-28.5 11.5zM270 530q104 0 167.5 -53.5t63.5 -157.5v-319h-160v122
q-39 -132 -170 -132q-61 0 -106 42t-45 110q0 152 208 172l71 6q42 3 42 34q0 20 -19.5 33t-49.5 13q-34 0 -54 -18t-24 -47l-159 34q8 67 70.5 114t164.5 47zM232 115q42 0 75.5 30t33.5 67v3q-10 -5 -37 -8l-77 -9q-47 -6 -47 -42q0 -19 13.5 -30t38.5 -11z" />
    <glyph glyph-name="ae" unicode="&#xe6;" horiz-adv-x="942" 
d="M658 530q125 0 199 -98t50 -230h-377q14 -35 45.5 -55.5t72.5 -20.5q73 0 109 58l130 -60q-64 -134 -204 -134q-65 0 -112.5 42t-69.5 114v-146h-160v122q-39 -132 -170 -132q-61 0 -106 42t-45 110q0 45 18.5 78.5t50.5 52t65.5 28.5t73.5 13l71 6q42 3 42 34
q0 20 -19.5 33t-49.5 13q-34 0 -54 -18t-24 -47l-159 34q8 67 70.5 114t164.5 47q139 0 197 -87q76 87 191 87zM638 394q-35 0 -63 -19.5t-43 -52.5h213q-29 72 -107 72zM232 115q42 0 75.5 30t33.5 67v3q-10 -5 -37 -8l-77 -9q-46 -6 -46 -42q0 -18 13.5 -29.5t37.5 -11.5z
" />
    <glyph glyph-name="ccedilla" unicode="&#xe7;" horiz-adv-x="580" 
d="M310 136q73 0 104 71l146 -50q-30 -71 -85.5 -113.5t-126.5 -51.5q78 -34 78 -98q0 -42 -41.5 -73t-112.5 -31q-40 0 -80 11l20 125q12 -3 22 -3q19 0 30 9t11 24q0 20 -18 38q-100 17 -163.5 91t-63.5 175q0 115 80.5 192.5t199.5 77.5q83 0 150 -43.5t100 -123.5
l-146 -50q-31 71 -104 71q-49 0 -81.5 -35.5t-32.5 -88.5t32.5 -88.5t81.5 -35.5z" />
    <glyph glyph-name="egrave" unicode="&#xe8;" horiz-adv-x="610" 
d="M302 740l103 -160h-157l-123 160h177zM305 530q135 0 215 -98t54 -230h-377q14 -35 45.5 -55.5t72.5 -20.5q73 0 109 58l130 -60q-37 -61 -100 -97.5t-144 -36.5q-119 0 -199.5 77.5t-80.5 192.5t79 192.5t196 77.5zM305 394q-35 0 -63 -19.5t-43 -52.5h213
q-29 72 -107 72z" />
    <glyph glyph-name="eacute" unicode="&#xe9;" horiz-adv-x="610" 
d="M308 740h177l-123 -160h-157zM305 530q135 0 215 -98t54 -230h-377q14 -35 45.5 -55.5t72.5 -20.5q73 0 109 58l130 -60q-37 -61 -100 -97.5t-144 -36.5q-119 0 -199.5 77.5t-80.5 192.5t79 192.5t196 77.5zM305 394q-35 0 -63 -19.5t-43 -52.5h213q-29 72 -107 72z" />
    <glyph glyph-name="ecircumflex" unicode="&#xea;" horiz-adv-x="610" 
d="M360 580l-55 66l-55 -66h-147l113 160h178l113 -160h-147zM305 530q135 0 215 -98t54 -230h-377q14 -35 45.5 -55.5t72.5 -20.5q73 0 109 58l130 -60q-37 -61 -100 -97.5t-144 -36.5q-119 0 -199.5 77.5t-80.5 192.5t79 192.5t196 77.5zM305 394q-35 0 -63 -19.5
t-43 -52.5h213q-29 72 -107 72z" />
    <glyph glyph-name="edieresis" unicode="&#xeb;" horiz-adv-x="610" 
d="M185 570q-37 0 -63.5 27t-26.5 63q0 37 26.5 63.5t63.5 26.5t63.5 -26.5t26.5 -63.5q0 -36 -26.5 -63t-63.5 -27zM425 570q-37 0 -63.5 27t-26.5 63q0 37 26.5 63.5t63.5 26.5t63.5 -26.5t26.5 -63.5q0 -36 -26.5 -63t-63.5 -27zM305 530q135 0 215 -98t54 -230h-377
q14 -35 45.5 -55.5t72.5 -20.5q73 0 109 58l130 -60q-37 -61 -100 -97.5t-144 -36.5q-119 0 -199.5 77.5t-80.5 192.5t79 192.5t196 77.5zM305 394q-35 0 -63 -19.5t-43 -52.5h213q-29 72 -107 72z" />
    <glyph glyph-name="igrave" unicode="&#xec;" horiz-adv-x="260" 
d="M230 580h-157l-123 160h177zM210 0h-160v520h160v-520z" />
    <glyph glyph-name="iacute" unicode="&#xed;" horiz-adv-x="260" 
d="M187 580h-157l103 160h177zM210 0h-160v520h160v-520z" />
    <glyph glyph-name="icircumflex" unicode="&#xee;" horiz-adv-x="260" 
d="M185 580l-55 66l-55 -66h-147l113 160h178l113 -160h-147zM210 0h-160v520h160v-520z" />
    <glyph glyph-name="idieresis" unicode="&#xef;" horiz-adv-x="260" 
d="M-55 660q0 37 26.5 63.5t63.5 26.5t63.5 -26.5t26.5 -63.5q0 -36 -26.5 -63t-63.5 -27t-63.5 27t-26.5 63zM135 660q0 37 26.5 63.5t63.5 26.5t63.5 -26.5t26.5 -63.5q0 -36 -26.5 -63t-63.5 -27t-63.5 27t-26.5 63zM210 0h-160v520h160v-520z" />
    <glyph glyph-name="eth" unicode="&#xf0;" horiz-adv-x="620" 
d="M506 608l-78 -26q162 -158 162 -322q0 -118 -80 -194t-200 -76q-119 0 -199.5 73.5t-80.5 181.5q0 97 61 155.5t145 58.5q57 0 103 -28.5t75 -71.5q-41 87 -153 166l-162 -54l-36 113l67 22l-60 34l130 110q68 -40 121 -80l149 50zM310 136q49 0 81.5 31t32.5 78
t-33.5 78t-85.5 31q-45 0 -77 -31.5t-32 -77.5q0 -47 32.5 -78t81.5 -31zM421 345l3 -8z" />
    <glyph glyph-name="ntilde" unicode="&#xf1;" horiz-adv-x="615" 
d="M243 622q-33 0 -46 -39l-99 48q11 49 52 81.5t93 32.5q42 0 80.5 -23.5t49.5 -23.5q33 0 46 39l99 -48q-11 -49 -52 -81.5t-93 -32.5q-42 0 -80.5 23.5t-49.5 23.5zM385 530q84 0 134.5 -58.5t50.5 -152.5v-319h-160v289q0 43 -27 69.5t-68 26.5q-47 0 -76 -26.5
t-29 -69.5v-289h-160v520h160v-130q21 65 67 102.5t108 37.5z" />
    <glyph glyph-name="ograve" unicode="&#xf2;" horiz-adv-x="620" 
d="M410 580h-157l-123 160h177zM30 260q0 115 80.5 192.5t199.5 77.5t199.5 -77.5t80.5 -192.5t-80.5 -192.5t-199.5 -77.5t-199.5 77.5t-80.5 192.5zM196 260q0 -53 32.5 -88.5t81.5 -35.5t81.5 35.5t32.5 88.5t-32.5 88.5t-81.5 35.5t-81.5 -35.5t-32.5 -88.5z" />
    <glyph glyph-name="oacute" unicode="&#xf3;" horiz-adv-x="620" 
d="M367 580h-157l103 160h177zM30 260q0 115 80.5 192.5t199.5 77.5t199.5 -77.5t80.5 -192.5t-80.5 -192.5t-199.5 -77.5t-199.5 77.5t-80.5 192.5zM196 260q0 -53 32.5 -88.5t81.5 -35.5t81.5 35.5t32.5 88.5t-32.5 88.5t-81.5 35.5t-81.5 -35.5t-32.5 -88.5z" />
    <glyph glyph-name="ocircumflex" unicode="&#xf4;" horiz-adv-x="620" 
d="M365 580l-55 66l-55 -66h-147l113 160h178l113 -160h-147zM310 530q119 0 199.5 -77.5t80.5 -192.5t-80.5 -192.5t-199.5 -77.5t-199.5 77.5t-80.5 192.5t80.5 192.5t199.5 77.5zM310 136q49 0 81.5 35.5t32.5 88.5t-32.5 88.5t-81.5 35.5t-81.5 -35.5t-32.5 -88.5
t32.5 -88.5t81.5 -35.5z" />
    <glyph glyph-name="otilde" unicode="&#xf5;" horiz-adv-x="620" 
d="M199 583l-99 48q11 49 52 81.5t93 32.5q42 0 80.5 -23.5t49.5 -23.5q33 0 46 39l99 -48q-11 -49 -52 -81.5t-93 -32.5q-42 0 -80.5 23.5t-49.5 23.5q-33 0 -46 -39zM30 260q0 115 80.5 192.5t199.5 77.5t199.5 -77.5t80.5 -192.5t-80.5 -192.5t-199.5 -77.5t-199.5 77.5
t-80.5 192.5zM196 260q0 -53 32.5 -88.5t81.5 -35.5t81.5 35.5t32.5 88.5t-32.5 88.5t-81.5 35.5t-81.5 -35.5t-32.5 -88.5z" />
    <glyph glyph-name="odieresis" unicode="&#xf6;" horiz-adv-x="620" 
d="M100 660q0 37 26.5 63.5t63.5 26.5t63.5 -26.5t26.5 -63.5q0 -36 -26.5 -63t-63.5 -27t-63.5 27t-26.5 63zM340 660q0 37 26.5 63.5t63.5 26.5t63.5 -26.5t26.5 -63.5q0 -36 -26.5 -63t-63.5 -27t-63.5 27t-26.5 63zM30 260q0 115 80.5 192.5t199.5 77.5t199.5 -77.5
t80.5 -192.5t-80.5 -192.5t-199.5 -77.5t-199.5 77.5t-80.5 192.5zM196 260q0 -53 32.5 -88.5t81.5 -35.5t81.5 35.5t32.5 88.5t-32.5 88.5t-81.5 35.5t-81.5 -35.5t-32.5 -88.5z" />
    <glyph glyph-name="divide" unicode="&#xf7;" horiz-adv-x="540" 
d="M175 565q0 39 28 67t67 28t67 -28t28 -67q0 -38 -28 -66.5t-67 -28.5t-67 28.5t-28 66.5zM490 275h-440v150h440v-150zM175 135q0 39 28 67t67 28t67 -28t28 -67q0 -38 -28 -66.5t-67 -28.5t-67 28.5t-28 66.5z" />
    <glyph glyph-name="oslash" unicode="&#xf8;" horiz-adv-x="620" 
d="M574 515l-52 -75q68 -74 68 -180q0 -115 -80.5 -192.5t-199.5 -77.5q-48 0 -93 14l-56 -79l-115 80l52 75q-68 74 -68 180q0 115 80.5 192.5t199.5 77.5q48 0 93 -14l56 79zM186 260q0 -25 7 -45l125 179h-8q-53 0 -88.5 -38t-35.5 -96zM310 126q53 0 88.5 38t35.5 96
q0 25 -7 45l-125 -179h8z" />
    <glyph glyph-name="ugrave" unicode="&#xf9;" horiz-adv-x="590" 
d="M395 580h-157l-123 160h177zM45 222v298h160v-298q0 -39 24.5 -62.5t65.5 -23.5q39 0 64.5 23.5t25.5 62.5v298h160v-298q0 -103 -70.5 -167.5t-179.5 -64.5q-111 0 -180.5 64.5t-69.5 167.5z" />
    <glyph glyph-name="uacute" unicode="&#xfa;" horiz-adv-x="590" 
d="M352 580h-157l103 160h177zM45 222v298h160v-298q0 -39 24.5 -62.5t65.5 -23.5q39 0 64.5 23.5t25.5 62.5v298h160v-298q0 -103 -70.5 -167.5t-179.5 -64.5q-111 0 -180.5 64.5t-69.5 167.5z" />
    <glyph glyph-name="ucircumflex" unicode="&#xfb;" horiz-adv-x="590" 
d="M350 580l-55 66l-55 -66h-147l113 160h178l113 -160h-147zM385 222v298h160v-298q0 -103 -70.5 -167.5t-179.5 -64.5q-111 0 -180.5 64.5t-69.5 167.5v298h160v-298q0 -39 24.5 -62.5t65.5 -23.5q39 0 64.5 23.5t25.5 62.5z" />
    <glyph glyph-name="udieresis" unicode="&#xfc;" horiz-adv-x="590" 
d="M85 660q0 37 26.5 63.5t63.5 26.5t63.5 -26.5t26.5 -63.5q0 -36 -26.5 -63t-63.5 -27t-63.5 27t-26.5 63zM325 660q0 37 26.5 63.5t63.5 26.5t63.5 -26.5t26.5 -63.5q0 -36 -26.5 -63t-63.5 -27t-63.5 27t-26.5 63zM45 222v298h160v-298q0 -39 24.5 -62.5t65.5 -23.5
q39 0 64.5 23.5t25.5 62.5v298h160v-298q0 -103 -70.5 -167.5t-179.5 -64.5q-111 0 -180.5 64.5t-69.5 167.5z" />
    <glyph glyph-name="yacute" unicode="&#xfd;" horiz-adv-x="560" 
d="M283 740h177l-123 -160h-157zM277 44l131 476h162l-198 -720h-162l55 200h-130l-145 520h172z" />
    <glyph glyph-name="thorn" unicode="&#xfe;" horiz-adv-x="634" 
d="M389 530q93 0 154 -77.5t61 -192.5t-61 -192.5t-154 -77.5q-64 0 -111 42t-68 113v-345h-160v940h160v-365q21 71 68 113t111 42zM329 136q45 0 77 35.5t32 88.5t-32 88.5t-77 35.5q-52 0 -85.5 -35t-33.5 -89t33.5 -89t85.5 -35z" />
    <glyph glyph-name="ydieresis" unicode="&#xff;" horiz-adv-x="560" 
d="M160 570q-37 0 -63.5 27t-26.5 63q0 37 26.5 63.5t63.5 26.5t63.5 -26.5t26.5 -63.5q0 -36 -26.5 -63t-63.5 -27zM400 570q-37 0 -63.5 27t-26.5 63q0 37 26.5 63.5t63.5 26.5t63.5 -26.5t26.5 -63.5q0 -36 -26.5 -63t-63.5 -27zM277 44l131 476h162l-198 -720h-162
l55 200h-130l-145 520h172z" />
    <glyph glyph-name="Amacron" unicode="&#x100;" horiz-adv-x="740" 
d="M205 885h330v-120h-330v120zM740 0h-181l-41 138h-306l-41 -138h-171l219 700h302zM365 650l-108 -362h216z" />
    <glyph glyph-name="amacron" unicode="&#x101;" horiz-adv-x="546" 
d="M110 720h320v-120h-320v120zM270 530q104 0 167.5 -53.5t63.5 -157.5v-319h-160v122q-39 -132 -170 -132q-61 0 -106 42t-45 110q0 152 208 172l71 6q42 3 42 34q0 20 -19.5 33t-49.5 13q-34 0 -54 -18t-24 -47l-159 34q8 67 70.5 114t164.5 47zM232 115q42 0 75.5 30
t33.5 67v3q-10 -5 -37 -8l-77 -9q-47 -6 -47 -42q0 -19 13.5 -30t38.5 -11z" />
    <glyph glyph-name="Abreve" unicode="&#x102;" horiz-adv-x="740" 
d="M370 735q-79 0 -135 43.5t-63 121.5h134q8 -49 64 -49q55 0 63 49h134q-7 -77 -63 -121t-134 -44zM740 0h-181l-41 138h-306l-41 -138h-171l219 700h302zM365 650l-108 -362h216z" />
    <glyph glyph-name="abreve" unicode="&#x103;" horiz-adv-x="546" 
d="M270 570q-77 0 -124.5 45.5t-47.5 124.5h119q0 -24 14 -39t39 -15t39 15t14 39h119q0 -79 -47.5 -124.5t-124.5 -45.5zM270 530q104 0 167.5 -53.5t63.5 -157.5v-319h-160v122q-39 -132 -170 -132q-61 0 -106 42t-45 110q0 152 208 172l71 6q42 3 42 34q0 20 -19.5 33
t-49.5 13q-34 0 -54 -18t-24 -47l-159 34q8 67 70.5 114t164.5 47zM232 115q42 0 75.5 30t33.5 67v3q-10 -5 -37 -8l-77 -9q-47 -6 -47 -42q0 -19 13.5 -30t38.5 -11z" />
    <glyph glyph-name="Aogonek" unicode="&#x104;" horiz-adv-x="740" 
d="M735 -74l15 -121q-39 -15 -88 -15q-68 0 -104.5 28t-36.5 68q0 37 31.5 69.5t86.5 44.5h-80l-41 138h-306l-41 -138h-171l219 700h302l219 -700h-50q-17 -21 -17 -44q0 -33 37 -33q10 0 25 3zM365 650l-108 -362h216z" />
    <glyph glyph-name="aogonek" unicode="&#x105;" horiz-adv-x="546" 
d="M546 -74l15 -121q-39 -15 -88 -15q-68 0 -104.5 28t-36.5 68q0 37 31.5 69.5t86.5 44.5h-109v122q-39 -132 -170 -132q-61 0 -106 42t-45 110q0 152 208 172l71 6q42 3 42 34q0 20 -19.5 33t-49.5 13q-34 0 -54 -18t-24 -47l-159 34q8 67 70.5 114t164.5 47
q104 0 167.5 -53.5t63.5 -157.5v-319q-17 -21 -17 -44q0 -33 37 -33q10 0 25 3zM232 115q42 0 75.5 30t33.5 67v3q-10 -5 -37 -8l-77 -9q-47 -6 -47 -42q0 -19 13.5 -30t38.5 -11z" />
    <glyph glyph-name="Cacute" unicode="&#x106;" horiz-adv-x="760" 
d="M446 745h-174l142 155h194zM30 350q0 152 106.5 256t263.5 104q117 0 204 -59t126 -144l-158 -60q-23 47 -68.5 77t-103.5 30q-82 0 -138 -59t-56 -145t56 -145t138 -59q58 0 103.5 30t68.5 77l158 -60q-39 -85 -126 -144t-204 -59q-157 0 -263.5 104t-106.5 256z" />
    <glyph glyph-name="cacute" unicode="&#x107;" horiz-adv-x="580" 
d="M367 580h-157l103 160h177zM30 260q0 115 80.5 192.5t199.5 77.5q83 0 150 -43.5t100 -123.5l-146 -50q-31 71 -104 71q-49 0 -81.5 -35.5t-32.5 -88.5t32.5 -88.5t81.5 -35.5q73 0 104 71l146 -50q-33 -80 -100 -123.5t-150 -43.5q-119 0 -199.5 77.5t-80.5 192.5z" />
    <glyph glyph-name="Ccircumflex" unicode="&#x108;" horiz-adv-x="760" 
d="M455 745l-55 56l-55 -56h-174l145 155h168l145 -155h-174zM400 146q58 0 103.5 30t68.5 77l158 -60q-39 -85 -126 -144t-204 -59q-157 0 -263.5 104t-106.5 256t106.5 256t263.5 104q117 0 204 -59t126 -144l-158 -60q-23 47 -68.5 77t-103.5 30q-82 0 -138 -59t-56 -145
t56 -145t138 -59z" />
    <glyph glyph-name="ccircumflex" unicode="&#x109;" horiz-adv-x="580" 
d="M365 580l-55 66l-55 -66h-147l113 160h178l113 -160h-147zM310 136q73 0 104 71l146 -50q-33 -80 -100 -123.5t-150 -43.5q-119 0 -199.5 77.5t-80.5 192.5t80.5 192.5t199.5 77.5q83 0 150 -43.5t100 -123.5l-146 -50q-31 71 -104 71q-49 0 -81.5 -35.5t-32.5 -88.5
t32.5 -88.5t81.5 -35.5z" />
    <glyph glyph-name="Cdotaccent" unicode="&#x10a;" horiz-adv-x="760" 
d="M305 825q0 39 28 67t67 28t67 -28t28 -67q0 -38 -28 -66.5t-67 -28.5t-67 28.5t-28 66.5zM30 350q0 152 106.5 256t263.5 104q117 0 204 -59t126 -144l-158 -60q-23 47 -68.5 77t-103.5 30q-82 0 -138 -59t-56 -145t56 -145t138 -59q58 0 103.5 30t68.5 77l158 -60
q-39 -85 -126 -144t-204 -59q-157 0 -263.5 104t-106.5 256z" />
    <glyph glyph-name="cdotaccent" unicode="&#x10b;" horiz-adv-x="580" 
d="M215 660q0 39 28 67t67 28t67 -28t28 -67q0 -38 -28 -66.5t-67 -28.5t-67 28.5t-28 66.5zM30 260q0 115 80.5 192.5t199.5 77.5q83 0 150 -43.5t100 -123.5l-146 -50q-31 71 -104 71q-49 0 -81.5 -35.5t-32.5 -88.5t32.5 -88.5t81.5 -35.5q73 0 104 71l146 -50
q-33 -80 -100 -123.5t-150 -43.5q-119 0 -199.5 77.5t-80.5 192.5z" />
    <glyph glyph-name="Ccaron" unicode="&#x10c;" horiz-adv-x="760" 
d="M629 900l-145 -155h-168l-145 155h174l55 -56l55 56h174zM400 146q58 0 103.5 30t68.5 77l158 -60q-39 -85 -126 -144t-204 -59q-157 0 -263.5 104t-106.5 256t106.5 256t263.5 104q117 0 204 -59t126 -144l-158 -60q-23 47 -68.5 77t-103.5 30q-82 0 -138 -59t-56 -145
t56 -145t138 -59z" />
    <glyph glyph-name="ccaron" unicode="&#x10d;" horiz-adv-x="580" 
d="M512 740l-113 -160h-178l-113 160h147l55 -66l55 66h147zM310 136q73 0 104 71l146 -50q-33 -80 -100 -123.5t-150 -43.5q-119 0 -199.5 77.5t-80.5 192.5t80.5 192.5t199.5 77.5q83 0 150 -43.5t100 -123.5l-146 -50q-31 71 -104 71q-49 0 -81.5 -35.5t-32.5 -88.5
t32.5 -88.5t81.5 -35.5z" />
    <glyph glyph-name="Dcaron" unicode="&#x10e;" horiz-adv-x="730" 
d="M550 900l-145 -155h-168l-145 155h174l55 -56l55 56h174zM50 700h291q155 0 257 -100.5t102 -249.5t-102 -249.5t-257 -100.5h-291v700zM220 150h106q89 0 143.5 56t54.5 144t-54.5 144t-143.5 56h-106v-400z" />
    <glyph glyph-name="dcaron" unicode="&#x10f;" horiz-adv-x="754" 
d="M624 575l28 195h142l-52 -195h-118zM424 375v365h160v-740h-160v145q-21 -71 -68 -113t-111 -42q-93 0 -154 77.5t-61 192.5t61 192.5t154 77.5q64 0 111 -42t68 -113zM305 136q52 0 85.5 35t33.5 89t-33.5 89t-85.5 35q-45 0 -77 -35.5t-32 -88.5t32 -88.5t77 -35.5z
" />
    <glyph glyph-name="Dcroat" unicode="&#x110;" horiz-adv-x="780" 
d="M100 700h291q155 0 257 -100.5t102 -249.5t-102 -249.5t-257 -100.5h-291v290h-100v120h100v290zM270 150h106q89 0 143.5 56t54.5 144t-54.5 144t-143.5 56h-106v-140h60v-120h-60v-140z" />
    <glyph glyph-name="dcroat" unicode="&#x111;" horiz-adv-x="634" 
d="M584 670h50v-120h-50v-550h-160v145q-21 -71 -68 -113t-111 -42q-93 0 -154 77.5t-61 192.5t61 192.5t154 77.5q64 0 111 -42t68 -113v175h-110v120h110v70h160v-70zM305 136q52 0 85.5 35t33.5 89t-33.5 89t-85.5 35q-45 0 -77 -35.5t-32 -88.5t32 -88.5t77 -35.5z" />
    <glyph glyph-name="Emacron" unicode="&#x112;" horiz-adv-x="570" 
d="M450 765h-330v120h330v-120zM530 0h-480v700h480v-150h-310v-125h300v-150h-300v-125h310v-150z" />
    <glyph glyph-name="emacron" unicode="&#x113;" horiz-adv-x="610" 
d="M145 720h320v-120h-320v120zM305 530q135 0 215 -98t54 -230h-377q14 -35 45.5 -55.5t72.5 -20.5q73 0 109 58l130 -60q-37 -61 -100 -97.5t-144 -36.5q-119 0 -199.5 77.5t-80.5 192.5t79 192.5t196 77.5zM305 394q-35 0 -63 -19.5t-43 -52.5h213q-29 72 -107 72z" />
    <glyph glyph-name="Ebreve" unicode="&#x114;" horiz-adv-x="570" 
d="M87 900h134q8 -49 64 -49q55 0 63 49h134q-7 -77 -63 -121t-134 -44q-79 0 -135 43.5t-63 121.5zM530 0h-480v700h480v-150h-310v-125h300v-150h-300v-125h310v-150z" />
    <glyph glyph-name="ebreve" unicode="&#x115;" horiz-adv-x="610" 
d="M305 570q-77 0 -124.5 45.5t-47.5 124.5h119q0 -24 14 -39t39 -15t39 15t14 39h119q0 -79 -47.5 -124.5t-124.5 -45.5zM305 530q135 0 215 -98t54 -230h-377q14 -35 45.5 -55.5t72.5 -20.5q73 0 109 58l130 -60q-37 -61 -100 -97.5t-144 -36.5q-119 0 -199.5 77.5
t-80.5 192.5t79 192.5t196 77.5zM305 394q-35 0 -63 -19.5t-43 -52.5h213q-29 72 -107 72z" />
    <glyph glyph-name="Edotaccent" unicode="&#x116;" horiz-adv-x="570" 
d="M190 825q0 39 28 67t67 28t67 -28t28 -67q0 -38 -28 -66.5t-67 -28.5t-67 28.5t-28 66.5zM530 0h-480v700h480v-150h-310v-125h300v-150h-300v-125h310v-150z" />
    <glyph glyph-name="edotaccent" unicode="&#x117;" horiz-adv-x="610" 
d="M305 565q-39 0 -67 28.5t-28 66.5q0 39 28 67t67 28t67 -28t28 -67q0 -38 -28 -66.5t-67 -28.5zM305 530q135 0 215 -98t54 -230h-377q14 -35 45.5 -55.5t72.5 -20.5q73 0 109 58l130 -60q-37 -61 -100 -97.5t-144 -36.5q-119 0 -199.5 77.5t-80.5 192.5t79 192.5
t196 77.5zM305 394q-35 0 -63 -19.5t-43 -52.5h213q-29 72 -107 72z" />
    <glyph glyph-name="Eogonek" unicode="&#x118;" horiz-adv-x="570" 
d="M575 -74l15 -121q-39 -15 -88 -15q-68 0 -104.5 28t-36.5 68q0 37 31.5 69.5t86.5 44.5h-429v700h480v-150h-310v-125h300v-150h-300v-125h310v-150q-17 -21 -17 -44q0 -33 37 -33q10 0 25 3z" />
    <glyph glyph-name="eogonek" unicode="&#x119;" horiz-adv-x="610" 
d="M305 530q135 0 215 -98t54 -230h-377q14 -35 45.5 -55.5t72.5 -20.5q73 0 109 58l130 -60q-6 -11 -22 -31q-50 -83 -50 -137q0 -33 37 -33q10 0 25 3l15 -121q-39 -15 -88 -15q-64 0 -102.5 27t-38.5 69q0 72 81 121q-48 -17 -101 -17q-119 0 -199.5 77.5t-80.5 192.5
t79 192.5t196 77.5zM305 394q-35 0 -63 -19.5t-43 -52.5h213q-29 72 -107 72z" />
    <glyph glyph-name="Ecaron" unicode="&#x11a;" horiz-adv-x="570" 
d="M514 900l-145 -155h-168l-145 155h174l55 -56l55 56h174zM530 700v-150h-310v-125h300v-150h-300v-125h310v-150h-480v700h480z" />
    <glyph glyph-name="ecaron" unicode="&#x11b;" horiz-adv-x="610" 
d="M507 740l-113 -160h-178l-113 160h147l55 -66l55 66h147zM305 530q135 0 215 -98t54 -230h-377q14 -35 45.5 -55.5t72.5 -20.5q73 0 109 58l130 -60q-37 -61 -100 -97.5t-144 -36.5q-119 0 -199.5 77.5t-80.5 192.5t79 192.5t196 77.5zM305 394q-35 0 -63 -19.5
t-43 -52.5h213q-29 72 -107 72z" />
    <glyph glyph-name="Gcircumflex" unicode="&#x11c;" 
d="M455 745l-55 56l-55 -56h-174l145 155h168l145 -155h-174zM341 400h420q10 -92 -16.5 -170.5t-78.5 -130t-121 -80.5t-145 -29q-157 0 -263.5 104t-106.5 256t106.5 256t263.5 104q117 0 204 -59t126 -144l-158 -60q-23 47 -68.5 77t-103.5 30q-82 0 -138 -59t-56 -145
t56 -145t138 -59q64 0 109 30.5t61 73.5h-229v150z" />
    <glyph glyph-name="gcircumflex" unicode="&#x11d;" horiz-adv-x="634" 
d="M372 580l-55 66l-55 -66h-147l113 160h178l113 -160h-147zM424 380v140h160v-460q0 -115 -80.5 -192.5t-199.5 -77.5q-79 0 -142 37t-98 98l142 77q34 -67 98 -67q50 0 85 35.5t35 89.5v100q-21 -69 -68 -109.5t-111 -40.5q-93 0 -154 74.5t-61 185.5t61 185.5t154 74.5
q64 0 111 -40.5t68 -109.5zM310 156q49 0 81.5 32.5t32.5 81.5t-32.5 81.5t-81.5 32.5t-81.5 -32.5t-32.5 -81.5t32.5 -81.5t81.5 -32.5z" />
    <glyph glyph-name="Gbreve" unicode="&#x11e;" 
d="M400 735q-79 0 -135 43.5t-63 121.5h134q8 -49 64 -49q55 0 63 49h134q-7 -77 -63 -121t-134 -44zM341 400h420q10 -92 -16.5 -170.5t-78.5 -130t-121 -80.5t-145 -29q-157 0 -263.5 104t-106.5 256t106.5 256t263.5 104q117 0 204 -59t126 -144l-158 -60
q-23 47 -68.5 77t-103.5 30q-82 0 -138 -59t-56 -145t56 -145t138 -59q64 0 109 30.5t61 73.5h-229v150z" />
    <glyph glyph-name="gbreve" unicode="&#x11f;" horiz-adv-x="634" 
d="M317 570q-77 0 -124.5 45.5t-47.5 124.5h119q0 -24 14 -39t39 -15t39 15t14 39h119q0 -79 -47.5 -124.5t-124.5 -45.5zM424 380v140h160v-460q0 -115 -80.5 -192.5t-199.5 -77.5q-79 0 -142 37t-98 98l142 77q34 -67 98 -67q50 0 85 35.5t35 89.5v100q-21 -69 -68 -109.5
t-111 -40.5q-93 0 -154 74.5t-61 185.5t61 185.5t154 74.5q64 0 111 -40.5t68 -109.5zM310 156q49 0 81.5 32.5t32.5 81.5t-32.5 81.5t-81.5 32.5t-81.5 -32.5t-32.5 -81.5t32.5 -81.5t81.5 -32.5z" />
    <glyph glyph-name="Gdotaccent" unicode="&#x120;" 
d="M400 730q-39 0 -67 28.5t-28 66.5q0 39 28 67t67 28t67 -28t28 -67q0 -38 -28 -66.5t-67 -28.5zM341 400h420q10 -92 -16.5 -170.5t-78.5 -130t-121 -80.5t-145 -29q-157 0 -263.5 104t-106.5 256t106.5 256t263.5 104q117 0 204 -59t126 -144l-158 -60q-23 47 -68.5 77
t-103.5 30q-82 0 -138 -59t-56 -145t56 -145t138 -59q64 0 109 30.5t61 73.5h-229v150z" />
    <glyph glyph-name="gdotaccent" unicode="&#x121;" horiz-adv-x="634" 
d="M317 565q-39 0 -67 28.5t-28 66.5q0 39 28 67t67 28t67 -28t28 -67q0 -38 -28 -66.5t-67 -28.5zM424 380v140h160v-460q0 -115 -80.5 -192.5t-199.5 -77.5q-79 0 -142 37t-98 98l142 77q34 -67 98 -67q50 0 85 35.5t35 89.5v100q-21 -69 -68 -109.5t-111 -40.5
q-93 0 -154 74.5t-61 185.5t61 185.5t154 74.5q64 0 111 -40.5t68 -109.5zM310 156q49 0 81.5 32.5t32.5 81.5t-32.5 81.5t-81.5 32.5t-81.5 -32.5t-32.5 -81.5t32.5 -81.5t81.5 -32.5z" />
    <glyph glyph-name="uni0122" unicode="&#x122;" 
d="M341 400h420q10 -92 -16.5 -170.5t-78.5 -130t-121 -80.5t-145 -29q-157 0 -263.5 104t-106.5 256t106.5 256t263.5 104q117 0 204 -59t126 -144l-158 -60q-23 47 -68.5 77t-103.5 30q-82 0 -138 -59t-56 -145t56 -145t138 -59q64 0 109 30.5t61 73.5h-229v150zM438 -210
h-128l28 175h152z" />
    <glyph glyph-name="uni0123" unicode="&#x123;" horiz-adv-x="634" 
d="M279 740h128l-28 -175h-152zM424 380v140h160v-460q0 -115 -80.5 -192.5t-199.5 -77.5q-79 0 -142 37t-98 98l142 77q34 -67 98 -67q50 0 85 35.5t35 89.5v100q-21 -69 -68 -109.5t-111 -40.5q-93 0 -154 74.5t-61 185.5t61 185.5t154 74.5q64 0 111 -40.5t68 -109.5z
M310 156q49 0 81.5 32.5t32.5 81.5t-32.5 81.5t-81.5 32.5t-81.5 -32.5t-32.5 -81.5t32.5 -81.5t81.5 -32.5z" />
    <glyph glyph-name="Hcircumflex" unicode="&#x124;" horiz-adv-x="720" 
d="M415 745l-55 56l-55 -56h-174l145 155h168l145 -155h-174zM500 425v275h170v-700h-170v275h-280v-275h-170v700h170v-275h280z" />
    <glyph glyph-name="hcircumflex" unicode="&#x125;" horiz-adv-x="615" 
d="M185 785l-55 56l-55 -56h-174l145 155h168l145 -155h-174zM385 530q84 0 134.5 -58.5t50.5 -152.5v-319h-160v289q0 43 -27 69.5t-68 26.5q-47 0 -76 -26.5t-29 -69.5v-289h-160v740h160v-350q21 65 67 102.5t108 37.5z" />
    <glyph glyph-name="Hbar" unicode="&#x126;" horiz-adv-x="720" 
d="M670 623h50v-120h-50v-503h-170v275h-280v-275h-170v503h-50v120h50v77h170v-77h280v77h170v-77zM220 425h280v78h-280v-78z" />
    <glyph glyph-name="hbar" unicode="&#x127;" horiz-adv-x="615" 
d="M385 530q84 0 134.5 -58.5t50.5 -152.5v-319h-160v289q0 43 -27 69.5t-68 26.5q-47 0 -76 -26.5t-29 -69.5v-289h-160v550h-50v120h50v70h160v-70h110v-120h-110v-160q21 65 67 102.5t108 37.5z" />
    <glyph glyph-name="Itilde" unicode="&#x128;" horiz-adv-x="270" 
d="M14 748l-99 48q11 49 52 81.5t93 32.5q47 0 90.5 -23.5t59.5 -23.5q32 0 46 39l99 -48q-11 -49 -52 -81.5t-93 -32.5q-47 0 -90.5 23.5t-59.5 23.5q-32 0 -46 -39zM220 0h-170v700h170v-700z" />
    <glyph glyph-name="itilde" unicode="&#x129;" horiz-adv-x="260" 
d="M19 583l-99 48q11 49 52 81.5t93 32.5q42 0 80.5 -23.5t49.5 -23.5q33 0 46 39l99 -48q-11 -49 -52 -81.5t-93 -32.5q-42 0 -80.5 23.5t-49.5 23.5q-33 0 -46 -39zM210 0h-160v520h160v-520z" />
    <glyph glyph-name="Imacron" unicode="&#x12a;" horiz-adv-x="270" 
d="M280 765h-290v120h290v-120zM220 0h-170v700h170v-700z" />
    <glyph glyph-name="imacron" unicode="&#x12b;" horiz-adv-x="260" 
d="M270 600h-280v120h280v-120zM210 0h-160v520h160v-520z" />
    <glyph glyph-name="Ibreve" unicode="&#x12c;" horiz-adv-x="270" 
d="M-63 900h134q8 -49 64 -49q55 0 63 49h134q-7 -77 -63 -121t-134 -44q-79 0 -135 43.5t-63 121.5zM220 0h-170v700h170v-700z" />
    <glyph glyph-name="ibreve" unicode="&#x12d;" horiz-adv-x="260" 
d="M-42 740h119q0 -24 14 -39t39 -15t39 15t14 39h119q0 -79 -47.5 -124.5t-124.5 -45.5t-124.5 45.5t-47.5 124.5zM210 0h-160v520h160v-520z" />
    <glyph glyph-name="Iogonek" unicode="&#x12e;" horiz-adv-x="270" 
d="M251 -74l15 -121q-39 -15 -88 -15q-68 0 -104.5 28t-36.5 68q0 37 31.5 69.5t86.5 44.5h-105v700h170v-700h-14q-17 -21 -17 -44q0 -33 37 -33q10 0 25 3z" />
    <glyph glyph-name="iogonek" unicode="&#x12f;" horiz-adv-x="260" 
d="M130 565q-39 0 -67 28.5t-28 66.5q0 39 28 67t67 28t67 -28t28 -67q0 -38 -28 -66.5t-67 -28.5zM236 -74l15 -121q-39 -15 -88 -15q-68 0 -104.5 28t-36.5 68q0 37 31.5 69.5t86.5 44.5h-90v520h160v-520h-19q-17 -21 -17 -44q0 -33 37 -33q10 0 25 3z" />
    <glyph glyph-name="Idotaccent" unicode="&#x130;" horiz-adv-x="270" 
d="M40 825q0 39 28 67t67 28t67 -28t28 -67q0 -38 -28 -66.5t-67 -28.5t-67 28.5t-28 66.5zM220 0h-170v700h170v-700z" />
    <glyph glyph-name="dotlessi" unicode="&#x131;" horiz-adv-x="260" 
d="M210 0h-160v520h160v-520z" />
    <glyph glyph-name="IJ" unicode="&#x132;" horiz-adv-x="828" 
d="M220 0h-170v700h170v-700zM270 218l170 25q1 -51 26.5 -74t62.5 -23q40 0 64.5 25t24.5 67v462h170v-462q0 -115 -77 -181.5t-187 -66.5q-104 0 -174.5 60.5t-79.5 167.5z" />
    <glyph glyph-name="ij" unicode="&#x133;" horiz-adv-x="540" 
d="M35 660q0 39 28 67t67 28t67 -28t28 -67q0 -38 -28 -66.5t-67 -28.5t-67 28.5t-28 66.5zM315 660q0 39 28 67t67 28t67 -28t28 -67q0 -38 -28 -66.5t-67 -28.5t-67 28.5t-28 66.5zM210 0h-160v520h160v-520zM245 -210v140q54 0 69.5 17.5t15.5 72.5v500h160v-500
q0 -243 -245 -230z" />
    <glyph glyph-name="Jcircumflex" unicode="&#x134;" horiz-adv-x="558" 
d="M488 745l-55 56l-55 -56h-174l145 155h168l145 -155h-174zM348 238v462h170v-462q0 -115 -77 -181.5t-187 -66.5q-104 0 -174.5 60.5t-79.5 167.5l170 25q1 -51 26.5 -74t62.5 -23q40 0 64.5 25t24.5 67z" />
    <glyph glyph-name="jcircumflex" unicode="&#x135;" horiz-adv-x="280" 
d="M205 580l-55 66l-55 -66h-147l113 160h178l113 -160h-147zM70 20v500h160v-500q0 -243 -245 -230v140q54 0 69.5 17.5t15.5 72.5z" />
    <glyph glyph-name="uni0136" unicode="&#x136;" horiz-adv-x="690" 
d="M660 700l-244 -284l274 -416h-204l-185 283l-81 -94v-189h-170v700h170v-271l229 271h211zM373 -210h-128l28 175h152z" />
    <glyph glyph-name="uni0137" unicode="&#x137;" horiz-adv-x="590" 
d="M570 520l-199 -221l229 -299h-201l-137 178l-52 -58v-120h-160v740h160v-406l160 186h200zM333 -210h-128l28 175h152z" />
    <glyph glyph-name="kgreenlandic" unicode="&#x138;" horiz-adv-x="590" 
d="M371 299l229 -299h-201l-137 178l-52 -58v-120h-160v520h160v-186l159 186h201z" />
    <glyph glyph-name="Lacute" unicode="&#x139;" horiz-adv-x="550" 
d="M181 745h-174l142 155h194zM530 0h-480v700h170v-550h310v-150z" />
    <glyph glyph-name="lacute" unicode="&#x13a;" horiz-adv-x="260" 
d="M176 785h-174l142 155h194zM210 0h-160v740h160v-740z" />
    <glyph glyph-name="uni013B" unicode="&#x13b;" horiz-adv-x="550" 
d="M530 0h-480v700h170v-550h310v-150zM313 -210h-128l28 175h152z" />
    <glyph glyph-name="uni013C" unicode="&#x13c;" horiz-adv-x="260" 
d="M210 0h-160v740h160v-740zM168 -210h-128l28 175h152z" />
    <glyph glyph-name="Lcaron" unicode="&#x13d;" horiz-adv-x="550" 
d="M418 575h-118l28 195h142zM530 0h-480v700h170v-550h310v-150z" />
    <glyph glyph-name="lcaron" unicode="&#x13e;" horiz-adv-x="380" 
d="M368 575h-118l28 195h142zM210 0h-160v740h160v-740z" />
    <glyph glyph-name="Ldot" unicode="&#x13f;" horiz-adv-x="550" 
d="M530 0h-480v700h170v-550h310v-150zM285 350q0 44 30.5 74.5t74.5 30.5q43 0 74 -31t31 -74q0 -42 -31 -73.5t-74 -31.5t-74 31.5t-31 73.5z" />
    <glyph glyph-name="ldot" unicode="&#x140;" horiz-adv-x="470" 
d="M210 0h-160v740h160v-740zM260 350q0 44 31 74.5t74 30.5t74 -31t31 -74q0 -42 -31 -73.5t-74 -31.5t-74 31.5t-31 73.5z" />
    <glyph glyph-name="Lslash" unicode="&#x141;" horiz-adv-x="570" 
d="M240 296v-146h310v-150h-480v249l-70 -19v128l70 19v323h170v-276l220 61v-128z" />
    <glyph glyph-name="lslash" unicode="&#x142;" horiz-adv-x="300" 
d="M230 438l80 22v-123l-80 -22v-315h-160v272l-80 -22v123l80 22v345h160v-302z" />
    <glyph glyph-name="Nacute" unicode="&#x143;" horiz-adv-x="740" 
d="M384 900h194l-162 -155h-174zM520 51v649h170v-700h-329l-141 649v-649h-170v700h329z" />
    <glyph glyph-name="nacute" unicode="&#x144;" horiz-adv-x="615" 
d="M311 740h177l-123 -160h-157zM385 530q84 0 134.5 -58.5t50.5 -152.5v-319h-160v289q0 43 -27 69.5t-68 26.5q-47 0 -76 -26.5t-29 -69.5v-289h-160v520h160v-130q21 65 67 102.5t108 37.5z" />
    <glyph glyph-name="uni0145" unicode="&#x145;" horiz-adv-x="740" 
d="M520 51v649h170v-700h-329l-141 649v-649h-170v700h329zM408 -210h-128l28 175h152z" />
    <glyph glyph-name="uni0146" unicode="&#x146;" horiz-adv-x="615" 
d="M385 530q84 0 134.5 -58.5t50.5 -152.5v-319h-160v289q0 43 -27 69.5t-68 26.5q-47 0 -76 -26.5t-29 -69.5v-289h-160v520h160v-130q21 65 67 102.5t108 37.5zM346 -210h-128l28 175h152z" />
    <glyph glyph-name="Ncaron" unicode="&#x147;" horiz-adv-x="740" 
d="M599 900l-145 -155h-168l-145 155h174l55 -56l55 56h174zM520 51v649h170v-700h-329l-141 649v-649h-170v700h329z" />
    <glyph glyph-name="ncaron" unicode="&#x148;" horiz-adv-x="615" 
d="M510 740l-113 -160h-178l-113 160h147l55 -66l55 66h147zM385 530q84 0 134.5 -58.5t50.5 -152.5v-319h-160v289q0 43 -27 69.5t-68 26.5q-47 0 -76 -26.5t-29 -69.5v-289h-160v520h160v-130q21 65 67 102.5t108 37.5z" />
    <glyph glyph-name="napostrophe" unicode="&#x149;" horiz-adv-x="895" 
d="M140 750q57 0 91 -42t34 -102q0 -93 -48.5 -154.5t-127.5 -83.5l-54 85q101 27 116 96q-45 -7 -80.5 20t-35.5 76q0 43 30.5 74t74.5 31zM665 530q84 0 134.5 -58.5t50.5 -152.5v-319h-160v289q0 43 -27 69.5t-68 26.5q-47 0 -76 -26.5t-29 -69.5v-289h-160v520h160v-130
q21 65 67 102.5t108 37.5z" />
    <glyph glyph-name="Eng" unicode="&#x14a;" horiz-adv-x="740" 
d="M520 51v649h170v-680q0 -243 -245 -230v140q51 -1 67.5 15.5t16.5 48.5v6h-168l-141 649v-649h-170v700h329z" />
    <glyph glyph-name="eng" unicode="&#x14b;" horiz-adv-x="615" 
d="M385 530q84 0 134.5 -58.5t50.5 -152.5v-299q0 -243 -245 -230v140q54 0 69.5 17.5t15.5 72.5v269q0 43 -27 69.5t-68 26.5q-47 0 -76 -26.5t-29 -69.5v-289h-160v520h160v-130q21 65 67 102.5t108 37.5z" />
    <glyph glyph-name="Omacron" unicode="&#x14c;" 
d="M565 765h-330v120h330v-120zM30 350q0 152 106.5 256t263.5 104t263.5 -104t106.5 -256t-106.5 -256t-263.5 -104t-263.5 104t-106.5 256zM206 350q0 -86 56 -145t138 -59t138 59t56 145t-56 145t-138 59t-138 -59t-56 -145z" />
    <glyph glyph-name="omacron" unicode="&#x14d;" horiz-adv-x="620" 
d="M470 600h-320v120h320v-120zM30 260q0 115 80.5 192.5t199.5 77.5t199.5 -77.5t80.5 -192.5t-80.5 -192.5t-199.5 -77.5t-199.5 77.5t-80.5 192.5zM196 260q0 -53 32.5 -88.5t81.5 -35.5t81.5 35.5t32.5 88.5t-32.5 88.5t-81.5 35.5t-81.5 -35.5t-32.5 -88.5z" />
    <glyph glyph-name="Obreve" unicode="&#x14e;" 
d="M202 900h134q8 -49 64 -49q55 0 63 49h134q-7 -77 -63 -121t-134 -44q-79 0 -135 43.5t-63 121.5zM30 350q0 152 106.5 256t263.5 104t263.5 -104t106.5 -256t-106.5 -256t-263.5 -104t-263.5 104t-106.5 256zM206 350q0 -86 56 -145t138 -59t138 59t56 145t-56 145
t-138 59t-138 -59t-56 -145z" />
    <glyph glyph-name="obreve" unicode="&#x14f;" horiz-adv-x="620" 
d="M138 740h119q0 -24 14 -39t39 -15t39 15t14 39h119q0 -79 -47.5 -124.5t-124.5 -45.5t-124.5 45.5t-47.5 124.5zM30 260q0 115 80.5 192.5t199.5 77.5t199.5 -77.5t80.5 -192.5t-80.5 -192.5t-199.5 -77.5t-199.5 77.5t-80.5 192.5zM196 260q0 -53 32.5 -88.5t81.5 -35.5
t81.5 35.5t32.5 88.5t-32.5 88.5t-81.5 35.5t-81.5 -35.5t-32.5 -88.5z" />
    <glyph glyph-name="Ohungarumlaut" unicode="&#x150;" 
d="M323 745h-154l142 155h174zM548 745h-154l142 155h174zM30 350q0 152 106.5 256t263.5 104t263.5 -104t106.5 -256t-106.5 -256t-263.5 -104t-263.5 104t-106.5 256zM206 350q0 -86 56 -145t138 -59t138 59t56 145t-56 145t-138 59t-138 -59t-56 -145z" />
    <glyph glyph-name="ohungarumlaut" unicode="&#x151;" horiz-adv-x="620" 
d="M257 580h-137l103 160h157zM457 580h-137l103 160h157zM30 260q0 115 80.5 192.5t199.5 77.5t199.5 -77.5t80.5 -192.5t-80.5 -192.5t-199.5 -77.5t-199.5 77.5t-80.5 192.5zM196 260q0 -53 32.5 -88.5t81.5 -35.5t81.5 35.5t32.5 88.5t-32.5 88.5t-81.5 35.5
t-81.5 -35.5t-32.5 -88.5z" />
    <glyph glyph-name="OE" unicode="&#x152;" horiz-adv-x="1064" 
d="M1024 700v-150h-310v-125h300v-150h-300v-125h310v-150h-480v132q-58 -142 -215 -142q-55 0 -107 23t-95.5 66.5t-70 114t-26.5 156.5q0 162 92 261t207 99q157 0 215 -142v132h480zM400 146q87 0 144 45v318q-57 45 -144 45q-84 0 -139 -56t-55 -148t55 -148t139 -56z
" />
    <glyph glyph-name="oe" unicode="&#x153;" horiz-adv-x="1004" 
d="M699 530q135 0 215 -98t54 -230h-377q14 -35 45.5 -55.5t72.5 -20.5q73 0 109 58l130 -60q-37 -61 -100 -97.5t-144 -36.5q-120 0 -197 80q-77 -80 -197 -80q-119 0 -199.5 77.5t-80.5 192.5t80.5 192.5t199.5 77.5q120 0 196 -79q76 79 193 79zM699 394q-35 0 -63 -19.5
t-43 -52.5h213q-29 72 -107 72zM310 136q49 0 81.5 35.5t32.5 88.5t-32.5 88.5t-81.5 35.5t-81.5 -35.5t-32.5 -88.5t32.5 -88.5t81.5 -35.5z" />
    <glyph glyph-name="Racute" unicode="&#x154;" horiz-adv-x="660" 
d="M304 900h194l-162 -155h-174zM477 251l163 -251h-202l-149 230h-69v-230h-170v700h310q118 0 189 -66t71 -169q0 -73 -37.5 -129.5t-105.5 -84.5zM360 550h-140v-165h140q38 0 61 23t23 59t-23 59.5t-61 23.5z" />
    <glyph glyph-name="racute" unicode="&#x155;" horiz-adv-x="417" 
d="M212 740h177l-123 -160h-157zM210 520v-130q13 49 34.5 81.5t46 44.5t52.5 14t54 -10v-150q-80 31 -133.5 6.5t-53.5 -87.5v-289h-160v520h160z" />
    <glyph glyph-name="uni0156" unicode="&#x156;" horiz-adv-x="660" 
d="M477 251l163 -251h-202l-149 230h-69v-230h-170v700h310q118 0 189 -66t71 -169q0 -73 -37.5 -129.5t-105.5 -84.5zM360 550h-140v-165h140q38 0 61 23t23 59t-23 59.5t-61 23.5zM368 -210h-128l28 175h152z" />
    <glyph glyph-name="uni0157" unicode="&#x157;" horiz-adv-x="417" 
d="M210 520v-130q13 49 34.5 81.5t46 44.5t52.5 14t54 -10v-150q-80 31 -133.5 6.5t-53.5 -87.5v-289h-160v520h160zM163 -210h-128l28 175h152z" />
    <glyph glyph-name="Rcaron" unicode="&#x158;" horiz-adv-x="660" 
d="M519 900l-145 -155h-168l-145 155h174l55 -56l55 56h174zM477 251l163 -251h-202l-149 230h-69v-230h-170v700h310q118 0 189 -66t71 -169q0 -73 -37.5 -129.5t-105.5 -84.5zM360 550h-140v-165h140q38 0 61 23t23 59t-23 59.5t-61 23.5z" />
    <glyph glyph-name="rcaron" unicode="&#x159;" horiz-adv-x="417" 
d="M411 740l-113 -160h-178l-113 160h147l55 -66l55 66h147zM210 520v-130q13 49 34.5 81.5t46 44.5t52.5 14t54 -10v-150q-80 31 -133.5 6.5t-53.5 -87.5v-289h-160v520h160z" />
    <glyph glyph-name="Sacute" unicode="&#x15a;" horiz-adv-x="637" 
d="M367 745h-174l142 155h194zM40 187l172 35q18 -86 114 -86q42 0 68.5 19t26.5 46q0 22 -20 37t-52.5 24t-71.5 18.5t-78 24.5t-71.5 37t-52.5 61t-20 92q0 92 77 153.5t189 61.5q113 0 185.5 -54t85.5 -143l-172 -35q-8 40 -35 63t-70 23q-38 0 -61 -16.5t-23 -42.5
q0 -24 27 -40t68 -24t88 -24t88 -37t68 -66t27 -108q0 -92 -79.5 -154t-196.5 -62q-116 0 -191.5 54t-89.5 143z" />
    <glyph glyph-name="sacute" unicode="&#x15b;" horiz-adv-x="510" 
d="M312 580h-157l103 160h177zM20 142l159 34q7 -61 76 -61q34 0 54 12.5t20 29.5q0 18 -22 28t-54.5 13t-70.5 12t-70.5 22t-54.5 46t-22 83q0 72 63.5 120.5t156.5 48.5q95 0 157 -41t73 -111l-159 -34q-7 61 -71 61q-25 0 -42 -10.5t-17 -26.5q0 -19 22 -30t54.5 -14.5
t70.5 -12.5t70.5 -22.5t54.5 -46.5t22 -83q0 -71 -68.5 -120t-166.5 -49q-99 0 -161.5 41t-73.5 111z" />
    <glyph glyph-name="Scircumflex" unicode="&#x15c;" horiz-adv-x="637" 
d="M376 745l-55 56l-55 -56h-174l145 155h168l145 -155h-174zM231 505q0 -24 27 -40t68 -24t88 -24t88 -37t68 -66t27 -108q0 -92 -79.5 -154t-196.5 -62q-116 0 -191.5 54t-89.5 143l172 35q18 -86 114 -86q42 0 68.5 19t26.5 46q0 22 -20 37t-52.5 24t-71.5 18.5t-78 24.5
t-71.5 37t-52.5 61t-20 92q0 92 77 153.5t189 61.5q113 0 185.5 -54t85.5 -143l-172 -35q-8 40 -35 63t-70 23q-38 0 -61 -16.5t-23 -42.5z" />
    <glyph glyph-name="scircumflex" unicode="&#x15d;" horiz-adv-x="510" 
d="M310 580l-55 66l-55 -66h-147l113 160h178l113 -160h-147zM196 368q0 -19 22 -30t54.5 -14.5t70.5 -12.5t70.5 -22.5t54.5 -46.5t22 -83q0 -71 -68.5 -120t-166.5 -49q-99 0 -161.5 41t-73.5 111l159 34q7 -61 76 -61q34 0 54 12.5t20 29.5q0 18 -22 28t-54.5 13
t-70.5 12t-70.5 22t-54.5 46t-22 83q0 72 63.5 120.5t156.5 48.5q95 0 157 -41t73 -111l-159 -34q-7 61 -71 61q-25 0 -42 -10.5t-17 -26.5z" />
    <glyph glyph-name="Scedilla" unicode="&#x15e;" horiz-adv-x="637" 
d="M597 206q0 -86 -69.5 -146t-176.5 -69q76 -34 76 -97q0 -42 -41.5 -73t-112.5 -31q-40 0 -80 11l20 125q12 -3 22 -3q19 0 30 9t11 24q0 18 -18 39q-91 13 -149 64.5t-69 127.5l172 35q18 -86 114 -86q42 0 68.5 19t26.5 46q0 22 -20 37t-52.5 24t-71.5 18.5t-78 24.5
t-71.5 37t-52.5 61t-20 92q0 92 77 153.5t189 61.5q113 0 185.5 -54t85.5 -143l-172 -35q-8 40 -35 63t-70 23q-38 0 -61 -16.5t-23 -42.5q0 -24 27 -40t68 -24t88 -24t88 -37t68 -66t27 -108z" />
    <glyph glyph-name="scedilla" unicode="&#x15f;" horiz-adv-x="510" 
d="M490 159q0 -64 -56.5 -110.5t-140.5 -56.5q78 -34 78 -98q0 -42 -41.5 -73t-112.5 -31q-40 0 -80 11l20 125q12 -3 22 -3q19 0 30 9t11 24q0 19 -17 37q-77 10 -125 49.5t-58 99.5l159 34q7 -61 76 -61q34 0 54 12.5t20 29.5q0 18 -22 28t-54.5 13t-70.5 12t-70.5 22
t-54.5 46t-22 83q0 72 63.5 120.5t156.5 48.5q95 0 157 -41t73 -111l-159 -34q-7 61 -71 61q-25 0 -42 -10.5t-17 -26.5q0 -19 22 -30t54.5 -14.5t70.5 -12.5t70.5 -22.5t54.5 -46.5t22 -83z" />
    <glyph glyph-name="Scaron" unicode="&#x160;" horiz-adv-x="637" 
d="M550 900l-145 -155h-168l-145 155h174l55 -56l55 56h174zM231 505q0 -24 27 -40t68 -24t88 -24t88 -37t68 -66t27 -108q0 -92 -79.5 -154t-196.5 -62q-116 0 -191.5 54t-89.5 143l172 35q18 -86 114 -86q42 0 68.5 19t26.5 46q0 22 -20 37t-52.5 24t-71.5 18.5t-78 24.5
t-71.5 37t-52.5 61t-20 92q0 92 77 153.5t189 61.5q113 0 185.5 -54t85.5 -143l-172 -35q-8 40 -35 63t-70 23q-38 0 -61 -16.5t-23 -42.5z" />
    <glyph glyph-name="scaron" unicode="&#x161;" horiz-adv-x="510" 
d="M457 740l-113 -160h-178l-113 160h147l55 -66l55 66h147zM196 368q0 -19 22 -30t54.5 -14.5t70.5 -12.5t70.5 -22.5t54.5 -46.5t22 -83q0 -71 -68.5 -120t-166.5 -49q-99 0 -161.5 41t-73.5 111l159 34q7 -61 76 -61q34 0 54 12.5t20 29.5q0 18 -22 28t-54.5 13t-70.5 12
t-70.5 22t-54.5 46t-22 83q0 72 63.5 120.5t156.5 48.5q95 0 157 -41t73 -111l-159 -34q-7 61 -71 61q-25 0 -42 -10.5t-17 -26.5z" />
    <glyph glyph-name="uni0162" unicode="&#x162;" horiz-adv-x="600" 
d="M590 550h-205v-550h-68q48 -16 73 -44.5t25 -61.5q0 -42 -41.5 -73t-112.5 -31q-40 0 -80 11l20 125q12 -3 22 -3q19 0 30 9t11 24q0 21 -23 44h-26v550h-205v150h580v-150z" />
    <glyph glyph-name="uni0163" unicode="&#x163;" horiz-adv-x="480" 
d="M395 520v-140h-125v-180q0 -60 60 -60h65v-140h-65q-34 0 -57 4q81 -51 81 -110q0 -42 -41.5 -73t-112.5 -31q-40 0 -80 11l20 125q12 -3 22 -3q19 0 30 9t11 24q0 30 -52 111q-41 50 -41 143v170h-100v140h100v140l160 50v-190h125z" />
    <glyph glyph-name="Tcaron" unicode="&#x164;" horiz-adv-x="600" 
d="M529 900l-145 -155h-168l-145 155h174l55 -56l55 56h174zM10 550v150h580v-150h-205v-550h-170v550h-205z" />
    <glyph glyph-name="tcaron" unicode="&#x165;" horiz-adv-x="440" 
d="M428 575h-118l28 195h142zM110 380h-100v140h100v140l160 50v-190h125v-140h-125v-180q0 -60 60 -60h65v-140h-65q-220 0 -220 210v170z" />
    <glyph glyph-name="Tbar" unicode="&#x166;" horiz-adv-x="600" 
d="M590 700v-150h-205v-140h80v-120h-80v-290h-170v290h-80v120h80v140h-205v150h580z" />
    <glyph glyph-name="tbar" unicode="&#x167;" horiz-adv-x="425" 
d="M395 520v-140h-125v-50h100v-120h-100v-10q0 -60 60 -60h65v-140h-65q-220 0 -220 210h-60v120h60v50h-100v140h100v140l160 50v-190h125z" />
    <glyph glyph-name="Utilde" unicode="&#x168;" horiz-adv-x="700" 
d="M229 748l-99 48q11 49 52 81.5t93 32.5q47 0 90.5 -23.5t59.5 -23.5q33 0 46 39l99 -48q-11 -49 -52 -81.5t-93 -32.5q-47 0 -90.5 23.5t-59.5 23.5q-33 0 -46 -39zM40 282v418h170v-418q0 -60 38 -98t102 -38t102 38t38 98v418h170v-418q0 -128 -87 -210t-223 -82
t-223 82t-87 210z" />
    <glyph glyph-name="utilde" unicode="&#x169;" horiz-adv-x="590" 
d="M184 583l-99 48q11 49 52 81.5t93 32.5q42 0 80.5 -23.5t49.5 -23.5q32 0 46 39l99 -48q-11 -49 -52 -81.5t-93 -32.5q-42 0 -80.5 23.5t-49.5 23.5q-32 0 -46 -39zM45 222v298h160v-298q0 -39 24.5 -62.5t65.5 -23.5q39 0 64.5 23.5t25.5 62.5v298h160v-298
q0 -103 -70.5 -167.5t-179.5 -64.5q-111 0 -180.5 64.5t-69.5 167.5z" />
    <glyph glyph-name="Umacron" unicode="&#x16a;" horiz-adv-x="700" 
d="M515 765h-330v120h330v-120zM40 282v418h170v-418q0 -60 38 -98t102 -38t102 38t38 98v418h170v-418q0 -128 -87 -210t-223 -82t-223 82t-87 210z" />
    <glyph glyph-name="umacron" unicode="&#x16b;" horiz-adv-x="590" 
d="M455 600h-320v120h320v-120zM45 222v298h160v-298q0 -39 24.5 -62.5t65.5 -23.5q39 0 64.5 23.5t25.5 62.5v298h160v-298q0 -103 -70.5 -167.5t-179.5 -64.5q-111 0 -180.5 64.5t-69.5 167.5z" />
    <glyph glyph-name="Ubreve" unicode="&#x16c;" horiz-adv-x="700" 
d="M152 900h134q8 -49 64 -49q55 0 63 49h134q-7 -77 -63 -121t-134 -44q-79 0 -135 43.5t-63 121.5zM40 282v418h170v-418q0 -60 38 -98t102 -38t102 38t38 98v418h170v-418q0 -128 -87 -210t-223 -82t-223 82t-87 210z" />
    <glyph glyph-name="ubreve" unicode="&#x16d;" horiz-adv-x="590" 
d="M123 740h119q0 -24 14 -39t39 -15t39 15t14 39h119q0 -79 -47.5 -124.5t-124.5 -45.5t-124.5 45.5t-47.5 124.5zM45 222v298h160v-298q0 -39 24.5 -62.5t65.5 -23.5q39 0 64.5 23.5t25.5 62.5v298h160v-298q0 -103 -70.5 -167.5t-179.5 -64.5q-111 0 -180.5 64.5
t-69.5 167.5z" />
    <glyph glyph-name="Uring" unicode="&#x16e;" horiz-adv-x="700" 
d="M208 835q0 53 40.5 89t101.5 36t101 -36t40 -89q0 -54 -40 -89.5t-101 -35.5t-101.5 35.5t-40.5 89.5zM309 835q0 -17 12 -28.5t29 -11.5t28.5 11.5t11.5 28.5t-11.5 28.5t-28.5 11.5t-29 -11.5t-12 -28.5zM40 282v418h170v-418q0 -60 38 -98t102 -38t102 38t38 98v418
h170v-418q0 -128 -87 -210t-223 -82t-223 82t-87 210z" />
    <glyph glyph-name="uring" unicode="&#x16f;" horiz-adv-x="590" 
d="M158 660q0 51 39.5 85.5t97.5 34.5t97 -34.5t39 -85.5q0 -52 -38.5 -86t-97.5 -34t-98 34t-39 86zM254 660q0 -17 12 -28.5t29 -11.5t28.5 11.5t11.5 28.5t-11.5 28.5t-28.5 11.5t-29 -11.5t-12 -28.5zM45 222v298h160v-298q0 -39 24.5 -62.5t65.5 -23.5q39 0 64.5 23.5
t25.5 62.5v298h160v-298q0 -103 -70.5 -167.5t-179.5 -64.5q-111 0 -180.5 64.5t-69.5 167.5z" />
    <glyph glyph-name="Uhungarumlaut" unicode="&#x170;" horiz-adv-x="700" 
d="M273 745h-154l142 155h174zM498 745h-154l142 155h174zM40 282v418h170v-418q0 -60 38 -98t102 -38t102 38t38 98v418h170v-418q0 -128 -87 -210t-223 -82t-223 82t-87 210z" />
    <glyph glyph-name="uhungarumlaut" unicode="&#x171;" horiz-adv-x="590" 
d="M242 580h-137l103 160h157zM442 580h-137l103 160h157zM45 222v298h160v-298q0 -39 24.5 -62.5t65.5 -23.5q39 0 64.5 23.5t25.5 62.5v298h160v-298q0 -103 -70.5 -167.5t-179.5 -64.5q-111 0 -180.5 64.5t-69.5 167.5z" />
    <glyph glyph-name="Uogonek" unicode="&#x172;" horiz-adv-x="700" 
d="M490 282v418h170v-418q0 -106 -61.5 -182t-162.5 -100q-17 -21 -17 -44q0 -33 37 -33q10 0 25 3l15 -121q-39 -15 -88 -15q-68 0 -104.5 28t-36.5 68q0 31 22 59.5t63 44.5h-2q-136 0 -223 82t-87 210v418h170v-418q0 -60 38 -98t102 -38t102 38t38 98z" />
    <glyph glyph-name="uogonek" unicode="&#x173;" horiz-adv-x="590" 
d="M385 222v298h160v-298q0 -84 -48.5 -144t-129.5 -80q-16 -20 -16 -42q0 -33 37 -33q10 0 25 3l15 -121q-39 -15 -88 -15q-68 0 -104.5 28t-36.5 68q0 31 22.5 59.5t63.5 44.5q-107 3 -173.5 67t-66.5 165v298h160v-298q0 -39 24.5 -62.5t65.5 -23.5q39 0 64.5 23.5
t25.5 62.5z" />
    <glyph glyph-name="Wcircumflex" unicode="&#x174;" horiz-adv-x="1070" 
d="M590 745l-55 56l-55 -56h-174l145 155h168l145 -155h-174zM776 47l84 653h170l-90 -700h-328l-79 640l-80 -640h-323l-90 700h170l84 -653l81 653h320z" />
    <glyph glyph-name="wcircumflex" unicode="&#x175;" horiz-adv-x="848" 
d="M479 580l-55 66l-55 -66h-147l113 160h178l113 -160h-147zM623 51l75 469h150l-93 -520h-266l-65 476l-65 -476h-266l-93 520h150l75 -469l55 469h288z" />
    <glyph glyph-name="Ycircumflex" unicode="&#x176;" horiz-adv-x="682" 
d="M396 745l-55 56l-55 -56h-174l145 155h168l145 -155h-174zM692 700l-266 -458v-92h105v-150h-380v150h105v92l-266 458h200l156 -288l156 288h190z" />
    <glyph glyph-name="ycircumflex" unicode="&#x177;" horiz-adv-x="560" 
d="M335 580l-55 66l-55 -66h-147l113 160h178l113 -160h-147zM277 44l131 476h162l-198 -720h-162l55 200h-130l-145 520h172z" />
    <glyph glyph-name="Ydieresis" unicode="&#x178;" horiz-adv-x="682" 
d="M221 735q-37 0 -63.5 27t-26.5 63q0 37 26.5 63.5t63.5 26.5t63.5 -26.5t26.5 -63.5q0 -36 -26.5 -63t-63.5 -27zM461 735q-37 0 -63.5 27t-26.5 63q0 37 26.5 63.5t63.5 26.5t63.5 -26.5t26.5 -63.5q0 -36 -26.5 -63t-63.5 -27zM692 700l-266 -458v-92h105v-150h-380
v150h105v92l-266 458h200l156 -288l156 288h190z" />
    <glyph glyph-name="Zacute" unicode="&#x179;" horiz-adv-x="620" 
d="M324 900h194l-162 -155h-174zM50 700h520v-303l-469 -247h469v-150h-520v303l469 247h-469v150z" />
    <glyph glyph-name="zacute" unicode="&#x17a;" horiz-adv-x="540" 
d="M273 740h177l-123 -160h-157zM50 380v140h440v-265l-389 -115h389v-140h-440v265l389 115h-389z" />
    <glyph glyph-name="Zdotaccent" unicode="&#x17b;" horiz-adv-x="620" 
d="M310 730q-39 0 -67 28.5t-28 66.5q0 39 28 67t67 28t67 -28t28 -67q0 -38 -28 -66.5t-67 -28.5zM50 700h520v-303l-469 -247h469v-150h-520v303l469 247h-469v150z" />
    <glyph glyph-name="zdotaccent" unicode="&#x17c;" horiz-adv-x="540" 
d="M270 565q-39 0 -67 28.5t-28 66.5q0 39 28 67t67 28t67 -28t28 -67q0 -38 -28 -66.5t-67 -28.5zM50 380v140h440v-265l-389 -115h389v-140h-440v265l389 115h-389z" />
    <glyph glyph-name="Zcaron" unicode="&#x17d;" horiz-adv-x="620" 
d="M539 900l-145 -155h-168l-145 155h174l55 -56l55 56h174zM50 700h520v-303l-469 -247h469v-150h-520v303l469 247h-469v150z" />
    <glyph glyph-name="zcaron" unicode="&#x17e;" horiz-adv-x="540" 
d="M472 740l-113 -160h-178l-113 160h147l55 -66l55 66h147zM50 380v140h440v-265l-389 -115h389v-140h-440v265l389 115h-389z" />
    <glyph glyph-name="uni018F" unicode="&#x18f;" 
d="M400 710q157 0 263.5 -104t106.5 -256t-106.5 -256t-263.5 -104q-76 0 -145 29t-121 80.5t-78.5 130t-16.5 170.5h549q-15 68 -67 111t-121 43q-58 0 -103.5 -30t-68.5 -77l-158 60q39 85 126 144t204 59zM400 146q56 0 101 28t69 76h-340q16 -43 61 -73.5t109 -30.5z
" />
    <glyph glyph-name="florin" unicode="&#x192;" horiz-adv-x="566" 
d="M363 494v-89h145v-110h-145v-80q0 -111 -52 -168t-139 -57q-74 0 -152 37l50 130q46 -21 71 -21q62 0 62 70v89h-125v110h125v80q0 111 52 168t139 57q74 0 152 -37l-50 -130q-46 21 -71 21q-62 0 -62 -70z" />
    <glyph glyph-name="uni019D" unicode="&#x19d;" horiz-adv-x="740" 
d="M520 51v649h170v-700h-329l-141 649v-629q0 -243 -245 -230v140q48 0 61.5 17.5t13.5 72.5v680h329z" />
    <glyph glyph-name="Ohorn" unicode="&#x1a0;" 
d="M805 758q0 -59 -46.5 -95.5t-122.5 -32.5q63 -49 98.5 -122t35.5 -158q0 -152 -106.5 -256t-263.5 -104t-263.5 104t-106.5 256t106.5 256t263.5 104q39 0 79 -8q85 -15 133 4t48 71q0 31 -18 73h140q23 -41 23 -92zM400 146q82 0 138 59t56 145t-56 145t-138 59
t-138 -59t-56 -145t56 -145t138 -59z" />
    <glyph glyph-name="ohorn" unicode="&#x1a1;" horiz-adv-x="675" 
d="M695 578q0 -62 -51.5 -98.5t-133.5 -27.5q80 -77 80 -192t-80.5 -192.5t-199.5 -77.5t-199.5 77.5t-80.5 192.5t80.5 192.5t199.5 77.5q35 0 70 -8q80 -14 125 5t45 70q0 31 -18 73h140q23 -41 23 -92zM310 136q49 0 81.5 35.5t32.5 88.5t-32.5 88.5t-81.5 35.5
t-81.5 -35.5t-32.5 -88.5t32.5 -88.5t81.5 -35.5z" />
    <glyph glyph-name="Uhorn" unicode="&#x1af;" horiz-adv-x="790" 
d="M647 850h140q23 -41 23 -92q0 -69 -41 -106.5t-109 -23.5v-346q0 -128 -87 -210t-223 -82t-223 82t-87 210v418h170v-418q0 -60 38 -98t102 -38t102 38t38 98v418h90q85 0 85 77q0 31 -18 73z" />
    <glyph glyph-name="uhorn" unicode="&#x1b0;" horiz-adv-x="675" 
d="M532 670h140q23 -41 23 -92q0 -69 -41 -106.5t-109 -23.5v-226q0 -103 -70.5 -167.5t-179.5 -64.5q-111 0 -180.5 64.5t-69.5 167.5v298h160v-298q0 -39 24.5 -62.5t65.5 -23.5q39 0 64.5 23.5t25.5 62.5v298h80q85 0 85 77q0 31 -18 73z" />
    <glyph glyph-name="uni01B7" unicode="&#x1b7;" horiz-adv-x="642" 
d="M577 570l-152 -152q78 -17 127.5 -68t49.5 -129q0 -106 -80 -168.5t-194 -62.5q-90 0 -169 29t-129 85l99 122q42 -38 97 -59t102 -21q42 0 70 19.5t28 55.5q0 74 -123 74h-72v127l129 128h-285v150h502v-130z" />
    <glyph glyph-name="uni01C4" unicode="&#x1c4;" horiz-adv-x="1315" 
d="M1234 900l-145 -155h-168l-145 155h174l55 -56l55 56h174zM50 700h291q155 0 257 -100.5t102 -249.5t-102 -249.5t-257 -100.5h-291v700zM745 700h520v-303l-469 -247h469v-150h-520v303l469 247h-469v150zM220 150h106q89 0 143.5 56t54.5 144t-54.5 144t-143.5 56h-106
v-400z" />
    <glyph glyph-name="uni01C5" unicode="&#x1c5;" horiz-adv-x="1255" 
d="M1187 740l-113 -160h-178l-113 160h147l55 -66l55 66h147zM50 700h291q155 0 257 -100.5t102 -249.5t-102 -249.5t-257 -100.5h-291v700zM220 150h106q89 0 143.5 56t54.5 144t-54.5 144t-143.5 56h-106v-400zM765 380v140h440v-265l-389 -115h389v-140h-440v265l389 115
h-389z" />
    <glyph glyph-name="uni01C7" unicode="&#x1c7;" horiz-adv-x="1108" 
d="M530 0h-480v700h170v-550h310v-150zM550 218l170 25q1 -51 26.5 -74t62.5 -23q40 0 64.5 25t24.5 67v462h170v-462q0 -115 -77 -181.5t-187 -66.5q-104 0 -174.5 60.5t-79.5 167.5z" />
    <glyph glyph-name="uni01C8" unicode="&#x1c8;" horiz-adv-x="830" 
d="M605 660q0 39 28 67t67 28t67 -28t28 -67q0 -38 -28 -66.5t-67 -28.5t-67 28.5t-28 66.5zM530 0h-480v700h170v-550h310v-150zM535 -210v140q54 0 69.5 17.5t15.5 72.5v500h160v-500q0 -243 -245 -230z" />
    <glyph glyph-name="uni01CA" unicode="&#x1ca;" horiz-adv-x="1298" 
d="M379 700l141 -649v649h170v-700h-329l-141 649v-649h-170v700h329zM1088 238v462h170v-462q0 -115 -77 -181.5t-187 -66.5q-104 0 -174.5 60.5t-79.5 167.5l170 25q1 -51 26.5 -74t62.5 -23q40 0 64.5 25t24.5 67z" />
    <glyph glyph-name="uni01CB" unicode="&#x1cb;" horiz-adv-x="1020" 
d="M890 565q-39 0 -67 28.5t-28 66.5q0 39 28 67t67 28t67 -28t28 -67q0 -38 -28 -66.5t-67 -28.5zM379 700l141 -649v649h170v-700h-329l-141 649v-649h-170v700h329zM810 20v500h160v-500q0 -243 -245 -230v140q54 0 69.5 17.5t15.5 72.5z" />
    <glyph glyph-name="uni01CD" unicode="&#x1cd;" horiz-adv-x="740" 
d="M599 900l-145 -155h-168l-145 155h174l55 -56l55 56h174zM740 0h-181l-41 138h-306l-41 -138h-171l219 700h302zM365 650l-108 -362h216z" />
    <glyph glyph-name="uni01CE" unicode="&#x1ce;" horiz-adv-x="546" 
d="M472 740l-113 -160h-178l-113 160h147l55 -66l55 66h147zM270 530q104 0 167.5 -53.5t63.5 -157.5v-319h-160v122q-39 -132 -170 -132q-61 0 -106 42t-45 110q0 152 208 172l71 6q42 3 42 34q0 20 -19.5 33t-49.5 13q-34 0 -54 -18t-24 -47l-159 34q8 67 70.5 114
t164.5 47zM232 115q42 0 75.5 30t33.5 67v3q-10 -5 -37 -8l-77 -9q-47 -6 -47 -42q0 -19 13.5 -30t38.5 -11z" />
    <glyph glyph-name="uni01CF" unicode="&#x1cf;" horiz-adv-x="270" 
d="M364 900l-145 -155h-168l-145 155h174l55 -56l55 56h174zM220 0h-170v700h170v-700z" />
    <glyph glyph-name="uni01D0" unicode="&#x1d0;" horiz-adv-x="260" 
d="M130 674l55 66h147l-113 -160h-178l-113 160h147zM210 0h-160v520h160v-520z" />
    <glyph glyph-name="uni01D1" unicode="&#x1d1;" 
d="M629 900l-145 -155h-168l-145 155h174l55 -56l55 56h174zM400 710q157 0 263.5 -104t106.5 -256t-106.5 -256t-263.5 -104t-263.5 104t-106.5 256t106.5 256t263.5 104zM400 146q82 0 138 59t56 145t-56 145t-138 59t-138 -59t-56 -145t56 -145t138 -59z" />
    <glyph glyph-name="uni01D2" unicode="&#x1d2;" horiz-adv-x="620" 
d="M512 740l-113 -160h-178l-113 160h147l55 -66l55 66h147zM310 530q119 0 199.5 -77.5t80.5 -192.5t-80.5 -192.5t-199.5 -77.5t-199.5 77.5t-80.5 192.5t80.5 192.5t199.5 77.5zM310 136q49 0 81.5 35.5t32.5 88.5t-32.5 88.5t-81.5 35.5t-81.5 -35.5t-32.5 -88.5
t32.5 -88.5t81.5 -35.5z" />
    <glyph glyph-name="Gcaron" unicode="&#x1e6;" 
d="M629 900l-145 -155h-168l-145 155h174l55 -56l55 56h174zM341 400h420q10 -92 -16.5 -170.5t-78.5 -130t-121 -80.5t-145 -29q-157 0 -263.5 104t-106.5 256t106.5 256t263.5 104q117 0 204 -59t126 -144l-158 -60q-23 47 -68.5 77t-103.5 30q-82 0 -138 -59t-56 -145
t56 -145t138 -59q64 0 109 30.5t61 73.5h-229v150z" />
    <glyph glyph-name="gcaron" unicode="&#x1e7;" horiz-adv-x="634" 
d="M519 740l-113 -160h-178l-113 160h147l55 -66l55 66h147zM424 380v140h160v-460q0 -115 -80.5 -192.5t-199.5 -77.5q-79 0 -142 37t-98 98l142 77q34 -67 98 -67q50 0 85 35.5t35 89.5v100q-21 -69 -68 -109.5t-111 -40.5q-93 0 -154 74.5t-61 185.5t61 185.5t154 74.5
q64 0 111 -40.5t68 -109.5zM310 156q49 0 81.5 32.5t32.5 81.5t-32.5 81.5t-81.5 32.5t-81.5 -32.5t-32.5 -81.5t32.5 -81.5t81.5 -32.5z" />
    <glyph glyph-name="uni01E8" unicode="&#x1e8;" horiz-adv-x="690" 
d="M554 900l-145 -155h-168l-145 155h174l55 -56l55 56h174zM416 416l274 -416h-204l-185 283l-81 -94v-189h-170v700h170v-271l229 271h211z" />
    <glyph glyph-name="uni01E9" unicode="&#x1e9;" horiz-adv-x="590" 
d="M497 960l-113 -160h-178l-113 160h147l55 -66l55 66h147zM371 299l229 -299h-201l-137 178l-52 -58v-120h-160v740h160v-406l160 186h200z" />
    <glyph glyph-name="uni01EA" unicode="&#x1ea;" 
d="M770 350q0 -129 -78.5 -225.5t-202.5 -124.5q-17 -21 -17 -44q0 -33 37 -33q10 0 25 3l15 -121q-39 -15 -88 -15q-68 0 -104.5 28t-36.5 68q0 31 22 59.5t63 44.5h-5q-157 0 -263.5 104t-106.5 256t106.5 256t263.5 104t263.5 -104t106.5 -256zM206 350q0 -86 56 -145
t138 -59t138 59t56 145t-56 145t-138 59t-138 -59t-56 -145z" />
    <glyph glyph-name="uni01EB" unicode="&#x1eb;" horiz-adv-x="620" 
d="M590 260q0 -94 -56 -165.5t-146 -94.5q-17 -21 -17 -44q0 -33 37 -33q10 0 25 3l15 -121q-39 -15 -88 -15q-68 0 -104.5 28t-36.5 68q0 31 22 59.5t63 44.5q-117 2 -195.5 79.5t-78.5 190.5q0 115 80.5 192.5t199.5 77.5t199.5 -77.5t80.5 -192.5zM196 260
q0 -53 32.5 -88.5t81.5 -35.5t81.5 35.5t32.5 88.5t-32.5 88.5t-81.5 35.5t-81.5 -35.5t-32.5 -88.5z" />
    <glyph glyph-name="uni01EE" unicode="&#x1ee;" horiz-adv-x="642" 
d="M557 900l-145 -155h-168l-145 155h174l55 -56l55 56h174zM577 570l-152 -152q78 -17 127.5 -68t49.5 -129q0 -106 -80 -168.5t-194 -62.5q-90 0 -169 29t-129 85l99 122q42 -38 97 -59t102 -21q42 0 70 19.5t28 55.5q0 74 -123 74h-72v127l129 128h-285v150h502v-130z
" />
    <glyph glyph-name="uni01EF" unicode="&#x1ef;" horiz-adv-x="521" 
d="M447 740l-113 -160h-178l-113 160h147l55 -66l55 66h147zM481 390l-150 -164q75 -25 117.5 -78t42.5 -130q0 -105 -66 -166.5t-174 -61.5q-100 0 -166.5 54.5t-74.5 132.5l149 34q4 -32 27.5 -53.5t58.5 -21.5t57.5 22.5t22.5 59.5q0 87 -112 87h-51v130l134 145h-251
v140h436v-130z" />
    <glyph glyph-name="uni01F1" unicode="&#x1f1;" horiz-adv-x="1315" 
d="M50 700h291q155 0 257 -100.5t102 -249.5t-102 -249.5t-257 -100.5h-291v700zM745 700h520v-303l-469 -247h469v-150h-520v303l469 247h-469v150zM220 150h106q89 0 143.5 56t54.5 144t-54.5 144t-143.5 56h-106v-400z" />
    <glyph glyph-name="uni01F2" unicode="&#x1f2;" horiz-adv-x="1255" 
d="M50 700h291q155 0 257 -100.5t102 -249.5t-102 -249.5t-257 -100.5h-291v700zM220 150h106q89 0 143.5 56t54.5 144t-54.5 144t-143.5 56h-106v-400zM765 380v140h440v-265l-389 -115h389v-140h-440v265l389 115h-389z" />
    <glyph glyph-name="uni01F4" unicode="&#x1f4;" 
d="M414 900h194l-162 -155h-174zM341 400h420q10 -92 -16.5 -170.5t-78.5 -130t-121 -80.5t-145 -29q-157 0 -263.5 104t-106.5 256t106.5 256t263.5 104q117 0 204 -59t126 -144l-158 -60q-23 47 -68.5 77t-103.5 30q-82 0 -138 -59t-56 -145t56 -145t138 -59
q64 0 109 30.5t61 73.5h-229v150z" />
    <glyph glyph-name="uni01F5" unicode="&#x1f5;" horiz-adv-x="634" 
d="M320 740h177l-123 -160h-157zM424 380v140h160v-460q0 -115 -80.5 -192.5t-199.5 -77.5q-79 0 -142 37t-98 98l142 77q34 -67 98 -67q50 0 85 35.5t35 89.5v100q-21 -69 -68 -109.5t-111 -40.5q-93 0 -154 74.5t-61 185.5t61 185.5t154 74.5q64 0 111 -40.5t68 -109.5z
M310 156q49 0 81.5 32.5t32.5 81.5t-32.5 81.5t-81.5 32.5t-81.5 -32.5t-32.5 -81.5t32.5 -81.5t81.5 -32.5z" />
    <glyph glyph-name="AEacute" unicode="&#x1fc;" horiz-adv-x="1000" 
d="M580 900h194l-162 -155h-174zM960 700v-150h-310v-125h300v-150h-300v-125h310v-150h-480v138h-236l-79 -138h-185l401 700h579zM480 551l-150 -263h150v263z" />
    <glyph glyph-name="aeacute" unicode="&#x1fd;" horiz-adv-x="942" 
d="M504 740h177l-123 -160h-157zM658 530q125 0 199 -98t50 -230h-377q14 -35 45.5 -55.5t72.5 -20.5q73 0 109 58l130 -60q-64 -134 -204 -134q-65 0 -112.5 42t-69.5 114v-146h-160v122q-39 -132 -170 -132q-61 0 -106 42t-45 110q0 45 18.5 78.5t50.5 52t65.5 28.5
t73.5 13l71 6q42 3 42 34q0 20 -19.5 33t-49.5 13q-34 0 -54 -18t-24 -47l-159 34q8 67 70.5 114t164.5 47q139 0 197 -87q76 87 191 87zM638 394q-35 0 -63 -19.5t-43 -52.5h213q-29 72 -107 72zM232 115q42 0 75.5 30t33.5 67v3q-10 -5 -37 -8l-77 -9q-46 -6 -46 -42
q0 -18 13.5 -29.5t37.5 -11.5z" />
    <glyph glyph-name="Oslashacute" unicode="&#x1fe;" 
d="M414 900h194l-162 -155h-174zM720 676l-52 -74q102 -104 102 -252q0 -152 -106.5 -256t-263.5 -104q-76 0 -142 26l-55 -78l-123 86l52 74q-102 104 -102 252q0 152 106.5 256t263.5 104q76 0 142 -26l55 78zM206 350q0 -58 27 -107l214 305q-22 6 -47 6q-82 0 -138 -59
t-56 -145zM400 146q82 0 138 59t56 145q0 58 -27 107l-214 -305q23 -6 47 -6z" />
    <glyph glyph-name="oslashacute" unicode="&#x1ff;" horiz-adv-x="620" 
d="M313 740h177l-123 -160h-157zM574 515l-52 -75q68 -74 68 -180q0 -115 -80.5 -192.5t-199.5 -77.5q-48 0 -93 14l-56 -79l-115 80l52 75q-68 74 -68 180q0 115 80.5 192.5t199.5 77.5q48 0 93 -14l56 79zM186 260q0 -25 7 -45l125 179h-8q-53 0 -88.5 -38t-35.5 -96z
M310 126q53 0 88.5 38t35.5 96q0 25 -7 45l-125 -179h8z" />
    <glyph glyph-name="uni0218" unicode="&#x218;" horiz-adv-x="637" 
d="M40 187l172 35q18 -86 114 -86q42 0 68.5 19t26.5 46q0 22 -20 37t-52.5 24t-71.5 18.5t-78 24.5t-71.5 37t-52.5 61t-20 92q0 92 77 153.5t189 61.5q113 0 185.5 -54t85.5 -143l-172 -35q-8 40 -35 63t-70 23q-38 0 -61 -16.5t-23 -42.5q0 -24 27 -40t68 -24t88 -24
t88 -37t68 -66t27 -108q0 -92 -79.5 -154t-196.5 -62q-116 0 -191.5 54t-89.5 143zM349 -210h-128l28 175h152z" />
    <glyph glyph-name="uni0219" unicode="&#x219;" horiz-adv-x="510" 
d="M20 142l159 34q7 -61 76 -61q34 0 54 12.5t20 29.5q0 18 -22 28t-54.5 13t-70.5 12t-70.5 22t-54.5 46t-22 83q0 72 63.5 120.5t156.5 48.5q95 0 157 -41t73 -111l-159 -34q-7 61 -71 61q-25 0 -42 -10.5t-17 -26.5q0 -19 22 -30t54.5 -14.5t70.5 -12.5t70.5 -22.5
t54.5 -46.5t22 -83q0 -71 -68.5 -120t-166.5 -49q-99 0 -161.5 41t-73.5 111zM293 -210h-128l28 175h152z" />
    <glyph glyph-name="uni021A" unicode="&#x21a;" horiz-adv-x="600" 
d="M385 0h-170v550h-205v150h580v-150h-205v-550zM338 -210h-128l28 175h152z" />
    <glyph glyph-name="uni021B" unicode="&#x21b;" horiz-adv-x="425" 
d="M110 380h-100v140h100v140l160 50v-190h125v-140h-125v-180q0 -60 60 -60h65v-140h-65q-220 0 -220 210v170zM313 -210h-128l28 175h152z" />
    <glyph glyph-name="uni0232" unicode="&#x232;" horiz-adv-x="682" 
d="M176 885h330v-120h-330v120zM692 700l-266 -458v-92h105v-150h-380v150h105v92l-266 458h200l156 -288l156 288h190z" />
    <glyph glyph-name="uni0233" unicode="&#x233;" horiz-adv-x="560" 
d="M120 720h320v-120h-320v120zM277 44l131 476h162l-198 -720h-162l55 200h-130l-145 520h172z" />
    <glyph glyph-name="uni0237" unicode="&#x237;" horiz-adv-x="280" 
d="M-15 -210v140q54 0 69.5 17.5t15.5 72.5v500h160v-500q0 -243 -245 -230z" />
    <glyph glyph-name="uni0259" unicode="&#x259;" horiz-adv-x="610" 
d="M300 530q119 0 199.5 -77.5t80.5 -192.5t-79 -192.5t-196 -77.5q-135 0 -215 98t-54 230h377q-14 35 -45.5 55.5t-72.5 20.5q-73 0 -109 -58l-130 60q37 61 100 97.5t144 36.5zM305 126q35 0 63 19.5t43 52.5h-213q29 -72 107 -72z" />
    <glyph glyph-name="uni0272" unicode="&#x272;" horiz-adv-x="615" 
d="M385 530q84 0 134.5 -58.5t50.5 -152.5v-319h-160v289q0 43 -27 69.5t-68 26.5q-47 0 -76 -26.5t-29 -69.5v-269q0 -243 -245 -230v140q54 0 69.5 17.5t15.5 72.5v500h160v-130q21 65 67 102.5t108 37.5z" />
    <glyph glyph-name="uni0292" unicode="&#x292;" horiz-adv-x="521" 
d="M481 390l-150 -164q75 -25 117.5 -78t42.5 -130q0 -105 -66 -166.5t-174 -61.5q-100 0 -166.5 54.5t-74.5 132.5l149 34q4 -32 27.5 -53.5t58.5 -21.5t57.5 22.5t22.5 59.5q0 87 -112 87h-51v130l134 145h-251v140h436v-130z" />
    <glyph glyph-name="uni02BC" unicode="&#x2bc;" horiz-adv-x="280" 
d="M140 750q57 0 91 -42t34 -102q0 -93 -48.5 -154.5t-127.5 -83.5l-54 85q101 27 116 96q-45 -7 -80.5 20t-35.5 76q0 43 30.5 74t74.5 31z" />
    <glyph glyph-name="circumflex" unicode="&#x2c6;" horiz-adv-x="504" 
d="M341 740l113 -160h-147l-55 66l-55 -66h-147l113 160h178z" />
    <glyph glyph-name="caron" unicode="&#x2c7;" horiz-adv-x="504" 
d="M252 674l55 66h147l-113 -160h-178l-113 160h147z" />
    <glyph glyph-name="breve" unicode="&#x2d8;" horiz-adv-x="444" 
d="M50 740h119q0 -24 14 -39t39 -15t39 15t14 39h119q0 -79 -47.5 -124.5t-124.5 -45.5t-124.5 45.5t-47.5 124.5z" />
    <glyph glyph-name="dotaccent" unicode="&#x2d9;" horiz-adv-x="290" 
d="M50 660q0 39 28 67t67 28t67 -28t28 -67q0 -38 -28 -66.5t-67 -28.5t-67 28.5t-28 66.5z" />
    <glyph glyph-name="ring" unicode="&#x2da;" horiz-adv-x="373" 
d="M50 660q0 51 39.5 85.5t97.5 34.5t97 -34.5t39 -85.5q0 -52 -38.5 -86t-97.5 -34t-98 34t-39 86zM146 660q0 -17 12 -28.5t29 -11.5t28.5 11.5t11.5 28.5t-11.5 28.5t-28.5 11.5t-29 -11.5t-12 -28.5z" />
    <glyph glyph-name="ogonek" unicode="&#x2db;" horiz-adv-x="329" 
d="M168 0h51q-17 -21 -17 -44q0 -33 37 -33q10 0 25 3l15 -121q-39 -15 -88 -15q-68 0 -104.5 28t-36.5 68q0 37 31.5 69.5t86.5 44.5z" />
    <glyph glyph-name="tilde" unicode="&#x2dc;" horiz-adv-x="520" 
d="M149 583l-99 48q11 49 52 81.5t93 32.5q42 0 80.5 -23.5t49.5 -23.5q33 0 46 39l99 -48q-11 -49 -52 -81.5t-93 -32.5q-42 0 -80.5 23.5t-49.5 23.5q-33 0 -46 -39z" />
    <glyph glyph-name="hungarumlaut" unicode="&#x2dd;" horiz-adv-x="560" 
d="M187 580h-137l103 160h157zM387 580h-137l103 160h157z" />
    <glyph glyph-name="gravecomb" unicode="&#x300;" horiz-adv-x="0" 
d="M-50 580h-157l-123 160h177z" />
    <glyph glyph-name="acutecomb" unicode="&#x301;" horiz-adv-x="0" 
d="M-173 580h-157l103 160h177z" />
    <glyph glyph-name="uni0302" unicode="&#x302;" horiz-adv-x="0" 
d="M-163 740l113 -160h-147l-55 66l-55 -66h-147l113 160h178z" />
    <glyph glyph-name="tildecomb" unicode="&#x303;" horiz-adv-x="0" 
d="M-371 583l-99 48q11 49 52 81.5t93 32.5q42 0 80.5 -23.5t49.5 -23.5q33 0 46 39l99 -48q-11 -49 -52 -81.5t-93 -32.5q-42 0 -80.5 23.5t-49.5 23.5q-33 0 -46 -39z" />
    <glyph glyph-name="uni0304" unicode="&#x304;" horiz-adv-x="0" 
d="M-50 600h-320v120h320v-120z" />
    <glyph glyph-name="uni0306" unicode="&#x306;" horiz-adv-x="0" 
d="M-394 740h119q0 -24 14 -39t39 -15t39 15t14 39h119q0 -79 -47.5 -124.5t-124.5 -45.5t-124.5 45.5t-47.5 124.5z" />
    <glyph glyph-name="uni0307" unicode="&#x307;" horiz-adv-x="0" 
d="M-240 660q0 39 28 67t67 28t67 -28t28 -67q0 -38 -28 -66.5t-67 -28.5t-67 28.5t-28 66.5z" />
    <glyph glyph-name="uni0308" unicode="&#x308;" horiz-adv-x="0" 
d="M-470 660q0 37 26.5 63.5t63.5 26.5t63.5 -26.5t26.5 -63.5q0 -36 -26.5 -63t-63.5 -27t-63.5 27t-26.5 63zM-230 660q0 37 26.5 63.5t63.5 26.5t63.5 -26.5t26.5 -63.5q0 -36 -26.5 -63t-63.5 -27t-63.5 27t-26.5 63z" />
    <glyph glyph-name="hookabovecomb" unicode="&#x309;" horiz-adv-x="0" 
d="M-196 540l-33 77q63 21 63 63q0 13 -8.5 21.5t-21.5 8.5q-18 0 -26 -13.5t-6 -30.5h-115q0 61 40.5 97.5t106.5 36.5q65 0 105.5 -34t40.5 -86q0 -48 -37 -85.5t-109 -54.5z" />
    <glyph glyph-name="uni030A" unicode="&#x30a;" horiz-adv-x="0" 
d="M-323 660q0 51 39.5 85.5t97.5 34.5t97 -34.5t39 -85.5q0 -52 -38.5 -86t-97.5 -34t-98 34t-39 86zM-227 660q0 -17 12 -28.5t29 -11.5t28.5 11.5t11.5 28.5t-11.5 28.5t-28.5 11.5t-29 -11.5t-12 -28.5z" />
    <glyph glyph-name="uni030B" unicode="&#x30b;" horiz-adv-x="0" 
d="M-373 580h-137l103 160h157zM-173 580h-137l103 160h157z" />
    <glyph glyph-name="uni030C" unicode="&#x30c;" horiz-adv-x="0" 
d="M-252 674l55 66h147l-113 -160h-178l-113 160h147z" />
    <glyph glyph-name="uni0312" unicode="&#x312;" horiz-adv-x="0" 
d="M-78 565h-152l52 175h128z" />
    <glyph glyph-name="uni031B" unicode="&#x31b;" horiz-adv-x="0" 
d="M-280 480v40q85 0 85 77q0 31 -18 73h140q23 -41 23 -92q0 -90 -63 -122t-167 24z" />
    <glyph glyph-name="dotbelowcomb" unicode="&#x323;" horiz-adv-x="0" 
d="M-240 -140q0 39 28 67t67 28t67 -28t28 -67q0 -38 -28 -66.5t-67 -28.5t-67 28.5t-28 66.5z" />
    <glyph glyph-name="uni0326" unicode="&#x326;" horiz-adv-x="0" 
d="M-102 -210h-128l28 175h152z" />
    <glyph glyph-name="uni0327" unicode="&#x327;" horiz-adv-x="0" 
d="M-286 -199l20 125q12 -3 22 -3q19 0 30 9t11 24q0 21 -23 44l37 10q66 -12 101.5 -44.5t35.5 -71.5q0 -42 -41.5 -73t-112.5 -31q-40 0 -80 11z" />
    <glyph glyph-name="uni0328" unicode="&#x328;" horiz-adv-x="0" 
d="M-161 0h51q-17 -21 -17 -44q0 -33 37 -33q10 0 25 3l15 -121q-39 -15 -88 -15q-68 0 -104.5 28t-36.5 68q0 37 31.5 69.5t86.5 44.5z" />
    <glyph glyph-name="uni0335" unicode="&#x335;" horiz-adv-x="0" 
d="M-50 290h-370v120h370v-120z" />
    <glyph glyph-name="uni0374" unicode="&#x374;" horiz-adv-x="280" 
d="M140 750q57 0 91 -42t34 -102q0 -93 -48.5 -154.5t-127.5 -83.5l-54 85q101 27 116 96q-45 -7 -80.5 20t-35.5 76q0 43 30.5 74t74.5 31z" />
    <glyph glyph-name="uni0375" unicode="&#x375;" horiz-adv-x="280" 
d="M140 200q57 0 91 -42t34 -102q0 -93 -48.5 -154.5t-127.5 -83.5l-54 85q101 27 116 96q-45 -7 -80.5 20t-35.5 76q0 43 30.5 74t74.5 31z" />
    <glyph glyph-name="uni037A" unicode="&#x37a;" horiz-adv-x="330" 
d="M280 -77v-120q-114 -29 -172 15.5t-58 136.5v25h145v-10q0 -36 20.5 -45.5t64.5 -1.5z" />
    <glyph glyph-name="uni037E" unicode="&#x37e;" horiz-adv-x="280" 
d="M140 320q-43 0 -74 31.5t-31 73.5q0 43 30.5 74t74.5 31q43 0 74 -31t31 -74q0 -42 -31 -73.5t-74 -31.5zM140 200q57 0 91 -42t34 -102q0 -93 -48.5 -154.5t-127.5 -83.5l-54 85q101 27 116 96q-45 -7 -80.5 20t-35.5 76q0 43 30.5 74t74.5 31z" />
    <glyph glyph-name="tonos" unicode="&#x384;" horiz-adv-x="335" 
d="M192 580h-142l73 160h162z" />
    <glyph glyph-name="dieresistonos" unicode="&#x385;" horiz-adv-x="620" 
d="M50 660q0 33 23.5 56.5t56.5 23.5t56.5 -23.5t23.5 -56.5q0 -32 -23.5 -56t-56.5 -24t-56.5 24t-23.5 56zM327 580h-122l73 160h142zM410 660q0 33 23.5 56.5t56.5 23.5t56.5 -23.5t23.5 -56.5q0 -32 -23.5 -56t-56.5 -24t-56.5 24t-23.5 56z" />
    <glyph glyph-name="Alphatonos" unicode="&#x386;" horiz-adv-x="740" 
d="M18 700h162l-93 -160h-142zM740 0h-181l-41 138h-306l-41 -138h-171l219 700h302zM365 650l-108 -362h216z" />
    <glyph glyph-name="anoteleia" unicode="&#x387;" horiz-adv-x="280" 
d="M35 425q0 43 30.5 74t74.5 31q43 0 74 -31t31 -74q0 -42 -31 -73.5t-74 -31.5t-74 31.5t-31 73.5z" />
    <glyph glyph-name="Epsilontonos" unicode="&#x388;" horiz-adv-x="570" 
d="M-93 540h-142l73 160h162zM530 0h-480v700h480v-150h-310v-125h300v-150h-300v-125h310v-150z" />
    <glyph glyph-name="Etatonos" unicode="&#x389;" horiz-adv-x="720" 
d="M-93 540h-142l73 160h162zM220 0h-170v700h170v-275h280v275h170v-700h-170v275h-280v-275z" />
    <glyph glyph-name="Iotatonos" unicode="&#x38a;" horiz-adv-x="270" 
d="M-93 540h-142l73 160h162zM220 0h-170v700h170v-700z" />
    <glyph glyph-name="Omicrontonos" unicode="&#x38c;" 
d="M30 350q0 152 106.5 256t263.5 104t263.5 -104t106.5 -256t-106.5 -256t-263.5 -104t-263.5 104t-106.5 256zM-13 540h-142l73 160h162zM206 350q0 -86 56 -145t138 -59t138 59t56 145t-56 145t-138 59t-138 -59t-56 -145z" />
    <glyph glyph-name="Upsilontonos" unicode="&#x38e;" horiz-adv-x="682" 
d="M692 700l-266 -458v-92h105v-150h-380v150h105v92l-261 449l-88 -151h-142l73 160h352l156 -288l156 288h190z" />
    <glyph glyph-name="Omegatonos" unicode="&#x38f;" 
d="M576 150h199v-150h-310v130q124 104 124 230q0 82 -53.5 138t-135.5 56t-135.5 -56t-53.5 -138q0 -126 124 -230v-130h-310v150h199q-189 68 -189 250q0 56 25.5 110.5t70.5 99.5t115.5 72.5t153.5 27.5t153.5 -27.5t115.5 -72.5t70.5 -99.5t25.5 -110.5
q0 -182 -189 -250zM-150 540l73 160h162l-93 -160h-142z" />
    <glyph glyph-name="iotadieresistonos" unicode="&#x390;" horiz-adv-x="320" 
d="M-120 660q0 33 23.5 56.5t56.5 23.5t56.5 -23.5t23.5 -56.5q0 -32 -23.5 -56t-56.5 -24t-56.5 24t-23.5 56zM157 580h-122l73 160h142zM240 660q0 33 23.5 56.5t56.5 23.5t56.5 -23.5t23.5 -56.5q0 -32 -23.5 -56t-56.5 -24t-56.5 24t-23.5 56zM50 210v310h160v-320
q0 -60 60 -60h35v-140h-35q-220 0 -220 210z" />
    <glyph glyph-name="Alpha" unicode="&#x391;" horiz-adv-x="740" 
d="M740 0h-181l-41 138h-306l-41 -138h-171l219 700h302zM365 650l-108 -362h216z" />
    <glyph glyph-name="Beta" unicode="&#x392;" horiz-adv-x="650" 
d="M431 352q84 -10 131.5 -56t47.5 -115q0 -78 -59 -129.5t-156 -51.5h-345v700h315q97 0 156 -53t59 -131q0 -62 -39 -105t-110 -59zM348 555h-133v-135h133q35 0 55.5 19t20.5 49t-20.5 48.5t-55.5 18.5zM215 145h149q35 0 55 19t20 49t-20 48.5t-55 18.5h-149v-135z" />
    <glyph glyph-name="Gamma" unicode="&#x393;" horiz-adv-x="540" 
d="M220 0h-170v700h480v-150h-310v-550z" />
    <glyph glyph-name="uni0394" unicode="&#x394;" horiz-adv-x="740" 
d="M521 700l219 -700h-740l219 700h302zM365 650l-146 -490h292z" />
    <glyph glyph-name="Epsilon" unicode="&#x395;" horiz-adv-x="570" 
d="M530 0h-480v700h480v-150h-310v-125h300v-150h-300v-125h310v-150z" />
    <glyph glyph-name="Zeta" unicode="&#x396;" horiz-adv-x="620" 
d="M50 700h520v-303l-469 -247h469v-150h-520v303l469 247h-469v150z" />
    <glyph glyph-name="Eta" unicode="&#x397;" horiz-adv-x="720" 
d="M220 0h-170v700h170v-275h280v275h170v-700h-170v275h-280v-275z" />
    <glyph glyph-name="Theta" unicode="&#x398;" 
d="M30 350q0 152 106.5 256t263.5 104t263.5 -104t106.5 -256t-106.5 -256t-263.5 -104t-263.5 104t-106.5 256zM206 350q0 -86 56 -145t138 -59t138 59t56 145t-56 145t-138 59t-138 -59t-56 -145zM536 275h-272v150h272v-150z" />
    <glyph glyph-name="Iota" unicode="&#x399;" horiz-adv-x="270" 
d="M220 0h-170v700h170v-700z" />
    <glyph glyph-name="Kappa" unicode="&#x39a;" horiz-adv-x="690" 
d="M416 416l274 -416h-204l-185 283l-81 -94v-189h-170v700h170v-271l229 271h211z" />
    <glyph glyph-name="Lambda" unicode="&#x39b;" horiz-adv-x="710" 
d="M503 700l207 -700h-181l-179 649l-179 -649h-171l207 700h296z" />
    <glyph glyph-name="Mu" unicode="&#x39c;" horiz-adv-x="920" 
d="M850 700v-700h-160v649l-90 -649h-301l-89 649v-649h-160v700h313l89 -649l90 649h308z" />
    <glyph glyph-name="Nu" unicode="&#x39d;" horiz-adv-x="740" 
d="M520 51v649h170v-700h-329l-141 649v-649h-170v700h329z" />
    <glyph glyph-name="Xi" unicode="&#x39e;" horiz-adv-x="680" 
d="M630 700v-160h-205v-110h195v-160h-195v-110h205v-160h-580v160h205v110h-195v160h195v110h-205v160h580z" />
    <glyph glyph-name="Omicron" unicode="&#x39f;" 
d="M30 350q0 152 106.5 256t263.5 104t263.5 -104t106.5 -256t-106.5 -256t-263.5 -104t-263.5 104t-106.5 256zM206 350q0 -86 56 -145t138 -59t138 59t56 145t-56 145t-138 59t-138 -59t-56 -145z" />
    <glyph glyph-name="Pi" unicode="&#x3a0;" horiz-adv-x="720" 
d="M220 0h-170v700h620v-700h-170v550h-280v-550z" />
    <glyph glyph-name="Rho" unicode="&#x3a1;" horiz-adv-x="640" 
d="M220 0h-170v700h309q123 0 197 -69t74 -176t-74 -173.5t-197 -66.5h-139v-215zM220 550v-185h139q43 0 69 26t26 66q0 41 -26 67t-69 26h-139z" />
    <glyph glyph-name="Sigma" unicode="&#x3a3;" horiz-adv-x="580" 
d="M40 700h500v-150h-452l367 -105v-180l-367 -105h452v-160h-500v294l196 56l-196 56v294z" />
    <glyph glyph-name="Tau" unicode="&#x3a4;" horiz-adv-x="600" 
d="M385 0h-170v550h-205v150h580v-150h-205v-550z" />
    <glyph glyph-name="Upsilon" unicode="&#x3a5;" horiz-adv-x="682" 
d="M692 700l-266 -458v-92h105v-150h-380v150h105v92l-266 458h200l156 -288l156 288h190z" />
    <glyph glyph-name="Phi" unicode="&#x3a6;" horiz-adv-x="908" 
d="M539 740v-80q147 0 243 -87.5t96 -222.5t-96 -222.5t-243 -87.5v-80h-170v80q-147 0 -243 87.5t-96 222.5t96 222.5t243 87.5v80h170zM200 350q0 -72 47 -116t122 -44v320q-75 0 -122 -44t-47 -116zM539 510v-320q75 0 122 44t47 116t-47 116t-122 44z" />
    <glyph glyph-name="Chi" unicode="&#x3a7;" horiz-adv-x="688" 
d="M487 700h201l-243 -348l243 -352h-206l-140 213l-141 -213h-201l243 348l-243 352h206l140 -213z" />
    <glyph glyph-name="Psi" unicode="&#x3a8;" horiz-adv-x="830" 
d="M620 422v278h170v-278q0 -125 -79.5 -202t-210.5 -80v-140h-170v140q-131 3 -210.5 80t-79.5 202v278h170v-278q0 -57 30.5 -90t89.5 -36v404h170v-404q59 3 89.5 36t30.5 90z" />
    <glyph glyph-name="uni03A9" unicode="&#x3a9;" 
d="M576 150h199v-150h-310v130q124 104 124 230q0 82 -53.5 138t-135.5 56t-135.5 -56t-53.5 -138q0 -126 124 -230v-130h-310v150h199q-189 68 -189 250q0 56 25.5 110.5t70.5 99.5t115.5 72.5t153.5 27.5t153.5 -27.5t115.5 -72.5t70.5 -99.5t25.5 -110.5
q0 -182 -189 -250z" />
    <glyph glyph-name="Iotadieresis" unicode="&#x3aa;" horiz-adv-x="270" 
d="M-60 825q0 37 26.5 63.5t63.5 26.5t63.5 -26.5t26.5 -63.5q0 -36 -26.5 -63t-63.5 -27t-63.5 27t-26.5 63zM150 825q0 37 26.5 63.5t63.5 26.5t63.5 -26.5t26.5 -63.5q0 -36 -26.5 -63t-63.5 -27t-63.5 27t-26.5 63zM220 0h-170v700h170v-700z" />
    <glyph glyph-name="Upsilondieresis" unicode="&#x3ab;" horiz-adv-x="682" 
d="M221 735q-37 0 -63.5 27t-26.5 63q0 37 26.5 63.5t63.5 26.5t63.5 -26.5t26.5 -63.5q0 -36 -26.5 -63t-63.5 -27zM461 735q-37 0 -63.5 27t-26.5 63q0 37 26.5 63.5t63.5 26.5t63.5 -26.5t26.5 -63.5q0 -36 -26.5 -63t-63.5 -27zM692 700l-266 -458v-92h105v-150h-380
v150h105v92l-266 458h200l156 -288l156 288h190z" />
    <glyph glyph-name="alphatonos" unicode="&#x3ac;" horiz-adv-x="694" 
d="M290 740h162l-93 -160h-142zM644 140h35v-140h-35q-164 0 -206 115q-28 -58 -77 -91.5t-108 -33.5q-98 0 -160.5 77t-62.5 193q0 115 61 192.5t153 77.5q65 0 112 -42t68 -114v146h160v-320q0 -60 60 -60zM305 136q52 0 85.5 35t33.5 89t-33.5 89t-85.5 35
q-45 0 -77 -35.5t-32 -88.5t32 -88.5t77 -35.5z" />
    <glyph glyph-name="epsilontonos" unicode="&#x3ad;" horiz-adv-x="544" 
d="M265 740h177l-123 -160h-157zM271 126q39 0 86.5 15t80.5 46l86 -108q-43 -42 -110 -65.5t-143 -23.5q-102 0 -166.5 39.5t-64.5 104.5q0 47 37 81.5t107 44.5q-70 10 -107 44.5t-37 81.5q0 65 64.5 104.5t166.5 39.5q76 0 143 -23.5t110 -65.5l-86 -108q-33 31 -80.5 46
t-86.5 15q-65 0 -65 -34q0 -21 21 -28t64 -7h78v-130h-78q-43 0 -64 -7t-21 -28q0 -34 65 -34z" />
    <glyph glyph-name="etatonos" unicode="&#x3ae;" horiz-adv-x="615" 
d="M286 740h162l-93 -160h-142zM385 530q84 0 134.5 -58.5t50.5 -152.5v-519h-160v489q0 43 -27 69.5t-68 26.5q-47 0 -76 -26.5t-29 -69.5v-289h-160v520h160v-130q21 65 67 102.5t108 37.5z" />
    <glyph glyph-name="iotatonos" unicode="&#x3af;" horiz-adv-x="320" 
d="M194 580h-142l73 160h162zM50 210v310h160v-320q0 -60 60 -60h35v-140h-35q-220 0 -220 210z" />
    <glyph glyph-name="upsilondieresistonos" unicode="&#x3b0;" horiz-adv-x="590" 
d="M35 660q0 33 23.5 56.5t56.5 23.5t56.5 -23.5t23.5 -56.5q0 -32 -23.5 -56t-56.5 -24t-56.5 24t-23.5 56zM312 580h-122l73 160h142zM395 660q0 33 23.5 56.5t56.5 23.5t56.5 -23.5t23.5 -56.5q0 -32 -23.5 -56t-56.5 -24t-56.5 24t-23.5 56zM45 222v298h160v-298
q0 -39 24.5 -62.5t65.5 -23.5q39 0 64.5 23.5t25.5 62.5v298h160v-298q0 -103 -70.5 -167.5t-179.5 -64.5q-111 0 -180.5 64.5t-69.5 167.5z" />
    <glyph glyph-name="alpha" unicode="&#x3b1;" horiz-adv-x="694" 
d="M644 140h35v-140h-35q-164 0 -206 115q-28 -58 -77 -91.5t-108 -33.5q-98 0 -160.5 77t-62.5 193q0 115 61 192.5t153 77.5q65 0 112 -42t68 -114v146h160v-320q0 -60 60 -60zM305 136q52 0 85.5 35t33.5 89t-33.5 89t-85.5 35q-45 0 -77 -35.5t-32 -88.5t32 -88.5
t77 -35.5z" />
    <glyph glyph-name="beta" unicode="&#x3b2;" horiz-adv-x="637" 
d="M421 384q83 -18 129.5 -66.5t46.5 -122.5q0 -92 -58 -148.5t-143 -56.5q-67 0 -115.5 39.5t-70.5 110.5v-340h-160v685q0 122 72.5 193.5t199.5 71.5q101 0 171.5 -53t70.5 -137q0 -60 -37.5 -106.5t-105.5 -69.5zM332 136q43 0 73.5 25t30.5 67q0 35 -27 58.5t-75 23.5
h-41v140h24q38 0 64.5 22t26.5 55t-26.5 55t-64.5 22q-45 0 -76 -30t-31 -87v-233q0 -58 33.5 -88t88.5 -30z" />
    <glyph glyph-name="gamma" unicode="&#x3b3;" horiz-adv-x="560" 
d="M285 168l124 352h161l-210 -546v-174h-160v174l-210 546h172z" />
    <glyph glyph-name="delta" unicode="&#x3b4;" horiz-adv-x="620" 
d="M540 600h-194q244 -166 244 -355q0 -108 -80.5 -181.5t-199.5 -73.5t-199.5 73.5t-80.5 181.5q0 96 57.5 155t128.5 59q85 0 166 -96q-74 113 -269 257v120h427v-140zM310 136q49 0 81.5 31t32.5 78t-32.5 78t-81.5 31t-81.5 -31t-32.5 -78t32.5 -78t81.5 -31z" />
    <glyph glyph-name="epsilon" unicode="&#x3b5;" horiz-adv-x="544" 
d="M271 126q39 0 86.5 15t80.5 46l86 -108q-43 -42 -110 -65.5t-143 -23.5q-102 0 -166.5 39.5t-64.5 104.5q0 47 37 81.5t107 44.5q-70 10 -107 44.5t-37 81.5q0 65 64.5 104.5t166.5 39.5q76 0 143 -23.5t110 -65.5l-86 -108q-33 31 -80.5 46t-86.5 15q-65 0 -65 -34
q0 -21 21 -28t64 -7h78v-130h-78q-43 0 -64 -7t-21 -28q0 -34 65 -34z" />
    <glyph glyph-name="zeta" unicode="&#x3b6;" horiz-adv-x="500" 
d="M500 740v-120q-181 -157 -242.5 -234t-61.5 -144q0 -39 26 -61t96 -31q41 -6 71 -14.5t59.5 -31t41 -55t5 -89t-36.5 -130.5l-138 20q17 41 23 68t4 43t-18.5 25t-33.5 12t-53 7q-93 9 -152.5 57.5t-59.5 148.5q0 53 21 106t64 105t118 99t174 79h-347v140h440z" />
    <glyph glyph-name="eta" unicode="&#x3b7;" horiz-adv-x="615" 
d="M385 530q84 0 134.5 -58.5t50.5 -152.5v-519h-160v489q0 43 -27 69.5t-68 26.5q-47 0 -76 -26.5t-29 -69.5v-289h-160v520h160v-130q21 65 67 102.5t108 37.5z" />
    <glyph glyph-name="theta" unicode="&#x3b8;" horiz-adv-x="620" 
d="M310 750q124 0 197 -104.5t73 -275.5t-73 -275.5t-197 -104.5t-197 104.5t-73 275.5t73 275.5t197 104.5zM310 604q-39 0 -65.5 -41t-35.5 -123h202q-9 82 -35.5 123t-65.5 41zM310 136q39 0 65.5 41t35.5 123h-202q9 -82 35.5 -123t65.5 -41z" />
    <glyph glyph-name="iota" unicode="&#x3b9;" horiz-adv-x="320" 
d="M50 210v310h160v-320q0 -60 60 -60h35v-140h-35q-220 0 -220 210z" />
    <glyph glyph-name="kappa" unicode="&#x3ba;" horiz-adv-x="590" 
d="M371 299l229 -299h-201l-137 178l-52 -58v-120h-160v520h160v-186l159 186h201z" />
    <glyph glyph-name="lambda" unicode="&#x3bb;" horiz-adv-x="560" 
d="M346 740l224 -740h-162l-133 442l-113 -442h-172l156 520h105l-66 220h161z" />
    <glyph glyph-name="uni03BC" unicode="&#x3bc;" horiz-adv-x="620" 
d="M410 231v289h160v-520h-160v128q-20 -64 -61 -101t-95 -37q-21 0 -44 5v-195h-160v720h160v-289q0 -44 23 -70t67 -26q51 0 80.5 26.5t29.5 69.5z" />
    <glyph glyph-name="nu" unicode="&#x3bd;" horiz-adv-x="560" 
d="M285 50l123 470h162l-155 -520h-270l-155 520h172z" />
    <glyph glyph-name="xi" unicode="&#x3be;" horiz-adv-x="550" 
d="M348 150q41 -6 71 -14.5t59.5 -31t41 -55t5 -89t-36.5 -130.5l-138 20q17 41 23 68t4 43t-18.5 25t-34 12.5t-52.5 6.5q-99 9 -160.5 55t-61.5 135q0 75 51.5 125t145.5 69q-177 31 -177 168q0 83 65 138t176 55q98 0 163.5 -52.5t75.5 -124.5l-148 -34q-6 26 -29.5 45.5
t-57.5 19.5t-56.5 -21t-22.5 -54q0 -37 26.5 -58t75.5 -21h132v-140h-127q-127 0 -127 -75q0 -39 28.5 -57t103.5 -28z" />
    <glyph glyph-name="omicron" unicode="&#x3bf;" horiz-adv-x="620" 
d="M30 260q0 115 80.5 192.5t199.5 77.5t199.5 -77.5t80.5 -192.5t-80.5 -192.5t-199.5 -77.5t-199.5 77.5t-80.5 192.5zM196 260q0 -53 32.5 -88.5t81.5 -35.5t81.5 35.5t32.5 88.5t-32.5 88.5t-81.5 35.5t-81.5 -35.5t-32.5 -88.5z" />
    <glyph glyph-name="pi" unicode="&#x3c0;" horiz-adv-x="670" 
d="M640 520v-140h-95v-180q0 -60 60 -60h35v-140h-35q-220 0 -220 210v170h-125v-380h-160v380h-80v140h620z" />
    <glyph glyph-name="rho" unicode="&#x3c1;" horiz-adv-x="634" 
d="M324 530q119 0 199.5 -77.5t80.5 -192.5t-61 -192.5t-154 -77.5q-64 0 -111 42t-68 113v-345h-160v460q0 115 77.5 192.5t196.5 77.5zM329 136q45 0 77 35.5t32 88.5t-32.5 88.5t-81.5 35.5t-81.5 -35.5t-32.5 -88.5q0 -54 33.5 -89t85.5 -35z" />
    <glyph glyph-name="uni03C2" unicode="&#x3c2;" horiz-adv-x="560" 
d="M467 -170l-138 20q39 93 19 122q-15 22 -85 36q-6 1 -32 6q-83 16 -142 79.5t-59 166.5q0 115 80.5 192.5t199.5 77.5q83 0 150 -43.5t100 -123.5l-146 -50q-31 71 -104 71q-49 0 -81.5 -35.5t-32.5 -88.5q0 -51 32.5 -76t98.5 -34q41 -6 71 -14.5t59.5 -31t41 -55t5 -89
t-36.5 -130.5z" />
    <glyph glyph-name="sigma" unicode="&#x3c3;" horiz-adv-x="630" 
d="M310 520h300v-146h-174q76 -22 115 -68t39 -106q0 -92 -80 -151t-200 -59q-119 0 -199.5 76t-80.5 189t80.5 189t199.5 76zM424 255q0 52 -32.5 85.5t-81.5 33.5t-81.5 -33.5t-32.5 -85.5t32.5 -85.5t81.5 -33.5t81.5 33.5t32.5 85.5z" />
    <glyph glyph-name="tau" unicode="&#x3c4;" horiz-adv-x="526" 
d="M506 520v-140h-163v-180q0 -60 60 -60h35v-140h-35q-220 0 -220 210v170h-163v140h486z" />
    <glyph glyph-name="upsilon" unicode="&#x3c5;" horiz-adv-x="590" 
d="M45 222v298h160v-298q0 -39 24.5 -62.5t65.5 -23.5q39 0 64.5 23.5t25.5 62.5v298h160v-298q0 -103 -70.5 -167.5t-179.5 -64.5q-111 0 -180.5 64.5t-69.5 167.5z" />
    <glyph glyph-name="phi" unicode="&#x3c6;" horiz-adv-x="760" 
d="M730 260q0 -112 -77 -189t-193 -81v-190h-160v190q-116 4 -193 81t-77 189t77 189t193 81v130l160 50v-180q116 -4 193 -81t77 -189zM196 260q0 -50 29.5 -84.5t74.5 -39.5v248q-45 -5 -74.5 -39.5t-29.5 -84.5zM460 384v-248q45 5 74.5 39.5t29.5 84.5t-29.5 84.5
t-74.5 39.5z" />
    <glyph glyph-name="chi" unicode="&#x3c7;" horiz-adv-x="580" 
d="M400 520h170l-192 -355l192 -365h-180l-104 216l-106 -216h-170l192 355l-192 365h180l104 -216z" />
    <glyph glyph-name="psi" unicode="&#x3c8;" horiz-adv-x="750" 
d="M545 222v298h160v-298q0 -103 -70.5 -167.5t-179.5 -64.5v-190h-160v190q-111 0 -180.5 64.5t-69.5 167.5v298h160v-298q0 -39 24.5 -62.5t65.5 -23.5v524l160 50v-574q39 0 64.5 23.5t25.5 62.5z" />
    <glyph glyph-name="omega" unicode="&#x3c9;" 
d="M480 399l47 131q106 -23 169.5 -104.5t63.5 -188.5q0 -111 -54.5 -179t-146.5 -68q-57 0 -103 41.5t-58 111.5q-12 -71 -57.5 -112t-103.5 -41q-90 0 -143.5 68t-53.5 179q0 107 63.5 188.5t169.5 104.5l47 -131q-57 -17 -85.5 -61.5t-28.5 -106.5q0 -44 17.5 -69.5
t41.5 -25.5q55 0 55 100v104h160v-104q0 -100 55 -100q24 0 41.5 25.5t17.5 69.5q0 62 -28.5 106.5t-85.5 61.5z" />
    <glyph glyph-name="iotadieresis" unicode="&#x3ca;" horiz-adv-x="320" 
d="M-55 660q0 37 26.5 63.5t63.5 26.5t63.5 -26.5t26.5 -63.5q0 -36 -26.5 -63t-63.5 -27t-63.5 27t-26.5 63zM135 660q0 37 26.5 63.5t63.5 26.5t63.5 -26.5t26.5 -63.5q0 -36 -26.5 -63t-63.5 -27t-63.5 27t-26.5 63zM50 210v310h160v-320q0 -60 60 -60h35v-140h-35
q-220 0 -220 210z" />
    <glyph glyph-name="upsilondieresis" unicode="&#x3cb;" horiz-adv-x="590" 
d="M85 660q0 37 26.5 63.5t63.5 26.5t63.5 -26.5t26.5 -63.5q0 -36 -26.5 -63t-63.5 -27t-63.5 27t-26.5 63zM325 660q0 37 26.5 63.5t63.5 26.5t63.5 -26.5t26.5 -63.5q0 -36 -26.5 -63t-63.5 -27t-63.5 27t-26.5 63zM45 222v298h160v-298q0 -39 24.5 -62.5t65.5 -23.5
q39 0 64.5 23.5t25.5 62.5v298h160v-298q0 -103 -70.5 -167.5t-179.5 -64.5q-111 0 -180.5 64.5t-69.5 167.5z" />
    <glyph glyph-name="omicrontonos" unicode="&#x3cc;" horiz-adv-x="620" 
d="M352 580h-142l73 160h162zM30 260q0 115 80.5 192.5t199.5 77.5t199.5 -77.5t80.5 -192.5t-80.5 -192.5t-199.5 -77.5t-199.5 77.5t-80.5 192.5zM196 260q0 -53 32.5 -88.5t81.5 -35.5t81.5 35.5t32.5 88.5t-32.5 88.5t-81.5 35.5t-81.5 -35.5t-32.5 -88.5z" />
    <glyph glyph-name="upsilontonos" unicode="&#x3cd;" horiz-adv-x="590" 
d="M337 580h-142l73 160h162zM45 222v298h160v-298q0 -39 24.5 -62.5t65.5 -23.5q39 0 64.5 23.5t25.5 62.5v298h160v-298q0 -103 -70.5 -167.5t-179.5 -64.5q-111 0 -180.5 64.5t-69.5 167.5z" />
    <glyph glyph-name="omegatonos" unicode="&#x3ce;" 
d="M376 740h162l-93 -160h-142zM480 399l47 131q106 -23 169.5 -104.5t63.5 -188.5q0 -111 -54.5 -179t-146.5 -68q-57 0 -103 41.5t-58 111.5q-12 -71 -57.5 -112t-103.5 -41q-90 0 -143.5 68t-53.5 179q0 107 63.5 188.5t169.5 104.5l47 -131q-57 -17 -85.5 -61.5
t-28.5 -106.5q0 -44 17.5 -69.5t41.5 -25.5q55 0 55 100v104h160v-104q0 -100 55 -100q24 0 41.5 25.5t17.5 69.5q0 62 -28.5 106.5t-85.5 61.5z" />
    <glyph glyph-name="uni0400" unicode="&#x400;" horiz-adv-x="570" 
d="M413 745h-174l-162 155h194zM530 0h-480v700h480v-150h-310v-125h300v-150h-300v-125h310v-150z" />
    <glyph glyph-name="uni0401" unicode="&#x401;" horiz-adv-x="570" 
d="M75 825q0 37 26.5 63.5t63.5 26.5t63.5 -26.5t26.5 -63.5q0 -36 -26.5 -63t-63.5 -27t-63.5 27t-26.5 63zM315 825q0 37 26.5 63.5t63.5 26.5t63.5 -26.5t26.5 -63.5q0 -36 -26.5 -63t-63.5 -27t-63.5 27t-26.5 63zM530 0h-480v700h480v-150h-310v-125h300v-150h-300
v-125h310v-150z" />
    <glyph glyph-name="uni0402" unicode="&#x402;" horiz-adv-x="785" 
d="M508 455q109 0 178 -62t69 -171q0 -106 -63 -169t-167 -63q-61 0 -113 16l21 147q35 -11 63 -11q37 0 60 21.5t23 58.5q0 38 -25.5 60.5t-71.5 22.5q-53 0 -117 -24v-281h-170v550h-185v150h580v-150h-225v-120q71 25 143 25z" />
    <glyph glyph-name="uni0403" unicode="&#x403;" horiz-adv-x="540" 
d="M336 745h-174l142 155h194zM220 0h-170v700h480v-150h-310v-550z" />
    <glyph glyph-name="uni0404" unicode="&#x404;" horiz-adv-x="760" 
d="M400 146q58 0 103.5 30t68.5 77l158 -60q-39 -85 -126 -144t-204 -59q-157 0 -263.5 104t-106.5 256t106.5 256t263.5 104q117 0 204 -59t126 -144l-158 -60q-23 47 -68.5 77t-103.5 30q-63 0 -111.5 -35.5t-69.5 -93.5h287v-150h-287q21 -58 69.5 -93.5t111.5 -35.5z
" />
    <glyph glyph-name="uni0405" unicode="&#x405;" horiz-adv-x="637" 
d="M40 187l172 35q18 -86 114 -86q42 0 68.5 19t26.5 46q0 22 -20 37t-52.5 24t-71.5 18.5t-78 24.5t-71.5 37t-52.5 61t-20 92q0 92 77 153.5t189 61.5q113 0 185.5 -54t85.5 -143l-172 -35q-8 40 -35 63t-70 23q-38 0 -61 -16.5t-23 -42.5q0 -24 27 -40t68 -24t88 -24
t88 -37t68 -66t27 -108q0 -92 -79.5 -154t-196.5 -62q-116 0 -191.5 54t-89.5 143z" />
    <glyph glyph-name="uni0406" unicode="&#x406;" horiz-adv-x="270" 
d="M220 0h-170v700h170v-700z" />
    <glyph glyph-name="uni0407" unicode="&#x407;" horiz-adv-x="270" 
d="M-60 825q0 37 26.5 63.5t63.5 26.5t63.5 -26.5t26.5 -63.5q0 -36 -26.5 -63t-63.5 -27t-63.5 27t-26.5 63zM150 825q0 37 26.5 63.5t63.5 26.5t63.5 -26.5t26.5 -63.5q0 -36 -26.5 -63t-63.5 -27t-63.5 27t-26.5 63zM220 0h-170v700h170v-700z" />
    <glyph glyph-name="uni0408" unicode="&#x408;" horiz-adv-x="558" 
d="M0 218l170 25q1 -51 26.5 -74t62.5 -23q40 0 64.5 25t24.5 67v462h170v-462q0 -115 -77 -181.5t-187 -66.5q-104 0 -174.5 60.5t-79.5 167.5z" />
    <glyph glyph-name="uni0409" unicode="&#x409;" horiz-adv-x="1110" 
d="M20 -10h-10v150h20q72 0 91 39.5t19 170.5v350h550v-215h129q123 0 197 -66.5t74 -173.5t-74 -176t-197 -69h-299v550h-220v-200q0 -202 -66 -281t-214 -79zM690 335v-185h129q43 0 69 26t26 67q0 40 -26 66t-69 26h-129z" />
    <glyph glyph-name="uni040A" unicode="&#x40a;" horiz-adv-x="1080" 
d="M220 0h-170v700h170v-275h270v275h170v-215h129q123 0 197 -66.5t74 -173.5t-74 -176t-197 -69h-299v275h-270v-275zM660 335v-185h129q43 0 69 26t26 67q0 40 -26 66t-69 26h-129z" />
    <glyph glyph-name="uni040B" unicode="&#x40b;" 
d="M564 470q85 0 138 -63.5t53 -163.5v-243h-170v219q0 47 -29.5 76.5t-75.5 29.5q-52 0 -83.5 -29.5t-31.5 -76.5v-219h-170v550h-185v150h580v-150h-225v-223q23 66 76 104.5t123 38.5z" />
    <glyph glyph-name="uni040C" unicode="&#x40c;" horiz-adv-x="700" 
d="M364 900h194l-162 -155h-174zM670 700l-218 -339l238 -361h-204l-180 275h-86v-275h-170v700h170v-275h86l177 275h187z" />
    <glyph glyph-name="uni040D" unicode="&#x40d;" horiz-adv-x="740" 
d="M356 900l142 -155h-174l-162 155h194zM690 700v-700h-170v649l-141 -649h-329v700h170v-649l141 649h329z" />
    <glyph glyph-name="uni040E" unicode="&#x40e;" horiz-adv-x="670" 
d="M335 725q-82 0 -140 46t-58 129h139q0 -69 59 -69q58 0 58 69h139q0 -83 -58 -129t-139 -46zM353 401l157 299h170l-368 -700h-170l116 220l-258 480h193z" />
    <glyph glyph-name="uni040F" unicode="&#x40f;" horiz-adv-x="720" 
d="M275 0h-225v700h170v-550h280v550h170v-700h-225v-160h-170v160z" />
    <glyph glyph-name="uni0410" unicode="&#x410;" horiz-adv-x="740" 
d="M740 0h-181l-41 138h-306l-41 -138h-171l219 700h302zM365 650l-108 -362h216z" />
    <glyph glyph-name="uni0411" unicode="&#x411;" horiz-adv-x="660" 
d="M364 0h-314v700h490v-150h-320v-105h144q119 0 187.5 -61t68.5 -159q0 -99 -69 -162t-187 -63zM220 295v-145h144q39 0 59.5 20t20.5 53q0 32 -21 52t-59 20h-144z" />
    <glyph glyph-name="uni0412" unicode="&#x412;" horiz-adv-x="650" 
d="M431 352q84 -10 131.5 -56t47.5 -115q0 -78 -59 -129.5t-156 -51.5h-345v700h315q97 0 156 -53t59 -131q0 -62 -39 -105t-110 -59zM348 555h-133v-135h133q35 0 55.5 19t20.5 49t-20.5 48.5t-55.5 18.5zM215 145h149q35 0 55 19t20 49t-20 48.5t-55 18.5h-149v-135z" />
    <glyph glyph-name="uni0413" unicode="&#x413;" horiz-adv-x="540" 
d="M220 0h-170v700h480v-150h-310v-550z" />
    <glyph glyph-name="uni0414" unicode="&#x414;" horiz-adv-x="787" 
d="M697 700v-550h80v-310h-170v160h-432v-160h-170v310h75q38 46 52.5 107t14.5 193v250h550zM255 150h272v400h-220v-100q0 -124 -12 -191.5t-40 -108.5z" />
    <glyph glyph-name="uni0415" unicode="&#x415;" horiz-adv-x="570" 
d="M530 0h-480v700h480v-150h-310v-125h300v-150h-300v-125h310v-150z" />
    <glyph glyph-name="uni0416" unicode="&#x416;" horiz-adv-x="1070" 
d="M1030 700l-183 -339l203 -361h-204l-150 275h-76v-275h-170v275h-76l-155 -275h-199l203 361l-183 339h187l147 -275h76v275h170v-275h76l147 275h187z" />
    <glyph glyph-name="uni0417" unicode="&#x417;" horiz-adv-x="642" 
d="M426 350q90 -18 133 -62.5t43 -106.5q0 -87 -79.5 -139t-194.5 -52q-90 0 -169 29t-129 85l99 122q42 -38 97 -59t102 -21q41 0 69.5 17.5t28.5 47.5q0 37 -31.5 50.5t-91.5 13.5h-92v150h92q60 0 91.5 13.5t31.5 50.5q0 30 -28.5 47.5t-69.5 17.5q-47 0 -102 -21
t-97 -59l-99 122q50 56 129 85t169 29q115 0 194.5 -52t79.5 -139q0 -62 -43 -106.5t-133 -62.5z" />
    <glyph glyph-name="uni0418" unicode="&#x418;" horiz-adv-x="740" 
d="M690 700v-700h-170v649l-141 -649h-329v700h170v-649l141 649h329z" />
    <glyph glyph-name="uni0419" unicode="&#x419;" horiz-adv-x="740" 
d="M370 725q-82 0 -140 46t-58 129h139q0 -69 59 -69q58 0 58 69h139q0 -83 -58 -129t-139 -46zM690 700v-700h-170v649l-141 -649h-329v700h170v-649l141 649h329z" />
    <glyph glyph-name="uni041A" unicode="&#x41a;" horiz-adv-x="700" 
d="M670 700l-218 -339l238 -361h-204l-180 275h-86v-275h-170v700h170v-275h86l177 275h187z" />
    <glyph glyph-name="uni041B" unicode="&#x41b;" horiz-adv-x="750" 
d="M20 -10h-10v150h20q72 0 91 39.5t19 170.5v350h560v-700h-170v550h-230v-200q0 -202 -66 -281t-214 -79z" />
    <glyph glyph-name="uni041C" unicode="&#x41c;" horiz-adv-x="920" 
d="M850 700v-700h-160v649l-90 -649h-301l-89 649v-649h-160v700h313l89 -649l90 649h308z" />
    <glyph glyph-name="uni041D" unicode="&#x41d;" horiz-adv-x="720" 
d="M220 0h-170v700h170v-275h280v275h170v-700h-170v275h-280v-275z" />
    <glyph glyph-name="uni041E" unicode="&#x41e;" 
d="M30 350q0 152 106.5 256t263.5 104t263.5 -104t106.5 -256t-106.5 -256t-263.5 -104t-263.5 104t-106.5 256zM206 350q0 -86 56 -145t138 -59t138 59t56 145t-56 145t-138 59t-138 -59t-56 -145z" />
    <glyph glyph-name="uni041F" unicode="&#x41f;" horiz-adv-x="720" 
d="M220 0h-170v700h620v-700h-170v550h-280v-550z" />
    <glyph glyph-name="uni0420" unicode="&#x420;" horiz-adv-x="640" 
d="M220 0h-170v700h309q123 0 197 -69t74 -176t-74 -173.5t-197 -66.5h-139v-215zM220 550v-185h139q43 0 69 26t26 66q0 41 -26 67t-69 26h-139z" />
    <glyph glyph-name="uni0421" unicode="&#x421;" horiz-adv-x="760" 
d="M30 350q0 152 106.5 256t263.5 104q117 0 204 -59t126 -144l-158 -60q-23 47 -68.5 77t-103.5 30q-82 0 -138 -59t-56 -145t56 -145t138 -59q58 0 103.5 30t68.5 77l158 -60q-39 -85 -126 -144t-204 -59q-157 0 -263.5 104t-106.5 256z" />
    <glyph glyph-name="uni0422" unicode="&#x422;" horiz-adv-x="600" 
d="M385 0h-170v550h-205v150h580v-150h-205v-550z" />
    <glyph glyph-name="uni0423" unicode="&#x423;" horiz-adv-x="670" 
d="M353 401l157 299h170l-368 -700h-170l116 220l-258 480h193z" />
    <glyph glyph-name="uni0424" unicode="&#x424;" horiz-adv-x="908" 
d="M539 740v-80q147 0 243 -87.5t96 -222.5t-96 -222.5t-243 -87.5v-80h-170v80q-147 0 -243 87.5t-96 222.5t96 222.5t243 87.5v80h170zM200 350q0 -72 47 -116t122 -44v320q-75 0 -122 -44t-47 -116zM539 510v-320q75 0 122 44t47 116t-47 116t-122 44z" />
    <glyph glyph-name="uni0425" unicode="&#x425;" horiz-adv-x="688" 
d="M487 700h201l-243 -348l243 -352h-206l-140 213l-141 -213h-201l243 348l-243 352h206l140 -213z" />
    <glyph glyph-name="uni0426" unicode="&#x426;" horiz-adv-x="760" 
d="M580 0h-530v700h170v-550h280v550h170v-550h80v-310h-170v160z" />
    <glyph glyph-name="uni0427" unicode="&#x427;" horiz-adv-x="650" 
d="M430 380v320h170v-700h-170v233q-76 -18 -144 -18q-144 0 -205 65t-61 220v200h170v-200q0 -73 28 -104t92 -31q60 0 120 15z" />
    <glyph glyph-name="uni0428" unicode="&#x428;" horiz-adv-x="970" 
d="M920 0h-870v700h170v-550h180v550h170v-550h180v550h170v-700z" />
    <glyph glyph-name="uni0429" unicode="&#x429;" horiz-adv-x="1010" 
d="M830 0h-780v700h170v-550h180v550h170v-550h180v550h170v-550h80v-310h-170v160z" />
    <glyph glyph-name="uni042A" unicode="&#x42a;" horiz-adv-x="770" 
d="M180 550h-170v150h340v-215h129q123 0 197 -66.5t74 -173.5t-74 -176t-197 -69h-299v550zM350 335v-185h129q43 0 69 26t26 67q0 40 -26 66t-69 26h-129z" />
    <glyph glyph-name="uni042B" unicode="&#x42b;" horiz-adv-x="890" 
d="M349 0h-299v700h170v-215h129q123 0 197 -66.5t74 -173.5t-74 -176t-197 -69zM840 0h-170v700h170v-700zM220 335v-185h129q43 0 69 26t26 67q0 40 -26 66t-69 26h-129z" />
    <glyph glyph-name="uni042C" unicode="&#x42c;" horiz-adv-x="650" 
d="M359 0h-309v700h170v-215h139q123 0 197 -66.5t74 -173.5t-74 -176t-197 -69zM220 335v-185h139q43 0 69 26t26 67q0 40 -26 66t-69 26h-139z" />
    <glyph glyph-name="uni042D" unicode="&#x42d;" horiz-adv-x="760" 
d="M360 710q157 0 263.5 -104t106.5 -256t-106.5 -256t-263.5 -104q-117 0 -204 59t-126 144l158 60q23 -47 68.5 -77t103.5 -30q63 0 111.5 35.5t69.5 93.5h-287v150h287q-21 58 -69.5 93.5t-111.5 35.5q-58 0 -103.5 -30t-68.5 -77l-158 60q39 85 126 144t204 59z" />
    <glyph glyph-name="uni042E" unicode="&#x42e;" horiz-adv-x="1050" 
d="M665 710q151 0 253 -103.5t102 -256.5t-102 -256.5t-253 -103.5q-131 0 -227 80t-121 205h-97v-275h-170v700h170v-275h97q25 125 121 205t227 80zM660 146q79 0 131.5 58.5t52.5 145.5t-52.5 145.5t-131.5 58.5t-131.5 -58.5t-52.5 -145.5t52.5 -145.5t131.5 -58.5z" />
    <glyph glyph-name="uni042F" unicode="&#x42f;" horiz-adv-x="660" 
d="M300 700h310v-700h-170v230h-70l-153 -230h-197l166 250q-69 27 -107.5 84t-38.5 131q0 103 71 169t189 66zM300 385h140v165h-140q-38 0 -61 -23.5t-23 -59.5t23 -59t61 -23z" />
    <glyph glyph-name="uni0430" unicode="&#x430;" horiz-adv-x="546" 
d="M270 530q104 0 167.5 -53.5t63.5 -157.5v-319h-160v122q-39 -132 -170 -132q-61 0 -106 42t-45 110q0 152 208 172l71 6q42 3 42 34q0 20 -19.5 33t-49.5 13q-34 0 -54 -18t-24 -47l-159 34q8 67 70.5 114t164.5 47zM232 115q42 0 75.5 30t33.5 67v3q-10 -5 -37 -8
l-77 -9q-47 -6 -47 -42q0 -19 13.5 -30t38.5 -11z" />
    <glyph glyph-name="uni0431" unicode="&#x431;" horiz-adv-x="635" 
d="M389 510q92 0 154 -73t62 -177q0 -117 -80 -193.5t-200 -76.5q-125 0 -205 82.5t-80 232.5q0 137 46 237.5t133 140.5q58 27 167.5 39.5t172.5 27.5v-144q-51 -14 -142 -23.5t-124 -24.5q-77 -36 -85 -194q16 57 64.5 101.5t116.5 44.5zM325 136q49 0 81.5 32.5
t32.5 81.5q0 48 -32 81t-77 33q-52 0 -85.5 -32.5t-33.5 -81.5t32.5 -81.5t81.5 -32.5z" />
    <glyph glyph-name="uni0432" unicode="&#x432;" horiz-adv-x="583" 
d="M417 263q60 -10 93 -45.5t33 -85.5q0 -58 -50 -95t-130 -37h-313v520h289q80 0 130 -38t50 -96q0 -45 -26.5 -77.5t-75.5 -45.5zM329 390h-129v-65h129q15 0 24.5 9t9.5 24t-9.5 23.5t-24.5 8.5zM200 130h153q15 0 24.5 9t9.5 25q0 14 -9.5 22.5t-24.5 8.5h-153v-65z" />
    <glyph glyph-name="uni0433" unicode="&#x433;" horiz-adv-x="470" 
d="M210 0h-160v520h410v-140h-250v-380z" />
    <glyph glyph-name="uni0434" unicode="&#x434;" horiz-adv-x="654" 
d="M574 520v-380h70v-290h-150v150h-339v-150h-150v290h60q31 29 42.5 66t11.5 129v185h455zM229 140h185v240h-145v-45q0 -152 -40 -195z" />
    <glyph glyph-name="uni0435" unicode="&#x435;" horiz-adv-x="610" 
d="M305 530q135 0 215 -98t54 -230h-377q14 -35 45.5 -55.5t72.5 -20.5q73 0 109 58l130 -60q-37 -61 -100 -97.5t-144 -36.5q-119 0 -199.5 77.5t-80.5 192.5t79 192.5t196 77.5zM305 394q-35 0 -63 -19.5t-43 -52.5h213q-29 72 -107 72z" />
    <glyph glyph-name="uni0436" unicode="&#x436;" horiz-adv-x="866" 
d="M849 520l-146 -249l163 -271h-192l-113 190h-48v-190h-160v190h-48l-118 -190h-187l163 271l-146 249h175l113 -190h48v190h160v-190h48l113 190h175z" />
    <glyph glyph-name="uni0437" unicode="&#x437;" horiz-adv-x="544" 
d="M360 260q70 -10 107 -44.5t37 -81.5q0 -65 -64.5 -104.5t-166.5 -39.5q-76 0 -143 23.5t-110 65.5l86 108q33 -31 80.5 -46t86.5 -15q65 0 65 34q0 21 -21 28t-64 7h-78v130h78q43 0 64 7t21 28q0 34 -65 34q-39 0 -86.5 -15t-80.5 -46l-86 108q43 42 110 65.5t143 23.5
q102 0 166.5 -39.5t64.5 -104.5q0 -47 -37 -81.5t-107 -44.5z" />
    <glyph glyph-name="uni0438" unicode="&#x438;" horiz-adv-x="630" 
d="M580 520v-520h-150v473l-91 -473h-289v520h150v-473l91 473h289z" />
    <glyph glyph-name="uni0439" unicode="&#x439;" horiz-adv-x="630" 
d="M315 570q-77 0 -124.5 45.5t-47.5 124.5h124q0 -64 48 -64t48 64h124q0 -79 -47.5 -124.5t-124.5 -45.5zM580 520v-520h-150v473l-91 -473h-289v520h150v-473l91 473h289z" />
    <glyph glyph-name="uni043A" unicode="&#x43a;" horiz-adv-x="605" 
d="M579 520l-173 -250l189 -270h-191l-136 190h-58v-190h-160v520h160v-190h58l136 190h175z" />
    <glyph glyph-name="uni043B" unicode="&#x43b;" horiz-adv-x="640" 
d="M30 -10h-10v140h20q55 0 70 23t15 107v260h465v-520h-160v380h-155v-120q0 -139 -54.5 -204.5t-190.5 -65.5z" />
    <glyph glyph-name="uni043C" unicode="&#x43c;" horiz-adv-x="760" 
d="M710 520v-520h-140v473l-61 -473h-258l-61 473v-473h-140v520h269l61 -473l61 473h269z" />
    <glyph glyph-name="uni043D" unicode="&#x43d;" horiz-adv-x="620" 
d="M210 0h-160v520h160v-190h200v190h160v-520h-160v190h-200v-190z" />
    <glyph glyph-name="uni043E" unicode="&#x43e;" horiz-adv-x="620" 
d="M30 260q0 115 80.5 192.5t199.5 77.5t199.5 -77.5t80.5 -192.5t-80.5 -192.5t-199.5 -77.5t-199.5 77.5t-80.5 192.5zM196 260q0 -53 32.5 -88.5t81.5 -35.5t81.5 35.5t32.5 88.5t-32.5 88.5t-81.5 35.5t-81.5 -35.5t-32.5 -88.5z" />
    <glyph glyph-name="uni043F" unicode="&#x43f;" horiz-adv-x="610" 
d="M210 0h-160v520h510v-520h-160v380h-190v-380z" />
    <glyph glyph-name="uni0440" unicode="&#x440;" horiz-adv-x="634" 
d="M389 530q93 0 154 -77.5t61 -192.5t-61 -192.5t-154 -77.5q-64 0 -111 42t-68 113v-345h-160v720h160v-145q21 71 68 113t111 42zM329 136q45 0 77 35.5t32 88.5t-32 88.5t-77 35.5q-52 0 -85.5 -35t-33.5 -89t33.5 -89t85.5 -35z" />
    <glyph glyph-name="uni0441" unicode="&#x441;" horiz-adv-x="580" 
d="M30 260q0 115 80.5 192.5t199.5 77.5q83 0 150 -43.5t100 -123.5l-146 -50q-31 71 -104 71q-49 0 -81.5 -35.5t-32.5 -88.5t32.5 -88.5t81.5 -35.5q73 0 104 71l146 -50q-33 -80 -100 -123.5t-150 -43.5q-119 0 -199.5 77.5t-80.5 192.5z" />
    <glyph glyph-name="uni0442" unicode="&#x442;" horiz-adv-x="526" 
d="M343 0h-160v380h-163v140h486v-140h-163v-380z" />
    <glyph glyph-name="uni0443" unicode="&#x443;" horiz-adv-x="560" 
d="M277 44l131 476h162l-198 -720h-162l55 200h-130l-145 520h172z" />
    <glyph glyph-name="uni0444" unicode="&#x444;" horiz-adv-x="760" 
d="M730 260q0 -112 -77 -189t-193 -81v-190h-160v190q-116 4 -193 81t-77 189t77 189t193 81v210h160v-210q116 -4 193 -81t77 -189zM196 260q0 -50 29.5 -84.5t74.5 -39.5v248q-45 -5 -74.5 -39.5t-29.5 -84.5zM460 384v-248q45 5 74.5 39.5t29.5 84.5t-29.5 84.5
t-74.5 39.5z" />
    <glyph glyph-name="uni0445" unicode="&#x445;" horiz-adv-x="580" 
d="M385 520h185l-185 -257l185 -263h-196l-88 146l-91 -146h-185l185 257l-185 263h196l88 -146z" />
    <glyph glyph-name="uni0446" unicode="&#x446;" horiz-adv-x="650" 
d="M490 0h-440v520h160v-380h200v380h160v-380h70v-290h-150v150z" />
    <glyph glyph-name="uni0447" unicode="&#x447;" horiz-adv-x="560" 
d="M350 294v226h160v-520h-160v156q-54 -10 -111 -10q-125 0 -172 53t-47 170v151h160v-151q0 -43 18.5 -63t63.5 -20q51 0 88 8z" />
    <glyph glyph-name="uni0448" unicode="&#x448;" horiz-adv-x="830" 
d="M780 0h-730v520h160v-380h125v380h160v-380h125v380h160v-520z" />
    <glyph glyph-name="uni0449" unicode="&#x449;" horiz-adv-x="860" 
d="M700 0h-650v520h160v-380h125v380h160v-380h125v380h160v-380h70v-290h-150v150z" />
    <glyph glyph-name="uni044A" unicode="&#x44a;" horiz-adv-x="657" 
d="M423 0h-273v380h-140v140h300v-134h113q97 0 155.5 -53t58.5 -140t-58.5 -140t-155.5 -53zM310 246v-106h93q31 0 49.5 14.5t18.5 38.5t-18.5 38.5t-49.5 14.5h-93z" />
    <glyph glyph-name="uni044B" unicode="&#x44b;" horiz-adv-x="787" 
d="M323 0h-273v520h160v-134h113q97 0 155.5 -53t58.5 -140t-58.5 -140t-155.5 -53zM737 0h-160v520h160v-520zM210 246v-106h93q31 0 49.5 14.5t18.5 38.5t-18.5 38.5t-49.5 14.5h-93z" />
    <glyph glyph-name="uni044C" unicode="&#x44c;" horiz-adv-x="567" 
d="M333 0h-283v520h160v-134h123q97 0 155.5 -53t58.5 -140t-58.5 -140t-155.5 -53zM210 246v-106h103q31 0 49.5 14.5t18.5 38.5t-18.5 38.5t-49.5 14.5h-103z" />
    <glyph glyph-name="uni044D" unicode="&#x44d;" horiz-adv-x="580" 
d="M270 530q119 0 199.5 -77.5t80.5 -192.5t-80.5 -192.5t-199.5 -77.5q-83 0 -150 43.5t-100 123.5l137 47q16 -32 46.5 -55t66.5 -23q76 0 109 69h-185v130h185q-33 69 -109 69q-38 0 -68 -21t-45 -57l-137 47q33 80 100 123.5t150 43.5z" />
    <glyph glyph-name="uni044E" unicode="&#x44e;" horiz-adv-x="830" 
d="M530 530q116 0 193 -77.5t77 -192.5t-77 -192.5t-193 -77.5q-96 0 -167.5 55.5t-94.5 144.5h-58v-190h-160v520h160v-190h58q23 89 94.5 144.5t167.5 55.5zM525 136q48 0 78.5 35t30.5 89t-30.5 89t-78.5 35t-78.5 -35t-30.5 -89t30.5 -89t78.5 -35z" />
    <glyph glyph-name="uni044F" unicode="&#x44f;" horiz-adv-x="584" 
d="M251 520h283v-520h-160v150h-48l-112 -150h-184l126 168q-51 22 -80 65.5t-29 101.5q0 82 56.5 133.5t147.5 51.5zM374 380h-114q-22 0 -34.5 -13t-12.5 -33q0 -19 12.5 -31.5t34.5 -12.5h114v90z" />
    <glyph glyph-name="uni0450" unicode="&#x450;" horiz-adv-x="610" 
d="M302 740l103 -160h-157l-123 160h177zM305 530q135 0 215 -98t54 -230h-377q14 -35 45.5 -55.5t72.5 -20.5q73 0 109 58l130 -60q-37 -61 -100 -97.5t-144 -36.5q-119 0 -199.5 77.5t-80.5 192.5t79 192.5t196 77.5zM305 394q-35 0 -63 -19.5t-43 -52.5h213
q-29 72 -107 72z" />
    <glyph glyph-name="uni0451" unicode="&#x451;" horiz-adv-x="610" 
d="M185 570q-37 0 -63.5 27t-26.5 63q0 37 26.5 63.5t63.5 26.5t63.5 -26.5t26.5 -63.5q0 -36 -26.5 -63t-63.5 -27zM425 570q-37 0 -63.5 27t-26.5 63q0 37 26.5 63.5t63.5 26.5t63.5 -26.5t26.5 -63.5q0 -36 -26.5 -63t-63.5 -27zM305 530q135 0 215 -98t54 -230h-377
q14 -35 45.5 -55.5t72.5 -20.5q73 0 109 58l130 -60q-37 -61 -100 -97.5t-144 -36.5q-119 0 -199.5 77.5t-80.5 192.5t79 192.5t196 77.5zM305 394q-35 0 -63 -19.5t-43 -52.5h213q-29 72 -107 72z" />
    <glyph glyph-name="uni0452" unicode="&#x452;" horiz-adv-x="625" 
d="M395 490q84 0 134.5 -58.5t50.5 -152.5v-228q0 -122 -69 -191.5t-178 -69.5q-39 0 -79 10l20 140q28 -4 47 -4q45 0 72 27t27 78v208q0 43 -27 69.5t-68 26.5q-47 0 -76 -26.5t-29 -69.5v-249h-160v550h-60v120h60v70h160v-70h150v-120h-150v-200q21 65 67 102.5
t108 37.5z" />
    <glyph glyph-name="uni0453" unicode="&#x453;" horiz-adv-x="470" 
d="M312 580h-157l103 160h177zM210 0h-160v520h410v-140h-250v-380z" />
    <glyph glyph-name="uni0454" unicode="&#x454;" horiz-adv-x="580" 
d="M310 126q37 0 67 23t46 55l137 -47q-33 -80 -100 -123.5t-150 -43.5q-119 0 -199.5 77.5t-80.5 192.5t80.5 192.5t199.5 77.5q83 0 150 -43.5t100 -123.5l-137 -47q-15 36 -45 57t-68 21q-76 0 -109 -69h185v-130h-185q33 -69 109 -69z" />
    <glyph glyph-name="uni0455" unicode="&#x455;" horiz-adv-x="510" 
d="M20 142l159 34q7 -61 76 -61q34 0 54 12.5t20 29.5q0 18 -22 28t-54.5 13t-70.5 12t-70.5 22t-54.5 46t-22 83q0 72 63.5 120.5t156.5 48.5q95 0 157 -41t73 -111l-159 -34q-7 61 -71 61q-25 0 -42 -10.5t-17 -26.5q0 -19 22 -30t54.5 -14.5t70.5 -12.5t70.5 -22.5
t54.5 -46.5t22 -83q0 -71 -68.5 -120t-166.5 -49q-99 0 -161.5 41t-73.5 111z" />
    <glyph glyph-name="uni0456" unicode="&#x456;" horiz-adv-x="260" 
d="M35 660q0 39 28 67t67 28t67 -28t28 -67q0 -38 -28 -66.5t-67 -28.5t-67 28.5t-28 66.5zM210 0h-160v520h160v-520z" />
    <glyph glyph-name="uni0457" unicode="&#x457;" horiz-adv-x="260" 
d="M-55 660q0 37 26.5 63.5t63.5 26.5t63.5 -26.5t26.5 -63.5q0 -36 -26.5 -63t-63.5 -27t-63.5 27t-26.5 63zM135 660q0 37 26.5 63.5t63.5 26.5t63.5 -26.5t26.5 -63.5q0 -36 -26.5 -63t-63.5 -27t-63.5 27t-26.5 63zM210 0h-160v520h160v-520z" />
    <glyph glyph-name="uni0458" unicode="&#x458;" horiz-adv-x="280" 
d="M55 660q0 39 28 67t67 28t67 -28t28 -67q0 -38 -28 -66.5t-67 -28.5t-67 28.5t-28 66.5zM-15 -210v140q54 0 69.5 17.5t15.5 72.5v500h160v-500q0 -243 -245 -230z" />
    <glyph glyph-name="uni0459" unicode="&#x459;" horiz-adv-x="927" 
d="M30 -10h-10v140h20q55 0 70 23t15 107v260h455v-134h113q97 0 155.5 -53t58.5 -140t-58.5 -140t-155.5 -53h-273v380h-145v-120q0 -139 -54.5 -204.5t-190.5 -65.5zM580 246v-106h93q31 0 49.5 14.5t18.5 38.5t-18.5 38.5t-49.5 14.5h-93z" />
    <glyph glyph-name="uni045A" unicode="&#x45a;" horiz-adv-x="907" 
d="M210 0h-160v520h160v-190h190v190h160v-134h113q97 0 155.5 -53t58.5 -140t-58.5 -140t-155.5 -53h-273v190h-190v-190zM560 246v-106h93q31 0 49.5 14.5t18.5 38.5t-18.5 38.5t-49.5 14.5h-93z" />
    <glyph glyph-name="uni045B" unicode="&#x45b;" horiz-adv-x="625" 
d="M395 490q84 0 134.5 -58.5t50.5 -152.5v-279h-160v249q0 43 -27 69.5t-68 26.5q-47 0 -76 -26.5t-29 -69.5v-249h-160v550h-60v120h60v70h160v-70h150v-120h-150v-200q21 65 67 102.5t108 37.5z" />
    <glyph glyph-name="uni045C" unicode="&#x45c;" horiz-adv-x="605" 
d="M311 740h177l-123 -160h-157zM579 520l-173 -250l189 -270h-191l-136 190h-58v-190h-160v520h160v-190h58l136 190h175z" />
    <glyph glyph-name="uni045D" unicode="&#x45d;" horiz-adv-x="630" 
d="M312 740l103 -160h-157l-123 160h177zM580 520v-520h-150v473l-91 -473h-289v520h150v-473l91 473h289z" />
    <glyph glyph-name="uni045E" unicode="&#x45e;" horiz-adv-x="560" 
d="M280 570q-77 0 -124.5 45.5t-47.5 124.5h124q0 -64 48 -64t48 64h124q0 -79 -47.5 -124.5t-124.5 -45.5zM277 44l131 476h162l-198 -720h-162l55 200h-130l-145 520h172z" />
    <glyph glyph-name="uni045F" unicode="&#x45f;" horiz-adv-x="610" 
d="M230 0h-180v520h160v-380h190v380h160v-520h-180v-150h-150v150z" />
    <glyph glyph-name="uni0462" unicode="&#x462;" horiz-adv-x="690" 
d="M260 485h139q123 0 197 -66.5t74 -173.5t-74 -176t-197 -69h-309v540h-100v120h100v60h170v-60h140v-120h-140v-55zM260 150h139q43 0 69 26t26 67q0 40 -26 66t-69 26h-139v-185z" />
    <glyph glyph-name="uni0463" unicode="&#x463;" horiz-adv-x="622" 
d="M260 386h123q97 0 155.5 -53t58.5 -140t-58.5 -140t-155.5 -53h-283v460h-100v120h100v160h160v-160h110v-120h-110v-74zM260 140h103q31 0 49.5 14.5t18.5 38.5t-18.5 38.5t-49.5 14.5h-103v-106z" />
    <glyph glyph-name="uni0472" unicode="&#x472;" 
d="M400 710q157 0 263.5 -104t106.5 -256t-106.5 -256t-263.5 -104t-263.5 104t-106.5 256t106.5 256t263.5 104zM400 554q-80 0 -135 -55.5t-59 -139.5q39 91 128 91q28 0 95.5 -25.5t108.5 -25.5q25 0 49 7q-17 66 -68 107t-119 41zM400 146q81 0 136.5 56.5t57.5 140.5
q-38 -93 -129 -93q-28 0 -95.5 25.5t-108.5 25.5q-26 0 -48 -7q17 -66 68 -107t119 -41z" />
    <glyph glyph-name="uni0473" unicode="&#x473;" horiz-adv-x="620" 
d="M310 530q119 0 199.5 -77.5t80.5 -192.5t-80.5 -192.5t-199.5 -77.5t-199.5 77.5t-80.5 192.5t80.5 192.5t199.5 77.5zM310 394q-52 0 -87 -37t-37 -92q29 74 94 74q21 0 57.5 -16t55.5 -16q18 0 32 5q-14 37 -44.5 59.5t-70.5 22.5zM310 126q52 0 87 37t37 92
q-29 -74 -94 -74q-21 0 -57.5 16t-55.5 16q-18 0 -32 -5q14 -37 44.5 -59.5t70.5 -22.5z" />
    <glyph glyph-name="uni0474" unicode="&#x474;" horiz-adv-x="793" 
d="M360 51l138 499q19 68 55.5 108t97 50.5t142.5 -28.5l-49 -131q-44 19 -62 8t-33 -63l-146 -494h-296l-207 700h181z" />
    <glyph glyph-name="uni0475" unicode="&#x475;" horiz-adv-x="653" 
d="M285 50l85 325q18 67 53.5 106.5t93.5 48t136 -30.5l-50 -131q-44 19 -61.5 9t-32.5 -62l-94 -315h-270l-155 520h172z" />
    <glyph glyph-name="uni0490" unicode="&#x490;" horiz-adv-x="540" 
d="M220 0h-170v700h310v150h170v-300h-310v-550z" />
    <glyph glyph-name="uni0491" unicode="&#x491;" horiz-adv-x="470" 
d="M210 0h-160v520h260v140h150v-280h-250v-380z" />
    <glyph glyph-name="uni0492" unicode="&#x492;" horiz-adv-x="580" 
d="M570 700v-150h-310v-160h150v-120h-150v-270h-170v270h-90v120h90v310h480z" />
    <glyph glyph-name="uni0493" unicode="&#x493;" horiz-adv-x="510" 
d="M500 520v-140h-250v-100h120v-120h-120v-160h-160v160h-90v120h90v240h410z" />
    <glyph glyph-name="uni0494" unicode="&#x494;" horiz-adv-x="670" 
d="M367 455q119 0 191 -81.5t72 -224.5q0 -171 -88 -265t-225 -94q-41 0 -91 10l22 154q36 -8 70 -8q64 0 100 50t36 143q0 82 -39.5 121t-96.5 39q-47 0 -98 -17v-282h-170v700h480v-150h-310v-121q78 26 147 26z" />
    <glyph glyph-name="uni0495" unicode="&#x495;" horiz-adv-x="552" 
d="M327 310q98 0 156.5 -63.5t58.5 -175.5q0 -134 -72.5 -207.5t-184.5 -73.5q-39 0 -79 10l20 140q28 -4 47 -4q41 0 72 31.5t31 93.5q0 47 -23.5 75t-68.5 28q-32 0 -74 -15v-149h-160v520h430v-140h-270v-91q58 21 117 21z" />
    <glyph glyph-name="uni0496" unicode="&#x496;" horiz-adv-x="1106" 
d="M847 361l119 -211h130v-310h-170v160h-80l-150 275h-76v-275h-170v275h-76l-155 -275h-199l203 361l-183 339h187l147 -275h76v275h170v-275h76l147 275h187z" />
    <glyph glyph-name="uni0497" unicode="&#x497;" horiz-adv-x="914" 
d="M703 271l79 -131h122v-290h-150v150h-80l-113 190h-48v-190h-160v190h-48l-118 -190h-187l163 271l-146 249h175l113 -190h48v190h160v-190h48l113 190h175z" />
    <glyph glyph-name="uni0498" unicode="&#x498;" horiz-adv-x="642" 
d="M426 350q90 -18 133 -62.5t43 -106.5q0 -70 -52.5 -118t-136.5 -65v-158h-170v157q-136 23 -213 107l99 122q42 -38 97 -59t102 -21q41 0 69.5 17.5t28.5 47.5q0 37 -31.5 50.5t-91.5 13.5h-92v150h92q60 0 91.5 13.5t31.5 50.5q0 30 -28.5 47.5t-69.5 17.5
q-47 0 -102 -21t-97 -59l-99 122q50 56 129 85t169 29q115 0 194.5 -52t79.5 -139q0 -62 -43 -106.5t-133 -62.5z" />
    <glyph glyph-name="uni0499" unicode="&#x499;" horiz-adv-x="544" 
d="M360 260q70 -10 107 -44.5t37 -81.5q0 -52 -42 -88.5t-114 -49.5v-146h-150v146q-112 19 -178 83l86 108q33 -31 80.5 -46t86.5 -15q65 0 65 34q0 21 -21 28t-64 7h-78v130h78q43 0 64 7t21 28q0 34 -65 34q-39 0 -86.5 -15t-80.5 -46l-86 108q43 42 110 65.5t143 23.5
q102 0 166.5 -39.5t64.5 -104.5q0 -47 -37 -81.5t-107 -44.5z" />
    <glyph glyph-name="uni049A" unicode="&#x49a;" horiz-adv-x="746" 
d="M452 361l139 -211h145v-310h-170v160h-80l-180 275h-86v-275h-170v700h170v-275h86l177 275h187z" />
    <glyph glyph-name="uni049B" unicode="&#x49b;" horiz-adv-x="644" 
d="M406 270l91 -130h137v-290h-150v150h-80l-136 190h-58v-190h-160v520h160v-190h58l136 190h175z" />
    <glyph glyph-name="uni049C" unicode="&#x49c;" horiz-adv-x="764" 
d="M734 700l-218 -339l238 -361h-204l-180 275v-110h-120v110h-30v-275h-170v700h170v-275h30v110h120v-110l177 275h187z" />
    <glyph glyph-name="uni049D" unicode="&#x49d;" horiz-adv-x="675" 
d="M476 270l189 -270h-191l-124 187v-112h-110v115h-30v-190h-160v520h160v-190h30v115h110v-112l124 187h175z" />
    <glyph glyph-name="uni049E" unicode="&#x49e;" horiz-adv-x="700" 
d="M670 700l-218 -339l238 -361h-204l-180 275h-86v-275h-170v530h-80v120h80v50h170v-50h120v-120h-120v-105h86l177 275h187z" />
    <glyph glyph-name="uni049F" unicode="&#x49f;" horiz-adv-x="615" 
d="M589 520l-173 -250l189 -270h-191l-136 190h-58v-190h-160v550h-70v120h70v70h160v-70h140v-120h-140v-220h58l136 190h175z" />
    <glyph glyph-name="uni04A0" unicode="&#x4a0;" horiz-adv-x="830" 
d="M800 700l-218 -339l238 -361h-204l-180 275h-86v-275h-170v550h-170v150h340v-275h86l177 275h187z" />
    <glyph glyph-name="uni04A1" unicode="&#x4a1;" horiz-adv-x="705" 
d="M679 520l-173 -250l189 -270h-191l-136 190h-58v-190h-160v380h-140v140h300v-190h58l136 190h175z" />
    <glyph glyph-name="uni04A2" unicode="&#x4a2;" horiz-adv-x="760" 
d="M670 700v-550h80v-310h-170v160h-80v275h-280v-275h-170v700h170v-275h280v275h170z" />
    <glyph glyph-name="uni04A3" unicode="&#x4a3;" horiz-adv-x="650" 
d="M570 520v-380h70v-290h-150v150h-80v190h-200v-190h-160v520h160v-190h200v190h160z" />
    <glyph glyph-name="uni04A4" unicode="&#x4a4;" horiz-adv-x="990" 
d="M500 700h480v-150h-310v-550h-170v275h-280v-275h-170v700h170v-275h280v275z" />
    <glyph glyph-name="uni04A5" unicode="&#x4a5;" horiz-adv-x="830" 
d="M410 520h410v-140h-250v-380h-160v190h-200v-190h-160v520h160v-190h200v190z" />
    <glyph glyph-name="uni04A6" unicode="&#x4a6;" horiz-adv-x="1100" 
d="M797 455q119 0 191 -81.5t72 -224.5q0 -171 -88 -265t-225 -94q-41 0 -91 10l22 154q36 -8 70 -8q64 0 100 50t36 143q0 82 -39.5 121t-96.5 39q-47 0 -98 -17v-282h-170v550h-260v-550h-170v700h600v-271q78 26 147 26z" />
    <glyph glyph-name="uni04A7" unicode="&#x4a7;" horiz-adv-x="892" 
d="M693 310q75 0 132 -66t57 -173q0 -134 -72.5 -207.5t-184.5 -73.5q-39 0 -79 10l20 140q28 -4 47 -4q41 0 72 31.5t31 93.5q0 47 -23.5 75t-68.5 28q-32 0 -74 -15v-149h-160v380h-180v-380h-160v520h500v-306q52 96 143 96z" />
    <glyph glyph-name="uni04A8" unicode="&#x4a8;" horiz-adv-x="936" 
d="M904 155l22 -149q-52 -16 -112 -16q-111 0 -207 41q-96 -41 -207 -41q-157 0 -263.5 104t-106.5 256t106.5 256t263.5 104v-156q-82 0 -138 -59t-56 -145t56 -145t138 -59q26 0 48 3q-84 103 -84 231q0 122 70 190t173 68t173 -68t70 -190q0 -128 -84 -231q22 -3 48 -3
q40 0 90 9zM540 380q0 -98 67 -162q67 64 67 162q0 46 -18 74t-49 28q-30 0 -48.5 -28t-18.5 -74z" />
    <glyph glyph-name="uni04A9" unicode="&#x4a9;" horiz-adv-x="720" 
d="M691 133l19 -133q-44 -10 -82 -10q-83 0 -157 32q-75 -32 -161 -32q-120 0 -200 78.5t-80 196.5q0 121 80 198t200 77v-136q-54 0 -89 -38t-35 -101q0 -61 35.5 -100t88.5 -39q22 0 32 1q-52 76 -52 163q0 90 52 140.5t127 50.5t127 -50.5t52 -140.5t-49 -163q9 -1 29 -1
q28 0 63 7zM469 351q-17 0 -28 -17t-11 -44q0 -66 40 -108q38 41 38 108q0 27 -11 44t-28 17z" />
    <glyph glyph-name="uni04AA" unicode="&#x4aa;" horiz-adv-x="760" 
d="M400 146q58 0 103.5 30t68.5 77l158 -60q-31 -68 -95 -121.5t-150 -72.5v-159h-170v159q-125 27 -205 124t-80 227q0 152 106.5 256t263.5 104q117 0 204 -59t126 -144l-158 -60q-23 47 -68.5 77t-103.5 30q-82 0 -138 -59t-56 -145t56 -145t138 -59z" />
    <glyph glyph-name="uni04AB" unicode="&#x4ab;" horiz-adv-x="580" 
d="M310 136q73 0 104 71l146 -50q-25 -61 -70.5 -101.5t-104.5 -55.5v-150h-150v149q-91 23 -148 94.5t-57 166.5q0 115 80.5 192.5t199.5 77.5q83 0 150 -43.5t100 -123.5l-146 -50q-31 71 -104 71q-49 0 -81.5 -35.5t-32.5 -88.5t32.5 -88.5t81.5 -35.5z" />
    <glyph glyph-name="uni04AC" unicode="&#x4ac;" horiz-adv-x="600" 
d="M590 700v-150h-205v-400h80v-310h-170v160h-80v550h-205v150h580z" />
    <glyph glyph-name="uni04AD" unicode="&#x4ad;" horiz-adv-x="526" 
d="M506 520v-140h-163v-240h70v-290h-150v150h-80v380h-163v140h486z" />
    <glyph glyph-name="uni04AE" unicode="&#x4ae;" horiz-adv-x="682" 
d="M692 700l-266 -458v-92h105v-150h-380v150h105v92l-266 458h200l156 -288l156 288h190z" />
    <glyph glyph-name="uni04AF" unicode="&#x4af;" horiz-adv-x="560" 
d="M285 168l124 352h161l-210 -546v-174h-160v174l-210 546h172z" />
    <glyph glyph-name="uni04B0" unicode="&#x4b0;" horiz-adv-x="682" 
d="M502 700h190l-221 -380h85v-120h-130v-50h105v-150h-380v150h105v50h-130v120h85l-221 380h200l156 -288z" />
    <glyph glyph-name="uni04B1" unicode="&#x4b1;" horiz-adv-x="560" 
d="M409 520h161l-200 -520h110v-120h-120v-80h-160v80h-120v120h110l-200 520h172l123 -352z" />
    <glyph glyph-name="uni04B2" unicode="&#x4b2;" horiz-adv-x="742" 
d="M445 352l139 -202h148v-310h-170v160h-80l-140 213l-141 -213h-201l243 348l-243 352h206l140 -213l141 213h201z" />
    <glyph glyph-name="uni04B3" unicode="&#x4b3;" horiz-adv-x="614" 
d="M385 263l87 -123h132v-290h-150v150h-80l-88 146l-91 -146h-185l185 257l-185 263h196l88 -146l91 146h185z" />
    <glyph glyph-name="uni04B4" unicode="&#x4b4;" horiz-adv-x="925" 
d="M745 0h-530v550h-205v150h560v-150h-185v-400h280v550h170v-550h80v-310h-170v160z" />
    <glyph glyph-name="uni04B5" unicode="&#x4b5;" horiz-adv-x="783" 
d="M623 0h-440v380h-163v140h466v-140h-143v-240h200v380h160v-380h70v-290h-150v150z" />
    <glyph glyph-name="uni04B6" unicode="&#x4b6;" horiz-adv-x="690" 
d="M600 700v-550h80v-310h-170v160h-80v233q-76 -18 -144 -18q-144 0 -205 65t-61 220v200h170v-200q0 -73 28 -104t92 -31q60 0 120 15v320h170z" />
    <glyph glyph-name="uni04B7" unicode="&#x4b7;" horiz-adv-x="590" 
d="M510 520v-380h70v-290h-150v150h-80v156q-54 -10 -111 -10q-125 0 -172 53t-47 170v151h160v-151q0 -43 18.5 -63t63.5 -20q51 0 88 8v226h160z" />
    <glyph glyph-name="uni04B8" unicode="&#x4b8;" horiz-adv-x="650" 
d="M430 380v320h170v-700h-170v233q-27 -6 -60 -12v-106h-120v101q-124 8 -177 73.5t-53 210.5v200h170v-200q0 -103 60 -126v111h120v-116q32 4 60 11z" />
    <glyph glyph-name="uni04B9" unicode="&#x4b9;" horiz-adv-x="560" 
d="M350 294v226h160v-520h-160v156q-5 -1 -15.5 -2.5t-14.5 -2.5v-106h-110v102q-108 6 -149 59t-41 163v151h160v-151q0 -54 30 -72v118h110v-126q13 1 30 5z" />
    <glyph glyph-name="uni04BA" unicode="&#x4ba;" horiz-adv-x="655" 
d="M419 470q85 0 138 -63.5t53 -163.5v-243h-170v219q0 47 -29.5 76.5t-75.5 29.5q-52 0 -83.5 -29.5t-31.5 -76.5v-219h-170v700h170v-373q23 66 76 104.5t123 38.5z" />
    <glyph glyph-name="uni04BB" unicode="&#x4bb;" horiz-adv-x="615" 
d="M385 530q84 0 134.5 -58.5t50.5 -152.5v-319h-160v289q0 43 -27 69.5t-68 26.5q-47 0 -76 -26.5t-29 -69.5v-289h-160v740h160v-350q21 65 67 102.5t108 37.5z" />
    <glyph glyph-name="uni04BC" unicode="&#x4bc;" horiz-adv-x="940" 
d="M540 710q76 0 145 -29t121 -80.5t78.5 -130t16.5 -170.5h-549q15 -68 67 -111t121 -43q58 0 103.5 30t68.5 77l158 -60q-39 -85 -126 -144t-204 -59q-143 0 -246.5 88.5t-120.5 224.5q-85 10 -134 55.5t-49 119.5q0 51 23 92h140q-18 -42 -18 -73q0 -55 43 -70
q27 124 127 203.5t235 79.5zM540 554q-56 0 -101 -28t-69 -76h340q-16 43 -61 73.5t-109 30.5z" />
    <glyph glyph-name="uni04BD" unicode="&#x4bd;" horiz-adv-x="750" 
d="M445 530q135 0 215 -98t54 -230h-377q14 -35 45.5 -55.5t72.5 -20.5q73 0 109 58l130 -60q-37 -61 -100 -97.5t-144 -36.5q-104 0 -180 60.5t-95 155.5q-82 11 -128.5 56.5t-46.5 117.5q0 51 23 92h140q-18 -42 -18 -73q0 -48 34 -67q23 88 96 143t170 55zM445 394
q-35 0 -63 -19.5t-43 -52.5h213q-29 72 -107 72z" />
    <glyph glyph-name="uni04BE" unicode="&#x4be;" horiz-adv-x="940" 
d="M540 710q76 0 145 -29t121 -80.5t78.5 -130t16.5 -170.5h-549q15 -68 67 -111t121 -43q58 0 103.5 30t68.5 77l158 -60q-31 -68 -95 -121.5t-150 -72.5v-159h-170v159q-114 25 -191 107.5t-91 196.5q-85 10 -134 55.5t-49 119.5q0 51 23 92h140q-18 -42 -18 -73
q0 -55 43 -70q27 124 127 203.5t235 79.5zM540 554q-56 0 -101 -28t-69 -76h340q-16 43 -61 73.5t-109 30.5z" />
    <glyph glyph-name="uni04BF" unicode="&#x4bf;" horiz-adv-x="750" 
d="M445 530q135 0 215 -98t54 -230h-377q14 -35 45.5 -55.5t72.5 -20.5q73 0 109 58l130 -60q-59 -97 -169 -125v-149h-150v149q-77 20 -131 75.5t-69 131.5q-82 11 -128.5 56.5t-46.5 117.5q0 51 23 92h140q-18 -42 -18 -73q0 -48 34 -67q23 88 96 143t170 55zM445 394
q-35 0 -63 -19.5t-43 -52.5h213q-29 72 -107 72z" />
    <glyph glyph-name="uni04C0" unicode="&#x4c0;" horiz-adv-x="270" 
d="M220 0h-170v700h170v-700z" />
    <glyph glyph-name="uni04C1" unicode="&#x4c1;" horiz-adv-x="1070" 
d="M535 725q-82 0 -140 46t-58 129h139q0 -69 59 -69q58 0 58 69h139q0 -83 -58 -129t-139 -46zM1030 700l-183 -339l203 -361h-204l-150 275h-76v-275h-170v275h-76l-155 -275h-199l203 361l-183 339h187l147 -275h76v275h170v-275h76l147 275h187z" />
    <glyph glyph-name="uni04C2" unicode="&#x4c2;" horiz-adv-x="866" 
d="M433 570q-77 0 -124.5 45.5t-47.5 124.5h124q0 -64 48 -64t48 64h124q0 -79 -47.5 -124.5t-124.5 -45.5zM849 520l-146 -249l163 -271h-192l-113 190h-48v-190h-160v190h-48l-118 -190h-187l163 271l-146 249h175l113 -190h48v190h160v-190h48l113 190h175z" />
    <glyph glyph-name="uni04C3" unicode="&#x4c3;" horiz-adv-x="690" 
d="M670 700l-191 -297q71 -31 111 -100.5t40 -169.5q0 -164 -88 -253.5t-225 -89.5q-41 0 -91 10l22 154q36 -8 70 -8q64 0 100 46t36 133q0 77 -39.5 113.5t-96.5 36.5h-98v-275h-170v700h170v-275h86l177 275h187z" />
    <glyph glyph-name="uni04C4" unicode="&#x4c4;" horiz-adv-x="600" 
d="M579 520l-155 -224q118 -61 118 -235q0 -127 -73 -199t-184 -72q-39 0 -79 10l20 140q28 -4 47 -4q41 0 72 31.5t31 93.5q0 68 -29 98.5t-103 30.5h-34v-190h-160v520h160v-190h43h15l136 190h175z" />
    <glyph glyph-name="uni04C5" unicode="&#x4c5;" horiz-adv-x="790" 
d="M700 700v-550h90l-105 -310h-170l55 160h-40v550h-230v-200q0 -202 -66 -281t-214 -79h-10v150h20q72 0 91 39.5t19 170.5v350h560z" />
    <glyph glyph-name="uni04C6" unicode="&#x4c6;" horiz-adv-x="670" 
d="M590 520v-380h80l-98 -290h-150l52 150h-44v380h-155v-120q0 -139 -54.5 -204.5t-190.5 -65.5h-10v140h20q55 0 70 23t15 107v260h465z" />
    <glyph glyph-name="uni04C7" unicode="&#x4c7;" horiz-adv-x="720" 
d="M500 425v275h170v-649q0 -122 -71 -191.5t-184 -69.5q-39 0 -89 10l22 154q36 -8 63 -8q39 0 64 27.5t25 77.5v224h-280v-275h-170v700h170v-275h280z" />
    <glyph glyph-name="uni04C8" unicode="&#x4c8;" horiz-adv-x="620" 
d="M410 330v190h160v-469q0 -122 -69 -191.5t-178 -69.5q-39 0 -79 10l20 140q28 -4 47 -4q45 0 72 27t27 78v149h-200v-190h-160v520h160v-190h200z" />
    <glyph glyph-name="uni04C9" unicode="&#x4c9;" horiz-adv-x="760" 
d="M670 700v-550h90l-105 -310h-170l55 160h-40v275h-280v-275h-170v700h170v-275h280v275h170z" />
    <glyph glyph-name="uni04CA" unicode="&#x4ca;" horiz-adv-x="650" 
d="M570 520v-380h80l-98 -290h-150l52 150h-44v190h-200v-190h-160v520h160v-190h200v190h160z" />
    <glyph glyph-name="uni04CB" unicode="&#x4cb;" horiz-adv-x="650" 
d="M430 380v320h170v-700h-80v-160h-170v310h80v83q-76 -18 -144 -18q-144 0 -205 65t-61 220v200h170v-200q0 -73 28 -104t92 -31q60 0 120 15z" />
    <glyph glyph-name="uni04CC" unicode="&#x4cc;" horiz-adv-x="560" 
d="M350 294v226h160v-520h-80v-150h-150v250h70v56q-54 -10 -111 -10q-125 0 -172 53t-47 170v151h160v-151q0 -43 18.5 -63t63.5 -20q51 0 88 8z" />
    <glyph glyph-name="uni04CD" unicode="&#x4cd;" horiz-adv-x="950" 
d="M850 700v-550h100l-105 -310h-170l55 160h-40v649l-90 -649h-301l-89 649v-649h-160v700h313l89 -649l90 649h308z" />
    <glyph glyph-name="uni04CE" unicode="&#x4ce;" horiz-adv-x="801" 
d="M710 520v-380h91l-98 -290h-150l52 150h-35v473l-61 -473h-258l-61 473v-473h-140v520h269l61 -473l61 473h269z" />
    <glyph glyph-name="uni04CF" unicode="&#x4cf;" horiz-adv-x="260" 
d="M210 0h-160v740h160v-740z" />
    <glyph glyph-name="uni04D0" unicode="&#x4d0;" horiz-adv-x="740" 
d="M370 725q-82 0 -140 46t-58 129h139q0 -69 59 -69q58 0 58 69h139q0 -83 -58 -129t-139 -46zM740 0h-181l-41 138h-306l-41 -138h-171l219 700h302zM365 650l-108 -362h216z" />
    <glyph glyph-name="uni04D1" unicode="&#x4d1;" horiz-adv-x="546" 
d="M270 570q-77 0 -124.5 45.5t-47.5 124.5h124q0 -64 48 -64t48 64h124q0 -79 -47.5 -124.5t-124.5 -45.5zM270 530q104 0 167.5 -53.5t63.5 -157.5v-319h-160v122q-39 -132 -170 -132q-61 0 -106 42t-45 110q0 152 208 172l71 6q42 3 42 34q0 20 -19.5 33t-49.5 13
q-34 0 -54 -18t-24 -47l-159 34q8 67 70.5 114t164.5 47zM232 115q42 0 75.5 30t33.5 67v3q-10 -5 -37 -8l-77 -9q-47 -6 -47 -42q0 -19 13.5 -30t38.5 -11z" />
    <glyph glyph-name="uni04D2" unicode="&#x4d2;" horiz-adv-x="740" 
d="M250 735q-37 0 -63.5 27t-26.5 63q0 37 26.5 63.5t63.5 26.5t63.5 -26.5t26.5 -63.5q0 -36 -26.5 -63t-63.5 -27zM490 735q-37 0 -63.5 27t-26.5 63q0 37 26.5 63.5t63.5 26.5t63.5 -26.5t26.5 -63.5q0 -36 -26.5 -63t-63.5 -27zM740 0h-181l-41 138h-306l-41 -138h-171
l219 700h302zM365 650l-108 -362h216z" />
    <glyph glyph-name="uni04D3" unicode="&#x4d3;" horiz-adv-x="546" 
d="M150 570q-37 0 -63.5 27t-26.5 63q0 37 26.5 63.5t63.5 26.5t63.5 -26.5t26.5 -63.5q0 -36 -26.5 -63t-63.5 -27zM390 570q-37 0 -63.5 27t-26.5 63q0 37 26.5 63.5t63.5 26.5t63.5 -26.5t26.5 -63.5q0 -36 -26.5 -63t-63.5 -27zM270 530q104 0 167.5 -53.5t63.5 -157.5
v-319h-160v122q-39 -132 -170 -132q-61 0 -106 42t-45 110q0 152 208 172l71 6q42 3 42 34q0 20 -19.5 33t-49.5 13q-34 0 -54 -18t-24 -47l-159 34q8 67 70.5 114t164.5 47zM232 115q42 0 75.5 30t33.5 67v3q-10 -5 -37 -8l-77 -9q-47 -6 -47 -42q0 -19 13.5 -30t38.5 -11z
" />
    <glyph glyph-name="uni04D4" unicode="&#x4d4;" horiz-adv-x="1000" 
d="M960 700v-150h-310v-125h300v-150h-300v-125h310v-150h-480v138h-236l-79 -138h-185l401 700h579zM480 551l-150 -263h150v263z" />
    <glyph glyph-name="uni04D5" unicode="&#x4d5;" horiz-adv-x="942" 
d="M658 530q125 0 199 -98t50 -230h-377q14 -35 45.5 -55.5t72.5 -20.5q73 0 109 58l130 -60q-64 -134 -204 -134q-65 0 -112.5 42t-69.5 114v-146h-160v122q-39 -132 -170 -132q-61 0 -106 42t-45 110q0 45 18.5 78.5t50.5 52t65.5 28.5t73.5 13l71 6q42 3 42 34
q0 20 -19.5 33t-49.5 13q-34 0 -54 -18t-24 -47l-159 34q8 67 70.5 114t164.5 47q139 0 197 -87q76 87 191 87zM638 394q-35 0 -63 -19.5t-43 -52.5h213q-29 72 -107 72zM232 115q42 0 75.5 30t33.5 67v3q-10 -5 -37 -8l-77 -9q-46 -6 -46 -42q0 -18 13.5 -29.5t37.5 -11.5z
" />
    <glyph glyph-name="uni04D6" unicode="&#x4d6;" horiz-adv-x="570" 
d="M87 900h139q0 -69 59 -69q58 0 58 69h139q0 -83 -58 -129t-139 -46q-82 0 -140 46t-58 129zM530 0h-480v700h480v-150h-310v-125h300v-150h-300v-125h310v-150z" />
    <glyph glyph-name="uni04D7" unicode="&#x4d7;" horiz-adv-x="610" 
d="M305 570q-77 0 -124.5 45.5t-47.5 124.5h124q0 -64 48 -64t48 64h124q0 -79 -47.5 -124.5t-124.5 -45.5zM305 530q135 0 215 -98t54 -230h-377q14 -35 45.5 -55.5t72.5 -20.5q73 0 109 58l130 -60q-37 -61 -100 -97.5t-144 -36.5q-119 0 -199.5 77.5t-80.5 192.5
t79 192.5t196 77.5zM305 394q-35 0 -63 -19.5t-43 -52.5h213q-29 72 -107 72z" />
    <glyph glyph-name="uni04D8" unicode="&#x4d8;" 
d="M400 710q157 0 263.5 -104t106.5 -256t-106.5 -256t-263.5 -104q-76 0 -145 29t-121 80.5t-78.5 130t-16.5 170.5h549q-15 68 -67 111t-121 43q-58 0 -103.5 -30t-68.5 -77l-158 60q39 85 126 144t204 59zM400 146q56 0 101 28t69 76h-340q16 -43 61 -73.5t109 -30.5z
" />
    <glyph glyph-name="uni04D9" unicode="&#x4d9;" horiz-adv-x="610" 
d="M300 530q119 0 199.5 -77.5t80.5 -192.5t-79 -192.5t-196 -77.5q-135 0 -215 98t-54 230h377q-14 35 -45.5 55.5t-72.5 20.5q-73 0 -109 -58l-130 60q37 61 100 97.5t144 36.5zM305 126q35 0 63 19.5t43 52.5h-213q29 -72 107 -72z" />
    <glyph glyph-name="uni04DA" unicode="&#x4da;" 
d="M284 735q-37 0 -63.5 27t-26.5 63q0 37 26.5 63.5t63.5 26.5t63.5 -26.5t26.5 -63.5q0 -36 -26.5 -63t-63.5 -27zM524 735q-37 0 -63.5 27t-26.5 63q0 37 26.5 63.5t63.5 26.5t63.5 -26.5t26.5 -63.5q0 -36 -26.5 -63t-63.5 -27zM400 710q157 0 263.5 -104t106.5 -256
t-106.5 -256t-263.5 -104q-76 0 -145 29t-121 80.5t-78.5 130t-16.5 170.5h549q-15 68 -67 111t-121 43q-58 0 -103.5 -30t-68.5 -77l-158 60q39 85 126 144t204 59zM400 146q56 0 101 28t69 76h-340q16 -43 61 -73.5t109 -30.5z" />
    <glyph glyph-name="uni04DB" unicode="&#x4db;" horiz-adv-x="610" 
d="M180 570q-37 0 -63.5 27t-26.5 63q0 37 26.5 63.5t63.5 26.5t63.5 -26.5t26.5 -63.5q0 -36 -26.5 -63t-63.5 -27zM420 570q-37 0 -63.5 27t-26.5 63q0 37 26.5 63.5t63.5 26.5t63.5 -26.5t26.5 -63.5q0 -36 -26.5 -63t-63.5 -27zM300 530q119 0 199.5 -77.5t80.5 -192.5
t-79 -192.5t-196 -77.5q-135 0 -215 98t-54 230h377q-14 35 -45.5 55.5t-72.5 20.5q-73 0 -109 -58l-130 60q37 61 100 97.5t144 36.5zM305 126q35 0 63 19.5t43 52.5h-213q29 -72 107 -72z" />
    <glyph glyph-name="uni04DC" unicode="&#x4dc;" horiz-adv-x="1070" 
d="M415 735q-37 0 -63.5 27t-26.5 63q0 37 26.5 63.5t63.5 26.5t63.5 -26.5t26.5 -63.5q0 -36 -26.5 -63t-63.5 -27zM655 735q-37 0 -63.5 27t-26.5 63q0 37 26.5 63.5t63.5 26.5t63.5 -26.5t26.5 -63.5q0 -36 -26.5 -63t-63.5 -27zM1030 700l-183 -339l203 -361h-204
l-150 275h-76v-275h-170v275h-76l-155 -275h-199l203 361l-183 339h187l147 -275h76v275h170v-275h76l147 275h187z" />
    <glyph glyph-name="uni04DD" unicode="&#x4dd;" horiz-adv-x="866" 
d="M313 570q-37 0 -63.5 27t-26.5 63q0 37 26.5 63.5t63.5 26.5t63.5 -26.5t26.5 -63.5q0 -36 -26.5 -63t-63.5 -27zM553 570q-37 0 -63.5 27t-26.5 63q0 37 26.5 63.5t63.5 26.5t63.5 -26.5t26.5 -63.5q0 -36 -26.5 -63t-63.5 -27zM849 520l-146 -249l163 -271h-192
l-113 190h-48v-190h-160v190h-48l-118 -190h-187l163 271l-146 249h175l113 -190h48v190h160v-190h48l113 190h175z" />
    <glyph glyph-name="uni04DE" unicode="&#x4de;" horiz-adv-x="642" 
d="M208 735q-37 0 -63.5 27t-26.5 63q0 37 26.5 63.5t63.5 26.5t63.5 -26.5t26.5 -63.5q0 -36 -26.5 -63t-63.5 -27zM448 735q-37 0 -63.5 27t-26.5 63q0 37 26.5 63.5t63.5 26.5t63.5 -26.5t26.5 -63.5q0 -36 -26.5 -63t-63.5 -27zM426 350q90 -18 133 -62.5t43 -106.5
q0 -87 -79.5 -139t-194.5 -52q-90 0 -169 29t-129 85l99 122q42 -38 97 -59t102 -21q41 0 69.5 17.5t28.5 47.5q0 37 -31.5 50.5t-91.5 13.5h-92v150h92q60 0 91.5 13.5t31.5 50.5q0 30 -28.5 47.5t-69.5 17.5q-47 0 -102 -21t-97 -59l-99 122q50 56 129 85t169 29
q115 0 194.5 -52t79.5 -139q0 -62 -43 -106.5t-133 -62.5z" />
    <glyph glyph-name="uni04DF" unicode="&#x4df;" horiz-adv-x="544" 
d="M153 570q-37 0 -63.5 27t-26.5 63q0 37 26.5 63.5t63.5 26.5t63.5 -26.5t26.5 -63.5q0 -36 -26.5 -63t-63.5 -27zM393 570q-37 0 -63.5 27t-26.5 63q0 37 26.5 63.5t63.5 26.5t63.5 -26.5t26.5 -63.5q0 -36 -26.5 -63t-63.5 -27zM360 260q70 -10 107 -44.5t37 -81.5
q0 -65 -64.5 -104.5t-166.5 -39.5q-76 0 -143 23.5t-110 65.5l86 108q33 -31 80.5 -46t86.5 -15q65 0 65 34q0 21 -21 28t-64 7h-78v130h78q43 0 64 7t21 28q0 34 -65 34q-39 0 -86.5 -15t-80.5 -46l-86 108q43 42 110 65.5t143 23.5q102 0 166.5 -39.5t64.5 -104.5
q0 -47 -37 -81.5t-107 -44.5z" />
    <glyph glyph-name="uni04E0" unicode="&#x4e0;" horiz-adv-x="642" 
d="M577 570l-152 -152q78 -17 127.5 -68t49.5 -129q0 -106 -80 -168.5t-194 -62.5q-90 0 -169 29t-129 85l99 122q42 -38 97 -59t102 -21q42 0 70 19.5t28 55.5q0 74 -123 74h-72v127l129 128h-285v150h502v-130z" />
    <glyph glyph-name="uni04E1" unicode="&#x4e1;" horiz-adv-x="521" 
d="M481 390l-150 -164q75 -25 117.5 -78t42.5 -130q0 -105 -66 -166.5t-174 -61.5q-100 0 -166.5 54.5t-74.5 132.5l149 34q4 -32 27.5 -53.5t58.5 -21.5t57.5 22.5t22.5 59.5q0 87 -112 87h-51v130l134 145h-251v140h436v-130z" />
    <glyph glyph-name="uni04E2" unicode="&#x4e2;" horiz-adv-x="740" 
d="M205 885h330v-120h-330v120zM690 700v-700h-170v649l-141 -649h-329v700h170v-649l141 649h329z" />
    <glyph glyph-name="uni04E3" unicode="&#x4e3;" horiz-adv-x="630" 
d="M155 720h320v-120h-320v120zM580 520v-520h-150v473l-91 -473h-289v520h150v-473l91 473h289z" />
    <glyph glyph-name="uni04E4" unicode="&#x4e4;" horiz-adv-x="740" 
d="M250 735q-37 0 -63.5 27t-26.5 63q0 37 26.5 63.5t63.5 26.5t63.5 -26.5t26.5 -63.5q0 -36 -26.5 -63t-63.5 -27zM490 735q-37 0 -63.5 27t-26.5 63q0 37 26.5 63.5t63.5 26.5t63.5 -26.5t26.5 -63.5q0 -36 -26.5 -63t-63.5 -27zM690 700v-700h-170v649l-141 -649h-329
v700h170v-649l141 649h329z" />
    <glyph glyph-name="uni04E5" unicode="&#x4e5;" horiz-adv-x="630" 
d="M195 570q-37 0 -63.5 27t-26.5 63q0 37 26.5 63.5t63.5 26.5t63.5 -26.5t26.5 -63.5q0 -36 -26.5 -63t-63.5 -27zM435 570q-37 0 -63.5 27t-26.5 63q0 37 26.5 63.5t63.5 26.5t63.5 -26.5t26.5 -63.5q0 -36 -26.5 -63t-63.5 -27zM580 520v-520h-150v473l-91 -473h-289
v520h150v-473l91 473h289z" />
    <glyph glyph-name="uni04E6" unicode="&#x4e6;" 
d="M190 825q0 37 26.5 63.5t63.5 26.5t63.5 -26.5t26.5 -63.5q0 -36 -26.5 -63t-63.5 -27t-63.5 27t-26.5 63zM430 825q0 37 26.5 63.5t63.5 26.5t63.5 -26.5t26.5 -63.5q0 -36 -26.5 -63t-63.5 -27t-63.5 27t-26.5 63zM30 350q0 152 106.5 256t263.5 104t263.5 -104
t106.5 -256t-106.5 -256t-263.5 -104t-263.5 104t-106.5 256zM206 350q0 -86 56 -145t138 -59t138 59t56 145t-56 145t-138 59t-138 -59t-56 -145z" />
    <glyph glyph-name="uni04E7" unicode="&#x4e7;" horiz-adv-x="620" 
d="M100 660q0 37 26.5 63.5t63.5 26.5t63.5 -26.5t26.5 -63.5q0 -36 -26.5 -63t-63.5 -27t-63.5 27t-26.5 63zM340 660q0 37 26.5 63.5t63.5 26.5t63.5 -26.5t26.5 -63.5q0 -36 -26.5 -63t-63.5 -27t-63.5 27t-26.5 63zM30 260q0 115 80.5 192.5t199.5 77.5t199.5 -77.5
t80.5 -192.5t-80.5 -192.5t-199.5 -77.5t-199.5 77.5t-80.5 192.5zM196 260q0 -53 32.5 -88.5t81.5 -35.5t81.5 35.5t32.5 88.5t-32.5 88.5t-81.5 35.5t-81.5 -35.5t-32.5 -88.5z" />
    <glyph glyph-name="uni04E8" unicode="&#x4e8;" 
d="M400 710q157 0 263.5 -104t106.5 -256t-106.5 -256t-263.5 -104t-263.5 104t-106.5 256t106.5 256t263.5 104zM400 554q-63 0 -111.5 -35.5t-69.5 -93.5h362q-21 58 -69.5 93.5t-111.5 35.5zM400 146q63 0 111.5 35.5t69.5 93.5h-362q21 -58 69.5 -93.5t111.5 -35.5z" />
    <glyph glyph-name="uni04E9" unicode="&#x4e9;" horiz-adv-x="620" 
d="M310 530q119 0 199.5 -77.5t80.5 -192.5t-80.5 -192.5t-199.5 -77.5t-199.5 77.5t-80.5 192.5t80.5 192.5t199.5 77.5zM310 394q-76 0 -109 -69h218q-33 69 -109 69zM310 126q76 0 109 69h-218q33 -69 109 -69z" />
    <glyph glyph-name="uni04EA" unicode="&#x4ea;" 
d="M280 735q-37 0 -63.5 27t-26.5 63q0 37 26.5 63.5t63.5 26.5t63.5 -26.5t26.5 -63.5q0 -36 -26.5 -63t-63.5 -27zM520 735q-37 0 -63.5 27t-26.5 63q0 37 26.5 63.5t63.5 26.5t63.5 -26.5t26.5 -63.5q0 -36 -26.5 -63t-63.5 -27zM400 710q157 0 263.5 -104t106.5 -256
t-106.5 -256t-263.5 -104t-263.5 104t-106.5 256t106.5 256t263.5 104zM400 554q-63 0 -111.5 -35.5t-69.5 -93.5h362q-21 58 -69.5 93.5t-111.5 35.5zM400 146q63 0 111.5 35.5t69.5 93.5h-362q21 -58 69.5 -93.5t111.5 -35.5z" />
    <glyph glyph-name="uni04EB" unicode="&#x4eb;" horiz-adv-x="620" 
d="M190 570q-37 0 -63.5 27t-26.5 63q0 37 26.5 63.5t63.5 26.5t63.5 -26.5t26.5 -63.5q0 -36 -26.5 -63t-63.5 -27zM430 570q-37 0 -63.5 27t-26.5 63q0 37 26.5 63.5t63.5 26.5t63.5 -26.5t26.5 -63.5q0 -36 -26.5 -63t-63.5 -27zM310 530q119 0 199.5 -77.5t80.5 -192.5
t-80.5 -192.5t-199.5 -77.5t-199.5 77.5t-80.5 192.5t80.5 192.5t199.5 77.5zM310 394q-76 0 -109 -69h218q-33 69 -109 69zM310 126q76 0 109 69h-218q33 -69 109 -69z" />
    <glyph glyph-name="uni04EC" unicode="&#x4ec;" horiz-adv-x="760" 
d="M240 735q-37 0 -63.5 27t-26.5 63q0 37 26.5 63.5t63.5 26.5t63.5 -26.5t26.5 -63.5q0 -36 -26.5 -63t-63.5 -27zM480 735q-37 0 -63.5 27t-26.5 63q0 37 26.5 63.5t63.5 26.5t63.5 -26.5t26.5 -63.5q0 -36 -26.5 -63t-63.5 -27zM360 710q157 0 263.5 -104t106.5 -256
t-106.5 -256t-263.5 -104q-117 0 -204 59t-126 144l158 60q23 -47 68.5 -77t103.5 -30q63 0 111.5 35.5t69.5 93.5h-287v150h287q-21 58 -69.5 93.5t-111.5 35.5q-58 0 -103.5 -30t-68.5 -77l-158 60q39 85 126 144t204 59z" />
    <glyph glyph-name="uni04ED" unicode="&#x4ed;" horiz-adv-x="580" 
d="M150 570q-37 0 -63.5 27t-26.5 63q0 37 26.5 63.5t63.5 26.5t63.5 -26.5t26.5 -63.5q0 -36 -26.5 -63t-63.5 -27zM390 570q-37 0 -63.5 27t-26.5 63q0 37 26.5 63.5t63.5 26.5t63.5 -26.5t26.5 -63.5q0 -36 -26.5 -63t-63.5 -27zM270 530q119 0 199.5 -77.5t80.5 -192.5
t-80.5 -192.5t-199.5 -77.5q-83 0 -150 43.5t-100 123.5l137 47q16 -32 46.5 -55t66.5 -23q76 0 109 69h-185v130h185q-33 69 -109 69q-38 0 -68 -21t-45 -57l-137 47q33 80 100 123.5t150 43.5z" />
    <glyph glyph-name="uni04EE" unicode="&#x4ee;" horiz-adv-x="670" 
d="M170 885h330v-120h-330v120zM353 401l157 299h170l-368 -700h-170l116 220l-258 480h193z" />
    <glyph glyph-name="uni04EF" unicode="&#x4ef;" horiz-adv-x="560" 
d="M120 720h320v-120h-320v120zM277 44l131 476h162l-198 -720h-162l55 200h-130l-145 520h172z" />
    <glyph glyph-name="uni04F0" unicode="&#x4f0;" horiz-adv-x="670" 
d="M215 735q-37 0 -63.5 27t-26.5 63q0 37 26.5 63.5t63.5 26.5t63.5 -26.5t26.5 -63.5q0 -36 -26.5 -63t-63.5 -27zM455 735q-37 0 -63.5 27t-26.5 63q0 37 26.5 63.5t63.5 26.5t63.5 -26.5t26.5 -63.5q0 -36 -26.5 -63t-63.5 -27zM353 401l157 299h170l-368 -700h-170
l116 220l-258 480h193z" />
    <glyph glyph-name="uni04F1" unicode="&#x4f1;" horiz-adv-x="560" 
d="M160 570q-37 0 -63.5 27t-26.5 63q0 37 26.5 63.5t63.5 26.5t63.5 -26.5t26.5 -63.5q0 -36 -26.5 -63t-63.5 -27zM400 570q-37 0 -63.5 27t-26.5 63q0 37 26.5 63.5t63.5 26.5t63.5 -26.5t26.5 -63.5q0 -36 -26.5 -63t-63.5 -27zM277 44l131 476h162l-198 -720h-162
l55 200h-130l-145 520h172z" />
    <glyph glyph-name="uni04F2" unicode="&#x4f2;" horiz-adv-x="670" 
d="M246 900h174l-162 -155h-154zM645 900l-162 -155h-154l142 155h174zM353 401l157 299h170l-368 -700h-170l116 220l-258 480h193z" />
    <glyph glyph-name="uni04F3" unicode="&#x4f3;" horiz-adv-x="560" 
d="M193 740h157l-123 -160h-137zM550 740l-123 -160h-137l103 160h157zM277 44l131 476h162l-198 -720h-162l55 200h-130l-145 520h172z" />
    <glyph glyph-name="uni04F4" unicode="&#x4f4;" horiz-adv-x="650" 
d="M205 735q-37 0 -63.5 27t-26.5 63q0 37 26.5 63.5t63.5 26.5t63.5 -26.5t26.5 -63.5q0 -36 -26.5 -63t-63.5 -27zM445 735q-37 0 -63.5 27t-26.5 63q0 37 26.5 63.5t63.5 26.5t63.5 -26.5t26.5 -63.5q0 -36 -26.5 -63t-63.5 -27zM430 380v320h170v-700h-170v233
q-76 -18 -144 -18q-144 0 -205 65t-61 220v200h170v-200q0 -73 28 -104t92 -31q60 0 120 15z" />
    <glyph glyph-name="uni04F5" unicode="&#x4f5;" horiz-adv-x="560" 
d="M160 570q-37 0 -63.5 27t-26.5 63q0 37 26.5 63.5t63.5 26.5t63.5 -26.5t26.5 -63.5q0 -36 -26.5 -63t-63.5 -27zM400 570q-37 0 -63.5 27t-26.5 63q0 37 26.5 63.5t63.5 26.5t63.5 -26.5t26.5 -63.5q0 -36 -26.5 -63t-63.5 -27zM350 294v226h160v-520h-160v156
q-54 -10 -111 -10q-125 0 -172 53t-47 170v151h160v-151q0 -43 18.5 -63t63.5 -20q51 0 88 8z" />
    <glyph glyph-name="uni04F6" unicode="&#x4f6;" horiz-adv-x="540" 
d="M530 700v-150h-310v-400h80v-310h-170v160h-80v700h480z" />
    <glyph glyph-name="uni04F7" unicode="&#x4f7;" horiz-adv-x="470" 
d="M460 520v-140h-250v-240h70v-290h-150v150h-80v520h410z" />
    <glyph glyph-name="uni04F8" unicode="&#x4f8;" horiz-adv-x="890" 
d="M235 825q0 37 26.5 63.5t63.5 26.5t63.5 -26.5t26.5 -63.5q0 -36 -26.5 -63t-63.5 -27t-63.5 27t-26.5 63zM475 825q0 37 26.5 63.5t63.5 26.5t63.5 -26.5t26.5 -63.5q0 -36 -26.5 -63t-63.5 -27t-63.5 27t-26.5 63zM349 0h-299v700h170v-215h129q123 0 197 -66.5
t74 -173.5t-74 -176t-197 -69zM840 0h-170v700h170v-700zM220 335v-185h129q43 0 69 26t26 67q0 40 -26 66t-69 26h-129z" />
    <glyph glyph-name="uni04F9" unicode="&#x4f9;" horiz-adv-x="787" 
d="M184 660q0 37 26.5 63.5t63.5 26.5t63.5 -26.5t26.5 -63.5q0 -36 -26.5 -63t-63.5 -27t-63.5 27t-26.5 63zM424 660q0 37 26.5 63.5t63.5 26.5t63.5 -26.5t26.5 -63.5q0 -36 -26.5 -63t-63.5 -27t-63.5 27t-26.5 63zM323 0h-273v520h160v-134h113q97 0 155.5 -53
t58.5 -140t-58.5 -140t-155.5 -53zM737 0h-160v520h160v-520zM210 246v-106h93q31 0 49.5 14.5t18.5 38.5t-18.5 38.5t-49.5 14.5h-93z" />
    <glyph glyph-name="uni04FC" unicode="&#x4fc;" horiz-adv-x="688" 
d="M688 700l-243 -348l149 -217q63 -92 63 -172q0 -77 -56 -125t-156 -48q-39 0 -79 10l20 140q28 -4 47 -4q21 0 34 11t13 30q0 26 -21 58l-117 178l-141 -213h-201l243 348l-243 352h206l140 -213l141 213h201z" />
    <glyph glyph-name="uni04FD" unicode="&#x4fd;" horiz-adv-x="580" 
d="M570 520l-185 -257l97 -139q58 -83 58 -161q0 -77 -56 -125t-156 -48q-39 0 -79 10l20 140q28 -4 47 -4q58 0 58 41q0 24 -21 58l-67 111l-91 -146h-185l185 257l-185 263h196l88 -146l91 146h185z" />
    <glyph glyph-name="uni0510" unicode="&#x510;" horiz-adv-x="642" 
d="M314 146q47 0 102 21t97 59l99 -122q-50 -56 -129 -85t-169 -29q-115 0 -194.5 52t-79.5 139q0 62 43 106.5t133 62.5q-90 18 -133 62.5t-43 106.5q0 87 79.5 139t194.5 52q90 0 169 -29t129 -85l-99 -122q-42 38 -97 59t-102 21q-41 0 -69.5 -17.5t-28.5 -47.5
q0 -37 31.5 -50.5t91.5 -13.5h92v-150h-92q-60 0 -91.5 -13.5t-31.5 -50.5q0 -30 28.5 -47.5t69.5 -17.5z" />
    <glyph glyph-name="uni0511" unicode="&#x511;" horiz-adv-x="544" 
d="M271 126q39 0 86.5 15t80.5 46l86 -108q-43 -42 -110 -65.5t-143 -23.5q-102 0 -166.5 39.5t-64.5 104.5q0 47 37 81.5t107 44.5q-70 10 -107 44.5t-37 81.5q0 65 64.5 104.5t166.5 39.5q76 0 143 -23.5t110 -65.5l-86 -108q-33 31 -80.5 46t-86.5 15q-65 0 -65 -34
q0 -21 21 -28t64 -7h78v-130h-78q-43 0 -64 -7t-21 -28q0 -34 65 -34z" />
    <glyph glyph-name="uni0512" unicode="&#x512;" horiz-adv-x="750" 
d="M20 -10h-10v150h20q72 0 91 39.5t19 170.5v350h560v-649q0 -122 -71 -191.5t-184 -69.5q-39 0 -89 10l22 154q36 -8 63 -8q39 0 64 27.5t25 77.5v499h-230v-200q0 -202 -66 -281t-214 -79z" />
    <glyph glyph-name="uni0513" unicode="&#x513;" horiz-adv-x="640" 
d="M30 -10h-10v140h20q55 0 70 23t15 107v260h465v-469q0 -122 -69 -191.5t-178 -69.5q-39 0 -79 10l20 140q28 -4 47 -4q45 0 72 27t27 78v339h-155v-120q0 -139 -54.5 -204.5t-190.5 -65.5z" />
    <glyph glyph-name="uni051C" unicode="&#x51c;" horiz-adv-x="1070" 
d="M776 47l84 653h170l-90 -700h-328l-79 640l-80 -640h-323l-90 700h170l84 -653l81 653h320z" />
    <glyph glyph-name="uni051D" unicode="&#x51d;" horiz-adv-x="848" 
d="M623 51l75 469h150l-93 -520h-266l-65 476l-65 -476h-266l-93 520h150l75 -469l55 469h288z" />
    <glyph glyph-name="uni0524" unicode="&#x524;" horiz-adv-x="760" 
d="M670 700v-550h80v-310h-170v160h-80v550h-280v-550h-170v700h620z" />
    <glyph glyph-name="uni0525" unicode="&#x525;" horiz-adv-x="640" 
d="M560 520v-380h70v-290h-150v150h-80v380h-190v-380h-160v520h510z" />
    <glyph glyph-name="uni0526" unicode="&#x526;" horiz-adv-x="700" 
d="M610 243v-93h80v-310h-170v160h-80v219q0 47 -29.5 76.5t-75.5 29.5q-52 0 -83.5 -29.5t-31.5 -76.5v-219h-170v700h170v-373q23 66 76 104.5t123 38.5q85 0 138 -63.5t53 -163.5z" />
    <glyph glyph-name="uni0527" unicode="&#x527;" horiz-adv-x="650" 
d="M570 319v-179h70v-290h-150v150h-80v289q0 43 -27 69.5t-68 26.5q-47 0 -76 -26.5t-29 -69.5v-289h-160v740h160v-350q21 65 67 102.5t108 37.5q84 0 134.5 -58.5t50.5 -152.5z" />
    <glyph glyph-name="Wgrave" unicode="&#x1e80;" horiz-adv-x="1070" 
d="M521 900l142 -155h-174l-162 155h194zM776 47l84 653h170l-90 -700h-328l-79 640l-80 -640h-323l-90 700h170l84 -653l81 653h320z" />
    <glyph glyph-name="wgrave" unicode="&#x1e81;" horiz-adv-x="848" 
d="M421 740l103 -160h-157l-123 160h177zM623 51l75 469h150l-93 -520h-266l-65 476l-65 -476h-266l-93 520h150l75 -469l55 469h288z" />
    <glyph glyph-name="Wacute" unicode="&#x1e82;" horiz-adv-x="1070" 
d="M549 900h194l-162 -155h-174zM776 47l84 653h170l-90 -700h-328l-79 640l-80 -640h-323l-90 700h170l84 -653l81 653h320z" />
    <glyph glyph-name="wacute" unicode="&#x1e83;" horiz-adv-x="848" 
d="M427 740h177l-123 -160h-157zM623 51l75 469h150l-93 -520h-266l-65 476l-65 -476h-266l-93 520h150l75 -469l55 469h288z" />
    <glyph glyph-name="Wdieresis" unicode="&#x1e84;" horiz-adv-x="1070" 
d="M415 735q-37 0 -63.5 27t-26.5 63q0 37 26.5 63.5t63.5 26.5t63.5 -26.5t26.5 -63.5q0 -36 -26.5 -63t-63.5 -27zM655 735q-37 0 -63.5 27t-26.5 63q0 37 26.5 63.5t63.5 26.5t63.5 -26.5t26.5 -63.5q0 -36 -26.5 -63t-63.5 -27zM776 47l84 653h170l-90 -700h-328
l-79 640l-80 -640h-323l-90 700h170l84 -653l81 653h320z" />
    <glyph glyph-name="wdieresis" unicode="&#x1e85;" horiz-adv-x="848" 
d="M304 570q-37 0 -63.5 27t-26.5 63q0 37 26.5 63.5t63.5 26.5t63.5 -26.5t26.5 -63.5q0 -36 -26.5 -63t-63.5 -27zM544 570q-37 0 -63.5 27t-26.5 63q0 37 26.5 63.5t63.5 26.5t63.5 -26.5t26.5 -63.5q0 -36 -26.5 -63t-63.5 -27zM623 51l75 469h150l-93 -520h-266
l-65 476l-65 -476h-266l-93 520h150l75 -469l55 469h288z" />
    <glyph glyph-name="uni1E9E" unicode="&#x1e9e;" horiz-adv-x="700" 
d="M620 570l-129 -151q80 -21 124.5 -76t44.5 -131q0 -102 -70 -162t-180 -60q-81 0 -143 26l20 137q49 -18 92 -18q47 0 76 20t29 62q0 78 -107 78h-72v130l103 125h-93q-44 0 -69.5 -26t-25.5 -72v-452h-170v452q0 115 77 181.5t188 66.5h305v-130z" />
    <glyph glyph-name="uni1EA0" unicode="&#x1ea0;" horiz-adv-x="740" 
d="M521 700l219 -700h-181l-41 138h-306l-41 -138h-171l219 700h302zM365 650l-108 -362h216zM370 -45q39 0 67 -28t28 -67q0 -38 -28 -66.5t-67 -28.5t-67 28.5t-28 66.5q0 39 28 67t67 28z" />
    <glyph glyph-name="uni1EA1" unicode="&#x1ea1;" horiz-adv-x="546" 
d="M270 530q104 0 167.5 -53.5t63.5 -157.5v-319h-160v122q-39 -132 -170 -132q-61 0 -106 42t-45 110q0 152 208 172l71 6q42 3 42 34q0 20 -19.5 33t-49.5 13q-34 0 -54 -18t-24 -47l-159 34q8 67 70.5 114t164.5 47zM232 115q42 0 75.5 30t33.5 67v3q-10 -5 -37 -8
l-77 -9q-47 -6 -47 -42q0 -19 13.5 -30t38.5 -11zM273 -45q39 0 67 -28t28 -67q0 -38 -28 -66.5t-67 -28.5t-67 28.5t-28 66.5q0 39 28 67t67 28z" />
    <glyph glyph-name="uni1EA2" unicode="&#x1ea2;" horiz-adv-x="740" 
d="M370 890q-18 0 -26 -13.5t-6 -30.5h-120q0 61 41 97.5t111 36.5q68 0 109.5 -34t41.5 -86q0 -48 -37 -85.5t-109 -54.5l-33 77q58 22 58 63q0 13 -8.5 21.5t-21.5 8.5zM740 0h-181l-41 138h-306l-41 -138h-171l219 700h302zM365 650l-108 -362h216z" />
    <glyph glyph-name="uni1EA3" unicode="&#x1ea3;" horiz-adv-x="546" 
d="M270 710q-18 0 -26 -13.5t-6 -30.5h-115q0 61 40.5 97.5t106.5 36.5q65 0 105.5 -34t40.5 -86q0 -48 -37 -85.5t-109 -54.5l-33 77q63 21 63 63q0 13 -8.5 21.5t-21.5 8.5zM270 530q104 0 167.5 -53.5t63.5 -157.5v-319h-160v122q-39 -132 -170 -132q-61 0 -106 42
t-45 110q0 152 208 172l71 6q42 3 42 34q0 20 -19.5 33t-49.5 13q-34 0 -54 -18t-24 -47l-159 34q8 67 70.5 114t164.5 47zM232 115q42 0 75.5 30t33.5 67v3q-10 -5 -37 -8l-77 -9q-47 -6 -47 -42q0 -19 13.5 -30t38.5 -11z" />
    <glyph glyph-name="uni1EA4" unicode="&#x1ea4;" horiz-adv-x="740" 
d="M632 1023h174l-145 -139h-157zM425 745l-55 56l-55 -56h-174l145 155h168l145 -155h-174zM521 700l219 -700h-181l-41 138h-306l-41 -138h-171l219 700h302zM365 650l-108 -362h216z" />
    <glyph glyph-name="uni1EA5" unicode="&#x1ea5;" horiz-adv-x="546" 
d="M402 744l93 144h159l-111 -144h-141zM325 580l-55 66l-55 -66h-147l113 160h178l113 -160h-147zM270 530q104 0 167.5 -53.5t63.5 -157.5v-319h-160v122q-39 -132 -170 -132q-61 0 -106 42t-45 110q0 152 208 172l71 6q42 3 42 34q0 20 -19.5 33t-49.5 13q-34 0 -54 -18
t-24 -47l-159 34q8 67 70.5 114t164.5 47zM232 115q42 0 75.5 30t33.5 67v3q-10 -5 -37 -8l-77 -9q-47 -6 -47 -42q0 -19 13.5 -30t38.5 -11z" />
    <glyph glyph-name="uni1EA6" unicode="&#x1ea6;" horiz-adv-x="740" 
d="M607 1023l127 -139h-156l-146 139h175zM425 745l-55 56l-55 -56h-174l145 155h168l145 -155h-174zM740 0h-181l-41 138h-306l-41 -138h-171l219 700h302zM365 650l-108 -362h216z" />
    <glyph glyph-name="uni1EA7" unicode="&#x1ea7;" horiz-adv-x="546" 
d="M489 888l93 -144h-141l-111 144h159zM325 580l-55 66l-55 -66h-147l113 160h178l113 -160h-147zM270 530q104 0 167.5 -53.5t63.5 -157.5v-319h-160v122q-39 -132 -170 -132q-61 0 -106 42t-45 110q0 152 208 172l71 6q42 3 42 34q0 20 -19.5 33t-49.5 13q-34 0 -54 -18
t-24 -47l-159 34q8 67 70.5 114t164.5 47zM232 115q42 0 75.5 30t33.5 67v3q-10 -5 -37 -8l-77 -9q-47 -6 -47 -42q0 -19 13.5 -30t38.5 -11z" />
    <glyph glyph-name="uni1EA8" unicode="&#x1ea8;" horiz-adv-x="740" 
d="M579 1014q-17 0 -24 -12t-5 -28h-108q0 56 37 88.5t100 32.5q62 0 99 -30.5t37 -77.5q0 -43 -33.5 -77t-98.5 -49l-29 69q52 20 52 57q0 11 -7.5 19t-19.5 8zM425 745l-55 56l-55 -56h-174l145 155h168l145 -155h-174zM740 0h-181l-41 138h-306l-41 -138h-171l219 700
h302zM365 650l-108 -362h216z" />
    <glyph glyph-name="uni1EA9" unicode="&#x1ea9;" horiz-adv-x="546" 
d="M452 942q59 0 95.5 -30.5t36.5 -77.5q0 -43 -33.5 -77t-98.5 -49l-29 69q56 20 56 57q0 12 -7.5 19.5t-19.5 7.5q-16 0 -23 -12t-5 -28h-104q0 55 36 88t96 33zM325 580l-55 66l-55 -66h-147l113 160h178l113 -160h-147zM270 530q104 0 167.5 -53.5t63.5 -157.5v-319
h-160v122q-39 -132 -170 -132q-61 0 -106 42t-45 110q0 152 208 172l71 6q42 3 42 34q0 20 -19.5 33t-49.5 13q-34 0 -54 -18t-24 -47l-159 34q8 67 70.5 114t164.5 47zM232 115q42 0 75.5 30t33.5 67v3q-10 -5 -37 -8l-77 -9q-47 -6 -47 -42q0 -19 13.5 -30t38.5 -11z" />
    <glyph glyph-name="uni1EAA" unicode="&#x1eaa;" horiz-adv-x="740" 
d="M303 978q-30 0 -42 -35l-89 43q11 45 47.5 74t83.5 29q42 0 81.5 -21t53.5 -21q29 0 41 35l89 -43q-10 -45 -46.5 -74t-83.5 -29q-43 0 -82 21t-53 21zM425 745l-55 56l-55 -56h-174l145 155h168l145 -155h-174zM740 0h-181l-41 138h-306l-41 -138h-171l219 700h302z
M365 650l-108 -362h216z" />
    <glyph glyph-name="uni1EAB" unicode="&#x1eab;" horiz-adv-x="546" 
d="M212 832q-30 0 -42 -35l-89 43q11 44 47.5 73.5t83.5 29.5q38 0 72.5 -21.5t44.5 -21.5q29 0 41 35l89 -43q-10 -44 -46.5 -73t-83.5 -29q-38 0 -73 21t-44 21zM325 580l-55 66l-55 -66h-147l113 160h178l113 -160h-147zM270 530q104 0 167.5 -53.5t63.5 -157.5v-319
h-160v122q-39 -132 -170 -132q-61 0 -106 42t-45 110q0 152 208 172l71 6q42 3 42 34q0 20 -19.5 33t-49.5 13q-34 0 -54 -18t-24 -47l-159 34q8 67 70.5 114t164.5 47zM232 115q42 0 75.5 30t33.5 67v3q-10 -5 -37 -8l-77 -9q-47 -6 -47 -42q0 -19 13.5 -30t38.5 -11z" />
    <glyph glyph-name="uni1EAC" unicode="&#x1eac;" horiz-adv-x="740" 
d="M425 745l-55 56l-55 -56h-174l145 155h168l145 -155h-174zM521 700l219 -700h-181l-41 138h-306l-41 -138h-171l219 700h302zM365 650l-108 -362h216zM370 -45q39 0 67 -28t28 -67q0 -38 -28 -66.5t-67 -28.5t-67 28.5t-28 66.5q0 39 28 67t67 28z" />
    <glyph glyph-name="uni1EAD" unicode="&#x1ead;" horiz-adv-x="546" 
d="M325 580l-55 66l-55 -66h-147l113 160h178l113 -160h-147zM270 530q104 0 167.5 -53.5t63.5 -157.5v-319h-160v122q-39 -132 -170 -132q-61 0 -106 42t-45 110q0 152 208 172l71 6q42 3 42 34q0 20 -19.5 33t-49.5 13q-34 0 -54 -18t-24 -47l-159 34q8 67 70.5 114
t164.5 47zM232 115q42 0 75.5 30t33.5 67v3q-10 -5 -37 -8l-77 -9q-47 -6 -47 -42q0 -19 13.5 -30t38.5 -11zM273 -45q39 0 67 -28t28 -67q0 -38 -28 -66.5t-67 -28.5t-67 28.5t-28 66.5q0 39 28 67t67 28z" />
    <glyph glyph-name="uni1EAE" unicode="&#x1eae;" horiz-adv-x="740" 
d="M383 1080h174l-145 -139h-157zM370 735q-79 0 -135 43.5t-63 121.5h134q8 -49 64 -49q55 0 63 49h134q-7 -77 -63 -121t-134 -44zM740 0h-181l-41 138h-306l-41 -138h-171l219 700h302zM365 650l-108 -362h216z" />
    <glyph glyph-name="uni1EAF" unicode="&#x1eaf;" horiz-adv-x="546" 
d="M273 938h159l-111 -144h-141zM270 570q-77 0 -124.5 45.5t-47.5 124.5h119q0 -24 14 -39t39 -15t39 15t14 39h119q0 -79 -47.5 -124.5t-124.5 -45.5zM270 530q104 0 167.5 -53.5t63.5 -157.5v-319h-160v122q-39 -132 -170 -132q-61 0 -106 42t-45 110q0 152 208 172l71 6
q42 3 42 34q0 20 -19.5 33t-49.5 13q-34 0 -54 -18t-24 -47l-159 34q8 67 70.5 114t164.5 47zM232 115q42 0 75.5 30t33.5 67v3q-10 -5 -37 -8l-77 -9q-47 -6 -47 -42q0 -19 13.5 -30t38.5 -11z" />
    <glyph glyph-name="uni1EB0" unicode="&#x1eb0;" horiz-adv-x="740" 
d="M358 1080l127 -139h-156l-146 139h175zM370 735q-79 0 -135 43.5t-63 121.5h134q8 -49 64 -49q55 0 63 49h134q-7 -77 -63 -121t-134 -44zM740 0h-181l-41 138h-306l-41 -138h-171l219 700h302zM365 650l-108 -362h216z" />
    <glyph glyph-name="uni1EB1" unicode="&#x1eb1;" horiz-adv-x="546" 
d="M267 938l93 -144h-141l-111 144h159zM270 570q-77 0 -124.5 45.5t-47.5 124.5h119q0 -24 14 -39t39 -15t39 15t14 39h119q0 -79 -47.5 -124.5t-124.5 -45.5zM270 530q104 0 167.5 -53.5t63.5 -157.5v-319h-160v122q-39 -132 -170 -132q-61 0 -106 42t-45 110
q0 152 208 172l71 6q42 3 42 34q0 20 -19.5 33t-49.5 13q-34 0 -54 -18t-24 -47l-159 34q8 67 70.5 114t164.5 47zM232 115q42 0 75.5 30t33.5 67v3q-10 -5 -37 -8l-77 -9q-47 -6 -47 -42q0 -19 13.5 -30t38.5 -11z" />
    <glyph glyph-name="uni1EB2" unicode="&#x1eb2;" horiz-adv-x="740" 
d="M370 1051q-17 0 -24 -12t-5 -28h-108q0 56 37 88.5t100 32.5q62 0 99 -30.5t37 -77.5q0 -43 -33.5 -77t-98.5 -49l-29 69q52 20 52 57q0 11 -7.5 19t-19.5 8zM370 735q-79 0 -135 43.5t-63 121.5h134q8 -49 64 -49q55 0 63 49h134q-7 -77 -63 -121t-134 -44zM740 0h-181
l-41 138h-306l-41 -138h-171l219 700h302zM365 650l-108 -362h216z" />
    <glyph glyph-name="uni1EB3" unicode="&#x1eb3;" horiz-adv-x="546" 
d="M270 891q-16 0 -23 -12t-5 -28h-104q0 55 36 88t96 33q59 0 95.5 -30.5t36.5 -77.5q0 -43 -33.5 -77t-98.5 -49l-29 69q56 20 56 57q0 12 -7.5 19.5t-19.5 7.5zM270 570q-77 0 -124.5 45.5t-47.5 124.5h119q0 -24 14 -39t39 -15t39 15t14 39h119q0 -79 -47.5 -124.5
t-124.5 -45.5zM270 530q104 0 167.5 -53.5t63.5 -157.5v-319h-160v122q-39 -132 -170 -132q-61 0 -106 42t-45 110q0 152 208 172l71 6q42 3 42 34q0 20 -19.5 33t-49.5 13q-34 0 -54 -18t-24 -47l-159 34q8 67 70.5 114t164.5 47zM232 115q42 0 75.5 30t33.5 67v3
q-10 -5 -37 -8l-77 -9q-47 -6 -47 -42q0 -19 13.5 -30t38.5 -11z" />
    <glyph glyph-name="uni1EB4" unicode="&#x1eb4;" horiz-adv-x="740" 
d="M303 978q-30 0 -42 -35l-89 43q11 45 47.5 74t83.5 29q42 0 81.5 -21t53.5 -21q29 0 41 35l89 -43q-10 -45 -46.5 -74t-83.5 -29q-43 0 -82 21t-53 21zM370 735q-79 0 -135 43.5t-63 121.5h134q8 -49 64 -49q55 0 63 49h134q-7 -77 -63 -121t-134 -44zM740 0h-181
l-41 138h-306l-41 -138h-171l219 700h302zM365 650l-108 -362h216z" />
    <glyph glyph-name="uni1EB5" unicode="&#x1eb5;" horiz-adv-x="546" 
d="M212 832q-30 0 -42 -35l-89 43q11 44 47.5 73.5t83.5 29.5q38 0 72.5 -21.5t44.5 -21.5q29 0 41 35l89 -43q-10 -44 -46.5 -73t-83.5 -29q-38 0 -73 21t-44 21zM270 686q25 0 39 15t14 39h119q0 -79 -47.5 -124.5t-124.5 -45.5t-124.5 45.5t-47.5 124.5h119q0 -24 14 -39
t39 -15zM270 530q104 0 167.5 -53.5t63.5 -157.5v-319h-160v122q-39 -132 -170 -132q-61 0 -106 42t-45 110q0 152 208 172l71 6q42 3 42 34q0 20 -19.5 33t-49.5 13q-34 0 -54 -18t-24 -47l-159 34q8 67 70.5 114t164.5 47zM232 115q42 0 75.5 30t33.5 67v3q-10 -5 -37 -8
l-77 -9q-47 -6 -47 -42q0 -19 13.5 -30t38.5 -11z" />
    <glyph glyph-name="uni1EB6" unicode="&#x1eb6;" horiz-adv-x="740" 
d="M370 735q-79 0 -135 43.5t-63 121.5h134q8 -49 64 -49q55 0 63 49h134q-7 -77 -63 -121t-134 -44zM521 700l219 -700h-181l-41 138h-306l-41 -138h-171l219 700h302zM365 650l-108 -362h216zM370 -45q39 0 67 -28t28 -67q0 -38 -28 -66.5t-67 -28.5t-67 28.5t-28 66.5
q0 39 28 67t67 28z" />
    <glyph glyph-name="uni1EB7" unicode="&#x1eb7;" horiz-adv-x="546" 
d="M270 570q-77 0 -124.5 45.5t-47.5 124.5h119q0 -24 14 -39t39 -15t39 15t14 39h119q0 -79 -47.5 -124.5t-124.5 -45.5zM270 530q104 0 167.5 -53.5t63.5 -157.5v-319h-160v122q-39 -132 -170 -132q-61 0 -106 42t-45 110q0 152 208 172l71 6q42 3 42 34q0 20 -19.5 33
t-49.5 13q-34 0 -54 -18t-24 -47l-159 34q8 67 70.5 114t164.5 47zM232 115q42 0 75.5 30t33.5 67v3q-10 -5 -37 -8l-77 -9q-47 -6 -47 -42q0 -19 13.5 -30t38.5 -11zM273 -45q39 0 67 -28t28 -67q0 -38 -28 -66.5t-67 -28.5t-67 28.5t-28 66.5q0 39 28 67t67 28z" />
    <glyph glyph-name="uni1EB8" unicode="&#x1eb8;" horiz-adv-x="570" 
d="M530 0h-480v700h480v-150h-310v-125h300v-150h-300v-125h310v-150zM190 -140q0 39 28 67t67 28t67 -28t28 -67q0 -38 -28 -66.5t-67 -28.5t-67 28.5t-28 66.5z" />
    <glyph glyph-name="uni1EB9" unicode="&#x1eb9;" horiz-adv-x="610" 
d="M305 530q135 0 215 -98t54 -230h-377q14 -35 45.5 -55.5t72.5 -20.5q73 0 109 58l130 -60q-37 -61 -100 -97.5t-144 -36.5q-119 0 -199.5 77.5t-80.5 192.5t79 192.5t196 77.5zM305 394q-35 0 -63 -19.5t-43 -52.5h213q-29 72 -107 72zM310 -45q39 0 67 -28t28 -67
q0 -38 -28 -66.5t-67 -28.5t-67 28.5t-28 66.5q0 39 28 67t67 28z" />
    <glyph glyph-name="uni1EBA" unicode="&#x1eba;" horiz-adv-x="570" 
d="M290 720l-33 77q58 22 58 63q0 13 -8.5 21.5t-21.5 8.5q-18 0 -26 -13.5t-6 -30.5h-120q0 61 41 97.5t111 36.5q68 0 109.5 -34t41.5 -86q0 -48 -37 -85.5t-109 -54.5zM530 0h-480v700h480v-150h-310v-125h300v-150h-300v-125h310v-150z" />
    <glyph glyph-name="uni1EBB" unicode="&#x1ebb;" horiz-adv-x="610" 
d="M305 710q-18 0 -26 -13.5t-6 -30.5h-115q0 61 40.5 97.5t106.5 36.5q65 0 105.5 -34t40.5 -86q0 -48 -37 -85.5t-109 -54.5l-33 77q63 21 63 63q0 13 -8.5 21.5t-21.5 8.5zM305 530q135 0 215 -98t54 -230h-377q14 -35 45.5 -55.5t72.5 -20.5q73 0 109 58l130 -60
q-37 -61 -100 -97.5t-144 -36.5q-119 0 -199.5 77.5t-80.5 192.5t79 192.5t196 77.5zM305 394q-35 0 -63 -19.5t-43 -52.5h213q-29 72 -107 72z" />
    <glyph glyph-name="uni1EBC" unicode="&#x1ebc;" horiz-adv-x="570" 
d="M164 748l-99 48q11 49 52 81.5t93 32.5q47 0 90.5 -23.5t59.5 -23.5q32 0 46 39l99 -48q-11 -49 -52 -81.5t-93 -32.5q-47 0 -90.5 23.5t-59.5 23.5q-32 0 -46 -39zM530 0h-480v700h480v-150h-310v-125h300v-150h-300v-125h310v-150z" />
    <glyph glyph-name="uni1EBD" unicode="&#x1ebd;" horiz-adv-x="610" 
d="M240 622q-32 0 -46 -39l-99 48q11 49 52 81.5t93 32.5q42 0 80.5 -23.5t49.5 -23.5q32 0 46 39l99 -48q-11 -49 -52 -81.5t-93 -32.5q-42 0 -80.5 23.5t-49.5 23.5zM305 530q135 0 215 -98t54 -230h-377q14 -35 45.5 -55.5t72.5 -20.5q73 0 109 58l130 -60
q-37 -61 -100 -97.5t-144 -36.5q-119 0 -199.5 77.5t-80.5 192.5t79 192.5t196 77.5zM305 394q-35 0 -63 -19.5t-43 -52.5h213q-29 72 -107 72z" />
    </font>
</defs>
</svg>
