<svg xmlns="http://www.w3.org/2000/svg">
<defs>
<font id="AtypDisplay-BoldItalic" horiz-adv-x="800" >
  <font-face 
    font-family="Atyp Display Bold Italic"
    font-weight="400"
    font-style="italic"
    font-stretch="normal"
    units-per-em="1000"
    panose-1="0 0 8 0 0 0 0 0 0 0"
    ascent="782"
    descent="-218"
    x-height="520"
    cap-height="700"
    bbox="-488 -318 1927 1132"
    underline-thickness="50"
    underline-position="-200"
    slope="-12"
    unicode-range="U+000D-1F7E4"
  />
<missing-glyph horiz-adv-x="790" 
d="M690 0h-590v590h184v55q0 55 55 55h112q55 0 55 -55v-55h184v-590zM339 645v-55h112v55h-112zM189 429l-4 -24q17 -11 39 -11q18 0 29.5 9t11.5 26q0 16 -14 23t-28 10.5t-14 8.5q0 9 16 9q14 0 31 -9l4 24q-15 9 -35 9q-18 0 -29.5 -9t-11.5 -26q0 -13 8.5 -20.5
t19 -9.5t19 -5.5t8.5 -7.5q0 -9 -15 -9q-16 0 -35 12zM317 502h-24v-64q0 -20 11.5 -32t31.5 -12t31.5 12t11.5 32v64h-24v-64q0 -20 -19 -20t-19 20v64zM413 420l-3 -24h73l3 24h-26v58h23l3 24h-73l-3 -24h26v-58h-23zM547 478v-82h24v82h31l3 24h-89l-3 -24h34zM248 294
l26 3q0 52 -42 52q-21 0 -33 -15.5t-12 -39.5q0 -28 13.5 -41.5t34.5 -13.5t38 12l-5 24q-21 -12 -33 -12q-22 0 -22 31t19 31q16 0 16 -31zM418 274l-4 -24q16 -11 39 -11q18 0 29.5 9t11.5 26q0 16 -14 23t-28 10.5t-14 8.5q0 9 16 9q14 0 31 -9l4 24q-15 9 -35 9
q-18 0 -29.5 -9t-11.5 -26q0 -16 13.5 -23.5t27.5 -11t14 -8.5q0 -9 -15 -9q-16 0 -35 12zM315 347l-19 -106h25l5 27h32l5 -27h24l-18 106h-54zM528 347v-106h71l3 24h-50v17h47l3 24h-50v17h47l3 24h-74zM354 292h-24l5 31h14zM220 168v-82h24v82h31l3 24h-89l-3 -24h34z
M331 117v-31h24v31l36 75h-27l-21 -45l-20 45h-28zM416 192v-106h24v33h19q17 0 28.5 10.5t11.5 25.5t-11.5 26t-28.5 11h-43zM528 192v-106h71l3 24h-50v17h47l3 24h-50v17h47l3 24h-74zM459 143h-19v25h19q14 0 14 -13q0 -12 -14 -12z" />
    <glyph glyph-name="f_b" unicode="fb" horiz-adv-x="1034" 
d="M839 530q78 0 124.5 -58t46.5 -157q0 -131 -80 -228t-188 -97q-56 0 -101 43.5t-54 117.5l-32 -151h-160l81 380h-180l-81 -380h-160l81 380h-100l30 140h100l2 10q23 113 84 161.5t181 48.5h65l-30 -140h-65q-34 0 -50 -13t-23 -47l-4 -20h179l47 220h160l-75 -353
q37 65 90.5 104t111.5 39zM705 136q56 0 97.5 46.5t41.5 107.5q0 41 -24 67.5t-61 26.5q-62 0 -105.5 -46.5t-43.5 -107.5q0 -42 25.5 -68t69.5 -26z" />
    <glyph glyph-name="f_f" unicode="ff" horiz-adv-x="755" 
d="M215 0h-160l81 380h-100l30 140h100l2 10q23 113 84 161.5t181 48.5h65l-30 -140h-65q-34 0 -50 -13t-23 -47l-4 -20h180l2 10q23 113 84 161.5t181 48.5h65l-30 -140h-65q-34 0 -50 -13t-23 -47l-4 -20h125l-30 -140h-125l-81 -380h-160l81 380h-180z" />
    <glyph glyph-name="f_h" unicode="fh" horiz-adv-x="1015" 
d="M833 530q89 0 127.5 -67.5t18.5 -163.5l-64 -299h-160l61 289q9 43 -10.5 69.5t-63.5 26.5q-47 0 -82 -26.5t-44 -69.5l-61 -289h-160l81 380h-180l-81 -380h-160l81 380h-100l30 140h100l2 10q23 113 84 161.5t181 48.5h65l-30 -140h-65q-34 0 -50 -13t-23 -47l-4 -20
h179l47 220h160l-73 -342q33 64 84 98t110 34z" />
    <glyph glyph-name="f_i" unicode="fi" horiz-adv-x="660" 
d="M616 755q39 0 67 -28t28 -67q0 -38 -28 -66.5t-67 -28.5t-67 28.5t-28 66.5q0 39 28 67t67 28zM326 520h340l-111 -520h-160l81 380h-180l-81 -380h-160l81 380h-100l30 140h100l2 10q23 113 84 161.5t181 48.5h65l-30 -140h-65q-34 0 -50 -13t-23 -47z" />
    <glyph glyph-name="f_j" unicode="fj" horiz-adv-x="660" 
d="M615 755q39 0 67 -28t28 -67q0 -38 -28 -66.5t-67 -28.5t-67 28.5t-28 66.5q0 39 28 67t67 28zM326 520h339l-106 -500q-27 -129 -92.5 -183t-201.5 -47l30 140q54 0 73 17.5t31 72.5l76 360h-179l-81 -380h-160l81 380h-100l30 140h100l2 10q23 113 84 161.5t181 48.5
h65l-30 -140h-65q-34 0 -50 -13t-23 -47z" />
    <glyph glyph-name="f_k" unicode="fk" horiz-adv-x="990" 
d="M806 520h220l-253 -227l172 -293h-185l-108 184l-71 -64l-26 -120h-160l81 380h-180l-81 -380h-160l81 380h-100l30 140h100l2 10q23 113 84 161.5t181 48.5h65l-30 -140h-65q-34 0 -50 -13t-23 -47l-4 -20h179l47 220h160l-81 -382z" />
    <glyph glyph-name="f_l" unicode="fl" horiz-adv-x="660" 
d="M505 520l47 220h160l-157 -740h-160l81 380h-180l-81 -380h-160l81 380h-100l30 140h100l2 10q23 113 84 161.5t181 48.5h65l-30 -140h-65q-34 0 -50 -13t-23 -47l-4 -20h179z" />
    <glyph glyph-name="f_t" unicode="ft" horiz-adv-x="765" 
d="M761 380h-125l-38 -180q-12 -60 47 -60h65l-30 -140h-54q-108 0 -157 59t-27 161l34 160h-180l-81 -380h-160l81 380h-100l30 140h100l2 10q23 113 84 161.5t181 48.5h65l-30 -140h-65q-34 0 -50 -13t-23 -47l-4 -20h180l30 140l170 50l-40 -190h125z" />
    <glyph glyph-name="f_hbar" unicode="f&#x127;" horiz-adv-x="1015" 
d="M833 530q89 0 127.5 -67.5t18.5 -163.5l-64 -299h-160l61 289q9 43 -10.5 69.5t-63.5 26.5q-47 0 -82 -26.5t-44 -69.5l-61 -289h-160l81 380h-180l-81 -380h-160l81 380h-100l30 140h100l2 10q23 113 84 161.5t181 48.5h46l-30 -140h-46q-34 0 -50 -13t-23 -47l-4 -20
h179l7 30h-50l26 120h49l15 70h160l-15 -70h111l-26 -120h-111l-32 -152q33 64 84 98t110 34z" />
    <glyph glyph-name="f_iacute" unicode="f&#xed;" horiz-adv-x="660" 
d="M326 520h340l-111 -520h-160l81 380h-180l-81 -380h-160l81 380h-100l30 140h100l2 10q23 113 84 161.5t181 48.5h65l-30 -140h-65q-34 0 -50 -13t-23 -47zM812 740l-157 -160h-157l127 160h187z" />
    <glyph glyph-name="f_imacron" unicode="f&#x12b;" horiz-adv-x="660" 
d="M326 520h340l-111 -520h-160l81 380h-180l-81 -380h-160l81 380h-100l30 140h100l2 10q23 113 84 161.5t181 48.5h30l-30 -140h-30q-34 0 -50 -13t-23 -47zM463 600l25 120h280l-25 -120h-280z" />
    <glyph glyph-name="f_lcaron" unicode="f&#x13e;" horiz-adv-x="660" 
d="M717 575l61 195h150l-89 -195h-122zM326 520h179l47 220h160l-157 -740h-160l81 380h-180l-81 -380h-160l81 380h-100l30 140h100l2 10q23 113 84 161.5t181 48.5h65l-30 -140h-65q-34 0 -50 -13t-23 -47z" />
    <glyph glyph-name="f_f_b" unicode="ffb" horiz-adv-x="1374" 
d="M1179 530q78 0 124.5 -58t46.5 -157q0 -131 -80 -228t-188 -97q-56 0 -101 43.5t-54 117.5l-32 -151h-160l81 380h-180l-81 -380h-160l81 380h-180l-81 -380h-160l81 380h-100l30 140h100l2 10q23 113 84 161.5t181 48.5h65l-30 -140h-65q-34 0 -50 -13t-23 -47l-4 -20
h180l2 10q23 113 84 161.5t181 48.5h65l-30 -140h-65q-34 0 -50 -13t-23 -47l-4 -20h179l47 220h160l-75 -353q37 65 90.5 104t111.5 39zM1045 136q56 0 97.5 46.5t41.5 107.5q0 41 -24 67.5t-61 26.5q-62 0 -105.5 -46.5t-43.5 -107.5q0 -42 25.5 -68t69.5 -26z" />
    <glyph glyph-name="f_f_h" unicode="ffh" horiz-adv-x="1355" 
d="M1173 530q89 0 127.5 -67.5t18.5 -163.5l-64 -299h-160l61 289q9 43 -10.5 69.5t-63.5 26.5q-47 0 -82 -26.5t-44 -69.5l-61 -289h-160l81 380h-180l-81 -380h-160l81 380h-180l-81 -380h-160l81 380h-100l30 140h100l2 10q23 113 84 161.5t181 48.5h65l-30 -140h-65
q-34 0 -50 -13t-23 -47l-4 -20h180l2 10q23 113 84 161.5t181 48.5h65l-30 -140h-65q-34 0 -50 -13t-23 -47l-4 -20h179l47 220h160l-73 -342q33 64 84 98t110 34z" />
    <glyph glyph-name="f_f_i" unicode="ffi" horiz-adv-x="1000" 
d="M956 755q39 0 67 -28t28 -67q0 -38 -28 -66.5t-67 -28.5t-67 28.5t-28 66.5q0 39 28 67t67 28zM666 520h340l-111 -520h-160l81 380h-180l-81 -380h-160l81 380h-180l-81 -380h-160l81 380h-100l30 140h100l2 10q23 113 84 161.5t181 48.5h65l-30 -140h-65q-34 0 -50 -13
t-23 -47l-4 -20h180l2 10q23 113 84 161.5t181 48.5h65l-30 -140h-65q-34 0 -50 -13t-23 -47z" />
    <glyph glyph-name="f_f_j" unicode="ffj" horiz-adv-x="1000" 
d="M955 755q39 0 67 -28t28 -67q0 -38 -28 -66.5t-67 -28.5t-67 28.5t-28 66.5q0 39 28 67t67 28zM666 520h339l-106 -500q-27 -129 -92.5 -183t-201.5 -47l30 140q54 0 73 17.5t31 72.5l76 360h-179l-81 -380h-160l81 380h-180l-81 -380h-160l81 380h-100l30 140h100l2 10
q23 113 84 161.5t181 48.5h65l-30 -140h-65q-34 0 -50 -13t-23 -47l-4 -20h180l2 10q23 113 84 161.5t181 48.5h65l-30 -140h-65q-34 0 -50 -13t-23 -47z" />
    <glyph glyph-name="f_f_k" unicode="ffk" horiz-adv-x="1330" 
d="M1146 520h220l-253 -227l172 -293h-185l-108 184l-71 -64l-26 -120h-160l81 380h-180l-81 -380h-160l81 380h-180l-81 -380h-160l81 380h-100l30 140h100l2 10q23 113 84 161.5t181 48.5h65l-30 -140h-65q-34 0 -50 -13t-23 -47l-4 -20h180l2 10q23 113 84 161.5
t181 48.5h65l-30 -140h-65q-34 0 -50 -13t-23 -47l-4 -20h179l47 220h160l-81 -382z" />
    <glyph glyph-name="f_f_l" unicode="ffl" horiz-adv-x="1000" 
d="M845 520l47 220h160l-157 -740h-160l81 380h-180l-81 -380h-160l81 380h-180l-81 -380h-160l81 380h-100l30 140h100l2 10q23 113 84 161.5t181 48.5h65l-30 -140h-65q-34 0 -50 -13t-23 -47l-4 -20h180l2 10q23 113 84 161.5t181 48.5h65l-30 -140h-65q-34 0 -50 -13
t-23 -47l-4 -20h179z" />
    <glyph glyph-name="f_f_t" unicode="fft" horiz-adv-x="1105" 
d="M215 0h-160l81 380h-100l30 140h100l2 10q23 113 84 161.5t181 48.5h65l-30 -140h-65q-34 0 -50 -13t-23 -47l-4 -20h180l2 10q23 113 84 161.5t181 48.5h65l-30 -140h-65q-34 0 -50 -13t-23 -47l-4 -20h180l30 140l170 50l-40 -190h125l-30 -140h-125l-38 -180
q-12 -60 47 -60h65l-30 -140h-54q-108 0 -157 59t-27 161l34 160h-180l-81 -380h-160l81 380h-180z" />
    <glyph glyph-name="idieresis_idieresis" unicode="&#xef;&#xef;" horiz-adv-x="520" 
d="M30 660q0 37 26.5 63.5t63.5 26.5t63.5 -26.5t26.5 -63.5q0 -36 -26.5 -63t-63.5 -27t-63.5 27t-26.5 63zM255 660q0 37 26.5 63.5t63.5 26.5t63.5 -26.5t26.5 -63.5q0 -36 -26.5 -63t-63.5 -27t-63.5 27t-26.5 63zM480 660q0 37 26.5 63.5t63.5 26.5t63.5 -26.5
t26.5 -63.5q0 -36 -26.5 -63t-63.5 -27t-63.5 27t-26.5 63zM155 0h-160l111 520h160zM415 0h-160l111 520h160z" />
    <glyph glyph-name="t_t" unicode="tt" horiz-adv-x="805" 
d="M136 380h-100l30 140h100l30 140l170 50l-40 -190h220l30 140l170 50l-40 -190h125l-30 -140h-125l-38 -180q-12 -60 47 -60h65l-30 -140h-54q-108 0 -157 59t-27 161l34 160h-220l-38 -180q-12 -60 47 -60h65l-30 -140h-54q-108 0 -157 59t-27 161z" />
    <glyph glyph-name="tcaron_t" unicode="&#x165;t" horiz-adv-x="805" 
d="M499 575h-122l61 195h150zM136 380h-100l30 140h100l30 140l170 50l-40 -190h220l30 140l170 50l-40 -190h125l-30 -140h-125l-38 -180q-12 -60 47 -60h65l-30 -140h-54q-108 0 -157 59t-27 161l34 160h-220l-38 -180q-12 -60 47 -60h65l-30 -140h-54q-108 0 -157 59
t-27 161z" />
    <glyph glyph-name="uni04330443" unicode="&#x433;&#x443;" horiz-adv-x="930" 
d="M600 44l223 476h172l-341 -720h-172l97 200h-120l-32 380h-191l-81 -380h-160l111 520h471z" />
    <glyph glyph-name="uni04560457" unicode="&#x456;&#x457;" horiz-adv-x="551" 
d="M121 660q0 39 28 67t67 28t67 -28t28 -67q0 -38 -28 -66.5t-67 -28.5t-67 28.5t-28 66.5zM321 660q0 37 26.5 63.5t63.5 26.5t63.5 -26.5t26.5 -63.5q0 -36 -26.5 -63t-63.5 -27t-63.5 27t-26.5 63zM511 660q0 37 26.5 63.5t63.5 26.5t63.5 -26.5t26.5 -63.5
q0 -36 -26.5 -63t-63.5 -27t-63.5 27t-26.5 63zM155 0h-160l111 520h160zM445 0h-160l111 520h160z" />
    <glyph glyph-name="lambda_lambda" unicode="&#x3bb;&#x3bb;" horiz-adv-x="1026" 
d="M904 740l77 -740h-152l-46 448l-200 -448h-220l-46 448l-200 -448h-182l256 520h119l-23 220h151l57 -549l162 329h119l-23 220h151z" />
    <glyph glyph-name=".notdef" horiz-adv-x="790" 
d="M690 0h-590v590h184v55q0 55 55 55h112q55 0 55 -55v-55h184v-590zM339 645v-55h112v55h-112zM189 429l-4 -24q17 -11 39 -11q18 0 29.5 9t11.5 26q0 16 -14 23t-28 10.5t-14 8.5q0 9 16 9q14 0 31 -9l4 24q-15 9 -35 9q-18 0 -29.5 -9t-11.5 -26q0 -13 8.5 -20.5
t19 -9.5t19 -5.5t8.5 -7.5q0 -9 -15 -9q-16 0 -35 12zM317 502h-24v-64q0 -20 11.5 -32t31.5 -12t31.5 12t11.5 32v64h-24v-64q0 -20 -19 -20t-19 20v64zM413 420l-3 -24h73l3 24h-26v58h23l3 24h-73l-3 -24h26v-58h-23zM547 478v-82h24v82h31l3 24h-89l-3 -24h34zM248 294
l26 3q0 52 -42 52q-21 0 -33 -15.5t-12 -39.5q0 -28 13.5 -41.5t34.5 -13.5t38 12l-5 24q-21 -12 -33 -12q-22 0 -22 31t19 31q16 0 16 -31zM418 274l-4 -24q16 -11 39 -11q18 0 29.5 9t11.5 26q0 16 -14 23t-28 10.5t-14 8.5q0 9 16 9q14 0 31 -9l4 24q-15 9 -35 9
q-18 0 -29.5 -9t-11.5 -26q0 -16 13.5 -23.5t27.5 -11t14 -8.5q0 -9 -15 -9q-16 0 -35 12zM315 347l-19 -106h25l5 27h32l5 -27h24l-18 106h-54zM528 347v-106h71l3 24h-50v17h47l3 24h-50v17h47l3 24h-74zM354 292h-24l5 31h14zM220 168v-82h24v82h31l3 24h-89l-3 -24h34z
M331 117v-31h24v31l36 75h-27l-21 -45l-20 45h-28zM416 192v-106h24v33h19q17 0 28.5 10.5t11.5 25.5t-11.5 26t-28.5 11h-43zM528 192v-106h71l3 24h-50v17h47l3 24h-50v17h47l3 24h-74zM459 143h-19v25h19q14 0 14 -13q0 -12 -14 -12z" />
    <glyph glyph-name="uni0000" horiz-adv-x="600" 
 />
    <glyph glyph-name="nonmarkingreturn" horiz-adv-x="333" 
 />
    <glyph glyph-name="CR" unicode="&#xd;" horiz-adv-x="600" 
 />
    <glyph glyph-name="space" unicode=" " horiz-adv-x="300" 
 />
    <glyph glyph-name="exclam" unicode="!" horiz-adv-x="320" 
d="M212 220h-120l33 300l39 180h180l-39 -180zM28 85q0 40 27.5 67.5t67.5 27.5q39 0 67 -27.5t28 -67.5q0 -38 -28 -66.5t-67 -28.5t-67 28t-28 67z" />
    <glyph glyph-name="quotedbl" unicode="&#x22;" horiz-adv-x="475" 
d="M230 400h-150l64 300h150zM455 400h-150l64 300h150z" />
    <glyph glyph-name="numbersign" unicode="#" horiz-adv-x="780" 
d="M810 544l-70 -140h-96l-53 -108h96l-70 -140h-95l-76 -156h-156l76 156h-104l-76 -156h-156l76 156h-98l70 140h97l53 108h-96l70 140h95l76 156h156l-76 -156h104l76 156h156l-76 -156h97zM331 296h104l53 108h-104z" />
    <glyph glyph-name="dollar" unicode="$" horiz-adv-x="657" 
d="M450 544l-26 -121q40 -13 68.5 -27t58.5 -36.5t45.5 -56t15.5 -76.5q0 -100 -79 -164t-200 -72l-24 -111h-120l25 119q-150 34 -179 188l169 35q10 -49 43 -69l29 137q-38 13 -65 26.5t-54.5 35t-42 53.5t-14.5 72q0 94 74 158.5t191 73.5l24 111h120l-25 -119
q142 -33 172 -188l-169 -35q-8 44 -37 66zM283 501q0 -22 30 -38l20 95q-50 -14 -50 -57zM388 251l-24 -111q66 14 66 65q0 27 -42 46z" />
    <glyph glyph-name="percent" unicode="%" horiz-adv-x="996" 
d="M75 445q0 103 70.5 182t166.5 79q72 0 118.5 -46.5t46.5 -124.5q0 -103 -70.5 -182t-166.5 -79q-72 0 -118.5 46.5t-46.5 124.5zM326 0h-169l552 700h169zM214 456q0 -27 11 -43.5t31 -16.5q31 0 56.5 39.5t25.5 88.5q0 27 -11 43.5t-31 16.5q-31 0 -56.5 -40t-25.5 -88z
M559 165q0 103 70.5 182t166.5 79q72 0 118.5 -46.5t46.5 -124.5q0 -103 -70.5 -182t-166.5 -79q-72 0 -118.5 46.5t-46.5 124.5zM698 176q0 -27 11 -43.5t31 -16.5q31 0 56.5 39.5t25.5 88.5q0 27 -11 43.5t-31 16.5q-31 0 -56.5 -40t-25.5 -88z" />
    <glyph glyph-name="ampersand" unicode="&#x26;" horiz-adv-x="694" 
d="M683 116l-103 -126q-44 28 -99 68q-106 -68 -250 -68q-103 0 -162 50.5t-59 119.5q0 67 44 118t127 79q-42 73 -42 139q0 92 73.5 153t183.5 61q83 0 132 -47.5t49 -107.5q0 -70 -54 -126t-142 -82q42 -43 93 -84q27 58 18 120h153q6 -117 -51 -209q34 -23 89 -58z
M374 573q-31 0 -54.5 -25t-23.5 -58q0 -29 24 -69q102 50 102 107q0 21 -13.5 33t-34.5 12zM255 127q58 0 108 24q-72 62 -120 120q-64 -38 -64 -88q0 -24 20 -40t56 -16z" />
    <glyph glyph-name="quotesingle" unicode="'" horiz-adv-x="250" 
d="M230 400h-150l64 300h150z" />
    <glyph glyph-name="parenleft" unicode="(" horiz-adv-x="376" 
d="M57 210q0 148 70.5 314.5t184.5 275.5h174q-116 -111 -189.5 -277.5t-73.5 -312.5q0 -195 71 -310h-158q-79 127 -79 310z" />
    <glyph glyph-name="parenright" unicode=")" horiz-adv-x="376" 
d="M357 490q0 -148 -70.5 -314.5t-184.5 -275.5h-174q116 111 189.5 277.5t73.5 312.5q0 195 -71 310h158q79 -127 79 -310z" />
    <glyph glyph-name="asterisk" unicode="*" horiz-adv-x="430" 
d="M427 651l37 -93l-106 -49l86 -51l-61 -79l-84 62l-19 -111h-100l25 102l-94 -53l-37 93l106 49l-86 51l61 79l84 -62l19 111h100l-26 -102z" />
    <glyph glyph-name="plus" unicode="+" horiz-adv-x="540" 
d="M193 275h-140l32 150h140l30 140h160l-30 -140h140l-32 -150h-140l-30 -140h-160z" />
    <glyph glyph-name="comma" unicode="," horiz-adv-x="280" 
d="M110 200q54 0 87 -38.5t33 -97.5q0 -89 -63.5 -157t-162.5 -89l-41 92q111 28 136 89q-40 -3 -69.5 24t-29.5 72q0 44 31.5 74.5t78.5 30.5z" />
    <glyph glyph-name="hyphen" unicode="-" horiz-adv-x="340" 
d="M296 192h-280l30 140h280z" />
    <glyph glyph-name="period" unicode="." horiz-adv-x="280" 
d="M0 95q0 43 31 74t74 31t74 -31t31 -74q0 -42 -31 -73.5t-74 -31.5t-74 31.5t-31 73.5z" />
    <glyph glyph-name="slash" unicode="/" horiz-adv-x="369" 
d="M78 -100h-168l420 900h168z" />
    <glyph glyph-name="zero" unicode="0" horiz-adv-x="660" 
d="M50 272q0 109 48.5 210t133 164.5t180.5 63.5q114 0 175 -78.5t61 -203.5q0 -109 -48.5 -210t-133 -164.5t-180.5 -63.5q-114 0 -175 78.5t-61 203.5zM226 272q0 -57 21 -91.5t59 -34.5q61 0 113.5 89t52.5 193q0 57 -21 91.5t-59 34.5q-61 0 -113.5 -89t-52.5 -193z" />
    <glyph glyph-name="one" unicode="1" horiz-adv-x="530" 
d="M476 710l-119 -560h150l-32 -150h-500l32 150h180l77 361l-190 -47l33 156z" />
    <glyph glyph-name="two" unicode="2" horiz-adv-x="625" 
d="M466 272l-177 -122h263l-32 -150h-520l30 140l344 252q70 50 70 103q0 60 -71 60q-38 0 -66 -23.5t-38 -69.5h-176q17 116 104 182t204 66q104 0 164 -53t60 -136q0 -140 -159 -249z" />
    <glyph glyph-name="three" unicode="3" horiz-adv-x="580" 
d="M149 700h460l-27 -130l-176 -146q51 -13 90 -58.5t39 -123.5q0 -103 -84.5 -177.5t-207.5 -74.5q-121 0 -181 58t-51 170l175 20q-6 -44 11.5 -68t54.5 -24q48 0 76.5 26t28.5 68q0 65 -91 65h-72l27 127l140 118h-244z" />
    <glyph glyph-name="four" unicode="4" horiz-adv-x="606" 
d="M600 700l-91 -430h79l-32 -150h-79l-25 -120h-170l26 120h-338l32 150l279 430h319zM419 648l-247 -378h167z" />
    <glyph glyph-name="five" unicode="5" horiz-adv-x="594" 
d="M604 700l-32 -150h-262l-70 -205q58 106 170 106q66 0 111 -42t45 -123q0 -118 -92.5 -207t-221.5 -89q-111 0 -169 55t-55 158l174 20q-1 -37 18 -57t50 -20q48 0 82 34.5t34 81.5q0 31 -18.5 50.5t-48.5 19.5q-62 0 -97 -52l-154 18l136 402h400z" />
    <glyph glyph-name="six" unicode="6" horiz-adv-x="590" 
d="M559 700l-244 -317q48 49 106 54.5t99.5 -36t41.5 -116.5q0 -119 -93.5 -207t-210.5 -88q-107 0 -170.5 55.5t-63.5 149.5q0 91 87 202l234 303h214zM271 146q45 0 78 35t33 80q0 31 -20 51t-51 20q-45 0 -78.5 -35t-33.5 -80q0 -31 20 -51t52 -20z" />
    <glyph glyph-name="seven" unicode="7" horiz-adv-x="540" 
d="M103 700h510l-28 -130l-94 -145h64l-32 -150h-130l-179 -275h-199l183 275h-185l32 150h254l83 125h-311z" />
    <glyph glyph-name="eight" unicode="8" horiz-adv-x="608" 
d="M443 361q117 -35 117 -139q0 -99 -86 -165.5t-217 -66.5q-112 0 -173 44.5t-61 124.5q0 66 50.5 120.5t133.5 79.5q-96 41 -96 131q0 88 83 154t196 66q93 0 152 -45t59 -122q0 -54 -44 -104.5t-114 -77.5zM367 559q-33 0 -59 -24t-26 -55q0 -23 16 -37.5t42 -14.5
q33 0 59 24t26 55q0 23 -16 37.5t-42 14.5zM283 141q44 0 75 25t31 59q0 31 -21.5 49t-61.5 18q-44 0 -75 -26.5t-31 -61.5q0 -63 83 -63z" />
    <glyph glyph-name="nine" unicode="9" horiz-adv-x="590" 
d="M371 710q107 0 170.5 -55.5t63.5 -149.5q0 -91 -87 -202l-234 -303h-214l244 317q-48 -49 -106 -54.5t-99.5 36t-41.5 116.5q0 119 93.5 207t210.5 88zM318 368q45 0 78.5 35t33.5 80q0 31 -20 51t-52 20q-45 0 -78 -35t-33 -80q0 -31 19.5 -51t51.5 -20z" />
    <glyph glyph-name="colon" unicode=":" horiz-adv-x="280" 
d="M70 425q0 43 31 74t74 31t74 -31t31 -74q0 -42 -31 -73.5t-74 -31.5t-74 31.5t-31 73.5zM0 95q0 43 31 74t74 31t74 -31t31 -74q0 -42 -31 -73.5t-74 -31.5t-74 31.5t-31 73.5z" />
    <glyph glyph-name="semicolon" unicode=";" horiz-adv-x="280" 
d="M175 530q43 0 74 -31t31 -74q0 -42 -31 -73.5t-74 -31.5t-74 31.5t-31 73.5q0 43 31 74t74 31zM110 200q54 0 87 -38.5t33 -97.5q0 -89 -63.5 -157t-162.5 -89l-41 92q111 28 136 89q-40 -3 -69.5 24t-29.5 72q0 44 31.5 74.5t78.5 30.5z" />
    <glyph glyph-name="less" unicode="&#x3c;" horiz-adv-x="540" 
d="M85 425l478 180l-36 -168l-264 -94l224 -94l-32 -154l-402 180z" />
    <glyph glyph-name="equal" unicode="=" horiz-adv-x="540" 
d="M521 405h-440l32 150h440zM466 145h-440l32 150h440z" />
    <glyph glyph-name="greater" unicode="&#x3e;" horiz-adv-x="540" 
d="M91 451l32 154l402 -180l-32 -150l-478 -180l36 168l264 94z" />
    <glyph glyph-name="question" unicode="?" horiz-adv-x="550" 
d="M334 220h-160q10 57 38 98.5t60 63t63 38.5t51.5 37.5t20.5 47.5q0 50 -74 50q-45 0 -73.5 -23.5t-30.5 -69.5h-176q18 117 100.5 182.5t202.5 65.5q112 0 171.5 -49.5t59.5 -132.5q0 -49 -17.5 -87t-44 -59t-58.5 -41t-60 -34t-48.5 -36.5t-24.5 -50.5zM130 85
q0 40 27.5 67.5t67.5 27.5q39 0 67 -27.5t28 -67.5q0 -38 -28 -66.5t-67 -28.5t-67 28t-28 67z" />
    <glyph glyph-name="at" unicode="@" horiz-adv-x="998" 
d="M634 482h142l-55 -310q-3 -17 5.5 -27.5t27.5 -10.5q34 0 62.5 45.5t28.5 121.5q0 128 -81.5 212t-213.5 84q-170 0 -289 -115t-119 -281q0 -128 81.5 -212t213.5 -84q123 0 225 64l68 -96q-132 -83 -292 -83q-186 0 -302 116t-116 294q0 140 71 257.5t193 185t267 67.5
q185 0 301 -116t116 -294q0 -123 -72 -206.5t-176 -83.5q-55 0 -94 27.5t-48 76.5q-31 -50 -76.5 -79.5t-100.5 -29.5q-71 0 -120 57.5t-49 145.5q0 118 67 200.5t162 82.5q52 0 93 -34t58 -97zM468 134q51 0 88 39t37 94q0 41 -23 68t-62 27q-51 0 -89 -39t-38 -94
q0 -42 24 -68.5t63 -26.5z" />
    <glyph glyph-name="A" unicode="A" horiz-adv-x="740" 
d="M685 0h-171l-14 138h-305l-69 -138h-181l358 700h302zM449 650l-180 -362h216z" />
    <glyph glyph-name="B" unicode="B" horiz-adv-x="650" 
d="M450 352q147 -20 147 -142q0 -89 -71 -149.5t-179 -60.5h-352l149 700h302q83 0 135.5 -44.5t52.5 -105.5q0 -80 -49 -131.5t-135 -66.5zM415 555h-137l-29 -135h137q39 0 65.5 24t26.5 59q0 24 -16 38t-47 14zM191 145h144q39 0 65 24.5t26 59.5q0 23 -16 37t-46 14
h-144z" />
    <glyph glyph-name="C" unicode="C" horiz-adv-x="760" 
d="M45 288q0 113 58 210t157 154.5t213 57.5q119 0 199 -57t108 -147l-168 -59q-14 48 -53 77.5t-96 29.5q-101 0 -172 -75.5t-71 -175.5q0 -69 43 -113t113 -44q60 0 112 29t84 78l154 -64q-53 -85 -148 -142t-212 -57q-141 0 -231 81.5t-90 216.5z" />
    <glyph glyph-name="D" unicode="D" horiz-adv-x="730" 
d="M296 0h-301l149 700h281q132 0 216 -81t84 -202q0 -170 -126.5 -293.5t-302.5 -123.5zM282 550l-85 -400h106q101 0 173.5 73.5t72.5 176.5q0 68 -43 109t-118 41h-106z" />
    <glyph glyph-name="E" unicode="E" horiz-adv-x="570" 
d="M475 0h-480l149 700h480l-32 -150h-310l-27 -125h300l-32 -150h-300l-26 -125h310z" />
    <glyph glyph-name="F" unicode="F" horiz-adv-x="530" 
d="M165 0h-170l149 700h460l-32 -150h-290l-31 -145h280l-32 -150h-280z" />
    <glyph glyph-name="G" unicode="G" 
d="M339 250l32 150h422q-4 -90 -42 -168t-98 -130.5t-134.5 -82t-152.5 -29.5q-141 0 -231 81.5t-90 216.5q0 113 58 210t157 154.5t213 57.5q119 0 199 -57t108 -147l-168 -59q-14 48 -53 77.5t-96 29.5q-101 0 -172 -75.5t-71 -175.5q0 -69 43 -113t113 -44
q63 0 115.5 31.5t78.5 72.5h-231z" />
    <glyph glyph-name="H" unicode="H" horiz-adv-x="720" 
d="M165 0h-170l149 700h170l-59 -275h280l59 275h170l-149 -700h-170l58 275h-280z" />
    <glyph glyph-name="I" unicode="I" horiz-adv-x="270" 
d="M165 0h-170l149 700h170z" />
    <glyph glyph-name="J" unicode="J" horiz-adv-x="558" 
d="M-9 218l170 25q-17 -97 74 -97q39 0 69 25t39 67l98 462h170l-101 -472q-24 -115 -109 -176.5t-194 -61.5q-105 0 -167.5 61t-48.5 167z" />
    <glyph glyph-name="K" unicode="K" horiz-adv-x="690" 
d="M525 700h229l-312 -291l193 -409h-188l-135 288l-107 -99l-40 -189h-170l149 700h170l-53 -248z" />
    <glyph glyph-name="L" unicode="L" horiz-adv-x="550" 
d="M475 0h-480l149 700h170l-117 -550h310z" />
    <glyph glyph-name="M" unicode="M" horiz-adv-x="920" 
d="M944 700l-149 -700h-160l138 649l-228 -649h-301l49 649l-138 -649h-160l149 700h308l-49 -649l228 649h313z" />
    <glyph glyph-name="N" unicode="N" horiz-adv-x="740" 
d="M475 48l139 652h170l-149 -700h-319l-12 652l-139 -652h-170l149 700h319z" />
    <glyph glyph-name="O" unicode="O" 
d="M45 288q0 113 58 210t157 154.5t213 57.5q141 0 230.5 -81.5t89.5 -216.5q0 -172 -126.5 -297t-300.5 -125q-141 0 -231 81.5t-90 216.5zM220 303q0 -69 43 -113t113 -44q100 0 171 75.5t71 175.5q0 69 -43 113t-113 44q-100 0 -171 -75.5t-71 -175.5z" />
    <glyph glyph-name="P" unicode="P" horiz-adv-x="640" 
d="M165 0h-170l149 700h289q105 0 172.5 -59.5t67.5 -145.5q0 -124 -87.5 -202t-225.5 -78h-149zM282 550l-39 -185h137q48 0 82.5 34t34.5 81q0 32 -21 51t-57 19h-137z" />
    <glyph glyph-name="Q" unicode="Q" 
d="M793 412q0 -90 -37.5 -171t-104.5 -141l63 -91l-132 -91l-68 99q-75 -27 -148 -27q-141 0 -231 81.5t-90 216.5q0 113 58 210t157 154.5t213 57.5q141 0 230.5 -81.5t89.5 -216.5zM376 146q21 0 46 5l-67 96l132 91l72 -104q59 72 59 163q0 69 -43 113t-113 44
q-100 0 -171 -75.5t-71 -175.5q0 -69 43 -113t113 -44z" />
    <glyph glyph-name="R" unicode="R" horiz-adv-x="660" 
d="M665 503q0 -93 -54 -162.5t-144 -96.5l118 -244h-187l-111 230h-73l-49 -230h-170l149 700h290q101 0 166 -57.5t65 -139.5zM247 385h139q42 0 72.5 30t30.5 72q0 28 -18 45.5t-50 17.5h-139z" />
    <glyph glyph-name="S" unicode="S" horiz-adv-x="637" 
d="M35 187l169 35q17 -86 106 -86q44 0 72 19.5t28 49.5q0 27 -32 45t-77.5 32.5t-91 33.5t-77.5 60t-32 101q0 99 82.5 166t204.5 67q212 0 249 -197l-169 -35q-17 86 -97 86q-40 0 -63.5 -17t-23.5 -46q0 -22 23 -38t57 -25.5t74.5 -26t74.5 -36t57 -58t23 -90.5
q0 -105 -86.5 -171t-211.5 -66q-112 0 -176.5 52.5t-82.5 144.5z" />
    <glyph glyph-name="T" unicode="T" horiz-adv-x="600" 
d="M330 0h-170l117 550h-205l32 150h580l-32 -150h-205z" />
    <glyph glyph-name="U" unicode="U" horiz-adv-x="700" 
d="M49 302l85 398h170l-89 -418q-13 -59 17.5 -97.5t93.5 -38.5q64 0 110 38t59 98l89 418h170l-93 -438q-27 -126 -124.5 -199t-233.5 -73q-137 0 -209.5 88.5t-44.5 223.5z" />
    <glyph glyph-name="V" unicode="V" horiz-adv-x="710" 
d="M315 51l308 649h181l-346 -700h-296l-68 700h171z" />
    <glyph glyph-name="W" unicode="W" horiz-adv-x="1070" 
d="M730 43l224 657h170l-239 -700h-308l39 646l-218 -646h-303l39 700h150l-37 -657l222 657h300z" />
    <glyph glyph-name="X" unicode="X" horiz-adv-x="688" 
d="M571 700h211l-318 -355l169 -345h-196l-98 213l-183 -213h-211l318 355l-169 345h196l98 -213z" />
    <glyph glyph-name="Y" unicode="Y" horiz-adv-x="682" 
d="M786 700l-363 -458l-20 -92h105l-32 -150h-380l32 150h105l20 92l-169 458h190l95 -288l217 288h200z" />
    <glyph glyph-name="Z" unicode="Z" horiz-adv-x="620" 
d="M144 700h520l-65 -303l-500 -247h448l-32 -150h-520l65 303l500 247h-448z" />
    <glyph glyph-name="bracketleft" unicode="[" horiz-adv-x="325" 
d="M244 -100h-270l191 900h270l-32 -150h-100l-127 -600h100z" />
    <glyph glyph-name="backslash" unicode="\" horiz-adv-x="369" 
d="M307 -100h-152l-54 900h152z" />
    <glyph glyph-name="bracketright" unicode="]" horiz-adv-x="325" 
d="M199 -100h-270l32 150h100l127 600h-100l32 150h270z" />
    <glyph glyph-name="asciicircum" unicode="^" horiz-adv-x="640" 
d="M548 740l54 -520h-162l-32 470l-214 -470h-172l256 520h270z" />
    <glyph glyph-name="underscore" unicode="_" horiz-adv-x="520" 
d="M423 -150h-500l30 140h500z" />
    <glyph glyph-name="grave" unicode="`" horiz-adv-x="380" 
d="M398 580h-157l-89 160h167z" />
    <glyph glyph-name="a" unicode="a" horiz-adv-x="546" 
d="M317 530q105 0 161.5 -55t32.5 -169l-65 -306h-160l24 116q-61 -126 -177 -126q-57 0 -97 38.5t-40 99.5q0 79 59 127t164 58l93 9q44 4 49 32q4 20 -13 33t-46 13q-37 0 -61.5 -17t-30.5 -48l-152 34q18 67 88 114t171 47zM201 115q42 0 82 30t48 67l1 5q-17 -8 -39 -10
l-79 -9q-57 -7 -57 -48q0 -35 44 -35z" />
    <glyph glyph-name="b" unicode="b" horiz-adv-x="634" 
d="M439 530q78 0 124.5 -58t46.5 -157q0 -131 -80 -228t-188 -97q-56 0 -101 43.5t-54 117.5l-32 -151h-160l157 740h160l-75 -353q37 65 90.5 104t111.5 39zM305 136q56 0 97.5 46.5t41.5 107.5q0 41 -24 67.5t-61 26.5q-62 0 -105.5 -46.5t-43.5 -107.5q0 -42 25.5 -68
t69.5 -26z" />
    <glyph glyph-name="c" unicode="c" horiz-adv-x="580" 
d="M27 217q0 128 94.5 220.5t226.5 92.5q85 0 148 -44t79 -123l-146 -50q-8 34 -33 52.5t-59 18.5q-59 0 -101.5 -46.5t-42.5 -107.5q0 -42 24.5 -68t65.5 -26q80 0 126 71l144 -50q-43 -79 -117.5 -123t-161.5 -44q-110 0 -178.5 61.5t-68.5 165.5z" />
    <glyph glyph-name="d" unicode="d" horiz-adv-x="634" 
d="M447 368l79 372h160l-157 -740h-160l28 134q-37 -66 -90.5 -105t-111.5 -39q-78 0 -124.5 58t-46.5 157q0 131 80 228t188 97q57 0 101.5 -44t53.5 -118zM275 136q62 0 105.5 46.5t43.5 107.5q0 42 -25.5 68t-69.5 26q-56 0 -97.5 -46.5t-41.5 -107.5q0 -41 24 -67.5
t61 -26.5z" />
    <glyph glyph-name="e" unicode="e" horiz-adv-x="610" 
d="M348 530q133 0 197.5 -97.5t19.5 -230.5h-379q7 -37 33 -56.5t64 -19.5q76 0 125 58l125 -60q-40 -58 -109.5 -96t-149.5 -38q-110 0 -178.5 61.5t-68.5 165.5q0 128 94.5 220.5t226.5 92.5zM332 394q-35 0 -68.5 -19t-54.5 -53h214q-6 31 -31 51.5t-60 20.5z" />
    <glyph glyph-name="f" unicode="f" horiz-adv-x="415" 
d="M215 0h-160l81 380h-100l30 140h100l2 10q23 113 84 161.5t181 48.5h65l-30 -140h-65q-34 0 -50 -13t-23 -47l-4 -20h125l-30 -140h-125z" />
    <glyph glyph-name="g" unicode="g" horiz-adv-x="634" 
d="M448 376l31 144h160l-102 -480q-24 -115 -106.5 -182.5t-199.5 -67.5q-83 0 -146.5 40.5t-85.5 101.5l145 70q29 -66 95 -66q51 0 90.5 34.5t51.5 89.5l18 84q-37 -61 -90.5 -97.5t-111.5 -36.5q-79 0 -125 55t-46 160q0 124 80 214.5t188 90.5q56 0 100 -39.5t54 -114.5
zM284 156q59 0 100.5 43.5t41.5 100.5q0 38 -25.5 61t-66.5 23q-59 0 -100.5 -43.5t-41.5 -100.5q0 -38 25.5 -61t66.5 -23z" />
    <glyph glyph-name="h" unicode="h" horiz-adv-x="615" 
d="M433 530q89 0 127.5 -67.5t18.5 -163.5l-64 -299h-160l61 289q9 43 -10.5 69.5t-63.5 26.5q-47 0 -82 -26.5t-44 -69.5l-61 -289h-160l157 740h160l-73 -342q33 64 84 98t110 34z" />
    <glyph glyph-name="i" unicode="i" horiz-adv-x="260" 
d="M121 660q0 39 28 67t67 28t67 -28t28 -67q0 -38 -28 -66.5t-67 -28.5t-67 28.5t-28 66.5zM155 0h-160l111 520h160z" />
    <glyph glyph-name="j" unicode="j" horiz-adv-x="280" 
d="M140 660q0 39 28 67t67 28t67 -28t28 -67q0 -38 -28 -66.5t-67 -28.5t-67 28.5t-28 66.5zM-115 -210l30 140q54 0 73 17.5t31 72.5l106 500h160l-106 -500q-27 -129 -92.5 -183t-201.5 -47z" />
    <glyph glyph-name="k" unicode="k" horiz-adv-x="590" 
d="M406 520h220l-253 -227l172 -293h-185l-108 184l-71 -64l-26 -120h-160l157 740h160l-81 -382z" />
    <glyph glyph-name="l" unicode="l" horiz-adv-x="260" 
d="M155 0h-160l157 740h160z" />
    <glyph glyph-name="m" unicode="m" horiz-adv-x="895" 
d="M738 530q75 0 107.5 -68t12.5 -163l-63 -299h-160l61 289q9 43 -5 69.5t-49 26.5q-38 0 -67.5 -26.5t-38.5 -69.5l-61 -289h-160l61 289q9 43 -5 69.5t-49 26.5q-38 0 -67.5 -26.5t-38.5 -69.5l-61 -289h-160l111 520h160l-26 -120q33 61 81.5 95.5t101.5 34.5
q58 0 91 -35.5t36 -96.5q33 62 83 97t105 35z" />
    <glyph glyph-name="n" unicode="n" horiz-adv-x="615" 
d="M433 530q89 0 127.5 -67.5t18.5 -163.5l-64 -299h-160l61 289q9 43 -10.5 69.5t-63.5 26.5q-47 0 -82 -26.5t-44 -69.5l-61 -289h-160l111 520h160l-26 -121q33 63 84 97t109 34z" />
    <glyph glyph-name="o" unicode="o" horiz-adv-x="620" 
d="M27 217q0 128 94.5 220.5t226.5 92.5q109 0 177 -61.5t68 -165.5q0 -128 -94 -220.5t-225 -92.5q-110 0 -178.5 61.5t-68.5 165.5zM193 230q0 -42 24.5 -68t65.5 -26q59 0 101.5 46.5t42.5 107.5q0 42 -24.5 68t-65.5 26q-59 0 -101.5 -46.5t-42.5 -107.5z" />
    <glyph glyph-name="p" unicode="p" horiz-adv-x="634" 
d="M439 530q78 0 124.5 -58t46.5 -157q0 -131 -80 -228t-188 -97q-57 0 -101.5 44t-53.5 118l-75 -352h-160l153 720h160l-28 -134q37 66 90.5 105t111.5 39zM305 136q56 0 97.5 46.5t41.5 107.5q0 41 -24 67.5t-61 26.5q-62 0 -105.5 -46.5t-43.5 -107.5q0 -42 25.5 -68
t69.5 -26z" />
    <glyph glyph-name="q" unicode="q" horiz-adv-x="634" 
d="M447 369l32 151h160l-153 -720h-160l71 332q-37 -65 -90.5 -103.5t-111.5 -38.5q-78 0 -124.5 58t-46.5 157q0 131 80 228t188 97q56 0 101 -43.5t54 -117.5zM275 136q62 0 105.5 46.5t43.5 107.5q0 42 -25.5 68t-69.5 26q-56 0 -97.5 -46.5t-41.5 -107.5q0 -41 24 -67.5
t61 -26.5z" />
    <glyph glyph-name="r" unicode="r" horiz-adv-x="417" 
d="M266 520l-27 -124q45 93 102 120t112 4l-32 -150q-74 30 -133 6t-72 -87l-61 -289h-160l111 520h160z" />
    <glyph glyph-name="s" unicode="s" horiz-adv-x="510" 
d="M0 142l156 34q9 -61 72 -61q39 0 61.5 12.5t22.5 33.5q0 19 -27 28.5t-65 16t-76 18.5t-65 44t-27 84q0 72 65.5 125t163.5 53q92 0 152 -41.5t72 -110.5l-156 -34q-9 61 -73 61q-27 0 -45 -11.5t-18 -30.5q0 -20 27 -30t65 -17t76 -19.5t65 -44.5t27 -84
q0 -79 -75 -128.5t-170 -49.5t-156 41t-72 111z" />
    <glyph glyph-name="t" unicode="t" horiz-adv-x="425" 
d="M136 380h-100l30 140h100l30 140l170 50l-40 -190h125l-30 -140h-125l-38 -180q-12 -60 47 -60h65l-30 -140h-54q-108 0 -157 59t-27 161z" />
    <glyph glyph-name="u" unicode="u" horiz-adv-x="590" 
d="M42 242l58 278h160l-63 -298q-8 -39 11.5 -62.5t60.5 -23.5q39 0 69.5 24t38.5 62l63 298h160l-67 -318q-21 -102 -97.5 -157t-187.5 -55t-170 71t-36 181z" />
    <glyph glyph-name="v" unicode="v" horiz-adv-x="560" 
d="M239 50l214 470h172l-256 -520h-270l-54 520h162z" />
    <glyph glyph-name="w" unicode="w" horiz-adv-x="848" 
d="M577 51l171 469h155l-199 -520h-266l32 476l-162 -476h-266l13 520h145l-21 -469l151 469h288z" />
    <glyph glyph-name="x" unicode="x" horiz-adv-x="580" 
d="M430 520h195l-240 -262l130 -258h-186l-62 146l-117 -146h-195l241 263l-131 257h186l62 -146z" />
    <glyph glyph-name="y" unicode="y" horiz-adv-x="560" 
d="M230 44l223 476h172l-341 -720h-172l97 200h-120l-44 520h162z" />
    <glyph glyph-name="z" unicode="z" horiz-adv-x="540" 
d="M106 520h440l-57 -265l-401 -115h377l-30 -140h-440l57 265l401 115h-377z" />
    <glyph glyph-name="braceleft" unicode="{" horiz-adv-x="347" 
d="M166 550l-4 28q-9 66 32 118.5t102 78t121 25.5l-2 -150q-33 0 -62.5 -27t-24.5 -65l5 -38q9 -62 -37.5 -109.5t-122.5 -70.5q26 -8 47 -22t37 -35t15 -53t-22 -70l-10 -18q-20 -43 -3.5 -67.5t50.5 -24.5l-62 -150q-60 0 -110 26.5t-69.5 76t19.5 119.5l16 28
q72 125 -78 125l32 150q72 0 106 30t25 95z" />
    <glyph glyph-name="bar" unicode="|" horiz-adv-x="250" 
d="M102 -200h-150l234 1100h150z" />
    <glyph glyph-name="braceright" unicode="}" horiz-adv-x="347" 
d="M320 578l-16 -28q-72 -125 78 -125l-32 -150q-72 0 -106 -30t-25 -95l4 -28q9 -66 -32 -118.5t-102 -78t-121 -25.5l2 150q33 0 62.5 27t24.5 65l-5 38q-9 62 37.5 109.5t122.5 70.5q-26 8 -47 22t-37 35t-15 53t22 70l10 18q20 43 3.5 67.5t-50.5 24.5l62 150
q60 0 110 -26.5t69.5 -76t-19.5 -119.5z" />
    <glyph glyph-name="asciitilde" unicode="~" horiz-adv-x="560" 
d="M153 254l-111 60q24 63 74.5 102.5t117.5 39.5q31 0 54.5 -9t35 -20t25.5 -20t29 -9q48 0 68 48l111 -60q-24 -63 -74.5 -102.5t-117.5 -39.5q-31 0 -54.5 9t-35 20t-25.5 20t-29 9q-49 0 -68 -48z" />
    <glyph glyph-name="uni00A0" unicode="&#xa0;" horiz-adv-x="300" 
 />
    <glyph glyph-name="exclamdown" unicode="&#xa1;" horiz-adv-x="320" 
d="M288 415q0 -40 -27.5 -67.5t-67.5 -27.5q-39 0 -67 27.5t-28 67.5q0 38 28 66.5t67 28.5t67 -28t28 -67zM104 280h120l-33 -300l-39 -180h-180l39 180z" />
    <glyph glyph-name="cent" unicode="&#xa2;" horiz-adv-x="576" 
d="M391 369l-47 -220q39 19 65 58l144 -50q-39 -71 -102.5 -114t-139.5 -51l-24 -112h-120l25 120q-76 21 -120.5 77.5t-44.5 139.5q0 117 80 205.5t197 104.5l24 113h120l-25 -120q58 -16 99 -56.5t53 -100.5l-146 -50q-9 37 -38 56zM193 230q0 -48 32 -75l45 210
q-35 -20 -56 -56.5t-21 -78.5z" />
    <glyph glyph-name="sterling" unicode="&#xa3;" horiz-adv-x="660" 
d="M677 478h-170q7 33 -11.5 54.5t-52.5 21.5q-35 0 -61.5 -21t-34.5 -55l-16 -73h200l-23 -110h-200l-31 -145h330l-32 -150h-580l32 150h80l31 145h-80l23 110h80l16 73q23 105 97 168.5t182 63.5q111 0 176.5 -65.5t44.5 -166.5z" />
    <glyph glyph-name="currency" unicode="&#xa4;" horiz-adv-x="746" 
d="M681 388q0 -96 -62 -177l74 -94l-135 -110l-77 97q-61 -24 -121 -24q-71 0 -126 29l-123 -102l-104 130l119 98q-12 36 -12 77q0 96 62 177l-74 94l135 110l77 -97q61 24 121 24q71 0 126 -29l123 102l104 -130l-119 -98q12 -36 12 -77zM280 320q0 -42 25 -68t66 -26
q56 0 100 46.5t44 107.5q0 42 -25 68t-66 26q-56 0 -100 -46.5t-44 -107.5z" />
    <glyph glyph-name="yen" unicode="&#xa5;" horiz-adv-x="682" 
d="M586 700h200l-178 -225h70l-21 -100h-129l-39 -50h157l-21 -100h-206l-16 -75h105l-32 -150h-380l32 150h105l16 75h-206l21 100h158l-18 50h-129l21 100h71l-83 225h190l95 -288z" />
    <glyph glyph-name="brokenbar" unicode="&#xa6;" horiz-adv-x="250" 
d="M240 450h-150l96 450h150zM102 -200h-150l96 450h150z" />
    <glyph glyph-name="section" unicode="&#xa7;" horiz-adv-x="619" 
d="M573 264q0 -92 -85 -158q29 -40 29 -97q0 -90 -81 -154.5t-192 -64.5q-109 0 -171 48t-76 138l173 33q15 -73 86 -73q36 0 58 17t22 42q0 22 -30.5 38t-73.5 29t-86 31t-73.5 54.5t-30.5 88.5q0 92 85 158q-29 40 -29 97q0 90 81 154.5t192 64.5q109 0 171 -48t76 -138
l-173 -33q-15 73 -86 73q-36 0 -58 -17t-22 -42q0 -22 30.5 -38t73.5 -29t86 -31t73.5 -54.5t30.5 -88.5zM221 266q0 -13 7 -23.5t24.5 -19t31 -13.5t42 -14t42.5 -14q26 23 26 52q0 13 -7 23.5t-24.5 19t-31 13.5t-42 14t-42.5 14q-26 -23 -26 -52z" />
    <glyph glyph-name="dieresis" unicode="&#xa8;" horiz-adv-x="520" 
d="M135 660q0 37 26.5 63.5t63.5 26.5t63.5 -26.5t26.5 -63.5q0 -36 -26.5 -63t-63.5 -27t-63.5 27t-26.5 63zM375 660q0 37 26.5 63.5t63.5 26.5t63.5 -26.5t26.5 -63.5q0 -36 -26.5 -63t-63.5 -27t-63.5 27t-26.5 63z" />
    <glyph glyph-name="copyright" unicode="&#xa9;" horiz-adv-x="780" 
d="M43 303q0 167 119 287t291 120q133 0 228 -89.5t95 -223.5q0 -167 -119 -287t-291 -120q-133 0 -228 89.5t-95 223.5zM156 313q0 -95 62.5 -155t157.5 -60q124 0 205.5 86t81.5 203q0 95 -62.5 155t-157.5 60q-124 0 -205.5 -86t-81.5 -203zM215 320q0 90 67 155t156 65
q63 0 109.5 -30.5t61.5 -88.5l-127 -40q-9 41 -49 41q-32 0 -56.5 -27.5t-24.5 -62.5q0 -24 14 -39t36 -15q41 0 67 41l110 -40q-59 -119 -192 -119q-77 0 -124.5 45t-47.5 115z" />
    <glyph glyph-name="ordfeminine" unicode="&#xaa;" horiz-adv-x="393" 
d="M273 707q77 0 120 -43t26 -121l-45 -209h-130l14 68q-45 -75 -112 -75q-40 0 -70.5 26t-30.5 74q0 53 40.5 89.5t120.5 42.5l62 5q25 2 28 17q2 10 -6 17t-24 7q-19 0 -33 -11t-18 -27l-128 26q9 47 59.5 80.5t126.5 33.5zM203 428q22 0 43.5 14.5t25.5 35.5l1 4
q-8 -4 -18 -6l-47 -6q-12 -1 -19.5 -8.5t-7.5 -17.5q0 -16 22 -16z" />
    <glyph glyph-name="guillemotleft" unicode="&#xab;" horiz-adv-x="585" 
d="M327 480l-36 -169l-130 -58l105 -58l-33 -155l-219 145l32 150zM321 335l281 145l-36 -169l-130 -58l105 -58l-33 -155l-219 145z" />
    <glyph glyph-name="logicalnot" unicode="&#xac;" horiz-adv-x="540" 
d="M333 275h-280l32 150h440l-62 -290h-160z" />
    <glyph glyph-name="uni00AD" unicode="&#xad;" horiz-adv-x="340" 
d="M296 192h-280l30 140h280z" />
    <glyph glyph-name="registered" unicode="&#xae;" horiz-adv-x="190" 
d="M179 705q33 0 56 -22t23 -55q0 -35 -28.5 -63t-64.5 -28q-34 0 -56.5 22t-22.5 55q0 35 28.5 63t64.5 28zM165 562q28 0 47.5 19.5t19.5 46.5q0 23 -15 38t-38 15q-27 0 -47 -19.5t-20 -47.5q0 -23 15 -37.5t38 -14.5zM145 661h43q25 0 25 -24q0 -18 -19 -28l12 -27h-29
l-9 23h-8l-4 -23h-27zM181 639h-14l-2 -12h13q8 0 8 7q0 5 -5 5z" />
    <glyph glyph-name="macron" unicode="&#xaf;" horiz-adv-x="420" 
d="M442 600h-320l26 120h320z" />
    <glyph glyph-name="degree" unicode="&#xb0;" horiz-adv-x="480" 
d="M81 477q0 97 71 165t174 68q77 0 128.5 -48.5t51.5 -118.5q0 -97 -71 -165t-174 -68q-77 0 -128.5 48.5t-51.5 118.5zM228 496q0 -22 14 -36t38 -14q31 0 55 23.5t24 54.5q0 22 -14 36t-38 14q-31 0 -55 -23.5t-24 -54.5z" />
    <glyph glyph-name="plusminus" unicode="&#xb1;" horiz-adv-x="540" 
d="M525 425l-32 -150h-140l-26 -125h140l-32 -150h-440l32 150h140l26 125h-140l32 150h140l30 140h160l-30 -140h140z" />
    <glyph glyph-name="acute" unicode="&#xb4;" horiz-adv-x="380" 
d="M275 580h-157l127 160h187z" />
    <glyph glyph-name="uni00B5" unicode="&#xb5;" horiz-adv-x="620" 
d="M404 231l62 289h160l-111 -520h-160l26 123q-34 -64 -85.5 -98.5t-107.5 -34.5q-20 0 -35 4l-41 -194h-160l154 720h160l-62 -287v-2q-9 -43 10.5 -69.5t63.5 -26.5q47 0 82 26.5t44 69.5z" />
    <glyph glyph-name="paragraph" unicode="&#xb6;" horiz-adv-x="648" 
d="M323 0h-140l73 344h-30q-65 0 -104.5 38.5t-39.5 99.5q0 86 66.5 152t153.5 66h360l-149 -700h-140l122 570h-50z" />
    <glyph glyph-name="periodcentered" unicode="&#xb7;" horiz-adv-x="280" 
d="M54 350q0 44 31 74.5t74 30.5t74 -31t31 -74q0 -42 -31 -73.5t-74 -31.5t-74 31.5t-31 73.5z" />
    <glyph glyph-name="cedilla" unicode="&#xb8;" horiz-adv-x="336" 
d="M-45 -194l45 120q10 -3 21 -3q23 0 36 11t13 30q0 16 -15 36h39q55 -5 85.5 -34.5t30.5 -68.5q0 -42 -48 -74.5t-121 -32.5q-47 0 -86 16z" />
    <glyph glyph-name="ordmasculine" unicode="&#xba;" horiz-adv-x="438" 
d="M71 487q0 90 68 155t163 65q78 0 127 -43.5t49 -116.5q0 -90 -68 -155t-163 -65q-78 0 -127 43.5t-49 116.5zM209 500q0 -24 14 -39.5t36 -15.5q34 0 57.5 27t23.5 62q0 24 -14 39.5t-36 15.5q-34 0 -57.5 -27t-23.5 -62z" />
    <glyph glyph-name="guillemotright" unicode="&#xbb;" horiz-adv-x="585" 
d="M78 480l219 -145l-32 -150l-281 -145l36 169l130 58l-105 58zM320 325l33 155l219 -145l-32 -150l-281 -145l36 169l130 58z" />
    <glyph glyph-name="onequarter" unicode="&#xbc;" horiz-adv-x="931" 
d="M302 396h88l-25 -116h-330l25 116h108l34 158l-114 -25l25 118l255 59zM145 0l552 700h169l-552 -700h-169zM910 420l-53 -249h45l-24 -114h-45l-12 -57h-132l12 57h-212l24 114l160 249h237zM767 369l-127 -198h85z" />
    <glyph glyph-name="onehalf" unicode="&#xbd;" horiz-adv-x="956" 
d="M302 396h88l-25 -116h-330l25 116h108l34 158l-114 -25l25 118l255 59zM145 0l552 700h169l-552 -700h-169zM825 153l-74 -37h145l-25 -116h-349l23 108l218 139q30 19 30 40q0 23 -31 23q-20 0 -34.5 -10.5t-15.5 -31.5h-138q13 76 69 117t124 41q81 0 124.5 -33.5
t43.5 -90.5q0 -45 -30 -84.5t-80 -64.5z" />
    <glyph glyph-name="threequarters" unicode="&#xbe;" horiz-adv-x="918" 
d="M403 429q0 -65 -52.5 -110t-132.5 -45q-170 0 -164 143l138 15q-6 -41 31 -41q19 0 30 9.5t11 24.5q0 22 -49 22h-54l21 99l66 38h-135l25 116h306l-25 -116l-80 -50q64 -32 64 -105zM132 0l552 700h169l-552 -700h-169zM897 420l-53 -249h45l-24 -114h-45l-12 -57h-132
l12 57h-212l24 114l160 249h237zM754 369l-127 -198h85z" />
    <glyph glyph-name="questiondown" unicode="&#xbf;" horiz-adv-x="550" 
d="M411 415q0 -40 -27.5 -67.5t-67.5 -27.5q-39 0 -67 27.5t-28 67.5q0 38 28 66.5t67 28.5t67 -28t28 -67zM207 280h160q-10 -57 -38 -98.5t-60 -63t-63 -38.5t-51.5 -37.5t-20.5 -47.5q0 -50 74 -50q45 0 73.5 23.5t30.5 69.5h176q-18 -117 -100.5 -182.5t-202.5 -65.5
q-112 0 -171.5 49.5t-59.5 132.5q0 49 17.5 87t44 59t58.5 41t60 34t48.5 36.5t24.5 50.5z" />
    <glyph glyph-name="Agrave" unicode="&#xc0;" horiz-adv-x="740" 
d="M483 900l119 -155h-174l-129 155h184zM685 0h-171l-14 138h-305l-69 -138h-181l358 700h302zM449 650l-180 -362h216z" />
    <glyph glyph-name="Aacute" unicode="&#xc1;" horiz-adv-x="740" 
d="M511 900h204l-195 -155h-174zM605 700l80 -700h-171l-14 138h-305l-69 -138h-181l358 700h302zM449 650l-180 -362h216z" />
    <glyph glyph-name="Acircumflex" unicode="&#xc2;" horiz-adv-x="740" 
d="M538 745l-43 56l-67 -56h-180l178 155h168l112 -155h-168zM605 700l80 -700h-171l-14 138h-305l-69 -138h-181l358 700h302zM449 650l-180 -362h216z" />
    <glyph glyph-name="Atilde" unicode="&#xc3;" horiz-adv-x="740" 
d="M413 787q-15 0 -29 -10t-20 -29l-99 48q21 55 63 84.5t96 29.5q41 0 84.5 -23.5t60.5 -23.5q35 0 49 39l99 -48q-21 -55 -63 -84.5t-96 -29.5q-41 0 -84.5 23.5t-60.5 23.5zM605 700l80 -700h-171l-14 138h-305l-69 -138h-181l358 700h302zM449 650l-180 -362h216z" />
    <glyph glyph-name="Adieresis" unicode="&#xc4;" horiz-adv-x="740" 
d="M371 735q-37 0 -63.5 27t-26.5 63q0 37 26.5 63.5t63.5 26.5t63.5 -26.5t26.5 -63.5q0 -36 -26.5 -63t-63.5 -27zM611 735q-37 0 -63.5 27t-26.5 63q0 37 26.5 63.5t63.5 26.5t63.5 -26.5t26.5 -63.5q0 -36 -26.5 -63t-63.5 -27zM605 700l80 -700h-171l-14 138h-305
l-69 -138h-181l358 700h302zM449 650l-180 -362h216z" />
    <glyph glyph-name="Aring" unicode="&#xc5;" horiz-adv-x="740" 
d="M475 710q-55 0 -90 30.5t-35 79.5q0 57 47.5 98.5t112.5 41.5q55 0 90 -30.5t35 -79.5q0 -57 -47.5 -98.5t-112.5 -41.5zM501 875q-20 0 -35 -15t-15 -34q0 -14 9 -22.5t24 -8.5q20 0 35 15t15 34q0 14 -9 22.5t-24 8.5zM685 0h-171l-14 138h-305l-69 -138h-181l358 700
h302zM449 650l-180 -362h216z" />
    <glyph glyph-name="AE" unicode="&#xc6;" horiz-adv-x="1000" 
d="M1054 700l-32 -150h-310l-27 -125h300l-32 -150h-300l-26 -125h310l-32 -150h-480l29 138h-224l-104 -138h-201l540 700h589zM542 551l-199 -263h143z" />
    <glyph glyph-name="Ccedilla" unicode="&#xc7;" horiz-adv-x="760" 
d="M376 146q60 0 112 29t84 78l154 -64q-52 -82 -143 -138.5t-203 -60.5q34 -12 52.5 -37.5t18.5 -55.5q0 -42 -48 -74.5t-121 -32.5q-47 0 -86 16l45 120q10 -3 21 -3q23 0 36 11t13 30q0 14 -11 31q-115 19 -185 97.5t-70 195.5q0 113 58 210t157 154.5t213 57.5
q119 0 199 -57t108 -147l-168 -59q-14 48 -53 77.5t-96 29.5q-101 0 -172 -75.5t-71 -175.5q0 -69 43 -113t113 -44z" />
    <glyph glyph-name="Egrave" unicode="&#xc8;" horiz-adv-x="570" 
d="M517 745h-174l-129 155h184zM475 0h-480l149 700h480l-32 -150h-310l-27 -125h300l-32 -150h-300l-26 -125h310z" />
    <glyph glyph-name="Eacute" unicode="&#xc9;" horiz-adv-x="570" 
d="M435 745h-174l165 155h204zM475 0h-480l149 700h480l-32 -150h-310l-27 -125h300l-32 -150h-300l-26 -125h310z" />
    <glyph glyph-name="Ecircumflex" unicode="&#xca;" horiz-adv-x="570" 
d="M453 745l-43 56l-67 -56h-180l178 155h168l112 -155h-168zM624 700l-32 -150h-310l-27 -125h300l-32 -150h-300l-26 -125h310l-32 -150h-480l149 700h480z" />
    <glyph glyph-name="Edieresis" unicode="&#xcb;" horiz-adv-x="570" 
d="M196 825q0 37 26.5 63.5t63.5 26.5t63.5 -26.5t26.5 -63.5q0 -36 -26.5 -63t-63.5 -27t-63.5 27t-26.5 63zM436 825q0 37 26.5 63.5t63.5 26.5t63.5 -26.5t26.5 -63.5q0 -36 -26.5 -63t-63.5 -27t-63.5 27t-26.5 63zM475 0h-480l149 700h480l-32 -150h-310l-27 -125h300
l-32 -150h-300l-26 -125h310z" />
    <glyph glyph-name="Igrave" unicode="&#xcc;" horiz-adv-x="270" 
d="M367 745h-174l-129 155h184zM165 0h-170l149 700h170z" />
    <glyph glyph-name="Iacute" unicode="&#xcd;" horiz-adv-x="270" 
d="M285 745h-174l165 155h204zM165 0h-170l149 700h170z" />
    <glyph glyph-name="Icircumflex" unicode="&#xce;" horiz-adv-x="270" 
d="M303 745l-43 56l-67 -56h-180l178 155h168l112 -155h-168zM165 0h-170l149 700h170z" />
    <glyph glyph-name="Idieresis" unicode="&#xcf;" horiz-adv-x="270" 
d="M60 825q0 37 26.5 63.5t63.5 26.5t63.5 -26.5t26.5 -63.5q0 -36 -26.5 -63t-63.5 -27t-63.5 27t-26.5 63zM270 825q0 37 26.5 63.5t63.5 26.5t63.5 -26.5t26.5 -63.5q0 -36 -26.5 -63t-63.5 -27t-63.5 27t-26.5 63zM165 0h-170l149 700h170z" />
    <glyph glyph-name="Eth" unicode="&#xd0;" horiz-adv-x="780" 
d="M194 700h281q132 0 216 -81t84 -202q0 -170 -126.5 -293.5t-302.5 -123.5h-301l62 290h-101l26 120h100zM247 150h106q101 0 173.5 73.5t72.5 176.5q0 68 -43 109t-118 41h-106l-30 -140h60l-26 -120h-59z" />
    <glyph glyph-name="Ntilde" unicode="&#xd1;" horiz-adv-x="740" 
d="M413 787q-15 0 -29 -10t-20 -29l-99 48q21 55 63 84.5t96 29.5q41 0 84.5 -23.5t60.5 -23.5q35 0 49 39l99 -48q-21 -55 -63 -84.5t-96 -29.5q-41 0 -84.5 23.5t-60.5 23.5zM475 48l139 652h170l-149 -700h-319l-12 652l-139 -652h-170l149 700h319z" />
    <glyph glyph-name="Ograve" unicode="&#xd2;" 
d="M632 745h-174l-129 155h184zM45 288q0 113 58 210t157 154.5t213 57.5q141 0 230.5 -81.5t89.5 -216.5q0 -172 -126.5 -297t-300.5 -125q-141 0 -231 81.5t-90 216.5zM220 303q0 -69 43 -113t113 -44q100 0 171 75.5t71 175.5q0 69 -43 113t-113 44q-100 0 -171 -75.5
t-71 -175.5z" />
    <glyph glyph-name="Oacute" unicode="&#xd3;" 
d="M550 745h-174l165 155h204zM45 288q0 113 58 210t157 154.5t213 57.5q141 0 230.5 -81.5t89.5 -216.5q0 -172 -126.5 -297t-300.5 -125q-141 0 -231 81.5t-90 216.5zM220 303q0 -69 43 -113t113 -44q100 0 171 75.5t71 175.5q0 69 -43 113t-113 44q-100 0 -171 -75.5
t-71 -175.5z" />
    <glyph glyph-name="Ocircumflex" unicode="&#xd4;" 
d="M568 745l-43 56l-67 -56h-180l178 155h168l112 -155h-168zM473 710q141 0 230.5 -81.5t89.5 -216.5q0 -172 -126.5 -297t-300.5 -125q-141 0 -231 81.5t-90 216.5q0 113 58 210t157 154.5t213 57.5zM376 146q100 0 171 75.5t71 175.5q0 69 -43 113t-113 44
q-100 0 -171 -75.5t-71 -175.5q0 -69 43 -113t113 -44z" />
    <glyph glyph-name="Otilde" unicode="&#xd5;" 
d="M394 748l-99 48q21 55 63 84.5t96 29.5q41 0 84.5 -23.5t60.5 -23.5q35 0 49 39l99 -48q-21 -55 -63 -84.5t-96 -29.5q-41 0 -84.5 23.5t-60.5 23.5q-35 0 -49 -39zM45 288q0 113 58 210t157 154.5t213 57.5q141 0 230.5 -81.5t89.5 -216.5q0 -172 -126.5 -297
t-300.5 -125q-141 0 -231 81.5t-90 216.5zM220 303q0 -69 43 -113t113 -44q100 0 171 75.5t71 175.5q0 69 -43 113t-113 44q-100 0 -171 -75.5t-71 -175.5z" />
    <glyph glyph-name="Odieresis" unicode="&#xd6;" 
d="M311 825q0 37 26.5 63.5t63.5 26.5t63.5 -26.5t26.5 -63.5q0 -36 -26.5 -63t-63.5 -27t-63.5 27t-26.5 63zM551 825q0 37 26.5 63.5t63.5 26.5t63.5 -26.5t26.5 -63.5q0 -36 -26.5 -63t-63.5 -27t-63.5 27t-26.5 63zM45 288q0 113 58 210t157 154.5t213 57.5
q141 0 230.5 -81.5t89.5 -216.5q0 -172 -126.5 -297t-300.5 -125q-141 0 -231 81.5t-90 216.5zM220 303q0 -69 43 -113t113 -44q100 0 171 75.5t71 175.5q0 69 -43 113t-113 44q-100 0 -171 -75.5t-71 -175.5z" />
    <glyph glyph-name="multiply" unicode="&#xd7;" horiz-adv-x="540" 
d="M442 573l95 -116l-140 -115l92 -115l-125 -100l-90 113l-138 -113l-95 116l140 115l-92 115l125 100l90 -113z" />
    <glyph glyph-name="Oslash" unicode="&#xd8;" 
d="M703 762l105 -101l-68 -73q53 -75 53 -176q0 -172 -126.5 -297t-300.5 -125q-84 0 -154 31l-77 -83l-105 101l68 73q-53 75 -53 176q0 113 58 210t157 154.5t213 57.5q83 0 153 -31zM220 303q0 -24 7 -52l278 298q-23 5 -43 5q-100 0 -171 -75.5t-71 -175.5zM618 397
q0 24 -7 52l-278 -298q23 -5 43 -5q100 0 171 75.5t71 175.5z" />
    <glyph glyph-name="Ugrave" unicode="&#xd9;" horiz-adv-x="700" 
d="M582 745h-174l-129 155h184zM49 302l85 398h170l-89 -418q-13 -59 17.5 -97.5t93.5 -38.5q64 0 110 38t59 98l89 418h170l-93 -438q-27 -126 -124.5 -199t-233.5 -73q-137 0 -209.5 88.5t-44.5 223.5z" />
    <glyph glyph-name="Uacute" unicode="&#xda;" horiz-adv-x="700" 
d="M500 745h-174l165 155h204zM49 302l85 398h170l-89 -418q-13 -59 17.5 -97.5t93.5 -38.5q64 0 110 38t59 98l89 418h170l-93 -438q-27 -126 -124.5 -199t-233.5 -73q-137 0 -209.5 88.5t-44.5 223.5z" />
    <glyph glyph-name="Ucircumflex" unicode="&#xdb;" horiz-adv-x="700" 
d="M518 745l-43 56l-67 -56h-180l178 155h168l112 -155h-168zM495 282l89 418h170l-93 -438q-27 -126 -124.5 -199t-233.5 -73q-137 0 -209.5 88.5t-44.5 223.5l85 398h170l-89 -418q-13 -59 17.5 -97.5t93.5 -38.5q64 0 110 38t59 98z" />
    <glyph glyph-name="Udieresis" unicode="&#xdc;" horiz-adv-x="700" 
d="M261 825q0 37 26.5 63.5t63.5 26.5t63.5 -26.5t26.5 -63.5q0 -36 -26.5 -63t-63.5 -27t-63.5 27t-26.5 63zM501 825q0 37 26.5 63.5t63.5 26.5t63.5 -26.5t26.5 -63.5q0 -36 -26.5 -63t-63.5 -27t-63.5 27t-26.5 63zM49 302l85 398h170l-89 -418q-13 -59 17.5 -97.5
t93.5 -38.5q64 0 110 38t59 98l89 418h170l-93 -438q-27 -126 -124.5 -199t-233.5 -73q-137 0 -209.5 88.5t-44.5 223.5z" />
    <glyph glyph-name="Yacute" unicode="&#xdd;" horiz-adv-x="682" 
d="M482 900h204l-195 -155h-174zM786 700l-363 -458l-20 -92h105l-32 -150h-380l32 150h105l20 92l-169 458h190l95 -288l217 288h200z" />
    <glyph glyph-name="Thorn" unicode="&#xde;" horiz-adv-x="640" 
d="M165 0h-170l149 700h170l-23 -105h120q105 0 172.5 -59.5t67.5 -145.5q0 -124 -87.5 -202t-225.5 -78h-149zM260 445l-39 -185h137q48 0 82.5 34t34.5 81q0 32 -21 51t-57 19h-137z" />
    <glyph glyph-name="germandbls" unicode="&#xdf;" horiz-adv-x="629" 
d="M456 381q63 -19 99 -60.5t36 -99.5q0 -92 -76 -161.5t-191 -69.5q-67 0 -120 21l49 137q41 -12 70 -12q44 0 76 30.5t32 70.5q0 34 -22 53.5t-65 19.5h-41l30 140h24q47 0 78 26t31 66q0 27 -21 44.5t-55 17.5q-44 0 -82 -30.5t-50 -86.5l-103 -487h-160l103 485
q26 123 109.5 194t208.5 71q95 0 153.5 -48t58.5 -115q0 -74 -46 -128.5t-126 -77.5z" />
    <glyph glyph-name="agrave" unicode="&#xe0;" horiz-adv-x="546" 
d="M351 740l79 -160h-157l-89 160h167zM317 530q105 0 161.5 -55t32.5 -169l-65 -306h-160l24 116q-61 -126 -177 -126q-57 0 -97 38.5t-40 99.5q0 79 59 127t164 58l93 9q44 4 49 32q4 20 -13 33t-46 13q-37 0 -61.5 -17t-30.5 -48l-152 34q18 67 88 114t171 47zM201 115
q42 0 82 30t48 67l1 5q-17 -8 -39 -10l-79 -9q-57 -7 -57 -48q0 -35 44 -35z" />
    <glyph glyph-name="aacute" unicode="&#xe1;" horiz-adv-x="546" 
d="M357 740h187l-157 -160h-157zM317 530q105 0 161.5 -55t32.5 -169l-65 -306h-160l24 116q-61 -126 -177 -126q-57 0 -97 38.5t-40 99.5q0 79 59 127t164 58l93 9q44 4 49 32q4 20 -13 33t-46 13q-37 0 -61.5 -17t-30.5 -48l-152 34q18 67 88 114t171 47zM201 115
q42 0 82 30t48 67l1 5q-17 -8 -39 -10l-79 -9q-57 -7 -57 -48q0 -35 44 -35z" />
    <glyph glyph-name="acircumflex" unicode="&#xe2;" horiz-adv-x="546" 
d="M395 580l-41 66l-69 -66h-153l147 160h178l79 -160h-141zM317 530q105 0 161.5 -55t32.5 -169l-65 -306h-160l24 116q-61 -126 -177 -126q-57 0 -97 38.5t-40 99.5q0 79 59 127t164 58l93 9q44 4 49 32q4 20 -13 33t-46 13q-37 0 -61.5 -17t-30.5 -48l-152 34
q18 67 88 114t171 47zM201 115q42 0 82 30t48 67l1 5q-17 -8 -39 -10l-79 -9q-57 -7 -57 -48q0 -35 44 -35z" />
    <glyph glyph-name="atilde" unicode="&#xe3;" horiz-adv-x="546" 
d="M464 737l99 -48q-21 -55 -63 -84.5t-96 -29.5q-36 0 -74.5 23.5t-50.5 23.5q-35 0 -49 -39l-99 48q21 55 63 84.5t96 29.5q36 0 74.5 -23.5t50.5 -23.5q35 0 49 39zM317 530q105 0 161.5 -55t32.5 -169l-65 -306h-160l24 116q-61 -126 -177 -126q-57 0 -97 38.5t-40 99.5
q0 79 59 127t164 58l93 9q44 4 49 32q4 20 -13 33t-46 13q-37 0 -61.5 -17t-30.5 -48l-152 34q18 67 88 114t171 47zM201 115q42 0 82 30t48 67l1 5q-17 -8 -39 -10l-79 -9q-57 -7 -57 -48q0 -35 44 -35z" />
    <glyph glyph-name="adieresis" unicode="&#xe4;" horiz-adv-x="546" 
d="M227 570q-37 0 -63.5 27t-26.5 63q0 37 26.5 63.5t63.5 26.5t63.5 -26.5t26.5 -63.5q0 -36 -26.5 -63t-63.5 -27zM467 750q37 0 63.5 -26.5t26.5 -63.5q0 -36 -26.5 -63t-63.5 -27t-63.5 27t-26.5 63q0 37 26.5 63.5t63.5 26.5zM317 530q105 0 161.5 -55t32.5 -169
l-65 -306h-160l24 116q-61 -126 -177 -126q-57 0 -97 38.5t-40 99.5q0 79 59 127t164 58l93 9q44 4 49 32q4 20 -13 33t-46 13q-37 0 -61.5 -17t-30.5 -48l-152 34q18 67 88 114t171 47zM201 115q42 0 82 30t48 67l1 5q-17 -8 -39 -10l-79 -9q-57 -7 -57 -48q0 -35 44 -35z
" />
    <glyph glyph-name="aring" unicode="&#xe5;" horiz-adv-x="546" 
d="M329 540q-53 0 -86.5 29t-33.5 76q0 55 46 95t109 40q53 0 86.5 -29t33.5 -76q0 -55 -46 -95t-109 -40zM355 700q-20 0 -35 -15t-15 -34q0 -14 9 -22.5t24 -8.5q20 0 35 15t15 34q0 14 -9 22.5t-24 8.5zM317 530q105 0 161.5 -55t32.5 -169l-65 -306h-160l24 116
q-61 -126 -177 -126q-57 0 -97 38.5t-40 99.5q0 79 59 127t164 58l93 9q44 4 49 32q4 20 -13 33t-46 13q-37 0 -61.5 -17t-30.5 -48l-152 34q18 67 88 114t171 47zM201 115q42 0 82 30t48 67l1 5q-17 -8 -39 -10l-79 -9q-57 -7 -57 -48q0 -35 44 -35z" />
    <glyph glyph-name="ae" unicode="&#xe6;" horiz-adv-x="942" 
d="M696 530q126 0 186 -97.5t15 -230.5h-379q7 -37 33 -56.5t64 -19.5q76 0 125 58l125 -60q-33 -59 -90 -96.5t-130 -37.5q-66 0 -110.5 41t-57.5 117l-31 -148h-160l24 116q-61 -126 -177 -126q-57 0 -97 38.5t-40 99.5q0 79 59 127t164 58l93 9q45 5 49 32q4 20 -13 33
t-46 13q-37 0 -61.5 -17t-30.5 -48l-152 34q18 67 88 114t171 47q134 0 180 -80q83 80 199 80zM664 394q-35 0 -68.5 -19t-54.5 -53h214q-6 31 -31 51.5t-60 20.5zM201 115q42 0 82 30t48 67l1 5q-17 -8 -39 -10l-79 -9q-28 -3 -42 -16.5t-14 -31.5q0 -35 43 -35z" />
    <glyph glyph-name="ccedilla" unicode="&#xe7;" horiz-adv-x="580" 
d="M283 136q80 0 126 71l144 -50q-41 -75 -109.5 -118t-149.5 -48q35 -13 54 -38.5t19 -55.5q0 -42 -48 -74.5t-121 -32.5q-47 0 -86 16l45 120q11 -3 21 -3q23 0 36 11t13 30q0 14 -11 31q-87 15 -138 74t-51 148q0 128 94.5 220.5t226.5 92.5q85 0 148 -44t79 -123
l-146 -50q-8 34 -33 52.5t-59 18.5q-59 0 -101.5 -46.5t-42.5 -107.5q0 -42 24.5 -68t65.5 -26z" />
    <glyph glyph-name="egrave" unicode="&#xe8;" horiz-adv-x="610" 
d="M382 740l79 -160h-157l-89 160h167zM348 530q133 0 197.5 -97.5t19.5 -230.5h-379q7 -37 33 -56.5t64 -19.5q76 0 125 58l125 -60q-40 -58 -109.5 -96t-149.5 -38q-110 0 -178.5 61.5t-68.5 165.5q0 128 94.5 220.5t226.5 92.5zM332 394q-35 0 -68.5 -19t-54.5 -53h214
q-6 31 -31 51.5t-60 20.5z" />
    <glyph glyph-name="eacute" unicode="&#xe9;" horiz-adv-x="610" 
d="M388 740h187l-157 -160h-157zM348 530q133 0 197.5 -97.5t19.5 -230.5h-379q7 -37 33 -56.5t64 -19.5q76 0 125 58l125 -60q-40 -58 -109.5 -96t-149.5 -38q-110 0 -178.5 61.5t-68.5 165.5q0 128 94.5 220.5t226.5 92.5zM332 394q-35 0 -68.5 -19t-54.5 -53h214
q-6 31 -31 51.5t-60 20.5z" />
    <glyph glyph-name="ecircumflex" unicode="&#xea;" horiz-adv-x="610" 
d="M426 580l-41 66l-69 -66h-153l147 160h178l79 -160h-141zM348 530q133 0 197.5 -97.5t19.5 -230.5h-379q7 -37 33 -56.5t64 -19.5q76 0 125 58l125 -60q-40 -58 -109.5 -96t-149.5 -38q-110 0 -178.5 61.5t-68.5 165.5q0 128 94.5 220.5t226.5 92.5zM332 394
q-35 0 -68.5 -19t-54.5 -53h214q-6 31 -31 51.5t-60 20.5z" />
    <glyph glyph-name="edieresis" unicode="&#xeb;" horiz-adv-x="610" 
d="M258 570q-37 0 -63.5 27t-26.5 63q0 37 26.5 63.5t63.5 26.5t63.5 -26.5t26.5 -63.5q0 -36 -26.5 -63t-63.5 -27zM498 570q-37 0 -63.5 27t-26.5 63q0 37 26.5 63.5t63.5 26.5t63.5 -26.5t26.5 -63.5q0 -36 -26.5 -63t-63.5 -27zM348 530q133 0 197.5 -97.5t19.5 -230.5
h-379q7 -37 33 -56.5t64 -19.5q76 0 125 58l125 -60q-40 -58 -109.5 -96t-149.5 -38q-110 0 -178.5 61.5t-68.5 165.5q0 128 94.5 220.5t226.5 92.5zM332 394q-35 0 -68.5 -19t-54.5 -53h214q-6 31 -31 51.5t-60 20.5z" />
    <glyph glyph-name="igrave" unicode="&#xec;" horiz-adv-x="260" 
d="M298 580h-157l-89 160h167zM155 0h-160l111 520h160z" />
    <glyph glyph-name="iacute" unicode="&#xed;" horiz-adv-x="260" 
d="M255 580h-157l127 160h187zM155 0h-160l111 520h160z" />
    <glyph glyph-name="icircumflex" unicode="&#xee;" horiz-adv-x="260" 
d="M263 580l-41 66l-69 -66h-153l147 160h178l79 -160h-141zM155 0h-160l111 520h160z" />
    <glyph glyph-name="idieresis" unicode="&#xef;" horiz-adv-x="260" 
d="M30 660q0 37 26.5 63.5t63.5 26.5t63.5 -26.5t26.5 -63.5q0 -36 -26.5 -63t-63.5 -27t-63.5 27t-26.5 63zM220 660q0 37 26.5 63.5t63.5 26.5t63.5 -26.5t26.5 -63.5q0 -36 -26.5 -63t-63.5 -27t-63.5 27t-26.5 63zM155 0h-160l111 520h160z" />
    <glyph glyph-name="eth" unicode="&#xf0;" horiz-adv-x="620" 
d="M580 608l-85 -28q102 -126 102 -277q0 -128 -95.5 -220.5t-229.5 -92.5q-114 0 -180 65t-66 158q0 105 74 175.5t178 70.5q56 0 96.5 -29.5t61.5 -73.5q-22 90 -107 170l-170 -55l-27 113l87 28l-58 38l143 100q64 -44 102 -78l147 48zM287 136q54 0 94.5 38t40.5 89
q0 40 -26.5 65.5t-69.5 25.5q-54 0 -93.5 -38t-39.5 -89q0 -40 25.5 -65.5t68.5 -25.5z" />
    <glyph glyph-name="ntilde" unicode="&#xf1;" horiz-adv-x="615" 
d="M325 622q-35 0 -49 -39l-99 48q21 55 63 84.5t96 29.5q36 0 74.5 -23.5t50.5 -23.5q35 0 49 39l99 -48q-21 -55 -63 -84.5t-96 -29.5q-36 0 -74.5 23.5t-50.5 23.5zM433 530q89 0 127.5 -67.5t18.5 -163.5l-64 -299h-160l61 289q9 43 -10.5 69.5t-63.5 26.5
q-47 0 -82 -26.5t-44 -69.5l-61 -289h-160l111 520h160l-26 -121q33 63 84 97t109 34z" />
    <glyph glyph-name="ograve" unicode="&#xf2;" horiz-adv-x="620" 
d="M461 580h-157l-89 160h167zM27 217q0 128 94.5 220.5t226.5 92.5q109 0 177 -61.5t68 -165.5q0 -128 -94 -220.5t-225 -92.5q-110 0 -178.5 61.5t-68.5 165.5zM193 230q0 -42 24.5 -68t65.5 -26q59 0 101.5 46.5t42.5 107.5q0 42 -24.5 68t-65.5 26q-59 0 -101.5 -46.5
t-42.5 -107.5z" />
    <glyph glyph-name="oacute" unicode="&#xf3;" horiz-adv-x="620" 
d="M418 580h-157l127 160h187zM27 217q0 128 94.5 220.5t226.5 92.5q109 0 177 -61.5t68 -165.5q0 -128 -94 -220.5t-225 -92.5q-110 0 -178.5 61.5t-68.5 165.5zM193 230q0 -42 24.5 -68t65.5 -26q59 0 101.5 46.5t42.5 107.5q0 42 -24.5 68t-65.5 26q-59 0 -101.5 -46.5
t-42.5 -107.5z" />
    <glyph glyph-name="ocircumflex" unicode="&#xf4;" horiz-adv-x="620" 
d="M426 580l-41 66l-69 -66h-153l147 160h178l79 -160h-141zM348 530q109 0 177 -61.5t68 -165.5q0 -128 -94 -220.5t-225 -92.5q-110 0 -178.5 61.5t-68.5 165.5q0 128 94.5 220.5t226.5 92.5zM283 136q59 0 101.5 46.5t42.5 107.5q0 42 -24.5 68t-65.5 26
q-59 0 -101.5 -46.5t-42.5 -107.5q0 -42 24.5 -68t65.5 -26z" />
    <glyph glyph-name="otilde" unicode="&#xf5;" horiz-adv-x="620" 
d="M261 583l-99 48q21 55 63 84.5t96 29.5q36 0 74.5 -23.5t50.5 -23.5q36 0 49 39l99 -48q-21 -55 -63 -84.5t-96 -29.5q-36 0 -74.5 23.5t-50.5 23.5q-15 0 -29 -10t-20 -29zM27 217q0 128 94.5 220.5t226.5 92.5q109 0 177 -61.5t68 -165.5q0 -128 -94 -220.5t-225 -92.5
q-110 0 -178.5 61.5t-68.5 165.5zM193 230q0 -42 24.5 -68t65.5 -26q59 0 101.5 46.5t42.5 107.5q0 42 -24.5 68t-65.5 26q-59 0 -101.5 -46.5t-42.5 -107.5z" />
    <glyph glyph-name="odieresis" unicode="&#xf6;" horiz-adv-x="620" 
d="M168 660q0 37 26.5 63.5t63.5 26.5t63.5 -26.5t26.5 -63.5q0 -36 -26.5 -63t-63.5 -27t-63.5 27t-26.5 63zM408 660q0 37 26.5 63.5t63.5 26.5t63.5 -26.5t26.5 -63.5q0 -36 -26.5 -63t-63.5 -27t-63.5 27t-26.5 63zM27 217q0 128 94.5 220.5t226.5 92.5q109 0 177 -61.5
t68 -165.5q0 -128 -94 -220.5t-225 -92.5q-110 0 -178.5 61.5t-68.5 165.5zM193 230q0 -42 24.5 -68t65.5 -26q59 0 101.5 46.5t42.5 107.5q0 42 -24.5 68t-65.5 26q-59 0 -101.5 -46.5t-42.5 -107.5z" />
    <glyph glyph-name="divide" unicode="&#xf7;" horiz-adv-x="540" 
d="M240 565q0 40 27.5 67.5t67.5 27.5q39 0 67 -27.5t28 -67.5q0 -38 -28 -66.5t-67 -28.5t-67 28t-28 67zM493 275h-440l32 150h440zM148 135q0 40 27.5 67.5t67.5 27.5q39 0 67 -27.5t28 -67.5q0 -38 -28 -66.5t-67 -28.5t-67 28t-28 67z" />
    <glyph glyph-name="oslash" unicode="&#xf8;" horiz-adv-x="620" 
d="M530 595l108 -80l-80 -86q35 -53 35 -126q0 -128 -94 -220.5t-225 -92.5q-59 0 -107 18l-77 -83l-108 80l80 86q-35 53 -35 126q0 128 94.5 220.5t226.5 92.5q58 0 105 -18zM183 230v-8l160 172h-6q-62 0 -108 -49t-46 -115zM437 290v8l-160 -172h6q62 0 108 49t46 115z
" />
    <glyph glyph-name="ugrave" unicode="&#xf9;" horiz-adv-x="590" 
d="M463 580h-157l-89 160h167zM42 242l58 278h160l-63 -298q-8 -39 11.5 -62.5t60.5 -23.5q39 0 69.5 24t38.5 62l63 298h160l-67 -318q-21 -102 -97.5 -157t-187.5 -55t-170 71t-36 181z" />
    <glyph glyph-name="uacute" unicode="&#xfa;" horiz-adv-x="590" 
d="M420 580h-157l127 160h187zM42 242l58 278h160l-63 -298q-8 -39 11.5 -62.5t60.5 -23.5q39 0 69.5 24t38.5 62l63 298h160l-67 -318q-21 -102 -97.5 -157t-187.5 -55t-170 71t-36 181z" />
    <glyph glyph-name="ucircumflex" unicode="&#xfb;" horiz-adv-x="590" 
d="M428 580l-41 66l-69 -66h-153l147 160h178l79 -160h-141zM377 222l63 298h160l-67 -318q-21 -102 -97.5 -157t-187.5 -55t-170 71t-36 181l58 278h160l-63 -298q-8 -39 11.5 -62.5t60.5 -23.5q39 0 69.5 24t38.5 62z" />
    <glyph glyph-name="udieresis" unicode="&#xfc;" horiz-adv-x="590" 
d="M170 660q0 37 26.5 63.5t63.5 26.5t63.5 -26.5t26.5 -63.5q0 -36 -26.5 -63t-63.5 -27t-63.5 27t-26.5 63zM410 660q0 37 26.5 63.5t63.5 26.5t63.5 -26.5t26.5 -63.5q0 -36 -26.5 -63t-63.5 -27t-63.5 27t-26.5 63zM42 242l58 278h160l-63 -298q-8 -39 11.5 -62.5
t60.5 -23.5q39 0 69.5 24t38.5 62l63 298h160l-67 -318q-21 -102 -97.5 -157t-187.5 -55t-170 71t-36 181z" />
    <glyph glyph-name="yacute" unicode="&#xfd;" horiz-adv-x="560" 
d="M375 740h187l-157 -160h-157zM230 44l223 476h172l-341 -720h-172l97 200h-120l-44 520h162z" />
    <glyph glyph-name="thorn" unicode="&#xfe;" horiz-adv-x="634" 
d="M439 530q78 0 124.5 -58t46.5 -157q0 -131 -80 -228t-188 -97q-57 0 -101.5 44t-53.5 118l-75 -352h-160l200 940h160l-75 -353q37 65 90.5 104t111.5 39zM305 136q56 0 97.5 46.5t41.5 107.5q0 41 -24 67.5t-61 26.5q-62 0 -105.5 -46.5t-43.5 -107.5q0 -42 25.5 -68
t69.5 -26z" />
    <glyph glyph-name="ydieresis" unicode="&#xff;" horiz-adv-x="560" 
d="M245 570q-37 0 -63.5 27t-26.5 63q0 37 26.5 63.5t63.5 26.5t63.5 -26.5t26.5 -63.5q0 -36 -26.5 -63t-63.5 -27zM485 570q-37 0 -63.5 27t-26.5 63q0 37 26.5 63.5t63.5 26.5t63.5 -26.5t26.5 -63.5q0 -36 -26.5 -63t-63.5 -27zM230 44l223 476h172l-341 -720h-172
l97 200h-120l-44 520h162z" />
    <glyph glyph-name="Amacron" unicode="&#x100;" horiz-adv-x="740" 
d="M339 885h330l-26 -120h-330zM685 0h-171l-14 138h-305l-69 -138h-181l358 700h302zM449 650l-180 -362h216z" />
    <glyph glyph-name="amacron" unicode="&#x101;" horiz-adv-x="546" 
d="M200 720h320l-26 -120h-320zM317 530q105 0 161.5 -55t32.5 -169l-65 -306h-160l24 116q-61 -126 -177 -126q-57 0 -97 38.5t-40 99.5q0 79 59 127t164 58l93 9q44 4 49 32q4 20 -13 33t-46 13q-37 0 -61.5 -17t-30.5 -48l-152 34q18 67 88 114t171 47zM201 115
q42 0 82 30t48 67l1 5q-17 -8 -39 -10l-79 -9q-57 -7 -57 -48q0 -35 44 -35z" />
    <glyph glyph-name="Abreve" unicode="&#x102;" horiz-adv-x="740" 
d="M485 735q-78 0 -126.5 43.5t-46.5 121.5h134q-1 -23 13.5 -36t40.5 -13q62 0 73 49h134q-13 -77 -76 -121t-146 -44zM605 700l80 -700h-171l-14 138h-305l-69 -138h-181l358 700h302zM449 650l-180 -362h216z" />
    <glyph glyph-name="abreve" unicode="&#x103;" horiz-adv-x="546" 
d="M351 570q-82 0 -124 45t-32 125h119q-5 -24 6.5 -39t35.5 -15q25 0 42 15t22 39h119q-9 -78 -63 -124t-125 -46zM317 530q105 0 161.5 -55t32.5 -169l-65 -306h-160l24 116q-61 -126 -177 -126q-57 0 -97 38.5t-40 99.5q0 79 59 127t164 58l93 9q44 4 49 32q4 20 -13 33
t-46 13q-37 0 -61.5 -17t-30.5 -48l-152 34q18 67 88 114t171 47zM201 115q42 0 82 30t48 67l1 5q-17 -8 -39 -10l-79 -9q-57 -7 -57 -48q0 -35 44 -35z" />
    <glyph glyph-name="Aogonek" unicode="&#x104;" horiz-adv-x="740" 
d="M617 -53q0 -24 31 -24q10 0 26 3l-11 -121q-42 -15 -91 -15q-57 0 -89 22.5t-32 61.5t37.5 76t105.5 50h-80l-14 138h-305l-69 -138h-181l358 700h302l80 -700h-40q-28 -26 -28 -53zM449 650l-180 -362h216z" />
    <glyph glyph-name="aogonek" unicode="&#x105;" horiz-adv-x="546" 
d="M511 306l-65 -306q-28 -26 -28 -53q0 -24 31 -24q9 0 26 3l-11 -121q-42 -15 -91 -15q-57 0 -89 22.5t-32 61.5t37.5 76t105.5 50h-109l24 116q-61 -126 -177 -126q-57 0 -97 38.5t-40 99.5q0 79 59 127t164 58l93 9q44 4 49 32q4 20 -13 33t-46 13q-37 0 -61.5 -17
t-30.5 -48l-152 34q18 67 88 114t171 47q105 0 161.5 -55t32.5 -169zM201 115q42 0 82 30t48 67l1 5q-17 -8 -39 -10l-79 -9q-57 -7 -57 -48q0 -35 44 -35z" />
    <glyph glyph-name="Cacute" unicode="&#x106;" horiz-adv-x="760" 
d="M527 745h-174l165 155h204zM45 288q0 113 58 210t157 154.5t213 57.5q119 0 199 -57t108 -147l-168 -59q-14 48 -53 77.5t-96 29.5q-101 0 -172 -75.5t-71 -175.5q0 -69 43 -113t113 -44q60 0 112 29t84 78l154 -64q-53 -85 -148 -142t-212 -57q-141 0 -231 81.5
t-90 216.5z" />
    <glyph glyph-name="cacute" unicode="&#x107;" horiz-adv-x="580" 
d="M418 580h-157l127 160h187zM27 217q0 128 94.5 220.5t226.5 92.5q85 0 148 -44t79 -123l-146 -50q-8 34 -33 52.5t-59 18.5q-59 0 -101.5 -46.5t-42.5 -107.5q0 -42 24.5 -68t65.5 -26q80 0 126 71l144 -50q-43 -79 -117.5 -123t-161.5 -44q-110 0 -178.5 61.5
t-68.5 165.5z" />
    <glyph glyph-name="Ccircumflex" unicode="&#x108;" horiz-adv-x="760" 
d="M545 745l-43 56l-67 -56h-180l178 155h168l112 -155h-168zM376 146q60 0 112 29t84 78l154 -64q-53 -85 -148 -142t-212 -57q-141 0 -231 81.5t-90 216.5q0 113 58 210t157 154.5t213 57.5q119 0 199 -57t108 -147l-168 -59q-14 48 -53 77.5t-96 29.5q-101 0 -172 -75.5
t-71 -175.5q0 -69 43 -113t113 -44z" />
    <glyph glyph-name="ccircumflex" unicode="&#x109;" horiz-adv-x="580" 
d="M426 580l-41 66l-69 -66h-153l147 160h178l79 -160h-141zM283 136q80 0 126 71l144 -50q-43 -79 -117.5 -123t-161.5 -44q-110 0 -178.5 61.5t-68.5 165.5q0 128 94.5 220.5t226.5 92.5q85 0 148 -44t79 -123l-146 -50q-8 34 -33 52.5t-59 18.5q-59 0 -101.5 -46.5
t-42.5 -107.5q0 -42 24.5 -68t65.5 -26z" />
    <glyph glyph-name="Cdotaccent" unicode="&#x10a;" horiz-adv-x="760" 
d="M403 825q0 39 28 67t67 28t67 -28t28 -67q0 -38 -28 -66.5t-67 -28.5t-67 28.5t-28 66.5zM45 288q0 113 58 210t157 154.5t213 57.5q119 0 199 -57t108 -147l-168 -59q-14 48 -53 77.5t-96 29.5q-101 0 -172 -75.5t-71 -175.5q0 -69 43 -113t113 -44q60 0 112 29t84 78
l154 -64q-53 -85 -148 -142t-212 -57q-141 0 -231 81.5t-90 216.5z" />
    <glyph glyph-name="cdotaccent" unicode="&#x10b;" horiz-adv-x="580" 
d="M283 660q0 39 28 67t67 28t67 -28t28 -67q0 -38 -28 -66.5t-67 -28.5t-67 28.5t-28 66.5zM27 217q0 128 94.5 220.5t226.5 92.5q85 0 148 -44t79 -123l-146 -50q-8 34 -33 52.5t-59 18.5q-59 0 -101.5 -46.5t-42.5 -107.5q0 -42 24.5 -68t65.5 -26q80 0 126 71l144 -50
q-43 -79 -117.5 -123t-161.5 -44q-110 0 -178.5 61.5t-68.5 165.5z" />
    <glyph glyph-name="Ccaron" unicode="&#x10c;" horiz-adv-x="760" 
d="M738 900l-178 -155h-168l-112 155h168l43 -56l67 56h180zM376 146q60 0 112 29t84 78l154 -64q-53 -85 -148 -142t-212 -57q-141 0 -231 81.5t-90 216.5q0 113 58 210t157 154.5t213 57.5q119 0 199 -57t108 -147l-168 -59q-14 48 -53 77.5t-96 29.5q-101 0 -172 -75.5
t-71 -175.5q0 -69 43 -113t113 -44z" />
    <glyph glyph-name="ccaron" unicode="&#x10d;" horiz-adv-x="580" 
d="M593 740l-147 -160h-178l-79 160h141l41 -66l69 66h153zM337 384q-59 0 -101.5 -46.5t-42.5 -107.5q0 -42 24.5 -68t65.5 -26q80 0 126 71l144 -50q-43 -79 -117.5 -123t-161.5 -44q-110 0 -178.5 61.5t-68.5 165.5q0 128 94.5 220.5t226.5 92.5q85 0 148 -44t79 -123
l-146 -50q-8 34 -33 52.5t-59 18.5z" />
    <glyph glyph-name="Dcaron" unicode="&#x10e;" horiz-adv-x="730" 
d="M701 900l-178 -155h-168l-112 155h168l43 -56l67 56h180zM144 700h281q132 0 216 -81t84 -202q0 -170 -126.5 -293.5t-302.5 -123.5h-301zM197 150h106q101 0 173.5 73.5t72.5 176.5q0 68 -43 109t-118 41h-106z" />
    <glyph glyph-name="dcaron" unicode="&#x10f;" horiz-adv-x="754" 
d="M691 575l61 195h150l-89 -195h-122zM447 368l79 372h160l-157 -740h-160l28 134q-37 -66 -90.5 -105t-111.5 -39q-78 0 -124.5 58t-46.5 157q0 131 80 228t188 97q57 0 101.5 -44t53.5 -118zM275 136q62 0 105.5 46.5t43.5 107.5q0 42 -25.5 68t-69.5 26
q-56 0 -97.5 -46.5t-41.5 -107.5q0 -41 24 -67.5t61 -26.5z" />
    <glyph glyph-name="Dcroat" unicode="&#x110;" horiz-adv-x="780" 
d="M194 700h281q132 0 216 -81t84 -202q0 -170 -126.5 -293.5t-302.5 -123.5h-301l62 290h-101l26 120h100zM247 150h106q101 0 173.5 73.5t72.5 176.5q0 68 -43 109t-118 41h-106l-30 -140h60l-26 -120h-59z" />
    <glyph glyph-name="dcroat" unicode="&#x111;" horiz-adv-x="634" 
d="M671 670h51l-26 -120h-50l-117 -550h-160l28 134q-37 -66 -90.5 -105t-111.5 -39q-78 0 -124.5 58t-46.5 157q0 131 80 228t188 97q57 0 101.5 -44t53.5 -118l39 182h-110l26 120h109l15 70h160zM275 136q62 0 105.5 46.5t43.5 107.5q0 42 -25.5 68t-69.5 26
q-56 0 -97.5 -46.5t-41.5 -107.5q0 -41 24 -67.5t61 -26.5z" />
    <glyph glyph-name="Emacron" unicode="&#x112;" horiz-adv-x="570" 
d="M558 765h-330l26 120h330zM475 0h-480l149 700h480l-32 -150h-310l-27 -125h300l-32 -150h-300l-26 -125h310z" />
    <glyph glyph-name="emacron" unicode="&#x113;" horiz-adv-x="610" 
d="M231 720h320l-26 -120h-320zM348 530q133 0 197.5 -97.5t19.5 -230.5h-379q7 -37 33 -56.5t64 -19.5q76 0 125 58l125 -60q-40 -58 -109.5 -96t-149.5 -38q-110 0 -178.5 61.5t-68.5 165.5q0 128 94.5 220.5t226.5 92.5zM332 394q-35 0 -68.5 -19t-54.5 -53h214
q-6 31 -31 51.5t-60 20.5z" />
    <glyph glyph-name="Ebreve" unicode="&#x114;" horiz-adv-x="570" 
d="M227 900h134q-1 -23 13.5 -36t40.5 -13q62 0 73 49h134q-13 -77 -76 -121t-146 -44q-78 0 -126.5 43.5t-46.5 121.5zM475 0h-480l149 700h480l-32 -150h-310l-27 -125h300l-32 -150h-300l-26 -125h310z" />
    <glyph glyph-name="ebreve" unicode="&#x115;" horiz-adv-x="610" 
d="M382 570q-82 0 -124 45t-32 125h119q-5 -24 6.5 -39t35.5 -15q25 0 42 15t22 39h119q-9 -78 -63 -124t-125 -46zM348 530q133 0 197.5 -97.5t19.5 -230.5h-379q7 -37 33 -56.5t64 -19.5q76 0 125 58l125 -60q-40 -58 -109.5 -96t-149.5 -38q-110 0 -178.5 61.5
t-68.5 165.5q0 128 94.5 220.5t226.5 92.5zM332 394q-35 0 -68.5 -19t-54.5 -53h214q-6 31 -31 51.5t-60 20.5z" />
    <glyph glyph-name="Edotaccent" unicode="&#x116;" horiz-adv-x="570" 
d="M311 825q0 39 28 67t67 28t67 -28t28 -67q0 -38 -28 -66.5t-67 -28.5t-67 28.5t-28 66.5zM475 0h-480l149 700h480l-32 -150h-310l-27 -125h300l-32 -150h-300l-26 -125h310z" />
    <glyph glyph-name="edotaccent" unicode="&#x117;" horiz-adv-x="610" 
d="M378 565q-39 0 -67 28.5t-28 66.5q0 39 28 67t67 28t67 -28t28 -67q0 -38 -28 -66.5t-67 -28.5zM348 530q133 0 197.5 -97.5t19.5 -230.5h-379q7 -37 33 -56.5t64 -19.5q76 0 125 58l125 -60q-40 -58 -109.5 -96t-149.5 -38q-110 0 -178.5 61.5t-68.5 165.5
q0 128 94.5 220.5t226.5 92.5zM332 394q-35 0 -68.5 -19t-54.5 -53h214q-6 31 -31 51.5t-60 20.5z" />
    <glyph glyph-name="Eogonek" unicode="&#x118;" horiz-adv-x="570" 
d="M624 700l-32 -150h-310l-27 -125h300l-32 -150h-300l-26 -125h310l-32 -150q-28 -26 -28 -53q0 -24 31 -24q10 0 26 3l-11 -121q-42 -15 -91 -15q-57 0 -89 22.5t-32 61.5t37.5 76t105.5 50h-429l149 700h480z" />
    <glyph glyph-name="eogonek" unicode="&#x119;" horiz-adv-x="610" 
d="M348 530q133 0 197.5 -97.5t19.5 -230.5h-379q7 -37 33 -56.5t64 -19.5q76 0 125 58l125 -60q-12 -16 -27 -33l-1 -1q-89 -93 -89 -143q0 -24 31 -24q9 0 26 3l-11 -121q-42 -15 -91 -15q-57 0 -89 22.5t-32 61.5t28 73t76 54q-39 -11 -80 -11q-110 0 -178.5 61.5
t-68.5 165.5q0 128 94.5 220.5t226.5 92.5zM332 394q-35 0 -68.5 -19t-54.5 -53h214q-6 31 -31 51.5t-60 20.5z" />
    <glyph glyph-name="Ecaron" unicode="&#x11a;" horiz-adv-x="570" 
d="M646 900l-178 -155h-168l-112 155h168l43 -56l67 56h180zM475 0h-480l149 700h480l-32 -150h-310l-27 -125h300l-32 -150h-300l-26 -125h310z" />
    <glyph glyph-name="ecaron" unicode="&#x11b;" horiz-adv-x="610" 
d="M593 740l-147 -160h-178l-79 160h141l41 -66l69 66h153zM348 530q133 0 197.5 -97.5t19.5 -230.5h-379q7 -37 33 -56.5t64 -19.5q76 0 125 58l125 -60q-40 -58 -109.5 -96t-149.5 -38q-110 0 -178.5 61.5t-68.5 165.5q0 128 94.5 220.5t226.5 92.5zM332 394
q-35 0 -68.5 -19t-54.5 -53h214q-6 31 -31 51.5t-60 20.5z" />
    <glyph glyph-name="Gcircumflex" unicode="&#x11c;" 
d="M568 745l-43 56l-67 -56h-180l178 155h168l112 -155h-168zM339 250l32 150h422q-4 -90 -42 -168t-98 -130.5t-134.5 -82t-152.5 -29.5q-141 0 -231 81.5t-90 216.5q0 113 58 210t157 154.5t213 57.5q119 0 199 -57t108 -147l-168 -59q-14 48 -53 77.5t-96 29.5
q-101 0 -172 -75.5t-71 -175.5q0 -69 43 -113t113 -44q63 0 115.5 31.5t78.5 72.5h-231z" />
    <glyph glyph-name="gcircumflex" unicode="&#x11d;" horiz-adv-x="634" 
d="M450 580l-41 66l-69 -66h-153l147 160h178l79 -160h-141zM448 376l31 144h160l-102 -480q-24 -115 -106.5 -182.5t-199.5 -67.5q-83 0 -146.5 40.5t-85.5 101.5l145 70q29 -66 95 -66q51 0 90.5 34.5t51.5 89.5l18 84q-37 -61 -90.5 -97.5t-111.5 -36.5q-79 0 -125 55
t-46 160q0 124 80 214.5t188 90.5q56 0 100 -39.5t54 -114.5zM284 156q59 0 100.5 43.5t41.5 100.5q0 38 -25.5 61t-66.5 23q-59 0 -100.5 -43.5t-41.5 -100.5q0 -38 25.5 -61t66.5 -23z" />
    <glyph glyph-name="Gbreve" unicode="&#x11e;" 
d="M515 735q-78 0 -126.5 43.5t-46.5 121.5h134q-1 -23 13.5 -36t40.5 -13q62 0 73 49h134q-13 -77 -76 -121t-146 -44zM339 250l32 150h422q-4 -90 -42 -168t-98 -130.5t-134.5 -82t-152.5 -29.5q-141 0 -231 81.5t-90 216.5q0 113 58 210t157 154.5t213 57.5
q119 0 199 -57t108 -147l-168 -59q-14 48 -53 77.5t-96 29.5q-101 0 -172 -75.5t-71 -175.5q0 -69 43 -113t113 -44q63 0 115.5 31.5t78.5 72.5h-231z" />
    <glyph glyph-name="gbreve" unicode="&#x11f;" horiz-adv-x="634" 
d="M406 570q-82 0 -124 45t-32 125h119q-5 -24 6.5 -39t35.5 -15q25 0 42 15t22 39h119q-9 -78 -63 -124t-125 -46zM448 376l31 144h160l-102 -480q-24 -115 -106.5 -182.5t-199.5 -67.5q-83 0 -146.5 40.5t-85.5 101.5l145 70q29 -66 95 -66q51 0 90.5 34.5t51.5 89.5
l18 84q-37 -61 -90.5 -97.5t-111.5 -36.5q-79 0 -125 55t-46 160q0 124 80 214.5t188 90.5q56 0 100 -39.5t54 -114.5zM284 156q59 0 100.5 43.5t41.5 100.5q0 38 -25.5 61t-66.5 23q-59 0 -100.5 -43.5t-41.5 -100.5q0 -38 25.5 -61t66.5 -23z" />
    <glyph glyph-name="Gdotaccent" unicode="&#x120;" 
d="M521 730q-39 0 -67 28.5t-28 66.5q0 39 28 67t67 28t67 -28t28 -67q0 -38 -28 -66.5t-67 -28.5zM339 250l32 150h422q-4 -90 -42 -168t-98 -130.5t-134.5 -82t-152.5 -29.5q-141 0 -231 81.5t-90 216.5q0 113 58 210t157 154.5t213 57.5q119 0 199 -57t108 -147l-168 -59
q-14 48 -53 77.5t-96 29.5q-101 0 -172 -75.5t-71 -175.5q0 -69 43 -113t113 -44q63 0 115.5 31.5t78.5 72.5h-231z" />
    <glyph glyph-name="gdotaccent" unicode="&#x121;" horiz-adv-x="634" 
d="M402 565q-39 0 -67 28.5t-28 66.5q0 39 28 67t67 28t67 -28t28 -67q0 -38 -28 -66.5t-67 -28.5zM448 376l31 144h160l-102 -480q-24 -115 -106.5 -182.5t-199.5 -67.5q-83 0 -146.5 40.5t-85.5 101.5l145 70q29 -66 95 -66q51 0 90.5 34.5t51.5 89.5l18 84
q-37 -61 -90.5 -97.5t-111.5 -36.5q-79 0 -125 55t-46 160q0 124 80 214.5t188 90.5q56 0 100 -39.5t54 -114.5zM284 156q59 0 100.5 43.5t41.5 100.5q0 38 -25.5 61t-66.5 23q-59 0 -100.5 -43.5t-41.5 -100.5q0 -38 25.5 -61t66.5 -23z" />
    <glyph glyph-name="uni0122" unicode="&#x122;" 
d="M339 250l32 150h422q-4 -90 -42 -168t-98 -130.5t-134.5 -82t-152.5 -29.5q-141 0 -231 81.5t-90 216.5q0 113 58 210t157 154.5t213 57.5q119 0 199 -57t108 -147l-168 -59q-14 48 -53 77.5t-96 29.5q-101 0 -172 -75.5t-71 -175.5q0 -69 43 -113t113 -44
q63 0 115.5 31.5t78.5 72.5h-231zM338 -210h-128l55 175h162z" />
    <glyph glyph-name="uni0123" unicode="&#x123;" horiz-adv-x="634" 
d="M381 740h128l-55 -175h-162zM448 376l31 144h160l-102 -480q-24 -115 -106.5 -182.5t-199.5 -67.5q-83 0 -146.5 40.5t-85.5 101.5l145 70q29 -66 95 -66q51 0 90.5 34.5t51.5 89.5l18 84q-37 -61 -90.5 -97.5t-111.5 -36.5q-79 0 -125 55t-46 160q0 124 80 214.5
t188 90.5q56 0 100 -39.5t54 -114.5zM284 156q59 0 100.5 43.5t41.5 100.5q0 38 -25.5 61t-66.5 23q-59 0 -100.5 -43.5t-41.5 -100.5q0 -38 25.5 -61t66.5 -23z" />
    <glyph glyph-name="Hcircumflex" unicode="&#x124;" horiz-adv-x="720" 
d="M528 745l-43 56l-67 -56h-180l178 155h168l112 -155h-168zM535 425l59 275h170l-149 -700h-170l58 275h-280l-58 -275h-170l149 700h170l-59 -275h280z" />
    <glyph glyph-name="hcircumflex" unicode="&#x125;" horiz-adv-x="615" 
d="M306 785l-43 56l-67 -56h-180l178 155h168l112 -155h-168zM433 530q89 0 127.5 -67.5t18.5 -163.5l-64 -299h-160l61 289q9 43 -10.5 69.5t-63.5 26.5q-47 0 -82 -26.5t-44 -69.5l-61 -289h-160l157 740h160l-73 -342q33 64 84 98t110 34z" />
    <glyph glyph-name="Hbar" unicode="&#x126;" horiz-adv-x="720" 
d="M748 623h50l-26 -120h-50l-107 -503h-170l58 275h-280l-58 -275h-170l107 503h-50l26 120h50l16 77h170l-17 -77h280l17 77h170zM255 425h280l17 78h-280z" />
    <glyph glyph-name="hbar" unicode="&#x127;" horiz-adv-x="615" 
d="M433 530q89 0 127.5 -67.5t18.5 -163.5l-64 -299h-160l61 289q9 43 -10.5 69.5t-63.5 26.5q-47 0 -82 -26.5t-44 -69.5l-61 -289h-160l117 550h-50l26 120h49l15 70h160l-15 -70h111l-26 -120h-111l-32 -152q33 64 84 98t110 34z" />
    <glyph glyph-name="Itilde" unicode="&#x128;" horiz-adv-x="270" 
d="M129 748l-99 48q21 55 63 84.5t96 29.5q41 0 84.5 -23.5t60.5 -23.5q35 0 49 39l99 -48q-21 -55 -63 -84.5t-96 -29.5q-41 0 -84.5 23.5t-60.5 23.5q-15 0 -29 -10t-20 -29zM165 0h-170l149 700h170z" />
    <glyph glyph-name="itilde" unicode="&#x129;" horiz-adv-x="260" 
d="M98 583l-99 48q21 55 63 84.5t96 29.5q36 0 74.5 -23.5t50.5 -23.5q35 0 49 39l99 -48q-21 -55 -63 -84.5t-96 -29.5q-36 0 -74.5 23.5t-50.5 23.5q-35 0 -49 -39zM155 0h-160l111 520h160z" />
    <glyph glyph-name="Imacron" unicode="&#x12a;" horiz-adv-x="270" 
d="M388 765h-290l26 120h290zM165 0h-170l149 700h170z" />
    <glyph glyph-name="imacron" unicode="&#x12b;" horiz-adv-x="260" 
d="M343 600h-280l26 120h280zM155 0h-160l111 520h160z" />
    <glyph glyph-name="Ibreve" unicode="&#x12c;" horiz-adv-x="270" 
d="M77 900h134q-1 -23 13.5 -36t40.5 -13q62 0 73 49h134q-13 -77 -76 -121t-146 -44q-78 0 -126.5 43.5t-46.5 121.5zM165 0h-170l149 700h170z" />
    <glyph glyph-name="ibreve" unicode="&#x12d;" horiz-adv-x="260" 
d="M63 740h119q-5 -24 6.5 -39t35.5 -15q25 0 42 15t22 39h119q-9 -78 -63 -124t-125 -46q-82 0 -124 45t-32 125zM155 0h-160l111 520h160z" />
    <glyph glyph-name="Iogonek" unicode="&#x12e;" horiz-adv-x="270" 
d="M123 -53q0 -24 31 -24q10 0 26 3l-11 -121q-42 -15 -91 -15q-57 0 -89 22.5t-32 61.5t37.5 76t105.5 50h-105l149 700h170l-149 -700h-14q-28 -26 -28 -53z" />
    <glyph glyph-name="iogonek" unicode="&#x12f;" horiz-adv-x="260" 
d="M215 755q39 0 67 -28t28 -67q0 -38 -28 -66.5t-67 -28.5t-67 28.5t-28 66.5q0 39 28 67t67 28zM155 0h-19q-28 -26 -28 -53q0 -24 31 -24q9 0 26 3l-11 -121q-42 -15 -91 -15q-57 0 -89 22.5t-32 61.5t37.5 76t105.5 50h-90l111 520h160z" />
    <glyph glyph-name="Idotaccent" unicode="&#x130;" horiz-adv-x="270" 
d="M161 825q0 39 28 67t67 28t67 -28t28 -67q0 -38 -28 -66.5t-67 -28.5t-67 28.5t-28 66.5zM165 0h-170l149 700h170z" />
    <glyph glyph-name="dotlessi" unicode="&#x131;" horiz-adv-x="260" 
d="M155 0h-160l111 520h160z" />
    <glyph glyph-name="IJ" unicode="&#x132;" horiz-adv-x="828" 
d="M165 0h-170l149 700h170zM261 218l170 25q-17 -97 74 -97q39 0 69 25t39 67l98 462h170l-101 -472q-24 -115 -109 -176.5t-194 -61.5q-105 0 -167.5 61t-48.5 167z" />
    <glyph glyph-name="ij" unicode="&#x133;" horiz-adv-x="540" 
d="M121 660q0 39 28 67t67 28t67 -28t28 -67q0 -38 -28 -66.5t-67 -28.5t-67 28.5t-28 66.5zM400 660q0 39 28 67t67 28t67 -28t28 -67q0 -38 -28 -66.5t-67 -28.5t-67 28.5t-28 66.5zM155 0h-160l111 520h160zM145 -210l30 140q54 0 73 17.5t31 72.5l106 500h160l-106 -500
q-27 -129 -92.5 -183t-201.5 -47z" />
    <glyph glyph-name="Jcircumflex" unicode="&#x134;" horiz-adv-x="558" 
d="M600 745l-43 56l-67 -56h-180l178 155h168l112 -155h-168zM343 238l98 462h170l-101 -472q-24 -115 -109 -176.5t-194 -61.5q-105 0 -167.5 61t-48.5 167l170 25q-17 -97 74 -97q39 0 69 25t39 67z" />
    <glyph glyph-name="jcircumflex" unicode="&#x135;" horiz-adv-x="280" 
d="M283 580l-41 66l-69 -66h-153l147 160h178l79 -160h-141zM19 20l106 500h160l-106 -500q-27 -129 -92.5 -183t-201.5 -47l30 140q54 0 73 17.5t31 72.5z" />
    <glyph glyph-name="uni0136" unicode="&#x136;" horiz-adv-x="690" 
d="M525 700h229l-312 -291l193 -409h-188l-135 288l-107 -99l-40 -189h-170l149 700h170l-53 -248zM273 -210h-128l55 175h162z" />
    <glyph glyph-name="uni0137" unicode="&#x137;" horiz-adv-x="590" 
d="M406 520h220l-253 -227l172 -293h-185l-108 184l-71 -64l-26 -120h-160l157 740h160l-81 -382zM233 -210h-128l55 175h162z" />
    <glyph glyph-name="kgreenlandic" unicode="&#x138;" horiz-adv-x="590" 
d="M405 520h221l-253 -227l172 -293h-186l-107 184l-71 -64l-26 -120h-160l111 520h160l-35 -162z" />
    <glyph glyph-name="Lacute" unicode="&#x139;" horiz-adv-x="550" 
d="M285 745h-174l165 155h204zM475 0h-480l149 700h170l-117 -550h310z" />
    <glyph glyph-name="lacute" unicode="&#x13a;" horiz-adv-x="260" 
d="M288 785h-174l165 155h204zM155 0h-160l157 740h160z" />
    <glyph glyph-name="uni013B" unicode="&#x13b;" horiz-adv-x="550" 
d="M475 0h-480l149 700h170l-117 -550h310zM213 -210h-128l55 175h162z" />
    <glyph glyph-name="uni013C" unicode="&#x13c;" horiz-adv-x="260" 
d="M155 0h-160l157 740h160zM68 -210h-128l55 175h162z" />
    <glyph glyph-name="Lcaron" unicode="&#x13d;" horiz-adv-x="550" 
d="M489 575h-122l61 195h150zM475 0h-480l149 700h170l-117 -550h310z" />
    <glyph glyph-name="lcaron" unicode="&#x13e;" horiz-adv-x="380" 
d="M439 575h-122l61 195h150zM155 0h-160l157 740h160z" />
    <glyph glyph-name="Ldot" unicode="&#x13f;" horiz-adv-x="550" 
d="M475 0h-480l149 700h170l-117 -550h310zM304 350q0 44 31 74.5t74 30.5t74 -31t31 -74q0 -42 -31 -73.5t-74 -31.5t-74 31.5t-31 73.5z" />
    <glyph glyph-name="ldot" unicode="&#x140;" horiz-adv-x="470" 
d="M155 0h-160l157 740h160zM279 350q0 44 30.5 74.5t74.5 30.5q43 0 74 -31t31 -74q0 -42 -31 -73.5t-74 -31.5t-74 31.5t-31 73.5z" />
    <glyph glyph-name="Lslash" unicode="&#x141;" horiz-adv-x="570" 
d="M248 296l-31 -146h310l-32 -150h-480l53 249l-74 -19l27 128l74 19l69 323h170l-59 -276l233 61l-27 -128z" />
    <glyph glyph-name="lslash" unicode="&#x142;" horiz-adv-x="300" 
d="M268 438l85 22l-27 -123l-84 -22l-67 -315h-160l58 272l-85 -22l26 123l85 22l73 345h160z" />
    <glyph glyph-name="Nacute" unicode="&#x143;" horiz-adv-x="740" 
d="M511 900h204l-195 -155h-174zM475 48l139 652h170l-149 -700h-319l-12 652l-139 -652h-170l149 700h319z" />
    <glyph glyph-name="nacute" unicode="&#x144;" horiz-adv-x="615" 
d="M403 740h187l-157 -160h-157zM433 530q89 0 127.5 -67.5t18.5 -163.5l-64 -299h-160l61 289q9 43 -10.5 69.5t-63.5 26.5q-47 0 -82 -26.5t-44 -69.5l-61 -289h-160l111 520h160l-26 -121q33 63 84 97t109 34z" />
    <glyph glyph-name="uni0145" unicode="&#x145;" horiz-adv-x="740" 
d="M475 48l139 652h170l-149 -700h-319l-12 652l-139 -652h-170l149 700h319zM308 -210h-128l55 175h162z" />
    <glyph glyph-name="uni0146" unicode="&#x146;" horiz-adv-x="615" 
d="M433 530q89 0 127.5 -67.5t18.5 -163.5l-64 -299h-160l61 289q9 43 -10.5 69.5t-63.5 26.5q-47 0 -82 -26.5t-44 -69.5l-61 -289h-160l111 520h160l-26 -121q33 63 84 97t109 34zM246 -210h-128l55 175h162z" />
    <glyph glyph-name="Ncaron" unicode="&#x147;" horiz-adv-x="740" 
d="M731 900l-178 -155h-168l-112 155h168l43 -56l67 56h180zM475 48l139 652h170l-149 -700h-319l-12 652l-139 -652h-170l149 700h319z" />
    <glyph glyph-name="ncaron" unicode="&#x148;" horiz-adv-x="615" 
d="M608 740l-147 -160h-178l-79 160h141l41 -66l69 66h153zM433 530q89 0 127.5 -67.5t18.5 -163.5l-64 -299h-160l61 289q9 43 -10.5 69.5t-63.5 26.5q-47 0 -82 -26.5t-44 -69.5l-61 -289h-160l111 520h160l-26 -121q33 63 84 97t109 34z" />
    <glyph glyph-name="napostrophe" unicode="&#x149;" horiz-adv-x="895" 
d="M347 614q0 -89 -63.5 -157t-162.5 -89l-41 92q111 28 136 89q-40 -3 -69.5 24t-29.5 72q0 44 31.5 74.5t78.5 30.5q54 0 87 -38.5t33 -97.5zM713 530q89 0 127.5 -67.5t18.5 -163.5l-64 -299h-160l61 289q9 43 -10.5 69.5t-63.5 26.5q-47 0 -82 -26.5t-44 -69.5l-61 -289
h-160l111 520h160l-26 -121q33 63 84 97t109 34z" />
    <glyph glyph-name="Eng" unicode="&#x14a;" horiz-adv-x="740" 
d="M475 48l139 652h170l-145 -680q-27 -129 -92.5 -183t-201.5 -47l30 140q50 -1 69.5 14.5t28.5 48.5l2 7h-159l-12 652l-139 -652h-170l149 700h319z" />
    <glyph glyph-name="eng" unicode="&#x14b;" horiz-adv-x="615" 
d="M433 530q89 0 127.5 -67.5t18.5 -163.5l-60 -279q-28 -129 -93 -183t-201 -47l30 140q54 0 73 17.5t31 72.5l57 269q9 43 -10.5 69.5t-63.5 26.5q-47 0 -82 -26.5t-44 -69.5l-61 -289h-160l111 520h160l-26 -121q33 63 84 97t109 34z" />
    <glyph glyph-name="Omacron" unicode="&#x14c;" 
d="M673 765h-330l26 120h330zM45 288q0 113 58 210t157 154.5t213 57.5q141 0 230.5 -81.5t89.5 -216.5q0 -172 -126.5 -297t-300.5 -125q-141 0 -231 81.5t-90 216.5zM220 303q0 -69 43 -113t113 -44q100 0 171 75.5t71 175.5q0 69 -43 113t-113 44q-100 0 -171 -75.5
t-71 -175.5z" />
    <glyph glyph-name="omacron" unicode="&#x14d;" horiz-adv-x="620" 
d="M525 600h-320l26 120h320zM27 217q0 128 94.5 220.5t226.5 92.5q109 0 177 -61.5t68 -165.5q0 -128 -94 -220.5t-225 -92.5q-110 0 -178.5 61.5t-68.5 165.5zM193 230q0 -42 24.5 -68t65.5 -26q59 0 101.5 46.5t42.5 107.5q0 42 -24.5 68t-65.5 26q-59 0 -101.5 -46.5
t-42.5 -107.5z" />
    <glyph glyph-name="Obreve" unicode="&#x14e;" 
d="M342 900h134q-1 -23 13.5 -36t40.5 -13q62 0 73 49h134q-13 -77 -76 -121t-146 -44q-78 0 -126.5 43.5t-46.5 121.5zM45 288q0 113 58 210t157 154.5t213 57.5q141 0 230.5 -81.5t89.5 -216.5q0 -172 -126.5 -297t-300.5 -125q-141 0 -231 81.5t-90 216.5zM220 303
q0 -69 43 -113t113 -44q100 0 171 75.5t71 175.5q0 69 -43 113t-113 44q-100 0 -171 -75.5t-71 -175.5z" />
    <glyph glyph-name="obreve" unicode="&#x14f;" horiz-adv-x="620" 
d="M226 740h119q-5 -24 6.5 -39t35.5 -15q25 0 42 15t22 39h119q-9 -78 -63 -124t-125 -46q-82 0 -124 45t-32 125zM27 217q0 128 94.5 220.5t226.5 92.5q109 0 177 -61.5t68 -165.5q0 -128 -94 -220.5t-225 -92.5q-110 0 -178.5 61.5t-68.5 165.5zM193 230q0 -42 24.5 -68
t65.5 -26q59 0 101.5 46.5t42.5 107.5q0 42 -24.5 68t-65.5 26q-59 0 -101.5 -46.5t-42.5 -107.5z" />
    <glyph glyph-name="Ohungarumlaut" unicode="&#x150;" 
d="M430 745h-154l160 155h184zM655 745h-154l160 155h184zM45 288q0 113 58 210t157 154.5t213 57.5q141 0 230.5 -81.5t89.5 -216.5q0 -172 -126.5 -297t-300.5 -125q-141 0 -231 81.5t-90 216.5zM220 303q0 -69 43 -113t113 -44q100 0 171 75.5t71 175.5q0 69 -43 113
t-113 44q-100 0 -171 -75.5t-71 -175.5z" />
    <glyph glyph-name="ohungarumlaut" unicode="&#x151;" horiz-adv-x="620" 
d="M312 580h-141l127 160h167zM512 580h-141l127 160h167zM27 217q0 128 94.5 220.5t226.5 92.5q109 0 177 -61.5t68 -165.5q0 -128 -94 -220.5t-225 -92.5q-110 0 -178.5 61.5t-68.5 165.5zM193 230q0 -42 24.5 -68t65.5 -26q59 0 101.5 46.5t42.5 107.5q0 42 -24.5 68
t-65.5 26q-59 0 -101.5 -46.5t-42.5 -107.5z" />
    <glyph glyph-name="OE" unicode="&#x152;" horiz-adv-x="1064" 
d="M1117 700l-31 -150h-310l-27 -125h300l-32 -150h-300l-26 -125h310l-32 -150h-480l27 128q-76 -138 -218 -138q-100 0 -176.5 81.5t-76.5 216.5q0 119 55 218t136.5 151.5t166.5 52.5q78 0 130.5 -41t74.5 -111l30 142h479zM529 186l67 318q-53 50 -142 50
q-97 0 -165.5 -73t-68.5 -178q0 -75 42.5 -116t114.5 -41q83 0 152 40z" />
    <glyph glyph-name="oe" unicode="&#x153;" horiz-adv-x="1004" 
d="M743 530q133 0 197.5 -97.5t19.5 -230.5h-379q7 -37 33 -56.5t64 -19.5q76 0 125 58l125 -60q-40 -58 -109.5 -96t-149.5 -38q-125 0 -189 79q-87 -79 -206 -79q-110 0 -178.5 61.5t-68.5 165.5q0 128 94.5 220.5t226.5 92.5q124 0 188 -79q87 79 207 79zM727 394
q-35 0 -68.5 -19t-54.5 -53h214q-6 31 -31 51.5t-60 20.5zM283 136q59 0 101.5 46.5t42.5 107.5q0 42 -24.5 68t-65.5 26q-59 0 -101.5 -46.5t-42.5 -107.5q0 -42 24.5 -68t65.5 -26z" />
    <glyph glyph-name="Racute" unicode="&#x154;" horiz-adv-x="660" 
d="M431 900h204l-195 -155h-174zM665 503q0 -93 -54 -162.5t-144 -96.5l118 -244h-187l-111 230h-73l-49 -230h-170l149 700h290q101 0 166 -57.5t65 -139.5zM247 385h139q42 0 72.5 30t30.5 72q0 28 -18 45.5t-50 17.5h-139z" />
    <glyph glyph-name="racute" unicode="&#x155;" horiz-adv-x="417" 
d="M304 740h187l-157 -160h-157zM266 520l-27 -124q45 93 102 120t112 4l-32 -150q-74 30 -133 6t-72 -87l-61 -289h-160l111 520h160z" />
    <glyph glyph-name="uni0156" unicode="&#x156;" horiz-adv-x="660" 
d="M665 503q0 -93 -54 -162.5t-144 -96.5l118 -244h-187l-111 230h-73l-49 -230h-170l149 700h290q101 0 166 -57.5t65 -139.5zM247 385h139q42 0 72.5 30t30.5 72q0 28 -18 45.5t-50 17.5h-139zM268 -210h-128l55 175h162z" />
    <glyph glyph-name="uni0157" unicode="&#x157;" horiz-adv-x="417" 
d="M266 520l-27 -124q45 93 102 120t112 4l-32 -150q-74 30 -133 6t-72 -87l-61 -289h-160l111 520h160zM63 -210h-128l55 175h162z" />
    <glyph glyph-name="Rcaron" unicode="&#x158;" horiz-adv-x="660" 
d="M651 900l-178 -155h-168l-112 155h168l43 -56l67 56h180zM665 503q0 -93 -54 -162.5t-144 -96.5l118 -244h-187l-111 230h-73l-49 -230h-170l149 700h290q101 0 166 -57.5t65 -139.5zM247 385h139q42 0 72.5 30t30.5 72q0 28 -18 45.5t-50 17.5h-139z" />
    <glyph glyph-name="rcaron" unicode="&#x159;" horiz-adv-x="417" 
d="M509 740l-147 -160h-178l-79 160h141l41 -66l69 66h153zM266 520l-27 -124q45 93 102 120t112 4l-32 -150q-74 30 -133 6t-72 -87l-61 -289h-160l111 520h160z" />
    <glyph glyph-name="Sacute" unicode="&#x15a;" horiz-adv-x="637" 
d="M443 745h-174l165 155h204zM35 187l169 35q17 -86 106 -86q44 0 72 19.5t28 49.5q0 27 -32 45t-77.5 32.5t-91 33.5t-77.5 60t-32 101q0 99 82.5 166t204.5 67q212 0 249 -197l-169 -35q-17 86 -97 86q-40 0 -63.5 -17t-23.5 -46q0 -22 23 -38t57 -25.5t74.5 -26
t74.5 -36t57 -58t23 -90.5q0 -105 -86.5 -171t-211.5 -66q-112 0 -176.5 52.5t-82.5 144.5z" />
    <glyph glyph-name="sacute" unicode="&#x15b;" horiz-adv-x="510" 
d="M351 580h-157l127 160h187zM0 142l156 34q9 -61 72 -61q39 0 61.5 12.5t22.5 33.5q0 19 -27 28.5t-65 16t-76 18.5t-65 44t-27 84q0 72 65.5 125t163.5 53q92 0 152 -41.5t72 -110.5l-156 -34q-9 61 -73 61q-27 0 -45 -11.5t-18 -30.5q0 -20 27 -30t65 -17t76 -19.5
t65 -44.5t27 -84q0 -79 -75 -128.5t-170 -49.5t-156 41t-72 111z" />
    <glyph glyph-name="Scircumflex" unicode="&#x15c;" horiz-adv-x="637" 
d="M461 745l-43 56l-67 -56h-180l178 155h168l112 -155h-168zM283 501q0 -22 23 -38t57 -25.5t74.5 -26t74.5 -36t57 -58t23 -90.5q0 -105 -86.5 -171t-211.5 -66q-112 0 -176.5 52.5t-82.5 144.5l169 35q17 -86 106 -86q44 0 72 19.5t28 49.5q0 27 -32 45t-77.5 32.5
t-91 33.5t-77.5 60t-32 101q0 99 82.5 166t204.5 67q212 0 249 -197l-169 -35q-17 86 -97 86q-40 0 -63.5 -17t-23.5 -46z" />
    <glyph glyph-name="scircumflex" unicode="&#x15d;" horiz-adv-x="510" 
d="M359 580l-41 66l-69 -66h-153l147 160h178l79 -160h-141zM213 363q0 -20 27 -30t65 -17t76 -19.5t65 -44.5t27 -84q0 -79 -75 -128.5t-170 -49.5t-156 41t-72 111l156 34q9 -61 72 -61q39 0 61.5 12.5t22.5 33.5q0 19 -27 28.5t-65 16t-76 18.5t-65 44t-27 84
q0 72 65.5 125t163.5 53q92 0 152 -41.5t72 -110.5l-156 -34q-9 61 -73 61q-27 0 -45 -11.5t-18 -30.5z" />
    <glyph glyph-name="Scedilla" unicode="&#x15e;" horiz-adv-x="637" 
d="M283 501q0 -22 23 -38t57 -25.5t74.5 -26t74.5 -36t57 -58t23 -90.5q0 -103 -82.5 -168t-203.5 -69q34 -12 52.5 -37.5t18.5 -55.5q0 -42 -48 -74.5t-121 -32.5q-47 0 -86 16l45 120q11 -3 21 -3q23 0 36 11t13 30q0 16 -12 32q-159 29 -190 191l169 35q17 -86 106 -86
q44 0 72 19.5t28 49.5q0 27 -32 45t-77.5 32.5t-91 33.5t-77.5 60t-32 101q0 99 82.5 166t204.5 67q212 0 249 -197l-169 -35q-17 86 -97 86q-40 0 -63.5 -17t-23.5 -46z" />
    <glyph glyph-name="scedilla" unicode="&#x15f;" horiz-adv-x="510" 
d="M213 363q0 -20 27 -30t65 -17t76 -19.5t65 -44.5t27 -84q0 -76 -71 -125.5t-162 -52.5q34 -12 52.5 -37.5t18.5 -55.5q0 -42 -48 -74.5t-121 -32.5q-47 0 -86 16l45 120q11 -3 21 -3q23 0 36 11t13 30q0 16 -13 33q-66 14 -107.5 52t-50.5 93l156 34q9 -61 72 -61
q39 0 61.5 12.5t22.5 33.5q0 19 -27 28.5t-65 16t-76 18.5t-65 44t-27 84q0 72 65.5 125t163.5 53q92 0 152 -41.5t72 -110.5l-156 -34q-9 61 -73 61q-27 0 -45 -11.5t-18 -30.5z" />
    <glyph glyph-name="Scaron" unicode="&#x160;" horiz-adv-x="637" 
d="M654 900l-178 -155h-168l-112 155h168l43 -56l67 56h180zM370 564q-40 0 -63.5 -17t-23.5 -46q0 -22 23 -38t57 -25.5t74.5 -26t74.5 -36t57 -58t23 -90.5q0 -105 -86.5 -171t-211.5 -66q-112 0 -176.5 52.5t-82.5 144.5l169 35q17 -86 106 -86q44 0 72 19.5t28 49.5
q0 27 -32 45t-77.5 32.5t-91 33.5t-77.5 60t-32 101q0 99 82.5 166t204.5 67q212 0 249 -197l-169 -35q-17 86 -97 86z" />
    <glyph glyph-name="scaron" unicode="&#x161;" horiz-adv-x="510" 
d="M526 740l-147 -160h-178l-79 160h141l41 -66l69 66h153zM276 405q-27 0 -45 -11.5t-18 -30.5q0 -20 27 -30t65 -17t76 -19.5t65 -44.5t27 -84q0 -79 -75 -128.5t-170 -49.5t-156 41t-72 111l156 34q9 -61 72 -61q39 0 61.5 12.5t22.5 33.5q0 19 -27 28.5t-65 16t-76 18.5
t-65 44t-27 84q0 72 65.5 125t163.5 53q92 0 152 -41.5t72 -110.5l-156 -34q-9 61 -73 61z" />
    <glyph glyph-name="uni0162" unicode="&#x162;" horiz-adv-x="600" 
d="M72 550l32 150h580l-32 -150h-205l-117 -550h-100q55 -5 85.5 -34.5t30.5 -68.5q0 -42 -48 -74.5t-121 -32.5q-47 0 -86 16l45 120q10 -3 21 -3q23 0 36 11t13 30q0 16 -15 36h-31l117 550h-205z" />
    <glyph glyph-name="uni0163" unicode="&#x163;" horiz-adv-x="480" 
d="M421 380h-125l-38 -180q-12 -60 47 -60h65l-30 -140h-54q-35 0 -62 6q55 -43 55 -99q0 -49 -47 -83t-122 -34q-47 0 -86 16l45 120q10 -3 21 -3q51 0 51 51q0 41 -27 107q-30 56 -12 139l34 160h-100l30 140h100l30 140l170 50l-40 -190h125z" />
    <glyph glyph-name="Tcaron" unicode="&#x164;" horiz-adv-x="600" 
d="M661 900l-178 -155h-168l-112 155h168l43 -56l67 56h180zM72 550l32 150h580l-32 -150h-205l-117 -550h-170l117 550h-205z" />
    <glyph glyph-name="tcaron" unicode="&#x165;" horiz-adv-x="440" 
d="M499 575h-122l61 195h150zM136 380h-100l30 140h100l30 140l170 50l-40 -190h125l-30 -140h-125l-38 -180q-12 -60 47 -60h65l-30 -140h-54q-108 0 -157 59t-27 161z" />
    <glyph glyph-name="Tbar" unicode="&#x166;" horiz-adv-x="600" 
d="M684 700l-32 -150h-205l-30 -140h81l-26 -120h-80l-62 -290h-170l62 290h-80l26 120h79l30 140h-205l32 150h580z" />
    <glyph glyph-name="tbar" unicode="&#x167;" horiz-adv-x="425" 
d="M451 520l-30 -140h-125l-11 -50h100l-26 -120h-99l-2 -10q-12 -60 47 -60h65l-30 -140h-54q-105 0 -154.5 56t-31.5 154h-61l26 120h60l11 50h-100l30 140h100l30 140l170 50l-40 -190h125z" />
    <glyph glyph-name="Utilde" unicode="&#x168;" horiz-adv-x="700" 
d="M344 748l-99 48q21 55 63 84.5t96 29.5q41 0 84.5 -23.5t60.5 -23.5q35 0 49 39l99 -48q-21 -55 -63 -84.5t-96 -29.5q-41 0 -84.5 23.5t-60.5 23.5q-35 0 -49 -39zM49 302l85 398h170l-89 -418q-13 -59 17.5 -97.5t93.5 -38.5q64 0 110 38t59 98l89 418h170l-93 -438
q-27 -126 -124.5 -199t-233.5 -73q-137 0 -209.5 88.5t-44.5 223.5z" />
    <glyph glyph-name="utilde" unicode="&#x169;" horiz-adv-x="590" 
d="M263 583l-99 48q21 55 63 84.5t96 29.5q36 0 74.5 -23.5t50.5 -23.5q36 0 49 39l99 -48q-21 -55 -63 -84.5t-96 -29.5q-36 0 -74.5 23.5t-50.5 23.5q-15 0 -29 -10t-20 -29zM42 242l58 278h160l-63 -298q-8 -39 11.5 -62.5t60.5 -23.5q39 0 69.5 24t38.5 62l63 298h160
l-67 -318q-21 -102 -97.5 -157t-187.5 -55t-170 71t-36 181z" />
    <glyph glyph-name="Umacron" unicode="&#x16a;" horiz-adv-x="700" 
d="M623 765h-330l26 120h330zM49 302l85 398h170l-89 -418q-13 -59 17.5 -97.5t93.5 -38.5q64 0 110 38t59 98l89 418h170l-93 -438q-27 -126 -124.5 -199t-233.5 -73q-137 0 -209.5 88.5t-44.5 223.5z" />
    <glyph glyph-name="umacron" unicode="&#x16b;" horiz-adv-x="590" 
d="M527 600h-320l26 120h320zM42 242l58 278h160l-63 -298q-8 -39 11.5 -62.5t60.5 -23.5q39 0 69.5 24t38.5 62l63 298h160l-67 -318q-21 -102 -97.5 -157t-187.5 -55t-170 71t-36 181z" />
    <glyph glyph-name="Ubreve" unicode="&#x16c;" horiz-adv-x="700" 
d="M292 900h134q-1 -23 13.5 -36t40.5 -13q62 0 73 49h134q-13 -77 -76 -121t-146 -44q-78 0 -126.5 43.5t-46.5 121.5zM49 302l85 398h170l-89 -418q-13 -59 17.5 -97.5t93.5 -38.5q64 0 110 38t59 98l89 418h170l-93 -438q-27 -126 -124.5 -199t-233.5 -73
q-137 0 -209.5 88.5t-44.5 223.5z" />
    <glyph glyph-name="ubreve" unicode="&#x16d;" horiz-adv-x="590" 
d="M228 740h119q-5 -24 6.5 -39t35.5 -15q25 0 42 15t22 39h119q-9 -78 -63 -124t-125 -46q-82 0 -124 45t-32 125zM42 242l58 278h160l-63 -298q-8 -39 11.5 -62.5t60.5 -23.5q39 0 69.5 24t38.5 62l63 298h160l-67 -318q-21 -102 -97.5 -157t-187.5 -55t-170 71t-36 181z
" />
    <glyph glyph-name="Uring" unicode="&#x16e;" horiz-adv-x="700" 
d="M330 820q0 57 47.5 98.5t112.5 41.5q55 0 90 -30.5t35 -79.5q0 -57 -47.5 -98.5t-112.5 -41.5q-55 0 -90 30.5t-35 79.5zM431 826q0 -14 9 -22.5t24 -8.5q20 0 35 15t15 34q0 14 -9 22.5t-24 8.5q-20 0 -35 -15t-15 -34zM49 302l85 398h170l-89 -418q-13 -59 17.5 -97.5
t93.5 -38.5q64 0 110 38t59 98l89 418h170l-93 -438q-27 -126 -124.5 -199t-233.5 -73q-137 0 -209.5 88.5t-44.5 223.5z" />
    <glyph glyph-name="uring" unicode="&#x16f;" horiz-adv-x="590" 
d="M242 645q0 55 46 95t109 40q53 0 86.5 -29t33.5 -76q0 -55 -46 -95t-109 -40q-53 0 -86.5 29t-33.5 76zM338 651q0 -14 9 -22.5t24 -8.5q20 0 35 15t15 34q0 14 -9 22.5t-24 8.5q-20 0 -35 -15t-15 -34zM42 242l58 278h160l-63 -298q-8 -39 11.5 -62.5t60.5 -23.5
q39 0 69.5 24t38.5 62l63 298h160l-67 -318q-21 -102 -97.5 -157t-187.5 -55t-170 71t-36 181z" />
    <glyph glyph-name="Uhungarumlaut" unicode="&#x170;" horiz-adv-x="700" 
d="M380 745h-154l160 155h184zM605 745h-154l160 155h184zM49 302l85 398h170l-89 -418q-13 -59 17.5 -97.5t93.5 -38.5q64 0 110 38t59 98l89 418h170l-93 -438q-27 -126 -124.5 -199t-233.5 -73q-137 0 -209.5 88.5t-44.5 223.5z" />
    <glyph glyph-name="uhungarumlaut" unicode="&#x171;" horiz-adv-x="590" 
d="M314 580h-141l127 160h167zM514 580h-141l127 160h167zM42 242l58 278h160l-63 -298q-8 -39 11.5 -62.5t60.5 -23.5q39 0 69.5 24t38.5 62l63 298h160l-67 -318q-21 -102 -97.5 -157t-187.5 -55t-170 71t-36 181z" />
    <glyph glyph-name="Uogonek" unicode="&#x172;" horiz-adv-x="700" 
d="M495 282l89 418h170l-93 -438q-21 -103 -91.5 -171.5t-172.5 -90.5q-28 -26 -28 -53q0 -24 31 -24q10 0 26 3l-11 -121q-42 -15 -91 -15q-57 0 -89 22.5t-32 61.5q0 33 27.5 65.5t78.5 50.5h-6q-137 0 -209.5 88.5t-44.5 223.5l85 398h170l-89 -418q-13 -59 17.5 -97.5
t93.5 -38.5q64 0 110 38t59 98z" />
    <glyph glyph-name="uogonek" unicode="&#x173;" horiz-adv-x="590" 
d="M377 222l63 298h160l-67 -318q-18 -87 -77.5 -140.5t-147.5 -67.5q-23 -23 -23 -47t31 -24q10 0 26 3l-11 -121q-42 -15 -91 -15q-57 0 -89 22.5t-32 61.5q0 33 28 66t80 51q-102 7 -154.5 76.5t-30.5 174.5l58 278h160l-63 -298q-8 -39 11.5 -62.5t60.5 -23.5
q39 0 69.5 24t38.5 62z" />
    <glyph glyph-name="Wcircumflex" unicode="&#x174;" horiz-adv-x="1070" 
d="M703 745l-43 56l-67 -56h-180l178 155h168l112 -155h-168zM730 43l224 657h170l-239 -700h-308l39 646l-218 -646h-303l39 700h150l-37 -657l222 657h300z" />
    <glyph glyph-name="wcircumflex" unicode="&#x175;" horiz-adv-x="848" 
d="M557 580l-41 66l-69 -66h-153l147 160h178l79 -160h-141zM577 51l171 469h155l-199 -520h-266l32 476l-162 -476h-266l13 520h145l-21 -469l151 469h288z" />
    <glyph glyph-name="Ycircumflex" unicode="&#x176;" horiz-adv-x="682" 
d="M509 745l-43 56l-67 -56h-180l178 155h168l112 -155h-168zM786 700l-363 -458l-20 -92h105l-32 -150h-380l32 150h105l20 92l-169 458h190l95 -288l217 288h200z" />
    <glyph glyph-name="ycircumflex" unicode="&#x177;" horiz-adv-x="560" 
d="M413 580l-41 66l-69 -66h-153l147 160h178l79 -160h-141zM230 44l223 476h172l-341 -720h-172l97 200h-120l-44 520h162z" />
    <glyph glyph-name="Ydieresis" unicode="&#x178;" horiz-adv-x="682" 
d="M342 735q-37 0 -63.5 27t-26.5 63q0 37 26.5 63.5t63.5 26.5t63.5 -26.5t26.5 -63.5q0 -36 -26.5 -63t-63.5 -27zM582 735q-37 0 -63.5 27t-26.5 63q0 37 26.5 63.5t63.5 26.5t63.5 -26.5t26.5 -63.5q0 -36 -26.5 -63t-63.5 -27zM786 700l-363 -458l-20 -92h105l-32 -150
h-380l32 150h105l20 92l-169 458h190l95 -288l217 288h200z" />
    <glyph glyph-name="Zacute" unicode="&#x179;" horiz-adv-x="620" 
d="M451 900h204l-195 -155h-174zM144 700h520l-65 -303l-500 -247h448l-32 -150h-520l65 303l500 247h-448z" />
    <glyph glyph-name="zacute" unicode="&#x17a;" horiz-adv-x="540" 
d="M365 740h187l-157 -160h-157zM453 380h-377l30 140h440l-57 -265l-401 -115h377l-30 -140h-440l57 265z" />
    <glyph glyph-name="Zdotaccent" unicode="&#x17b;" horiz-adv-x="620" 
d="M431 730q-39 0 -67 28.5t-28 66.5q0 39 28 67t67 28t67 -28t28 -67q0 -38 -28 -66.5t-67 -28.5zM144 700h520l-65 -303l-500 -247h448l-32 -150h-520l65 303l500 247h-448z" />
    <glyph glyph-name="zdotaccent" unicode="&#x17c;" horiz-adv-x="540" 
d="M355 565q-39 0 -67 28.5t-28 66.5q0 39 28 67t67 28t67 -28t28 -67q0 -38 -28 -66.5t-67 -28.5zM106 520h440l-57 -265l-401 -115h377l-30 -140h-440l57 265l401 115h-377z" />
    <glyph glyph-name="Zcaron" unicode="&#x17d;" horiz-adv-x="620" 
d="M671 900l-178 -155h-168l-112 155h168l43 -56l67 56h180zM560 550h-448l32 150h520l-65 -303l-500 -247h448l-32 -150h-520l65 303z" />
    <glyph glyph-name="zcaron" unicode="&#x17e;" horiz-adv-x="540" 
d="M570 740l-147 -160h-178l-79 160h141l41 -66l69 66h153zM453 380h-377l30 140h440l-57 -265l-401 -115h377l-30 -140h-440l57 265z" />
    <glyph glyph-name="uni018F" unicode="&#x18f;" 
d="M473 710q138 0 229 -86.5t91 -211.5q0 -172 -126.5 -297t-300.5 -125q-105 0 -184.5 50t-113 141t0.5 219h549q-1 68 -43.5 111t-111.5 43q-62 0 -113.5 -30t-84.5 -77l-148 63q55 87 147 143.5t209 56.5zM376 146q59 0 110 28t85 76h-343q7 -43 45.5 -73.5t102.5 -30.5z
" />
    <glyph glyph-name="florin" unicode="&#x192;" horiz-adv-x="566" 
d="M490 564q-62 0 -77 -70l-19 -89h145l-23 -110h-145l-17 -80q-24 -111 -83 -168t-146 -57q-73 0 -144 37l68 130q40 -21 66 -21q62 0 77 70l19 89h-125l23 110h125l17 80q24 113 84 169t145 56q74 0 144 -37l-67 -130q-42 21 -67 21z" />
    <glyph glyph-name="uni019D" unicode="&#x19d;" horiz-adv-x="740" 
d="M475 48l139 652h170l-149 -700h-319l-12 653l-135 -633q-28 -131 -92.5 -184t-201.5 -46l30 140q49 0 65.5 17t28.5 73l145 680h319z" />
    <glyph glyph-name="Ohorn" unicode="&#x1a0;" 
d="M908 770q0 -75 -55 -113.5t-151 -26.5q91 -83 91 -218q0 -172 -126.5 -297t-300.5 -125q-141 0 -231 81.5t-90 216.5q0 113 58 210t157 154.5t213 57.5q45 0 86 -9q102 -17 155 3.5t53 75.5q0 30 -12 70h140q13 -42 13 -80zM376 146q100 0 171 75.5t71 175.5
q0 69 -43 113t-113 44q-100 0 -171 -75.5t-71 -175.5q0 -69 43 -113t113 -44z" />
    <glyph glyph-name="ohorn" unicode="&#x1a1;" horiz-adv-x="675" 
d="M607 670h140q13 -42 13 -80q0 -78 -59 -116t-161 -21q53 -59 53 -150q0 -128 -94 -220.5t-225 -92.5q-110 0 -178.5 61.5t-68.5 165.5q0 128 94.5 220.5t226.5 92.5q38 0 66 -7q100 -18 152.5 2.5t52.5 74.5q0 30 -12 70zM283 136q59 0 101.5 46.5t42.5 107.5
q0 42 -24.5 68t-65.5 26q-59 0 -101.5 -46.5t-42.5 -107.5q0 -42 24.5 -68t65.5 -26z" />
    <glyph glyph-name="Uhorn" unicode="&#x1af;" horiz-adv-x="790" 
d="M761 850h140q13 -42 13 -80q0 -73 -52 -114.5t-123 -26.5l-78 -367q-27 -126 -124.5 -199t-233.5 -73q-137 0 -209.5 88.5t-44.5 223.5l85 398h170l-89 -418q-13 -59 17.5 -97.5t93.5 -38.5q64 0 110 38t59 98l89 418h90q99 0 99 80q0 30 -12 70z" />
    <glyph glyph-name="uhorn" unicode="&#x1b0;" horiz-adv-x="675" 
d="M608 670h140q13 -42 13 -80q0 -73 -52 -114.5t-124 -26.5l-52 -247q-21 -102 -97.5 -157t-187.5 -55t-170 71t-36 181l58 278h160l-63 -298q-8 -39 11.5 -62.5t60.5 -23.5q39 0 69.5 24t38.5 62l63 298h81q99 0 99 80q0 30 -12 70z" />
    <glyph glyph-name="uni01B7" unicode="&#x1b7;" horiz-adv-x="642" 
d="M169 700h502l-28 -130l-175 -153q56 -24 90.5 -73t34.5 -114q0 -107 -88 -173.5t-214 -66.5q-94 0 -169 33t-115 91l115 112q34 -38 84.5 -59t97.5 -21q48 0 80.5 23t32.5 61q0 65 -109 65h-69l27 127l149 128h-278z" />
    <glyph glyph-name="uni01C4" unicode="&#x1c4;" horiz-adv-x="1320" 
d="M1371 900l-178 -155h-168l-112 155h168l43 -56l67 56h180zM144 700h281q132 0 216 -81t84 -202q0 -170 -126.5 -293.5t-302.5 -123.5h-301zM1260 550h-448l32 150h520l-65 -303l-500 -247h448l-32 -150h-520l65 303zM197 150h106q101 0 173.5 73.5t72.5 176.5
q0 68 -43 109t-118 41h-106z" />
    <glyph glyph-name="uni01C5" unicode="&#x1c5;" horiz-adv-x="1255" 
d="M1285 740l-147 -160h-178l-79 160h141l41 -66l69 66h153zM144 700h281q132 0 216 -81t84 -202q0 -170 -126.5 -293.5t-302.5 -123.5h-301zM197 150h106q101 0 173.5 73.5t72.5 176.5q0 68 -43 109t-118 41h-106zM1168 380h-377l30 140h440l-57 -265l-401 -115h377
l-30 -140h-440l57 265z" />
    <glyph glyph-name="uni01C7" unicode="&#x1c7;" horiz-adv-x="1108" 
d="M475 0h-480l149 700h170l-117 -550h310zM541 218l170 25q-17 -97 74 -97q39 0 69 25t39 67l98 462h170l-101 -472q-24 -115 -109 -176.5t-194 -61.5q-105 0 -167.5 61t-48.5 167z" />
    <glyph glyph-name="uni01C8" unicode="&#x1c8;" horiz-adv-x="830" 
d="M690 660q0 39 28 67t67 28t67 -28t28 -67q0 -38 -28 -66.5t-67 -28.5t-67 28.5t-28 66.5zM475 0h-480l149 700h170l-117 -550h310zM435 -210l30 140q54 0 73 17.5t31 72.5l106 500h160l-106 -500q-27 -129 -92.5 -183t-201.5 -47z" />
    <glyph glyph-name="uni01CA" unicode="&#x1ca;" horiz-adv-x="1298" 
d="M475 48l139 652h170l-149 -700h-319l-12 652l-139 -652h-170l149 700h319zM1083 238l98 462h170l-101 -472q-24 -115 -109 -176.5t-194 -61.5q-105 0 -167.5 61t-48.5 167l170 25q-17 -97 74 -97q39 0 69 25t39 67z" />
    <glyph glyph-name="uni01CB" unicode="&#x1cb;" horiz-adv-x="1020" 
d="M975 755q39 0 67 -28t28 -67q0 -38 -28 -66.5t-67 -28.5t-67 28.5t-28 66.5q0 39 28 67t67 28zM614 700h170l-149 -700h-319l-12 652l-139 -652h-170l149 700h319l12 -652zM759 20l106 500h160l-106 -500q-27 -129 -92.5 -183t-201.5 -47l30 140q54 0 73 17.5t31 72.5z
" />
    <glyph glyph-name="uni01CD" unicode="&#x1cd;" horiz-adv-x="740" 
d="M731 900l-178 -155h-168l-112 155h168l43 -56l67 56h180zM605 700l80 -700h-171l-14 138h-305l-69 -138h-181l358 700h302zM449 650l-180 -362h216z" />
    <glyph glyph-name="uni01CE" unicode="&#x1ce;" horiz-adv-x="546" 
d="M562 740l-147 -160h-178l-79 160h141l41 -66l69 66h153zM317 530q105 0 161.5 -55t32.5 -169l-65 -306h-160l24 116q-61 -126 -177 -126q-57 0 -97 38.5t-40 99.5q0 79 59 127t164 58l93 9q44 4 49 32q4 20 -13 33t-46 13q-37 0 -61.5 -17t-30.5 -48l-152 34
q18 67 88 114t171 47zM201 115q42 0 82 30t48 67l1 5q-17 -8 -39 -10l-79 -9q-57 -7 -57 -48q0 -35 44 -35z" />
    <glyph glyph-name="uni01CF" unicode="&#x1cf;" horiz-adv-x="270" 
d="M249 844l67 56h180l-178 -155h-168l-112 155h168zM165 0h-170l149 700h170z" />
    <glyph glyph-name="uni01D0" unicode="&#x1d0;" horiz-adv-x="260" 
d="M208 674l69 66h153l-147 -160h-178l-79 160h141zM155 0h-160l111 520h160z" />
    <glyph glyph-name="uni01D1" unicode="&#x1d1;" 
d="M761 900l-178 -155h-168l-112 155h168l43 -56l67 56h180zM473 710q141 0 230.5 -81.5t89.5 -216.5q0 -172 -126.5 -297t-300.5 -125q-141 0 -231 81.5t-90 216.5q0 113 58 210t157 154.5t213 57.5zM376 146q100 0 171 75.5t71 175.5q0 69 -43 113t-113 44
q-100 0 -171 -75.5t-71 -175.5q0 -69 43 -113t113 -44z" />
    <glyph glyph-name="uni01D2" unicode="&#x1d2;" horiz-adv-x="620" 
d="M593 740l-147 -160h-178l-79 160h141l41 -66l69 66h153zM348 530q109 0 177 -61.5t68 -165.5q0 -128 -94 -220.5t-225 -92.5q-110 0 -178.5 61.5t-68.5 165.5q0 128 94.5 220.5t226.5 92.5zM283 136q59 0 101.5 46.5t42.5 107.5q0 42 -24.5 68t-65.5 26
q-59 0 -101.5 -46.5t-42.5 -107.5q0 -42 24.5 -68t65.5 -26z" />
    <glyph glyph-name="Gcaron" unicode="&#x1e6;" 
d="M761 900l-178 -155h-168l-112 155h168l43 -56l67 56h180zM339 250l32 150h422q-4 -90 -42 -168t-98 -130.5t-134.5 -82t-152.5 -29.5q-141 0 -231 81.5t-90 216.5q0 113 58 210t157 154.5t213 57.5q119 0 199 -57t108 -147l-168 -59q-14 48 -53 77.5t-96 29.5
q-101 0 -172 -75.5t-71 -175.5q0 -69 43 -113t113 -44q63 0 115.5 31.5t78.5 72.5h-231z" />
    <glyph glyph-name="gcaron" unicode="&#x1e7;" horiz-adv-x="634" 
d="M617 740l-147 -160h-178l-79 160h141l41 -66l69 66h153zM448 376l31 144h160l-102 -480q-24 -115 -106.5 -182.5t-199.5 -67.5q-83 0 -146.5 40.5t-85.5 101.5l145 70q29 -66 95 -66q51 0 90.5 34.5t51.5 89.5l18 84q-37 -61 -90.5 -97.5t-111.5 -36.5q-79 0 -125 55
t-46 160q0 124 80 214.5t188 90.5q56 0 100 -39.5t54 -114.5zM284 156q59 0 100.5 43.5t41.5 100.5q0 38 -25.5 61t-66.5 23q-59 0 -100.5 -43.5t-41.5 -100.5q0 -38 25.5 -61t66.5 -23z" />
    <glyph glyph-name="uni01E8" unicode="&#x1e8;" horiz-adv-x="690" 
d="M686 900l-178 -155h-168l-112 155h168l43 -56l67 56h180zM525 700h229l-312 -291l193 -409h-188l-135 288l-107 -99l-40 -189h-170l149 700h170l-53 -248z" />
    <glyph glyph-name="uni01E9" unicode="&#x1e9;" horiz-adv-x="590" 
d="M642 960l-147 -160h-178l-79 160h141l41 -66l69 66h153zM231 358l175 162h220l-253 -227l172 -293h-185l-108 184l-71 -64l-26 -120h-160l157 740h160z" />
    <glyph glyph-name="uni01EA" unicode="&#x1ea;" 
d="M456 0q-28 -26 -28 -53q0 -24 31 -24q9 0 26 3l-11 -121q-42 -15 -91 -15q-57 0 -89 22.5t-32 61.5q0 33 27.5 65.5t78.5 50.5h-2q-141 0 -231 81.5t-90 216.5q0 113 58 210t157 154.5t213 57.5q141 0 230.5 -81.5t89.5 -216.5q0 -148 -96.5 -264t-240.5 -148zM220 303
q0 -69 43 -113t113 -44q100 0 171 75.5t71 175.5q0 69 -43 113t-113 44q-100 0 -171 -75.5t-71 -175.5z" />
    <glyph glyph-name="uni01EB" unicode="&#x1eb;" horiz-adv-x="620" 
d="M353 0q-28 -26 -28 -53q0 -24 31 -24q10 0 26 3l-11 -121q-42 -15 -91 -15q-57 0 -89 22.5t-32 61.5q0 33 27.5 65.5t78.5 50.5q-106 3 -172 64.5t-66 162.5q0 128 94.5 220.5t226.5 92.5q109 0 177 -61.5t68 -165.5q0 -107 -68 -191.5t-172 -111.5zM193 230
q0 -42 24.5 -68t65.5 -26q59 0 101.5 46.5t42.5 107.5q0 42 -24.5 68t-65.5 26q-59 0 -101.5 -46.5t-42.5 -107.5z" />
    <glyph glyph-name="uni01EE" unicode="&#x1ee;" horiz-adv-x="642" 
d="M689 900l-178 -155h-168l-112 155h168l43 -56l67 56h180zM415 550h-278l32 150h502l-28 -130l-175 -153q56 -24 90.5 -73t34.5 -114q0 -107 -88 -173.5t-214 -66.5q-94 0 -169 33t-115 91l115 112q34 -38 84.5 -59t97.5 -21q48 0 80.5 23t32.5 61q0 65 -109 65h-69
l27 127z" />
    <glyph glyph-name="uni01EF" unicode="&#x1ef;" horiz-adv-x="521" 
d="M545 740l-147 -160h-178l-79 160h141l41 -66l69 66h153zM315 380h-244l29 140h436l-27 -130l-185 -172q54 -26 86 -72.5t32 -110.5q0 -107 -79 -176t-193 -69q-105 0 -163 54t-57 133l149 34q-3 -31 19.5 -53t57.5 -22q42 0 71 26t29 68q0 75 -106 75h-41l28 130z" />
    <glyph glyph-name="uni01F1" unicode="&#x1f1;" horiz-adv-x="1320" 
d="M144 700h281q132 0 216 -81t84 -202q0 -170 -126.5 -293.5t-302.5 -123.5h-301zM844 700h520l-65 -303l-500 -247h448l-32 -150h-520l65 303l500 247h-448zM197 150h106q101 0 173.5 73.5t72.5 176.5q0 68 -43 109t-118 41h-106z" />
    <glyph glyph-name="uni01F2" unicode="&#x1f2;" horiz-adv-x="1255" 
d="M144 700h281q132 0 216 -81t84 -202q0 -170 -126.5 -293.5t-302.5 -123.5h-301zM197 150h106q101 0 173.5 73.5t72.5 176.5q0 68 -43 109t-118 41h-106zM821 520h440l-57 -265l-401 -115h377l-30 -140h-440l57 265l401 115h-377z" />
    <glyph glyph-name="uni01F4" unicode="&#x1f4;" 
d="M541 900h204l-195 -155h-174zM339 250l32 150h422q-4 -90 -42 -168t-98 -130.5t-134.5 -82t-152.5 -29.5q-141 0 -231 81.5t-90 216.5q0 113 58 210t157 154.5t213 57.5q119 0 199 -57t108 -147l-168 -59q-14 48 -53 77.5t-96 29.5q-101 0 -172 -75.5t-71 -175.5
q0 -69 43 -113t113 -44q63 0 115.5 31.5t78.5 72.5h-231z" />
    <glyph glyph-name="uni01F5" unicode="&#x1f5;" horiz-adv-x="634" 
d="M412 740h187l-157 -160h-157zM448 376l31 144h160l-102 -480q-24 -115 -106.5 -182.5t-199.5 -67.5q-83 0 -146.5 40.5t-85.5 101.5l145 70q29 -66 95 -66q51 0 90.5 34.5t51.5 89.5l18 84q-37 -61 -90.5 -97.5t-111.5 -36.5q-79 0 -125 55t-46 160q0 124 80 214.5
t188 90.5q56 0 100 -39.5t54 -114.5zM284 156q59 0 100.5 43.5t41.5 100.5q0 38 -25.5 61t-66.5 23q-59 0 -100.5 -43.5t-41.5 -100.5q0 -38 25.5 -61t66.5 -23z" />
    <glyph glyph-name="AEacute" unicode="&#x1fc;" horiz-adv-x="1000" 
d="M697 900h204l-195 -155h-174zM1054 700l-32 -150h-310l-27 -125h300l-32 -150h-300l-26 -125h310l-32 -150h-480l29 138h-224l-104 -138h-201l540 700h589zM542 551l-199 -263h143z" />
    <glyph glyph-name="aeacute" unicode="&#x1fd;" horiz-adv-x="942" 
d="M596 740h187l-157 -160h-157zM696 530q126 0 186 -97.5t15 -230.5h-379q7 -37 33 -56.5t64 -19.5q76 0 125 58l125 -60q-33 -59 -90 -96.5t-130 -37.5q-66 0 -110.5 41t-57.5 117l-31 -148h-160l24 116q-61 -126 -177 -126q-57 0 -97 38.5t-40 99.5q0 79 59 127t164 58
l93 9q45 5 49 32q4 20 -13 33t-46 13q-37 0 -61.5 -17t-30.5 -48l-152 34q18 67 88 114t171 47q134 0 180 -80q83 80 199 80zM664 394q-35 0 -68.5 -19t-54.5 -53h214q-6 31 -31 51.5t-60 20.5zM201 115q42 0 82 30t48 67l1 5q-17 -8 -39 -10l-79 -9q-28 -3 -42 -16.5
t-14 -31.5q0 -35 43 -35z" />
    <glyph glyph-name="Oslashacute" unicode="&#x1fe;" 
d="M541 900h204l-195 -155h-174zM703 762l105 -101l-68 -73q53 -75 53 -176q0 -172 -126.5 -297t-300.5 -125q-84 0 -154 31l-77 -83l-105 101l68 73q-53 75 -53 176q0 113 58 210t157 154.5t213 57.5q83 0 153 -31zM220 303q0 -24 7 -52l278 298q-23 5 -43 5
q-100 0 -171 -75.5t-71 -175.5zM618 397q0 24 -7 52l-278 -298q23 -5 43 -5q100 0 171 75.5t71 175.5z" />
    <glyph glyph-name="oslashacute" unicode="&#x1ff;" horiz-adv-x="620" 
d="M388 740h187l-157 -160h-157zM530 595l108 -80l-80 -86q35 -53 35 -126q0 -128 -94 -220.5t-225 -92.5q-59 0 -107 18l-77 -83l-108 80l80 86q-35 53 -35 126q0 128 94.5 220.5t226.5 92.5q58 0 105 -18zM183 230v-8l160 172h-6q-62 0 -108 -49t-46 -115zM437 290v8
l-160 -172h6q62 0 108 49t46 115z" />
    <glyph glyph-name="uni0218" unicode="&#x218;" horiz-adv-x="637" 
d="M35 187l169 35q17 -86 106 -86q44 0 72 19.5t28 49.5q0 27 -32 45t-77.5 32.5t-91 33.5t-77.5 60t-32 101q0 99 82.5 166t204.5 67q212 0 249 -197l-169 -35q-17 86 -97 86q-40 0 -63.5 -17t-23.5 -46q0 -22 23 -38t57 -25.5t74.5 -26t74.5 -36t57 -58t23 -90.5
q0 -105 -86.5 -171t-211.5 -66q-112 0 -176.5 52.5t-82.5 144.5zM267 -210h-128l55 175h162z" />
    <glyph glyph-name="uni0219" unicode="&#x219;" horiz-adv-x="510" 
d="M0 142l156 34q9 -61 72 -61q39 0 61.5 12.5t22.5 33.5q0 19 -27 28.5t-65 16t-76 18.5t-65 44t-27 84q0 72 65.5 125t163.5 53q92 0 152 -41.5t72 -110.5l-156 -34q-9 61 -73 61q-27 0 -45 -11.5t-18 -30.5q0 -20 27 -30t65 -17t76 -19.5t65 -44.5t27 -84
q0 -79 -75 -128.5t-170 -49.5t-156 41t-72 111zM201 -210h-128l55 175h162z" />
    <glyph glyph-name="uni021A" unicode="&#x21a;" horiz-adv-x="600" 
d="M330 0h-170l117 550h-205l32 150h580l-32 -150h-205zM238 -210h-128l55 175h162z" />
    <glyph glyph-name="uni021B" unicode="&#x21b;" horiz-adv-x="425" 
d="M136 380h-100l30 140h100l30 140l170 50l-40 -190h125l-30 -140h-125l-38 -180q-12 -60 47 -60h65l-30 -140h-54q-108 0 -157 59t-27 161zM213 -210h-128l55 175h162z" />
    <glyph glyph-name="uni0232" unicode="&#x232;" horiz-adv-x="682" 
d="M310 885h330l-26 -120h-330zM786 700l-363 -458l-20 -92h105l-32 -150h-380l32 150h105l20 92l-169 458h190l95 -288l217 288h200z" />
    <glyph glyph-name="uni0233" unicode="&#x233;" horiz-adv-x="560" 
d="M218 720h320l-26 -120h-320zM230 44l223 476h172l-341 -720h-172l97 200h-120l-44 520h162z" />
    <glyph glyph-name="uni0237" unicode="&#x237;" horiz-adv-x="280" 
d="M-115 -210l30 140q54 0 73 17.5t31 72.5l106 500h160l-106 -500q-27 -129 -92.5 -183t-201.5 -47z" />
    <glyph glyph-name="uni0259" unicode="&#x259;" horiz-adv-x="610" 
d="M336 530q110 0 178.5 -61.5t68.5 -165.5q0 -128 -94.5 -220.5t-226.5 -92.5q-133 0 -197.5 97.5t-19.5 230.5h379q-7 37 -33 56.5t-64 19.5q-76 0 -125 -58l-125 60q40 58 109.5 96t149.5 38zM278 126q35 0 68.5 19t54.5 53h-214q6 -31 31 -51.5t60 -20.5z" />
    <glyph glyph-name="uni0272" unicode="&#x272;" horiz-adv-x="615" 
d="M433 530q89 0 127.5 -67.5t18.5 -163.5l-64 -299h-160l61 289q9 43 -10.5 69.5t-63.5 26.5q-47 0 -82 -26.5t-44 -69.5l-57 -269q-28 -131 -92.5 -184t-201.5 -46l30 140q55 0 73.5 16.5t30.5 73.5l107 500h160l-26 -121q33 63 84 97t109 34z" />
    <glyph glyph-name="uni0292" unicode="&#x292;" horiz-adv-x="521" 
d="M100 520h436l-27 -130l-185 -172q54 -26 86 -72.5t32 -110.5q0 -107 -79 -176t-193 -69q-105 0 -163 54t-57 133l149 34q-3 -31 19.5 -53t57.5 -22q42 0 71 26t29 68q0 75 -106 75h-41l28 130l158 145h-244z" />
    <glyph glyph-name="uni02BC" unicode="&#x2bc;" horiz-adv-x="280" 
d="M227 750q54 0 87 -38.5t33 -97.5q0 -89 -63.5 -157t-162.5 -89l-41 92q111 28 136 89q-40 -3 -69.5 24t-29.5 72q0 44 31.5 74.5t78.5 30.5z" />
    <glyph glyph-name="circumflex" unicode="&#x2c6;" horiz-adv-x="504" 
d="M443 740l79 -160h-141l-41 66l-69 -66h-153l147 160h178z" />
    <glyph glyph-name="caron" unicode="&#x2c7;" horiz-adv-x="504" 
d="M334 674l69 66h153l-147 -160h-178l-79 160h141z" />
    <glyph glyph-name="breve" unicode="&#x2d8;" horiz-adv-x="444" 
d="M152 740h119q-5 -24 6.5 -39t35.5 -15q25 0 42 15t22 39h119q-9 -78 -63 -124t-125 -46q-82 0 -124 45t-32 125z" />
    <glyph glyph-name="dotaccent" unicode="&#x2d9;" horiz-adv-x="290" 
d="M135 660q0 39 28 67t67 28t67 -28t28 -67q0 -38 -28 -66.5t-67 -28.5t-67 28.5t-28 66.5z" />
    <glyph glyph-name="ring" unicode="&#x2da;" horiz-adv-x="373" 
d="M134 645q0 55 46 95t109 40q53 0 86.5 -29t33.5 -76q0 -55 -46 -95t-109 -40q-53 0 -86.5 29t-33.5 76zM230 651q0 -14 9 -22.5t24 -8.5q20 0 35 15t15 34q0 14 -9 22.5t-24 8.5q-20 0 -35 -15t-15 -34z" />
    <glyph glyph-name="ogonek" unicode="&#x2db;" horiz-adv-x="329" 
d="M113 0h51q-28 -26 -28 -53q0 -24 31 -24q9 0 26 3l-11 -121q-42 -15 -91 -15q-57 0 -89 22.5t-32 61.5t37.5 76t105.5 50z" />
    <glyph glyph-name="tilde" unicode="&#x2dc;" horiz-adv-x="520" 
d="M228 583l-99 48q21 55 63 84.5t96 29.5q36 0 74.5 -23.5t50.5 -23.5q36 0 49 39l99 -48q-21 -55 -63 -84.5t-96 -29.5q-36 0 -74.5 23.5t-50.5 23.5q-35 0 -49 -39z" />
    <glyph glyph-name="hungarumlaut" unicode="&#x2dd;" horiz-adv-x="560" 
d="M259 580h-141l127 160h167zM459 580h-141l127 160h167z" />
    <glyph glyph-name="gravecomb" unicode="&#x300;" horiz-adv-x="0" 
d="M18 580h-157l-89 160h167z" />
    <glyph glyph-name="acutecomb" unicode="&#x301;" horiz-adv-x="0" 
d="M-105 580h-157l127 160h187z" />
    <glyph glyph-name="uni0302" unicode="&#x302;" horiz-adv-x="0" 
d="M-61 740l79 -160h-141l-41 66l-69 -66h-153l147 160h178z" />
    <glyph glyph-name="tildecomb" unicode="&#x303;" horiz-adv-x="0" 
d="M-292 583l-99 48q21 55 63 84.5t96 29.5q36 0 74.5 -23.5t50.5 -23.5q35 0 49 39l99 -48q-21 -55 -63 -84.5t-96 -29.5q-36 0 -74.5 23.5t-50.5 23.5q-35 0 -49 -39z" />
    <glyph glyph-name="uni0304" unicode="&#x304;" horiz-adv-x="0" 
d="M22 600h-320l26 120h320z" />
    <glyph glyph-name="uni0306" unicode="&#x306;" horiz-adv-x="0" 
d="M-292 740h119q-5 -24 6.5 -39t35.5 -15q25 0 42 15t22 39h119q-9 -78 -63 -124t-125 -46q-82 0 -124 45t-32 125z" />
    <glyph glyph-name="uni0307" unicode="&#x307;" horiz-adv-x="0" 
d="M-155 660q0 39 28 67t67 28t67 -28t28 -67q0 -38 -28 -66.5t-67 -28.5t-67 28.5t-28 66.5z" />
    <glyph glyph-name="uni0308" unicode="&#x308;" horiz-adv-x="0" 
d="M-385 660q0 37 26.5 63.5t63.5 26.5t63.5 -26.5t26.5 -63.5q0 -36 -26.5 -63t-63.5 -27t-63.5 27t-26.5 63zM-145 660q0 37 26.5 63.5t63.5 26.5t63.5 -26.5t26.5 -63.5q0 -36 -26.5 -63t-63.5 -27t-63.5 27t-26.5 63z" />
    <glyph glyph-name="hookabovecomb" unicode="&#x309;" horiz-adv-x="0" 
d="M-137 540l-18 81q77 24 77 61q0 28 -27 28q-17 0 -27 -12.5t-12 -31.5h-115q5 60 51.5 97t113.5 37q63 0 98.5 -30.5t35.5 -75.5q0 -59 -48 -101.5t-129 -52.5z" />
    <glyph glyph-name="uni030A" unicode="&#x30a;" horiz-adv-x="0" 
d="M-239 645q0 55 46 95t109 40q53 0 86.5 -29t33.5 -76q0 -55 -46 -95t-109 -40q-53 0 -86.5 29t-33.5 76zM-143 651q0 -14 9 -22.5t24 -8.5q20 0 35 15t15 34q0 14 -9 22.5t-24 8.5q-20 0 -35 -15t-15 -34z" />
    <glyph glyph-name="uni030B" unicode="&#x30b;" horiz-adv-x="0" 
d="M-301 580h-141l127 160h167zM-101 580h-141l127 160h167z" />
    <glyph glyph-name="uni030C" unicode="&#x30c;" horiz-adv-x="0" 
d="M-170 674l69 66h153l-147 -160h-178l-79 160h141z" />
    <glyph glyph-name="uni0312" unicode="&#x312;" horiz-adv-x="0" 
d="M-3 565h-162l89 175h128z" />
    <glyph glyph-name="uni031B" unicode="&#x31b;" horiz-adv-x="0" 
d="M-232 480l8 40q99 0 99 80q0 30 -12 70h140q13 -42 13 -80q0 -61 -37.5 -101t-92.5 -43t-118 34z" />
    <glyph glyph-name="dotbelowcomb" unicode="&#x323;" horiz-adv-x="0" 
d="M-325 -140q0 39 28 67t67 28t67 -28t28 -67q0 -38 -28 -66.5t-67 -28.5t-67 28.5t-28 66.5z" />
    <glyph glyph-name="uni0326" unicode="&#x326;" horiz-adv-x="0" 
d="M-202 -210h-128l55 175h162z" />
    <glyph glyph-name="uni0327" unicode="&#x327;" horiz-adv-x="0" 
d="M-381 -194l45 120q10 -3 21 -3q23 0 36 11t13 30q0 16 -15 36h39q55 -5 85.5 -34.5t30.5 -68.5q0 -42 -48 -74.5t-121 -32.5q-47 0 -86 16z" />
    <glyph glyph-name="uni0328" unicode="&#x328;" horiz-adv-x="0" 
d="M-216 0h51q-28 -26 -28 -53q0 -24 31 -24q10 0 26 3l-11 -121q-42 -15 -91 -15q-57 0 -89 22.5t-32 61.5t37.5 76t105.5 50z" />
    <glyph glyph-name="uni0335" unicode="&#x335;" horiz-adv-x="0" 
d="M-44 290h-370l26 120h370z" />
    <glyph glyph-name="uni0374" unicode="&#x374;" horiz-adv-x="280" 
d="M227 750q54 0 87 -38.5t33 -97.5q0 -89 -63.5 -157t-162.5 -89l-41 92q111 28 136 89q-40 -3 -69.5 24t-29.5 72q0 44 31.5 74.5t78.5 30.5z" />
    <glyph glyph-name="uni0375" unicode="&#x375;" horiz-adv-x="280" 
d="M110 200q54 0 87 -38.5t33 -97.5q0 -89 -63.5 -157t-162.5 -89l-41 92q111 28 136 89q-40 -3 -69.5 24t-29.5 72q0 44 31.5 74.5t78.5 30.5z" />
    <glyph glyph-name="uni037A" unicode="&#x37a;" horiz-adv-x="330" 
d="M208 -77l-25 -120q-114 -29 -165 16t-33 136l5 25h145l-2 -10q-7 -34 10 -44.5t65 -2.5z" />
    <glyph glyph-name="uni037E" unicode="&#x37e;" horiz-adv-x="280" 
d="M175 530q43 0 74 -31t31 -74q0 -42 -31 -73.5t-74 -31.5t-74 31.5t-31 73.5q0 43 31 74t74 31zM110 200q54 0 87 -38.5t33 -97.5q0 -89 -63.5 -157t-162.5 -89l-41 92q111 28 136 89q-40 -3 -69.5 24t-29.5 72q0 44 31.5 74.5t78.5 30.5z" />
    <glyph glyph-name="tonos" unicode="&#x384;" horiz-adv-x="335" 
d="M266 580h-148l97 160h172z" />
    <glyph glyph-name="dieresistonos" unicode="&#x385;" horiz-adv-x="620" 
d="M135 660q0 33 23.5 56.5t56.5 23.5t56.5 -23.5t23.5 -56.5q0 -32 -23.5 -56t-56.5 -24t-56.5 24t-23.5 56zM401 580h-128l97 160h152zM495 660q0 33 23.5 56.5t56.5 23.5t56.5 -23.5t23.5 -56.5q0 -32 -23.5 -56t-56.5 -24t-56.5 24t-23.5 56z" />
    <glyph glyph-name="Alphatonos" unicode="&#x386;" horiz-adv-x="740" 
d="M685 0h-171l-14 138h-305l-69 -138h-181l358 700h302zM102 700h172l-121 -160h-148zM449 650l-180 -362h216z" />
    <glyph glyph-name="anoteleia" unicode="&#x387;" horiz-adv-x="280" 
d="M70 425q0 43 31 74t74 31t74 -31t31 -74q0 -42 -31 -73.5t-74 -31.5t-74 31.5t-31 73.5z" />
    <glyph glyph-name="Epsilontonos" unicode="&#x388;" horiz-adv-x="570" 
d="M-44 540h-148l97 160h172zM475 0h-480l149 700h480l-32 -150h-310l-27 -125h300l-32 -150h-300l-26 -125h310z" />
    <glyph glyph-name="Etatonos" unicode="&#x389;" horiz-adv-x="720" 
d="M-44 540h-148l97 160h172zM165 0h-170l149 700h170l-59 -275h280l59 275h170l-149 -700h-170l58 275h-280z" />
    <glyph glyph-name="Iotatonos" unicode="&#x38a;" horiz-adv-x="270" 
d="M-44 540h-148l97 160h172zM165 0h-170l149 700h170z" />
    <glyph glyph-name="Omicrontonos" unicode="&#x38c;" 
d="M45 288q0 113 58 210t157 154.5t213 57.5q141 0 230.5 -81.5t89.5 -216.5q0 -172 -126.5 -297t-300.5 -125q-141 0 -231 81.5t-90 216.5zM36 540h-148l97 160h172zM220 303q0 -69 43 -113t113 -44q100 0 171 75.5t71 175.5q0 69 -43 113t-113 44q-100 0 -171 -75.5
t-71 -175.5z" />
    <glyph glyph-name="Upsilontonos" unicode="&#x38e;" horiz-adv-x="682" 
d="M-44 540h-148l97 160h172zM786 700l-363 -458l-20 -92h105l-32 -150h-380l32 150h105l20 92l-169 458h190l95 -288l217 288h200z" />
    <glyph glyph-name="Omegatonos" unicode="&#x38f;" 
d="M793 442q0 -96 -63.5 -174.5t-177.5 -117.5h200l-32 -150h-310l28 130q180 128 180 267q0 69 -41 113t-110 44q-100 0 -168.5 -75t-68.5 -176q0 -94 78 -173l-28 -130h-310l32 150h210q-147 66 -147 210q0 136 118.5 243t294.5 107q141 0 228 -79t87 -189zM7 700h172
l-121 -160h-148z" />
    <glyph glyph-name="iotadieresistonos" unicode="&#x390;" horiz-adv-x="320" 
d="M-35 660q0 33 23.5 56.5t56.5 23.5t56.5 -23.5t23.5 -56.5q0 -32 -23.5 -56t-56.5 -24t-56.5 24t-23.5 56zM231 580h-128l97 160h152zM325 660q0 33 23.5 56.5t56.5 23.5t56.5 -23.5t23.5 -56.5q0 -32 -23.5 -56t-56.5 -24t-56.5 24t-23.5 56zM42 220l64 300h160
l-68 -320q-12 -60 47 -60h35l-30 -140h-24q-108 0 -157 59t-27 161z" />
    <glyph glyph-name="Alpha" unicode="&#x391;" horiz-adv-x="740" 
d="M685 0h-171l-14 138h-305l-69 -138h-181l358 700h302zM449 650l-180 -362h216z" />
    <glyph glyph-name="Beta" unicode="&#x392;" horiz-adv-x="650" 
d="M450 352q147 -20 147 -142q0 -89 -71 -149.5t-179 -60.5h-352l149 700h302q83 0 135.5 -44.5t52.5 -105.5q0 -80 -49 -131.5t-135 -66.5zM415 555h-137l-29 -135h137q39 0 65.5 24t26.5 59q0 24 -16 38t-47 14zM191 145h144q39 0 65 24.5t26 59.5q0 23 -16 37t-46 14
h-144z" />
    <glyph glyph-name="Gamma" unicode="&#x393;" horiz-adv-x="540" 
d="M165 0h-170l149 700h480l-32 -150h-310z" />
    <glyph glyph-name="uni0394" unicode="&#x394;" horiz-adv-x="740" 
d="M605 700l80 -700h-740l358 700h302zM449 650l-243 -490h292z" />
    <glyph glyph-name="Epsilon" unicode="&#x395;" horiz-adv-x="570" 
d="M475 0h-480l149 700h480l-32 -150h-310l-27 -125h300l-32 -150h-300l-26 -125h310z" />
    <glyph glyph-name="Zeta" unicode="&#x396;" horiz-adv-x="620" 
d="M144 700h520l-65 -303l-500 -247h448l-32 -150h-520l65 303l500 247h-448z" />
    <glyph glyph-name="Eta" unicode="&#x397;" horiz-adv-x="720" 
d="M165 0h-170l149 700h170l-59 -275h280l59 275h170l-149 -700h-170l58 275h-280z" />
    <glyph glyph-name="Theta" unicode="&#x398;" 
d="M45 288q0 113 58 210t157 154.5t213 57.5q141 0 230.5 -81.5t89.5 -216.5q0 -172 -126.5 -297t-300.5 -125q-141 0 -231 81.5t-90 216.5zM220 303q0 -69 43 -113t113 -44q100 0 171 75.5t71 175.5q0 69 -43 113t-113 44q-100 0 -171 -75.5t-71 -175.5zM539 275h-272
l32 150h272z" />
    <glyph glyph-name="Iota" unicode="&#x399;" horiz-adv-x="270" 
d="M165 0h-170l149 700h170z" />
    <glyph glyph-name="Kappa" unicode="&#x39a;" horiz-adv-x="690" 
d="M525 700h229l-312 -291l193 -409h-188l-135 288l-107 -99l-40 -189h-170l149 700h170l-53 -248z" />
    <glyph glyph-name="Lambda" unicode="&#x39b;" horiz-adv-x="710" 
d="M586 700l68 -700h-171l-50 649l-308 -649h-181l346 700h296z" />
    <glyph glyph-name="Mu" unicode="&#x39c;" horiz-adv-x="920" 
d="M944 700l-149 -700h-160l138 649l-228 -649h-301l49 649l-138 -649h-160l149 700h308l-49 -649l228 649h313z" />
    <glyph glyph-name="Nu" unicode="&#x39d;" horiz-adv-x="740" 
d="M475 48l139 652h170l-149 -700h-319l-12 652l-139 -652h-170l149 700h319z" />
    <glyph glyph-name="Xi" unicode="&#x39e;" horiz-adv-x="680" 
d="M724 700l-34 -160h-205l-23 -110h194l-34 -160h-195l-23 -110h205l-34 -160h-580l34 160h205l23 110h-195l34 160h196l23 110h-205l34 160h580z" />
    <glyph glyph-name="Omicron" unicode="&#x39f;" 
d="M45 288q0 113 58 210t157 154.5t213 57.5q141 0 230.5 -81.5t89.5 -216.5q0 -172 -126.5 -297t-300.5 -125q-141 0 -231 81.5t-90 216.5zM220 303q0 -69 43 -113t113 -44q100 0 171 75.5t71 175.5q0 69 -43 113t-113 44q-100 0 -171 -75.5t-71 -175.5z" />
    <glyph glyph-name="Pi" unicode="&#x3a0;" horiz-adv-x="720" 
d="M165 0h-170l149 700h620l-149 -700h-170l117 550h-280z" />
    <glyph glyph-name="Rho" unicode="&#x3a1;" horiz-adv-x="640" 
d="M165 0h-170l149 700h289q105 0 172.5 -59.5t67.5 -145.5q0 -124 -87.5 -202t-225.5 -78h-149zM282 550l-39 -185h137q48 0 82.5 34t34.5 81q0 32 -21 51t-57 19h-137z" />
    <glyph glyph-name="Sigma" unicode="&#x3a3;" horiz-adv-x="580" 
d="M134 700h500l-32 -150h-452l344 -105l-38 -180l-389 -105h452l-34 -160h-500l64 304l208 56l-184 56z" />
    <glyph glyph-name="Tau" unicode="&#x3a4;" horiz-adv-x="600" 
d="M330 0h-170l117 550h-205l32 150h580l-32 -150h-205z" />
    <glyph glyph-name="Upsilon" unicode="&#x3a5;" horiz-adv-x="682" 
d="M786 700l-363 -458l-20 -92h105l-32 -150h-380l32 150h105l20 92l-169 458h190l95 -288l217 288h200z" />
    <glyph glyph-name="Phi" unicode="&#x3a6;" horiz-adv-x="908" 
d="M624 660q122 0 199.5 -70t77.5 -188q0 -151 -111.5 -256.5t-277.5 -105.5h-20l-17 -80h-170l17 80q-122 0 -199.5 70t-77.5 188q0 151 111.5 256.5t277.5 105.5h20l17 80h170zM215 312q0 -63 34 -92.5t105 -29.5l68 320h-10q-85 0 -141 -57.5t-56 -140.5zM524 190h10
q85 0 141 57.5t56 140.5q0 63 -34 92.5t-105 29.5z" />
    <glyph glyph-name="Chi" unicode="&#x3a7;" horiz-adv-x="688" 
d="M571 700h211l-318 -355l169 -345h-196l-98 213l-183 -213h-211l318 355l-169 345h196l98 -213z" />
    <glyph glyph-name="Psi" unicode="&#x3a8;" horiz-adv-x="830" 
d="M655 422l59 278h170l-63 -298q-27 -126 -118 -194t-228 -68l-30 -140h-170l30 141q-127 6 -190.5 89t-35.5 212l55 258h170l-59 -278q-12 -57 11.5 -90t81.5 -36l86 404h170l-86 -404q59 3 97 36t50 90z" />
    <glyph glyph-name="uni03A9" unicode="&#x3a9;" 
d="M793 442q0 -96 -63.5 -174.5t-177.5 -117.5h200l-32 -150h-310l28 130q180 128 180 267q0 69 -41 113t-110 44q-100 0 -168.5 -75t-68.5 -176q0 -94 78 -173l-28 -130h-310l32 150h210q-147 66 -147 210q0 136 118.5 243t294.5 107q141 0 228 -79t87 -189z" />
    <glyph glyph-name="Iotadieresis" unicode="&#x3aa;" horiz-adv-x="270" 
d="M60 825q0 37 26.5 63.5t63.5 26.5t63.5 -26.5t26.5 -63.5q0 -36 -26.5 -63t-63.5 -27t-63.5 27t-26.5 63zM270 825q0 37 26.5 63.5t63.5 26.5t63.5 -26.5t26.5 -63.5q0 -36 -26.5 -63t-63.5 -27t-63.5 27t-26.5 63zM165 0h-170l149 700h170z" />
    <glyph glyph-name="Upsilondieresis" unicode="&#x3ab;" horiz-adv-x="682" 
d="M342 735q-37 0 -63.5 27t-26.5 63q0 37 26.5 63.5t63.5 26.5t63.5 -26.5t26.5 -63.5q0 -36 -26.5 -63t-63.5 -27zM582 735q-37 0 -63.5 27t-26.5 63q0 37 26.5 63.5t63.5 26.5t63.5 -26.5t26.5 -63.5q0 -36 -26.5 -63t-63.5 -27zM786 700l-363 -458l-20 -92h105l-32 -150
h-380l32 150h105l20 92l-169 458h190l95 -288l217 288h200z" />
    <glyph glyph-name="alphatonos" unicode="&#x3ac;" horiz-adv-x="694" 
d="M382 740h172l-121 -160h-148zM618 140h35l-30 -140h-24q-78 0 -126 31.5t-60 88.5q-40 -60 -94.5 -95t-113.5 -35q-85 0 -133 57.5t-48 157.5q0 131 80 228t188 97q65 0 106 -42t50 -113l31 145h160l-68 -320q-12 -60 47 -60zM280 136q59 0 101.5 46.5t42.5 107.5
q0 42 -24.5 68t-65.5 26q-59 0 -101.5 -46.5t-42.5 -107.5q0 -42 24.5 -68t65.5 -26z" />
    <glyph glyph-name="epsilontonos" unicode="&#x3ad;" horiz-adv-x="544" 
d="M357 740h187l-157 -160h-157zM242 126q43 0 92.5 17t82.5 49l68 -113q-44 -42 -115 -65.5t-147 -23.5q-99 0 -155 33.5t-56 96.5q0 50 47.5 89.5t124.5 50.5q-60 9 -91 38.5t-31 73.5q0 63 75 110.5t181 47.5q157 0 244 -89l-104 -103q-32 30 -78 43t-81 13
q-73 0 -73 -39q0 -30 79 -30h78l-28 -130h-78q-21 0 -33.5 -1t-28 -4t-23.5 -11.5t-8 -21.5q0 -31 58 -31z" />
    <glyph glyph-name="etatonos" unicode="&#x3ae;" horiz-adv-x="615" 
d="M378 740h172l-121 -160h-148zM433 530q89 0 127.5 -67.5t18.5 -163.5l-107 -499h-160l104 489q9 43 -10.5 69.5t-63.5 26.5q-47 0 -82 -26.5t-44 -69.5l-61 -289h-160l111 520h160l-26 -121q33 63 84 97t109 34z" />
    <glyph glyph-name="iotatonos" unicode="&#x3af;" horiz-adv-x="320" 
d="M268 580h-148l97 160h172zM42 220l64 300h160l-68 -320q-12 -60 47 -60h35l-30 -140h-24q-108 0 -157 59t-27 161z" />
    <glyph glyph-name="upsilondieresistonos" unicode="&#x3b0;" horiz-adv-x="590" 
d="M130 660q0 33 23.5 56.5t56.5 23.5t56.5 -23.5t23.5 -56.5q0 -32 -23.5 -56t-56.5 -24t-56.5 24t-23.5 56zM396 580h-128l97 160h152zM490 660q0 33 23.5 56.5t56.5 23.5t56.5 -23.5t23.5 -56.5q0 -32 -23.5 -56t-56.5 -24t-56.5 24t-23.5 56zM42 242l58 278h160
l-63 -298q-8 -39 11.5 -62.5t60.5 -23.5q39 0 69.5 24t38.5 62l63 298h160l-67 -318q-21 -102 -97.5 -157t-187.5 -55t-170 71t-36 181z" />
    <glyph glyph-name="alpha" unicode="&#x3b1;" horiz-adv-x="694" 
d="M618 140h35l-30 -140h-24q-78 0 -126 31.5t-60 88.5q-40 -60 -94.5 -95t-113.5 -35q-85 0 -133 57.5t-48 157.5q0 131 80 228t188 97q65 0 106 -42t50 -113l31 145h160l-68 -320q-12 -60 47 -60zM280 136q59 0 101.5 46.5t42.5 107.5q0 42 -24.5 68t-65.5 26
q-59 0 -101.5 -46.5t-42.5 -107.5q0 -42 24.5 -68t65.5 -26z" />
    <glyph glyph-name="beta" unicode="&#x3b2;" horiz-adv-x="637" 
d="M456 381q63 -19 99 -60.5t36 -99.5q0 -92 -72.5 -161.5t-170.5 -69.5q-67 0 -111 42.5t-51 117.5l-74 -350h-160l146 685q26 123 109.5 194t208.5 71q95 0 153.5 -48t58.5 -115q0 -74 -46 -128.5t-126 -77.5zM305 136q55 0 90.5 30.5t35.5 77.5q0 29 -22.5 47.5
t-64.5 18.5h-41l30 140h24q47 0 78 26t31 66q0 27 -21 44.5t-55 17.5q-45 0 -82.5 -30t-49.5 -87l-50 -233h1q-13 -58 14 -88t82 -30z" />
    <glyph glyph-name="gamma" unicode="&#x3b3;" horiz-adv-x="560" 
d="M256 167l199 353h171l-326 -546l-37 -174h-160l37 174l-94 546h162z" />
    <glyph glyph-name="delta" unicode="&#x3b4;" horiz-adv-x="620" 
d="M215 740h427l-30 -140h-215q200 -149 200 -307q0 -121 -96 -212t-229 -91q-114 0 -180 65t-66 158q0 111 65.5 178.5t166.5 67.5q88 0 159 -113q-43 119 -228 274zM287 136q54 0 94.5 38t40.5 89q0 40 -26.5 65.5t-69.5 25.5q-54 0 -93.5 -38t-39.5 -89q0 -40 25.5 -65.5
t68.5 -25.5z" />
    <glyph glyph-name="epsilon" unicode="&#x3b5;" horiz-adv-x="544" 
d="M242 126q43 0 92.5 17t82.5 49l68 -113q-44 -42 -115 -65.5t-147 -23.5q-99 0 -155 33.5t-56 96.5q0 50 47.5 89.5t124.5 50.5q-60 9 -91 38.5t-31 73.5q0 63 75 110.5t181 47.5q157 0 244 -89l-104 -103q-32 30 -78 43t-81 13q-73 0 -73 -39q0 -30 79 -30h78l-28 -130
h-78q-21 0 -33.5 -1t-28 -4t-23.5 -11.5t-8 -21.5q0 -31 58 -31z" />
    <glyph glyph-name="zeta" unicode="&#x3b6;" horiz-adv-x="500" 
d="M602 740l-25 -120q-224 -151 -305.5 -236.5t-81.5 -163.5q0 -57 109 -80q249 -54 78 -310l-144 20q19 32 30 54t12.5 38.5t-1 25.5t-17 16.5t-28 11t-41.5 9.5q-81 17 -127.5 57.5t-46.5 125.5q0 114 117 232.5t338 179.5h-336l29 140h440z" />
    <glyph glyph-name="eta" unicode="&#x3b7;" horiz-adv-x="615" 
d="M433 530q89 0 127.5 -67.5t18.5 -163.5l-107 -499h-160l104 489q9 43 -10.5 69.5t-63.5 26.5q-47 0 -82 -26.5t-44 -69.5l-61 -289h-160l111 520h160l-26 -121q33 63 84 97t109 34z" />
    <glyph glyph-name="theta" unicode="&#x3b8;" horiz-adv-x="620" 
d="M404 750q102 0 158.5 -70.5t56.5 -190.5q0 -128 -48 -243.5t-130.5 -185.5t-177.5 -70q-101 0 -157.5 70.5t-56.5 190.5q0 128 47.5 243.5t130 185.5t177.5 70zM384 604q-37 0 -74 -46t-62 -118h203q2 32 2 49q0 57 -18.5 86t-50.5 29zM284 136q37 0 74 46t62 118h-203
q-2 -32 -2 -49q0 -57 18.5 -86t50.5 -29z" />
    <glyph glyph-name="iota" unicode="&#x3b9;" horiz-adv-x="320" 
d="M42 220l64 300h160l-68 -320q-12 -60 47 -60h35l-30 -140h-24q-108 0 -157 59t-27 161z" />
    <glyph glyph-name="kappa" unicode="&#x3ba;" horiz-adv-x="590" 
d="M405 520h221l-253 -227l172 -293h-186l-107 184l-71 -64l-26 -120h-160l111 520h160l-35 -162z" />
    <glyph glyph-name="lambda" unicode="&#x3bb;" horiz-adv-x="560" 
d="M438 740l77 -740h-152l-46 448l-200 -448h-182l256 520h119l-23 220h151z" />
    <glyph glyph-name="uni03BC" unicode="&#x3bc;" horiz-adv-x="620" 
d="M404 231l62 289h160l-111 -520h-160l26 123q-34 -64 -85.5 -98.5t-107.5 -34.5q-20 0 -35 4l-41 -194h-160l154 720h160l-62 -287v-2q-9 -43 10.5 -69.5t63.5 -26.5q47 0 82 26.5t44 69.5z" />
    <glyph glyph-name="nu" unicode="&#x3bd;" horiz-adv-x="560" 
d="M239 50l214 470h172l-256 -520h-270l-54 520h162z" />
    <glyph glyph-name="xi" unicode="&#x3be;" horiz-adv-x="550" 
d="M291 521q0 -31 25 -51t73 -20h122l-30 -140h-137q-135 0 -135 -84q0 -35 27.5 -53.5t92.5 -32.5q39 -9 67.5 -21.5t51.5 -36.5t28 -56t-11 -82.5t-58 -113.5l-144 20q19 32 30 54t12.5 38.5t-1 25.5t-17 16.5t-28 11t-41.5 9.5q-185 38 -185 172q0 81 63 138.5t174 77.5
q-144 31 -144 146q0 91 79.5 151t189.5 60q100 0 157.5 -52t64.5 -125l-156 -34q-4 27 -25 46t-58 19q-33 0 -60 -23.5t-27 -59.5z" />
    <glyph glyph-name="omicron" unicode="&#x3bf;" horiz-adv-x="620" 
d="M27 217q0 128 94.5 220.5t226.5 92.5q109 0 177 -61.5t68 -165.5q0 -128 -94 -220.5t-225 -92.5q-110 0 -178.5 61.5t-68.5 165.5zM193 230q0 -42 24.5 -68t65.5 -26q59 0 101.5 46.5t42.5 107.5q0 42 -24.5 68t-65.5 26q-59 0 -101.5 -46.5t-42.5 -107.5z" />
    <glyph glyph-name="pi" unicode="&#x3c0;" horiz-adv-x="670" 
d="M666 380h-95l-38 -180q-12 -60 47 -60h35l-30 -140h-24q-108 0 -157 59t-27 161l34 160h-125l-81 -380h-160l81 380h-80l30 140h620z" />
    <glyph glyph-name="rho" unicode="&#x3c1;" horiz-adv-x="634" 
d="M362 530q108 0 176.5 -59.5t68.5 -155.5q0 -131 -80 -228t-188 -97q-59 0 -101 44t-51 116l-75 -350h-160l98 460q25 118 110 194t202 76zM302 136q56 0 97.5 46.5t41.5 107.5q0 42 -25 68t-66 26q-49 0 -89 -35.5t-51 -88.5t15 -88.5t77 -35.5z" />
    <glyph glyph-name="uni03C2" unicode="&#x3c2;" horiz-adv-x="560" 
d="M381 -170l-144 20q19 32 30 54t11 38.5t-2 25.5t-19 18t-27.5 13t-40.5 13q-69 21 -115.5 74t-46.5 131q0 128 94.5 220.5t226.5 92.5q85 0 148 -44t79 -123l-146 -50q-8 34 -33 52.5t-59 18.5q-56 0 -100 -47t-44 -107q0 -65 110 -90q39 -9 67.5 -21.5t51.5 -36.5
t28 -56t-11 -82.5t-58 -113.5z" />
    <glyph glyph-name="sigma" unicode="&#x3c3;" horiz-adv-x="628" 
d="M346 520h317l-31 -146h-187q63 -20 99.5 -61t36.5 -96q0 -95 -89 -161t-220 -66q-110 0 -178.5 60.5t-68.5 162.5q0 126 94.5 216.5t226.5 90.5zM425 284q0 40 -24.5 65t-65.5 25q-59 0 -101.5 -44.5t-42.5 -103.5q0 -40 24.5 -65t65.5 -25q59 0 101.5 44.5t42.5 103.5z
" />
    <glyph glyph-name="tau" unicode="&#x3c4;" horiz-adv-x="526" 
d="M532 380h-163l-38 -180q-12 -60 47 -60h35l-30 -140h-24q-108 0 -157 59t-27 161l34 160h-163l30 140h486z" />
    <glyph glyph-name="upsilon" unicode="&#x3c5;" horiz-adv-x="590" 
d="M42 242l58 278h160l-63 -298q-8 -39 11.5 -62.5t60.5 -23.5q39 0 69.5 24t38.5 62l63 298h160l-67 -318q-21 -102 -97.5 -157t-187.5 -55t-170 71t-36 181z" />
    <glyph glyph-name="phi" unicode="&#x3c6;" horiz-adv-x="760" 
d="M556 710l-38 -181q94 -8 155 -68t61 -158q0 -128 -95 -221.5t-236 -91.5l-40 -190h-160l40 191q-97 10 -156.5 68.5t-59.5 157.5q0 128 95.5 221.5t235.5 91.5l27 130zM487 384l-53 -248q56 4 95 50t39 104q0 39 -22 64.5t-59 29.5zM193 230q0 -39 22 -64.5t59 -29.5
l53 248q-56 -5 -95 -50.5t-39 -103.5z" />
    <glyph glyph-name="chi" unicode="&#x3c7;" horiz-adv-x="580" 
d="M445 520h180l-270 -365l117 -355h-170l-61 215l-149 -215h-180l270 365l-117 355h170l61 -215z" />
    <glyph glyph-name="psi" unicode="&#x3c8;" horiz-adv-x="750" 
d="M537 222l63 298h160l-65 -308q-22 -103 -101.5 -162.5t-195.5 -59.5l-41 -190h-160l40 190q-104 1 -162 70.5t-36 171.5l61 288h160l-63 -298q-8 -39 11 -62t60 -24l112 524l171 50l-122 -574q39 0 69.5 24t38.5 62z" />
    <glyph glyph-name="omega" unicode="&#x3c9;" 
d="M513 404l71 126q86 -23 132 -88t46 -159q0 -112 -75.5 -202.5t-174.5 -90.5q-58 0 -95 41.5t-34 111.5q-28 -71 -82 -112t-111 -41q-163 0 -163 194q0 118 87.5 220.5t215.5 125.5l21 -136q-66 -19 -110.5 -74.5t-44.5 -121.5q0 -29 12.5 -45.5t30.5 -16.5q54 0 76 100
l22 104h160l-22 -104q-22 -100 34 -100q33 0 58.5 43.5t25.5 98.5q0 99 -80 126z" />
    <glyph glyph-name="iotadieresis" unicode="&#x3ca;" horiz-adv-x="320" 
d="M30 660q7 37 40 63.5t69 26.5q32 0 52.5 -21t20.5 -51q0 -40 -35 -74t-76 -34q-37 0 -58 27t-13 63zM220 660q7 37 40 63.5t69 26.5q32 0 52.5 -21t20.5 -51q0 -40 -35 -74t-76 -34q-37 0 -58 27t-13 63zM42 220l64 300h160l-68 -320q-12 -60 47 -60h35l-30 -140h-24
q-108 0 -157 59t-27 161z" />
    <glyph glyph-name="upsilondieresis" unicode="&#x3cb;" horiz-adv-x="590" 
d="M170 660q0 37 26.5 63.5t63.5 26.5t63.5 -26.5t26.5 -63.5q0 -36 -26.5 -63t-63.5 -27t-63.5 27t-26.5 63zM410 660q0 37 26.5 63.5t63.5 26.5t63.5 -26.5t26.5 -63.5q0 -36 -26.5 -63t-63.5 -27t-63.5 27t-26.5 63zM42 242l58 278h160l-63 -298q-8 -39 11.5 -62.5
t60.5 -23.5q39 0 69.5 24t38.5 62l63 298h160l-67 -318q-21 -102 -97.5 -157t-187.5 -55t-170 71t-36 181z" />
    <glyph glyph-name="omicrontonos" unicode="&#x3cc;" horiz-adv-x="620" 
d="M409 580h-148l97 160h172zM27 217q0 128 94.5 220.5t226.5 92.5q109 0 177 -61.5t68 -165.5q0 -128 -94 -220.5t-225 -92.5q-110 0 -178.5 61.5t-68.5 165.5zM193 230q0 -42 24.5 -68t65.5 -26q59 0 101.5 46.5t42.5 107.5q0 42 -24.5 68t-65.5 26q-59 0 -101.5 -46.5
t-42.5 -107.5z" />
    <glyph glyph-name="upsilontonos" unicode="&#x3cd;" horiz-adv-x="590" 
d="M411 580h-148l97 160h172zM42 242l58 278h160l-63 -298q-8 -39 11.5 -62.5t60.5 -23.5q39 0 69.5 24t38.5 62l63 298h160l-67 -318q-21 -102 -97.5 -157t-187.5 -55t-170 71t-36 181z" />
    <glyph glyph-name="omegatonos" unicode="&#x3ce;" 
d="M468 740h172l-121 -160h-148zM513 404l71 126q86 -23 132 -88t46 -159q0 -112 -75.5 -202.5t-174.5 -90.5q-58 0 -95 41.5t-34 111.5q-28 -71 -82 -112t-111 -41q-163 0 -163 194q0 118 87.5 220.5t215.5 125.5l21 -136q-66 -19 -110.5 -74.5t-44.5 -121.5
q0 -29 12.5 -45.5t30.5 -16.5q54 0 76 100l22 104h160l-22 -104q-22 -100 34 -100q33 0 58.5 43.5t25.5 98.5q0 99 -80 126z" />
    <glyph glyph-name="uni0400" unicode="&#x400;" horiz-adv-x="570" 
d="M517 745h-174l-129 155h184zM475 0h-480l149 700h480l-32 -150h-310l-27 -125h300l-32 -150h-300l-26 -125h310z" />
    <glyph glyph-name="uni0401" unicode="&#x401;" horiz-adv-x="570" 
d="M196 825q0 37 26.5 63.5t63.5 26.5t63.5 -26.5t26.5 -63.5q0 -36 -26.5 -63t-63.5 -27t-63.5 27t-26.5 63zM436 825q0 37 26.5 63.5t63.5 26.5t63.5 -26.5t26.5 -63.5q0 -36 -26.5 -63t-63.5 -27t-63.5 27t-26.5 63zM475 0h-480l149 700h480l-32 -150h-310l-27 -125h300
l-32 -150h-300l-26 -125h310z" />
    <glyph glyph-name="uni0402" unicode="&#x402;" horiz-adv-x="785" 
d="M539 455q94 0 154.5 -52.5t60.5 -142.5q0 -117 -78.5 -193.5t-187.5 -76.5q-69 0 -129 21l51 142q33 -11 61 -11q49 0 75.5 27.5t26.5 66.5q0 69 -87 69q-48 0 -116 -24l-60 -281h-170l117 550h-185l32 150h580l-32 -150h-225l-25 -117q70 22 137 22z" />
    <glyph glyph-name="uni0403" unicode="&#x403;" horiz-adv-x="540" 
d="M440 745h-174l165 155h204zM165 0h-170l149 700h480l-32 -150h-310z" />
    <glyph glyph-name="uni0404" unicode="&#x404;" horiz-adv-x="760" 
d="M376 146q60 0 112 29t84 78l154 -64q-53 -85 -148 -142t-212 -57q-141 0 -231 81.5t-90 216.5q0 113 58 210t157 154.5t213 57.5q119 0 199 -57t108 -147l-168 -59q-14 48 -53 77.5t-96 29.5q-67 0 -123 -35.5t-88 -93.5h289l-32 -150h-287q8 -58 50 -93.5t104 -35.5z
" />
    <glyph glyph-name="uni0405" unicode="&#x405;" horiz-adv-x="637" 
d="M35 187l169 35q17 -86 106 -86q44 0 72 19.5t28 49.5q0 27 -32 45t-77.5 32.5t-91 33.5t-77.5 60t-32 101q0 99 82.5 166t204.5 67q212 0 249 -197l-169 -35q-17 86 -97 86q-40 0 -63.5 -17t-23.5 -46q0 -22 23 -38t57 -25.5t74.5 -26t74.5 -36t57 -58t23 -90.5
q0 -105 -86.5 -171t-211.5 -66q-112 0 -176.5 52.5t-82.5 144.5z" />
    <glyph glyph-name="uni0406" unicode="&#x406;" horiz-adv-x="270" 
d="M165 0h-170l149 700h170z" />
    <glyph glyph-name="uni0407" unicode="&#x407;" horiz-adv-x="270" 
d="M60 825q0 37 26.5 63.5t63.5 26.5t63.5 -26.5t26.5 -63.5q0 -36 -26.5 -63t-63.5 -27t-63.5 27t-26.5 63zM270 825q0 37 26.5 63.5t63.5 26.5t63.5 -26.5t26.5 -63.5q0 -36 -26.5 -63t-63.5 -27t-63.5 27t-26.5 63zM165 0h-170l149 700h170z" />
    <glyph glyph-name="uni0408" unicode="&#x408;" horiz-adv-x="558" 
d="M-9 218l170 25q-17 -97 74 -97q39 0 69 25t39 67l98 462h170l-101 -472q-24 -115 -109 -176.5t-194 -61.5q-105 0 -167.5 61t-48.5 167z" />
    <glyph glyph-name="uni0409" unicode="&#x409;" horiz-adv-x="1110" 
d="M-27 -10h-20l32 150h20q70 0 98 37.5t57 172.5l74 350h550l-46 -215h109q105 0 172.5 -59.5t67.5 -145.5q0 -124 -87.5 -202t-225.5 -78h-309l117 550h-220l-44 -210q-42 -202 -113 -276t-232 -74zM706 335l-39 -185h117q55 0 91 33.5t36 81.5q0 32 -21 51t-57 19h-127z
" />
    <glyph glyph-name="uni040A" unicode="&#x40a;" horiz-adv-x="1080" 
d="M165 0h-170l149 700h170l-59 -275h270l59 275h170l-46 -215h109q105 0 172.5 -59.5t67.5 -145.5q0 -124 -87.5 -202t-225.5 -78h-309l58 275h-270zM676 335l-39 -185h117q55 0 91 33.5t36 81.5q0 32 -21 51t-57 19h-127z" />
    <glyph glyph-name="uni040B" unicode="&#x40b;" 
d="M599 470q87 0 129.5 -67.5t18.5 -179.5l-47 -223h-170l46 219q10 47 -13 76.5t-69 29.5q-52 0 -90 -29.5t-48 -76.5l-46 -219h-170l117 550h-185l32 150h580l-32 -150h-225l-46 -217q35 64 92.5 100.5t125.5 36.5z" />
    <glyph glyph-name="uni040C" unicode="&#x40c;" horiz-adv-x="700" 
d="M491 900h204l-195 -155h-174zM558 700h206l-294 -350l165 -350h-188l-128 275h-96l-58 -275h-170l149 700h170l-59 -275h79z" />
    <glyph glyph-name="uni040D" unicode="&#x40d;" horiz-adv-x="740" 
d="M483 900l119 -155h-174l-129 155h184zM784 700l-149 -700h-170l138 647l-271 -647h-337l149 700h170l-138 -647l271 647h337z" />
    <glyph glyph-name="uni040E" unicode="&#x40e;" horiz-adv-x="670" 
d="M427 725q-81 0 -131.5 46t-39.5 129h139q-15 -69 44 -69q58 0 73 69h139q-11 -84 -74 -129.5t-150 -45.5zM375 401l215 299h184l-503 -700h-184l167 232l-160 468h179z" />
    <glyph glyph-name="uni040F" unicode="&#x40f;" horiz-adv-x="720" 
d="M220 0h-225l149 700h170l-117 -550h280l117 550h170l-149 -700h-225l-34 -160h-170z" />
    <glyph glyph-name="uni0410" unicode="&#x410;" horiz-adv-x="740" 
d="M685 0h-171l-14 138h-305l-69 -138h-181l358 700h302zM449 650l-180 -362h216z" />
    <glyph glyph-name="uni0411" unicode="&#x411;" horiz-adv-x="660" 
d="M319 0h-324l149 700h490l-32 -150h-320l-22 -105h134q101 0 162 -51t61 -129q0 -116 -84 -190.5t-214 -74.5zM228 295l-31 -145h147q41 0 69 25.5t28 64.5q0 25 -17 40t-49 15h-147z" />
    <glyph glyph-name="uni0412" unicode="&#x412;" horiz-adv-x="650" 
d="M450 352q147 -20 147 -142q0 -89 -71 -149.5t-179 -60.5h-352l149 700h302q83 0 135.5 -44.5t52.5 -105.5q0 -80 -49 -131.5t-135 -66.5zM415 555h-137l-29 -135h137q39 0 65.5 24t26.5 59q0 24 -16 38t-47 14zM191 145h144q39 0 65 24.5t26 59.5q0 23 -16 37t-46 14
h-144z" />
    <glyph glyph-name="uni0413" unicode="&#x413;" horiz-adv-x="540" 
d="M165 0h-170l149 700h480l-32 -150h-310z" />
    <glyph glyph-name="uni0414" unicode="&#x414;" horiz-adv-x="787" 
d="M241 700h550l-117 -550h80l-66 -310h-170l34 160h-432l-34 -160h-170l66 310h75q48 46 75.5 106.5t55.5 193.5zM235 150h269l85 400h-220l-21 -100q-27 -128 -52.5 -195t-60.5 -105z" />
    <glyph glyph-name="uni0415" unicode="&#x415;" horiz-adv-x="570" 
d="M475 0h-480l149 700h480l-32 -150h-310l-27 -125h300l-32 -150h-300l-26 -125h310z" />
    <glyph glyph-name="uni0416" unicode="&#x416;" horiz-adv-x="1070" 
d="M937 700h187l-261 -349l132 -351h-182l-104 275h-86l-58 -275h-170l58 275h-74l-213 -275h-201l285 371l-116 329h170l97 -275h84l59 275h170l-59 -275h76z" />
    <glyph glyph-name="uni0417" unicode="&#x417;" horiz-adv-x="642" 
d="M659 533q0 -61 -54 -112.5t-155 -70.5q71 -17 106 -56t35 -92q0 -89 -86.5 -150.5t-213.5 -61.5q-94 0 -169 33t-115 91l115 112q34 -38 84.5 -59t97.5 -21t80 21.5t33 52.5q0 33 -29.5 44t-81.5 11h-92l32 150h92q138 0 138 70q0 28 -23.5 43.5t-61.5 15.5
q-47 0 -107 -21t-109 -59l-83 122q62 55 145.5 84.5t166.5 29.5q109 0 182 -48t73 -129z" />
    <glyph glyph-name="uni0418" unicode="&#x418;" horiz-adv-x="740" 
d="M784 700l-149 -700h-170l138 647l-271 -647h-337l149 700h170l-138 -647l271 647h337z" />
    <glyph glyph-name="uni0419" unicode="&#x419;" horiz-adv-x="740" 
d="M462 725q-81 0 -131.5 46t-39.5 129h139q-15 -69 44 -69q58 0 73 69h139q-11 -84 -74 -129.5t-150 -45.5zM784 700l-149 -700h-170l138 647l-271 -647h-337l149 700h170l-138 -647l271 647h337z" />
    <glyph glyph-name="uni041A" unicode="&#x41a;" horiz-adv-x="700" 
d="M558 700h206l-294 -350l165 -350h-188l-128 275h-96l-58 -275h-170l149 700h170l-59 -275h79z" />
    <glyph glyph-name="uni041B" unicode="&#x41b;" horiz-adv-x="750" 
d="M-27 -10h-20l32 150h20q70 0 98 37.5t57 172.5l74 350h560l-149 -700h-170l117 550h-230l-44 -210q-42 -202 -113 -276t-232 -74z" />
    <glyph glyph-name="uni041C" unicode="&#x41c;" horiz-adv-x="920" 
d="M944 700l-149 -700h-160l138 649l-228 -649h-301l49 649l-138 -649h-160l149 700h308l-49 -649l228 649h313z" />
    <glyph glyph-name="uni041D" unicode="&#x41d;" horiz-adv-x="720" 
d="M165 0h-170l149 700h170l-59 -275h280l59 275h170l-149 -700h-170l58 275h-280z" />
    <glyph glyph-name="uni041E" unicode="&#x41e;" 
d="M45 288q0 113 58 210t157 154.5t213 57.5q141 0 230.5 -81.5t89.5 -216.5q0 -172 -126.5 -297t-300.5 -125q-141 0 -231 81.5t-90 216.5zM220 303q0 -69 43 -113t113 -44q100 0 171 75.5t71 175.5q0 69 -43 113t-113 44q-100 0 -171 -75.5t-71 -175.5z" />
    <glyph glyph-name="uni041F" unicode="&#x41f;" horiz-adv-x="720" 
d="M165 0h-170l149 700h620l-149 -700h-170l117 550h-280z" />
    <glyph glyph-name="uni0420" unicode="&#x420;" horiz-adv-x="640" 
d="M165 0h-170l149 700h289q105 0 172.5 -59.5t67.5 -145.5q0 -124 -87.5 -202t-225.5 -78h-149zM282 550l-39 -185h137q48 0 82.5 34t34.5 81q0 32 -21 51t-57 19h-137z" />
    <glyph glyph-name="uni0421" unicode="&#x421;" horiz-adv-x="760" 
d="M45 288q0 113 58 210t157 154.5t213 57.5q119 0 199 -57t108 -147l-168 -59q-14 48 -53 77.5t-96 29.5q-101 0 -172 -75.5t-71 -175.5q0 -69 43 -113t113 -44q60 0 112 29t84 78l154 -64q-53 -85 -148 -142t-212 -57q-141 0 -231 81.5t-90 216.5z" />
    <glyph glyph-name="uni0422" unicode="&#x422;" horiz-adv-x="600" 
d="M330 0h-170l117 550h-205l32 150h580l-32 -150h-205z" />
    <glyph glyph-name="uni0423" unicode="&#x423;" horiz-adv-x="670" 
d="M375 401l215 299h184l-503 -700h-184l167 232l-160 468h179z" />
    <glyph glyph-name="uni0424" unicode="&#x424;" horiz-adv-x="908" 
d="M624 660q122 0 199.5 -70t77.5 -188q0 -151 -111.5 -256.5t-277.5 -105.5h-20l-17 -80h-170l17 80q-122 0 -199.5 70t-77.5 188q0 151 111.5 256.5t277.5 105.5h20l17 80h170zM215 312q0 -63 34 -92.5t105 -29.5l68 320h-10q-85 0 -141 -57.5t-56 -140.5zM524 190h10
q85 0 141 57.5t56 140.5q0 63 -34 92.5t-105 29.5z" />
    <glyph glyph-name="uni0425" unicode="&#x425;" horiz-adv-x="688" 
d="M571 700h211l-318 -355l169 -345h-196l-98 213l-183 -213h-211l318 355l-169 345h196l98 -213z" />
    <glyph glyph-name="uni0426" unicode="&#x426;" horiz-adv-x="760" 
d="M525 0h-530l149 700h170l-117 -550h280l117 550h170l-117 -550h80l-66 -310h-170z" />
    <glyph glyph-name="uni0427" unicode="&#x427;" horiz-adv-x="650" 
d="M455 380l69 320h170l-149 -700h-170l48 229q-68 -14 -127 -14q-287 0 -223 295l41 190h170l-43 -200q-15 -70 4 -102.5t87 -32.5q61 0 123 15z" />
    <glyph glyph-name="uni0428" unicode="&#x428;" horiz-adv-x="970" 
d="M865 0h-870l149 700h170l-117 -550h180l117 550h170l-117 -550h180l117 550h170z" />
    <glyph glyph-name="uni0429" unicode="&#x429;" horiz-adv-x="1010" 
d="M775 0h-780l149 700h170l-117 -550h180l117 550h170l-117 -550h180l117 550h170l-117 -550h80l-66 -310h-170z" />
    <glyph glyph-name="uni042A" unicode="&#x42a;" horiz-adv-x="770" 
d="M242 550h-170l32 150h340l-46 -215h109q105 0 172.5 -59.5t67.5 -145.5q0 -124 -87.5 -202t-225.5 -78h-309zM366 335l-39 -185h117q55 0 91 33.5t36 81.5q0 32 -21 51t-57 19h-127z" />
    <glyph glyph-name="uni042B" unicode="&#x42b;" horiz-adv-x="890" 
d="M304 0h-309l149 700h170l-46 -215h109q105 0 172.5 -59.5t67.5 -145.5q0 -124 -87.5 -202t-225.5 -78zM785 0h-170l149 700h170zM236 335l-39 -185h117q55 0 91 33.5t36 81.5q0 32 -21 51t-57 19h-127z" />
    <glyph glyph-name="uni042C" unicode="&#x42c;" horiz-adv-x="650" 
d="M314 0h-319l149 700h170l-46 -215h119q105 0 172.5 -59.5t67.5 -145.5q0 -124 -87.5 -202t-225.5 -78zM236 335l-39 -185h127q55 0 91 33.5t36 81.5q0 32 -21 51t-57 19h-137z" />
    <glyph glyph-name="uni042D" unicode="&#x42d;" horiz-adv-x="760" 
d="M432 710q141 0 231 -81.5t90 -216.5q0 -113 -58 -210t-157 -154.5t-213 -57.5q-119 0 -199 57t-108 147l168 59q14 -48 53 -77.5t96 -29.5q67 0 123 35.5t88 93.5h-289l32 150h287q-8 58 -50 93.5t-104 35.5q-60 0 -112 -29t-84 -78l-154 64q53 85 148 142t212 57z" />
    <glyph glyph-name="uni042E" unicode="&#x42e;" horiz-adv-x="1050" 
d="M733 710q136 0 223.5 -81t87.5 -215q0 -172 -124 -298t-294 -126q-133 0 -215 77t-86 208h-102l-58 -275h-170l149 700h170l-59 -275h93q43 125 148.5 205t236.5 80zM637 146q96 0 164 76t68 176q0 68 -41 112t-107 44q-95 0 -163 -76t-68 -176q0 -69 40.5 -112.5
t106.5 -43.5z" />
    <glyph glyph-name="uni042F" unicode="&#x42f;" horiz-adv-x="660" 
d="M379 700h325l-149 -700h-170l49 230h-68l-194 -230h-207l219 259q-50 26 -78 71t-28 97q0 119 85 196t216 77zM327 385h140l35 165h-140q-43 0 -73.5 -30.5t-30.5 -71.5q0 -28 18.5 -45.5t50.5 -17.5z" />
    <glyph glyph-name="uni0430" unicode="&#x430;" horiz-adv-x="546" 
d="M317 530q105 0 161.5 -55t32.5 -169l-65 -306h-160l24 116q-61 -126 -177 -126q-57 0 -97 38.5t-40 99.5q0 79 59 127t164 58l93 9q44 4 49 32q4 20 -13 33t-46 13q-37 0 -61.5 -17t-30.5 -48l-152 34q18 67 88 114t171 47zM201 115q42 0 82 30t48 67l1 5q-17 -8 -39 -10
l-79 -9q-57 -7 -57 -48q0 -35 44 -35z" />
    <glyph glyph-name="uni0431" unicode="&#x431;" horiz-adv-x="635" 
d="M357 558q-83 -35 -124 -186q27 57 78.5 97.5t122.5 40.5q74 0 126 -61t52 -150q0 -131 -93 -220t-231 -89q-107 0 -177.5 62t-70.5 182q0 133 72 268.5t178 180.5q63 27 180 39.5t184 27.5l-31 -144q-53 -14 -141.5 -23.5t-124.5 -24.5zM348 364q-56 0 -98.5 -42
t-42.5 -98q0 -39 25 -63.5t67 -24.5q56 0 98.5 42t42.5 98q0 39 -25 63.5t-67 24.5z" />
    <glyph glyph-name="uni0432" unicode="&#x432;" horiz-adv-x="583" 
d="M420 262q48 -10 75 -38.5t27 -69.5q0 -68 -59.5 -111t-144.5 -43h-323l111 520h269q83 0 127.5 -34t44.5 -87q0 -52 -34 -87.5t-93 -49.5zM357 390h-129l-14 -65h129q17 0 29.5 12t12.5 29q0 24 -28 24zM173 130h143q23 0 37.5 12t14.5 29q0 24 -29 24h-153z" />
    <glyph glyph-name="uni0433" unicode="&#x433;" horiz-adv-x="470" 
d="M155 0h-160l111 520h410l-30 -140h-250z" />
    <glyph glyph-name="uni0434" unicode="&#x434;" horiz-adv-x="654" 
d="M174 520h455l-80 -380h70l-62 -290h-150l32 150h-339l-32 -150h-150l62 290h60q37 30 56 66.5t39 128.5zM209 140h180l51 240h-145l-10 -45q-33 -157 -76 -195z" />
    <glyph glyph-name="uni0435" unicode="&#x435;" horiz-adv-x="610" 
d="M348 530q133 0 197.5 -97.5t19.5 -230.5h-379q7 -37 33 -56.5t64 -19.5q76 0 125 58l125 -60q-40 -58 -109.5 -96t-149.5 -38q-110 0 -178.5 61.5t-68.5 165.5q0 128 94.5 220.5t226.5 92.5zM332 394q-35 0 -68.5 -19t-54.5 -53h214q-6 31 -31 51.5t-60 20.5z" />
    <glyph glyph-name="uni0436" unicode="&#x436;" horiz-adv-x="866" 
d="M726 520h179l-206 -258l112 -262h-174l-81 190h-58l-40 -190h-160l40 190h-48l-154 -190h-191l226 279l-98 241h161l78 -190h56l41 190h160l-41 -190h48z" />
    <glyph glyph-name="uni0437" unicode="&#x437;" horiz-adv-x="544" 
d="M534 400q0 -51 -48 -90t-126 -50q60 -9 90 -37.5t30 -70.5q0 -68 -74.5 -115t-179.5 -47q-162 0 -239 94l104 103q26 -31 70.5 -46t83.5 -15q34 0 53.5 11.5t19.5 29.5q0 28 -78 28h-78l27 130h78q93 0 93 40q0 29 -58 29q-39 0 -89.5 -15t-90.5 -46l-63 108
q44 42 113 65.5t139 23.5q107 0 165 -33.5t58 -96.5z" />
    <glyph glyph-name="uni0438" unicode="&#x438;" horiz-adv-x="630" 
d="M636 520l-111 -520h-150l101 475l-196 -475h-285l111 520h150l-101 -475l196 475h285z" />
    <glyph glyph-name="uni0439" unicode="&#x439;" horiz-adv-x="630" 
d="M374 570q-75 0 -115.5 45.5t-30.5 124.5h124q-14 -64 34 -64t62 64h124q-10 -78 -65 -124t-133 -46zM636 520l-111 -520h-150l101 475l-196 -475h-285l111 520h150l-101 -475l196 475h285z" />
    <glyph glyph-name="uni043A" unicode="&#x43a;" horiz-adv-x="605" 
d="M437 520h198l-230 -260l135 -260h-180l-99 190h-66l-40 -190h-160l111 520h160l-41 -190h48z" />
    <glyph glyph-name="uni043B" unicode="&#x43b;" horiz-adv-x="640" 
d="M-17 -10h-20l30 140h20q55 0 74.5 23t37.5 107l56 260h465l-111 -520h-160l81 380h-155l-28 -130q-21 -100 -49 -152.5t-85 -80t-156 -27.5z" />
    <glyph glyph-name="uni043C" unicode="&#x43c;" horiz-adv-x="760" 
d="M765 520l-110 -520h-140l100 473l-161 -473h-258l39 473l-100 -473h-140l110 520h267l-39 -473l161 473h271z" />
    <glyph glyph-name="uni043D" unicode="&#x43d;" horiz-adv-x="620" 
d="M155 0h-160l111 520h160l-41 -190h200l41 190h160l-111 -520h-160l40 190h-200z" />
    <glyph glyph-name="uni043E" unicode="&#x43e;" horiz-adv-x="620" 
d="M27 217q0 128 94.5 220.5t226.5 92.5q109 0 177 -61.5t68 -165.5q0 -128 -94 -220.5t-225 -92.5q-110 0 -178.5 61.5t-68.5 165.5zM193 230q0 -42 24.5 -68t65.5 -26q59 0 101.5 46.5t42.5 107.5q0 42 -24.5 68t-65.5 26q-59 0 -101.5 -46.5t-42.5 -107.5z" />
    <glyph glyph-name="uni043F" unicode="&#x43f;" horiz-adv-x="610" 
d="M155 0h-160l111 520h510l-111 -520h-160l81 380h-190z" />
    <glyph glyph-name="uni0440" unicode="&#x440;" horiz-adv-x="634" 
d="M439 530q78 0 124.5 -58t46.5 -157q0 -131 -80 -228t-188 -97q-57 0 -101.5 44t-53.5 118l-75 -352h-160l153 720h160l-28 -134q37 66 90.5 105t111.5 39zM305 136q56 0 97.5 46.5t41.5 107.5q0 41 -24 67.5t-61 26.5q-62 0 -105.5 -46.5t-43.5 -107.5q0 -42 25.5 -68
t69.5 -26z" />
    <glyph glyph-name="uni0441" unicode="&#x441;" horiz-adv-x="580" 
d="M27 217q0 128 94.5 220.5t226.5 92.5q85 0 148 -44t79 -123l-146 -50q-8 34 -33 52.5t-59 18.5q-59 0 -101.5 -46.5t-42.5 -107.5q0 -42 24.5 -68t65.5 -26q80 0 126 71l144 -50q-43 -79 -117.5 -123t-161.5 -44q-110 0 -178.5 61.5t-68.5 165.5z" />
    <glyph glyph-name="uni0442" unicode="&#x442;" horiz-adv-x="526" 
d="M288 0h-160l81 380h-163l30 140h486l-30 -140h-163z" />
    <glyph glyph-name="uni0443" unicode="&#x443;" horiz-adv-x="560" 
d="M230 44l223 476h172l-341 -720h-172l97 200h-120l-44 520h162z" />
    <glyph glyph-name="uni0444" unicode="&#x444;" horiz-adv-x="760" 
d="M562 740l-45 -211q95 -8 156 -67.5t61 -158.5q0 -128 -95 -221.5t-236 -91.5l-40 -190h-160l40 191q-97 10 -156.5 68.5t-59.5 157.5q0 128 95.5 221.5t235.5 91.5l44 210h160zM487 384l-53 -248q56 4 95 50t39 104q0 39 -22 64.5t-59 29.5zM193 230q0 -39 22 -64.5
t59 -29.5l53 248q-56 -5 -95 -50.5t-39 -103.5z" />
    <glyph glyph-name="uni0445" unicode="&#x445;" horiz-adv-x="580" 
d="M430 520h195l-240 -262l130 -258h-186l-62 146l-117 -146h-195l241 263l-131 257h186l62 -146z" />
    <glyph glyph-name="uni0446" unicode="&#x446;" horiz-adv-x="650" 
d="M435 0h-440l111 520h160l-81 -380h200l81 380h160l-81 -380h70l-62 -290h-150z" />
    <glyph glyph-name="uni0447" unicode="&#x447;" horiz-adv-x="560" 
d="M357 294l48 226h160l-110 -520h-160l33 156q-56 -10 -103 -10q-120 0 -162 59.5t-18 173.5l30 141h160l-32 -151q-9 -43 5 -63t59 -20q52 0 90 8z" />
    <glyph glyph-name="uni0448" unicode="&#x448;" horiz-adv-x="830" 
d="M725 0h-730l111 520h160l-81 -380h125l81 380h160l-81 -380h125l81 380h160z" />
    <glyph glyph-name="uni0449" unicode="&#x449;" horiz-adv-x="860" 
d="M645 0h-650l111 520h160l-81 -380h125l81 380h160l-81 -380h125l81 380h160l-81 -380h70l-62 -290h-150z" />
    <glyph glyph-name="uni044A" unicode="&#x44a;" horiz-adv-x="657" 
d="M378 0h-283l81 380h-140l30 140h300l-29 -134h93q91 0 144.5 -46t53.5 -122q0 -93 -70.5 -155.5t-179.5 -62.5zM308 246l-23 -106h107q30 0 50 17.5t20 41.5q0 22 -14.5 34.5t-38.5 12.5h-101z" />
    <glyph glyph-name="uni044B" unicode="&#x44b;" horiz-adv-x="787" 
d="M278 0h-283l111 520h160l-29 -134h93q91 0 144.5 -46t53.5 -122q0 -93 -70.5 -155.5t-179.5 -62.5zM682 0h-160l111 520h160zM207 246l-22 -106h107q30 0 50 17.5t20 41.5q0 22 -14.5 34.5t-38.5 12.5h-102z" />
    <glyph glyph-name="uni044C" unicode="&#x44c;" horiz-adv-x="567" 
d="M288 0h-293l111 520h160l-29 -134h103q91 0 144.5 -46t53.5 -122q0 -93 -70.5 -155.5t-179.5 -62.5zM207 246l-22 -106h117q30 0 50 17.5t20 41.5q0 22 -14.5 34.5t-38.5 12.5h-112z" />
    <glyph glyph-name="uni044D" unicode="&#x44d;" horiz-adv-x="580" 
d="M306 530q110 0 178.5 -61.5t68.5 -165.5q0 -128 -94.5 -220.5t-226.5 -92.5q-85 0 -148 44t-79 123l136 46q9 -35 36.5 -56t65.5 -21q77 0 124 69h-187l28 130h184q-9 32 -34.5 50.5t-60.5 18.5q-86 0 -134 -78l-136 47q43 79 117.5 123t161.5 44z" />
    <glyph glyph-name="uni044E" unicode="&#x44e;" horiz-adv-x="830" 
d="M564 530q107 0 173.5 -61.5t66.5 -164.5q0 -128 -92.5 -221t-221.5 -93q-100 0 -161.5 53.5t-69.5 146.5h-64l-40 -190h-160l111 520h160l-41 -190h54q33 89 110 144.5t175 55.5zM500 136q56 0 97 46.5t41 108.5q0 41 -23 67t-62 26q-57 0 -98 -47t-41 -108
q0 -41 23.5 -67t62.5 -26z" />
    <glyph glyph-name="uni044F" unicode="&#x44f;" horiz-adv-x="584" 
d="M297 520h292l-111 -520h-160l32 150h-42l-134 -150h-199l158 177q-74 45 -74 126q0 94 67.5 155.5t170.5 61.5zM264 290h116l19 90h-116q-24 0 -41 -14.5t-17 -37.5q0 -15 10.5 -26.5t28.5 -11.5z" />
    <glyph glyph-name="uni0450" unicode="&#x450;" horiz-adv-x="610" 
d="M382 740l79 -160h-157l-89 160h167zM348 530q133 0 197.5 -97.5t19.5 -230.5h-379q7 -37 33 -56.5t64 -19.5q76 0 125 58l125 -60q-40 -58 -109.5 -96t-149.5 -38q-110 0 -178.5 61.5t-68.5 165.5q0 128 94.5 220.5t226.5 92.5zM332 394q-35 0 -68.5 -19t-54.5 -53h214
q-6 31 -31 51.5t-60 20.5z" />
    <glyph glyph-name="uni0451" unicode="&#x451;" horiz-adv-x="610" 
d="M258 570q-37 0 -63.5 27t-26.5 63q0 37 26.5 63.5t63.5 26.5t63.5 -26.5t26.5 -63.5q0 -36 -26.5 -63t-63.5 -27zM498 570q-37 0 -63.5 27t-26.5 63q0 37 26.5 63.5t63.5 26.5t63.5 -26.5t26.5 -63.5q0 -36 -26.5 -63t-63.5 -27zM348 530q133 0 197.5 -97.5t19.5 -230.5
h-379q7 -37 33 -56.5t64 -19.5q76 0 125 58l125 -60q-40 -58 -109.5 -96t-149.5 -38q-110 0 -178.5 61.5t-68.5 165.5q0 128 94.5 220.5t226.5 92.5zM332 394q-35 0 -68.5 -19t-54.5 -53h214q-6 31 -31 51.5t-60 20.5z" />
    <glyph glyph-name="uni0452" unicode="&#x452;" horiz-adv-x="625" 
d="M435 490q89 0 128 -67t18 -164l-52 -240q-24 -110 -98.5 -169.5t-186.5 -59.5q-45 0 -88 10l40 141q28 -5 58 -5q97 0 116 88l48 225q9 43 -10.5 69.5t-63.5 26.5q-47 0 -82 -26.5t-44 -69.5l-53 -249h-160l117 550h-70l26 120h69l15 70h160l-15 -70h141l-26 -120h-140
l-41 -192q33 64 84 98t110 34z" />
    <glyph glyph-name="uni0453" unicode="&#x453;" horiz-adv-x="470" 
d="M380 580h-157l127 160h187zM155 0h-160l111 520h410l-30 -140h-250z" />
    <glyph glyph-name="uni0454" unicode="&#x454;" horiz-adv-x="580" 
d="M283 126q86 0 134 78l136 -47q-43 -79 -117.5 -123t-161.5 -44q-110 0 -178.5 61.5t-68.5 165.5q0 128 94.5 220.5t226.5 92.5q85 0 148 -44t79 -123l-136 -46q-9 35 -36.5 56t-65.5 21q-77 0 -124 -69h187l-28 -130h-184q9 -32 34.5 -50.5t60.5 -18.5z" />
    <glyph glyph-name="uni0455" unicode="&#x455;" horiz-adv-x="510" 
d="M0 142l156 34q9 -61 72 -61q39 0 61.5 12.5t22.5 33.5q0 19 -27 28.5t-65 16t-76 18.5t-65 44t-27 84q0 72 65.5 125t163.5 53q92 0 152 -41.5t72 -110.5l-156 -34q-9 61 -73 61q-27 0 -45 -11.5t-18 -30.5q0 -20 27 -30t65 -17t76 -19.5t65 -44.5t27 -84
q0 -79 -75 -128.5t-170 -49.5t-156 41t-72 111z" />
    <glyph glyph-name="uni0456" unicode="&#x456;" horiz-adv-x="260" 
d="M121 660q0 39 28 67t67 28t67 -28t28 -67q0 -38 -28 -66.5t-67 -28.5t-67 28.5t-28 66.5zM155 0h-160l111 520h160z" />
    <glyph glyph-name="uni0457" unicode="&#x457;" horiz-adv-x="260" 
d="M30 660q0 37 26.5 63.5t63.5 26.5t63.5 -26.5t26.5 -63.5q0 -36 -26.5 -63t-63.5 -27t-63.5 27t-26.5 63zM220 660q0 37 26.5 63.5t63.5 26.5t63.5 -26.5t26.5 -63.5q0 -36 -26.5 -63t-63.5 -27t-63.5 27t-26.5 63zM155 0h-160l111 520h160z" />
    <glyph glyph-name="uni0458" unicode="&#x458;" horiz-adv-x="280" 
d="M140 660q0 39 28 67t67 28t67 -28t28 -67q0 -38 -28 -66.5t-67 -28.5t-67 28.5t-28 66.5zM-115 -210l30 140q54 0 73 17.5t31 72.5l106 500h160l-106 -500q-27 -129 -92.5 -183t-201.5 -47z" />
    <glyph glyph-name="uni0459" unicode="&#x459;" horiz-adv-x="927" 
d="M-17 -10h-20l30 140h20q55 0 74.5 23t37.5 107l56 260h456l-29 -134h92q91 0 144.5 -46t53.5 -122q0 -93 -70.5 -155.5t-179.5 -62.5h-282l81 380h-146l-28 -130q-21 -100 -49 -152.5t-85 -80t-156 -27.5zM578 246l-22 -106h106q30 0 50 17.5t20 41.5q0 22 -14.5 34.5
t-38.5 12.5h-101z" />
    <glyph glyph-name="uni045A" unicode="&#x45a;" horiz-adv-x="907" 
d="M155 0h-160l111 520h160l-41 -190h190l41 190h160l-29 -134h93q91 0 144.5 -46t53.5 -122q0 -93 -70.5 -155.5t-179.5 -62.5h-283l40 190h-190zM557 246l-22 -106h107q30 0 50 17.5t20 41.5q0 22 -14.5 34.5t-38.5 12.5h-102z" />
    <glyph glyph-name="uni045B" unicode="&#x45b;" horiz-adv-x="625" 
d="M435 490q89 0 128 -67.5t18 -163.5l-56 -259h-160l53 249q9 43 -10.5 69.5t-63.5 26.5q-47 0 -82 -26.5t-44 -69.5l-53 -249h-160l117 550h-70l26 120h69l15 70h160l-15 -70h141l-26 -120h-140l-41 -192q33 64 84 98t110 34z" />
    <glyph glyph-name="uni045C" unicode="&#x45c;" horiz-adv-x="605" 
d="M403 740h187l-157 -160h-157zM437 520h198l-230 -260l135 -260h-180l-99 190h-66l-40 -190h-160l111 520h160l-41 -190h48z" />
    <glyph glyph-name="uni045D" unicode="&#x45d;" horiz-adv-x="630" 
d="M404 740l79 -160h-157l-89 160h167zM636 520l-111 -520h-150l101 475l-196 -475h-285l111 520h150l-101 -475l196 475h285z" />
    <glyph glyph-name="uni045E" unicode="&#x45e;" horiz-adv-x="560" 
d="M339 570q-75 0 -115.5 45.5t-30.5 124.5h124q-14 -64 34 -64t62 64h124q-10 -78 -65 -124t-133 -46zM230 44l223 476h172l-341 -720h-172l97 200h-120l-44 520h162z" />
    <glyph glyph-name="uni045F" unicode="&#x45f;" horiz-adv-x="610" 
d="M175 0h-180l111 520h160l-81 -380h190l81 380h160l-111 -520h-180l-32 -150h-150z" />
    <glyph glyph-name="uni0462" unicode="&#x462;" horiz-adv-x="690" 
d="M308 485h119q105 0 172.5 -59.5t67.5 -145.5q0 -124 -87.5 -202t-225.5 -78h-319l115 540h-100l26 120h99l13 60h170l-13 -60h141l-26 -120h-140zM237 150h127q55 0 91 33.5t36 81.5q0 32 -21 51t-57 19h-137z" />
    <glyph glyph-name="uni0463" unicode="&#x463;" horiz-adv-x="622" 
d="M287 386h103q91 0 144.5 -46t53.5 -122q0 -93 -70.5 -155.5t-179.5 -62.5h-293l99 460h-101l26 120h101l34 160h160l-35 -160h110l-26 -120h-110zM235 140h117q30 0 50 17.5t20 41.5q0 22 -14.5 34.5t-38.5 12.5h-112z" />
    <glyph glyph-name="uni0472" unicode="&#x472;" 
d="M473 710q141 0 230.5 -81.5t89.5 -216.5q0 -172 -126.5 -297t-300.5 -125q-141 0 -231 81.5t-90 216.5q0 113 58 210t157 154.5t213 57.5zM462 554q-85 0 -150.5 -55.5t-84.5 -137.5q39 89 127 89q28 0 95.5 -25.5t108.5 -25.5q31 0 60 11q-5 64 -47.5 104t-108.5 40z
M376 146q84 0 148.5 54t85.5 134q-39 -84 -125 -84q-28 0 -95.5 25.5t-108.5 25.5q-28 0 -61 -11q5 -64 47.5 -104t108.5 -40z" />
    <glyph glyph-name="uni0473" unicode="&#x473;" horiz-adv-x="620" 
d="M348 530q109 0 177 -61.5t68 -165.5q0 -128 -94 -220.5t-225 -92.5q-110 0 -178.5 61.5t-68.5 165.5q0 128 94.5 220.5t226.5 92.5zM337 394q-53 0 -95 -36t-54 -90q29 71 92 71q21 0 57.5 -16t55.5 -16q22 0 42 8q-8 36 -34 57.5t-64 21.5zM283 126q53 0 95 36t54 90
q-29 -71 -92 -71q-21 0 -57.5 16t-55.5 16q-22 0 -42 -8q8 -36 34 -57.5t64 -21.5z" />
    <glyph glyph-name="uni0474" unicode="&#x474;" horiz-adv-x="793" 
d="M315 51l237 499q33 69 77.5 108.5t109 50t143.5 -28.5l-77 -131q-41 18 -57 11t-34 -43l-256 -517h-296l-68 700h171z" />
    <glyph glyph-name="uni0475" unicode="&#x475;" horiz-adv-x="653" 
d="M240 50l154 340q20 43 49.5 74.5t68 50t88 15.5t104.5 -31l-78 -131q-40 19 -56.5 11.5t-36.5 -48.5l-163 -331h-270l-55 520h163z" />
    <glyph glyph-name="uni0490" unicode="&#x490;" horiz-adv-x="540" 
d="M165 0h-170l149 700h310l32 150h170l-64 -300h-310z" />
    <glyph glyph-name="uni0491" unicode="&#x491;" horiz-adv-x="470" 
d="M155 0h-160l111 520h260l29 140h150l-59 -280h-250z" />
    <glyph glyph-name="uni0492" unicode="&#x492;" horiz-adv-x="580" 
d="M664 700l-32 -150h-310l-34 -160h150l-26 -120h-150l-57 -270h-170l57 270h-90l26 120h90l66 310h480z" />
    <glyph glyph-name="uni0493" unicode="&#x493;" horiz-adv-x="510" 
d="M556 520l-30 -140h-250l-21 -100h120l-26 -120h-120l-34 -160h-160l34 160h-90l26 120h90l51 240h410z" />
    <glyph glyph-name="uni0494" unicode="&#x494;" horiz-adv-x="670" 
d="M399 455q96 0 157 -65.5t61 -167.5q0 -188 -108.5 -310t-273.5 -122q-62 0 -102 10l44 154q33 -8 70 -8q75 0 132 70.5t57 166.5q0 60 -31 88t-78 28t-102 -17l-60 -282h-170l149 700h480l-32 -150h-310l-25 -120q67 25 142 25z" />
    <glyph glyph-name="uni0495" unicode="&#x495;" horiz-adv-x="552" 
d="M536 520l-30 -140h-270l-19 -88q52 18 105 18q82 0 133 -49t51 -150q0 -144 -87 -232.5t-220 -88.5q-45 0 -88 10l40 141q27 -5 58 -5q51 0 89 39.5t38 107.5q0 81 -74 81q-31 0 -75 -15l-32 -149h-160l111 520h430z" />
    <glyph glyph-name="uni0496" unicode="&#x496;" horiz-adv-x="1128" 
d="M1124 700l-261 -349l76 -201h156l-66 -310h-170l34 160h-80l-104 275h-86l-58 -275h-170l58 275h-74l-213 -275h-201l285 371l-116 329h170l97 -275h84l59 275h170l-59 -275h76l206 275h187z" />
    <glyph glyph-name="uni0497" unicode="&#x497;" horiz-adv-x="932" 
d="M905 520l-206 -258l52 -122h146l-62 -290h-150l32 150h-80l-81 190h-58l-40 -190h-160l40 190h-48l-154 -190h-191l226 279l-98 241h161l78 -190h56l41 190h160l-41 -190h48l150 190h179z" />
    <glyph glyph-name="uni0498" unicode="&#x498;" horiz-adv-x="642" 
d="M659 533q0 -61 -54 -112.5t-155 -70.5q71 -17 106 -56t35 -92q0 -77 -66 -134.5t-170 -72.5l-33 -155h-170l35 162q-124 30 -180 112l115 112q34 -38 84.5 -59t97.5 -21t80 21.5t33 52.5q0 33 -29.5 44t-81.5 11h-92l32 150h92q138 0 138 70q0 28 -23.5 43.5t-61.5 15.5
q-47 0 -107 -21t-109 -59l-83 122q62 55 145.5 84.5t166.5 29.5q109 0 182 -48t73 -129z" />
    <glyph glyph-name="uni0499" unicode="&#x499;" horiz-adv-x="544" 
d="M534 400q0 -51 -48 -90t-126 -50q60 -9 90 -37.5t30 -70.5q0 -59 -56.5 -103t-143.5 -55l-31 -144h-150l32 151q-94 22 -144 83l104 103q26 -31 70.5 -46t83.5 -15q34 0 53.5 11.5t19.5 29.5q0 28 -78 28h-78l27 130h78q93 0 93 40q0 29 -58 29q-39 0 -89.5 -15
t-90.5 -46l-63 108q44 42 113 65.5t139 23.5q107 0 165 -33.5t58 -96.5z" />
    <glyph glyph-name="uni049A" unicode="&#x49a;" horiz-adv-x="762" 
d="M764 700l-294 -350l94 -200h165l-66 -310h-170l34 160h-80l-128 275h-96l-58 -275h-170l149 700h170l-59 -275h79l224 275h206z" />
    <glyph glyph-name="uni049B" unicode="&#x49b;" horiz-adv-x="655" 
d="M635 520l-230 -260l62 -120h153l-62 -290h-150l32 150h-80l-99 190h-66l-40 -190h-160l111 520h160l-41 -190h48l164 190h198z" />
    <glyph glyph-name="uni049C" unicode="&#x49c;" horiz-adv-x="760" 
d="M618 700h206l-294 -350l165 -350h-188l-128 275h-6l-23 -110h-120l23 110h-30l-58 -275h-170l149 700h170l-59 -275h31l23 110h120l-19 -91z" />
    <glyph glyph-name="uni049D" unicode="&#x49d;" horiz-adv-x="675" 
d="M507 520h198l-230 -260l135 -260h-180l-89 190h-15l-25 -115h-110l25 115h-21l-40 -190h-160l111 520h160l-41 -190h20l25 115h110l-24 -111z" />
    <glyph glyph-name="uni049E" unicode="&#x49e;" horiz-adv-x="700" 
d="M558 700h206l-294 -350l165 -350h-188l-128 275h-96l-58 -275h-170l113 530h-81l26 120h80l11 50h170l-11 -50h120l-26 -120h-119l-23 -105h79z" />
    <glyph glyph-name="uni049F" unicode="&#x49f;" horiz-adv-x="615" 
d="M447 520h198l-230 -260l135 -260h-180l-99 190h-66l-40 -190h-160l117 550h-70l26 120h69l15 70h160l-15 -70h141l-26 -120h-140l-47 -220h48z" />
    <glyph glyph-name="uni04A0" unicode="&#x4a0;" horiz-adv-x="830" 
d="M688 700h206l-294 -350l165 -350h-188l-128 275h-96l-58 -275h-170l117 550h-170l32 150h340l-59 -275h79z" />
    <glyph glyph-name="uni04A1" unicode="&#x4a1;" horiz-adv-x="705" 
d="M537 520h198l-230 -260l135 -260h-180l-99 190h-66l-40 -190h-160l81 380h-140l30 140h300l-41 -190h48z" />
    <glyph glyph-name="uni04A2" unicode="&#x4a2;" horiz-adv-x="760" 
d="M594 700h170l-117 -550h80l-66 -310h-170l34 160h-80l58 275h-280l-58 -275h-170l149 700h170l-59 -275h280z" />
    <glyph glyph-name="uni04A3" unicode="&#x4a3;" horiz-adv-x="650" 
d="M466 520h160l-81 -380h70l-62 -290h-150l32 150h-80l40 190h-200l-40 -190h-160l111 520h160l-41 -190h200z" />
    <glyph glyph-name="uni04A4" unicode="&#x4a4;" horiz-adv-x="990" 
d="M1074 700l-32 -150h-310l-117 -550h-170l58 275h-280l-58 -275h-170l149 700h170l-59 -275h280l59 275h480z" />
    <glyph glyph-name="uni04A5" unicode="&#x4a5;" horiz-adv-x="830" 
d="M876 520l-30 -140h-250l-81 -380h-160l40 190h-200l-40 -190h-160l111 520h160l-41 -190h200l41 190h410z" />
    <glyph glyph-name="uni04A6" unicode="&#x4a6;" horiz-adv-x="1100" 
d="M829 455q96 0 157 -65.5t61 -167.5q0 -188 -108.5 -310t-273.5 -122q-62 0 -102 10l44 154q33 -8 70 -8q75 0 132 70.5t57 166.5q0 60 -31 88t-78 28t-102 -17l-60 -282h-170l117 550h-260l-117 -550h-170l149 700h600l-57 -270q67 25 142 25z" />
    <glyph glyph-name="uni04A7" unicode="&#x4a7;" horiz-adv-x="892" 
d="M702 310q59 0 101.5 -50t42.5 -149q0 -144 -87 -232.5t-220 -88.5q-45 0 -88 10l40 141q27 -5 58 -5q51 0 89 39.5t38 107.5q0 81 -74 81q-32 0 -75 -15l-32 -149h-160l81 380h-180l-81 -380h-160l111 520h500l-65 -306q70 96 161 96z" />
    <glyph glyph-name="uni04A8" unicode="&#x4a8;" horiz-adv-x="936" 
d="M754 148q22 -2 36 -2q41 0 92 9l-10 -149q-54 -16 -115 -16q-108 0 -190 38q-98 -38 -201 -38q-141 0 -231 81.5t-90 216.5q0 175 121 298.5t307 123.5l-15 -156q-109 0 -173.5 -74t-64.5 -177q0 -69 43 -113t113 -44q25 0 49 3q-46 74 -46 169q0 130 91 225t218 95
q88 0 142 -52.5t54 -156.5q0 -154 -130 -281zM554 333q0 -69 44 -118q106 79 106 192q0 36 -15 55.5t-40 19.5q-38 0 -66.5 -45t-28.5 -104z" />
    <glyph glyph-name="uni04A9" unicode="&#x4a9;" horiz-adv-x="720" 
d="M600 126q28 0 65 7l-10 -133q-46 -10 -84 -10q-77 0 -139 28q-75 -28 -158 -28q-110 0 -178.5 62.5t-68.5 169.5q0 133 92 225.5t233 92.5l-15 -136q-68 0 -111 -49t-43 -120q0 -49 27.5 -79t72.5 -30q21 0 31 1q-27 49 -27 110q0 103 67.5 173.5t162.5 70.5
q60 0 102 -46t42 -115q0 -109 -72 -194h11zM432 251q0 -42 23 -71q61 51 61 132q0 18 -8 28.5t-22 10.5q-22 0 -38 -29.5t-16 -70.5z" />
    <glyph glyph-name="uni04AA" unicode="&#x4aa;" horiz-adv-x="760" 
d="M376 146q60 0 112 29t84 78l154 -64q-42 -68 -114 -120t-161 -70l-34 -159h-170l34 159q-108 23 -172 99.5t-64 189.5t58 210t157 154.5t213 57.5q119 0 199 -57t108 -147l-168 -59q-14 48 -53 77.5t-96 29.5q-101 0 -172 -75.5t-71 -175.5q0 -69 43 -113t113 -44z" />
    <glyph glyph-name="uni04AB" unicode="&#x4ab;" horiz-adv-x="580" 
d="M283 136q80 0 126 71l144 -50q-70 -130 -215 -161l-31 -146h-150l32 151q-75 21 -118.5 77.5t-43.5 138.5q0 128 94.5 220.5t226.5 92.5q85 0 148 -44t79 -123l-146 -50q-8 34 -33 52.5t-59 18.5q-59 0 -101.5 -46.5t-42.5 -107.5q0 -42 24.5 -68t65.5 -26z" />
    <glyph glyph-name="uni04AC" unicode="&#x4ac;" horiz-adv-x="600" 
d="M72 550l32 150h580l-32 -150h-205l-85 -400h80l-66 -310h-170l34 160h-80l117 550h-205z" />
    <glyph glyph-name="uni04AD" unicode="&#x4ad;" horiz-adv-x="526" 
d="M562 520l-30 -140h-163l-51 -240h70l-62 -290h-150l32 150h-80l81 380h-163l30 140h486z" />
    <glyph glyph-name="uni04AE" unicode="&#x4ae;" horiz-adv-x="682" 
d="M786 700l-363 -458l-20 -92h105l-32 -150h-380l32 150h105l20 92l-169 458h190l95 -288l217 288h200z" />
    <glyph glyph-name="uni04AF" unicode="&#x4af;" horiz-adv-x="560" 
d="M256 167l199 353h171l-327 -547l-37 -173h-160l37 175l-93 545h162z" />
    <glyph glyph-name="uni04B0" unicode="&#x4b0;" horiz-adv-x="682" 
d="M586 700h200l-301 -380h84l-26 -120h-129l-11 -50h105l-32 -150h-380l32 150h105l11 50h-131l26 120h85l-140 380h190l95 -288z" />
    <glyph glyph-name="uni04B1" unicode="&#x4b1;" horiz-adv-x="560" 
d="M455 520h171l-311 -520h111l-26 -120h-121l-17 -80h-160l17 80h-119l26 120h109l-89 520h162l48 -353z" />
    <glyph glyph-name="uni04B2" unicode="&#x4b2;" horiz-adv-x="752" 
d="M782 700l-318 -355l95 -195h160l-66 -310h-170l34 160h-80l-98 213l-183 -213h-211l318 355l-169 345h196l98 -213l183 213h211z" />
    <glyph glyph-name="uni04B3" unicode="&#x4b3;" horiz-adv-x="624" 
d="M625 520l-240 -262l59 -118h145l-62 -290h-150l32 150h-80l-62 146l-117 -146h-195l241 263l-131 257h186l62 -146l117 146h195z" />
    <glyph glyph-name="uni04B4" unicode="&#x4b4;" horiz-adv-x="925" 
d="M690 0h-530l117 550h-205l32 150h560l-32 -150h-185l-85 -400h280l117 550h170l-117 -550h80l-66 -310h-170z" />
    <glyph glyph-name="uni04B5" unicode="&#x4b5;" horiz-adv-x="783" 
d="M568 0h-440l81 380h-163l30 140h466l-30 -140h-143l-51 -240h200l81 380h160l-81 -380h70l-62 -290h-150z" />
    <glyph glyph-name="uni04B6" unicode="&#x4b6;" horiz-adv-x="690" 
d="M524 700h170l-117 -550h80l-66 -310h-170l34 160h-80l48 229q-68 -14 -127 -14q-287 0 -223 295l41 190h170l-43 -200q-15 -70 4 -102.5t87 -32.5q61 0 123 15z" />
    <glyph glyph-name="uni04B7" unicode="&#x4b7;" horiz-adv-x="590" 
d="M405 520h160l-80 -380h70l-62 -290h-150l32 150h-80l33 156q-56 -10 -103 -10q-120 0 -162 59.5t-18 173.5l30 141h160l-32 -151q-9 -43 5 -63t59 -20q52 0 90 8z" />
    <glyph glyph-name="uni04B8" unicode="&#x4b8;" horiz-adv-x="650" 
d="M455 380l69 320h170l-149 -700h-170l48 229q-34 -7 -61 -9l-22 -105h-120l22 103q-226 26 -169 292l41 190h170l-43 -200q-22 -104 34 -126l24 111h120l-25 -116q32 4 61 11z" />
    <glyph glyph-name="uni04B9" unicode="&#x4b9;" horiz-adv-x="560" 
d="M357 294l48 226h160l-110 -520h-160l33 156q-5 -1 -15.5 -2.5t-15.5 -2.5l-23 -106h-110l22 103q-186 18 -141 231l30 141h160l-32 -151q-12 -54 15 -72l25 118h110l-27 -126q5 1 15.5 2.5t15.5 2.5z" />
    <glyph glyph-name="uni04BA" unicode="&#x4ba;" horiz-adv-x="655" 
d="M454 470q87 0 129.5 -67.5t18.5 -179.5l-47 -223h-170l46 219q10 47 -13 76.5t-69 29.5q-52 0 -90 -29.5t-48 -76.5l-46 -219h-170l149 700h170l-78 -367q35 64 92.5 100.5t125.5 36.5z" />
    <glyph glyph-name="uni04BB" unicode="&#x4bb;" horiz-adv-x="615" 
d="M433 530q89 0 127.5 -67.5t18.5 -163.5l-64 -299h-160l61 289q9 43 -10.5 69.5t-63.5 26.5q-47 0 -82 -26.5t-44 -69.5l-61 -289h-160l157 740h160l-73 -342q33 64 84 98t110 34z" />
    <glyph glyph-name="uni04BC" unicode="&#x4bc;" horiz-adv-x="940" 
d="M612 710q105 0 184.5 -50t113 -141t-0.5 -219h-549q1 -68 43.5 -111t111.5 -43q62 0 113.5 30t84.5 77l148 -63q-55 -87 -147 -143.5t-209 -56.5q-138 0 -229 86.5t-91 211.5v14q-73 8 -113.5 43.5t-40.5 93.5q0 70 47 131h140q-36 -54 -36 -95q0 -35 28 -47
q46 124 156.5 203t245.5 79zM602 554q-59 0 -110 -28t-85 -76h343q-7 43 -46 73.5t-102 30.5z" />
    <glyph glyph-name="uni04BD" unicode="&#x4bd;" horiz-adv-x="750" 
d="M488 530q133 0 197.5 -97.5t19.5 -230.5h-379q7 -37 33 -56.5t64 -19.5q76 0 125 58l125 -60q-40 -58 -109.5 -96t-149.5 -38q-107 0 -175 58.5t-72 157.5q-68 10 -105.5 44.5t-37.5 90.5q0 71 47 131h140q-36 -54 -36 -95q0 -26 17 -40q37 86 117.5 139.5t178.5 53.5z
M472 394q-35 0 -68.5 -19t-54.5 -53h214q-6 31 -31 51.5t-60 20.5z" />
    <glyph glyph-name="uni04BE" unicode="&#x4be;" horiz-adv-x="940" 
d="M612 710q105 0 184.5 -50t113 -141t-0.5 -219h-549q1 -68 43.5 -111t111.5 -43q62 0 113.5 30t84.5 77l148 -63q-45 -70 -114.5 -121.5t-156.5 -69.5l-34 -159h-170l34 160q-105 26 -170 105.5t-65 182.5v14q-73 8 -113.5 43.5t-40.5 93.5q0 70 47 131h140
q-36 -54 -36 -95q0 -35 28 -47q46 124 156.5 203t245.5 79zM602 554q-59 0 -110 -28t-85 -76h343q-7 43 -46 73.5t-102 30.5z" />
    <glyph glyph-name="uni04BF" unicode="&#x4bf;" horiz-adv-x="750" 
d="M488 530q133 0 197.5 -97.5t19.5 -230.5h-379q7 -37 33 -56.5t64 -19.5q76 0 125 58l125 -60q-71 -100 -195 -127l-31 -147h-150l32 151q-73 21 -116 74.5t-46 130.5q-68 10 -105.5 44.5t-37.5 90.5q0 71 47 131h140q-36 -54 -36 -95q0 -26 17 -40q37 86 117.5 139.5
t178.5 53.5zM472 394q-35 0 -68.5 -19t-54.5 -53h214q-6 31 -31 51.5t-60 20.5z" />
    <glyph glyph-name="uni04C0" unicode="&#x4c0;" horiz-adv-x="270" 
d="M165 0h-170l149 700h170z" />
    <glyph glyph-name="uni04C1" unicode="&#x4c1;" horiz-adv-x="1070" 
d="M627 725q-81 0 -131.5 46t-39.5 129h139q-15 -69 44 -69q58 0 73 69h139q-11 -84 -74 -129.5t-150 -45.5zM937 700h187l-261 -349l132 -351h-182l-104 275h-86l-58 -275h-170l58 275h-74l-213 -275h-201l285 371l-116 329h170l97 -275h84l59 275h170l-59 -275h76z" />
    <glyph glyph-name="uni04C2" unicode="&#x4c2;" horiz-adv-x="866" 
d="M492 570q-75 0 -115.5 45.5t-30.5 124.5h124q-14 -64 34 -64t62 64h124q-10 -78 -65 -124t-133 -46zM726 520h179l-206 -258l112 -262h-174l-81 190h-58l-40 -190h-160l40 190h-48l-154 -190h-191l226 279l-98 241h161l78 -190h56l41 190h160l-41 -190h48z" />
    <glyph glyph-name="uni04C3" unicode="&#x4c3;" horiz-adv-x="690" 
d="M764 700l-255 -304q108 -56 108 -194q0 -174 -109.5 -293t-272.5 -119q-62 0 -102 10l44 154q33 -8 70 -8q74 0 131.5 67t57.5 150q0 112 -125 112h-87l-59 -275h-170l149 700h170l-59 -275h79l224 275h206z" />
    <glyph glyph-name="uni04C4" unicode="&#x4c4;" horiz-adv-x="600" 
d="M635 520l-209 -228q80 -49 80 -161q0 -157 -86.5 -249t-220.5 -92q-45 0 -88 10l40 141q27 -5 58 -5q52 0 89.5 43t37.5 124q0 49 -26 68t-85 19h-29l-41 -190h-160l111 520h160l-41 -190h29h19l164 190h198z" />
    <glyph glyph-name="uni04C5" unicode="&#x4c5;" horiz-adv-x="790" 
d="M234 700h560l-117 -550h90l-171 -310h-170l89 160h-40l117 550h-230l-44 -210q-42 -202 -113 -276t-232 -74h-20l32 150h20q70 0 98 37.5t57 172.5z" />
    <glyph glyph-name="uni04C6" unicode="&#x4c6;" horiz-adv-x="670" 
d="M181 520h465l-81 -380h80l-160 -290h-150l85 150h-45l81 380h-155l-28 -130q-21 -100 -49 -152.5t-85 -80t-156 -27.5h-20l30 140h20q55 0 74.5 23t37.5 107z" />
    <glyph glyph-name="uni04C7" unicode="&#x4c7;" horiz-adv-x="720" 
d="M535 425l59 275h170l-145 -681q-24 -110 -101 -169.5t-192 -59.5q-46 0 -90 10l44 154q34 -8 66 -8q40 0 68.5 22t37.5 66l51 241h-280l-58 -275h-170l149 700h170l-59 -275h280z" />
    <glyph glyph-name="uni04C8" unicode="&#x4c8;" horiz-adv-x="620" 
d="M425 330l41 190h160l-107 -501q-24 -110 -98.5 -169.5t-186.5 -59.5q-45 0 -88 10l40 141q28 -5 58 -5q97 0 116 88l35 166h-200l-40 -190h-160l111 520h160l-41 -190h200z" />
    <glyph glyph-name="uni04C9" unicode="&#x4c9;" horiz-adv-x="760" 
d="M594 700h170l-117 -550h90l-171 -310h-170l89 160h-40l58 275h-280l-58 -275h-170l149 700h170l-59 -275h280z" />
    <glyph glyph-name="uni04CA" unicode="&#x4ca;" horiz-adv-x="650" 
d="M466 520h160l-81 -380h80l-160 -290h-150l85 150h-45l40 190h-200l-40 -190h-160l111 520h160l-41 -190h200z" />
    <glyph glyph-name="uni04CB" unicode="&#x4cb;" horiz-adv-x="650" 
d="M455 380l69 320h170l-149 -700h-80l-34 -160h-170l66 310h80l16 79q-68 -14 -127 -14q-287 0 -223 295l41 190h170l-43 -200q-15 -70 4 -102.5t87 -32.5q61 0 123 15z" />
    <glyph glyph-name="uni04CC" unicode="&#x4cc;" horiz-adv-x="560" 
d="M357 294l48 226h160l-110 -520h-80l-32 -150h-150l54 250h69l12 56q-56 -10 -103 -10q-120 0 -162 59.5t-18 173.5l30 141h160l-32 -151q-9 -43 5 -63t59 -20q52 0 90 8z" />
    <glyph glyph-name="uni04CD" unicode="&#x4cd;" horiz-adv-x="950" 
d="M944 700l-117 -550h100l-171 -310h-170l89 160h-40l138 649l-228 -649h-301l49 649l-138 -649h-160l149 700h308l-49 -649l228 649h313z" />
    <glyph glyph-name="uni04CE" unicode="&#x4ce;" horiz-adv-x="801" 
d="M765 520l-80 -380h91l-160 -290h-150l85 150h-36l100 473l-161 -473h-258l39 473l-100 -473h-140l110 520h267l-39 -473l161 473h271z" />
    <glyph glyph-name="uni04CF" unicode="&#x4cf;" horiz-adv-x="260" 
d="M155 0h-160l157 740h160z" />
    <glyph glyph-name="uni04D0" unicode="&#x4d0;" horiz-adv-x="740" 
d="M462 725q-81 0 -131.5 46t-39.5 129h139q-15 -69 44 -69q58 0 73 69h139q-11 -84 -74 -129.5t-150 -45.5zM605 700l80 -700h-171l-14 138h-305l-69 -138h-181l358 700h302zM449 650l-180 -362h216z" />
    <glyph glyph-name="uni04D1" unicode="&#x4d1;" horiz-adv-x="546" 
d="M321 570q-75 0 -115.5 45.5t-30.5 124.5h124q-14 -64 34 -64t62 64h124q-10 -78 -65 -124t-133 -46zM317 530q105 0 161.5 -55t32.5 -169l-65 -306h-160l24 116q-61 -126 -177 -126q-57 0 -97 38.5t-40 99.5q0 79 59 127t164 58l93 9q44 4 49 32q4 20 -13 33t-46 13
q-37 0 -61.5 -17t-30.5 -48l-152 34q18 67 88 114t171 47zM201 115q42 0 82 30t48 67l1 5q-17 -8 -39 -10l-79 -9q-57 -7 -57 -48q0 -35 44 -35z" />
    <glyph glyph-name="uni04D2" unicode="&#x4d2;" horiz-adv-x="740" 
d="M371 735q-37 0 -63.5 27t-26.5 63q0 37 26.5 63.5t63.5 26.5t63.5 -26.5t26.5 -63.5q0 -36 -26.5 -63t-63.5 -27zM611 735q-37 0 -63.5 27t-26.5 63q0 37 26.5 63.5t63.5 26.5t63.5 -26.5t26.5 -63.5q0 -36 -26.5 -63t-63.5 -27zM605 700l80 -700h-171l-14 138h-305
l-69 -138h-181l358 700h302zM449 650l-180 -362h216z" />
    <glyph glyph-name="uni04D3" unicode="&#x4d3;" horiz-adv-x="546" 
d="M227 570q-37 0 -63.5 27t-26.5 63q0 37 26.5 63.5t63.5 26.5t63.5 -26.5t26.5 -63.5q0 -36 -26.5 -63t-63.5 -27zM467 750q37 0 63.5 -26.5t26.5 -63.5q0 -36 -26.5 -63t-63.5 -27t-63.5 27t-26.5 63q0 37 26.5 63.5t63.5 26.5zM317 530q105 0 161.5 -55t32.5 -169
l-65 -306h-160l24 116q-61 -126 -177 -126q-57 0 -97 38.5t-40 99.5q0 79 59 127t164 58l93 9q44 4 49 32q4 20 -13 33t-46 13q-37 0 -61.5 -17t-30.5 -48l-152 34q18 67 88 114t171 47zM201 115q42 0 82 30t48 67l1 5q-17 -8 -39 -10l-79 -9q-57 -7 -57 -48q0 -35 44 -35z
" />
    <glyph glyph-name="uni04D4" unicode="&#x4d4;" horiz-adv-x="1000" 
d="M1054 700l-32 -150h-310l-27 -125h300l-32 -150h-300l-26 -125h310l-32 -150h-480l29 138h-224l-104 -138h-201l540 700h589zM542 551l-199 -263h143z" />
    <glyph glyph-name="uni04D5" unicode="&#x4d5;" horiz-adv-x="942" 
d="M696 530q126 0 186 -97.5t15 -230.5h-379q7 -37 33 -56.5t64 -19.5q76 0 125 58l125 -60q-33 -59 -90 -96.5t-130 -37.5q-66 0 -110.5 41t-57.5 117l-31 -148h-160l24 116q-61 -126 -177 -126q-57 0 -97 38.5t-40 99.5q0 79 59 127t164 58l93 9q45 5 49 32q4 20 -13 33
t-46 13q-37 0 -61.5 -17t-30.5 -48l-152 34q18 67 88 114t171 47q134 0 180 -80q83 80 199 80zM664 394q-35 0 -68.5 -19t-54.5 -53h214q-6 31 -31 51.5t-60 20.5zM201 115q42 0 82 30t48 67l1 5q-17 -8 -39 -10l-79 -9q-28 -3 -42 -16.5t-14 -31.5q0 -35 43 -35z" />
    <glyph glyph-name="uni04D6" unicode="&#x4d6;" horiz-adv-x="570" 
d="M206 900h139q-15 -69 44 -69q58 0 73 69h139q-11 -84 -74 -129.5t-150 -45.5q-81 0 -131.5 46t-39.5 129zM475 0h-480l149 700h480l-32 -150h-310l-27 -125h300l-32 -150h-300l-26 -125h310z" />
    <glyph glyph-name="uni04D7" unicode="&#x4d7;" horiz-adv-x="610" 
d="M352 570q-75 0 -115.5 45.5t-30.5 124.5h124q-14 -64 34 -64t62 64h124q-10 -78 -65 -124t-133 -46zM348 530q133 0 197.5 -97.5t19.5 -230.5h-379q7 -37 33 -56.5t64 -19.5q76 0 125 58l125 -60q-40 -58 -109.5 -96t-149.5 -38q-110 0 -178.5 61.5t-68.5 165.5
q0 128 94.5 220.5t226.5 92.5zM332 394q-35 0 -68.5 -19t-54.5 -53h214q-6 31 -31 51.5t-60 20.5z" />
    <glyph glyph-name="uni04D8" unicode="&#x4d8;" 
d="M473 710q138 0 229 -86.5t91 -211.5q0 -172 -126.5 -297t-300.5 -125q-105 0 -184.5 50t-113 141t0.5 219h549q-1 68 -43.5 111t-111.5 43q-62 0 -113.5 -30t-84.5 -77l-148 63q55 87 147 143.5t209 56.5zM376 146q59 0 110 28t85 76h-343q7 -43 45.5 -73.5t102.5 -30.5z
" />
    <glyph glyph-name="uni04D9" unicode="&#x4d9;" horiz-adv-x="610" 
d="M336 530q110 0 178.5 -61.5t68.5 -165.5q0 -128 -94.5 -220.5t-226.5 -92.5q-133 0 -197.5 97.5t-19.5 230.5h379q-7 37 -33 56.5t-64 19.5q-76 0 -125 -58l-125 60q40 58 109.5 96t149.5 38zM278 126q35 0 68.5 19t54.5 53h-214q6 -31 31 -51.5t60 -20.5z" />
    <glyph glyph-name="uni04DA" unicode="&#x4da;" 
d="M380 735q-37 0 -63.5 27t-26.5 63q0 37 26.5 63.5t63.5 26.5t63.5 -26.5t26.5 -63.5q0 -36 -26.5 -63t-63.5 -27zM620 735q-37 0 -63.5 27t-26.5 63q0 37 26.5 63.5t63.5 26.5t63.5 -26.5t26.5 -63.5q0 -36 -26.5 -63t-63.5 -27zM473 710q138 0 229 -86.5t91 -211.5
q0 -172 -126.5 -297t-300.5 -125q-105 0 -184.5 50t-113 141t0.5 219h549q-1 68 -43.5 111t-111.5 43q-62 0 -113.5 -30t-84.5 -77l-148 63q55 87 147 143.5t209 56.5zM376 146q59 0 110 28t85 76h-343q7 -43 45.5 -73.5t102.5 -30.5z" />
    <glyph glyph-name="uni04DB" unicode="&#x4db;" horiz-adv-x="610" 
d="M248 570q-37 0 -63.5 27t-26.5 63q0 37 26.5 63.5t63.5 26.5t63.5 -26.5t26.5 -63.5q0 -36 -26.5 -63t-63.5 -27zM488 570q-37 0 -63.5 27t-26.5 63q0 37 26.5 63.5t63.5 26.5t63.5 -26.5t26.5 -63.5q0 -36 -26.5 -63t-63.5 -27zM336 530q110 0 178.5 -61.5t68.5 -165.5
q0 -128 -94.5 -220.5t-226.5 -92.5q-133 0 -197.5 97.5t-19.5 230.5h379q-7 37 -33 56.5t-64 19.5q-76 0 -125 -58l-125 60q40 58 109.5 96t149.5 38zM278 126q35 0 68.5 19t54.5 53h-214q6 -31 31 -51.5t60 -20.5z" />
    <glyph glyph-name="uni04DC" unicode="&#x4dc;" horiz-adv-x="1070" 
d="M536 735q-37 0 -63.5 27t-26.5 63q0 37 26.5 63.5t63.5 26.5t63.5 -26.5t26.5 -63.5q0 -36 -26.5 -63t-63.5 -27zM776 735q-37 0 -63.5 27t-26.5 63q0 37 26.5 63.5t63.5 26.5t63.5 -26.5t26.5 -63.5q0 -36 -26.5 -63t-63.5 -27zM937 700h187l-261 -349l132 -351h-182
l-104 275h-86l-58 -275h-170l58 275h-74l-213 -275h-201l285 371l-116 329h170l97 -275h84l59 275h170l-59 -275h76z" />
    <glyph glyph-name="uni04DD" unicode="&#x4dd;" horiz-adv-x="866" 
d="M398 570q-37 0 -63.5 27t-26.5 63q0 37 26.5 63.5t63.5 26.5t63.5 -26.5t26.5 -63.5q0 -36 -26.5 -63t-63.5 -27zM638 570q-37 0 -63.5 27t-26.5 63q0 37 26.5 63.5t63.5 26.5t63.5 -26.5t26.5 -63.5q0 -36 -26.5 -63t-63.5 -27zM726 520h179l-206 -258l112 -262h-174
l-81 190h-58l-40 -190h-160l40 190h-48l-154 -190h-191l226 279l-98 241h161l78 -190h56l41 190h160l-41 -190h48z" />
    <glyph glyph-name="uni04DE" unicode="&#x4de;" horiz-adv-x="642" 
d="M311 735q-37 0 -63.5 27t-26.5 63q0 37 26.5 63.5t63.5 26.5t63.5 -26.5t26.5 -63.5q0 -36 -26.5 -63t-63.5 -27zM551 735q-37 0 -63.5 27t-26.5 63q0 37 26.5 63.5t63.5 26.5t63.5 -26.5t26.5 -63.5q0 -36 -26.5 -63t-63.5 -27zM659 533q0 -61 -54 -112.5t-155 -70.5
q71 -17 106 -56t35 -92q0 -89 -86.5 -150.5t-213.5 -61.5q-94 0 -169 33t-115 91l115 112q34 -38 84.5 -59t97.5 -21t80 21.5t33 52.5q0 33 -29.5 44t-81.5 11h-92l32 150h92q138 0 138 70q0 28 -23.5 43.5t-61.5 15.5q-47 0 -107 -21t-109 -59l-83 122q62 55 145.5 84.5
t166.5 29.5q109 0 182 -48t73 -129z" />
    <glyph glyph-name="uni04DF" unicode="&#x4df;" horiz-adv-x="544" 
d="M221 570q-37 0 -63.5 27t-26.5 63q0 37 26.5 63.5t63.5 26.5t63.5 -26.5t26.5 -63.5q0 -36 -26.5 -63t-63.5 -27zM461 570q-37 0 -63.5 27t-26.5 63q0 37 26.5 63.5t63.5 26.5t63.5 -26.5t26.5 -63.5q0 -36 -26.5 -63t-63.5 -27zM311 530q107 0 165 -33.5t58 -96.5
q0 -51 -48 -90t-126 -50q60 -9 90 -37.5t30 -70.5q0 -68 -74.5 -115t-179.5 -47q-162 0 -239 94l104 103q26 -31 70.5 -46t83.5 -15q34 0 53.5 11.5t19.5 29.5q0 28 -78 28h-78l27 130h78q93 0 93 40q0 29 -58 29q-39 0 -89.5 -15t-90.5 -46l-63 108q44 42 113 65.5
t139 23.5z" />
    <glyph glyph-name="uni04E0" unicode="&#x4e0;" horiz-adv-x="642" 
d="M169 700h502l-28 -130l-175 -153q56 -24 90.5 -73t34.5 -114q0 -107 -88 -173.5t-214 -66.5q-94 0 -169 33t-115 91l115 112q34 -38 84.5 -59t97.5 -21q48 0 80.5 23t32.5 61q0 65 -109 65h-69l27 127l149 128h-278z" />
    <glyph glyph-name="uni04E1" unicode="&#x4e1;" horiz-adv-x="521" 
d="M100 520h436l-27 -130l-185 -172q54 -26 86 -72.5t32 -110.5q0 -107 -79 -176t-193 -69q-105 0 -163 54t-57 133l149 34q-3 -31 19.5 -53t57.5 -22q42 0 71 26t29 68q0 75 -106 75h-41l28 130l158 145h-244z" />
    <glyph glyph-name="uni04E2" unicode="&#x4e2;" horiz-adv-x="740" 
d="M339 885h330l-26 -120h-330zM784 700l-149 -700h-170l138 647l-271 -647h-337l149 700h170l-138 -647l271 647h337z" />
    <glyph glyph-name="uni04E3" unicode="&#x4e3;" horiz-adv-x="630" 
d="M253 720h320l-26 -120h-320zM636 520l-111 -520h-150l101 475l-196 -475h-285l111 520h150l-101 -475l196 475h285z" />
    <glyph glyph-name="uni04E4" unicode="&#x4e4;" horiz-adv-x="740" 
d="M371 735q-37 0 -63.5 27t-26.5 63q0 37 26.5 63.5t63.5 26.5t63.5 -26.5t26.5 -63.5q0 -36 -26.5 -63t-63.5 -27zM611 735q-37 0 -63.5 27t-26.5 63q0 37 26.5 63.5t63.5 26.5t63.5 -26.5t26.5 -63.5q0 -36 -26.5 -63t-63.5 -27zM784 700l-149 -700h-170l138 647
l-271 -647h-337l149 700h170l-138 -647l271 647h337z" />
    <glyph glyph-name="uni04E5" unicode="&#x4e5;" horiz-adv-x="630" 
d="M280 570q-37 0 -63.5 27t-26.5 63q0 37 26.5 63.5t63.5 26.5t63.5 -26.5t26.5 -63.5q0 -36 -26.5 -63t-63.5 -27zM520 570q-37 0 -63.5 27t-26.5 63q0 37 26.5 63.5t63.5 26.5t63.5 -26.5t26.5 -63.5q0 -36 -26.5 -63t-63.5 -27zM636 520l-111 -520h-150l101 475
l-196 -475h-285l111 520h150l-101 -475l196 475h285z" />
    <glyph glyph-name="uni04E6" unicode="&#x4e6;" 
d="M311 825q0 37 26.5 63.5t63.5 26.5t63.5 -26.5t26.5 -63.5q0 -36 -26.5 -63t-63.5 -27t-63.5 27t-26.5 63zM551 825q0 37 26.5 63.5t63.5 26.5t63.5 -26.5t26.5 -63.5q0 -36 -26.5 -63t-63.5 -27t-63.5 27t-26.5 63zM45 288q0 113 58 210t157 154.5t213 57.5
q141 0 230.5 -81.5t89.5 -216.5q0 -172 -126.5 -297t-300.5 -125q-141 0 -231 81.5t-90 216.5zM220 303q0 -69 43 -113t113 -44q100 0 171 75.5t71 175.5q0 69 -43 113t-113 44q-100 0 -171 -75.5t-71 -175.5z" />
    <glyph glyph-name="uni04E7" unicode="&#x4e7;" horiz-adv-x="620" 
d="M168 660q0 37 26.5 63.5t63.5 26.5t63.5 -26.5t26.5 -63.5q0 -36 -26.5 -63t-63.5 -27t-63.5 27t-26.5 63zM408 660q0 37 26.5 63.5t63.5 26.5t63.5 -26.5t26.5 -63.5q0 -36 -26.5 -63t-63.5 -27t-63.5 27t-26.5 63zM27 217q0 128 94.5 220.5t226.5 92.5q109 0 177 -61.5
t68 -165.5q0 -128 -94 -220.5t-225 -92.5q-110 0 -178.5 61.5t-68.5 165.5zM193 230q0 -42 24.5 -68t65.5 -26q59 0 101.5 46.5t42.5 107.5q0 42 -24.5 68t-65.5 26q-59 0 -101.5 -46.5t-42.5 -107.5z" />
    <glyph glyph-name="uni04E8" unicode="&#x4e8;" 
d="M473 710q141 0 230.5 -81.5t89.5 -216.5q0 -172 -126.5 -297t-300.5 -125q-141 0 -231 81.5t-90 216.5q0 113 58 210t157 154.5t213 57.5zM462 554q-67 0 -122.5 -35.5t-87.5 -93.5h364q-8 58 -50 93.5t-104 35.5zM376 146q67 0 122.5 35.5t87.5 93.5h-364
q8 -58 50 -93.5t104 -35.5z" />
    <glyph glyph-name="uni04E9" unicode="&#x4e9;" horiz-adv-x="620" 
d="M348 530q109 0 177 -61.5t68 -165.5q0 -128 -94 -220.5t-225 -92.5q-110 0 -178.5 61.5t-68.5 165.5q0 128 94.5 220.5t226.5 92.5zM337 394q-77 0 -124 -69h219q-9 32 -34.5 50.5t-60.5 18.5zM283 126q77 0 124 69h-219q9 -32 34.5 -50.5t60.5 -18.5z" />
    <glyph glyph-name="uni04EA" unicode="&#x4ea;" 
d="M401 735q-37 0 -63.5 27t-26.5 63q0 37 26.5 63.5t63.5 26.5t63.5 -26.5t26.5 -63.5q0 -36 -26.5 -63t-63.5 -27zM641 735q-37 0 -63.5 27t-26.5 63q0 37 26.5 63.5t63.5 26.5t63.5 -26.5t26.5 -63.5q0 -36 -26.5 -63t-63.5 -27zM473 710q141 0 230.5 -81.5t89.5 -216.5
q0 -172 -126.5 -297t-300.5 -125q-141 0 -231 81.5t-90 216.5q0 113 58 210t157 154.5t213 57.5zM462 554q-67 0 -122.5 -35.5t-87.5 -93.5h364q-8 58 -50 93.5t-104 35.5zM376 146q67 0 122.5 35.5t87.5 93.5h-364q8 -58 50 -93.5t104 -35.5z" />
    <glyph glyph-name="uni04EB" unicode="&#x4eb;" horiz-adv-x="620" 
d="M275 570q-37 0 -63.5 27t-26.5 63q0 37 26.5 63.5t63.5 26.5t63.5 -26.5t26.5 -63.5q0 -36 -26.5 -63t-63.5 -27zM515 570q-37 0 -63.5 27t-26.5 63q0 37 26.5 63.5t63.5 26.5t63.5 -26.5t26.5 -63.5q0 -36 -26.5 -63t-63.5 -27zM348 530q109 0 177 -61.5t68 -165.5
q0 -128 -94 -220.5t-225 -92.5q-110 0 -178.5 61.5t-68.5 165.5q0 128 94.5 220.5t226.5 92.5zM337 394q-77 0 -124 -69h219q-9 32 -34.5 50.5t-60.5 18.5zM283 126q77 0 124 69h-219q9 -32 34.5 -50.5t60.5 -18.5z" />
    <glyph glyph-name="uni04EC" unicode="&#x4ec;" horiz-adv-x="760" 
d="M339 735q-37 0 -63.5 27t-26.5 63q0 37 26.5 63.5t63.5 26.5t63.5 -26.5t26.5 -63.5q0 -36 -26.5 -63t-63.5 -27zM579 735q-37 0 -63.5 27t-26.5 63q0 37 26.5 63.5t63.5 26.5t63.5 -26.5t26.5 -63.5q0 -36 -26.5 -63t-63.5 -27zM432 710q141 0 231 -81.5t90 -216.5
q0 -113 -58 -210t-157 -154.5t-213 -57.5q-119 0 -199 57t-108 147l168 59q14 -48 53 -77.5t96 -29.5q67 0 123 35.5t88 93.5h-289l32 150h287q-8 58 -50 93.5t-104 35.5q-60 0 -112 -29t-84 -78l-154 64q53 85 148 142t212 57z" />
    <glyph glyph-name="uni04ED" unicode="&#x4ed;" horiz-adv-x="580" 
d="M216 570q-37 0 -63.5 27t-26.5 63q0 37 26.5 63.5t63.5 26.5t63.5 -26.5t26.5 -63.5q0 -36 -26.5 -63t-63.5 -27zM456 570q-37 0 -63.5 27t-26.5 63q0 37 26.5 63.5t63.5 26.5t63.5 -26.5t26.5 -63.5q0 -36 -26.5 -63t-63.5 -27zM306 530q110 0 178.5 -61.5t68.5 -165.5
q0 -128 -94.5 -220.5t-226.5 -92.5q-85 0 -148 44t-79 123l136 46q9 -35 36.5 -56t65.5 -21q77 0 124 69h-187l28 130h184q-9 32 -34.5 50.5t-60.5 18.5q-86 0 -134 -78l-136 47q43 79 117.5 123t161.5 44z" />
    <glyph glyph-name="uni04EE" unicode="&#x4ee;" horiz-adv-x="670" 
d="M304 885h330l-26 -120h-330zM375 401l215 299h184l-503 -700h-184l167 232l-160 468h179z" />
    <glyph glyph-name="uni04EF" unicode="&#x4ef;" horiz-adv-x="560" 
d="M218 720h320l-26 -120h-320zM230 44l223 476h172l-341 -720h-172l97 200h-120l-44 520h162z" />
    <glyph glyph-name="uni04F0" unicode="&#x4f0;" horiz-adv-x="670" 
d="M336 735q-37 0 -63.5 27t-26.5 63q0 37 26.5 63.5t63.5 26.5t63.5 -26.5t26.5 -63.5q0 -36 -26.5 -63t-63.5 -27zM576 735q-37 0 -63.5 27t-26.5 63q0 37 26.5 63.5t63.5 26.5t63.5 -26.5t26.5 -63.5q0 -36 -26.5 -63t-63.5 -27zM375 401l215 299h184l-503 -700h-184
l167 232l-160 468h179z" />
    <glyph glyph-name="uni04F1" unicode="&#x4f1;" horiz-adv-x="560" 
d="M245 570q-37 0 -63.5 27t-26.5 63q0 37 26.5 63.5t63.5 26.5t63.5 -26.5t26.5 -63.5q0 -36 -26.5 -63t-63.5 -27zM485 570q-37 0 -63.5 27t-26.5 63q0 37 26.5 63.5t63.5 26.5t63.5 -26.5t26.5 -63.5q0 -36 -26.5 -63t-63.5 -27zM230 44l223 476h172l-341 -720h-172
l97 200h-120l-44 520h162z" />
    <glyph glyph-name="uni04F2" unicode="&#x4f2;" horiz-adv-x="670" 
d="M371 900h184l-190 -155h-154zM780 900l-190 -155h-154l160 155h184zM273 700l102 -299l215 299h184l-503 -700h-184l167 232l-160 468h179z" />
    <glyph glyph-name="uni04F3" unicode="&#x4f3;" horiz-adv-x="560" 
d="M285 740h167l-153 -160h-141zM652 740l-153 -160h-141l127 160h167zM207 520l23 -476l223 476h172l-341 -720h-172l97 200h-120l-44 520h162z" />
    <glyph glyph-name="uni04F4" unicode="&#x4f4;" horiz-adv-x="650" 
d="M326 735q-37 0 -63.5 27t-26.5 63q0 37 26.5 63.5t63.5 26.5t63.5 -26.5t26.5 -63.5q0 -36 -26.5 -63t-63.5 -27zM566 735q-37 0 -63.5 27t-26.5 63q0 37 26.5 63.5t63.5 26.5t63.5 -26.5t26.5 -63.5q0 -36 -26.5 -63t-63.5 -27zM455 380l69 320h170l-149 -700h-170
l48 229q-68 -14 -127 -14q-287 0 -223 295l41 190h170l-43 -200q-15 -70 4 -102.5t87 -32.5q61 0 123 15z" />
    <glyph glyph-name="uni04F5" unicode="&#x4f5;" horiz-adv-x="560" 
d="M245 570q-37 0 -63.5 27t-26.5 63q0 37 26.5 63.5t63.5 26.5t63.5 -26.5t26.5 -63.5q0 -36 -26.5 -63t-63.5 -27zM485 570q-37 0 -63.5 27t-26.5 63q0 37 26.5 63.5t63.5 26.5t63.5 -26.5t26.5 -63.5q0 -36 -26.5 -63t-63.5 -27zM357 294l48 226h160l-110 -520h-160
l33 156q-56 -10 -103 -10q-120 0 -162 59.5t-18 173.5l30 141h160l-32 -151q-9 -43 5 -63t59 -20q52 0 90 8z" />
    <glyph glyph-name="uni04F6" unicode="&#x4f6;" horiz-adv-x="540" 
d="M-5 0l149 700h480l-32 -150h-310l-85 -400h80l-66 -310h-170l34 160h-80z" />
    <glyph glyph-name="uni04F7" unicode="&#x4f7;" horiz-adv-x="470" 
d="M516 520l-30 -140h-250l-51 -240h70l-62 -290h-150l32 150h-80l111 520h410z" />
    <glyph glyph-name="uni04F8" unicode="&#x4f8;" horiz-adv-x="890" 
d="M356 825q0 37 26.5 63.5t63.5 26.5t63.5 -26.5t26.5 -63.5q0 -36 -26.5 -63t-63.5 -27t-63.5 27t-26.5 63zM596 825q0 37 26.5 63.5t63.5 26.5t63.5 -26.5t26.5 -63.5q0 -36 -26.5 -63t-63.5 -27t-63.5 27t-26.5 63zM304 0h-309l149 700h170l-46 -215h109
q105 0 172.5 -59.5t67.5 -145.5q0 -124 -87.5 -202t-225.5 -78zM785 0h-170l149 700h170zM236 335l-39 -185h117q55 0 91 33.5t36 81.5q0 32 -21 51t-57 19h-127z" />
    <glyph glyph-name="uni04F9" unicode="&#x4f9;" horiz-adv-x="787" 
d="M269 660q0 37 26.5 63.5t63.5 26.5t63.5 -26.5t26.5 -63.5q0 -36 -26.5 -63t-63.5 -27t-63.5 27t-26.5 63zM509 660q0 37 26.5 63.5t63.5 26.5t63.5 -26.5t26.5 -63.5q0 -36 -26.5 -63t-63.5 -27t-63.5 27t-26.5 63zM278 0h-283l111 520h160l-29 -134h93q91 0 144.5 -46
t53.5 -122q0 -93 -70.5 -155.5t-179.5 -62.5zM682 0h-160l111 520h160zM207 246l-22 -106h107q30 0 50 17.5t20 41.5q0 22 -14.5 34.5t-38.5 12.5h-102z" />
    <glyph glyph-name="uni04FC" unicode="&#x4fc;" horiz-adv-x="688" 
d="M782 700l-318 -355l105 -214q33 -67 33 -127q0 -99 -67 -156.5t-177 -57.5q-45 0 -88 10l40 141q28 -5 58 -5q62 0 62 54q0 25 -9 44l-82 179l-183 -213h-211l318 355l-169 345h196l98 -213l183 213h211z" />
    <glyph glyph-name="uni04FD" unicode="&#x4fd;" horiz-adv-x="580" 
d="M625 520l-240 -263l67 -133q31 -62 31 -120q0 -99 -67 -156.5t-177 -57.5q-45 0 -88 10l40 141q27 -5 58 -5q74 0 74 55q0 21 -9 44l-47 111l-117 -146h-195l241 263l-130 257h185l62 -146l117 146h195z" />
    <glyph glyph-name="uni0510" unicode="&#x510;" horiz-adv-x="642" 
d="M289 146q47 0 107 21t109 59l83 -122q-62 -55 -145.5 -84.5t-166.5 -29.5q-109 0 -182 48t-73 129q0 61 54 112.5t155 70.5q-71 17 -106 56t-35 92q0 89 86.5 150.5t213.5 61.5q94 0 169 -33t115 -91l-115 -112q-34 38 -84.5 59t-97.5 21t-80 -21.5t-33 -52.5
q0 -33 29.5 -44t81.5 -11h92l-32 -150h-92q-138 0 -138 -70q0 -28 23.5 -43.5t61.5 -15.5z" />
    <glyph glyph-name="uni0511" unicode="&#x511;" horiz-adv-x="544" 
d="M242 126q43 0 92.5 17t82.5 49l68 -113q-44 -42 -115 -65.5t-147 -23.5q-99 0 -155 33.5t-56 96.5q0 50 47.5 89.5t124.5 50.5q-60 9 -91 38.5t-31 73.5q0 63 75 110.5t181 47.5q157 0 244 -89l-104 -103q-32 30 -78 43t-81 13q-73 0 -73 -39q0 -30 79 -30h78l-28 -130
h-78q-21 0 -33.5 -1t-28 -4t-23.5 -11.5t-8 -21.5q0 -31 58 -31z" />
    <glyph glyph-name="uni0512" unicode="&#x512;" horiz-adv-x="750" 
d="M-27 -10h-20l32 150h20q70 0 98 37.5t57 172.5l74 350h560l-145 -681q-24 -110 -101 -169.5t-192 -59.5q-46 0 -90 10l44 154q34 -8 66 -8q40 0 68.5 22t37.5 66l110 516h-230l-44 -210q-42 -202 -113 -276t-232 -74z" />
    <glyph glyph-name="uni0513" unicode="&#x513;" horiz-adv-x="639" 
d="M-17 -10h-20l30 140h20q55 0 74.5 23t37.5 107l56 260h464l-106 -501q-23 -110 -98 -169.5t-187 -59.5q-45 0 -88 10l40 141q28 -5 58 -5q97 0 116 88l75 356h-154l-28 -130q-21 -100 -49 -152.5t-85 -80t-156 -27.5z" />
    <glyph glyph-name="uni051C" unicode="&#x51c;" horiz-adv-x="1070" 
d="M730 43l224 657h170l-239 -700h-308l39 646l-218 -646h-303l39 700h150l-37 -657l222 657h300z" />
    <glyph glyph-name="uni051D" unicode="&#x51d;" horiz-adv-x="848" 
d="M577 51l171 469h155l-199 -520h-266l32 476l-162 -476h-266l13 520h145l-21 -469l151 469h288z" />
    <glyph glyph-name="uni0524" unicode="&#x524;" horiz-adv-x="760" 
d="M144 700h620l-117 -550h80l-66 -310h-170l34 160h-80l117 550h-280l-117 -550h-170z" />
    <glyph glyph-name="uni0525" unicode="&#x525;" horiz-adv-x="640" 
d="M106 520h510l-81 -380h70l-62 -290h-150l32 150h-80l81 380h-190l-81 -380h-160z" />
    <glyph glyph-name="uni0526" unicode="&#x526;" horiz-adv-x="700" 
d="M602 223l-15 -73h80l-66 -310h-170l34 160h-80l46 219q10 47 -13 76.5t-69 29.5q-52 0 -90 -29.5t-48 -76.5l-46 -219h-170l149 700h170l-78 -367q35 64 92.5 100.5t125.5 36.5q87 0 129.5 -67.5t18.5 -179.5z" />
    <glyph glyph-name="uni0527" unicode="&#x527;" horiz-adv-x="650" 
d="M579 299l-34 -159h70l-62 -290h-150l32 150h-80l61 289q9 43 -10.5 69.5t-63.5 26.5q-47 0 -82 -26.5t-44 -69.5l-61 -289h-160l157 740h160l-73 -342q33 64 84 98t110 34q89 0 127.5 -67.5t18.5 -163.5z" />
    <glyph glyph-name="Wgrave" unicode="&#x1e80;" horiz-adv-x="1070" 
d="M648 900l119 -155h-174l-129 155h184zM730 43l224 657h170l-239 -700h-308l39 646l-218 -646h-303l39 700h150l-37 -657l222 657h300z" />
    <glyph glyph-name="wgrave" unicode="&#x1e81;" horiz-adv-x="848" 
d="M513 740l79 -160h-157l-89 160h167zM577 51l171 469h155l-199 -520h-266l32 476l-162 -476h-266l13 520h145l-21 -469l151 469h288z" />
    <glyph glyph-name="Wacute" unicode="&#x1e82;" horiz-adv-x="1070" 
d="M676 900h204l-195 -155h-174zM730 43l224 657h170l-239 -700h-308l39 646l-218 -646h-303l39 700h150l-37 -657l222 657h300z" />
    <glyph glyph-name="wacute" unicode="&#x1e83;" horiz-adv-x="848" 
d="M519 740h187l-157 -160h-157zM577 51l171 469h155l-199 -520h-266l32 476l-162 -476h-266l13 520h145l-21 -469l151 469h288z" />
    <glyph glyph-name="Wdieresis" unicode="&#x1e84;" horiz-adv-x="1070" 
d="M536 735q-37 0 -63.5 27t-26.5 63q0 37 26.5 63.5t63.5 26.5t63.5 -26.5t26.5 -63.5q0 -36 -26.5 -63t-63.5 -27zM776 735q-37 0 -63.5 27t-26.5 63q0 37 26.5 63.5t63.5 26.5t63.5 -26.5t26.5 -63.5q0 -36 -26.5 -63t-63.5 -27zM730 43l224 657h170l-239 -700h-308
l39 646l-218 -646h-303l39 700h150l-37 -657l222 657h300z" />
    <glyph glyph-name="wdieresis" unicode="&#x1e85;" horiz-adv-x="848" 
d="M389 570q-37 0 -63.5 27t-26.5 63q0 37 26.5 63.5t63.5 26.5t63.5 -26.5t26.5 -63.5q0 -36 -26.5 -63t-63.5 -27zM629 570q-37 0 -63.5 27t-26.5 63q0 37 26.5 63.5t63.5 26.5t63.5 -26.5t26.5 -63.5q0 -36 -26.5 -63t-63.5 -27zM577 51l171 469h155l-199 -520h-266
l32 476l-162 -476h-266l13 520h145l-21 -469l151 469h288z" />
    <glyph glyph-name="uni1E9E" unicode="&#x1e9e;" horiz-adv-x="700" 
d="M389 700h325l-30 -140l-156 -147q59 -23 93.5 -71.5t34.5 -110.5q0 -105 -83 -173t-210 -68q-81 0 -146 31l48 132q44 -18 88 -18q55 0 89.5 27t34.5 68q0 65 -92 65h-72l27 130l128 125h-91q-44 0 -75 -26t-41 -72l-96 -452h-170l96 452q25 117 107.5 182.5t190.5 65.5z
" />
    <glyph glyph-name="uni1EA0" unicode="&#x1ea0;" horiz-adv-x="740" 
d="M605 700l80 -700h-171l-14 138h-305l-69 -138h-181l358 700h302zM449 650l-180 -362h216zM285 -45q39 0 67 -28t28 -67q0 -38 -28 -66.5t-67 -28.5t-67 28.5t-28 66.5q0 39 28 67t67 28z" />
    <glyph glyph-name="uni1EA1" unicode="&#x1ea1;" horiz-adv-x="546" 
d="M317 530q105 0 161.5 -55t32.5 -169l-65 -306h-160l24 116q-61 -126 -177 -126q-57 0 -97 38.5t-40 99.5q0 79 59 127t164 58l93 9q44 4 49 32q4 20 -13 33t-46 13q-37 0 -61.5 -17t-30.5 -48l-152 34q18 67 88 114t171 47zM201 115q42 0 82 30t48 67l1 5q-17 -8 -39 -10
l-79 -9q-57 -7 -57 -48q0 -35 44 -35zM188 -45q39 0 67 -28t28 -67q0 -38 -28 -66.5t-67 -28.5t-67 28.5t-28 66.5q0 39 28 67t67 28z" />
    <glyph glyph-name="uni1EA2" unicode="&#x1ea2;" horiz-adv-x="740" 
d="M510 890q-17 0 -27 -12.5t-12 -31.5h-120q5 61 52.5 97.5t117.5 36.5q66 0 102.5 -30.5t36.5 -75.5q0 -59 -48 -101.5t-129 -52.5l-18 81q72 22 72 61q0 28 -27 28zM685 0h-171l-14 138h-305l-69 -138h-181l358 700h302zM449 650l-180 -362h216z" />
    <glyph glyph-name="uni1EA3" unicode="&#x1ea3;" horiz-adv-x="546" 
d="M361 710q-17 0 -27 -12.5t-12 -31.5h-115q5 60 51.5 97t113.5 37q63 0 98.5 -30.5t35.5 -75.5q0 -59 -48 -101.5t-129 -52.5l-18 81q77 24 77 61q0 28 -27 28zM317 530q105 0 161.5 -55t32.5 -169l-65 -306h-160l24 116q-61 -126 -177 -126q-57 0 -97 38.5t-40 99.5
q0 79 59 127t164 58l93 9q44 4 49 32q4 20 -13 33t-46 13q-37 0 -61.5 -17t-30.5 -48l-152 34q18 67 88 114t171 47zM201 115q42 0 82 30t48 67l1 5q-17 -8 -39 -10l-79 -9q-57 -7 -57 -48q0 -35 44 -35z" />
    <glyph glyph-name="uni1EA4" unicode="&#x1ea4;" horiz-adv-x="740" 
d="M636 884l148 139h184l-176 -139h-156zM248 745l178 155h168l112 -155h-168l-43 56l-67 -56h-180zM605 700l80 -700h-171l-14 138h-305l-69 -138h-181l358 700h302zM449 650l-180 -362h216z" />
    </font>
</defs>
</svg>
