<svg xmlns="http://www.w3.org/2000/svg">
<defs>
<font id="AtypDisplay-SemiboldItalic" horiz-adv-x="0" >
  <font-face 
    font-family="Atyp Display Semibold Italic"
    font-weight="400"
    font-style="italic"
    font-stretch="normal"
    units-per-em="1000"
    panose-1="0 0 7 0 0 0 0 0 0 0"
    ascent="779"
    descent="-221"
    x-height="516"
    cap-height="700"
    bbox="-454 -313 1946 1126"
    underline-thickness="50"
    underline-position="-200"
    slope="-12"
    unicode-range="U+000D-1F7E4"
  />
<missing-glyph horiz-adv-x="790" 
d="M690 0h-590v590h184v55q0 55 55 55h112q55 0 55 -55v-55h184v-590zM339 645v-55h112v55h-112zM189 429l-4 -24q17 -11 39 -11q18 0 29.5 9t11.5 26q0 16 -14 23t-28 10.5t-14 8.5q0 9 16 9q14 0 31 -9l4 24q-15 9 -35 9q-18 0 -29.5 -9t-11.5 -26q0 -13 8.5 -20.5
t19 -9.5t19 -5.5t8.5 -7.5q0 -9 -15 -9q-16 0 -35 12zM317 502h-24v-64q0 -20 11.5 -32t31.5 -12t31.5 12t11.5 32v64h-24v-64q0 -20 -19 -20t-19 20v64zM413 420l-3 -24h73l3 24h-26v58h23l3 24h-73l-3 -24h26v-58h-23zM547 478v-82h24v82h31l3 24h-89l-3 -24h34zM248 294
l26 3q0 52 -42 52q-21 0 -33 -15.5t-12 -39.5q0 -28 13.5 -41.5t34.5 -13.5t38 12l-5 24q-21 -12 -33 -12q-22 0 -22 31t19 31q16 0 16 -31zM418 274l-4 -24q16 -11 39 -11q18 0 29.5 9t11.5 26q0 16 -14 23t-28 10.5t-14 8.5q0 9 16 9q14 0 31 -9l4 24q-15 9 -35 9
q-18 0 -29.5 -9t-11.5 -26q0 -16 13.5 -23.5t27.5 -11t14 -8.5q0 -9 -15 -9q-16 0 -35 12zM315 347l-19 -106h25l5 27h32l5 -27h24l-18 106h-54zM528 347v-106h71l3 24h-50v17h47l3 24h-50v17h47l3 24h-74zM354 292h-24l5 31h14zM220 168v-82h24v82h31l3 24h-89l-3 -24h34z
M331 117v-31h24v31l36 75h-27l-21 -45l-20 45h-28zM416 192v-106h24v33h19q17 0 28.5 10.5t11.5 25.5t-11.5 26t-28.5 11h-43zM528 192v-106h71l3 24h-50v17h47l3 24h-50v17h47l3 24h-74zM459 143h-19v25h19q14 0 14 -13q0 -12 -14 -12z" />
    <glyph glyph-name="f_b" unicode="fb" horiz-adv-x="1040" 
d="M833 526q81 0 130 -58t49 -156q0 -130 -82 -226t-193 -96q-62 0 -108.5 44t-56.5 117l-32 -151h-135l84 397h-206l-84 -397h-135l84 397h-104l26 119h104l5 24q22 108 79 154t171 46h61l-26 -119h-60q-42 0 -61 -16t-28 -57l-6 -32h205l48 224h135l-76 -360
q37 67 93.5 106.5t118.5 39.5zM707 113q66 0 115.5 54.5t49.5 124.5q0 48 -29 79t-74 31q-73 0 -124.5 -53.5t-51.5 -124.5q0 -50 30.5 -80.5t83.5 -30.5z" />
    <glyph glyph-name="f_f" unicode="ff" horiz-adv-x="752" 
d="M199 0h-135l84 397h-104l26 119h104l5 24q22 108 79 154t171 46h61l-26 -119h-60q-42 0 -61 -16t-28 -57l-6 -32h206l5 24q22 108 79 154t171 46h61l-26 -119h-61q-41 0 -60 -16t-28 -57l-6 -32h133l-26 -119h-133l-84 -397h-135l84 397h-206z" />
    <glyph glyph-name="f_h" unicode="fh" horiz-adv-x="1013" 
d="M821 526q90 0 130.5 -67t20.5 -163l-63 -296h-135l61 288q11 52 -13 83.5t-75 31.5q-54 0 -94.5 -32t-51.5 -82l-61 -289h-135l84 397h-206l-84 -397h-135l84 397h-104l26 119h104l5 24q22 108 79 154t171 46h61l-26 -119h-60q-42 0 -61 -16t-28 -57l-6 -32h205l48 224
h135l-75 -349q34 66 86 100.5t113 34.5z" />
    <glyph glyph-name="f_i" unicode="fi" horiz-adv-x="648" 
d="M309 516h341l-110 -516h-135l85 397h-207l-84 -397h-135l84 397h-104l26 119h104l5 24q22 108 79 154t171 46h61l-26 -119h-60q-42 0 -61 -16t-28 -57zM613 740q33 0 57 -23.5t24 -57.5q0 -33 -24 -57t-57 -24q-34 0 -58 24t-24 57q0 34 24 57.5t58 23.5z" />
    <glyph glyph-name="f_j" unicode="fj" horiz-adv-x="648" 
d="M309 516h340l-110 -516q-24 -116 -83.5 -166t-183.5 -43l25 119q54 -1 74.5 17t32.5 73l85 397h-206l-84 -397h-135l84 397h-104l26 119h104l5 24q22 108 79 154t171 46h61l-26 -119h-60q-42 0 -61 -16t-28 -57zM612 740q34 0 57.5 -23.5t23.5 -57.5q0 -33 -23.5 -57
t-57.5 -24t-58 24t-24 57q0 34 24 57.5t58 23.5z" />
    <glyph glyph-name="f_k" unicode="fk" horiz-adv-x="977" 
d="M818 516h186l-250 -223l174 -293h-156l-120 202l-85 -76l-27 -126h-135l84 397h-206l-84 -397h-135l84 397h-104l26 119h104l5 24q22 108 79 154t171 46h61l-26 -119h-60q-42 0 -61 -16t-28 -57l-6 -32h205l48 224h135l-89 -415z" />
    <glyph glyph-name="f_l" unicode="fl" horiz-adv-x="648" 
d="M514 516l48 224h135l-157 -740h-135l84 397h-206l-84 -397h-135l84 397h-104l26 119h104l5 24q22 108 79 154t171 46h61l-26 -119h-60q-42 0 -61 -16t-28 -57l-6 -32h205z" />
    <glyph glyph-name="f_t" unicode="ft" horiz-adv-x="758" 
d="M753 397h-133l-43 -205q-16 -73 56 -73h61l-25 -119h-51q-103 0 -148.5 55t-24.5 154l40 188h-202l-84 -397h-135l84 397h-104l26 119h104l5 24q22 108 79 154t171 46h61l-26 -119h-60q-42 0 -61 -16t-28 -57l-6 -32h201l33 152l143 42l-41 -194h134z" />
    <glyph glyph-name="f_hbar" unicode="f&#x127;" horiz-adv-x="1013" 
d="M821 526q90 0 130.5 -67t20.5 -163l-63 -296h-135l61 288q11 52 -13 83.5t-75 31.5q-54 0 -94.5 -32t-51.5 -82l-61 -289h-135l84 397h-206l-84 -397h-135l84 397h-104l26 119h104l5 24q22 108 79 154t171 46h46l-26 -119h-45q-42 0 -61 -16t-28 -57l-6 -32h205l9 42h-56
l22 102h56l17 80h135l-17 -80h125l-22 -102h-125l-36 -167q34 66 86 100.5t113 34.5z" />
    <glyph glyph-name="f_iacute" unicode="f&#xed;" horiz-adv-x="648" 
d="M309 516h341l-110 -516h-135l85 397h-207l-84 -397h-135l84 397h-104l26 119h104l5 24q22 108 79 154t171 46h61l-26 -119h-60q-42 0 -61 -16t-28 -57zM638 739h158l-154 -160h-135z" />
    <glyph glyph-name="f_imacron" unicode="f&#x12b;" horiz-adv-x="648" 
d="M309 516h341l-110 -516h-135l85 397h-207l-84 -397h-135l84 397h-104l26 119h104l5 24q22 108 79 154t171 46h33l-25 -119h-33q-42 0 -61 -16t-28 -57zM468 608l21 102h268l-22 -102h-267z" />
    <glyph glyph-name="f_lcaron" unicode="f&#x13e;" horiz-adv-x="648" 
d="M706 575l64 193h128l-87 -193h-105zM309 516h205l48 224h135l-157 -740h-135l84 397h-206l-84 -397h-135l84 397h-104l26 119h104l5 24q22 108 79 154t171 46h61l-26 -119h-60q-42 0 -61 -16t-28 -57z" />
    <glyph glyph-name="f_f_b" unicode="ffb" horiz-adv-x="1381" 
d="M1174 526q81 0 130 -58t49 -156q0 -130 -82.5 -226t-192.5 -96q-62 0 -109 45t-56 119l-33 -154h-135l84 397h-205l-84 -397h-135l84 397h-206l-84 -397h-135l84 397h-104l26 119h104l5 24q22 108 79 154t171 46h61l-26 -119h-60q-42 0 -61 -16t-28 -57l-6 -32h206l5 24
q22 108 79 154t171 46h61l-26 -119h-61q-41 0 -60 -16t-28 -57l-6 -32h204l48 224h135l-77 -363q37 68 94 108.5t120 40.5zM1048 113q66 0 115.5 54.5t49.5 124.5q0 48 -29 79t-75 31q-72 0 -123.5 -53.5t-51.5 -124.5q0 -50 31 -80.5t83 -30.5z" />
    <glyph glyph-name="f_f_h" unicode="ffh" horiz-adv-x="1353" 
d="M1161 526q90 0 131 -67t21 -163l-63 -296h-135l60 288q11 52 -13 83.5t-74 31.5q-54 0 -95.5 -32t-51.5 -82l-61 -289h-135l84 397h-205l-84 -397h-135l84 397h-206l-84 -397h-135l84 397h-104l26 119h104l5 24q22 108 79 154t171 46h61l-26 -119h-60q-42 0 -61 -16
t-28 -57l-6 -32h206l5 24q22 108 79 154t171 46h61l-26 -119h-61q-41 0 -60 -16t-28 -57l-6 -32h204l48 224h135l-73 -347q34 64 86 98.5t111 34.5z" />
    <glyph glyph-name="f_f_i" unicode="ffi" horiz-adv-x="989" 
d="M650 516h340l-110 -516h-135l85 397h-206l-84 -397h-135l84 397h-206l-84 -397h-135l84 397h-104l26 119h104l5 24q22 108 79 154t171 46h61l-26 -119h-60q-42 0 -61 -16t-28 -57l-6 -32h206l5 24q22 108 79 154t171 46h61l-26 -119h-61q-41 0 -60 -16t-28 -57zM954 740
q33 0 57 -23.5t24 -57.5q0 -33 -24 -57t-57 -24q-34 0 -58 24t-24 57q0 34 24 57.5t58 23.5z" />
    <glyph glyph-name="f_f_j" unicode="ffj" horiz-adv-x="989" 
d="M650 516h340l-110 -516q-25 -117 -84 -166.5t-183 -42.5l25 119q54 -1 74.5 17t32.5 73l85 397h-206l-84 -397h-135l84 397h-206l-84 -397h-135l84 397h-104l26 119h104l5 24q22 108 79 154t171 46h61l-26 -119h-60q-42 0 -61 -16t-28 -57l-6 -32h206l5 24q22 108 79 154
t171 46h61l-26 -119h-61q-41 0 -60 -16t-28 -57zM953 740q33 0 57 -23.5t24 -57.5q0 -33 -24 -57t-57 -24q-34 0 -58 24t-24 57q0 34 24 57.5t58 23.5z" />
    <glyph glyph-name="f_f_k" unicode="ffk" horiz-adv-x="1318" 
d="M1159 516h186l-250 -223l174 -293h-156l-120 201l-85 -75l-28 -126h-135l84 397h-205l-84 -397h-135l84 397h-206l-84 -397h-135l84 397h-104l26 119h104l5 24q22 108 79 154t171 46h61l-26 -119h-60q-42 0 -61 -16t-28 -57l-6 -32h206l5 24q22 108 79 154t171 46h61
l-26 -119h-61q-41 0 -60 -16t-28 -57l-6 -32h204l48 224h135l-88 -415z" />
    <glyph glyph-name="f_f_l" unicode="ffl" horiz-adv-x="989" 
d="M854 516l48 224h135l-157 -740h-135l84 397h-205l-84 -397h-135l84 397h-206l-84 -397h-135l84 397h-104l26 119h104l5 24q22 108 79 154t171 46h61l-26 -119h-60q-42 0 -61 -16t-28 -57l-6 -32h206l5 24q22 108 79 154t171 46h61l-26 -119h-61q-41 0 -60 -16t-28 -57
l-6 -32h204z" />
    <glyph glyph-name="f_f_t" unicode="fft" horiz-adv-x="1103" 
d="M199 0h-135l84 397h-104l26 119h104l5 24q22 108 79 154t171 46h61l-26 -119h-60q-42 0 -61 -16t-28 -57l-6 -32h206l5 24q22 108 79 154t171 46h61l-26 -119h-61q-41 0 -60 -16t-28 -57l-6 -32h205l33 152l143 42l-41 -194h134l-26 -119h-133l-43 -205q-16 -73 56 -73
h61l-25 -119h-51q-103 0 -148.5 55t-24.5 154l40 188h-206l-84 -397h-135l84 397h-206z" />
    <glyph glyph-name="idieresis_idieresis" unicode="&#xef;&#xef;" horiz-adv-x="487" 
d="M37 659q0 32 23 55t55 23t55 -23t23 -55t-23 -55t-55 -23q-31 0 -54.5 23.5t-23.5 54.5zM251 659q0 32 23 55t55 23t55 -23t23 -55t-23 -55t-55 -23t-55 23t-23 55zM464 659q0 32 23 55t55 23t55.5 -23t23.5 -55t-23.5 -55t-55.5 -23t-55 23.5t-23 54.5zM135 0h-135
l110 516h135zM378 0h-135l110 516h135z" />
    <glyph glyph-name="t_t" unicode="tt" horiz-adv-x="798" 
d="M148 397h-104l26 119h104l32 152l144 42l-41 -194h241l33 152l143 42l-41 -194h134l-26 -119h-133l-43 -205q-16 -73 56 -73h61l-25 -119h-51q-103 0 -148.5 55t-24.5 154l40 188h-242l-43 -205q-15 -73 57 -73h61l-26 -119h-51q-103 0 -148 55t-25 154z" />
    <glyph glyph-name="tcaron_t" unicode="&#x165;t" horiz-adv-x="798" 
d="M470 575h-105l64 193h128zM148 397h-104l26 119h104l32 152l144 42l-41 -194h241l33 152l143 42l-41 -194h134l-26 -119h-133l-43 -205q-16 -73 56 -73h61l-25 -119h-51q-103 0 -148.5 55t-24.5 154l40 188h-242l-43 -205q-15 -73 57 -73h61l-26 -119h-51q-103 0 -148 55
t-25 154z" />
    <glyph glyph-name="uni04330443" unicode="&#x433;&#x443;" horiz-adv-x="915" 
d="M591 36l239 480h146l-361 -716h-145l103 200h-101l-43 397h-210l-84 -397h-135l110 516h443z" />
    <glyph glyph-name="uni04560457" unicode="&#x456;&#x457;" horiz-adv-x="511" 
d="M126 659q0 34 24 57.5t58 23.5q33 0 57 -23.5t24 -57.5q0 -33 -24 -57t-57 -24q-34 0 -58 24t-24 57zM312 659q0 31 23 54t54 23q32 0 55 -23t23 -54t-23.5 -54.5t-54.5 -23.5t-54 23t-23 55zM489 659q0 32 23 54.5t55 22.5q31 0 54 -23t23 -54q0 -32 -23 -55t-54 -23
q-32 0 -55 23t-23 55zM135 0h-135l110 516h135zM402 0h-135l110 516h135z" />
    <glyph glyph-name="lambda_lambda" unicode="&#x3bb;&#x3bb;" horiz-adv-x="1010" 
d="M868 740l93 -740h-129l-57 459l-220 -459h-184l-57 459l-221 -459h-153l266 516h101l-28 224h128l74 -586l187 362h100l-28 224h128z" />
    <glyph glyph-name=".notdef" horiz-adv-x="790" 
d="M690 0h-590v590h184v55q0 55 55 55h112q55 0 55 -55v-55h184v-590zM339 645v-55h112v55h-112zM189 429l-4 -24q17 -11 39 -11q18 0 29.5 9t11.5 26q0 16 -14 23t-28 10.5t-14 8.5q0 9 16 9q14 0 31 -9l4 24q-15 9 -35 9q-18 0 -29.5 -9t-11.5 -26q0 -13 8.5 -20.5
t19 -9.5t19 -5.5t8.5 -7.5q0 -9 -15 -9q-16 0 -35 12zM317 502h-24v-64q0 -20 11.5 -32t31.5 -12t31.5 12t11.5 32v64h-24v-64q0 -20 -19 -20t-19 20v64zM413 420l-3 -24h73l3 24h-26v58h23l3 24h-73l-3 -24h26v-58h-23zM547 478v-82h24v82h31l3 24h-89l-3 -24h34zM248 294
l26 3q0 52 -42 52q-21 0 -33 -15.5t-12 -39.5q0 -28 13.5 -41.5t34.5 -13.5t38 12l-5 24q-21 -12 -33 -12q-22 0 -22 31t19 31q16 0 16 -31zM418 274l-4 -24q16 -11 39 -11q18 0 29.5 9t11.5 26q0 16 -14 23t-28 10.5t-14 8.5q0 9 16 9q14 0 31 -9l4 24q-15 9 -35 9
q-18 0 -29.5 -9t-11.5 -26q0 -16 13.5 -23.5t27.5 -11t14 -8.5q0 -9 -15 -9q-16 0 -35 12zM315 347l-19 -106h25l5 27h32l5 -27h24l-18 106h-54zM528 347v-106h71l3 24h-50v17h47l3 24h-50v17h47l3 24h-74zM354 292h-24l5 31h14zM220 168v-82h24v82h31l3 24h-89l-3 -24h34z
M331 117v-31h24v31l36 75h-27l-21 -45l-20 45h-28zM416 192v-106h24v33h19q17 0 28.5 10.5t11.5 25.5t-11.5 26t-28.5 11h-43zM528 192v-106h71l3 24h-50v17h47l3 24h-50v17h47l3 24h-74zM459 143h-19v25h19q14 0 14 -13q0 -12 -14 -12z" />
    <glyph glyph-name="uni0000" horiz-adv-x="600" 
 />
    <glyph glyph-name="nonmarkingreturn" horiz-adv-x="333" 
 />
    <glyph glyph-name="CR" unicode="&#xd;" horiz-adv-x="600" 
 />
    <glyph glyph-name="space" unicode=" " horiz-adv-x="300" 
 />
    <glyph glyph-name="exclam" unicode="!" horiz-adv-x="303" 
d="M193 214h-101l39 302l39 184h151l-39 -184zM31 72q0 34 23.5 58t57.5 24t58 -24t24 -58q0 -32 -24 -56.5t-58 -24.5q-33 0 -57 24t-24 57z" />
    <glyph glyph-name="quotedbl" unicode="&#x22;" horiz-adv-x="447" 
d="M214 410h-127l62 290h127zM425 410h-127l62 290h127z" />
    <glyph glyph-name="numbersign" unicode="#" horiz-adv-x="758" 
d="M782 534l-60 -119h-96l-64 -130h96l-59 -119h-95l-82 -166h-132l81 166h-125l-82 -166h-132l82 166h-99l59 119h98l64 130h-97l59 119h96l82 166h132l-82 -166h126l81 166h133l-82 -166h98zM304 285h126l63 130h-125z" />
    <glyph glyph-name="dollar" unicode="$" horiz-adv-x="645" 
d="M443 574l-35 -162q41 -14 68.5 -27t57.5 -35.5t45.5 -55t15.5 -74.5q0 -98 -78.5 -161t-197.5 -68l-24 -111h-103l25 118q-153 32 -181 187l142 29q11 -67 66 -90l38 179q-81 28 -128.5 68.5t-47.5 114.5q0 91 74 154t188 69l24 111h103l-25 -118q145 -32 172 -187
l-142 -29q-11 63 -57 88zM260 506q0 -34 53 -59l29 137q-39 -7 -60.5 -28t-21.5 -50zM378 268l-33 -153q46 7 72 30t26 56q0 40 -65 67z" />
    <glyph glyph-name="percent" unicode="%" horiz-adv-x="982" 
d="M77 444q0 103 70 182.5t165 79.5q71 0 115.5 -46.5t44.5 -123.5q0 -103 -70 -182.5t-164 -79.5q-71 0 -116 46.5t-45 123.5zM306 0h-143l553 700h143zM196 452q0 -33 14.5 -53t40.5 -20q39 0 71 46t32 103q0 33 -15 53.5t-40 20.5q-40 0 -71.5 -46.5t-31.5 -103.5z
M550 164q0 103 70 182.5t165 79.5q71 0 116 -46.5t45 -123.5q0 -103 -70 -182.5t-165 -79.5q-71 0 -116 46.5t-45 123.5zM669 172q0 -33 14.5 -53t40.5 -20q39 0 71 46t32 103q0 33 -14.5 53.5t-40.5 20.5q-40 0 -71.5 -46.5t-31.5 -103.5z" />
    <glyph glyph-name="ampersand" unicode="&#x26;" horiz-adv-x="680" 
d="M664 97l-85 -107q-64 43 -104 73q-106 -73 -250 -73q-100 0 -157.5 49t-57.5 119q0 67 46 118.5t130 81.5q-42 76 -42 140q0 90 70.5 151t174.5 61q79 0 125.5 -44.5t46.5 -104.5q0 -72 -55.5 -127.5t-151.5 -87.5q48 -53 118 -111q37 69 30 148h130q5 -126 -61 -223
q38 -28 93 -63zM372 594q-38 0 -66.5 -30.5t-28.5 -70.5q0 -36 27 -80q26 12 43.5 22.5t39 26.5t32.5 36t11 42q0 25 -16 39.5t-42 14.5zM244 106q74 0 134 35q-83 71 -140 142q-86 -48 -86 -107q0 -31 24.5 -50.5t67.5 -19.5z" />
    <glyph glyph-name="quotesingle" unicode="'" horiz-adv-x="235" 
d="M214 410h-127l62 290h127z" />
    <glyph glyph-name="parenleft" unicode="(" horiz-adv-x="353" 
d="M56 206q0 150 71 317t186 277h146q-116 -111 -189.5 -278.5t-73.5 -315.5q0 -191 71 -306h-133q-78 126 -78 306z" />
    <glyph glyph-name="parenright" unicode=")" horiz-adv-x="358" 
d="M336 494q0 -150 -71 -317t-186 -277h-146q116 111 189.5 278.5t73.5 315.5q0 191 -71 306h133q78 -126 78 -306z" />
    <glyph glyph-name="asterisk" unicode="*" horiz-adv-x="425" 
d="M425 647l32 -80l-112 -53l90 -54l-53 -69l-88 64l-21 -117h-87l27 109l-102 -56l-32 81l112 52l-90 54l53 69l88 -64l21 117h87l-27 -109z" />
    <glyph glyph-name="plus" unicode="+" horiz-adv-x="536" 
d="M206 287h-146l27 126h146l32 147h135l-32 -147h147l-27 -126h-147l-31 -147h-135z" />
    <glyph glyph-name="comma" unicode="," horiz-adv-x="259" 
d="M97 170q47 0 76 -34.5t29 -86.5q0 -77 -55.5 -138.5t-142.5 -84.5l-38 78q106 33 125 95q-35 -5 -61.5 18.5t-26.5 62.5q0 38 26.5 64t67.5 26z" />
    <glyph glyph-name="hyphen" unicode="-" horiz-adv-x="332" 
d="M286 200h-264l26 119h263z" />
    <glyph glyph-name="period" unicode="." horiz-adv-x="259" 
d="M3 80q0 38 26 64t63 26t63 -26.5t26 -63.5q0 -36 -26.5 -62.5t-62.5 -26.5q-37 0 -63 26.5t-26 62.5z" />
    <glyph glyph-name="slash" unicode="/" horiz-adv-x="352" 
d="M56 -100h-141l421 900h142z" />
    <glyph glyph-name="zero" unicode="0" horiz-adv-x="661" 
d="M54 268q0 110 48.5 212t133 166t179.5 64q110 0 170.5 -77t60.5 -201q0 -110 -48.5 -212t-133 -166t-179.5 -64q-110 0 -170.5 77t-60.5 201zM202 268q0 -66 27 -106.5t73 -40.5q73 0 134.5 97.5t61.5 213.5q0 66 -26.5 106.5t-73.5 40.5q-73 0 -134.5 -97.5
t-61.5 -213.5z" />
    <glyph glyph-name="one" unicode="1" horiz-adv-x="532" 
d="M464 710l-124 -583h160l-27 -127h-493l27 127h190l89 415l-201 -49l27 131z" />
    <glyph glyph-name="two" unicode="2" horiz-adv-x="620" 
d="M455 280l-211 -153h294l-27 -127h-507l25 119l348 262q84 63 84 127q0 32 -21.5 51.5t-62.5 19.5q-50 0 -85 -29.5t-45 -83.5h-148q17 113 100.5 178.5t199.5 65.5q98 0 156 -51t58 -131q0 -136 -158 -248z" />
    <glyph glyph-name="three" unicode="3" horiz-adv-x="578" 
d="M152 700h452l-23 -110l-194 -168q58 -12 99.5 -58t41.5 -123q0 -103 -83.5 -177t-205.5 -74q-117 0 -175.5 57.5t-48.5 165.5l146 17q-7 -51 15 -80t70 -29q59 0 96 33.5t37 84.5q0 80 -106 80h-66l23 108l165 146h-270z" />
    <glyph glyph-name="four" unicode="4" horiz-adv-x="605" 
d="M589 700l-94 -441h86l-27 -126h-86l-27 -133h-143l28 133h-349l27 126l316 441h269zM437 658l-286 -399h202z" />
    <glyph glyph-name="five" unicode="5" horiz-adv-x="591" 
d="M597 700l-27 -127h-272l-78 -228q63 101 175 101q70 0 116.5 -42.5t46.5 -123.5q0 -117 -90.5 -203.5t-217.5 -86.5q-108 0 -165.5 55t-52.5 154l146 17q-2 -44 21 -69.5t65 -25.5q59 0 101 41.5t42 98.5q0 38 -23.5 61t-63.5 23q-72 0 -116 -58l-129 16l134 397h388z
" />
    <glyph glyph-name="six" unicode="6" horiz-adv-x="586" 
d="M539 700l-249 -317q52 48 114 52.5t105 -38.5t43 -119q0 -117 -91 -202.5t-207 -85.5q-103 0 -165 54.5t-62 145.5t84 196l248 314h180zM264 121q55 0 96.5 41.5t41.5 96.5q0 38 -25 62t-65 24q-55 0 -96.5 -41.5t-41.5 -96.5q0 -38 25 -62t65 -24z" />
    <glyph glyph-name="seven" unicode="7" horiz-adv-x="538" 
d="M108 700h499l-23 -110l-116 -177h79l-27 -126h-135l-188 -287h-168l192 287h-201l27 126h258l107 160h-331z" />
    <glyph glyph-name="eight" unicode="8" horiz-adv-x="613" 
d="M436 360q124 -35 124 -140q0 -98 -86 -164t-215 -66q-109 0 -170.5 45t-61.5 124q0 67 53 122t140 78q-101 39 -101 132q0 88 81.5 153.5t192.5 65.5q91 0 149 -45t58 -120q0 -57 -46 -108t-118 -77zM375 583q-44 0 -78 -30t-34 -70q0 -29 21.5 -47.5t55.5 -18.5
q44 0 78 29.5t34 69.5q0 30 -21 48.5t-56 18.5zM280 117q57 0 96.5 31t39.5 74q0 36 -27.5 58t-76.5 22q-56 0 -96 -32.5t-40 -75.5q0 -36 27 -56.5t77 -20.5z" />
    <glyph glyph-name="nine" unicode="9" horiz-adv-x="586" 
d="M372 710q103 0 165 -54.5t62 -145.5q0 -90 -85 -196l-248 -314h-180l247 314q-52 -46 -113.5 -49.5t-104 39.5t-42.5 118q0 117 91 202.5t208 85.5zM314 355q55 0 96.5 41.5t41.5 96.5q0 38 -25 62t-65 24q-56 0 -97 -41.5t-41 -96.5q0 -38 25 -62t65 -24z" />
    <glyph glyph-name="colon" unicode=":" horiz-adv-x="259" 
d="M78 435q0 37 26 63.5t63 26.5t63.5 -26.5t26.5 -63.5q0 -35 -26.5 -62t-63.5 -27q-36 0 -62.5 26.5t-26.5 62.5zM3 80q0 38 26 64t63 26t63 -26.5t26 -63.5q0 -36 -26.5 -62.5t-62.5 -26.5q-37 0 -63 26.5t-26 62.5z" />
    <glyph glyph-name="semicolon" unicode=";" horiz-adv-x="259" 
d="M167 525q37 0 63.5 -26.5t26.5 -63.5q0 -35 -26.5 -62t-63.5 -27q-36 0 -62.5 26.5t-26.5 62.5q0 37 26 63.5t63 26.5zM97 170q47 0 76 -34.5t29 -86.5q0 -77 -55.5 -138.5t-142.5 -84.5l-38 78q106 33 125 95q-35 -5 -61.5 18.5t-26.5 62.5q0 38 26.5 64t67.5 26z" />
    <glyph glyph-name="less" unicode="&#x3c;" horiz-adv-x="536" 
d="M87 413l465 178l-30 -142l-286 -105l241 -105l-27 -130l-390 178z" />
    <glyph glyph-name="equal" unicode="=" horiz-adv-x="536" 
d="M514 410h-427l27 127h427zM462 163h-428l27 127h428z" />
    <glyph glyph-name="greater" unicode="&#x3e;" horiz-adv-x="536" 
d="M97 461l28 130l390 -178l-27 -126l-465 -178l30 142l285 105z" />
    <glyph glyph-name="question" unicode="?" horiz-adv-x="542" 
d="M317 212h-135q10 58 39 100t62 64.5t65.5 41t53.5 42.5t21 56q0 30 -23 46.5t-65 16.5q-56 0 -90.5 -29.5t-38.5 -83.5h-148q17 115 97.5 179.5t197.5 64.5q106 0 163.5 -48t57.5 -128q0 -49 -17.5 -87t-44.5 -59.5t-59 -42t-60 -36t-49.5 -41t-26.5 -56.5zM139 72
q0 34 23.5 58t57.5 24t57.5 -24t23.5 -58q0 -33 -24 -57t-57 -24t-57 24t-24 57z" />
    <glyph glyph-name="at" unicode="@" horiz-adv-x="1003" 
d="M554 710q184 0 299.5 -116.5t115.5 -293.5q0 -126 -69 -208t-168 -82q-56 0 -92 29.5t-42 79.5q-32 -52 -80.5 -83t-105.5 -31q-74 0 -124 57.5t-50 145.5q0 117 69.5 198.5t167.5 81.5q55 0 98 -35.5t60 -99.5l22 126h120l-55 -311q-4 -23 6 -37.5t33 -14.5
q39 0 71.5 50t32.5 135q0 135 -86 223.5t-224 88.5q-176 0 -300 -119.5t-124 -292.5q0 -135 86 -223.5t225 -88.5q129 0 235 68l57 -83q-132 -84 -292 -84q-184 0 -300 116t-116 294q0 140 71 257.5t193 185t266 67.5zM467 115q60 0 104 45t44 108q0 48 -28 79t-74 31
q-60 0 -104.5 -45t-44.5 -108q0 -48 28.5 -79t74.5 -31z" />
    <glyph glyph-name="A" unicode="A" horiz-adv-x="734" 
d="M675 0h-144l-19 152h-330l-80 -152h-152l376 700h254zM449 659l-200 -380h247z" />
    <glyph glyph-name="B" unicode="B" horiz-adv-x="642" 
d="M442 352q145 -18 145 -140q0 -89 -70.5 -150.5t-177.5 -61.5h-339l149 700h291q82 0 133.5 -44t51.5 -106q0 -80 -49 -131.5t-134 -66.5zM415 577h-154l-36 -168h154q48 0 81 30.5t33 72.5q0 29 -20.5 47t-57.5 18zM165 123h165q48 0 81 30.5t33 72.5q0 29 -20.5 47
t-57.5 18h-165z" />
    <glyph glyph-name="C" unicode="C" horiz-adv-x="763" 
d="M49 286q0 113 58.5 210.5t158 155.5t213.5 58q116 0 195.5 -56.5t106.5 -146.5l-141 -50q-15 54 -59.5 88t-109.5 34q-113 0 -194 -84.5t-81 -196.5q0 -77 49 -127t128 -50q67 0 126.5 33t96.5 89l129 -54q-54 -85 -149.5 -142t-210.5 -57q-139 0 -227.5 81.5
t-88.5 214.5z" />
    <glyph glyph-name="D" unicode="D" horiz-adv-x="724" 
d="M286 0h-286l149 700h269q131 0 214.5 -80.5t83.5 -201.5q0 -170 -126 -294t-304 -124zM265 573l-96 -446h124q113 0 194 82t81 195q0 76 -48.5 122.5t-131.5 46.5h-123z" />
    <glyph glyph-name="E" unicode="E" horiz-adv-x="562" 
d="M465 0h-465l149 700h465l-27 -127h-322l-35 -160h313l-27 -126h-313l-34 -160h323z" />
    <glyph glyph-name="F" unicode="F" horiz-adv-x="522" 
d="M143 0h-143l149 700h445l-27 -127h-302l-38 -175h292l-27 -127h-292z" />
    <glyph glyph-name="G" unicode="G" horiz-adv-x="804" 
d="M347 267l27 127h419q-11 -175 -139 -289.5t-289 -114.5q-139 0 -227.5 81.5t-88.5 214.5q0 113 58.5 210.5t158 155.5t213.5 58q116 0 195.5 -56.5t106.5 -146.5l-141 -50q-15 54 -59.5 88t-109.5 34q-113 0 -194 -84.5t-81 -196.5q0 -77 49 -127t128 -50t144.5 44.5
t91.5 101.5h-262z" />
    <glyph glyph-name="H" unicode="H" horiz-adv-x="718" 
d="M143 0h-143l149 700h143l-62 -287h324l61 287h143l-149 -700h-143l61 287h-324z" />
    <glyph glyph-name="I" unicode="I" horiz-adv-x="251" 
d="M143 0h-143l149 700h143z" />
    <glyph glyph-name="J" unicode="J" horiz-adv-x="545" 
d="M-3 207l143 21q-9 -55 14.5 -81t71.5 -26q46 0 81 30.5t45 80.5l99 468h143l-101 -476q-24 -111 -104.5 -172.5t-185.5 -61.5q-101 0 -160 58t-46 159z" />
    <glyph glyph-name="K" unicode="K" horiz-adv-x="673" 
d="M538 700h194l-319 -291l204 -409h-159l-156 309l-117 -107l-42 -202h-143l149 700h143l-61 -280z" />
    <glyph glyph-name="L" unicode="L" horiz-adv-x="540" 
d="M465 0h-465l149 700h143l-123 -573h323z" />
    <glyph glyph-name="M" unicode="M" horiz-adv-x="897" 
d="M922 700l-149 -700h-135l142 668l-268 -668h-253l17 663l-141 -663h-135l149 700h259l-17 -663l266 663h265z" />
    <glyph glyph-name="N" unicode="N" horiz-adv-x="734" 
d="M489 30l142 670h143l-149 -700h-268l-72 670l-142 -670h-143l149 700h268z" />
    <glyph glyph-name="O" unicode="O" horiz-adv-x="804" 
d="M49 286q0 113 58.5 210.5t158 155.5t213.5 58q139 0 227 -81.5t88 -214.5q0 -112 -58.5 -210t-157.5 -156t-213 -58q-139 0 -227.5 81.5t-88.5 214.5zM196 298q0 -77 49 -127t128 -50q112 0 193 84.5t81 196.5q0 77 -49 127t-128 50q-112 0 -193 -84.5t-81 -196.5z" />
    <glyph glyph-name="P" unicode="P" horiz-adv-x="619" 
d="M143 0h-143l149 700h276q100 0 164 -56.5t64 -138.5q0 -119 -84.5 -194.5t-216.5 -75.5h-159zM265 573l-45 -211h148q59 0 98 38t39 93q0 36 -24.5 58t-67.5 22h-148z" />
    <glyph glyph-name="Q" unicode="Q" horiz-adv-x="804" 
d="M794 414q0 -93 -40.5 -176.5t-111.5 -143.5l66 -97l-111 -76l-70 102q-79 -33 -162 -33q-139 0 -227.5 81.5t-88.5 214.5q0 113 58.5 210.5t158 155.5t213.5 58q139 0 227 -81.5t88 -214.5zM373 121q42 0 79 12l-75 110l112 77l77 -114q81 84 81 196q0 77 -49 127
t-128 50q-112 0 -193 -84.5t-81 -196.5q0 -77 49 -127t128 -50z" />
    <glyph glyph-name="R" unicode="R" horiz-adv-x="645" 
d="M650 512q0 -94 -57.5 -163t-152.5 -91l127 -258h-158l-121 249h-93l-52 -249h-143l149 700h281q97 0 158.5 -54t61.5 -134zM223 380h155q52 0 88.5 35t36.5 84q0 33 -22.5 53.5t-60.5 20.5h-155z" />
    <glyph glyph-name="S" unicode="S" horiz-adv-x="629" 
d="M36 185l142 29q16 -101 124 -101q54 0 89.5 25t35.5 63q0 28 -24 48t-59.5 31t-77 28t-77 35.5t-59.5 55.5t-24 87q0 96 80 160t198 64q107 0 166.5 -52t76.5 -143l-142 -29q-18 101 -114 101q-49 0 -80 -23t-31 -58q0 -31 33 -51.5t79.5 -35.5t93.5 -35t80 -61.5
t33 -102.5q0 -102 -84 -166t-206 -64q-110 0 -173.5 51.5t-79.5 143.5z" />
    <glyph glyph-name="T" unicode="T" horiz-adv-x="592" 
d="M313 0h-143l122 573h-215l27 127h572l-27 -127h-214z" />
    <glyph glyph-name="U" unicode="U" horiz-adv-x="694" 
d="M52 294l87 406h143l-91 -424q-14 -68 21 -111.5t106 -43.5q72 0 125 43t68 111l90 425h143l-94 -443q-26 -123 -122.5 -195t-228.5 -72q-134 0 -204.5 86.5t-42.5 217.5z" />
    <glyph glyph-name="V" unicode="V" horiz-adv-x="704" 
d="M310 41l331 659h153l-364 -700h-249l-82 700h144z" />
    <glyph glyph-name="W" unicode="W" horiz-adv-x="1064" 
d="M722 35l250 665h144l-263 -700h-259l22 658l-243 -658h-254l18 700h127l-17 -665l245 665h252z" />
    <glyph glyph-name="X" unicode="X" horiz-adv-x="676" 
d="M588 700h178l-323 -355l174 -345h-165l-114 237l-210 -237h-178l323 355l-174 345h164l115 -236z" />
    <glyph glyph-name="Y" unicode="Y" horiz-adv-x="663" 
d="M763 700l-363 -458l-25 -115h115l-27 -127h-372l27 127h114l25 115l-168 458h159l107 -316l240 316h168z" />
    <glyph glyph-name="Z" unicode="Z" horiz-adv-x="610" 
d="M144 700h510l-54 -253l-518 -320h450l-27 -127h-510l55 253l517 320h-450z" />
    <glyph glyph-name="bracketleft" unicode="[" horiz-adv-x="317" 
d="M232 -100h-253l191 900h253l-27 -127h-110l-138 -646h111z" />
    <glyph glyph-name="backslash" unicode="\" horiz-adv-x="352" 
d="M287 -100h-129l-52 900h128z" />
    <glyph glyph-name="bracketright" unicode="]" horiz-adv-x="317" 
d="M187 -100h-253l27 127h110l137 646h-110l27 127h253z" />
    <glyph glyph-name="asciicircum" unicode="^" horiz-adv-x="628" 
d="M523 740l64 -516h-137l-45 475l-232 -475h-146l268 516h228z" />
    <glyph glyph-name="underscore" unicode="_" horiz-adv-x="516" 
d="M424 -129h-496l25 119h496z" />
    <glyph glyph-name="grave" unicode="`" horiz-adv-x="355" 
d="M373 579h-133l-88 160h141z" />
    <glyph glyph-name="a" unicode="a" horiz-adv-x="539" 
d="M317 526q101 0 154.5 -53t30.5 -160l-67 -313h-135l27 124q-66 -134 -190 -134q-58 0 -98 37.5t-40 97.5q0 75 57 121.5t159 56.5l103 10q51 5 57 40q5 28 -14.5 45t-55.5 17q-91 0 -115 -78l-128 30q23 70 91 114.5t164 44.5zM191 97q53 0 99.5 36t55.5 82l3 15
q-16 -12 -50 -16l-88 -10q-37 -4 -56.5 -21t-19.5 -41q0 -45 56 -45z" />
    <glyph glyph-name="b" unicode="b" horiz-adv-x="635" 
d="M428 526q81 0 130 -58t49 -156q0 -130 -82 -226t-193 -96q-62 0 -108.5 44t-56.5 117l-32 -151h-135l157 740h135l-76 -360q37 67 93.5 106.5t118.5 39.5zM302 113q66 0 115.5 54.5t49.5 124.5q0 48 -29 79t-74 31q-73 0 -124.5 -53.5t-51.5 -124.5q0 -50 31 -80.5
t83 -30.5z" />
    <glyph glyph-name="c" unicode="c" horiz-adv-x="584" 
d="M31 213q0 127 94 220t225 93q84 0 146 -44t77 -120l-123 -43q-9 39 -38 61t-71 22q-69 0 -119.5 -53.5t-50.5 -124.5q0 -49 29.5 -80t78.5 -31q93 0 147 84l122 -43q-43 -77 -116.5 -120.5t-159.5 -43.5q-107 0 -174 61t-67 162z" />
    <glyph glyph-name="d" unicode="d" horiz-adv-x="635" 
d="M468 360l81 380h135l-157 -740h-135l30 140q-37 -69 -94.5 -109.5t-120.5 -40.5q-81 0 -129.5 58t-48.5 156q0 130 82 226t192 96q63 0 110 -45.5t55 -120.5zM272 113q72 0 123.5 54t51.5 125q0 49 -30.5 79.5t-82.5 30.5q-66 0 -116 -54t-50 -124q0 -49 29 -80t75 -31z
" />
    <glyph glyph-name="e" unicode="e" horiz-adv-x="610" 
d="M350 526q127 0 190.5 -93t23.5 -223h-400q4 -49 35 -76.5t80 -27.5q90 0 146 72l107 -50q-41 -60 -110.5 -99t-149.5 -39q-107 0 -174 61t-67 162q0 127 94 220t225 93zM337 410q-46 0 -87.5 -26t-64.5 -71h260q-3 40 -33 68.5t-75 28.5z" />
    <glyph glyph-name="f" unicode="f" horiz-adv-x="411" 
d="M199 0h-135l84 397h-104l26 119h104l5 24q22 108 79 154t171 46h61l-26 -119h-60q-42 0 -61 -16t-28 -57l-6 -32h133l-25 -119h-134z" />
    <glyph glyph-name="g" unicode="g" horiz-adv-x="635" 
d="M470 369l31 147h135l-101 -474q-24 -114 -107.5 -183t-199.5 -69q-82 0 -144.5 41t-82.5 103l122 59q31 -80 112 -80q60 0 107.5 40.5t60.5 104.5l19 88q-38 -64 -94.5 -102t-118.5 -38q-82 0 -130.5 56t-48.5 158q0 124 82 215t193 91q62 0 108.5 -41.5t56.5 -115.5z
M279 129q70 0 120 51.5t50 119.5q0 45 -31 73.5t-80 28.5q-69 0 -118.5 -51t-49.5 -119q0 -46 30 -74.5t79 -28.5z" />
    <glyph glyph-name="h" unicode="h" horiz-adv-x="608" 
d="M416 526q90 0 130.5 -67t20.5 -163l-63 -296h-135l61 288q11 52 -13 83.5t-75 31.5q-54 0 -94.5 -32t-51.5 -82l-61 -289h-135l157 740h135l-75 -349q34 66 86 100.5t113 34.5z" />
    <glyph glyph-name="i" unicode="i" horiz-adv-x="243" 
d="M126 659q0 34 24 57.5t58 23.5q33 0 57 -23.5t24 -57.5q0 -33 -24 -57t-57 -24q-34 0 -58 24t-24 57zM135 0h-135l110 516h135z" />
    <glyph glyph-name="j" unicode="j" horiz-adv-x="263" 
d="M145 659q0 34 24 57.5t58 23.5t57.5 -23.5t23.5 -57.5q0 -33 -23.5 -57t-57.5 -24t-58 24t-24 57zM-113 -209l25 119q54 -1 74.5 17t32.5 73l110 516h135l-110 -516q-24 -116 -83.5 -166t-183.5 -43z" />
    <glyph glyph-name="k" unicode="k" horiz-adv-x="572" 
d="M413 516h186l-250 -223l174 -293h-156l-120 202l-85 -76l-27 -126h-135l157 740h135l-89 -415z" />
    <glyph glyph-name="l" unicode="l" horiz-adv-x="243" 
d="M135 0h-135l157 740h135z" />
    <glyph glyph-name="m" unicode="m" horiz-adv-x="897" 
d="M729 526q77 0 112 -67.5t14 -162.5l-62 -296h-135l61 288q11 52 -7.5 83.5t-59.5 31.5q-46 0 -81 -32t-46 -82l-61 -289h-135l61 288q11 52 -7.5 83.5t-60.5 31.5q-45 0 -80.5 -32t-45.5 -82l-61 -289h-135l110 516h135l-27 -122q33 61 82.5 96.5t103.5 35.5q59 0 94 -37
t39 -99q32 63 83.5 99.5t108.5 36.5z" />
    <glyph glyph-name="n" unicode="n" horiz-adv-x="608" 
d="M416 526q90 0 130.5 -67t20.5 -163l-63 -296h-135l61 288q11 52 -13 83.5t-75 31.5q-54 0 -94.5 -32t-51.5 -82l-61 -289h-135l110 516h135l-27 -124q33 65 85.5 99.5t112.5 34.5z" />
    <glyph glyph-name="o" unicode="o" horiz-adv-x="620" 
d="M31 213q0 127 94 220t225 93q106 0 172.5 -61t66.5 -163q0 -126 -94 -219t-223 -93q-107 0 -174 61t-67 162zM171 224q0 -49 29.5 -80t78.5 -31q69 0 119.5 54t50.5 125q0 49 -29.5 79.5t-78.5 30.5q-69 0 -119.5 -53.5t-50.5 -124.5z" />
    <glyph glyph-name="p" unicode="p" horiz-adv-x="635" 
d="M428 526q81 0 130 -58t49 -156q0 -130 -82 -226t-193 -96q-62 0 -109 44.5t-56 118.5l-75 -353h-135l152 716h135l-29 -138q37 68 94 108t119 40zM302 113q66 0 115.5 54.5t49.5 124.5q0 48 -29 79t-74 31q-73 0 -124.5 -53.5t-51.5 -124.5q0 -50 31 -80.5t83 -30.5z" />
    <glyph glyph-name="q" unicode="q" horiz-adv-x="635" 
d="M468 362l33 154h135l-152 -716h-135l72 338q-37 -68 -94 -108t-120 -40q-81 0 -129.5 58t-48.5 156q0 130 82 226t192 96q62 0 109 -45t56 -119zM272 113q72 0 123.5 54t51.5 125q0 49 -30.5 79.5t-82.5 30.5q-66 0 -116 -54t-50 -124q0 -49 29 -80t75 -31z" />
    <glyph glyph-name="r" unicode="r" horiz-adv-x="402" 
d="M245 516l-28 -128q44 92 102 120.5t119 9.5l-28 -128q-75 27 -137.5 -3t-76.5 -98l-61 -289h-135l110 516h135z" />
    <glyph glyph-name="s" unicode="s" horiz-adv-x="502" 
d="M3 139l132 28q9 -70 87 -70q47 0 74.5 16.5t27.5 43.5q0 23 -27.5 35t-67 19t-78.5 18.5t-66.5 43t-27.5 82.5q0 70 63.5 120.5t158.5 50.5q88 0 145.5 -41t68.5 -108l-132 -28q-9 70 -86 70q-36 0 -59 -15t-23 -41q0 -23 27.5 -35t66.5 -19.5t78.5 -19t67 -43.5
t27.5 -83q0 -77 -71.5 -125t-166.5 -48q-91 0 -149.5 41t-69.5 108z" />
    <glyph glyph-name="t" unicode="t" horiz-adv-x="421" 
d="M148 397h-104l26 119h104l32 152l144 42l-41 -194h133l-25 -119h-134l-43 -205q-15 -73 57 -73h61l-26 -119h-51q-103 0 -148 55t-25 154z" />
    <glyph glyph-name="u" unicode="u" horiz-adv-x="583" 
d="M45 237l59 279h135l-63 -297q-10 -48 13.5 -77t71.5 -29q47 0 83 29t46 76l63 298h135l-67 -316q-21 -100 -96 -155t-181 -55q-108 0 -164.5 69.5t-34.5 177.5z" />
    <glyph glyph-name="v" unicode="v" horiz-adv-x="548" 
d="M231 41l232 475h146l-268 -516h-228l-64 516h137z" />
    <glyph glyph-name="w" unicode="w" horiz-adv-x="847" 
d="M573 37l193 479h132l-217 -516h-224l14 482l-183 -482h-224l-5 516h123l-3 -480l174 480h243z" />
    <glyph glyph-name="x" unicode="x" horiz-adv-x="560" 
d="M437 516h166l-242 -261l132 -255h-157l-75 164l-138 -164h-166l243 260l-133 256h157l75 -164z" />
    <glyph glyph-name="y" unicode="y" horiz-adv-x="548" 
d="M224 36l239 480h146l-361 -716h-145l103 200h-101l-56 516h137z" />
    <glyph glyph-name="z" unicode="z" horiz-adv-x="534" 
d="M105 516h434l-48 -223l-421 -174h385l-26 -119h-434l48 223l422 174h-385z" />
    <glyph glyph-name="braceleft" unicode="{" horiz-adv-x="345" 
d="M166 533l1 51q-9 94 72 155t178 61l-3 -127q-41 0 -75 -30t-32 -75v-57q6 -59 -36.5 -104t-110.5 -66q24 -8 43 -21t33 -33.5t13.5 -50t-19.5 -64.5l-16 -40q-21 -46 0 -75.5t62 -29.5l-51 -127q-59 0 -106.5 26t-66.5 74t16 116l20 51q64 120 -78 120l27 126
q69 0 102 28.5t27 91.5z" />
    <glyph glyph-name="bar" unicode="|" horiz-adv-x="235" 
d="M84 -200h-127l234 1100h127z" />
    <glyph glyph-name="braceright" unicode="}" horiz-adv-x="345" 
d="M316 584l-21 -51q-62 -120 78 -120l-27 -126q-68 0 -101.5 -28.5t-26.5 -91.5l-1 -51q8 -94 -73 -155t-177 -61l3 127q41 0 75 30t32 75v57q-6 59 36 104t111 66q-24 8 -43 21t-33 33.5t-13.5 50t19.5 64.5l15 40q21 49 1 77t-62 28l51 127q59 0 106.5 -26t66 -74
t-15.5 -116z" />
    <glyph glyph-name="asciitilde" unicode="~" horiz-adv-x="550" 
d="M142 265l-95 51q24 59 71 95.5t108 36.5q31 0 55 -10.5t35.5 -22.5t26.5 -22.5t31 -10.5q51 0 74 53l94 -51q-23 -59 -70.5 -95.5t-108.5 -36.5q-31 0 -55 10.5t-35 22.5t-26 22.5t-31 10.5q-52 0 -74 -53z" />
    <glyph glyph-name="uni00A0" unicode="&#xa0;" horiz-adv-x="300" 
 />
    <glyph glyph-name="exclamdown" unicode="&#xa1;" horiz-adv-x="303" 
d="M269 428q0 -34 -23.5 -58t-57.5 -24t-58 24t-24 58q0 32 24 56.5t58 24.5q33 0 57 -24t24 -57zM107 286h101l-39 -302l-39 -184h-151l39 184z" />
    <glyph glyph-name="cent" unicode="&#xa2;" horiz-adv-x="581" 
d="M388 393l-58 -272q60 20 96 76l122 -43q-40 -70 -104 -112t-141 -50l-23 -109h-103l24 115q-78 18 -124 75t-46 140q0 117 81.5 207t200.5 104l23 109h103l-24 -114q61 -15 103.5 -55.5t54.5 -101.5l-123 -43q-12 55 -62 74zM171 224q0 -73 57 -100l57 267
q-50 -19 -82 -65.5t-32 -101.5z" />
    <glyph glyph-name="sterling" unicode="&#xa3;" horiz-adv-x="657" 
d="M671 482h-143q8 42 -14.5 69.5t-64.5 27.5q-43 0 -76.5 -27.5t-42.5 -69.5l-18 -84h205l-20 -95h-205l-38 -176h341l-27 -127h-568l27 127h84l38 176h-85l20 95h85l18 84q22 103 95.5 165.5t176.5 62.5q107 0 170 -65t42 -163z" />
    <glyph glyph-name="currency" unicode="&#xa4;" horiz-adv-x="735" 
d="M671 391q0 -104 -70 -188l74 -94l-113 -92l-76 96q-65 -31 -134 -31q-78 0 -134 35l-122 -100l-88 109l119 98q-15 39 -15 86q0 102 69 187l-74 94l114 92l76 -96q64 31 134 31q75 0 134 -35l122 100l87 -109l-119 -97q16 -38 16 -86zM251 316q0 -49 30.5 -79.5
t79.5 -30.5q67 0 118.5 54t51.5 124q0 49 -30 79.5t-79 30.5q-67 0 -119 -54t-52 -124z" />
    <glyph glyph-name="yen" unicode="&#xa5;" horiz-adv-x="667" 
d="M597 700h168l-185 -233h79l-18 -87h-130l-47 -60h163l-18 -87h-209l-23 -106h115l-27 -127h-372l27 127h114l23 106h-209l18 87h164l-22 60h-129l19 87h78l-85 233h159l107 -316z" />
    <glyph glyph-name="brokenbar" unicode="&#xa6;" horiz-adv-x="235" 
d="M222 450h-127l96 450h127zM84 -200h-127l96 450h127z" />
    <glyph glyph-name="section" unicode="&#xa7;" horiz-adv-x="613" 
d="M258 511q0 -23 22.5 -40.5t56.5 -27t73.5 -24.5t73.5 -32t56.5 -50.5t22.5 -79.5q0 -44 -24.5 -86t-68.5 -73q33 -40 33 -98q0 -86 -78 -148t-187 -62q-104 0 -164 47t-74 136l145 28q17 -88 103 -88q46 0 74.5 21.5t28.5 53.5q0 28 -31.5 46.5t-76 32t-89.5 31.5
t-76.5 54.5t-31.5 90.5q0 92 93 158q-33 40 -33 98q0 87 78.5 149t186.5 62q105 0 165 -47t74 -136l-145 -28q-19 88 -103 88q-46 0 -75 -22t-29 -54zM196 267q0 -17 9 -30.5t28.5 -23.5t37 -16.5t48.5 -17t48 -16.5q19 11 32.5 30.5t13.5 39.5q0 17 -9 30.5t-29 23.5
t-36.5 16.5t-48.5 16.5t-49 16q-18 -11 -31.5 -30.5t-13.5 -38.5z" />
    <glyph glyph-name="dieresis" unicode="&#xa8;" horiz-adv-x="487" 
d="M135 659q0 32 23 54.5t55 22.5q31 0 54 -23t23 -54q0 -32 -23 -55t-54 -23q-32 0 -55 23t-23 55zM367 659q0 31 22.5 54t54.5 23t55 -22.5t23 -54.5t-23 -55t-55 -23q-31 0 -54 23t-23 55z" />
    <glyph glyph-name="copyright" unicode="&#xa9;" horiz-adv-x="788" 
d="M47 298q0 168 122 290t295 122q132 0 224.5 -88t92.5 -220q0 -168 -122 -290t-295 -122q-132 0 -224.5 88t-92.5 220zM145 306q0 -98 64 -160.5t164 -62.5q131 0 220.5 93t89.5 218q0 98 -64 160.5t-164 62.5q-131 0 -220.5 -93t-89.5 -218zM218 319q0 91 67.5 157
t158.5 66q62 0 108.5 -31.5t61.5 -87.5l-109 -34q-5 23 -22.5 37t-42.5 14q-41 0 -73 -34t-32 -78q0 -30 18 -49t48 -19q25 0 49 14t38 37l95 -34q-63 -119 -194 -119q-76 0 -123.5 45.5t-47.5 115.5z" />
    <glyph glyph-name="ordfeminine" unicode="&#xaa;" horiz-adv-x="390" 
d="M274 707q74 0 114.5 -42t24.5 -115l-45 -213h-111l15 73q-49 -80 -122 -80q-41 0 -70.5 25.5t-29.5 71.5q0 51 39.5 86.5t115.5 41.5l69 5q31 3 34 23q3 16 -7.5 26t-31.5 10q-24 0 -42.5 -13t-24.5 -35l-109 24q12 48 60.5 80t120.5 32zM197 417q29 0 56 20t33 47l2 9
q-13 -8 -27 -9l-54 -7q-41 -5 -41 -36q0 -24 31 -24z" />
    <glyph glyph-name="guillemotleft" unicode="&#xab;" horiz-adv-x="567" 
d="M324 471l-30 -145l-153 -74l121 -75l-28 -132l-213 150l27 126zM302 321l276 150l-30 -145l-152 -74l120 -75l-28 -132l-213 150z" />
    <glyph glyph-name="logicalnot" unicode="&#xac;" horiz-adv-x="536" 
d="M353 287h-293l27 126h428l-59 -273h-135z" />
    <glyph glyph-name="uni00AD" unicode="&#xad;" horiz-adv-x="332" 
d="M286 200h-264l26 119h263z" />
    <glyph glyph-name="registered" unicode="&#xae;" horiz-adv-x="195" 
d="M182 705q33 0 55.5 -21.5t22.5 -54.5q0 -35 -28 -62t-63 -27q-34 0 -56 21.5t-22 53.5q0 35 28 62.5t63 27.5zM169 562q28 0 47.5 20t19.5 47q0 23 -15.5 38.5t-38.5 15.5q-27 0 -47 -20t-20 -48q0 -23 15 -38t39 -15zM216 639q0 -20 -20 -29l12 -27h-27l-10 24h-9
l-4 -24h-25l17 80h41q25 0 25 -24zM185 643h-15l-3 -16h14q10 0 10 10q0 6 -6 6z" />
    <glyph glyph-name="macron" unicode="&#xaf;" horiz-adv-x="416" 
d="M440 608h-316l22 102h316z" />
    <glyph glyph-name="degree" unicode="&#xb0;" horiz-adv-x="463" 
d="M88 488q0 92 67.5 157t163.5 65q72 0 120.5 -45.5t48.5 -111.5q0 -92 -67.5 -157t-164.5 -65q-72 0 -120 45.5t-48 111.5zM212 504q0 -25 16.5 -41.5t43.5 -16.5q36 0 63.5 27.5t27.5 63.5q0 25 -16.5 41t-43.5 16q-36 0 -63.5 -27.5t-27.5 -62.5z" />
    <glyph glyph-name="plusminus" unicode="&#xb1;" horiz-adv-x="536" 
d="M206 287h-146l27 126h146l32 147h135l-32 -147h147l-27 -126h-147l-30 -147h-135zM427 0h-427l27 127h427z" />
    <glyph glyph-name="acute" unicode="&#xb4;" horiz-adv-x="355" 
d="M253 579h-135l131 160h158z" />
    <glyph glyph-name="uni00B5" unicode="&#xb5;" horiz-adv-x="613" 
d="M417 227l62 289h135l-110 -516h-135l27 126q-34 -66 -87.5 -101t-113.5 -35q-32 0 -60 11l-43 -201h-135l153 716h135l-58 -269l-5 -24q-10 -50 13.5 -80t72.5 -30q55 0 96.5 32t52.5 82z" />
    <glyph glyph-name="paragraph" unicode="&#xb6;" horiz-adv-x="623" 
d="M307 0h-120l75 353h-34q-63 0 -101.5 37.5t-38.5 97.5q0 84 64.5 148t149.5 64h331l-149 -700h-119l126 589h-58z" />
    <glyph glyph-name="periodcentered" unicode="&#xb7;" horiz-adv-x="259" 
d="M60 350q0 37 26 63t63 26t63 -26t26 -63q0 -36 -26 -62.5t-63 -26.5t-63 26.5t-26 62.5z" />
    <glyph glyph-name="cedilla" unicode="&#xb8;" horiz-adv-x="322" 
d="M-45 -196l37 103q12 -4 26 -4q27 0 43.5 13.5t16.5 36.5q0 22 -22 47h36q49 -7 77 -36t28 -66q0 -42 -46.5 -75t-117.5 -33q-42 0 -78 14z" />
    <glyph glyph-name="ordmasculine" unicode="&#xba;" horiz-adv-x="440" 
d="M76 488q0 89 67.5 154t160.5 65q77 0 124.5 -43t47.5 -115q0 -89 -67.5 -154t-160.5 -65q-77 0 -124.5 43t-47.5 115zM194 498q0 -30 17.5 -48.5t45.5 -18.5q41 0 71 32.5t30 75.5q0 30 -17.5 48.5t-45.5 18.5q-41 0 -71 -32.5t-30 -75.5z" />
    <glyph glyph-name="guillemotright" unicode="&#xbb;" horiz-adv-x="567" 
d="M80 471l213 -150l-27 -126l-276 -150l30 145l153 74l-121 75zM306 339l28 132l213 -150l-27 -126l-276 -150l31 145l152 74z" />
    <glyph glyph-name="onequarter" unicode="&#xbc;" horiz-adv-x="907" 
d="M287 380h95l-21 -100h-326l22 100h115l42 195l-121 -27l21 102l242 56zM147 0l554 700h143l-554 -700h-143zM880 420l-55 -256h50l-21 -98h-49l-14 -66h-113l14 66h-219l20 98l185 256h202zM758 377l-150 -213h105z" />
    <glyph glyph-name="onehalf" unicode="&#xbd;" horiz-adv-x="934" 
d="M287 380h95l-21 -100h-326l22 100h115l42 195l-121 -27l21 102l242 56zM147 0l554 700h143l-554 -700h-143zM802 159l-104 -59h170l-21 -100h-340l20 93l220 146q41 28 41 56q0 31 -42 31q-27 0 -46.5 -14t-20.5 -40h-118q12 72 66.5 113t122.5 41q76 0 117.5 -32
t41.5 -87q0 -44 -29.5 -82.5t-77.5 -65.5z" />
    <glyph glyph-name="threequarters" unicode="&#xbe;" horiz-adv-x="896" 
d="M397 427q0 -64 -52 -108.5t-131 -44.5q-80 0 -120.5 35t-37.5 104l118 13q-3 -24 9 -37.5t35 -13.5q27 0 44 13.5t17 35.5q0 33 -60 33h-48l18 85l83 58h-154l22 100h300l-22 -100l-94 -65q31 -12 52 -40t21 -68zM135 0l554 700h143l-554 -700h-143zM868 420l-54 -256h49
l-20 -98h-50l-14 -66h-113l14 66h-219l20 98l185 256h202zM746 377l-150 -213h105z" />
    <glyph glyph-name="questiondown" unicode="&#xbf;" horiz-adv-x="542" 
d="M396 428q0 -34 -24 -58t-58 -24t-57.5 24t-23.5 58q0 33 24 57t57 24q34 0 58 -24t24 -57zM217 288h135q-10 -58 -39 -100t-62 -64.5t-65.5 -41t-53.5 -42.5t-21 -56q0 -30 23 -46.5t65 -16.5q56 0 90.5 29.5t38.5 83.5h148q-17 -115 -97.5 -179.5t-197.5 -64.5
q-106 0 -163.5 48t-57.5 128q0 49 17.5 87t44.5 59.5t59 42t60 36t49.5 41t26.5 56.5z" />
    <glyph glyph-name="Agrave" unicode="&#xc0;" horiz-adv-x="734" 
d="M465 900l121 -154h-149l-128 154h156zM675 0h-144l-19 152h-330l-80 -152h-152l376 700h254zM449 659l-200 -380h247z" />
    <glyph glyph-name="Aacute" unicode="&#xc1;" horiz-adv-x="734" 
d="M525 900h173l-192 -154h-149zM580 700l95 -700h-144l-19 152h-330l-80 -152h-152l376 700h254zM449 659l-200 -380h247z" />
    <glyph glyph-name="Acircumflex" unicode="&#xc2;" horiz-adv-x="734" 
d="M546 746l-53 69l-83 -69h-154l179 154h141l114 -154h-144zM580 700l95 -700h-144l-19 152h-330l-80 -152h-152l376 700h254zM449 659l-200 -380h247z" />
    <glyph glyph-name="Atilde" unicode="&#xc3;" horiz-adv-x="734" 
d="M410 798q-36 0 -53 -41l-85 41q21 51 60 78.5t88 27.5q42 0 84.5 -26t61.5 -26q36 0 53 41l85 -41q-20 -51 -59 -78.5t-88 -27.5q-42 0 -85 26t-62 26zM580 700l95 -700h-144l-19 152h-330l-80 -152h-152l376 700h254zM449 659l-200 -380h247z" />
    <glyph glyph-name="Adieresis" unicode="&#xc4;" horiz-adv-x="734" 
d="M372 748q-32 0 -55 23t-23 54t23 54.5t55 23.5q31 0 54 -23t23 -55q0 -31 -22.5 -54t-54.5 -23zM606 748q-32 0 -55 22.5t-23 54.5t23 55t55 23q31 0 54 -23t23 -55q0 -31 -22.5 -54t-54.5 -23zM580 700l95 -700h-144l-19 152h-330l-80 -152h-152l376 700h254zM449 659
l-200 -380h247z" />
    <glyph glyph-name="Aring" unicode="&#xc5;" horiz-adv-x="734" 
d="M473 715q-51 0 -84 29.5t-33 75.5q0 54 44 93.5t105 39.5q52 0 85 -29.5t33 -75.5q0 -54 -44.5 -93.5t-105.5 -39.5zM498 878q-21 0 -37.5 -16t-16.5 -37q0 -16 10 -25.5t26 -9.5q22 0 38.5 16t16.5 37q0 15 -10.5 25t-26.5 10zM675 0h-144l-19 152h-330l-80 -152h-152
l376 700h254zM449 659l-200 -380h247z" />
    <glyph glyph-name="AE" unicode="&#xc6;" horiz-adv-x="992" 
d="M1044 700l-27 -127h-322l-35 -160h313l-27 -126h-313l-33 -160h322l-27 -127h-465l32 152h-243l-119 -152h-170l557 700h557zM552 576l-233 -297h170z" />
    <glyph glyph-name="Ccedilla" unicode="&#xc7;" horiz-adv-x="763" 
d="M373 121q67 0 126.5 33t96.5 89l129 -54q-53 -83 -145.5 -139.5t-204.5 -59.5q32 -13 50 -38t18 -54q0 -42 -46.5 -75t-116.5 -33q-43 0 -79 14l37 103q12 -4 26 -4q27 0 43.5 13.5t16.5 36.5q0 19 -17 41q-116 17 -187 95.5t-71 196.5q0 113 58.5 210.5t158 155.5
t213.5 58q116 0 195.5 -56.5t106.5 -146.5l-141 -50q-15 54 -59.5 88t-109.5 34q-113 0 -194 -84.5t-81 -196.5q0 -77 49 -127t128 -50z" />
    <glyph glyph-name="Egrave" unicode="&#xc8;" horiz-adv-x="562" 
d="M500 746h-149l-128 154h156zM465 0h-465l149 700h465l-27 -127h-322l-35 -160h313l-27 -126h-313l-34 -160h323z" />
    <glyph glyph-name="Eacute" unicode="&#xc9;" horiz-adv-x="562" 
d="M420 746h-149l168 154h173zM465 0h-465l149 700h465l-27 -127h-322l-35 -160h313l-27 -126h-313l-34 -160h323z" />
    <glyph glyph-name="Ecircumflex" unicode="&#xca;" horiz-adv-x="562" 
d="M460 746l-53 69l-83 -69h-154l179 154h141l114 -154h-144zM614 700l-27 -127h-322l-35 -160h313l-27 -126h-313l-34 -160h323l-27 -127h-465l149 700h465z" />
    <glyph glyph-name="Edieresis" unicode="&#xcb;" horiz-adv-x="562" 
d="M207 825q0 31 23.5 54.5t54.5 23.5t54 -23t23 -55q0 -31 -23 -54t-54 -23q-32 0 -55 23t-23 54zM441 825q0 32 23 55t55 23q31 0 54 -23t23 -55q0 -31 -23 -54t-54 -23q-32 0 -55 22.5t-23 54.5zM465 0h-465l149 700h465l-27 -127h-322l-35 -160h313l-27 -126h-313
l-34 -160h323z" />
    <glyph glyph-name="Igrave" unicode="&#xcc;" horiz-adv-x="251" 
d="M345 746h-149l-128 154h156zM143 0h-143l149 700h143z" />
    <glyph glyph-name="Iacute" unicode="&#xcd;" horiz-adv-x="251" 
d="M265 746h-149l168 154h173zM143 0h-143l149 700h143z" />
    <glyph glyph-name="Icircumflex" unicode="&#xce;" horiz-adv-x="251" 
d="M194 900h141l114 -154h-144l-53 69l-83 -69h-154zM143 0h-143l149 700h143z" />
    <glyph glyph-name="Idieresis" unicode="&#xcf;" horiz-adv-x="251" 
d="M68 825q0 32 23 55t54 23q32 0 55 -23t23 -55t-23 -54.5t-55 -22.5q-31 0 -54 23t-23 54zM269 825q0 31 23.5 54.5t54.5 23.5t54 -23t23 -55q0 -31 -23 -54t-54 -23q-32 0 -55 23t-23 54zM143 0h-143l149 700h143z" />
    <glyph glyph-name="Eth" unicode="&#xd0;" horiz-adv-x="774" 
d="M199 700h269q131 0 214.5 -80.5t83.5 -201.5q0 -170 -126 -294t-304 -124h-286l64 299h-108l22 102h107zM219 127h124q113 0 194 82t81 195q0 76 -48.5 122.5t-131.5 46.5h-123l-37 -172h76l-22 -102h-76z" />
    <glyph glyph-name="Ntilde" unicode="&#xd1;" horiz-adv-x="734" 
d="M410 798q-36 0 -53 -41l-85 41q21 51 60 78.5t88 27.5q42 0 84.5 -26t61.5 -26q36 0 53 41l85 -41q-20 -51 -59 -78.5t-88 -27.5q-42 0 -85 26t-62 26zM489 30l142 670h143l-149 -700h-268l-72 670l-142 -670h-143l149 700h268z" />
    <glyph glyph-name="Ograve" unicode="&#xd2;" horiz-adv-x="804" 
d="M622 746h-149l-128 154h156zM49 286q0 113 58.5 210.5t158 155.5t213.5 58q139 0 227 -81.5t88 -214.5q0 -112 -58.5 -210t-157.5 -156t-213 -58q-139 0 -227.5 81.5t-88.5 214.5zM196 298q0 -77 49 -127t128 -50q112 0 193 84.5t81 196.5q0 77 -49 127t-128 50
q-112 0 -193 -84.5t-81 -196.5z" />
    <glyph glyph-name="Oacute" unicode="&#xd3;" horiz-adv-x="804" 
d="M542 746h-149l168 154h173zM49 286q0 113 58.5 210.5t158 155.5t213.5 58q139 0 227 -81.5t88 -214.5q0 -112 -58.5 -210t-157.5 -156t-213 -58q-139 0 -227.5 81.5t-88.5 214.5zM196 298q0 -77 49 -127t128 -50q112 0 193 84.5t81 196.5q0 77 -49 127t-128 50
q-112 0 -193 -84.5t-81 -196.5z" />
    <glyph glyph-name="Ocircumflex" unicode="&#xd4;" horiz-adv-x="804" 
d="M582 746l-53 69l-83 -69h-154l179 154h141l114 -154h-144zM479 710q139 0 227 -81.5t88 -214.5q0 -112 -58.5 -210t-157.5 -156t-213 -58q-139 0 -227.5 81.5t-88.5 214.5q0 113 58.5 210.5t158 155.5t213.5 58zM373 121q112 0 193 84.5t81 196.5q0 77 -49 127t-128 50
q-112 0 -193 -84.5t-81 -196.5q0 -77 49 -127t128 -50z" />
    <glyph glyph-name="Otilde" unicode="&#xd5;" horiz-adv-x="804" 
d="M392 757l-85 41q21 51 60 78.5t88 27.5q42 0 84.5 -26t61.5 -26q36 0 53 41l85 -41q-20 -51 -59 -78.5t-88 -27.5q-42 0 -85 26t-62 26q-36 0 -53 -41zM49 286q0 113 58.5 210.5t158 155.5t213.5 58q139 0 227 -81.5t88 -214.5q0 -112 -58.5 -210t-157.5 -156t-213 -58
q-139 0 -227.5 81.5t-88.5 214.5zM196 298q0 -77 49 -127t128 -50q112 0 193 84.5t81 196.5q0 77 -49 127t-128 50q-112 0 -193 -84.5t-81 -196.5z" />
    <glyph glyph-name="Odieresis" unicode="&#xd6;" horiz-adv-x="804" 
d="M329 825q0 31 23.5 54.5t54.5 23.5t54 -23t23 -55q0 -31 -23 -54t-54 -23q-32 0 -55 23t-23 54zM563 825q0 32 23 55t55 23q31 0 54 -23t23 -55q0 -31 -23 -54t-54 -23q-32 0 -55 22.5t-23 54.5zM49 286q0 113 58.5 210.5t158 155.5t213.5 58q139 0 227 -81.5t88 -214.5
q0 -112 -58.5 -210t-157.5 -156t-213 -58q-139 0 -227.5 81.5t-88.5 214.5zM196 298q0 -77 49 -127t128 -50q112 0 193 84.5t81 196.5q0 77 -49 127t-128 50q-112 0 -193 -84.5t-81 -196.5z" />
    <glyph glyph-name="multiply" unicode="&#xd7;" horiz-adv-x="536" 
d="M443 560l80 -98l-144 -118l95 -120l-106 -84l-94 118l-143 -118l-80 98l145 119l-95 119l106 84l93 -117z" />
    <glyph glyph-name="Oslash" unicode="&#xd8;" horiz-adv-x="804" 
d="M713 755l89 -85l-67 -73q59 -77 59 -183q0 -112 -58.5 -210t-157.5 -156t-213 -58q-91 0 -160 36l-75 -81l-89 85l68 73q-60 76 -60 183q0 113 58.5 210.5t158 155.5t213.5 58q90 0 160 -35zM196 298q0 -46 18 -82l325 351q-31 12 -69 12q-112 0 -193 -84.5t-81 -196.5z
M647 402q0 45 -17 82l-326 -351q32 -12 69 -12q112 0 193 84.5t81 196.5z" />
    <glyph glyph-name="Ugrave" unicode="&#xd9;" horiz-adv-x="694" 
d="M566 746h-149l-128 154h156zM52 294l87 406h143l-91 -424q-14 -68 21 -111.5t106 -43.5q72 0 125 43t68 111l90 425h143l-94 -443q-26 -123 -122.5 -195t-228.5 -72q-134 0 -204.5 86.5t-42.5 217.5z" />
    <glyph glyph-name="Uacute" unicode="&#xda;" horiz-adv-x="694" 
d="M486 746h-149l168 154h173zM52 294l87 406h143l-91 -424q-14 -68 21 -111.5t106 -43.5q72 0 125 43t68 111l90 425h143l-94 -443q-26 -123 -122.5 -195t-228.5 -72q-134 0 -204.5 86.5t-42.5 217.5z" />
    <glyph glyph-name="Ucircumflex" unicode="&#xdb;" horiz-adv-x="694" 
d="M527 746l-53 69l-83 -69h-154l179 154h141l114 -154h-144zM511 275l90 425h143l-94 -443q-26 -123 -122.5 -195t-228.5 -72q-134 0 -204.5 86.5t-42.5 217.5l87 406h143l-91 -424q-14 -68 21 -111.5t106 -43.5q72 0 125 43t68 111z" />
    <glyph glyph-name="Udieresis" unicode="&#xdc;" horiz-adv-x="694" 
d="M274 825q0 31 23 54.5t55 23.5q31 0 54 -23t23 -55q0 -31 -22.5 -54t-54.5 -23t-55 23t-23 54zM508 825q0 32 23 55t55 23q31 0 54 -23t23 -55q0 -31 -22.5 -54t-54.5 -23t-55 22.5t-23 54.5zM52 294l87 406h143l-91 -424q-14 -68 21 -111.5t106 -43.5q72 0 125 43
t68 111l90 425h143l-94 -443q-26 -123 -122.5 -195t-228.5 -72q-134 0 -204.5 86.5t-42.5 217.5z" />
    <glyph glyph-name="Yacute" unicode="&#xdd;" horiz-adv-x="663" 
d="M490 900h173l-192 -154h-149zM763 700l-363 -458l-25 -115h115l-27 -127h-372l27 127h114l25 115l-168 458h159l107 -316l240 316h168z" />
    <glyph glyph-name="Thorn" unicode="&#xde;" horiz-adv-x="619" 
d="M143 0h-143l149 700h143l-26 -116h135q100 0 164 -56.5t64 -138.5q0 -119 -84.5 -194.5t-216.5 -75.5h-160zM240 458l-45 -212h149q58 0 97.5 38.5t39.5 92.5q0 36 -25 58.5t-67 22.5h-149z" />
    <glyph glyph-name="germandbls" unicode="&#xdf;" horiz-adv-x="619" 
d="M439 385q66 -17 103.5 -58t37.5 -102q0 -94 -76.5 -164.5t-191.5 -70.5q-65 0 -121 22l43 116q46 -15 78 -15q54 0 93.5 37.5t39.5 87.5q0 40 -27 63t-76 23h-46l25 119h27q55 0 92.5 31.5t37.5 78.5q0 33 -24.5 53.5t-64.5 20.5q-51 0 -93.5 -33.5t-55.5 -95.5
l-105 -498h-135l105 497q25 117 105 185t199 68q92 0 149 -47t57 -115q0 -73 -47 -127t-129 -76z" />
    <glyph glyph-name="agrave" unicode="&#xe0;" horiz-adv-x="539" 
d="M336 739l80 -160h-133l-88 160h141zM317 526q101 0 154.5 -53t30.5 -160l-67 -313h-135l27 124q-66 -134 -190 -134q-58 0 -98 37.5t-40 97.5q0 75 57 121.5t159 56.5l103 10q51 5 57 40q5 28 -14.5 45t-55.5 17q-91 0 -115 -78l-128 30q23 70 91 114.5t164 44.5zM191 97
q53 0 99.5 36t55.5 82l3 15q-16 -12 -50 -16l-88 -10q-37 -4 -56.5 -21t-19.5 -41q0 -45 56 -45z" />
    <glyph glyph-name="aacute" unicode="&#xe1;" horiz-adv-x="539" 
d="M372 739h158l-154 -160h-135zM317 526q101 0 154.5 -53t30.5 -160l-67 -313h-135l27 124q-66 -134 -190 -134q-58 0 -98 37.5t-40 97.5q0 75 57 121.5t159 56.5l103 10q51 5 57 40q5 28 -14.5 45t-55.5 17q-91 0 -115 -78l-128 30q23 70 91 114.5t164 44.5zM191 97
q53 0 99.5 36t55.5 82l3 15q-16 -12 -50 -16l-88 -10q-37 -4 -56.5 -21t-19.5 -41q0 -45 56 -45z" />
    <glyph glyph-name="acircumflex" unicode="&#xe2;" horiz-adv-x="539" 
d="M399 579l-46 78l-78 -78h-132l147 160h151l79 -160h-121zM317 526q101 0 154.5 -53t30.5 -160l-67 -313h-135l27 124q-66 -134 -190 -134q-58 0 -98 37.5t-40 97.5q0 75 57 121.5t159 56.5l103 10q51 5 57 40q5 28 -14.5 45t-55.5 17q-91 0 -115 -78l-128 30
q23 70 91 114.5t164 44.5zM191 97q53 0 99.5 36t55.5 82l3 15q-16 -12 -50 -16l-88 -10q-37 -4 -56.5 -21t-19.5 -41q0 -45 56 -45z" />
    <glyph glyph-name="atilde" unicode="&#xe3;" horiz-adv-x="539" 
d="M468 727l85 -41q-20 -51 -59 -78.5t-89 -27.5q-37 0 -75 26t-53 26q-36 0 -53 -41l-85 41q21 51 59.5 78.5t87.5 27.5q38 0 76 -26t53 -26q36 0 53 41zM317 526q101 0 154.5 -53t30.5 -160l-67 -313h-135l27 124q-66 -134 -190 -134q-58 0 -98 37.5t-40 97.5
q0 75 57 121.5t159 56.5l103 10q51 5 57 40q5 28 -14.5 45t-55.5 17q-91 0 -115 -78l-128 30q23 70 91 114.5t164 44.5zM191 97q53 0 99.5 36t55.5 82l3 15q-16 -12 -50 -16l-88 -10q-37 -4 -56.5 -21t-19.5 -41q0 -45 56 -45z" />
    <glyph glyph-name="adieresis" unicode="&#xe4;" horiz-adv-x="539" 
d="M230 581q-32 0 -55 23t-23 55t23 54.5t55 22.5t54.5 -23t22.5 -54q0 -32 -23 -55t-54 -23zM461 736q32 0 55 -22.5t23 -54.5t-23 -55t-55 -23q-31 0 -54 23t-23 55q0 31 23 54t54 23zM317 526q101 0 154.5 -53t30.5 -160l-67 -313h-135l27 124q-66 -134 -190 -134
q-58 0 -98 37.5t-40 97.5q0 75 57 121.5t159 56.5l103 10q51 5 57 40q5 28 -14.5 45t-55.5 17q-91 0 -115 -78l-128 30q23 70 91 114.5t164 44.5zM191 97q53 0 99.5 36t55.5 82l3 15q-16 -12 -50 -16l-88 -10q-37 -4 -56.5 -21t-19.5 -41q0 -45 56 -45z" />
    <glyph glyph-name="aring" unicode="&#xe5;" horiz-adv-x="539" 
d="M330 544q-50 0 -82 28.5t-32 72.5q0 52 43.5 90.5t102.5 38.5q50 0 81.5 -28.5t31.5 -72.5q0 -52 -43 -90.5t-102 -38.5zM355 703q-22 0 -38.5 -16t-16.5 -37q0 -16 10 -25.5t27 -9.5q21 0 37.5 16t16.5 37q0 15 -10 25t-26 10zM317 526q101 0 154.5 -53t30.5 -160
l-67 -313h-135l27 124q-66 -134 -190 -134q-58 0 -98 37.5t-40 97.5q0 75 57 121.5t159 56.5l103 10q51 5 57 40q5 28 -14.5 45t-55.5 17q-91 0 -115 -78l-128 30q23 70 91 114.5t164 44.5zM191 97q53 0 99.5 36t55.5 82l3 15q-16 -12 -50 -16l-88 -10q-37 -4 -56.5 -21
t-19.5 -41q0 -45 56 -45z" />
    <glyph glyph-name="ae" unicode="&#xe6;" horiz-adv-x="947" 
d="M700 526q121 0 181 -93t20 -223h-400q4 -49 35 -76.5t80 -27.5q91 0 147 72l106 -50q-35 -61 -94.5 -99.5t-132.5 -38.5q-69 0 -116 42.5t-59 119.5l-32 -152h-135l27 124q-66 -134 -190 -134q-58 0 -98 37.5t-40 97.5q0 75 57 121.5t159 56.5l103 10q29 4 41.5 13
t15.5 27q5 28 -14.5 45t-55.5 17q-91 0 -115 -78l-128 30q23 70 91 114.5t164 44.5q135 0 177 -86q86 86 206 86zM674 410q-46 0 -87.5 -26t-64.5 -71h260q-3 40 -33 68.5t-75 28.5zM191 97q53 0 99.5 36t55.5 82l3 15q-16 -12 -50 -16l-88 -10q-75 -8 -75 -62q0 -45 55 -45
z" />
    <glyph glyph-name="ccedilla" unicode="&#xe7;" horiz-adv-x="584" 
d="M279 113q93 0 147 84l122 -43q-41 -73 -109 -115.5t-149 -47.5q69 -28 69 -93q0 -42 -46.5 -75t-116.5 -33q-43 0 -79 14l37 103q12 -4 26 -4q27 0 43.5 13.5t16.5 36.5q0 19 -17 41q-87 13 -139.5 71.5t-52.5 147.5q0 127 94 220t225 93q84 0 146 -44t77 -120l-123 -43
q-9 39 -38 61t-71 22q-69 0 -119.5 -53.5t-50.5 -124.5q0 -49 29.5 -80t78.5 -31z" />
    <glyph glyph-name="egrave" unicode="&#xe8;" horiz-adv-x="610" 
d="M371 739l80 -160h-133l-88 160h141zM350 526q127 0 190.5 -93t23.5 -223h-400q4 -49 35 -76.5t80 -27.5q90 0 146 72l107 -50q-41 -60 -110.5 -99t-149.5 -39q-107 0 -174 61t-67 162q0 127 94 220t225 93zM337 410q-46 0 -87.5 -26t-64.5 -71h260q-3 40 -33 68.5
t-75 28.5z" />
    <glyph glyph-name="eacute" unicode="&#xe9;" horiz-adv-x="610" 
d="M407 739h158l-154 -160h-135zM350 526q127 0 190.5 -93t23.5 -223h-400q4 -49 35 -76.5t80 -27.5q90 0 146 72l107 -50q-41 -60 -110.5 -99t-149.5 -39q-107 0 -174 61t-67 162q0 127 94 220t225 93zM337 410q-46 0 -87.5 -26t-64.5 -71h260q-3 40 -33 68.5t-75 28.5z
" />
    <glyph glyph-name="ecircumflex" unicode="&#xea;" horiz-adv-x="610" 
d="M434 579l-46 78l-78 -78h-132l147 160h151l79 -160h-121zM350 526q127 0 190.5 -93t23.5 -223h-400q4 -49 35 -76.5t80 -27.5q90 0 146 72l107 -50q-41 -60 -110.5 -99t-149.5 -39q-107 0 -174 61t-67 162q0 127 94 220t225 93zM337 410q-46 0 -87.5 -26t-64.5 -71h260
q-3 40 -33 68.5t-75 28.5z" />
    <glyph glyph-name="edieresis" unicode="&#xeb;" horiz-adv-x="610" 
d="M265 581q-32 0 -55 23t-23 55t23 54.5t55 22.5q31 0 54 -23t23 -54q0 -32 -23 -55t-54 -23zM496 581q-31 0 -54 23t-23 55q0 31 22.5 54t54.5 23t55 -22.5t23 -54.5t-23 -55t-55 -23zM350 526q127 0 190.5 -93t23.5 -223h-400q4 -49 35 -76.5t80 -27.5q90 0 146 72
l107 -50q-41 -60 -110.5 -99t-149.5 -39q-107 0 -174 61t-67 162q0 127 94 220t225 93zM337 410q-46 0 -87.5 -26t-64.5 -71h260q-3 40 -33 68.5t-75 28.5z" />
    <glyph glyph-name="igrave" unicode="&#xec;" horiz-adv-x="243" 
d="M277 579h-133l-88 160h141zM135 0h-135l110 516h135z" />
    <glyph glyph-name="iacute" unicode="&#xed;" horiz-adv-x="243" 
d="M237 579h-135l131 160h158zM135 0h-135l110 516h135z" />
    <glyph glyph-name="icircumflex" unicode="&#xee;" horiz-adv-x="243" 
d="M151 739h151l79 -160h-121l-46 78l-78 -78h-132zM135 0h-135l110 516h135z" />
    <glyph glyph-name="idieresis" unicode="&#xef;" horiz-adv-x="243" 
d="M38 659q0 31 23 54t54 23q32 0 55 -23t23 -54t-23.5 -54.5t-54.5 -23.5t-54 23t-23 55zM221 659q0 32 23 54.5t55 22.5q31 0 54 -23t23 -54q0 -32 -23 -55t-54 -23q-32 0 -55 23t-23 55zM135 0h-135l110 516h135z" />
    <glyph glyph-name="eth" unicode="&#xf0;" horiz-adv-x="616" 
d="M574 622l-95 -31q110 -132 110 -290q0 -127 -94.5 -219t-225.5 -92q-110 0 -174.5 63t-64.5 155q0 108 77 182.5t184 74.5q54 0 96 -28t63 -71q-23 90 -114 178l-170 -55l-23 97l103 33q-38 28 -69 47l119 84q58 -39 105 -81l150 49zM281 113q64 0 112.5 46.5t48.5 108.5
q0 47 -31 76.5t-82 29.5q-64 0 -111.5 -46t-47.5 -108q0 -48 30 -77.5t81 -29.5z" />
    <glyph glyph-name="ntilde" unicode="&#xf1;" horiz-adv-x="608" 
d="M321 632q-36 0 -53 -41l-85 41q21 51 59.5 78.5t87.5 27.5q38 0 76 -26t53 -26q36 0 53 41l85 -41q-20 -51 -59 -78.5t-89 -27.5q-37 0 -75 26t-53 26zM416 526q90 0 130.5 -67t20.5 -163l-63 -296h-135l61 288q11 52 -13 83.5t-75 31.5q-54 0 -94.5 -32t-51.5 -82
l-61 -289h-135l110 516h135l-27 -124q33 65 85.5 99.5t112.5 34.5z" />
    <glyph glyph-name="ograve" unicode="&#xf2;" horiz-adv-x="620" 
d="M452 579h-133l-88 160h141zM31 213q0 127 94 220t225 93q106 0 172.5 -61t66.5 -163q0 -126 -94 -219t-223 -93q-107 0 -174 61t-67 162zM171 224q0 -49 29.5 -80t78.5 -31q69 0 119.5 54t50.5 125q0 49 -29.5 79.5t-78.5 30.5q-69 0 -119.5 -53.5t-50.5 -124.5z" />
    <glyph glyph-name="oacute" unicode="&#xf3;" horiz-adv-x="620" 
d="M412 579h-135l131 160h158zM31 213q0 127 94 220t225 93q106 0 172.5 -61t66.5 -163q0 -126 -94 -219t-223 -93q-107 0 -174 61t-67 162zM171 224q0 -49 29.5 -80t78.5 -31q69 0 119.5 54t50.5 125q0 49 -29.5 79.5t-78.5 30.5q-69 0 -119.5 -53.5t-50.5 -124.5z" />
    <glyph glyph-name="ocircumflex" unicode="&#xf4;" horiz-adv-x="620" 
d="M435 579l-46 78l-78 -78h-132l147 160h151l79 -160h-121zM350 526q106 0 172.5 -61t66.5 -163q0 -126 -94 -219t-223 -93q-107 0 -174 61t-67 162q0 127 94 220t225 93zM279 113q69 0 119.5 54t50.5 125q0 49 -29.5 79.5t-78.5 30.5q-69 0 -119.5 -53.5t-50.5 -124.5
q0 -49 29.5 -80t78.5 -31z" />
    <glyph glyph-name="otilde" unicode="&#xf5;" horiz-adv-x="620" 
d="M260 591l-85 41q21 51 59.5 78.5t87.5 27.5q38 0 76 -26t53 -26q36 0 53 41l85 -41q-20 -51 -59 -78.5t-89 -27.5q-37 0 -75 26t-53 26q-36 0 -53 -41zM31 213q0 127 94 220t225 93q106 0 172.5 -61t66.5 -163q0 -126 -94 -219t-223 -93q-107 0 -174 61t-67 162zM171 224
q0 -49 29.5 -80t78.5 -31q69 0 119.5 54t50.5 125q0 49 -29.5 79.5t-78.5 30.5q-69 0 -119.5 -53.5t-50.5 -124.5z" />
    <glyph glyph-name="odieresis" unicode="&#xf6;" horiz-adv-x="620" 
d="M188 659q0 32 23 54.5t55 22.5t54.5 -23t22.5 -54q0 -32 -23 -55t-54 -23q-32 0 -55 23t-23 55zM420 659q0 31 23 54t54 23q32 0 55 -22.5t23 -54.5t-23 -55t-55 -23q-31 0 -54 23t-23 55zM31 213q0 127 94 220t225 93q106 0 172.5 -61t66.5 -163q0 -126 -94 -219
t-223 -93q-107 0 -174 61t-67 162zM171 224q0 -49 29.5 -80t78.5 -31q69 0 119.5 54t50.5 125q0 49 -29.5 79.5t-78.5 30.5q-69 0 -119.5 -53.5t-50.5 -124.5z" />
    <glyph glyph-name="divide" unicode="&#xf7;" horiz-adv-x="536" 
d="M250 557q0 34 23.5 57.5t57.5 23.5t58 -23.5t24 -57.5q0 -33 -24 -57.5t-58 -24.5q-33 0 -57 24.5t-24 57.5zM488 287h-428l27 126h428zM162 143q0 34 23.5 58t57.5 24t58 -24t24 -58q0 -33 -24 -57t-58 -24t-57.5 24t-23.5 57z" />
    <glyph glyph-name="oslash" unicode="&#xf8;" horiz-adv-x="620" 
d="M536 585l91 -69l-77 -83q39 -55 39 -131q0 -126 -94 -219t-223 -93q-61 0 -113 22l-75 -81l-91 69l77 83q-39 55 -39 130q0 127 94 220t225 93q59 0 111 -22zM163 224q0 -18 5 -36l203 219q-15 3 -30 3q-72 0 -125 -56t-53 -130zM457 292q0 18 -5 36l-203 -219
q15 -3 30 -3q72 0 125 56t53 130z" />
    <glyph glyph-name="ugrave" unicode="&#xf9;" horiz-adv-x="583" 
d="M447 579h-133l-88 160h141zM45 237l59 279h135l-63 -297q-10 -48 13.5 -77t71.5 -29q47 0 83 29t46 76l63 298h135l-67 -316q-21 -100 -96 -155t-181 -55q-108 0 -164.5 69.5t-34.5 177.5z" />
    <glyph glyph-name="uacute" unicode="&#xfa;" horiz-adv-x="583" 
d="M407 579h-135l131 160h158zM45 237l59 279h135l-63 -297q-10 -48 13.5 -77t71.5 -29q47 0 83 29t46 76l63 298h135l-67 -316q-21 -100 -96 -155t-181 -55q-108 0 -164.5 69.5t-34.5 177.5z" />
    <glyph glyph-name="ucircumflex" unicode="&#xfb;" horiz-adv-x="583" 
d="M429 579l-46 78l-78 -78h-132l147 160h151l79 -160h-121zM390 218l63 298h135l-67 -316q-21 -100 -96 -155t-181 -55q-108 0 -164.5 69.5t-34.5 177.5l59 279h135l-63 -297q-10 -48 13.5 -77t71.5 -29q47 0 83 29t46 76z" />
    <glyph glyph-name="udieresis" unicode="&#xfc;" horiz-adv-x="583" 
d="M183 659q0 32 23 54.5t55 22.5q31 0 54 -23t23 -54q0 -32 -23 -55t-54 -23q-32 0 -55 23t-23 55zM415 659q0 31 22.5 54t54.5 23t55 -22.5t23 -54.5t-23 -55t-55 -23q-31 0 -54 23t-23 55zM45 237l59 279h135l-63 -297q-10 -48 13.5 -77t71.5 -29q47 0 83 29t46 76
l63 298h135l-67 -316q-21 -100 -96 -155t-181 -55q-108 0 -164.5 69.5t-34.5 177.5z" />
    <glyph glyph-name="yacute" unicode="&#xfd;" horiz-adv-x="548" 
d="M386 739h158l-154 -160h-135zM224 36l239 480h146l-361 -716h-145l103 200h-101l-56 516h137z" />
    <glyph glyph-name="thorn" unicode="&#xfe;" horiz-adv-x="635" 
d="M428 526q81 0 130 -58t49 -156q0 -130 -82 -226t-193 -96q-62 0 -108.5 44.5t-56.5 117.5l-75 -352h-135l200 940h135l-77 -361q37 67 94 107t119 40zM302 113q66 0 115.5 54.5t49.5 124.5q0 48 -29 79t-74 31q-73 0 -124.5 -53.5t-51.5 -124.5q0 -50 31 -80.5t83 -30.5z
" />
    <glyph glyph-name="ydieresis" unicode="&#xff;" horiz-adv-x="548" 
d="M244 581q-32 0 -55 23t-23 55t23 54.5t55 22.5t54.5 -23t22.5 -54q0 -32 -23 -55t-54 -23zM475 581q-31 0 -54 23t-23 55q0 31 23 54t54 23q32 0 55 -22.5t23 -54.5t-23 -55t-55 -23zM224 36l239 480h146l-361 -716h-145l103 200h-101l-56 516h137z" />
    <glyph glyph-name="Amacron" unicode="&#x100;" horiz-adv-x="734" 
d="M337 876h325l-22 -102h-326zM675 0h-144l-19 152h-330l-80 -152h-152l376 700h254zM449 659l-200 -380h247z" />
    <glyph glyph-name="amacron" unicode="&#x101;" horiz-adv-x="539" 
d="M199 710h316l-22 -102h-316zM317 526q101 0 154.5 -53t30.5 -160l-67 -313h-135l27 124q-66 -134 -190 -134q-58 0 -98 37.5t-40 97.5q0 75 57 121.5t159 56.5l103 10q51 5 57 40q5 28 -14.5 45t-55.5 17q-91 0 -115 -78l-128 30q23 70 91 114.5t164 44.5zM191 97
q53 0 99.5 36t55.5 82l3 15q-16 -12 -50 -16l-88 -10q-37 -4 -56.5 -21t-19.5 -41q0 -45 56 -45z" />
    <glyph glyph-name="Abreve" unicode="&#x102;" horiz-adv-x="734" 
d="M482 740q-76 0 -121.5 42.5t-43.5 117.5h115q-2 -28 14.5 -44t47.5 -16q71 0 87 60h114q-15 -75 -74.5 -117.5t-138.5 -42.5zM580 700l95 -700h-144l-19 152h-330l-80 -152h-152l376 700h254zM449 659l-200 -380h247z" />
    <glyph glyph-name="abreve" unicode="&#x103;" horiz-adv-x="539" 
d="M348 572q-79 0 -118 44t-29 122h103q-7 -29 6.5 -47.5t41.5 -18.5q29 0 48.5 18t26.5 48h103q-10 -76 -62 -121t-120 -45zM317 526q101 0 154.5 -53t30.5 -160l-67 -313h-135l27 124q-66 -134 -190 -134q-58 0 -98 37.5t-40 97.5q0 75 57 121.5t159 56.5l103 10
q51 5 57 40q5 28 -14.5 45t-55.5 17q-91 0 -115 -78l-128 30q23 70 91 114.5t164 44.5zM191 97q53 0 99.5 36t55.5 82l3 15q-16 -12 -50 -16l-88 -10q-37 -4 -56.5 -21t-19.5 -41q0 -45 56 -45z" />
    <glyph glyph-name="Aogonek" unicode="&#x104;" horiz-adv-x="734" 
d="M602 -68q0 -29 35 -29q14 0 35 6l-11 -105q-40 -14 -84 -14q-54 0 -84.5 22.5t-30.5 60.5t34 74t96 53h-61l-19 152h-330l-80 -152h-152l376 700h254l95 -700h-31q-42 -32 -42 -68zM449 659l-200 -380h247z" />
    <glyph glyph-name="aogonek" unicode="&#x105;" horiz-adv-x="539" 
d="M317 526q101 0 154.5 -53t30.5 -160l-67 -313h1q-42 -32 -42 -68q0 -29 35 -29q14 0 35 6l-11 -105q-40 -14 -84 -14q-54 0 -84.5 22.5t-30.5 60.5t34 74t96 53h-84l27 124q-66 -134 -190 -134q-58 0 -98 37.5t-40 97.5q0 75 57 121.5t159 56.5l103 10q51 5 57 40
q5 28 -14.5 45t-55.5 17q-91 0 -115 -78l-128 30q23 70 91 114.5t164 44.5zM191 97q53 0 99.5 36t55.5 82l3 15q-16 -12 -50 -16l-88 -10q-37 -4 -56.5 -21t-19.5 -41q0 -45 56 -45z" />
    <glyph glyph-name="Cacute" unicode="&#x106;" horiz-adv-x="763" 
d="M522 746h-149l168 154h173zM49 286q0 113 58.5 210.5t158 155.5t213.5 58q116 0 195.5 -56.5t106.5 -146.5l-141 -50q-15 54 -59.5 88t-109.5 34q-113 0 -194 -84.5t-81 -196.5q0 -77 49 -127t128 -50q67 0 126.5 33t96.5 89l129 -54q-54 -85 -149.5 -142t-210.5 -57
q-139 0 -227.5 81.5t-88.5 214.5z" />
    <glyph glyph-name="cacute" unicode="&#x107;" horiz-adv-x="584" 
d="M411 579h-135l131 160h158zM31 213q0 127 94 220t225 93q84 0 146 -44t77 -120l-123 -43q-9 39 -38 61t-71 22q-69 0 -119.5 -53.5t-50.5 -124.5q0 -49 29.5 -80t78.5 -31q93 0 147 84l122 -43q-43 -77 -116.5 -120.5t-159.5 -43.5q-107 0 -174 61t-67 162z" />
    <glyph glyph-name="Ccircumflex" unicode="&#x108;" horiz-adv-x="763" 
d="M562 746l-53 69l-83 -69h-154l179 154h141l114 -154h-144zM373 121q67 0 126.5 33t96.5 89l129 -54q-54 -85 -149.5 -142t-210.5 -57q-139 0 -227.5 81.5t-88.5 214.5q0 113 58.5 210.5t158 155.5t213.5 58q116 0 195.5 -56.5t106.5 -146.5l-141 -50q-15 54 -59.5 88
t-109.5 34q-113 0 -194 -84.5t-81 -196.5q0 -77 49 -127t128 -50z" />
    <glyph glyph-name="ccircumflex" unicode="&#x109;" horiz-adv-x="584" 
d="M433 579l-46 78l-78 -78h-132l147 160h151l79 -160h-121zM279 113q93 0 147 84l122 -43q-43 -77 -116.5 -120.5t-159.5 -43.5q-107 0 -174 61t-67 162q0 127 94 220t225 93q84 0 146 -44t77 -120l-123 -43q-9 39 -38 61t-71 22q-69 0 -119.5 -53.5t-50.5 -124.5
q0 -49 29.5 -80t78.5 -31z" />
    <glyph glyph-name="Cdotaccent" unicode="&#x10a;" horiz-adv-x="763" 
d="M422 825q0 34 24 57.5t58 23.5t57.5 -23.5t23.5 -57.5q0 -33 -23.5 -57t-57.5 -24t-58 24t-24 57zM49 286q0 113 58.5 210.5t158 155.5t213.5 58q116 0 195.5 -56.5t106.5 -146.5l-141 -50q-15 54 -59.5 88t-109.5 34q-113 0 -194 -84.5t-81 -196.5q0 -77 49 -127
t128 -50q67 0 126.5 33t96.5 89l129 -54q-54 -85 -149.5 -142t-210.5 -57q-139 0 -227.5 81.5t-88.5 214.5z" />
    <glyph glyph-name="cdotaccent" unicode="&#x10b;" horiz-adv-x="584" 
d="M299 659q0 34 24 57.5t58 23.5q33 0 57 -23.5t24 -57.5q0 -33 -24 -57t-57 -24q-34 0 -58 24t-24 57zM31 213q0 127 94 220t225 93q84 0 146 -44t77 -120l-123 -43q-9 39 -38 61t-71 22q-69 0 -119.5 -53.5t-50.5 -124.5q0 -49 29.5 -80t78.5 -31q93 0 147 84l122 -43
q-43 -77 -116.5 -120.5t-159.5 -43.5q-107 0 -174 61t-67 162z" />
    <glyph glyph-name="Ccaron" unicode="&#x10c;" horiz-adv-x="763" 
d="M730 900l-180 -154h-141l-114 154h144l53 -69l83 69h155zM373 121q67 0 126.5 33t96.5 89l129 -54q-54 -85 -149.5 -142t-210.5 -57q-139 0 -227.5 81.5t-88.5 214.5q0 113 58.5 210.5t158 155.5t213.5 58q116 0 195.5 -56.5t106.5 -146.5l-141 -50q-15 54 -59.5 88
t-109.5 34q-113 0 -194 -84.5t-81 -196.5q0 -77 49 -127t128 -50z" />
    <glyph glyph-name="ccaron" unicode="&#x10d;" horiz-adv-x="584" 
d="M583 739l-147 -160h-151l-79 160h121l46 -78l79 78h131zM341 402q-69 0 -119.5 -53.5t-50.5 -124.5q0 -49 29.5 -80t78.5 -31q93 0 147 84l122 -43q-43 -77 -116.5 -120.5t-159.5 -43.5q-107 0 -174 61t-67 162q0 127 94 220t225 93q84 0 146 -44t77 -120l-123 -43
q-9 39 -38 61t-71 22z" />
    <glyph glyph-name="Dcaron" unicode="&#x10e;" horiz-adv-x="724" 
d="M680 900l-180 -154h-141l-114 154h144l53 -69l83 69h155zM149 700h269q131 0 214.5 -80.5t83.5 -201.5q0 -170 -126 -294t-304 -124h-286zM169 127h124q113 0 194 82t81 195q0 76 -48.5 122.5t-131.5 46.5h-123z" />
    <glyph glyph-name="dcaron" unicode="&#x10f;" horiz-adv-x="755" 
d="M693 575l64 193h128l-87 -193h-105zM468 360l81 380h135l-157 -740h-135l30 140q-37 -69 -94.5 -109.5t-120.5 -40.5q-81 0 -129.5 58t-48.5 156q0 130 82 226t192 96q63 0 110 -45.5t55 -120.5zM272 113q72 0 123.5 54t51.5 125q0 49 -30.5 79.5t-82.5 30.5
q-66 0 -116 -54t-50 -124q0 -49 29 -80t75 -31z" />
    <glyph glyph-name="Dcroat" unicode="&#x110;" horiz-adv-x="774" 
d="M199 700h269q131 0 214.5 -80.5t83.5 -201.5q0 -170 -126 -294t-304 -124h-286l64 299h-108l22 102h107zM219 127h124q113 0 194 82t81 195q0 76 -48.5 122.5t-131.5 46.5h-123l-37 -172h76l-22 -102h-76z" />
    <glyph glyph-name="dcroat" unicode="&#x111;" horiz-adv-x="635" 
d="M667 660h56l-22 -102h-56l-118 -558h-135l30 140q-37 -69 -94.5 -109.5t-120.5 -40.5q-81 0 -129.5 58t-48.5 156q0 130 82 226t192 96q63 0 110 -45.5t55 -120.5l42 198h-125l23 102h124l17 80h135zM272 113q72 0 123.5 54t51.5 125q0 49 -30.5 79.5t-82.5 30.5
q-66 0 -116 -54t-50 -124q0 -49 29 -80t75 -31z" />
    <glyph glyph-name="Emacron" unicode="&#x112;" horiz-adv-x="562" 
d="M554 774h-326l23 102h325zM465 0h-465l149 700h465l-27 -127h-322l-35 -160h313l-27 -126h-313l-34 -160h323z" />
    <glyph glyph-name="emacron" unicode="&#x113;" horiz-adv-x="610" 
d="M234 710h316l-22 -102h-316zM350 526q127 0 190.5 -93t23.5 -223h-400q4 -49 35 -76.5t80 -27.5q90 0 146 72l107 -50q-41 -60 -110.5 -99t-149.5 -39q-107 0 -174 61t-67 162q0 127 94 220t225 93zM337 410q-46 0 -87.5 -26t-64.5 -71h260q-3 40 -33 68.5t-75 28.5z" />
    <glyph glyph-name="Ebreve" unicode="&#x114;" horiz-adv-x="562" 
d="M231 900h115q-2 -28 14.5 -44t47.5 -16q71 0 87 60h114q-15 -75 -74.5 -117.5t-138.5 -42.5q-76 0 -121.5 42.5t-43.5 117.5zM465 0h-465l149 700h465l-27 -127h-322l-35 -160h313l-27 -126h-313l-34 -160h323z" />
    <glyph glyph-name="ebreve" unicode="&#x115;" horiz-adv-x="610" 
d="M383 572q-79 0 -118 44t-29 122h103q-7 -29 6.5 -47.5t41.5 -18.5q29 0 48.5 18t26.5 48h103q-10 -76 -62 -121t-120 -45zM350 526q127 0 190.5 -93t23.5 -223h-400q4 -49 35 -76.5t80 -27.5q90 0 146 72l107 -50q-41 -60 -110.5 -99t-149.5 -39q-107 0 -174 61t-67 162
q0 127 94 220t225 93zM337 410q-46 0 -87.5 -26t-64.5 -71h260q-3 40 -33 68.5t-75 28.5z" />
    <glyph glyph-name="Edotaccent" unicode="&#x116;" horiz-adv-x="562" 
d="M320 825q0 34 24 57.5t58 23.5t57.5 -23.5t23.5 -57.5q0 -33 -23.5 -57t-57.5 -24t-58 24t-24 57zM465 0h-465l149 700h465l-27 -127h-322l-35 -160h313l-27 -126h-313l-34 -160h323z" />
    <glyph glyph-name="edotaccent" unicode="&#x117;" horiz-adv-x="610" 
d="M381 578q-34 0 -58 24t-24 57q0 34 24 57.5t58 23.5q33 0 57 -23.5t24 -57.5q0 -33 -24 -57t-57 -24zM350 526q127 0 190.5 -93t23.5 -223h-400q4 -49 35 -76.5t80 -27.5q90 0 146 72l107 -50q-41 -60 -110.5 -99t-149.5 -39q-107 0 -174 61t-67 162q0 127 94 220t225 93
zM337 410q-46 0 -87.5 -26t-64.5 -71h260q-3 40 -33 68.5t-75 28.5z" />
    <glyph glyph-name="Eogonek" unicode="&#x118;" horiz-adv-x="562" 
d="M614 700l-27 -127h-322l-35 -160h313l-27 -126h-313l-34 -160h323l-27 -127q-42 -32 -42 -68q0 -29 35 -29q14 0 35 6l-11 -105q-40 -14 -84 -14q-54 0 -84.5 22.5t-30.5 60.5t34 74t96 53h-413l149 700h465z" />
    <glyph glyph-name="eogonek" unicode="&#x119;" horiz-adv-x="610" 
d="M350 526q127 0 190.5 -93t23.5 -223h-400q4 -49 35 -76.5t80 -27.5q90 0 146 72l107 -50q-20 -28 -42 -49q-87 -92 -87 -145q0 -31 35 -31q12 0 35 6l-11 -105q-40 -14 -84 -14q-54 0 -84.5 22.5t-30.5 61.5q0 76 92 128q-41 -12 -83 -12q-107 0 -174 61t-67 162
q0 127 94 220t225 93zM337 410q-46 0 -87.5 -26t-64.5 -71h260q-3 40 -33 68.5t-75 28.5z" />
    <glyph glyph-name="Ecaron" unicode="&#x11a;" horiz-adv-x="562" 
d="M628 900l-180 -154h-141l-114 154h144l53 -69l83 69h155zM465 0h-465l149 700h465l-27 -127h-322l-35 -160h313l-27 -126h-313l-34 -160h323z" />
    <glyph glyph-name="ecaron" unicode="&#x11b;" horiz-adv-x="610" 
d="M584 739l-147 -160h-151l-79 160h121l46 -78l79 78h131zM350 526q127 0 190.5 -93t23.5 -223h-400q4 -49 35 -76.5t80 -27.5q90 0 146 72l107 -50q-41 -60 -110.5 -99t-149.5 -39q-107 0 -174 61t-67 162q0 127 94 220t225 93zM337 410q-46 0 -87.5 -26t-64.5 -71h260
q-3 40 -33 68.5t-75 28.5z" />
    <glyph glyph-name="Gcircumflex" unicode="&#x11c;" horiz-adv-x="804" 
d="M582 746l-53 69l-83 -69h-154l179 154h141l114 -154h-144zM347 267l27 127h419q-11 -175 -139 -289.5t-289 -114.5q-139 0 -227.5 81.5t-88.5 214.5q0 113 58.5 210.5t158 155.5t213.5 58q116 0 195.5 -56.5t106.5 -146.5l-141 -50q-15 54 -59.5 88t-109.5 34
q-113 0 -194 -84.5t-81 -196.5q0 -77 49 -127t128 -50t144.5 44.5t91.5 101.5h-262z" />
    <glyph glyph-name="gcircumflex" unicode="&#x11d;" horiz-adv-x="635" 
d="M456 579l-46 78l-78 -78h-132l147 160h151l79 -160h-121zM470 369l31 147h135l-101 -474q-24 -114 -107.5 -183t-199.5 -69q-82 0 -144.5 41t-82.5 103l122 59q31 -80 112 -80q60 0 107.5 40.5t60.5 104.5l19 88q-38 -64 -94.5 -102t-118.5 -38q-82 0 -130.5 56
t-48.5 158q0 124 82 215t193 91q62 0 108.5 -41.5t56.5 -115.5zM279 129q70 0 120 51.5t50 119.5q0 45 -31 73.5t-80 28.5q-69 0 -118.5 -51t-49.5 -119q0 -46 30 -74.5t79 -28.5z" />
    <glyph glyph-name="Gbreve" unicode="&#x11e;" horiz-adv-x="804" 
d="M517 740q-76 0 -121.5 42.5t-43.5 117.5h115q-2 -28 14.5 -44t47.5 -16q71 0 87 60h114q-15 -75 -74.5 -117.5t-138.5 -42.5zM347 267l27 127h419q-11 -175 -139 -289.5t-289 -114.5q-139 0 -227.5 81.5t-88.5 214.5q0 113 58.5 210.5t158 155.5t213.5 58
q116 0 195.5 -56.5t106.5 -146.5l-141 -50q-15 54 -59.5 88t-109.5 34q-113 0 -194 -84.5t-81 -196.5q0 -77 49 -127t128 -50t144.5 44.5t91.5 101.5h-262z" />
    <glyph glyph-name="gbreve" unicode="&#x11f;" horiz-adv-x="635" 
d="M405 572q-79 0 -118 44t-29 122h103q-7 -29 6.5 -47.5t41.5 -18.5q29 0 48.5 18t26.5 48h103q-10 -76 -62 -121t-120 -45zM470 369l31 147h135l-101 -474q-24 -114 -107.5 -183t-199.5 -69q-82 0 -144.5 41t-82.5 103l122 59q31 -80 112 -80q60 0 107.5 40.5t60.5 104.5
l19 88q-38 -64 -94.5 -102t-118.5 -38q-82 0 -130.5 56t-48.5 158q0 124 82 215t193 91q62 0 108.5 -41.5t56.5 -115.5zM279 129q70 0 120 51.5t50 119.5q0 45 -31 73.5t-80 28.5q-69 0 -118.5 -51t-49.5 -119q0 -46 30 -74.5t79 -28.5z" />
    <glyph glyph-name="Gdotaccent" unicode="&#x120;" horiz-adv-x="804" 
d="M524 744q-34 0 -58 24t-24 57q0 34 24 57.5t58 23.5t57.5 -23.5t23.5 -57.5q0 -33 -23.5 -57t-57.5 -24zM347 267l27 127h419q-11 -175 -139 -289.5t-289 -114.5q-139 0 -227.5 81.5t-88.5 214.5q0 113 58.5 210.5t158 155.5t213.5 58q116 0 195.5 -56.5t106.5 -146.5
l-141 -50q-15 54 -59.5 88t-109.5 34q-113 0 -194 -84.5t-81 -196.5q0 -77 49 -127t128 -50t144.5 44.5t91.5 101.5h-262z" />
    <glyph glyph-name="gdotaccent" unicode="&#x121;" horiz-adv-x="635" 
d="M403 578q-34 0 -58 24t-24 57q0 34 24 57.5t58 23.5q33 0 57 -23.5t24 -57.5q0 -33 -24 -57t-57 -24zM470 369l31 147h135l-101 -474q-24 -114 -107.5 -183t-199.5 -69q-82 0 -144.5 41t-82.5 103l122 59q31 -80 112 -80q60 0 107.5 40.5t60.5 104.5l19 88
q-38 -64 -94.5 -102t-118.5 -38q-82 0 -130.5 56t-48.5 158q0 124 82 215t193 91q62 0 108.5 -41.5t56.5 -115.5zM279 129q70 0 120 51.5t50 119.5q0 45 -31 73.5t-80 28.5q-69 0 -118.5 -51t-49.5 -119q0 -46 30 -74.5t79 -28.5z" />
    <glyph glyph-name="uni0122" unicode="&#x122;" horiz-adv-x="804" 
d="M347 267l27 127h419q-11 -175 -139 -289.5t-289 -114.5q-139 0 -227.5 81.5t-88.5 214.5q0 113 58.5 210.5t158 155.5t213.5 58q116 0 195.5 -56.5t106.5 -146.5l-141 -50q-15 54 -59.5 88t-109.5 34q-113 0 -194 -84.5t-81 -196.5q0 -77 49 -127t128 -50t144.5 44.5
t91.5 101.5h-262zM333 -210h-110l58 169h137z" />
    <glyph glyph-name="uni0123" unicode="&#x123;" horiz-adv-x="635" 
d="M390 740h110l-57 -169h-138zM470 369l31 147h135l-101 -474q-24 -114 -107.5 -183t-199.5 -69q-82 0 -144.5 41t-82.5 103l122 59q31 -80 112 -80q60 0 107.5 40.5t60.5 104.5l19 88q-38 -64 -94.5 -102t-118.5 -38q-82 0 -130.5 56t-48.5 158q0 124 82 215t193 91
q62 0 108.5 -41.5t56.5 -115.5zM279 129q70 0 120 51.5t50 119.5q0 45 -31 73.5t-80 28.5q-69 0 -118.5 -51t-49.5 -119q0 -46 30 -74.5t79 -28.5z" />
    <glyph glyph-name="Hcircumflex" unicode="&#x124;" horiz-adv-x="718" 
d="M539 746l-53 69l-83 -69h-154l179 154h141l114 -154h-144zM554 413l61 287h143l-149 -700h-143l61 287h-324l-60 -287h-143l149 700h143l-62 -287h324z" />
    <glyph glyph-name="hcircumflex" unicode="&#x125;" horiz-adv-x="608" 
d="M309 786l-53 69l-83 -69h-154l179 154h141l114 -154h-144zM416 526q90 0 130.5 -67t20.5 -163l-63 -296h-135l61 288q11 52 -13 83.5t-75 31.5q-54 0 -94.5 -32t-51.5 -82l-61 -289h-135l157 740h135l-75 -349q34 66 86 100.5t113 34.5z" />
    <glyph glyph-name="Hbar" unicode="&#x126;" horiz-adv-x="718" 
d="M739 609h56l-22 -103h-56l-108 -506h-143l61 287h-324l-60 -287h-143l108 506h-57l22 103h57l19 91h143l-20 -91h324l19 91h143zM230 413h324l20 93h-324z" />
    <glyph glyph-name="hbar" unicode="&#x127;" horiz-adv-x="608" 
d="M416 526q90 0 130.5 -67t20.5 -163l-63 -296h-135l61 288q11 52 -13 83.5t-75 31.5q-54 0 -94.5 -32t-51.5 -82l-61 -289h-135l118 558h-56l22 102h56l17 80h135l-17 -80h125l-22 -102h-125l-36 -167q34 66 86 100.5t113 34.5z" />
    <glyph glyph-name="Itilde" unicode="&#x128;" horiz-adv-x="251" 
d="M116 757l-85 41q21 51 60 78.5t88 27.5q42 0 84.5 -26t61.5 -26q36 0 53 41l85 -41q-20 -51 -59 -78.5t-88 -27.5q-42 0 -85 26t-62 26q-36 0 -53 -41zM143 0h-143l149 700h143z" />
    <glyph glyph-name="itilde" unicode="&#x129;" horiz-adv-x="243" 
d="M85 591l-85 41q21 51 59.5 78.5t87.5 27.5q38 0 76 -26t53 -26q36 0 53 41l85 -41q-20 -51 -59 -78.5t-89 -27.5q-37 0 -75 26t-53 26q-36 0 -53 -41zM135 0h-135l110 516h135z" />
    <glyph glyph-name="Imacron" unicode="&#x12a;" horiz-adv-x="251" 
d="M374 774h-277l22 102h278zM143 0h-143l149 700h143z" />
    <glyph glyph-name="imacron" unicode="&#x12b;" horiz-adv-x="243" 
d="M330 608h-267l22 102h268zM135 0h-135l110 516h135z" />
    <glyph glyph-name="Ibreve" unicode="&#x12c;" horiz-adv-x="251" 
d="M76 900h115q-2 -28 14.5 -44t47.5 -16q71 0 87 60h114q-15 -75 -74.5 -117.5t-138.5 -42.5q-76 0 -121.5 42.5t-43.5 117.5zM143 0h-143l149 700h143z" />
    <glyph glyph-name="ibreve" unicode="&#x12d;" horiz-adv-x="243" 
d="M62 738h103q-7 -29 6.5 -47.5t41.5 -18.5q29 0 48.5 18t26.5 48h103q-10 -76 -62 -121t-120 -45q-79 0 -118 44t-29 122zM135 0h-135l110 516h135z" />
    <glyph glyph-name="Iogonek" unicode="&#x12e;" horiz-adv-x="251" 
d="M90 -68q0 -29 35 -29q14 0 35 6l-11 -105q-40 -14 -84 -14q-54 0 -84.5 22.5t-30.5 60.5t34 74t96 53h-80l149 700h143l-149 -700h-11q-42 -32 -42 -68z" />
    <glyph glyph-name="iogonek" unicode="&#x12f;" horiz-adv-x="243" 
d="M207 740q33 0 57 -23.5t24 -57.5q0 -33 -24 -57t-57 -24q-34 0 -58 24t-24 57q0 34 24 57.5t58 23.5zM135 0h-15q-42 -32 -42 -68q0 -29 35 -29q14 0 35 6l-11 -105q-40 -14 -84 -14q-54 0 -84.5 22.5t-30.5 60.5t34 74t96 53h-68l110 516h135z" />
    <glyph glyph-name="Idotaccent" unicode="&#x130;" horiz-adv-x="251" 
d="M165 825q0 34 24 57.5t58 23.5t57.5 -23.5t23.5 -57.5q0 -33 -23.5 -57t-57.5 -24t-58 24t-24 57zM143 0h-143l149 700h143z" />
    <glyph glyph-name="dotlessi" unicode="&#x131;" horiz-adv-x="243" 
d="M135 0h-135l110 516h135z" />
    <glyph glyph-name="IJ" unicode="&#x132;" horiz-adv-x="796" 
d="M143 0h-143l149 700h143zM248 207l143 21q-9 -55 14.5 -81t71.5 -26q46 0 81 30.5t45 80.5l99 468h143l-101 -476q-24 -111 -104.5 -172.5t-185.5 -61.5q-101 0 -160 58t-46 159z" />
    <glyph glyph-name="ij" unicode="&#x133;" horiz-adv-x="507" 
d="M126 659q0 34 24 57.5t58 23.5q33 0 57 -23.5t24 -57.5q0 -33 -24 -57t-57 -24q-34 0 -58 24t-24 57zM388 659q0 34 24 57.5t58 23.5t57.5 -23.5t23.5 -57.5q0 -33 -23.5 -57t-57.5 -24t-58 24t-24 57zM135 0h-135l110 516h135zM130 -209l25 119q54 -1 74.5 17t32.5 73
l110 516h135l-110 -516q-24 -116 -83.5 -166t-183.5 -43z" />
    <glyph glyph-name="Jcircumflex" unicode="&#x134;" horiz-adv-x="545" 
d="M497 900h141l114 -154h-144l-53 69l-83 -69h-154zM352 232l99 468h143l-101 -476q-24 -111 -104.5 -172.5t-185.5 -61.5q-101 0 -160 58t-46 159l143 21q-9 -55 14.5 -81t71.5 -26q46 0 81 30.5t45 80.5z" />
    <glyph glyph-name="jcircumflex" unicode="&#x135;" horiz-adv-x="263" 
d="M171 739h151l79 -160h-121l-46 78l-78 -78h-132zM19 0l110 516h135l-110 -516q-24 -116 -83.5 -166t-183.5 -43l25 119q54 -1 74.5 17t32.5 73z" />
    <glyph glyph-name="uni0136" unicode="&#x136;" horiz-adv-x="673" 
d="M538 700h194l-319 -291l204 -409h-159l-156 309l-117 -107l-42 -202h-143l149 700h143l-61 -280zM255 -210h-110l58 169h137z" />
    <glyph glyph-name="uni0137" unicode="&#x137;" horiz-adv-x="572" 
d="M413 516h186l-250 -223l174 -293h-156l-120 202l-85 -76l-27 -126h-135l157 740h135l-89 -415zM216 -210h-110l58 169h137z" />
    <glyph glyph-name="kgreenlandic" unicode="&#x138;" horiz-adv-x="572" 
d="M412 516h187l-250 -223l174 -293h-157l-119 202l-85 -76l-27 -126h-135l110 516h135l-41 -190z" />
    <glyph glyph-name="Lacute" unicode="&#x139;" horiz-adv-x="540" 
d="M265 746h-149l168 154h173zM465 0h-465l149 700h143l-123 -573h323z" />
    <glyph glyph-name="lacute" unicode="&#x13a;" horiz-adv-x="243" 
d="M269 786h-149l168 154h173zM135 0h-135l157 740h135z" />
    <glyph glyph-name="uni013B" unicode="&#x13b;" horiz-adv-x="540" 
d="M465 0h-465l149 700h143l-123 -573h323zM200 -210h-110l58 169h137z" />
    <glyph glyph-name="uni013C" unicode="&#x13c;" horiz-adv-x="243" 
d="M135 0h-135l157 740h135zM52 -210h-110l57 169h138z" />
    <glyph glyph-name="Lcaron" unicode="&#x13d;" horiz-adv-x="540" 
d="M454 575h-105l64 193h128zM465 0h-465l149 700h143l-123 -573h323z" />
    <glyph glyph-name="lcaron" unicode="&#x13e;" horiz-adv-x="363" 
d="M406 575h-105l64 193h128zM135 0h-135l157 740h135z" />
    <glyph glyph-name="Ldot" unicode="&#x13f;" horiz-adv-x="540" 
d="M465 0h-465l149 700h143l-123 -573h323zM299 350q0 37 26.5 63t63.5 26q36 0 62.5 -26t26.5 -63q0 -36 -26.5 -62.5t-62.5 -26.5q-37 0 -63.5 26.5t-26.5 62.5z" />
    <glyph glyph-name="ldot" unicode="&#x140;" horiz-adv-x="422" 
d="M135 0h-135l157 740h135zM263 350q0 37 26 63t63 26t63.5 -26t26.5 -63q0 -36 -26.5 -62.5t-63.5 -26.5t-63 26.5t-26 62.5z" />
    <glyph glyph-name="Lslash" unicode="&#x141;" horiz-adv-x="560" 
d="M227 303l-38 -176h323l-27 -127h-465l56 263l-79 -21l23 109l79 21l70 328h143l-62 -288l246 66l-24 -109z" />
    <glyph glyph-name="lslash" unicode="&#x142;" horiz-adv-x="288" 
d="M248 430l88 24l-24 -105l-86 -24l-69 -325h-135l61 286l-88 -24l22 105l88 24l74 349h135z" />
    <glyph glyph-name="Nacute" unicode="&#x143;" horiz-adv-x="734" 
d="M525 900h173l-192 -154h-149zM489 30l142 670h143l-149 -700h-268l-72 670l-142 -670h-143l149 700h268z" />
    <glyph glyph-name="nacute" unicode="&#x144;" horiz-adv-x="608" 
d="M416 739h158l-154 -160h-135zM416 526q90 0 130.5 -67t20.5 -163l-63 -296h-135l61 288q11 52 -13 83.5t-75 31.5q-54 0 -94.5 -32t-51.5 -82l-61 -289h-135l110 516h135l-27 -124q33 65 85.5 99.5t112.5 34.5z" />
    <glyph glyph-name="uni0145" unicode="&#x145;" horiz-adv-x="734" 
d="M489 30l142 670h143l-149 -700h-268l-72 670l-142 -670h-143l149 700h268zM297 -210h-110l58 169h137z" />
    <glyph glyph-name="uni0146" unicode="&#x146;" horiz-adv-x="608" 
d="M416 526q90 0 130.5 -67t20.5 -163l-63 -296h-135l61 288q11 52 -13 83.5t-75 31.5q-54 0 -94.5 -32t-51.5 -82l-61 -289h-135l110 516h135l-27 -124q33 65 85.5 99.5t112.5 34.5zM235 -210h-110l58 169h137z" />
    <glyph glyph-name="Ncaron" unicode="&#x147;" horiz-adv-x="734" 
d="M714 900l-180 -154h-141l-114 154h144l53 -69l83 69h155zM489 30l142 670h143l-149 -700h-268l-72 670l-142 -670h-143l149 700h268z" />
    <glyph glyph-name="ncaron" unicode="&#x148;" horiz-adv-x="608" 
d="M592 739l-147 -160h-151l-79 160h121l46 -78l79 78h131zM416 526q90 0 130.5 -67t20.5 -163l-63 -296h-135l61 288q11 52 -13 83.5t-75 31.5q-54 0 -94.5 -32t-51.5 -82l-61 -289h-135l110 516h135l-27 -124q33 65 85.5 99.5t112.5 34.5z" />
    <glyph glyph-name="napostrophe" unicode="&#x149;" horiz-adv-x="867" 
d="M326 629q0 -77 -55.5 -138.5t-142.5 -84.5l-38 78q105 34 124 95q-35 -5 -61.5 18.5t-26.5 63.5q0 37 27 63t67 26q47 0 76.5 -34.5t29.5 -86.5zM675 526q90 0 130.5 -67t20.5 -163l-63 -296h-135l61 288q11 52 -13 83.5t-75 31.5q-54 0 -94.5 -32t-51.5 -82l-61 -289
h-135l110 516h135l-27 -124q33 65 85.5 99.5t112.5 34.5z" />
    <glyph glyph-name="Eng" unicode="&#x14a;" horiz-adv-x="734" 
d="M489 30l142 670h143l-149 -700q-25 -117 -84.5 -166.5t-183.5 -42.5l26 119q51 -2 72 15t30 54l5 21h-133l-72 670l-142 -670h-143l149 700h268z" />
    <glyph glyph-name="eng" unicode="&#x14b;" horiz-adv-x="608" 
d="M416 526q90 0 130.5 -67t20.5 -163l-63 -296q-26 -117 -85 -166.5t-183 -42.5l25 119q54 -1 75.5 17.5t32.5 72.5l61 288q11 52 -13 83.5t-75 31.5q-54 0 -94.5 -32t-51.5 -82l-61 -289h-135l110 516h135l-27 -124q33 65 85.5 99.5t112.5 34.5z" />
    <glyph glyph-name="Omacron" unicode="&#x14c;" horiz-adv-x="804" 
d="M675 774h-326l23 102h325zM49 286q0 113 58.5 210.5t158 155.5t213.5 58q139 0 227 -81.5t88 -214.5q0 -112 -58.5 -210t-157.5 -156t-213 -58q-139 0 -227.5 81.5t-88.5 214.5zM196 298q0 -77 49 -127t128 -50q112 0 193 84.5t81 196.5q0 77 -49 127t-128 50
q-112 0 -193 -84.5t-81 -196.5z" />
    <glyph glyph-name="omacron" unicode="&#x14d;" horiz-adv-x="620" 
d="M529 608h-316l22 102h316zM31 213q0 127 94 220t225 93q106 0 172.5 -61t66.5 -163q0 -126 -94 -219t-223 -93q-107 0 -174 61t-67 162zM171 224q0 -49 29.5 -80t78.5 -31q69 0 119.5 54t50.5 125q0 49 -29.5 79.5t-78.5 30.5q-69 0 -119.5 -53.5t-50.5 -124.5z" />
    <glyph glyph-name="Obreve" unicode="&#x14e;" horiz-adv-x="804" 
d="M352 900h115q-2 -28 14.5 -44t47.5 -16q71 0 87 60h114q-15 -75 -74.5 -117.5t-138.5 -42.5q-76 0 -121.5 42.5t-43.5 117.5zM49 286q0 113 58.5 210.5t158 155.5t213.5 58q139 0 227 -81.5t88 -214.5q0 -112 -58.5 -210t-157.5 -156t-213 -58q-139 0 -227.5 81.5
t-88.5 214.5zM196 298q0 -77 49 -127t128 -50q112 0 193 84.5t81 196.5q0 77 -49 127t-128 50q-112 0 -193 -84.5t-81 -196.5z" />
    <glyph glyph-name="obreve" unicode="&#x14f;" horiz-adv-x="620" 
d="M237 738h103q-7 -29 6.5 -47.5t41.5 -18.5q29 0 48.5 18t26.5 48h103q-10 -76 -62 -121t-120 -45q-79 0 -118 44t-29 122zM31 213q0 127 94 220t225 93q106 0 172.5 -61t66.5 -163q0 -126 -94 -219t-223 -93q-107 0 -174 61t-67 162zM171 224q0 -49 29.5 -80t78.5 -31
q69 0 119.5 54t50.5 125q0 49 -29.5 79.5t-78.5 30.5q-69 0 -119.5 -53.5t-50.5 -124.5z" />
    <glyph glyph-name="Ohungarumlaut" unicode="&#x150;" horiz-adv-x="804" 
d="M429 746h-134l164 154h158zM643 746h-134l164 154h158zM49 286q0 113 58.5 210.5t158 155.5t213.5 58q139 0 227 -81.5t88 -214.5q0 -112 -58.5 -210t-157.5 -156t-213 -58q-139 0 -227.5 81.5t-88.5 214.5zM196 298q0 -77 49 -127t128 -50q112 0 193 84.5t81 196.5
q0 77 -49 127t-128 50q-112 0 -193 -84.5t-81 -196.5z" />
    <glyph glyph-name="ohungarumlaut" unicode="&#x151;" horiz-adv-x="620" 
d="M312 579h-122l131 160h142zM503 579h-122l130 160h143zM31 213q0 127 94 220t225 93q106 0 172.5 -61t66.5 -163q0 -126 -94 -219t-223 -93q-107 0 -174 61t-67 162zM171 224q0 -49 29.5 -80t78.5 -31q69 0 119.5 54t50.5 125q0 49 -29.5 79.5t-78.5 30.5
q-69 0 -119.5 -53.5t-50.5 -124.5z" />
    <glyph glyph-name="OE" unicode="&#x152;" horiz-adv-x="1069" 
d="M1121 700l-26 -127h-323l-34 -160h312l-27 -126h-312l-34 -160h323l-27 -127h-466l25 120q-82 -130 -221 -130q-106 0 -184 81.5t-78 214.5q0 89 33 169t86 135t120 87.5t134 32.5q76 0 128.5 -37.5t77.5 -102.5l28 130h465zM544 171l74 350q-58 58 -154 58
q-109 0 -188.5 -82.5t-79.5 -198.5q0 -82 48.5 -129.5t129.5 -47.5q92 0 170 50z" />
    <glyph glyph-name="oe" unicode="&#x153;" horiz-adv-x="1022" 
d="M762 526q127 0 190.5 -93t23.5 -223h-399q4 -49 35 -76.5t80 -27.5q90 0 146 72l107 -50q-42 -61 -111.5 -99.5t-148.5 -38.5q-133 0 -196 91q-89 -91 -217 -91q-107 0 -174 61t-67 162q0 127 94 220t225 93t194 -91q89 91 218 91zM750 410q-46 0 -87.5 -26t-64.5 -71
h260q-3 40 -33 68.5t-75 28.5zM279 113q69 0 119.5 54t50.5 125q0 49 -29.5 79.5t-78.5 30.5q-69 0 -119.5 -53.5t-50.5 -124.5q0 -49 29.5 -80t78.5 -31z" />
    <glyph glyph-name="Racute" unicode="&#x154;" horiz-adv-x="645" 
d="M441 900h173l-192 -154h-149zM650 512q0 -94 -57.5 -163t-152.5 -91l127 -258h-158l-121 249h-93l-52 -249h-143l149 700h281q97 0 158.5 -54t61.5 -134zM223 380h155q52 0 88.5 35t36.5 84q0 33 -22.5 53.5t-60.5 20.5h-155z" />
    <glyph glyph-name="racute" unicode="&#x155;" horiz-adv-x="402" 
d="M313 739h158l-154 -160h-135zM245 516l-28 -128q44 92 102 120.5t119 9.5l-28 -128q-75 27 -137.5 -3t-76.5 -98l-61 -289h-135l110 516h135z" />
    <glyph glyph-name="uni0156" unicode="&#x156;" horiz-adv-x="645" 
d="M650 512q0 -94 -57.5 -163t-152.5 -91l127 -258h-158l-121 249h-93l-52 -249h-143l149 700h281q97 0 158.5 -54t61.5 -134zM223 380h155q52 0 88.5 35t36.5 84q0 33 -22.5 53.5t-60.5 20.5h-155zM247 -210h-110l58 169h137z" />
    <glyph glyph-name="uni0157" unicode="&#x157;" horiz-adv-x="402" 
d="M245 516l-28 -128q44 92 102 120.5t119 9.5l-28 -128q-75 27 -137.5 -3t-76.5 -98l-61 -289h-135l110 516h135zM48 -210h-110l57 169h138z" />
    <glyph glyph-name="Rcaron" unicode="&#x158;" horiz-adv-x="645" 
d="M630 900l-180 -154h-141l-114 154h144l53 -69l83 69h155zM650 512q0 -94 -57.5 -163t-152.5 -91l127 -258h-158l-121 249h-93l-52 -249h-143l149 700h281q97 0 158.5 -54t61.5 -134zM223 380h155q52 0 88.5 35t36.5 84q0 33 -22.5 53.5t-60.5 20.5h-155z" />
    <glyph glyph-name="rcaron" unicode="&#x159;" horiz-adv-x="402" 
d="M489 739l-147 -160h-151l-79 160h121l46 -78l79 78h131zM245 516l-28 -128q44 92 102 120.5t119 9.5l-28 -128q-75 27 -137.5 -3t-76.5 -98l-61 -289h-135l110 516h135z" />
    <glyph glyph-name="Sacute" unicode="&#x15a;" horiz-adv-x="629" 
d="M429 746h-149l168 154h173zM36 185l142 29q16 -101 124 -101q54 0 89.5 25t35.5 63q0 28 -24 48t-59.5 31t-77 28t-77 35.5t-59.5 55.5t-24 87q0 96 80 160t198 64q107 0 166.5 -52t76.5 -143l-142 -29q-18 101 -114 101q-49 0 -80 -23t-31 -58q0 -31 33 -51.5
t79.5 -35.5t93.5 -35t80 -61.5t33 -102.5q0 -102 -84 -166t-206 -64q-110 0 -173.5 51.5t-79.5 143.5z" />
    <glyph glyph-name="sacute" unicode="&#x15b;" horiz-adv-x="502" 
d="M342 579h-135l131 160h158zM3 139l132 28q9 -70 87 -70q47 0 74.5 16.5t27.5 43.5q0 23 -27.5 35t-67 19t-78.5 18.5t-66.5 43t-27.5 82.5q0 70 63.5 120.5t158.5 50.5q88 0 145.5 -41t68.5 -108l-132 -28q-9 70 -86 70q-36 0 -59 -15t-23 -41q0 -23 27.5 -35t66.5 -19.5
t78.5 -19t67 -43.5t27.5 -83q0 -77 -71.5 -125t-166.5 -48q-91 0 -149.5 41t-69.5 108z" />
    <glyph glyph-name="Scircumflex" unicode="&#x15c;" horiz-adv-x="629" 
d="M470 746l-53 69l-83 -69h-154l179 154h141l114 -154h-144zM260 506q0 -31 33 -51.5t79.5 -35.5t93.5 -35t80 -61.5t33 -102.5q0 -102 -84 -166t-206 -64q-110 0 -173.5 51.5t-79.5 143.5l142 29q16 -101 124 -101q54 0 89.5 25t35.5 63q0 28 -24 48t-59.5 31t-77 28
t-77 35.5t-59.5 55.5t-24 87q0 96 80 160t198 64q107 0 166.5 -52t76.5 -143l-142 -29q-18 101 -114 101q-49 0 -80 -23t-31 -58z" />
    <glyph glyph-name="scircumflex" unicode="&#x15d;" horiz-adv-x="502" 
d="M364 579l-46 78l-78 -78h-132l147 160h151l79 -160h-121zM193 363q0 -23 27.5 -35t66.5 -19.5t78.5 -19t67 -43.5t27.5 -83q0 -77 -71.5 -125t-166.5 -48q-91 0 -149.5 41t-69.5 108l132 28q9 -70 87 -70q47 0 74.5 16.5t27.5 43.5q0 23 -27.5 35t-67 19t-78.5 18.5
t-66.5 43t-27.5 82.5q0 70 63.5 120.5t158.5 50.5q88 0 145.5 -41t68.5 -108l-132 -28q-9 70 -86 70q-36 0 -59 -15t-23 -41z" />
    <glyph glyph-name="Scedilla" unicode="&#x15e;" horiz-adv-x="629" 
d="M260 506q0 -31 33 -51.5t79.5 -35.5t93.5 -35t80 -61.5t33 -102.5q0 -100 -80.5 -163.5t-199.5 -66.5q32 -13 50 -38t18 -54q0 -42 -46.5 -75t-116.5 -33q-43 0 -79 14l37 103q12 -4 26 -4q27 0 43.5 13.5t16.5 36.5q0 19 -17 41q-83 13 -132 62.5t-63 128.5l142 29
q16 -101 124 -101q54 0 89.5 25t35.5 63q0 28 -24 48t-59.5 31t-77 28t-77 35.5t-59.5 55.5t-24 87q0 96 80 160t198 64q107 0 166.5 -52t76.5 -143l-142 -29q-18 101 -114 101q-49 0 -80 -23t-31 -58z" />
    <glyph glyph-name="scedilla" unicode="&#x15f;" horiz-adv-x="502" 
d="M193 363q0 -23 27.5 -35t66.5 -19.5t78.5 -19t67 -43.5t27.5 -83q0 -75 -68.5 -123t-160.5 -50q32 -13 50 -38t18 -54q0 -42 -46.5 -75t-116.5 -33q-43 0 -79 14l37 103q12 -4 26 -4q27 0 43.5 13.5t16.5 36.5q0 21 -18 42q-66 13 -108 51t-51 93l132 28q9 -70 87 -70
q47 0 74.5 16.5t27.5 43.5q0 23 -27.5 35t-67 19t-78.5 18.5t-66.5 43t-27.5 82.5q0 70 63.5 120.5t158.5 50.5q88 0 145.5 -41t68.5 -108l-132 -28q-9 70 -86 70q-36 0 -59 -15t-23 -41z" />
    <glyph glyph-name="Scaron" unicode="&#x160;" horiz-adv-x="629" 
d="M637 900l-180 -154h-141l-114 154h144l53 -69l83 69h155zM371 587q-49 0 -80 -23t-31 -58q0 -31 33 -51.5t79.5 -35.5t93.5 -35t80 -61.5t33 -102.5q0 -102 -84 -166t-206 -64q-110 0 -173.5 51.5t-79.5 143.5l142 29q16 -101 124 -101q54 0 89.5 25t35.5 63q0 28 -24 48
t-59.5 31t-77 28t-77 35.5t-59.5 55.5t-24 87q0 96 80 160t198 64q107 0 166.5 -52t76.5 -143l-142 -29q-18 101 -114 101z" />
    <glyph glyph-name="scaron" unicode="&#x161;" horiz-adv-x="502" 
d="M514 739l-147 -160h-151l-79 160h121l46 -78l79 78h131zM275 419q-36 0 -59 -15t-23 -41q0 -23 27.5 -35t66.5 -19.5t78.5 -19t67 -43.5t27.5 -83q0 -77 -71.5 -125t-166.5 -48q-91 0 -149.5 41t-69.5 108l132 28q9 -70 87 -70q47 0 74.5 16.5t27.5 43.5q0 23 -27.5 35
t-67 19t-78.5 18.5t-66.5 43t-27.5 82.5q0 70 63.5 120.5t158.5 50.5q88 0 145.5 -41t68.5 -108l-132 -28q-9 70 -86 70z" />
    <glyph glyph-name="uni0162" unicode="&#x162;" horiz-adv-x="592" 
d="M77 573l27 127h572l-27 -127h-214l-122 -573h-83q50 -7 77.5 -35.5t27.5 -66.5q0 -42 -46 -75t-117 -33q-42 0 -79 14l38 103q11 -4 25 -4q27 0 43.5 13.5t16.5 36.5t-22 47h-24l122 573h-215z" />
    <glyph glyph-name="uni0163" unicode="&#x163;" horiz-adv-x="472" 
d="M417 397h-134l-43 -205q-15 -73 57 -73h61l-26 -119h-51q-37 0 -64 7q55 -44 55 -100q0 -49 -45.5 -83t-117.5 -34q-42 0 -79 14l38 103q11 -4 25 -4q28 0 45 15t17 43q0 40 -30 105q-35 55 -17 143l40 188h-104l26 119h104l32 152l144 42l-41 -194h133z" />
    <glyph glyph-name="Tcaron" unicode="&#x164;" horiz-adv-x="592" 
d="M643 900l-180 -154h-141l-114 154h144l53 -69l83 69h155zM77 573l27 127h572l-27 -127h-214l-122 -573h-143l122 573h-215z" />
    <glyph glyph-name="tcaron" unicode="&#x165;" horiz-adv-x="436" 
d="M470 575h-105l64 193h128zM148 397h-104l26 119h104l32 152l144 42l-41 -194h133l-25 -119h-134l-43 -205q-15 -73 57 -73h61l-26 -119h-51q-103 0 -148 55t-25 154z" />
    <glyph glyph-name="Tbar" unicode="&#x166;" horiz-adv-x="592" 
d="M676 700l-27 -127h-214l-37 -172h92l-22 -102h-91l-64 -299h-143l64 299h-92l22 102h91l37 172h-215l27 127h572z" />
    <glyph glyph-name="tbar" unicode="&#x167;" horiz-adv-x="421" 
d="M442 516l-25 -119h-134l-15 -71h110l-22 -103h-109l-7 -31q-15 -73 57 -73h61l-26 -119h-51q-103 0 -148 55t-25 154l3 14h-71l22 103h71l15 71h-104l26 119h104l32 152l144 42l-41 -194h133z" />
    <glyph glyph-name="Utilde" unicode="&#x168;" horiz-adv-x="694" 
d="M337 757l-85 41q21 51 60 78.5t88 27.5q42 0 84.5 -26t61.5 -26q36 0 53 41l85 -41q-20 -51 -59 -78.5t-88 -27.5q-42 0 -85 26t-62 26q-36 0 -53 -41zM52 294l87 406h143l-91 -424q-14 -68 21 -111.5t106 -43.5q72 0 125 43t68 111l90 425h143l-94 -443
q-26 -123 -122.5 -195t-228.5 -72q-134 0 -204.5 86.5t-42.5 217.5z" />
    <glyph glyph-name="utilde" unicode="&#x169;" horiz-adv-x="583" 
d="M255 591l-85 41q21 51 59.5 78.5t87.5 27.5q38 0 76 -26t53 -26q36 0 53 41l85 -41q-20 -51 -59 -78.5t-89 -27.5q-37 0 -75 26t-53 26q-36 0 -53 -41zM45 237l59 279h135l-63 -297q-10 -48 13.5 -77t71.5 -29q47 0 83 29t46 76l63 298h135l-67 -316q-21 -100 -96 -155
t-181 -55q-108 0 -164.5 69.5t-34.5 177.5z" />
    <glyph glyph-name="Umacron" unicode="&#x16a;" horiz-adv-x="694" 
d="M620 774h-326l23 102h325zM52 294l87 406h143l-91 -424q-14 -68 21 -111.5t106 -43.5q72 0 125 43t68 111l90 425h143l-94 -443q-26 -123 -122.5 -195t-228.5 -72q-134 0 -204.5 86.5t-42.5 217.5z" />
    <glyph glyph-name="umacron" unicode="&#x16b;" horiz-adv-x="583" 
d="M523 608h-316l22 102h316zM45 237l59 279h135l-63 -297q-10 -48 13.5 -77t71.5 -29q47 0 83 29t46 76l63 298h135l-67 -316q-21 -100 -96 -155t-181 -55q-108 0 -164.5 69.5t-34.5 177.5z" />
    <glyph glyph-name="Ubreve" unicode="&#x16c;" horiz-adv-x="694" 
d="M297 900h115q-2 -28 14.5 -44t47.5 -16q71 0 87 60h114q-15 -75 -74.5 -117.5t-138.5 -42.5q-76 0 -121.5 42.5t-43.5 117.5zM52 294l87 406h143l-91 -424q-14 -68 21 -111.5t106 -43.5q72 0 125 43t68 111l90 425h143l-94 -443q-26 -123 -122.5 -195t-228.5 -72
q-134 0 -204.5 86.5t-42.5 217.5z" />
    <glyph glyph-name="ubreve" unicode="&#x16d;" horiz-adv-x="583" 
d="M232 738h103q-7 -29 6.5 -47.5t41.5 -18.5q29 0 48.5 18t26.5 48h103q-10 -76 -62 -121t-120 -45q-79 0 -118 44t-29 122zM45 237l59 279h135l-63 -297q-10 -48 13.5 -77t71.5 -29q47 0 83 29t46 76l63 298h135l-67 -316q-21 -100 -96 -155t-181 -55q-108 0 -164.5 69.5
t-34.5 177.5z" />
    <glyph glyph-name="Uring" unicode="&#x16e;" horiz-adv-x="694" 
d="M336 820q0 54 44 93.5t105 39.5q52 0 85 -29.5t33 -75.5q0 -54 -44.5 -93.5t-105.5 -39.5q-51 0 -84 29.5t-33 75.5zM424 825q0 -16 10 -25.5t26 -9.5q22 0 38.5 16t16.5 37q0 15 -10.5 25t-26.5 10q-21 0 -37.5 -16t-16.5 -37zM52 294l87 406h143l-91 -424
q-14 -68 21 -111.5t106 -43.5q72 0 125 43t68 111l90 425h143l-94 -443q-26 -123 -122.5 -195t-228.5 -72q-134 0 -204.5 86.5t-42.5 217.5z" />
    <glyph glyph-name="uring" unicode="&#x16f;" horiz-adv-x="583" 
d="M246 645q0 52 43.5 90.5t102.5 38.5q50 0 81.5 -28.5t31.5 -72.5q0 -52 -43 -90.5t-102 -38.5q-50 0 -82 28.5t-32 72.5zM330 650q0 -16 10 -25.5t27 -9.5q21 0 37.5 16t16.5 37q0 15 -10 25t-26 10q-22 0 -38.5 -16t-16.5 -37zM45 237l59 279h135l-63 -297
q-10 -48 13.5 -77t71.5 -29q47 0 83 29t46 76l63 298h135l-67 -316q-21 -100 -96 -155t-181 -55q-108 0 -164.5 69.5t-34.5 177.5z" />
    <glyph glyph-name="Uhungarumlaut" unicode="&#x170;" horiz-adv-x="694" 
d="M374 746h-134l164 154h158zM588 746h-134l164 154h158zM52 294l87 406h143l-91 -424q-14 -68 21 -111.5t106 -43.5q72 0 125 43t68 111l90 425h143l-94 -443q-26 -123 -122.5 -195t-228.5 -72q-134 0 -204.5 86.5t-42.5 217.5z" />
    <glyph glyph-name="uhungarumlaut" unicode="&#x171;" horiz-adv-x="583" 
d="M306 579h-122l131 160h142zM497 579h-122l130 160h143zM45 237l59 279h135l-63 -297q-10 -48 13.5 -77t71.5 -29q47 0 83 29t46 76l63 298h135l-67 -316q-21 -100 -96 -155t-181 -55q-108 0 -164.5 69.5t-34.5 177.5z" />
    <glyph glyph-name="Uogonek" unicode="&#x172;" horiz-adv-x="694" 
d="M511 275l90 425h143l-94 -443q-21 -100 -90.5 -167.5t-168.5 -89.5q-42 -32 -42 -68q0 -29 35 -29q14 0 35 6l-11 -105q-40 -14 -84 -14q-54 0 -84.5 22.5t-30.5 60.5q0 33 26 65.5t75 51.5h-11q-134 0 -204.5 86.5t-42.5 217.5l87 406h143l-91 -424q-14 -68 21 -111.5
t106 -43.5q72 0 125 43t68 111z" />
    <glyph glyph-name="uogonek" unicode="&#x173;" horiz-adv-x="583" 
d="M390 218l63 298h135l-67 -316q-18 -85 -76 -138t-143 -67q-35 -32 -35 -63q0 -29 35 -29q14 0 35 6l-11 -105q-40 -14 -84 -14q-54 0 -84.5 22.5t-30.5 60.5q0 33 26 65.5t75 51.5q-101 6 -153 74.5t-30 172.5l59 279h135l-63 -297q-10 -48 13.5 -77t71.5 -29q47 0 83 29
t46 76z" />
    <glyph glyph-name="Wcircumflex" unicode="&#x174;" horiz-adv-x="1064" 
d="M711 746l-53 69l-83 -69h-154l179 154h141l114 -154h-144zM722 35l250 665h144l-263 -700h-259l22 658l-243 -658h-254l18 700h127l-17 -665l245 665h252z" />
    <glyph glyph-name="wcircumflex" unicode="&#x175;" horiz-adv-x="847" 
d="M562 579l-46 78l-78 -78h-132l147 160h151l79 -160h-121zM573 37l193 479h132l-217 -516h-224l14 482l-183 -482h-224l-5 516h123l-3 -480l174 480h243z" />
    <glyph glyph-name="Ycircumflex" unicode="&#x176;" horiz-adv-x="663" 
d="M511 746l-53 69l-83 -69h-154l179 154h141l114 -154h-144zM763 700l-363 -458l-25 -115h115l-27 -127h-372l27 127h114l25 115l-168 458h159l107 -316l240 316h168z" />
    <glyph glyph-name="ycircumflex" unicode="&#x177;" horiz-adv-x="548" 
d="M412 579l-46 78l-78 -78h-132l147 160h151l79 -160h-121zM224 36l239 480h146l-361 -716h-145l103 200h-101l-56 516h137z" />
    <glyph glyph-name="Ydieresis" unicode="&#x178;" horiz-adv-x="663" 
d="M336 748q-32 0 -55 23t-23 54t23 54.5t55 23.5q31 0 54 -23t23 -55q0 -31 -22.5 -54t-54.5 -23zM570 748q-32 0 -55 22.5t-23 54.5t23 55t55 23q31 0 54 -23t23 -55q0 -31 -22.5 -54t-54.5 -23zM763 700l-363 -458l-25 -115h115l-27 -127h-372l27 127h114l25 115
l-168 458h159l107 -316l240 316h168z" />
    <glyph glyph-name="Zacute" unicode="&#x179;" horiz-adv-x="610" 
d="M463 900h173l-192 -154h-149zM144 700h510l-54 -253l-518 -320h450l-27 -127h-510l55 253l517 320h-450z" />
    <glyph glyph-name="zacute" unicode="&#x17a;" horiz-adv-x="534" 
d="M378 739h158l-154 -160h-135zM105 516h434l-48 -223l-421 -174h385l-26 -119h-434l48 223l422 174h-385z" />
    <glyph glyph-name="Zdotaccent" unicode="&#x17b;" horiz-adv-x="610" 
d="M426 744q-34 0 -58 24t-24 57q0 34 24 57.5t58 23.5t57.5 -23.5t23.5 -57.5q0 -33 -23.5 -57t-57.5 -24zM144 700h510l-54 -253l-518 -320h450l-27 -127h-510l55 253l517 320h-450z" />
    <glyph glyph-name="zdotaccent" unicode="&#x17c;" horiz-adv-x="534" 
d="M352 578q-34 0 -58 24t-24 57q0 34 24 57.5t58 23.5q33 0 57 -23.5t24 -57.5q0 -33 -24 -57t-57 -24zM105 516h434l-48 -223l-421 -174h385l-26 -119h-434l48 223l422 174h-385z" />
    <glyph glyph-name="Zcaron" unicode="&#x17d;" horiz-adv-x="610" 
d="M652 900l-180 -154h-141l-114 154h144l53 -69l83 69h155zM144 700h510l-54 -253l-518 -320h450l-27 -127h-510l55 253l517 320h-450z" />
    <glyph glyph-name="zcaron" unicode="&#x17e;" horiz-adv-x="534" 
d="M555 739l-147 -160h-151l-79 160h121l46 -78l79 78h131zM465 397h-385l25 119h434l-48 -223l-421 -174h385l-26 -119h-434l48 223z" />
    <glyph glyph-name="uni018F" unicode="&#x18f;" horiz-adv-x="804" 
d="M479 710q136 0 225.5 -85.5t89.5 -210.5q0 -112 -58.5 -210t-157 -156t-211.5 -58q-77 0 -141.5 28.5t-107.5 81t-56.5 127t11.5 167.5h574v8q0 77 -49 127t-127 50q-68 0 -127 -34.5t-96 -88.5l-125 54q56 87 148.5 143.5t207.5 56.5zM375 121q73 0 136.5 40.5
t99.5 105.5h-407q0 -60 46 -103t125 -43z" />
    <glyph glyph-name="florin" unicode="&#x192;" horiz-adv-x="561" 
d="M489 587q-71 0 -88 -82l-23 -107h155l-19 -95h-156l-21 -101q-23 -105 -78.5 -158.5t-137.5 -53.5q-67 0 -137 35l58 110q42 -22 71 -22q70 0 87 82l23 108h-135l20 95h135l21 100q23 106 80 159t137 53q68 0 136 -35l-57 -110q-42 22 -71 22z" />
    <glyph glyph-name="uni019D" unicode="&#x19d;" horiz-adv-x="734" 
d="M489 30l142 670h143l-149 -700h-268l-72 670l-143 -670q-25 -118 -84 -167t-183 -42l25 119q50 -1 68.5 17t30.5 73l150 700h268z" />
    <glyph glyph-name="Ohorn" unicode="&#x1a0;" horiz-adv-x="804" 
d="M897 776q0 -73 -53 -111t-150 -26q100 -83 100 -225q0 -112 -58.5 -210t-157.5 -156t-213 -58q-139 0 -227.5 81.5t-88.5 214.5q0 113 58.5 210.5t158 155.5t213.5 58q42 0 76 -7q110 -20 166 2t56 79q0 30 -10 66h119q11 -36 11 -74zM373 121q112 0 193 84.5t81 196.5
q0 77 -49 127t-128 50q-112 0 -193 -84.5t-81 -196.5q0 -77 49 -127t128 -50z" />
    <glyph glyph-name="ohorn" unicode="&#x1a1;" horiz-adv-x="664" 
d="M745 592q0 -75 -57 -113t-159 -21q60 -62 60 -156q0 -126 -94 -219t-223 -93q-107 0 -174 61t-67 162q0 127 94 220t225 93q37 0 66 -7q103 -18 156 3.5t53 77.5q0 30 -10 66h119q11 -36 11 -74zM279 113q69 0 119.5 54t50.5 125q0 49 -29.5 79.5t-78.5 30.5
q-69 0 -119.5 -53.5t-50.5 -124.5q0 -49 29.5 -80t78.5 -31z" />
    <glyph glyph-name="Uhorn" unicode="&#x1af;" horiz-adv-x="759" 
d="M771 850h119q12 -39 12 -74q0 -71 -50 -110.5t-121 -24.5l-81 -384q-26 -123 -122.5 -195t-228.5 -72q-134 0 -204.5 86.5t-42.5 217.5l87 406h143l-91 -424q-14 -68 21 -111.5t106 -43.5q72 0 125 43t68 111l90 425h76q105 0 105 84q0 27 -11 66z" />
    <glyph glyph-name="uhorn" unicode="&#x1b0;" horiz-adv-x="663" 
d="M616 666h119q11 -36 11 -74q0 -71 -50 -110.5t-121 -25.5l-54 -256q-21 -100 -96 -155t-181 -55q-108 0 -164.5 69.5t-34.5 177.5l59 279h135l-63 -297q-10 -48 13.5 -77t71.5 -29q47 0 83 29t46 76l63 298h68q105 0 105 84q0 30 -10 66z" />
    <glyph glyph-name="uni01B7" unicode="&#x1b7;" horiz-adv-x="630" 
d="M171 700h490l-24 -110l-202 -176q65 -19 104.5 -68.5t39.5 -118.5q0 -104 -87 -170.5t-211 -66.5q-89 0 -161 32t-112 89l97 94q34 -40 85.5 -62t101.5 -22q59 0 99.5 29.5t40.5 76.5q0 79 -129 79h-65l23 109l184 158h-301z" />
    <glyph glyph-name="uni01C4" unicode="&#x1c4;" horiz-adv-x="1303" 
d="M1346 900l-179 -154h-142l-113 154h143l53 -69l84 69h154zM149 700h269q131 0 214.5 -80.5t83.5 -201.5q0 -170 -126 -294t-304 -124h-286zM838 700h510l-54 -253l-518 -320h450l-27 -127h-510l55 253l517 320h-450zM169 127h124q113 0 194 82t81 195q0 76 -48.5 122.5
t-131.5 46.5h-123z" />
    <glyph glyph-name="uni01C5" unicode="&#x1c5;" horiz-adv-x="1242" 
d="M1263 739l-147 -160h-151l-79 160h121l46 -78l78 78h132zM149 700h269q131 0 214.5 -80.5t83.5 -201.5q0 -170 -126 -294t-304 -124h-286zM169 127h124q113 0 194 82t81 195q0 76 -48.5 122.5t-131.5 46.5h-123zM1173 397h-385l25 119h434l-48 -223l-421 -174h385
l-26 -119h-434l48 223z" />
    <glyph glyph-name="uni01C7" unicode="&#x1c7;" horiz-adv-x="1077" 
d="M465 0h-465l149 700h143l-123 -573h323zM530 207l143 21q-9 -55 14.5 -81t71.5 -26q46 0 81 30.5t45 80.5l99 468h143l-101 -476q-24 -111 -104.5 -172.5t-185.5 -61.5q-101 0 -160 58t-46 159z" />
    <glyph glyph-name="uni01C8" unicode="&#x1c8;" horiz-adv-x="803" 
d="M685 659q0 34 24 57.5t58 23.5t57.5 -23.5t23.5 -57.5q0 -33 -23.5 -57t-57.5 -24t-58 24t-24 57zM465 0h-465l149 700h143l-123 -573h323zM427 -209l25 119q54 -1 74.5 17t32.5 73l110 516h135l-110 -516q-24 -116 -83.5 -166t-183.5 -43z" />
    <glyph glyph-name="uni01CA" unicode="&#x1ca;" horiz-adv-x="1279" 
d="M489 30l142 670h143l-149 -700h-268l-72 670l-142 -670h-143l149 700h268zM1086 232l99 468h143l-101 -476q-24 -111 -104.5 -172.5t-185.5 -61.5q-101 0 -160 58t-46 159l143 21q-9 -55 14.5 -81t71.5 -26q46 0 81 30.5t45 80.5z" />
    <glyph glyph-name="uni01CB" unicode="&#x1cb;" horiz-adv-x="997" 
d="M961 740q34 0 57.5 -23.5t23.5 -57.5q0 -33 -23.5 -57t-57.5 -24t-58 24t-24 57q0 34 24 57.5t58 23.5zM774 700l-149 -700h-268l-72 670l-142 -670h-143l149 700h268l72 -670l142 670h143zM753 0l110 516h135l-110 -516q-24 -116 -83.5 -166t-183.5 -43l25 119
q54 -1 74.5 17t32.5 73z" />
    <glyph glyph-name="uni01CD" unicode="&#x1cd;" horiz-adv-x="734" 
d="M714 900l-180 -154h-141l-114 154h144l53 -69l83 69h155zM580 700l95 -700h-144l-19 152h-330l-80 -152h-152l376 700h254zM449 659l-200 -380h247z" />
    <glyph glyph-name="uni01CE" unicode="&#x1ce;" horiz-adv-x="539" 
d="M549 739l-147 -160h-151l-79 160h121l46 -78l79 78h131zM317 526q101 0 154.5 -53t30.5 -160l-67 -313h-135l27 124q-66 -134 -190 -134q-58 0 -98 37.5t-40 97.5q0 75 57 121.5t159 56.5l103 10q51 5 57 40q5 28 -14.5 45t-55.5 17q-91 0 -115 -78l-128 30
q23 70 91 114.5t164 44.5zM191 97q53 0 99.5 36t55.5 82l3 15q-16 -12 -50 -16l-88 -10q-37 -4 -56.5 -21t-19.5 -41q0 -45 56 -45z" />
    <glyph glyph-name="uni01CF" unicode="&#x1cf;" horiz-adv-x="251" 
d="M235 831l83 69h155l-180 -154h-141l-114 154h144zM143 0h-143l149 700h143z" />
    <glyph glyph-name="uni01D0" unicode="&#x1d0;" horiz-adv-x="243" 
d="M200 661l79 78h131l-147 -160h-151l-79 160h121zM135 0h-135l110 516h135z" />
    <glyph glyph-name="uni01D1" unicode="&#x1d1;" horiz-adv-x="804" 
d="M750 900l-180 -154h-141l-114 154h144l53 -69l83 69h155zM479 710q139 0 227 -81.5t88 -214.5q0 -112 -58.5 -210t-157.5 -156t-213 -58q-139 0 -227.5 81.5t-88.5 214.5q0 113 58.5 210.5t158 155.5t213.5 58zM373 121q112 0 193 84.5t81 196.5q0 77 -49 127t-128 50
q-112 0 -193 -84.5t-81 -196.5q0 -77 49 -127t128 -50z" />
    <glyph glyph-name="uni01D2" unicode="&#x1d2;" horiz-adv-x="620" 
d="M585 739l-147 -160h-151l-79 160h121l46 -78l79 78h131zM350 526q106 0 172.5 -61t66.5 -163q0 -126 -94 -219t-223 -93q-107 0 -174 61t-67 162q0 127 94 220t225 93zM279 113q69 0 119.5 54t50.5 125q0 49 -29.5 79.5t-78.5 30.5q-69 0 -119.5 -53.5t-50.5 -124.5
q0 -49 29.5 -80t78.5 -31z" />
    <glyph glyph-name="Gcaron" unicode="&#x1e6;" horiz-adv-x="804" 
d="M750 900l-180 -154h-141l-114 154h144l53 -69l83 69h155zM347 267l27 127h419q-11 -175 -139 -289.5t-289 -114.5q-139 0 -227.5 81.5t-88.5 214.5q0 113 58.5 210.5t158 155.5t213.5 58q116 0 195.5 -56.5t106.5 -146.5l-141 -50q-15 54 -59.5 88t-109.5 34
q-113 0 -194 -84.5t-81 -196.5q0 -77 49 -127t128 -50t144.5 44.5t91.5 101.5h-262z" />
    <glyph glyph-name="gcaron" unicode="&#x1e7;" horiz-adv-x="635" 
d="M606 739l-147 -160h-151l-79 160h121l46 -78l79 78h131zM470 369l31 147h135l-101 -474q-24 -114 -107.5 -183t-199.5 -69q-82 0 -144.5 41t-82.5 103l122 59q31 -80 112 -80q60 0 107.5 40.5t60.5 104.5l19 88q-38 -64 -94.5 -102t-118.5 -38q-82 0 -130.5 56t-48.5 158
q0 124 82 215t193 91q62 0 108.5 -41.5t56.5 -115.5zM279 129q70 0 120 51.5t50 119.5q0 45 -31 73.5t-80 28.5q-69 0 -118.5 -51t-49.5 -119q0 -46 30 -74.5t79 -28.5z" />
    <glyph glyph-name="uni01E8" unicode="&#x1e8;" horiz-adv-x="673" 
d="M662 900l-180 -154h-141l-114 154h144l53 -69l83 69h155zM538 700h194l-319 -291l204 -409h-159l-156 309l-117 -107l-42 -202h-143l149 700h143l-61 -280z" />
    <glyph glyph-name="uni01E9" unicode="&#x1e9;" horiz-adv-x="572" 
d="M622 963l-147 -160h-151l-79 160h121l46 -78l79 78h131zM203 325l210 191h186l-250 -223l174 -293h-156l-120 202l-85 -76l-27 -126h-135l157 740h135z" />
    <glyph glyph-name="uni01EA" unicode="&#x1ea;" horiz-adv-x="804" 
d="M440 -3q-38 -31 -38 -65q0 -29 35 -29q14 0 35 6l-11 -105q-40 -14 -84 -14q-54 0 -84.5 22.5t-30.5 60.5q0 33 25.5 65t74.5 52q-137 1 -225 82.5t-88 213.5q0 113 58.5 210.5t158 155.5t213.5 58q139 0 227 -81.5t88 -214.5q0 -152 -102 -271t-252 -146zM196 298
q0 -77 49 -127t128 -50q112 0 193 84.5t81 196.5q0 77 -49 127t-128 50q-112 0 -193 -84.5t-81 -196.5z" />
    <glyph glyph-name="uni01EB" unicode="&#x1eb;" horiz-adv-x="620" 
d="M337 -3q-38 -31 -38 -65q0 -29 35 -29q14 0 35 6l-11 -105q-40 -14 -84 -14q-54 0 -84.5 22.5t-30.5 60.5q0 33 26 65.5t75 51.5q-102 4 -165.5 64.5t-63.5 158.5q0 127 94 220t225 93q106 0 172.5 -61t66.5 -163q0 -109 -72 -195.5t-180 -109.5zM171 224q0 -49 29.5 -80
t78.5 -31q69 0 119.5 54t50.5 125q0 49 -29.5 79.5t-78.5 30.5q-69 0 -119.5 -53.5t-50.5 -124.5z" />
    <glyph glyph-name="uni01EE" unicode="&#x1ee;" horiz-adv-x="630" 
d="M668 900l-180 -154h-141l-114 154h144l53 -69l83 69h155zM445 573h-301l27 127h490l-24 -110l-202 -176q65 -19 104.5 -68.5t39.5 -118.5q0 -104 -87 -170.5t-211 -66.5q-89 0 -161 32t-112 89l97 94q34 -40 85.5 -62t101.5 -22q59 0 99.5 29.5t40.5 76.5q0 79 -129 79
h-65l23 109z" />
    <glyph glyph-name="uni01EF" unicode="&#x1ef;" horiz-adv-x="510" 
d="M529 739l-147 -160h-151l-79 160h121l46 -78l79 78h131zM333 397h-258l24 119h422l-23 -111l-198 -186q59 -23 94 -71t35 -115q0 -104 -78 -173.5t-188 -69.5q-99 0 -154.5 50.5t-57.5 128.5l125 29q-1 -37 25.5 -61t66.5 -24q50 0 85.5 33t35.5 83q0 44 -30.5 67
t-87.5 23h-38l24 111z" />
    <glyph glyph-name="uni01F1" unicode="&#x1f1;" horiz-adv-x="1303" 
d="M149 700h269q131 0 214.5 -80.5t83.5 -201.5q0 -170 -126 -294t-304 -124h-286zM838 700h510l-54 -253l-518 -320h450l-27 -127h-510l55 253l517 320h-450zM169 127h124q113 0 194 82t81 195q0 76 -48.5 122.5t-131.5 46.5h-123z" />
    <glyph glyph-name="uni01F2" unicode="&#x1f2;" horiz-adv-x="1242" 
d="M149 700h269q131 0 214.5 -80.5t83.5 -201.5q0 -170 -126 -294t-304 -124h-286zM169 127h124q113 0 194 82t81 195q0 76 -48.5 122.5t-131.5 46.5h-123zM813 516h434l-48 -223l-421 -174h385l-26 -119h-434l48 223l422 174h-385z" />
    <glyph glyph-name="uni01F4" unicode="&#x1f4;" horiz-adv-x="804" 
d="M561 900h173l-192 -154h-149zM347 267l27 127h419q-11 -175 -139 -289.5t-289 -114.5q-139 0 -227.5 81.5t-88.5 214.5q0 113 58.5 210.5t158 155.5t213.5 58q116 0 195.5 -56.5t106.5 -146.5l-141 -50q-15 54 -59.5 88t-109.5 34q-113 0 -194 -84.5t-81 -196.5
q0 -77 49 -127t128 -50t144.5 44.5t91.5 101.5h-262z" />
    <glyph glyph-name="uni01F5" unicode="&#x1f5;" horiz-adv-x="635" 
d="M429 739h158l-154 -160h-135zM470 369l31 147h135l-101 -474q-24 -114 -107.5 -183t-199.5 -69q-82 0 -144.5 41t-82.5 103l122 59q31 -80 112 -80q60 0 107.5 40.5t60.5 104.5l19 88q-38 -64 -94.5 -102t-118.5 -38q-82 0 -130.5 56t-48.5 158q0 124 82 215t193 91
q62 0 108.5 -41.5t56.5 -115.5zM279 129q70 0 120 51.5t50 119.5q0 45 -31 73.5t-80 28.5q-69 0 -118.5 -51t-49.5 -119q0 -46 30 -74.5t79 -28.5z" />
    <glyph glyph-name="AEacute" unicode="&#x1fc;" horiz-adv-x="992" 
d="M707 900h173l-192 -154h-149zM1044 700l-27 -127h-322l-35 -160h313l-27 -126h-313l-33 -160h322l-27 -127h-465l32 152h-243l-119 -152h-170l557 700h557zM552 576l-233 -297h170z" />
    <glyph glyph-name="aeacute" unicode="&#x1fd;" horiz-adv-x="947" 
d="M606 739h158l-154 -160h-135zM700 526q121 0 181 -93t20 -223h-400q4 -49 35 -76.5t80 -27.5q91 0 147 72l106 -50q-35 -61 -94.5 -99.5t-132.5 -38.5q-69 0 -116 42.5t-59 119.5l-32 -152h-135l27 124q-66 -134 -190 -134q-58 0 -98 37.5t-40 97.5q0 75 57 121.5
t159 56.5l103 10q29 4 41.5 13t15.5 27q5 28 -14.5 45t-55.5 17q-91 0 -115 -78l-128 30q23 70 91 114.5t164 44.5q135 0 177 -86q86 86 206 86zM674 410q-46 0 -87.5 -26t-64.5 -71h260q-3 40 -33 68.5t-75 28.5zM191 97q53 0 99.5 36t55.5 82l3 15q-16 -12 -50 -16
l-88 -10q-75 -8 -75 -62q0 -45 55 -45z" />
    <glyph glyph-name="Oslashacute" unicode="&#x1fe;" horiz-adv-x="804" 
d="M560 900h173l-192 -154h-149zM713 755l89 -85l-67 -73q59 -77 59 -183q0 -112 -58.5 -210t-157.5 -156t-213 -58q-91 0 -160 36l-75 -81l-89 85l68 73q-60 76 -60 183q0 113 58.5 210.5t158 155.5t213.5 58q90 0 160 -35zM196 298q0 -46 18 -82l325 351q-31 12 -69 12
q-112 0 -193 -84.5t-81 -196.5zM647 402q0 45 -17 82l-326 -351q32 -12 69 -12q112 0 193 84.5t81 196.5z" />
    <glyph glyph-name="oslashacute" unicode="&#x1ff;" horiz-adv-x="620" 
d="M408 739h158l-154 -160h-135zM536 585l91 -69l-77 -83q39 -55 39 -131q0 -126 -94 -219t-223 -93q-61 0 -113 22l-75 -81l-91 69l77 83q-39 55 -39 130q0 127 94 220t225 93q59 0 111 -22zM163 224q0 -18 5 -36l203 219q-15 3 -30 3q-72 0 -125 -56t-53 -130zM457 292
q0 18 -5 36l-203 -219q15 -3 30 -3q72 0 125 56t53 130z" />
    <glyph glyph-name="uni0218" unicode="&#x218;" horiz-adv-x="629" 
d="M36 185l142 29q16 -101 124 -101q54 0 89.5 25t35.5 63q0 28 -24 48t-59.5 31t-77 28t-77 35.5t-59.5 55.5t-24 87q0 96 80 160t198 64q107 0 166.5 -52t76.5 -143l-142 -29q-18 101 -114 101q-49 0 -80 -23t-31 -58q0 -31 33 -51.5t79.5 -35.5t93.5 -35t80 -61.5
t33 -102.5q0 -102 -84 -166t-206 -64q-110 0 -173.5 51.5t-79.5 143.5zM254 -210h-110l58 169h137z" />
    <glyph glyph-name="uni0219" unicode="&#x219;" horiz-adv-x="502" 
d="M3 139l132 28q9 -70 87 -70q47 0 74.5 16.5t27.5 43.5q0 23 -27.5 35t-67 19t-78.5 18.5t-66.5 43t-27.5 82.5q0 70 63.5 120.5t158.5 50.5q88 0 145.5 -41t68.5 -108l-132 -28q-9 70 -86 70q-36 0 -59 -15t-23 -41q0 -23 27.5 -35t66.5 -19.5t78.5 -19t67 -43.5
t27.5 -83q0 -77 -71.5 -125t-166.5 -48q-91 0 -149.5 41t-69.5 108zM187 -210h-110l58 169h137z" />
    <glyph glyph-name="uni021A" unicode="&#x21a;" horiz-adv-x="592" 
d="M313 0h-143l122 573h-215l27 127h572l-27 -127h-214zM226 -210h-110l58 169h137z" />
    <glyph glyph-name="uni021B" unicode="&#x21b;" horiz-adv-x="421" 
d="M148 397h-104l26 119h104l32 152l144 42l-41 -194h133l-25 -119h-134l-43 -205q-15 -73 57 -73h61l-26 -119h-51q-103 0 -148 55t-25 154zM198 -210h-110l58 169h137z" />
    <glyph glyph-name="uni0232" unicode="&#x232;" horiz-adv-x="663" 
d="M302 876h325l-22 -102h-326zM763 700l-363 -458l-25 -115h115l-27 -127h-372l27 127h114l25 115l-168 458h159l107 -316l240 316h168z" />
    <glyph glyph-name="uni0233" unicode="&#x233;" horiz-adv-x="548" 
d="M212 710h316l-22 -102h-316zM224 36l239 480h146l-361 -716h-145l103 200h-101l-56 516h137z" />
    <glyph glyph-name="uni0237" unicode="&#x237;" horiz-adv-x="263" 
d="M-113 -209l25 119q54 -1 74.5 17t32.5 73l110 516h135l-110 -516q-24 -116 -83.5 -166t-183.5 -43z" />
    <glyph glyph-name="uni0259" unicode="&#x259;" horiz-adv-x="610" 
d="M338 526q107 0 174 -61t67 -163q0 -126 -94 -219t-224 -93q-127 0 -191 93t-23 223h399q-4 49 -35 76.5t-80 27.5q-90 0 -146 -73l-107 51q42 61 111.5 99.5t148.5 38.5zM273 106q46 0 87.5 26t64.5 71h-260q3 -40 33 -68.5t75 -28.5z" />
    <glyph glyph-name="uni0272" unicode="&#x272;" horiz-adv-x="608" 
d="M416 526q90 0 130.5 -67t20.5 -163l-63 -296h-135l61 288q11 52 -13 83.5t-75 31.5q-54 0 -94.5 -32t-51.5 -82l-62 -289q-25 -118 -84 -167t-183 -42l25 119q55 -1 75.5 17t31.5 73l111 516h135l-27 -124q33 65 85.5 99.5t112.5 34.5z" />
    <glyph glyph-name="uni0292" unicode="&#x292;" horiz-adv-x="510" 
d="M99 516h422l-23 -111l-198 -186q59 -23 94 -71t35 -115q0 -104 -78 -173.5t-188 -69.5q-99 0 -154.5 50.5t-57.5 128.5l125 29q-1 -37 25.5 -61t66.5 -24q50 0 85.5 33t35.5 83q0 44 -30.5 67t-87.5 23h-38l24 111l176 167h-258z" />
    <glyph glyph-name="uni02BC" unicode="&#x2bc;" horiz-adv-x="259" 
d="M220 750q47 0 76.5 -34.5t29.5 -86.5q0 -77 -55.5 -138.5t-142.5 -84.5l-38 78q105 34 124 95q-35 -5 -61.5 18.5t-26.5 63.5q0 37 27 63t67 26z" />
    <glyph glyph-name="circumflex" unicode="&#x2c6;" horiz-adv-x="477" 
d="M416 739l79 -160h-121l-46 78l-78 -78h-132l147 160h151z" />
    <glyph glyph-name="caron" unicode="&#x2c7;" horiz-adv-x="477" 
d="M319 661l79 78h131l-147 -160h-151l-79 160h121z" />
    <glyph glyph-name="breve" unicode="&#x2d8;" horiz-adv-x="429" 
d="M152 738h103q-7 -29 6.5 -47.5t41.5 -18.5q29 0 48.5 18t26.5 48h103q-10 -76 -62 -121t-120 -45q-79 0 -118 44t-29 122z" />
    <glyph glyph-name="dotaccent" unicode="&#x2d9;" horiz-adv-x="263" 
d="M135 659q0 34 24 57.5t58 23.5q33 0 57 -23.5t24 -57.5q0 -33 -24 -57t-57 -24q-34 0 -58 24t-24 57z" />
    <glyph glyph-name="ring" unicode="&#x2da;" horiz-adv-x="357" 
d="M134 645q0 52 43.5 90.5t102.5 38.5q50 0 81.5 -28.5t31.5 -72.5q0 -52 -43 -90.5t-102 -38.5q-50 0 -82 28.5t-32 72.5zM218 650q0 -16 10 -25.5t27 -9.5q21 0 37.5 16t16.5 37q0 15 -10 25t-26 10q-22 0 -38.5 -16t-16.5 -37z" />
    <glyph glyph-name="ogonek" unicode="&#x2db;" horiz-adv-x="315" 
d="M108 2l44 -2q-42 -32 -42 -68q0 -29 35 -29q14 0 35 6l-11 -105q-40 -14 -84 -14q-54 0 -84.5 22.5t-30.5 60.5q0 39 36 76t102 53z" />
    <glyph glyph-name="tilde" unicode="&#x2dc;" horiz-adv-x="503" 
d="M215 591l-85 41q21 51 59.5 78.5t87.5 27.5q38 0 76 -26t53 -26q36 0 53 41l85 -41q-20 -51 -59 -78.5t-89 -27.5q-37 0 -75 26t-53 26q-36 0 -53 -41z" />
    <glyph glyph-name="hungarumlaut" unicode="&#x2dd;" horiz-adv-x="530" 
d="M240 579h-122l131 160h142zM431 579h-122l130 160h143z" />
    <glyph glyph-name="gravecomb" unicode="&#x300;" 
d="M18 579h-133l-88 160h141z" />
    <glyph glyph-name="acutecomb" unicode="&#x301;" 
d="M-102 579h-135l131 160h158z" />
    <glyph glyph-name="uni0302" unicode="&#x302;" 
d="M-61 739l79 -160h-121l-46 78l-78 -78h-132l147 160h151z" />
    <glyph glyph-name="tildecomb" unicode="&#x303;" 
d="M-288 591l-85 41q21 51 59.5 78.5t87.5 27.5q38 0 76 -26t53 -26q36 0 53 41l85 -41q-20 -51 -59 -78.5t-89 -27.5q-37 0 -75 26t-53 26q-36 0 -53 -41z" />
    <glyph glyph-name="uni0304" unicode="&#x304;" 
d="M24 608h-316l22 102h316z" />
    <glyph glyph-name="uni0306" unicode="&#x306;" 
d="M-277 738h103q-7 -29 6.5 -47.5t41.5 -18.5q29 0 48.5 18t26.5 48h103q-10 -76 -62 -121t-120 -45q-79 0 -118 44t-29 122z" />
    <glyph glyph-name="uni0307" unicode="&#x307;" 
d="M-128 659q0 34 24 57.5t58 23.5q33 0 57 -23.5t24 -57.5q0 -33 -24 -57t-57 -24q-34 0 -58 24t-24 57z" />
    <glyph glyph-name="uni0308" unicode="&#x308;" 
d="M-352 659q0 32 23 54.5t55 22.5t54.5 -23t22.5 -54q0 -32 -23 -55t-54 -23q-32 0 -55 23t-23 55zM-120 659q0 31 23 54t54 23q32 0 55 -22.5t23 -54.5t-23 -55t-55 -23q-31 0 -54 23t-23 55z" />
    <glyph glyph-name="hookabovecomb" unicode="&#x309;" 
d="M-125 542l-16 71q79 25 79 66q0 32 -31 32q-19 0 -31.5 -13t-14.5 -34h-99q6 57 49.5 91.5t104.5 34.5q58 0 91 -29t33 -72q0 -56 -44.5 -96t-120.5 -51z" />
    <glyph glyph-name="uni030A" unicode="&#x30a;" 
d="M-223 645q0 52 43.5 90.5t102.5 38.5q50 0 81.5 -28.5t31.5 -72.5q0 -52 -43 -90.5t-102 -38.5q-50 0 -82 28.5t-32 72.5zM-139 650q0 -16 10 -25.5t27 -9.5q21 0 37.5 16t16.5 37q0 15 -10 25t-26 10q-22 0 -38.5 -16t-16.5 -37z" />
    <glyph glyph-name="uni030B" unicode="&#x30b;" 
d="M-290 579h-122l131 160h142zM-99 579h-122l130 160h143z" />
    <glyph glyph-name="uni030C" unicode="&#x30c;" 
d="M-158 661l79 78h131l-147 -160h-151l-79 160h121z" />
    <glyph glyph-name="uni0312" unicode="&#x312;" 
d="M-4 571h-138l85 169h110z" />
    <glyph glyph-name="uni031B" unicode="&#x31b;" 
d="M-215 480l7 36q105 0 105 84q0 30 -10 66h119q11 -36 11 -74q0 -57 -33.5 -95t-85.5 -43t-113 26z" />
    <glyph glyph-name="dotbelowcomb" unicode="&#x323;" 
d="M-298 -143q0 34 24 57.5t57 23.5q34 0 58 -23.5t24 -57.5q0 -33 -24 -57.5t-58 -24.5q-33 0 -57 24.5t-24 57.5z" />
    <glyph glyph-name="uni0326" unicode="&#x326;" 
d="M-199 -210h-110l58 169h137z" />
    <glyph glyph-name="uni0327" unicode="&#x327;" 
d="M-367 -196l37 103q12 -4 26 -4q27 0 43.5 13.5t16.5 36.5q0 22 -22 47h36q49 -7 77 -36t28 -66q0 -42 -46.5 -75t-117.5 -33q-42 0 -78 14z" />
    <glyph glyph-name="uni0328" unicode="&#x328;" 
d="M-207 2l44 -2q-42 -32 -42 -68q0 -29 35 -29q14 0 35 6l-11 -105q-40 -14 -84 -14q-54 0 -84.5 22.5t-30.5 60.5q0 39 36 76t102 53z" />
    <glyph glyph-name="uni0335" unicode="&#x335;" 
d="M-42 299h-358l23 102h357z" />
    <glyph glyph-name="uni0374" unicode="&#x374;" horiz-adv-x="259" 
d="M220 750q47 0 76.5 -34.5t29.5 -86.5q0 -77 -55.5 -138.5t-142.5 -84.5l-38 78q105 34 124 95q-35 -5 -61.5 18.5t-26.5 63.5q0 37 27 63t67 26z" />
    <glyph glyph-name="uni0375" unicode="&#x375;" horiz-adv-x="259" 
d="M97 170q47 0 76 -34.5t29 -86.5q0 -77 -55.5 -138.5t-142.5 -84.5l-38 78q106 33 125 95q-35 -5 -61.5 18.5t-26.5 62.5q0 38 26.5 64t67.5 26z" />
    <glyph glyph-name="uni037A" unicode="&#x37a;" horiz-adv-x="307" 
d="M181 -97l-21 -103q-101 -24 -147.5 17t-30.5 124l7 33h123l-4 -21q-7 -34 9.5 -45.5t63.5 -4.5z" />
    <glyph glyph-name="uni037E" unicode="&#x37e;" horiz-adv-x="259" 
d="M167 525q37 0 63.5 -26.5t26.5 -63.5q0 -35 -26.5 -62t-63.5 -27q-36 0 -62.5 26.5t-26.5 62.5q0 37 26 63.5t63 26.5zM97 170q47 0 76 -34.5t29 -86.5q0 -77 -55.5 -138.5t-142.5 -84.5l-38 78q106 33 125 95q-35 -5 -61.5 18.5t-26.5 62.5q0 38 26.5 64t67.5 26z" />
    <glyph glyph-name="tonos" unicode="&#x384;" horiz-adv-x="312" 
d="M245 579h-127l101 160h145z" />
    <glyph glyph-name="dieresistonos" unicode="&#x385;" horiz-adv-x="566" 
d="M367 579h-111l100 160h130zM135 659q0 29 20.5 49.5t49.5 20.5q28 0 48.5 -20.5t20.5 -49.5t-20.5 -49.5t-48.5 -20.5q-29 0 -49.5 20.5t-20.5 49.5zM462 659q0 29 20.5 49.5t48.5 20.5q29 0 49.5 -20.5t20.5 -49.5t-20.5 -49.5t-49.5 -20.5q-28 0 -48.5 20.5t-20.5 49.5
z" />
    <glyph glyph-name="Alphatonos" unicode="&#x386;" horiz-adv-x="734" 
d="M675 0h-144l-19 152h-330l-80 -152h-152l376 700h254zM133 700h146l-120 -160h-127zM449 659l-200 -380h247z" />
    <glyph glyph-name="anoteleia" unicode="&#x387;" horiz-adv-x="259" 
d="M78 435q0 37 26 63.5t63 26.5t63.5 -26.5t26.5 -63.5q0 -35 -26.5 -62t-63.5 -27q-36 0 -62.5 26.5t-26.5 62.5z" />
    <glyph glyph-name="Epsilontonos" unicode="&#x388;" horiz-adv-x="562" 
d="M-42 540h-127l101 160h146zM465 0h-465l149 700h465l-27 -127h-322l-35 -160h313l-27 -126h-313l-34 -160h323z" />
    <glyph glyph-name="Etatonos" unicode="&#x389;" horiz-adv-x="718" 
d="M-42 540h-127l101 160h146zM143 0h-143l149 700h143l-62 -287h324l61 287h143l-149 -700h-143l61 287h-324z" />
    <glyph glyph-name="Iotatonos" unicode="&#x38a;" horiz-adv-x="251" 
d="M-42 540h-127l101 160h146zM143 0h-143l149 700h143z" />
    <glyph glyph-name="Omicrontonos" unicode="&#x38c;" horiz-adv-x="804" 
d="M49 286q0 113 58.5 210.5t158 155.5t213.5 58q139 0 227 -81.5t88 -214.5q0 -112 -58.5 -210t-157.5 -156t-213 -58q-139 0 -227.5 81.5t-88.5 214.5zM34 540h-127l101 160h145zM196 298q0 -77 49 -127t128 -50q112 0 193 84.5t81 196.5q0 77 -49 127t-128 50
q-112 0 -193 -84.5t-81 -196.5z" />
    <glyph glyph-name="Upsilontonos" unicode="&#x38e;" horiz-adv-x="663" 
d="M-42 540h-127l101 160h146zM763 700l-363 -458l-25 -115h115l-27 -127h-372l27 127h114l25 115l-168 458h159l107 -316l240 316h168z" />
    <glyph glyph-name="Omegatonos" unicode="&#x38f;" horiz-adv-x="804" 
d="M793 440q0 -100 -67 -184t-186 -129h207l-27 -127h-297l23 111q200 137 200 293q0 77 -46.5 126t-125.5 49q-111 0 -190 -84t-79 -195q0 -102 91 -189l-23 -111h-298l27 127h214q-150 74 -150 221q0 67 32 132.5t86 116t133 82t166 31.5q138 0 224 -79t86 -191zM31 700
h145l-119 -160h-127z" />
    <glyph glyph-name="iotadieresistonos" unicode="&#x390;" horiz-adv-x="304" 
d="M216 579h-111l100 160h130zM-16 659q0 29 20.5 49.5t49.5 20.5q28 0 48.5 -20.5t20.5 -49.5t-20.5 -49.5t-48.5 -20.5q-29 0 -49.5 20.5t-20.5 49.5zM311 659q0 29 20.5 49.5t48.5 20.5q29 0 49.5 -20.5t20.5 -49.5t-20.5 -49.5t-49.5 -20.5q-28 0 -48.5 20.5t-20.5 49.5
zM44 209l66 307h135l-69 -324q-16 -73 57 -73h28l-25 -119h-19q-103 0 -148.5 55t-24.5 154z" />
    <glyph glyph-name="Alpha" unicode="&#x391;" horiz-adv-x="734" 
d="M675 0h-144l-19 152h-330l-80 -152h-152l376 700h254zM449 659l-200 -380h247z" />
    <glyph glyph-name="Beta" unicode="&#x392;" horiz-adv-x="642" 
d="M442 352q145 -18 145 -140q0 -89 -70.5 -150.5t-177.5 -61.5h-339l149 700h291q82 0 133.5 -44t51.5 -106q0 -80 -49 -131.5t-134 -66.5zM415 577h-154l-36 -168h154q48 0 81 30.5t33 72.5q0 29 -20.5 47t-57.5 18zM165 123h165q48 0 81 30.5t33 72.5q0 29 -20.5 47
t-57.5 18h-165z" />
    <glyph glyph-name="Gamma" unicode="&#x393;" horiz-adv-x="530" 
d="M143 0h-143l149 700h465l-27 -127h-322z" />
    <glyph glyph-name="uni0394" unicode="&#x394;" horiz-adv-x="734" 
d="M580 700l95 -700h-725l376 700h254zM449 659l-276 -524h341z" />
    <glyph glyph-name="Epsilon" unicode="&#x395;" horiz-adv-x="562" 
d="M465 0h-465l149 700h465l-27 -127h-322l-35 -160h313l-27 -126h-313l-34 -160h323z" />
    <glyph glyph-name="Zeta" unicode="&#x396;" horiz-adv-x="610" 
d="M144 700h510l-54 -253l-518 -320h450l-27 -127h-510l55 253l517 320h-450z" />
    <glyph glyph-name="Eta" unicode="&#x397;" horiz-adv-x="718" 
d="M143 0h-143l149 700h143l-62 -287h324l61 287h143l-149 -700h-143l61 287h-324z" />
    <glyph glyph-name="Theta" unicode="&#x398;" horiz-adv-x="804" 
d="M49 286q0 113 58.5 210.5t158 155.5t213.5 58q139 0 227 -81.5t88 -214.5q0 -112 -58.5 -210t-157.5 -156t-213 -58q-139 0 -227.5 81.5t-88.5 214.5zM196 298q0 -77 49 -127t128 -50q112 0 193 84.5t81 196.5q0 77 -49 127t-128 50q-112 0 -193 -84.5t-81 -196.5z
M547 287h-278l27 126h278z" />
    <glyph glyph-name="Iota" unicode="&#x399;" horiz-adv-x="251" 
d="M143 0h-143l149 700h143z" />
    <glyph glyph-name="Kappa" unicode="&#x39a;" horiz-adv-x="673" 
d="M538 700h194l-319 -291l204 -409h-159l-156 309l-117 -107l-42 -202h-143l149 700h143l-61 -280z" />
    <glyph glyph-name="Lambda" unicode="&#x39b;" horiz-adv-x="704" 
d="M562 700l82 -700h-143l-68 659l-331 -659h-153l364 700h249z" />
    <glyph glyph-name="Mu" unicode="&#x39c;" horiz-adv-x="897" 
d="M922 700l-149 -700h-135l142 668l-268 -668h-253l17 663l-141 -663h-135l149 700h259l-17 -663l266 663h265z" />
    <glyph glyph-name="Nu" unicode="&#x39d;" horiz-adv-x="734" 
d="M489 30l142 670h143l-149 -700h-268l-72 670l-142 -670h-143l149 700h268z" />
    <glyph glyph-name="Xi" unicode="&#x39e;" horiz-adv-x="674" 
d="M714 700l-29 -135h-211l-31 -147h200l-28 -136h-201l-31 -147h211l-29 -135h-565l28 135h212l31 147h-202l29 136h202l31 147h-211l29 135h565z" />
    <glyph glyph-name="Omicron" unicode="&#x39f;" horiz-adv-x="804" 
d="M49 286q0 113 58.5 210.5t158 155.5t213.5 58q139 0 227 -81.5t88 -214.5q0 -112 -58.5 -210t-157.5 -156t-213 -58q-139 0 -227.5 81.5t-88.5 214.5zM196 298q0 -77 49 -127t128 -50q112 0 193 84.5t81 196.5q0 77 -49 127t-128 50q-112 0 -193 -84.5t-81 -196.5z" />
    <glyph glyph-name="Pi" unicode="&#x3a0;" horiz-adv-x="718" 
d="M143 0h-143l149 700h609l-149 -700h-143l122 573h-323z" />
    <glyph glyph-name="Rho" unicode="&#x3a1;" horiz-adv-x="619" 
d="M143 0h-143l149 700h276q100 0 164 -56.5t64 -138.5q0 -119 -84.5 -194.5t-216.5 -75.5h-159zM265 573l-45 -211h148q59 0 98 38t39 93q0 36 -24.5 58t-67.5 22h-148z" />
    <glyph glyph-name="Sigma" unicode="&#x3a3;" horiz-adv-x="565" 
d="M134 700h486l-27 -127h-444l319 -142l-32 -154l-380 -142h443l-28 -135h-486l54 255l278 104l-234 104z" />
    <glyph glyph-name="Tau" unicode="&#x3a4;" horiz-adv-x="592" 
d="M313 0h-143l122 573h-215l27 127h572l-27 -127h-214z" />
    <glyph glyph-name="Upsilon" unicode="&#x3a5;" horiz-adv-x="663" 
d="M763 700l-363 -458l-25 -115h115l-27 -127h-372l27 127h114l25 115l-168 458h159l107 -316l240 316h168z" />
    <glyph glyph-name="Phi" unicode="&#x3a6;" horiz-adv-x="892" 
d="M603 659h2q123 0 199.5 -69.5t76.5 -185.5q0 -151 -112.5 -257t-279.5 -106h-18l-17 -81h-143l17 81h-2q-123 0 -200 69.5t-77 185.5q0 151 113 257t280 106h18l17 81h143zM352 168h3l78 364h-9q-99 0 -165.5 -65.5t-66.5 -159.5q0 -139 160 -139zM498 168h8
q99 0 166 65.5t67 159.5q0 139 -160 139h-3z" />
    <glyph glyph-name="Chi" unicode="&#x3a7;" horiz-adv-x="676" 
d="M588 700h178l-323 -355l174 -345h-165l-114 237l-210 -237h-178l323 355l-174 345h164l115 -236z" />
    <glyph glyph-name="Psi" unicode="&#x3a8;" horiz-adv-x="805" 
d="M653 422l59 278h143l-63 -296q-26 -124 -117.5 -192t-223.5 -68h-1l-31 -144h-143l31 144q-126 6 -188.5 88t-35.5 209l56 259h143l-60 -277q-14 -66 16 -105.5t97 -41.5l90 424h143l-90 -424q69 2 115 41t60 105z" />
    <glyph glyph-name="uni03A9" unicode="&#x3a9;" horiz-adv-x="804" 
d="M793 440q0 -100 -67 -184t-186 -129h207l-27 -127h-297l23 111q200 137 200 293q0 77 -46.5 126t-125.5 49q-111 0 -190 -84t-79 -195q0 -102 91 -189l-23 -111h-298l27 127h214q-150 74 -150 221q0 67 32 132.5t86 116t133 82t166 31.5q138 0 224 -79t86 -191z" />
    <glyph glyph-name="Iotadieresis" unicode="&#x3aa;" horiz-adv-x="251" 
d="M68 825q0 32 23 55t54 23q32 0 55 -23t23 -55t-23 -54.5t-55 -22.5q-31 0 -54 23t-23 54zM269 825q0 31 23.5 54.5t54.5 23.5t54 -23t23 -55q0 -31 -23 -54t-54 -23q-32 0 -55 23t-23 54zM143 0h-143l149 700h143z" />
    <glyph glyph-name="Upsilondieresis" unicode="&#x3ab;" horiz-adv-x="663" 
d="M336 748q-32 0 -55 23t-23 54t23 54.5t55 23.5q31 0 54 -23t23 -55q0 -31 -22.5 -54t-54.5 -23zM570 748q-32 0 -55 22.5t-23 54.5t23 55t55 23q31 0 54 -23t23 -55q0 -31 -22.5 -54t-54.5 -23zM763 700l-363 -458l-25 -115h115l-27 -127h-372l27 127h114l25 115
l-168 458h159l107 -316l240 316h168z" />
    <glyph glyph-name="alphatonos" unicode="&#x3ac;" horiz-adv-x="696" 
d="M399 739h145l-119 -160h-127zM624 119h28l-25 -119h-19q-78 0 -123.5 32t-53.5 91q-40 -62 -96.5 -97.5t-119.5 -35.5q-86 0 -136 58t-50 156q0 130 82 226t192 96q69 0 113 -44.5t52 -117.5l33 152h135l-69 -324q-15 -73 57 -73zM276 113q70 0 120.5 54t50.5 125
q0 48 -30 79t-79 31q-69 0 -119.5 -53.5t-50.5 -124.5q0 -49 30 -80t78 -31z" />
    <glyph glyph-name="epsilontonos" unicode="&#x3ad;" horiz-adv-x="528" 
d="M365 739h159l-154 -160h-135zM232 106q45 0 94 17t83 50l58 -96q-43 -41 -110.5 -64t-139.5 -23q-95 0 -149 33t-54 96q0 50 48 89.5t127 49.5q-62 9 -93.5 38t-31.5 71q0 63 72.5 111t175.5 48q150 0 232 -87l-88 -87q-32 30 -77.5 44t-81.5 14q-45 0 -70 -15.5
t-25 -40.5q0 -41 95 -41h75l-24 -110h-75q-114 0 -114 -55q0 -18 18 -30t55 -12z" />
    <glyph glyph-name="etatonos" unicode="&#x3ae;" horiz-adv-x="608" 
d="M389 739h146l-119 -160h-127zM416 526q90 0 130.5 -67t20.5 -163l-106 -496h-135l104 488q11 52 -13 83.5t-75 31.5q-54 0 -94.5 -32t-51.5 -82l-61 -289h-135l110 516h135l-27 -124q33 65 85.5 99.5t112.5 34.5z" />
    <glyph glyph-name="iotatonos" unicode="&#x3af;" horiz-adv-x="304" 
d="M250 579h-127l101 160h145zM44 209l66 307h135l-69 -324q-16 -73 57 -73h28l-25 -119h-19q-103 0 -148.5 55t-24.5 154z" />
    <glyph glyph-name="upsilondieresistonos" unicode="&#x3b0;" horiz-adv-x="583" 
d="M385 579h-111l100 160h130zM153 659q0 29 20.5 49.5t49.5 20.5q28 0 48.5 -20.5t20.5 -49.5t-20.5 -49.5t-48.5 -20.5q-29 0 -49.5 20.5t-20.5 49.5zM480 659q0 29 20.5 49.5t48.5 20.5q29 0 49.5 -20.5t20.5 -49.5t-20.5 -49.5t-49.5 -20.5q-28 0 -48.5 20.5t-20.5 49.5
zM45 237l59 279h135l-63 -297q-10 -48 13.5 -77t71.5 -29q47 0 83 29t46 76l63 298h135l-67 -316q-21 -100 -96 -155t-181 -55q-108 0 -164.5 69.5t-34.5 177.5z" />
    <glyph glyph-name="alpha" unicode="&#x3b1;" horiz-adv-x="696" 
d="M624 119h28l-25 -119h-19q-78 0 -123.5 32t-53.5 91q-40 -62 -96.5 -97.5t-119.5 -35.5q-86 0 -136 58t-50 156q0 130 82 226t192 96q69 0 113 -44.5t52 -117.5l33 152h135l-69 -324q-15 -73 57 -73zM276 113q70 0 120.5 54t50.5 125q0 48 -30 79t-79 31
q-69 0 -119.5 -53.5t-50.5 -124.5q0 -49 30 -80t78 -31z" />
    <glyph glyph-name="beta" unicode="&#x3b2;" horiz-adv-x="630" 
d="M439 385q66 -17 103.5 -58t37.5 -102q0 -93 -74.5 -164t-175.5 -71q-67 0 -112 41.5t-53 112.5l-73 -344h-135l148 698q24 116 104.5 184t199.5 68q92 0 149 -47t57 -115q0 -73 -47 -127t-129 -76zM295 113q64 0 107 37.5t43 92.5q0 36 -27.5 58.5t-75.5 22.5h-44l25 119
h25q55 0 92.5 31.5t37.5 78.5q0 32 -24.5 53t-64.5 21q-51 0 -93.5 -33.5t-55.5 -95.5l-56 -263q-9 -58 22 -90t89 -32z" />
    <glyph glyph-name="gamma" unicode="&#x3b3;" horiz-adv-x="548" 
d="M246 139l219 377h145l-327 -538l-38 -178h-135l38 178l-98 538h137z" />
    <glyph glyph-name="delta" unicode="&#x3b4;" horiz-adv-x="616" 
d="M219 740h417l-25 -119h-237q108 -83 161.5 -167.5t53.5 -160.5q0 -122 -95 -212.5t-225 -90.5q-110 0 -174.5 63t-64.5 155q0 113 70.5 185t175.5 72q86 0 152 -99q-51 120 -231 272zM281 113q64 0 112.5 46.5t48.5 108.5q0 47 -30.5 76.5t-81.5 29.5q-64 0 -112 -46
t-48 -108q0 -48 30 -77.5t81 -29.5z" />
    <glyph glyph-name="epsilon" unicode="&#x3b5;" horiz-adv-x="528" 
d="M232 106q45 0 94 17t83 50l58 -96q-43 -41 -110.5 -64t-139.5 -23q-95 0 -149 33t-54 96q0 50 48 89.5t127 49.5q-62 9 -93.5 38t-31.5 71q0 63 72.5 111t175.5 48q150 0 232 -87l-88 -87q-32 30 -77.5 44t-81.5 14q-45 0 -70 -15.5t-25 -40.5q0 -41 95 -41h75l-24 -110
h-75q-114 0 -114 -55q0 -18 18 -30t55 -12z" />
    <glyph glyph-name="zeta" unicode="&#x3b6;" horiz-adv-x="496" 
d="M590 740l-21 -102q-223 -153 -313 -249.5t-90 -179.5q0 -35 28 -56.5t90 -32.5q38 -7 66 -18t51 -33.5t29 -52.5t-9.5 -78t-55.5 -108l-122 18q24 39 34.5 65t11.5 41.5t-14 25.5t-31 14.5t-51 10.5q-81 15 -128 55t-47 123q0 115 119 239.5t336 198.5h-333l25 119h425z
" />
    <glyph glyph-name="eta" unicode="&#x3b7;" horiz-adv-x="608" 
d="M416 526q90 0 130.5 -67t20.5 -163l-106 -496h-135l104 488q11 52 -13 83.5t-75 31.5q-54 0 -94.5 -32t-51.5 -82l-61 -289h-135l110 516h135l-27 -124q33 65 85.5 99.5t112.5 34.5z" />
    <glyph glyph-name="theta" unicode="&#x3b8;" horiz-adv-x="620" 
d="M408 750q98 0 152.5 -69t54.5 -188q0 -129 -48 -245.5t-130.5 -187t-176.5 -70.5q-97 0 -152 69.5t-55 187.5q0 129 48 245.5t130.5 187t176.5 70.5zM391 627q-48 0 -93.5 -56t-74.5 -142h249q4 28 4 64q0 66 -23 100t-62 34zM278 113q48 0 93.5 56t74.5 142h-249
q-4 -28 -4 -64q0 -66 23 -100t62 -34z" />
    <glyph glyph-name="iota" unicode="&#x3b9;" horiz-adv-x="304" 
d="M44 209l66 307h135l-69 -324q-16 -73 57 -73h28l-25 -119h-19q-103 0 -148.5 55t-24.5 154z" />
    <glyph glyph-name="kappa" unicode="&#x3ba;" horiz-adv-x="572" 
d="M412 516h187l-250 -223l174 -293h-157l-119 202l-85 -76l-27 -126h-135l110 516h135l-41 -190z" />
    <glyph glyph-name="lambda" unicode="&#x3bb;" horiz-adv-x="548" 
d="M407 740l93 -740h-129l-57 459l-221 -459h-153l266 516h101l-28 224h128z" />
    <glyph glyph-name="uni03BC" unicode="&#x3bc;" horiz-adv-x="613" 
d="M417 227l62 289h135l-110 -516h-135l27 126q-34 -66 -87.5 -101t-113.5 -35q-32 0 -60 11l-43 -201h-135l153 716h135l-58 -269l-5 -24q-10 -50 13.5 -80t72.5 -30q55 0 96.5 32t52.5 82z" />
    <glyph glyph-name="nu" unicode="&#x3bd;" horiz-adv-x="548" 
d="M231 41l232 475h146l-268 -516h-228l-64 516h137z" />
    <glyph glyph-name="xi" unicode="&#x3be;" horiz-adv-x="540" 
d="M271 525q0 -37 29.5 -60.5t85.5 -23.5h113l-25 -118h-129q-78 0 -119 -29t-41 -79q0 -40 30 -61.5t99 -33.5q38 -8 66 -19t51 -33t28.5 -52t-9.5 -78t-55 -108l-122 18q24 39 34.5 65t11.5 41.5t-14 25.5t-31 14.5t-51 10.5q-185 35 -185 171q0 82 64 140t176 77
q-146 30 -146 147q0 89 77 149.5t184 60.5q93 0 149 -48.5t64 -122.5l-131 -30q-6 35 -30 56.5t-65 21.5q-43 0 -76 -29.5t-33 -72.5z" />
    <glyph glyph-name="omicron" unicode="&#x3bf;" horiz-adv-x="620" 
d="M31 213q0 127 94 220t225 93q106 0 172.5 -61t66.5 -163q0 -126 -94 -219t-223 -93q-107 0 -174 61t-67 162zM171 224q0 -49 29.5 -80t78.5 -31q69 0 119.5 54t50.5 125q0 49 -29.5 79.5t-78.5 30.5q-69 0 -119.5 -53.5t-50.5 -124.5z" />
    <glyph glyph-name="pi" unicode="&#x3c0;" horiz-adv-x="664" 
d="M662 397h-98l-44 -205q-15 -73 57 -73h28l-25 -119h-19q-103 0 -148 55t-25 154l40 188h-158l-85 -397h-135l85 397h-85l25 119h613z" />
    <glyph glyph-name="rho" unicode="&#x3c1;" horiz-adv-x="635" 
d="M365 526q105 0 172 -59.5t67 -154.5q0 -130 -82 -226t-192 -96q-64 0 -108.5 44.5t-55.5 116.5l-74 -351h-135l97 458q25 117 110.5 192.5t200.5 75.5zM299 113q66 0 116 54.5t50 124.5q0 49 -30.5 79.5t-79.5 30.5q-58 0 -105 -41t-61 -103q-13 -62 18.5 -103.5
t91.5 -41.5z" />
    <glyph glyph-name="uni03C2" unicode="&#x3c2;" horiz-adv-x="564" 
d="M382 -170l-122 18q17 28 26.5 49t15 36t0.5 26.5t-9 18t-21 13.5t-27.5 10t-37.5 10q-78 18 -127 70.5t-49 131.5q0 127 94 220t225 93q84 0 146 -44t77 -120l-123 -43q-9 39 -38 61t-71 22q-67 0 -118.5 -54t-51.5 -124q0 -81 129 -104q38 -8 66 -19t51.5 -33t29 -52
t-9.5 -78t-55 -108z" />
    <glyph glyph-name="sigma" unicode="&#x3c3;" horiz-adv-x="628" 
d="M349 516h314l-26 -124h-188q60 -21 95 -63t35 -97q0 -100 -90 -171t-219 -71q-107 0 -174 60t-67 159q0 125 94.5 216t225.5 91zM448 286q0 47 -30 76.5t-79 29.5q-69 0 -119.5 -52t-50.5 -120q0 -47 29.5 -77t78.5 -30q70 0 120.5 52.5t50.5 120.5z" />
    <glyph glyph-name="tau" unicode="&#x3c4;" horiz-adv-x="514" 
d="M523 397h-168l-44 -205q-15 -73 57 -73h29l-26 -119h-19q-103 0 -148 55.5t-24 153.5l40 188h-169l25 119h473z" />
    <glyph glyph-name="upsilon" unicode="&#x3c5;" horiz-adv-x="583" 
d="M45 237l59 279h135l-63 -297q-10 -48 13.5 -77t71.5 -29q47 0 83 29t46 76l63 298h135l-67 -316q-21 -100 -96 -155t-181 -55q-108 0 -164.5 69.5t-34.5 177.5z" />
    <glyph glyph-name="phi" unicode="&#x3c6;" horiz-adv-x="739" 
d="M534 710l-39 -184q93 -7 153.5 -67t60.5 -157q0 -127 -94.5 -220t-233.5 -92l-40 -190h-135l40 191q-96 9 -155.5 67t-59.5 155q0 127 95 220.5t233 92.5l30 142zM171 224q0 -47 27.5 -77.5t73.5 -33.5l61 289q-67 -4 -114.5 -57t-47.5 -121zM469 402l-62 -289
q67 4 115 57.5t48 121.5q0 46 -27.5 76.5t-73.5 33.5z" />
    <glyph glyph-name="chi" unicode="&#x3c7;" horiz-adv-x="560" 
d="M450 516h153l-272 -363l119 -353h-143l-72 236l-168 -236h-152l271 362l-119 354h143l72 -236z" />
    <glyph glyph-name="psi" unicode="&#x3c8;" horiz-adv-x="730" 
d="M538 220l62 296h135l-64 -306q-22 -102 -100.5 -161t-194.5 -59l-41 -190h-135l40 190q-105 1 -162 69t-35 171l61 286h135l-63 -296q-10 -49 14.5 -77.5t76.5 -29.5l118 555l144 42l-127 -597q51 0 88.5 29.5t47.5 77.5z" />
    <glyph glyph-name="omega" unicode="&#x3c9;" horiz-adv-x="792" 
d="M525 419l60 107q80 -23 122.5 -84.5t42.5 -152.5q0 -116 -74 -207.5t-170 -91.5q-59 0 -95 42.5t-32 117.5q-28 -75 -80.5 -117.5t-110.5 -42.5q-157 0 -157 188q0 117 83 219.5t206 128.5l17 -116q-71 -23 -117.5 -85t-46.5 -136q0 -36 15.5 -56t39.5 -20q69 0 97 129
l21 100h135l-21 -100q-28 -129 43 -129q42 0 73.5 52t31.5 120q0 104 -83 134z" />
    <glyph glyph-name="iotadieresis" unicode="&#x3ca;" horiz-adv-x="304" 
d="M38 659q6 31 34 54t59 23q27 0 45 -17.5t18 -43.5q0 -35 -30 -64.5t-65 -29.5q-32 0 -50 23t-11 55zM221 659q7 31 35 54t59 23q27 0 45 -17.5t18 -43.5q0 -35 -30 -64.5t-66 -29.5q-31 0 -49 23t-12 55zM44 209l66 307h135l-69 -324q-16 -73 57 -73h28l-25 -119h-19
q-103 0 -148.5 55t-24.5 154z" />
    <glyph glyph-name="upsilondieresis" unicode="&#x3cb;" horiz-adv-x="583" 
d="M183 659q0 32 23 54.5t55 22.5q31 0 54 -23t23 -54q0 -32 -23 -55t-54 -23q-32 0 -55 23t-23 55zM415 659q0 31 22.5 54t54.5 23t55 -22.5t23 -54.5t-23 -55t-55 -23q-31 0 -54 23t-23 55zM45 237l59 279h135l-63 -297q-10 -48 13.5 -77t71.5 -29q47 0 83 29t46 76
l63 298h135l-67 -316q-21 -100 -96 -155t-181 -55q-108 0 -164.5 69.5t-34.5 177.5z" />
    <glyph glyph-name="omicrontonos" unicode="&#x3cc;" horiz-adv-x="620" 
d="M404 579h-127l101 160h145zM31 213q0 127 94 220t225 93q106 0 172.5 -61t66.5 -163q0 -126 -94 -219t-223 -93q-107 0 -174 61t-67 162zM171 224q0 -49 29.5 -80t78.5 -31q69 0 119.5 54t50.5 125q0 49 -29.5 79.5t-78.5 30.5q-69 0 -119.5 -53.5t-50.5 -124.5z" />
    <glyph glyph-name="upsilontonos" unicode="&#x3cd;" horiz-adv-x="583" 
d="M399 579h-127l101 160h145zM45 237l59 279h135l-63 -297q-10 -48 13.5 -77t71.5 -29q47 0 83 29t46 76l63 298h135l-67 -316q-21 -100 -96 -155t-181 -55q-108 0 -164.5 69.5t-34.5 177.5z" />
    <glyph glyph-name="omegatonos" unicode="&#x3ce;" horiz-adv-x="792" 
d="M479 739h146l-120 -160h-127zM525 419l60 107q80 -23 122.5 -84.5t42.5 -152.5q0 -116 -74 -207.5t-170 -91.5q-59 0 -95 42.5t-32 117.5q-28 -75 -80.5 -117.5t-110.5 -42.5q-157 0 -157 188q0 117 83 219.5t206 128.5l17 -116q-71 -23 -117.5 -85t-46.5 -136
q0 -36 15.5 -56t39.5 -20q69 0 97 129l21 100h135l-21 -100q-28 -129 43 -129q42 0 73.5 52t31.5 120q0 104 -83 134z" />
    <glyph glyph-name="uni0400" unicode="&#x400;" horiz-adv-x="562" 
d="M500 746h-149l-128 154h156zM465 0h-465l149 700h465l-27 -127h-322l-35 -160h313l-27 -126h-313l-34 -160h323z" />
    <glyph glyph-name="uni0401" unicode="&#x401;" horiz-adv-x="562" 
d="M207 825q0 31 23.5 54.5t54.5 23.5t54 -23t23 -55q0 -31 -23 -54t-54 -23q-32 0 -55 23t-23 54zM441 825q0 32 23 55t55 23q31 0 54 -23t23 -55q0 -31 -23 -54t-54 -23q-32 0 -55 22.5t-23 54.5zM465 0h-465l149 700h465l-27 -127h-322l-35 -160h313l-27 -126h-313
l-34 -160h323z" />
    <glyph glyph-name="uni0402" unicode="&#x402;" horiz-adv-x="771" 
d="M525 448q94 0 153 -52t59 -142q0 -114 -76 -189t-184 -75q-71 0 -128 22l42 120q39 -14 72 -14q57 0 90 33.5t33 83.5q0 41 -26.5 63.5t-76.5 22.5q-54 0 -127 -26l-63 -295h-143l122 573h-195l27 127h572l-27 -127h-234l-32 -149q73 24 142 24z" />
    <glyph glyph-name="uni0403" unicode="&#x403;" horiz-adv-x="530" 
d="M426 746h-149l168 154h173zM143 0h-143l149 700h465l-27 -127h-322z" />
    <glyph glyph-name="uni0404" unicode="&#x404;" horiz-adv-x="763" 
d="M373 121q67 0 126.5 33t96.5 89l129 -54q-54 -85 -149.5 -142t-210.5 -57q-139 0 -227.5 81.5t-88.5 214.5q0 113 58.5 210.5t158 155.5t213.5 58q116 0 195.5 -56.5t106.5 -146.5l-141 -50q-15 54 -59.5 88t-109.5 34q-81 0 -148.5 -46.5t-100.5 -119.5h305l-27 -126
h-304q4 -73 52.5 -119.5t124.5 -46.5z" />
    <glyph glyph-name="uni0405" unicode="&#x405;" horiz-adv-x="629" 
d="M36 185l142 29q16 -101 124 -101q54 0 89.5 25t35.5 63q0 28 -24 48t-59.5 31t-77 28t-77 35.5t-59.5 55.5t-24 87q0 96 80 160t198 64q107 0 166.5 -52t76.5 -143l-142 -29q-18 101 -114 101q-49 0 -80 -23t-31 -58q0 -31 33 -51.5t79.5 -35.5t93.5 -35t80 -61.5
t33 -102.5q0 -102 -84 -166t-206 -64q-110 0 -173.5 51.5t-79.5 143.5z" />
    <glyph glyph-name="uni0406" unicode="&#x406;" horiz-adv-x="251" 
d="M143 0h-143l149 700h143z" />
    <glyph glyph-name="uni0407" unicode="&#x407;" horiz-adv-x="251" 
d="M68 825q0 32 23 55t54 23q32 0 55 -23t23 -55t-23 -54.5t-55 -22.5q-31 0 -54 23t-23 54zM269 825q0 31 23.5 54.5t54.5 23.5t54 -23t23 -55q0 -31 -23 -54t-54 -23q-32 0 -55 23t-23 54zM143 0h-143l149 700h143z" />
    <glyph glyph-name="uni0408" unicode="&#x408;" horiz-adv-x="545" 
d="M-3 207l143 21q-9 -55 14.5 -81t71.5 -26q46 0 81 30.5t45 80.5l99 468h143l-101 -476q-24 -111 -104.5 -172.5t-185.5 -61.5q-101 0 -160 58t-46 159z" />
    <glyph glyph-name="uni0409" unicode="&#x409;" horiz-adv-x="1102" 
d="M-27 -9h-19l27 127h16q48 0 75 16t48.5 65.5t43.5 150.5l75 350h533l-50 -235h123q101 0 164.5 -56.5t63.5 -138.5q0 -119 -84 -194.5t-217 -75.5h-292l122 573h-255l-49 -231q-42 -201 -109.5 -276t-215.5 -75zM695 338l-45 -211h131q62 0 103.5 38t41.5 93q0 36 -25 58
t-68 22h-138z" />
    <glyph glyph-name="uni040A" unicode="&#x40a;" horiz-adv-x="1078" 
d="M143 0h-143l149 700h143l-62 -287h314l61 287h143l-51 -239h126q100 0 163 -56t63 -138q0 -117 -83.5 -192t-214.5 -75h-295l61 287h-314zM670 334l-44 -207h133q62 0 102 37t40 91q0 36 -24 57.5t-65 21.5h-142z" />
    <glyph glyph-name="uni040B" unicode="&#x40b;" horiz-adv-x="799" 
d="M586 468q90 0 135 -68t21 -178l-47 -222h-143l46 218q12 56 -15.5 91.5t-81.5 35.5q-60 0 -105.5 -35.5t-56.5 -91.5l-46 -218h-143l122 573h-195l27 127h572l-27 -127h-234l-54 -248q36 67 95.5 105t129.5 38z" />
    <glyph glyph-name="uni040C" unicode="&#x40c;" horiz-adv-x="683" 
d="M500 900h173l-192 -154h-149zM572 700h174l-303 -350l174 -350h-159l-143 287h-112l-60 -287h-143l149 700h143l-62 -287h97z" />
    <glyph glyph-name="uni040D" unicode="&#x40d;" horiz-adv-x="734" 
d="M465 900l121 -154h-149l-128 154h156zM149 32l342 668h283l-149 -700h-143l143 668l-342 -668h-283l149 700h143z" />
    <glyph glyph-name="uni040E" unicode="&#x40e;" horiz-adv-x="655" 
d="M422 732q-78 0 -125.5 44.5t-38.5 123.5h119q-14 -76 54 -76q70 0 87 76h118q-12 -80 -71.5 -124t-142.5 -44zM360 371l240 329h156l-511 -700h-156l169 231l-159 469h150z" />
    <glyph glyph-name="uni040F" unicode="&#x40f;" horiz-adv-x="718" 
d="M233 0h-233l149 700h143l-123 -573h324l122 573h143l-149 -700h-233l-34 -160h-143z" />
    <glyph glyph-name="uni0410" unicode="&#x410;" horiz-adv-x="734" 
d="M675 0h-144l-19 152h-330l-80 -152h-152l376 700h254zM449 659l-200 -380h247z" />
    <glyph glyph-name="uni0411" unicode="&#x411;" horiz-adv-x="639" 
d="M306 0h-306l149 700h473l-27 -127h-330l-30 -140h145q98 0 156.5 -49.5t58.5 -125.5q0 -112 -82 -185t-207 -73zM208 307l-39 -180h157q52 0 86.5 31.5t34.5 79.5q0 31 -21.5 50t-60.5 19h-157z" />
    <glyph glyph-name="uni0412" unicode="&#x412;" horiz-adv-x="642" 
d="M442 352q145 -18 145 -140q0 -89 -70.5 -150.5t-177.5 -61.5h-339l149 700h291q82 0 133.5 -44t51.5 -106q0 -80 -49 -131.5t-134 -66.5zM415 577h-154l-36 -168h154q48 0 81 30.5t33 72.5q0 29 -20.5 47t-57.5 18zM165 123h165q48 0 81 30.5t33 72.5q0 29 -20.5 47
t-57.5 18h-165z" />
    <glyph glyph-name="uni0413" unicode="&#x413;" horiz-adv-x="530" 
d="M143 0h-143l149 700h465l-27 -127h-322z" />
    <glyph glyph-name="uni0414" unicode="&#x414;" horiz-adv-x="779" 
d="M246 700h533l-122 -573h82l-61 -287h-143l34 160h-474l-34 -160h-143l61 287h74q52 52 81 118.5t59 204.5zM205 127h309l95 446h-255l-26 -123q-29 -136 -56.5 -207.5t-66.5 -115.5z" />
    <glyph glyph-name="uni0415" unicode="&#x415;" horiz-adv-x="562" 
d="M465 0h-465l149 700h465l-27 -127h-322l-35 -160h313l-27 -126h-313l-34 -160h323z" />
    <glyph glyph-name="uni0416" unicode="&#x416;" horiz-adv-x="1043" 
d="M937 700h158l-267 -349l138 -351h-153l-114 287h-100l-61 -287h-143l61 287h-89l-230 -287h-170l290 368l-120 332h143l105 -287h98l61 287h143l-61 -287h91z" />
    <glyph glyph-name="uni0417" unicode="&#x417;" horiz-adv-x="630" 
d="M646 536q0 -63 -56 -115.5t-159 -71.5q74 -15 110 -54t36 -92q0 -89 -85.5 -151t-210.5 -62q-89 0 -161 32t-112 89l97 94q34 -40 85.5 -62t101.5 -22q58 0 98.5 28t40.5 68q0 70 -130 70h-90l27 126h90q78 0 121.5 24t43.5 69q0 34 -29 53.5t-75 19.5q-50 0 -111 -22
t-111 -62l-70 103q59 53 140.5 82.5t161.5 29.5q107 0 177 -47.5t70 -126.5z" />
    <glyph glyph-name="uni0418" unicode="&#x418;" horiz-adv-x="734" 
d="M149 32l342 668h283l-149 -700h-143l143 668l-342 -668h-283l149 700h143z" />
    <glyph glyph-name="uni0419" unicode="&#x419;" horiz-adv-x="734" 
d="M461 732q-78 0 -125.5 44.5t-38.5 123.5h119q-14 -76 54 -76q70 0 87 76h118q-12 -80 -71.5 -124t-142.5 -44zM149 32l342 668h283l-149 -700h-143l143 668l-342 -668h-283l149 700h143z" />
    <glyph glyph-name="uni041A" unicode="&#x41a;" horiz-adv-x="683" 
d="M572 700h174l-303 -350l174 -350h-159l-143 287h-112l-60 -287h-143l149 700h143l-62 -287h97z" />
    <glyph glyph-name="uni041B" unicode="&#x41b;" horiz-adv-x="742" 
d="M-27 -9h-19l27 127h16q48 0 75 16t48.5 65.5t43.5 150.5l75 350h543l-149 -700h-143l122 573h-265l-49 -231q-42 -201 -109.5 -276t-215.5 -75z" />
    <glyph glyph-name="uni041C" unicode="&#x41c;" horiz-adv-x="897" 
d="M922 700l-149 -700h-135l142 668l-268 -668h-253l17 663l-141 -663h-135l149 700h259l-17 -663l266 663h265z" />
    <glyph glyph-name="uni041D" unicode="&#x41d;" horiz-adv-x="718" 
d="M143 0h-143l149 700h143l-62 -287h324l61 287h143l-149 -700h-143l61 287h-324z" />
    <glyph glyph-name="uni041E" unicode="&#x41e;" horiz-adv-x="804" 
d="M49 286q0 113 58.5 210.5t158 155.5t213.5 58q139 0 227 -81.5t88 -214.5q0 -112 -58.5 -210t-157.5 -156t-213 -58q-139 0 -227.5 81.5t-88.5 214.5zM196 298q0 -77 49 -127t128 -50q112 0 193 84.5t81 196.5q0 77 -49 127t-128 50q-112 0 -193 -84.5t-81 -196.5z" />
    <glyph glyph-name="uni041F" unicode="&#x41f;" horiz-adv-x="718" 
d="M143 0h-143l149 700h609l-149 -700h-143l122 573h-323z" />
    <glyph glyph-name="uni0420" unicode="&#x420;" horiz-adv-x="619" 
d="M143 0h-143l149 700h276q100 0 164 -56.5t64 -138.5q0 -119 -84.5 -194.5t-216.5 -75.5h-159zM265 573l-45 -211h148q59 0 98 38t39 93q0 36 -24.5 58t-67.5 22h-148z" />
    <glyph glyph-name="uni0421" unicode="&#x421;" horiz-adv-x="763" 
d="M49 286q0 113 58.5 210.5t158 155.5t213.5 58q116 0 195.5 -56.5t106.5 -146.5l-141 -50q-15 54 -59.5 88t-109.5 34q-113 0 -194 -84.5t-81 -196.5q0 -77 49 -127t128 -50q67 0 126.5 33t96.5 89l129 -54q-54 -85 -149.5 -142t-210.5 -57q-139 0 -227.5 81.5
t-88.5 214.5z" />
    <glyph glyph-name="uni0422" unicode="&#x422;" horiz-adv-x="592" 
d="M313 0h-143l122 573h-215l27 127h572l-27 -127h-214z" />
    <glyph glyph-name="uni0423" unicode="&#x423;" horiz-adv-x="655" 
d="M360 371l240 329h156l-511 -700h-156l169 231l-159 469h150z" />
    <glyph glyph-name="uni0424" unicode="&#x424;" horiz-adv-x="892" 
d="M603 659h2q123 0 199.5 -69.5t76.5 -185.5q0 -151 -112.5 -257t-279.5 -106h-18l-17 -81h-143l17 81h-2q-123 0 -200 69.5t-77 185.5q0 151 113 257t280 106h18l17 81h143zM352 168h3l78 364h-9q-99 0 -165.5 -65.5t-66.5 -159.5q0 -139 160 -139zM498 168h8
q99 0 166 65.5t67 159.5q0 139 -160 139h-3z" />
    <glyph glyph-name="uni0425" unicode="&#x425;" horiz-adv-x="676" 
d="M588 700h178l-323 -355l174 -345h-165l-114 237l-210 -237h-178l323 355l-174 345h164l115 -236z" />
    <glyph glyph-name="uni0426" unicode="&#x426;" horiz-adv-x="758" 
d="M548 0h-548l149 700h143l-123 -573h324l122 573h143l-122 -573h82l-61 -287h-143z" />
    <glyph glyph-name="uni0427" unicode="&#x427;" horiz-adv-x="648" 
d="M474 371l71 329h143l-149 -700h-143l51 243q-78 -17 -146 -17q-286 0 -223 286l40 188h143l-42 -196q-17 -78 6.5 -114.5t104.5 -36.5q64 0 144 18z" />
    <glyph glyph-name="uni0428" unicode="&#x428;" horiz-adv-x="964" 
d="M855 0h-855l149 700h143l-123 -573h214l122 573h143l-122 -573h213l122 573h143z" />
    <glyph glyph-name="uni0429" unicode="&#x429;" horiz-adv-x="1004" 
d="M794 0h-794l149 700h143l-123 -573h214l122 573h143l-122 -573h213l122 573h143l-122 -573h82l-61 -287h-143z" />
    <glyph glyph-name="uni042A" unicode="&#x42a;" horiz-adv-x="750" 
d="M251 573h-174l27 127h316l-50 -235h124q100 0 164 -56.5t64 -138.5q0 -118 -84.5 -194t-216.5 -76h-292zM343 338l-45 -211h131q62 0 103.5 38t41.5 93q0 36 -25 58t-67 22h-139z" />
    <glyph glyph-name="uni042B" unicode="&#x42b;" horiz-adv-x="848" 
d="M292 0h-292l149 700h143l-51 -235h124q100 0 164 -56.5t64 -138.5q0 -118 -84.5 -194t-216.5 -76zM740 0h-143l149 700h143zM214 338l-45 -211h131q62 0 103.5 38t41.5 93q0 36 -25 58t-67 22h-139z" />
    <glyph glyph-name="uni042C" unicode="&#x42c;" horiz-adv-x="631" 
d="M302 0h-302l149 700h143l-51 -235h134q100 0 164 -56.5t64 -138.5q0 -118 -84.5 -194t-216.5 -76zM214 338l-45 -211h141q62 0 103.5 38t41.5 93q0 36 -25 58t-67 22h-149z" />
    <glyph glyph-name="uni042D" unicode="&#x42d;" horiz-adv-x="763" 
d="M437 710q139 0 227.5 -81.5t88.5 -214.5q0 -112 -58.5 -210t-157.5 -156t-213 -58q-117 0 -196 56.5t-106 146.5l140 50q16 -54 60.5 -88t109.5 -34q80 0 147.5 46.5t101.5 119.5h-306l27 126h305q-4 73 -53 119.5t-125 46.5q-67 0 -126 -33t-96 -89l-130 54
q55 85 150 142t210 57z" />
    <glyph glyph-name="uni042E" unicode="&#x42e;" horiz-adv-x="1050" 
d="M734 710q134 0 220.5 -81t86.5 -213q0 -172 -125.5 -299t-294.5 -127q-134 0 -216 80.5t-82 213.5v3h-120l-60 -287h-143l149 700h143l-62 -287h113q41 130 149 213.5t242 83.5zM630 121q107 0 185.5 85.5t78.5 196.5q0 77 -47 126.5t-122 49.5q-107 0 -185 -85.5
t-78 -196.5q0 -77 46.5 -126.5t121.5 -49.5z" />
    <glyph glyph-name="uni042F" unicode="&#x42f;" horiz-adv-x="645" 
d="M374 700h312l-149 -700h-143l53 249h-88l-215 -249h-174l231 269q-54 23 -85.5 68.5t-31.5 99.5q0 113 82.5 188t207.5 75zM319 380h156l41 193h-156q-51 0 -88 -35.5t-37 -83.5q0 -33 22 -53.5t62 -20.5z" />
    <glyph glyph-name="uni0430" unicode="&#x430;" horiz-adv-x="539" 
d="M317 526q101 0 154.5 -53t30.5 -160l-67 -313h-135l27 124q-66 -134 -190 -134q-58 0 -98 37.5t-40 97.5q0 75 57 121.5t159 56.5l103 10q51 5 57 40q5 28 -14.5 45t-55.5 17q-91 0 -115 -78l-128 30q23 70 91 114.5t164 44.5zM191 97q53 0 99.5 36t55.5 82l3 15
q-16 -12 -50 -16l-88 -10q-37 -4 -56.5 -21t-19.5 -41q0 -45 56 -45z" />
    <glyph glyph-name="uni0431" unicode="&#x431;" horiz-adv-x="630" 
d="M344 575q-93 -41 -139 -216q27 59 83.5 103t130.5 44q76 0 129.5 -60t53.5 -149q0 -129 -92.5 -218t-226.5 -89q-104 0 -172 61t-68 174q0 136 70 273.5t174 182.5q62 27 180 40.5t182 28.5l-26 -122q-51 -15 -146 -26t-133 -27zM349 382q-66 0 -116 -49t-50 -115
q0 -46 30 -75.5t79 -29.5q66 0 116 50t50 116q0 45 -30.5 74t-78.5 29z" />
    <glyph glyph-name="uni0432" unicode="&#x432;" horiz-adv-x="571" 
d="M403 260q50 -9 77 -37.5t27 -70.5q0 -66 -57.5 -109t-142.5 -43h-307l110 516h258q79 0 122 -33t43 -86q0 -51 -35 -87t-95 -50zM354 405h-141l-20 -92h141q25 0 43.5 17t18.5 40q0 16 -11.5 25.5t-30.5 9.5zM150 111h155q33 0 52.5 16.5t19.5 39.5q0 16 -11.5 26
t-31.5 10h-165z" />
    <glyph glyph-name="uni0433" unicode="&#x433;" horiz-adv-x="455" 
d="M135 0h-135l110 516h391l-26 -119h-256z" />
    <glyph glyph-name="uni0434" unicode="&#x434;" horiz-adv-x="640" 
d="M176 516h437l-84 -397h70l-57 -267h-127l32 148h-367l-32 -148h-127l57 267h57q41 35 61.5 76t41.5 137zM180 119h214l59 278h-174l-14 -65q-35 -168 -85 -213z" />
    <glyph glyph-name="uni0435" unicode="&#x435;" horiz-adv-x="610" 
d="M350 526q127 0 190.5 -93t23.5 -223h-400q4 -49 35 -76.5t80 -27.5q90 0 146 72l107 -50q-41 -60 -110.5 -99t-149.5 -39q-107 0 -174 61t-67 162q0 127 94 220t225 93zM337 410q-46 0 -87.5 -26t-64.5 -71h260q-3 40 -33 68.5t-75 28.5z" />
    <glyph glyph-name="uni0436" unicode="&#x436;" horiz-adv-x="837" 
d="M720 516h152l-208 -257l115 -259h-147l-89 199h-70l-41 -199h-135l41 199h-60l-166 -199h-162l226 274l-100 242h136l84 -199h68l43 199h135l-43 -199h60z" />
    <glyph glyph-name="uni0437" unicode="&#x437;" horiz-adv-x="528" 
d="M515 397q0 -50 -48 -89.5t-128 -49.5q62 -8 92.5 -36.5t30.5 -69.5q0 -68 -72 -115t-174 -47q-153 0 -228 92l89 86q26 -31 70.5 -46.5t83.5 -15.5q43 0 69 16t26 41q0 40 -92 40h-77l23 110h77q112 0 112 56q0 41 -73 41q-41 0 -91 -15.5t-90 -47.5l-54 92
q42 41 108.5 64t133.5 23q101 0 156.5 -34t55.5 -95z" />
    <glyph glyph-name="uni0438" unicode="&#x438;" horiz-adv-x="620" 
d="M132 26l247 490h243l-110 -516h-127l103 487l-246 -487h-242l110 516h127z" />
    <glyph glyph-name="uni0439" unicode="&#x439;" horiz-adv-x="620" 
d="M371 572q-72 0 -110.5 44.5t-28.5 121.5h107q-17 -74 41 -74t74 74h107q-10 -76 -63 -121t-127 -45zM132 26l247 490h243l-110 -516h-127l103 487l-246 -487h-242l110 516h127z" />
    <glyph glyph-name="uni043A" unicode="&#x43a;" horiz-adv-x="585" 
d="M444 516h168l-234 -258l140 -258h-153l-110 199h-79l-41 -199h-135l110 516h135l-43 -199h63z" />
    <glyph glyph-name="uni043B" unicode="&#x43b;" horiz-adv-x="628" 
d="M-17 -9h-19l25 119h17q54 0 77.5 26.5t43.5 121.5l55 258h447l-110 -516h-135l85 397h-185l-31 -147q-31 -146 -85.5 -202.5t-184.5 -56.5z" />
    <glyph glyph-name="uni043C" unicode="&#x43c;" horiz-adv-x="741" 
d="M741 516l-109 -516h-119l102 483l-190 -483h-219l15 483l-102 -483h-119l109 516h227l-15 -483l189 483h231z" />
    <glyph glyph-name="uni043D" unicode="&#x43d;" horiz-adv-x="613" 
d="M135 0h-135l110 516h135l-43 -199h234l43 199h135l-110 -516h-135l42 199h-235z" />
    <glyph glyph-name="uni043E" unicode="&#x43e;" horiz-adv-x="620" 
d="M31 213q0 127 94 220t225 93q106 0 172.5 -61t66.5 -163q0 -126 -94 -219t-223 -93q-107 0 -174 61t-67 162zM171 224q0 -49 29.5 -80t78.5 -31q69 0 119.5 54t50.5 125q0 49 -29.5 79.5t-78.5 30.5q-69 0 -119.5 -53.5t-50.5 -124.5z" />
    <glyph glyph-name="uni043F" unicode="&#x43f;" horiz-adv-x="603" 
d="M135 0h-135l110 516h494l-110 -516h-135l84 397h-224z" />
    <glyph glyph-name="uni0440" unicode="&#x440;" horiz-adv-x="635" 
d="M428 526q81 0 130 -58t49 -156q0 -130 -82 -226t-193 -96q-62 0 -109 44.5t-56 118.5l-75 -353h-135l152 716h135l-29 -138q37 68 94 108t119 40zM302 113q66 0 115.5 54.5t49.5 124.5q0 48 -29 79t-74 31q-73 0 -124.5 -53.5t-51.5 -124.5q0 -50 31 -80.5t83 -30.5z" />
    <glyph glyph-name="uni0441" unicode="&#x441;" horiz-adv-x="584" 
d="M31 213q0 127 94 220t225 93q84 0 146 -44t77 -120l-123 -43q-9 39 -38 61t-71 22q-69 0 -119.5 -53.5t-50.5 -124.5q0 -49 29.5 -80t78.5 -31q93 0 147 84l122 -43q-43 -77 -116.5 -120.5t-159.5 -43.5q-107 0 -174 61t-67 162z" />
    <glyph glyph-name="uni0442" unicode="&#x442;" horiz-adv-x="514" 
d="M270 0h-135l85 397h-169l25 119h473l-26 -119h-168z" />
    <glyph glyph-name="uni0443" unicode="&#x443;" horiz-adv-x="548" 
d="M224 36l239 480h146l-361 -716h-145l103 200h-101l-56 516h137z" />
    <glyph glyph-name="uni0444" unicode="&#x444;" horiz-adv-x="739" 
d="M540 740l-45 -214q93 -7 153.5 -67t60.5 -157q0 -127 -94.5 -220t-233.5 -92l-40 -190h-135l40 191q-96 9 -155.5 67t-59.5 155q0 128 95.5 221.5t233.5 91.5l45 214h135zM171 224q0 -47 27.5 -77.5t73.5 -33.5l61 289q-67 -3 -114.5 -56.5t-47.5 -121.5zM468 402
l-61 -289q67 4 115 57.5t48 121.5q0 46 -27.5 76.5t-74.5 33.5z" />
    <glyph glyph-name="uni0445" unicode="&#x445;" horiz-adv-x="560" 
d="M437 516h166l-242 -261l132 -255h-157l-75 164l-138 -164h-166l243 260l-133 256h157l75 -164z" />
    <glyph glyph-name="uni0446" unicode="&#x446;" horiz-adv-x="640" 
d="M447 0h-447l110 516h135l-85 -397h234l85 397h135l-85 -397h70l-57 -267h-127z" />
    <glyph glyph-name="uni0447" unicode="&#x447;" horiz-adv-x="553" 
d="M369 284l49 232h135l-109 -516h-135l35 167q-60 -12 -116 -12q-119 0 -160.5 56.5t-18.5 166.5l30 138h135l-31 -146q-11 -50 6 -73.5t74 -23.5q51 0 106 11z" />
    <glyph glyph-name="uni0448" unicode="&#x448;" horiz-adv-x="815" 
d="M706 0h-706l110 516h135l-85 -397h151l85 397h134l-84 -397h151l84 397h135z" />
    <glyph glyph-name="uni0449" unicode="&#x449;" horiz-adv-x="843" 
d="M649 0h-649l110 516h135l-85 -397h151l85 397h134l-84 -397h151l84 397h135l-84 -397h70l-57 -267h-127z" />
    <glyph glyph-name="uni044A" unicode="&#x44a;" horiz-adv-x="634" 
d="M360 0h-265l85 397h-140l25 119h275l-31 -148h105q85 0 135.5 -43.5t50.5 -114.5q0 -89 -68.5 -149.5t-171.5 -60.5zM284 249l-28 -130h116q38 0 63 22t25 53q0 26 -17 40.5t-46 14.5h-113z" />
    <glyph glyph-name="uni044B" unicode="&#x44b;" horiz-adv-x="748" 
d="M264 0h-264l110 516h135l-32 -148h105q85 0 135.5 -43.5t50.5 -114.5q0 -89 -68 -149.5t-172 -60.5zM640 0h-135l110 516h135zM187 249l-27 -130h116q38 0 63 22t25 53q0 26 -17 40.5t-46 14.5h-114z" />
    <glyph glyph-name="uni044C" unicode="&#x44c;" horiz-adv-x="549" 
d="M274 0h-274l110 516h135l-32 -148h115q85 0 135.5 -43.5t50.5 -114.5q0 -89 -68 -149.5t-172 -60.5zM187 249l-27 -130h126q38 0 63 22t25 53q0 26 -17 40.5t-46 14.5h-124z" />
    <glyph glyph-name="uni044D" unicode="&#x44d;" horiz-adv-x="584" 
d="M313 526q107 0 174 -61t67 -163q0 -127 -94 -219.5t-225 -92.5q-84 0 -146 44t-78 120l116 39q10 -40 41 -63.5t76 -23.5q48 0 89.5 26.5t65.5 70.5h-204l24 110h202q-7 44 -38 70.5t-77 26.5q-96 0 -154 -88l-115 40q43 77 116.5 120.5t159.5 43.5z" />
    <glyph glyph-name="uni044E" unicode="&#x44e;" horiz-adv-x="820" 
d="M556 526q104 0 169 -61t65 -161q0 -127 -92.5 -220.5t-219.5 -93.5q-100 0 -161.5 56.5t-65.5 152.5h-75l-41 -199h-135l110 516h135l-43 -199h67q32 92 110.5 150.5t176.5 58.5zM486 113q66 0 115 54.5t49 125.5q0 48 -28 78.5t-75 30.5q-66 0 -115 -54.5t-49 -124.5
q0 -48 28 -79t75 -31z" />
    <glyph glyph-name="uni044F" unicode="&#x44f;" horiz-adv-x="570" 
d="M290 516h281l-110 -516h-135l35 165h-63l-150 -165h-168l167 184q-83 41 -83 126q0 89 64.5 147.5t161.5 58.5zM254 284h132l24 113h-132q-31 0 -52.5 -19t-21.5 -48q0 -19 13 -32.5t37 -13.5z" />
    <glyph glyph-name="uni0450" unicode="&#x450;" horiz-adv-x="610" 
d="M371 739l80 -160h-133l-88 160h141zM350 526q127 0 190.5 -93t23.5 -223h-400q4 -49 35 -76.5t80 -27.5q90 0 146 72l107 -50q-41 -60 -110.5 -99t-149.5 -39q-107 0 -174 61t-67 162q0 127 94 220t225 93zM337 410q-46 0 -87.5 -26t-64.5 -71h260q-3 40 -33 68.5
t-75 28.5z" />
    <glyph glyph-name="uni0451" unicode="&#x451;" horiz-adv-x="610" 
d="M265 581q-32 0 -55 23t-23 55t23 54.5t55 22.5q31 0 54 -23t23 -54q0 -32 -23 -55t-54 -23zM496 581q-31 0 -54 23t-23 55q0 31 22.5 54t54.5 23t55 -22.5t23 -54.5t-23 -55t-55 -23zM350 526q127 0 190.5 -93t23.5 -223h-400q4 -49 35 -76.5t80 -27.5q90 0 146 72
l107 -50q-41 -60 -110.5 -99t-149.5 -39q-107 0 -174 61t-67 162q0 127 94 220t225 93zM337 410q-46 0 -87.5 -26t-64.5 -71h260q-3 40 -33 68.5t-75 28.5z" />
    <glyph glyph-name="uni0452" unicode="&#x452;" horiz-adv-x="618" 
d="M418 486q90 0 131 -66.5t20 -163.5l-52 -242q-23 -106 -94.5 -165t-179.5 -59q-44 0 -85 10l34 119q33 -6 59 -6q108 0 132 106l49 229q11 52 -13 83.5t-75 31.5q-54 0 -94.5 -32t-51.5 -82l-53 -249h-135l118 558h-74l22 102h74l17 80h135l-17 -80h149l-22 -102h-149
l-44 -207q34 66 86 100.5t113 34.5z" />
    <glyph glyph-name="uni0453" unicode="&#x453;" horiz-adv-x="455" 
d="M365 579h-135l131 160h158zM135 0h-135l110 516h391l-26 -119h-256z" />
    <glyph glyph-name="uni0454" unicode="&#x454;" horiz-adv-x="584" 
d="M279 106q98 0 153 88l116 -40q-43 -77 -116.5 -120.5t-159.5 -43.5q-107 0 -174 61t-67 162q0 127 94 220t225 93q84 0 146 -44t77 -120l-115 -40q-10 41 -41.5 64.5t-75.5 23.5q-48 0 -89.5 -26.5t-65.5 -70.5h203l-23 -110h-202q7 -44 38 -70.5t77 -26.5z" />
    <glyph glyph-name="uni0455" unicode="&#x455;" horiz-adv-x="502" 
d="M3 139l132 28q9 -70 87 -70q47 0 74.5 16.5t27.5 43.5q0 23 -27.5 35t-67 19t-78.5 18.5t-66.5 43t-27.5 82.5q0 70 63.5 120.5t158.5 50.5q88 0 145.5 -41t68.5 -108l-132 -28q-9 70 -86 70q-36 0 -59 -15t-23 -41q0 -23 27.5 -35t66.5 -19.5t78.5 -19t67 -43.5
t27.5 -83q0 -77 -71.5 -125t-166.5 -48q-91 0 -149.5 41t-69.5 108z" />
    <glyph glyph-name="uni0456" unicode="&#x456;" horiz-adv-x="243" 
d="M126 659q0 34 24 57.5t58 23.5q33 0 57 -23.5t24 -57.5q0 -33 -24 -57t-57 -24q-34 0 -58 24t-24 57zM135 0h-135l110 516h135z" />
    <glyph glyph-name="uni0457" unicode="&#x457;" horiz-adv-x="243" 
d="M38 659q0 31 23 54t54 23q32 0 55 -23t23 -54t-23.5 -54.5t-54.5 -23.5t-54 23t-23 55zM221 659q0 32 23 54.5t55 22.5q31 0 54 -23t23 -54q0 -32 -23 -55t-54 -23q-32 0 -55 23t-23 55zM135 0h-135l110 516h135z" />
    <glyph glyph-name="uni0458" unicode="&#x458;" horiz-adv-x="263" 
d="M145 659q0 34 24 57.5t58 23.5t57.5 -23.5t23.5 -57.5q0 -33 -23.5 -57t-57.5 -24t-58 24t-24 57zM-113 -209l25 119q54 -1 74.5 17t32.5 73l110 516h135l-110 -516q-24 -116 -83.5 -166t-183.5 -43z" />
    <glyph glyph-name="uni0459" unicode="&#x459;" horiz-adv-x="916" 
d="M-17 -9h-19l25 119h17q54 0 77.5 26.5t43.5 121.5l55 258h438l-32 -148h107q85 0 135.5 -43.5t50.5 -114.5q0 -89 -68.5 -149.5t-171.5 -60.5h-266l85 397h-176l-31 -147q-31 -146 -85.5 -202.5t-184.5 -56.5zM563 249l-28 -130h118q38 0 63 22t25 53q0 26 -17 40.5
t-46 14.5h-115z" />
    <glyph glyph-name="uni045A" unicode="&#x45a;" horiz-adv-x="899" 
d="M135 0h-135l110 516h135l-43 -199h224l43 199h135l-33 -154h109q85 0 134 -43t49 -114q0 -86 -66.5 -145.5t-168.5 -59.5h-269l42 199h-225zM545 243l-26 -124h120q36 0 60 21t24 50q0 25 -16 39t-44 14h-118z" />
    <glyph glyph-name="uni045B" unicode="&#x45b;" horiz-adv-x="618" 
d="M418 486q90 0 131 -67t20 -163l-55 -256h-135l53 248q11 52 -13 83.5t-75 31.5q-54 0 -94.5 -32t-51.5 -82l-53 -249h-135l118 558h-74l22 102h74l17 80h135l-17 -80h149l-22 -102h-149l-44 -207q34 66 86 100.5t113 34.5z" />
    <glyph glyph-name="uni045C" unicode="&#x45c;" horiz-adv-x="585" 
d="M409 739h158l-154 -160h-135zM444 516h168l-234 -258l140 -258h-153l-110 199h-79l-41 -199h-135l110 516h135l-43 -199h63z" />
    <glyph glyph-name="uni045D" unicode="&#x45d;" horiz-adv-x="620" 
d="M386 739l80 -160h-133l-88 160h141zM132 26l247 490h243l-110 -516h-127l103 487l-246 -487h-242l110 516h127z" />
    <glyph glyph-name="uni045E" unicode="&#x45e;" horiz-adv-x="548" 
d="M335 572q-72 0 -110.5 44.5t-28.5 121.5h107q-17 -74 41 -74t74 74h107q-10 -76 -63 -121t-127 -45zM224 36l239 480h146l-361 -716h-145l103 200h-101l-56 516h137z" />
    <glyph glyph-name="uni045F" unicode="&#x45f;" horiz-adv-x="603" 
d="M183 0h-183l110 516h135l-85 -397h224l85 397h135l-110 -516h-184l-31 -148h-127z" />
    <glyph glyph-name="uni0462" unicode="&#x462;" horiz-adv-x="676" 
d="M287 465h133q100 0 164 -56.5t64 -138.5q0 -118 -84.5 -194t-216.5 -76h-302l115 540h-107l22 103h107l16 77h143l-16 -77h147l-22 -103h-147zM215 127h140q63 0 104 38t41 93q0 36 -24.5 58t-67.5 22h-148z" />
    <glyph glyph-name="uni0463" unicode="&#x463;" horiz-adv-x="608" 
d="M268 368h115q85 0 135.5 -43.5t50.5 -114.5q0 -89 -68 -149.5t-172 -60.5h-274l98 460h-105l22 103h105l38 177h135l-38 -177h117l-22 -103h-117zM215 119h126q38 0 63.5 22t25.5 53q0 26 -17 40.5t-46 14.5h-124z" />
    <glyph glyph-name="uni0472" unicode="&#x472;" horiz-adv-x="804" 
d="M479 710q139 0 227 -81.5t88 -214.5q0 -112 -58.5 -210t-157.5 -156t-213 -58q-139 0 -227.5 81.5t-88.5 214.5q0 113 58.5 210.5t158 155.5t213.5 58zM470 579q-95 0 -170 -63t-97 -156q45 82 132 82q35 0 111 -29t121 -29q39 0 80 17v1q0 77 -49 127t-128 50zM373 121
q95 0 170 63t96 155q-43 -81 -131 -81q-35 0 -111 29t-121 29q-38 0 -80 -17v-1q0 -77 49 -127t128 -50z" />
    <glyph glyph-name="uni0473" unicode="&#x473;" horiz-adv-x="620" 
d="M350 526q106 0 172.5 -61t66.5 -163q0 -126 -94 -219t-223 -93q-107 0 -174 61t-67 162q0 127 94 220t225 93zM341 410q-60 0 -108.5 -40.5t-63.5 -100.5q32 62 93 62q26 0 71.5 -19t69.5 -19q25 0 53 12q-4 47 -35 76t-80 29zM279 106q60 0 108.5 40.5t63.5 100.5
q-32 -62 -93 -62q-26 0 -71.5 19t-69.5 19t-53 -12q4 -47 35 -76t80 -29z" />
    <glyph glyph-name="uni0474" unicode="&#x474;" horiz-adv-x="789" 
d="M310 41l265 524q104 210 302 117l-66 -111q-41 19 -60 11.5t-40 -46.5l-281 -536h-249l-82 700h144z" />
    <glyph glyph-name="uni0475" unicode="&#x475;" horiz-adv-x="646" 
d="M232 41l175 357q27 54 66 86.5t95.5 41t124.5 -28.5l-67 -111q-40 20 -60 11.5t-42 -50.5l-182 -347h-228l-65 516h138z" />
    <glyph glyph-name="uni0490" unicode="&#x490;" horiz-adv-x="530" 
d="M143 0h-143l149 700h322l32 150h143l-59 -277h-322z" />
    <glyph glyph-name="uni0491" unicode="&#x491;" horiz-adv-x="455" 
d="M135 0h-135l110 516h264l29 138h127l-55 -257h-256z" />
    <glyph glyph-name="uni0492" unicode="&#x492;" horiz-adv-x="570" 
d="M654 700l-27 -127h-322l-40 -187h162l-22 -103h-162l-60 -283h-143l60 283h-93l22 103h93l67 314h465z" />
    <glyph glyph-name="uni0493" unicode="&#x493;" horiz-adv-x="495" 
d="M541 516l-26 -119h-256l-25 -119h132l-22 -103h-132l-37 -175h-135l37 175h-90l22 103h90l51 238h391z" />
    <glyph glyph-name="uni0494" unicode="&#x494;" horiz-adv-x="653" 
d="M381 448q99 0 158.5 -65t59.5 -172q0 -181 -106 -301t-265 -120q-60 0 -100 10l37 130q37 -9 73 -9q84 0 146.5 77t62.5 182q0 69 -34 102.5t-89 33.5q-50 0 -118 -22l-63 -294h-143l149 700h465l-27 -127h-322l-33 -153q75 28 149 28z" />
    <glyph glyph-name="uni0495" unicode="&#x495;" horiz-adv-x="540" 
d="M521 516l-26 -119h-276l-24 -112q56 20 111 20q81 0 132 -49.5t51 -148.5q0 -141 -84.5 -229t-212.5 -88q-45 0 -86 10l34 119q33 -6 59 -6q61 0 104 47t43 125q0 47 -23 72t-66 25q-38 0 -87 -18l-35 -164h-135l110 516h411z" />
    <glyph glyph-name="uni0496" unicode="&#x496;" horiz-adv-x="1103" 
d="M1095 700l-267 -349l88 -224h147l-61 -287h-142l34 160h-81l-114 287h-100l-61 -287h-143l61 287h-89l-230 -287h-170l290 368l-120 332h143l105 -287h98l61 287h143l-61 -287h91l220 287h158z" />
    <glyph glyph-name="uni0497" unicode="&#x497;" horiz-adv-x="903" 
d="M872 516l-208 -257l62 -140h136l-57 -267h-127l31 148h-77l-89 199h-70l-41 -199h-135l41 199h-60l-166 -199h-162l226 274l-100 242h136l84 -199h68l43 199h135l-43 -199h60l161 199h152z" />
    <glyph glyph-name="uni0498" unicode="&#x498;" horiz-adv-x="630" 
d="M646 536q0 -63 -56 -115.5t-159 -71.5q74 -15 110 -54t36 -92q0 -79 -68.5 -138t-175.5 -72l-33 -153h-143l34 159q-124 27 -183 112l97 94q34 -40 85.5 -62t101.5 -22q58 0 98.5 28t40.5 68q0 70 -130 70h-90l27 126h90q78 0 121.5 24t43.5 69q0 34 -29 53.5t-75 19.5
q-50 0 -111 -22t-111 -62l-70 103q59 53 140.5 82.5t161.5 29.5q107 0 177 -47.5t70 -126.5z" />
    <glyph glyph-name="uni0499" unicode="&#x499;" horiz-adv-x="528" 
d="M515 397q0 -50 -48 -89.5t-128 -49.5q62 -8 92.5 -36.5t30.5 -69.5q0 -60 -57 -104.5t-144 -54.5l-30 -141h-127l31 146q-95 21 -147 84l89 86q26 -31 70.5 -46.5t83.5 -15.5q43 0 69 16t26 41q0 40 -92 40h-77l23 110h77q112 0 112 56q0 41 -73 41q-41 0 -91 -15.5
t-90 -47.5l-54 92q42 41 108.5 64t133.5 23q101 0 156.5 -34t55.5 -95z" />
    <glyph glyph-name="uni049A" unicode="&#x49a;" horiz-adv-x="748" 
d="M746 700l-303 -350l111 -223h154l-61 -287h-142l34 160h-81l-143 287h-112l-60 -287h-143l149 700h143l-62 -287h97l245 287h174z" />
    <glyph glyph-name="uni049B" unicode="&#x49b;" horiz-adv-x="637" 
d="M612 516l-234 -258l75 -139h143l-57 -267h-127l31 148h-78l-110 199h-79l-41 -199h-135l110 516h135l-43 -199h63l179 199h168z" />
    <glyph glyph-name="uni049C" unicode="&#x49c;" horiz-adv-x="731" 
d="M619 700h174l-303 -350l174 -350h-158l-143 287h-16l-25 -116h-103l25 116h-41l-60 -287h-143l149 700h143l-62 -287h40l25 116h103l-25 -116h2z" />
    <glyph glyph-name="uni049D" unicode="&#x49d;" horiz-adv-x="640" 
d="M500 516h168l-235 -258l140 -258h-152l-102 199h-19l-25 -120h-95l25 120h-29l-41 -199h-135l110 516h135l-43 -199h29l25 120h95l-25 -120h3z" />
    <glyph glyph-name="uni049E" unicode="&#x49e;" horiz-adv-x="683" 
d="M572 700h174l-303 -350l174 -350h-159l-143 287h-112l-60 -287h-143l115 538h-82l22 102h81l13 60h143l-13 -60h134l-22 -102h-134l-27 -125h97z" />
    <glyph glyph-name="uni049F" unicode="&#x49f;" horiz-adv-x="595" 
d="M454 516h168l-234 -258l140 -258h-153l-110 199h-79l-41 -199h-135l118 558h-74l22 102h74l17 80h135l-17 -80h149l-22 -102h-149l-51 -241h63z" />
    <glyph glyph-name="uni04A0" unicode="&#x4a0;" horiz-adv-x="812" 
d="M701 700h174l-303 -350l174 -350h-159l-143 287h-112l-61 -287h-142l122 573h-174l27 127h316l-61 -287h97z" />
    <glyph glyph-name="uni04A1" unicode="&#x4a1;" horiz-adv-x="683" 
d="M540 516h168l-234 -258l140 -258h-153l-110 199h-79l-42 -199h-135l85 397h-140l25 119h275l-42 -199h63z" />
    <glyph glyph-name="uni04A2" unicode="&#x4a2;" horiz-adv-x="758" 
d="M615 700h143l-122 -573h82l-61 -287h-142l34 160h-83l61 287h-324l-60 -287h-143l149 700h143l-62 -287h324z" />
    <glyph glyph-name="uni04A3" unicode="&#x4a3;" horiz-adv-x="642" 
d="M479 516h135l-85 -397h72l-57 -267h-127l31 148h-79l42 199h-235l-41 -199h-135l110 516h135l-43 -199h234z" />
    <glyph glyph-name="uni04A4" unicode="&#x4a4;" horiz-adv-x="996" 
d="M615 700h466l-27 -127h-323l-122 -573h-143l61 287h-324l-60 -287h-143l149 700h143l-62 -287h324z" />
    <glyph glyph-name="uni04A5" unicode="&#x4a5;" horiz-adv-x="825" 
d="M870 516l-25 -119h-256l-85 -397h-135l42 199h-235l-41 -199h-135l110 516h135l-43 -199h234l43 199h391z" />
    <glyph glyph-name="uni04A6" unicode="&#x4a6;" horiz-adv-x="1100" 
d="M828 448q99 0 158.5 -65t59.5 -172q0 -181 -106 -301t-265 -120q-61 0 -100 10l37 130q36 -9 73 -9q84 0 146.5 77t62.5 182q0 69 -34 102.5t-89 33.5q-51 0 -119 -22l-63 -294h-143l122 573h-303l-122 -573h-143l149 700h589l-60 -280q75 28 150 28z" />
    <glyph glyph-name="uni04A7" unicode="&#x4a7;" horiz-adv-x="889" 
d="M687 305q64 0 107.5 -50.5t43.5 -147.5q0 -141 -84 -229t-213 -88q-45 0 -85 10l33 119q33 -6 60 -6q60 0 103 47.5t43 124.5q0 47 -23 72t-67 25q-36 0 -86 -19l-35 -163h-135l84 397h-214l-84 -397h-135l110 516h484l-64 -300q70 89 157 89z" />
    <glyph glyph-name="uni04A8" unicode="&#x4a8;" horiz-adv-x="928" 
d="M770 121q39 0 99 10l-8 -125q-55 -16 -117 -16q-103 0 -184 38q-95 -38 -195 -38q-139 0 -227.5 81.5t-88.5 214.5q0 175 122 299.5t308 124.5l-12 -131q-121 0 -196 -83t-75 -198q0 -77 49 -127t128 -50q34 0 67 6q-58 78 -58 187q0 131 88 226.5t209 95.5
q84 0 135.5 -52.5t51.5 -156.5q0 -82 -39.5 -161t-109.5 -141q23 -4 53 -4zM529 326q0 -87 56 -141q61 42 95.5 101t34.5 124q0 46 -18 70.5t-50 24.5q-47 0 -82.5 -54t-35.5 -125z" />
    <glyph glyph-name="uni04A9" unicode="&#x4a9;" horiz-adv-x="712" 
d="M584 106q30 0 70 7l-8 -113q-46 -10 -85 -10q-75 0 -136 28q-72 -28 -153 -28q-107 0 -174 61.5t-67 165.5q0 132 91.5 224.5t230.5 92.5l-12 -116q-77 0 -127.5 -55.5t-50.5 -134.5q0 -55 32 -88.5t84 -33.5q22 0 43 3q-35 55 -35 124q0 102 65.5 172t156.5 70
q59 0 99 -44t40 -113q0 -120 -88 -211q8 -1 24 -1zM410 245q0 -55 33 -90q82 58 82 156q0 53 -41 53q-30 0 -52 -35.5t-22 -83.5z" />
    <glyph glyph-name="uni04AA" unicode="&#x4aa;" horiz-adv-x="763" 
d="M373 121q67 0 126.5 33t96.5 89l129 -54q-46 -71 -121 -124t-168 -69l-33 -156h-143l33 156q-111 21 -177.5 98t-66.5 192q0 113 58.5 210.5t158 155.5t213.5 58q116 0 195.5 -56.5t106.5 -146.5l-141 -50q-15 54 -59.5 88t-109.5 34q-113 0 -194 -84.5t-81 -196.5
q0 -77 49 -127t128 -50z" />
    <glyph glyph-name="uni04AB" unicode="&#x4ab;" horiz-adv-x="584" 
d="M279 113q93 0 147 84l122 -43q-36 -65 -94.5 -106.5t-128.5 -53.5l-31 -142h-127l31 147q-77 19 -122 75.5t-45 138.5q0 127 94 220t225 93q84 0 146 -44t77 -120l-123 -43q-9 39 -38 61t-71 22q-69 0 -119.5 -53.5t-50.5 -124.5q0 -49 29.5 -80t78.5 -31z" />
    <glyph glyph-name="uni04AC" unicode="&#x4ac;" horiz-adv-x="592" 
d="M77 573l27 127h572l-27 -127h-214l-95 -446h81l-61 -287h-142l34 160h-82l122 573h-215z" />
    <glyph glyph-name="uni04AD" unicode="&#x4ad;" horiz-adv-x="514" 
d="M549 516l-26 -119h-168l-60 -278h73l-57 -267h-127l31 148h-80l85 397h-169l25 119h473z" />
    <glyph glyph-name="uni04AE" unicode="&#x4ae;" horiz-adv-x="663" 
d="M763 700l-363 -458l-25 -115h115l-27 -127h-372l27 127h114l25 115l-168 458h159l107 -316l240 316h168z" />
    <glyph glyph-name="uni04AF" unicode="&#x4af;" horiz-adv-x="548" 
d="M246 139l219 377h145l-328 -539l-38 -177h-135l38 179l-97 537h137z" />
    <glyph glyph-name="uni04B0" unicode="&#x4b0;" horiz-adv-x="663" 
d="M595 700h168l-313 -395h99l-23 -102h-134l-17 -76h115l-27 -127h-372l27 127h114l17 76h-136l22 102h99l-145 395h159l107 -316z" />
    <glyph glyph-name="uni04B1" unicode="&#x4b1;" horiz-adv-x="548" 
d="M465 516h145l-314 -516h118l-22 -103h-127l-21 -97h-135l21 97h-125l22 103h116l-93 516h137l59 -377z" />
    <glyph glyph-name="uni04B2" unicode="&#x4b2;" horiz-adv-x="742" 
d="M766 700l-323 -355l110 -218h149l-61 -287h-142l34 160h-81l-114 237l-210 -237h-178l323 355l-174 345h164l115 -236l210 236h178z" />
    <glyph glyph-name="uni04B3" unicode="&#x4b3;" horiz-adv-x="608" 
d="M603 516l-242 -261l70 -136h136l-57 -267h-127l31 148h-78l-75 164l-138 -164h-166l243 260l-133 256h157l75 -164l138 164h166z" />
    <glyph glyph-name="uni04B4" unicode="&#x4b4;" horiz-adv-x="928" 
d="M719 0h-549l122 573h-215l27 127h556l-27 -127h-198l-95 -446h323l122 573h143l-122 -573h82l-61 -287h-142z" />
    <glyph glyph-name="uni04B5" unicode="&#x4b5;" horiz-adv-x="776" 
d="M582 0h-447l85 397h-169l25 119h457l-26 -119h-152l-59 -278h234l84 397h135l-84 -397h70l-57 -267h-127z" />
    <glyph glyph-name="uni04B6" unicode="&#x4b6;" horiz-adv-x="688" 
d="M545 700h143l-122 -573h82l-61 -287h-142l34 160h-83l51 243q-78 -17 -146 -17q-286 0 -223 286l40 188h143l-42 -196q-17 -78 6.5 -114.5t104.5 -36.5q64 0 144 18z" />
    <glyph glyph-name="uni04B7" unicode="&#x4b7;" horiz-adv-x="582" 
d="M418 516h135l-84 -397h72l-57 -267h-127l31 148h-79l35 167q-60 -12 -116 -12q-119 0 -160.5 56.5t-18.5 166.5l30 138h135l-31 -146q-11 -50 6 -73.5t74 -23.5q51 0 106 11z" />
    <glyph glyph-name="uni04B8" unicode="&#x4b8;" horiz-adv-x="648" 
d="M474 371l71 329h143l-149 -700h-143l51 243q-42 -8 -91 -14l-23 -108h-103l23 107q-233 23 -175 284l40 188h143l-42 -196q-15 -61 -1.5 -98.5t62.5 -47.5l26 121h103l-26 -123q43 4 91 15z" />
    <glyph glyph-name="uni04B9" unicode="&#x4b9;" horiz-adv-x="553" 
d="M369 284l49 232h135l-109 -516h-135l35 167q-26 -5 -54 -8l-24 -112h-95l23 109q-99 8 -132.5 64t-12.5 158l30 138h135l-31 -146q-10 -36 -1.5 -60t38.5 -32l27 127h95l-27 -129q26 3 54 8z" />
    <glyph glyph-name="uni04BA" unicode="&#x4ba;" horiz-adv-x="649" 
d="M436 468q90 0 134.5 -68t21.5 -178l-47 -222h-143l46 218q12 56 -16 91.5t-82 35.5q-59 0 -104.5 -35.5t-56.5 -91.5l-46 -218h-143l149 700h143l-80 -374q35 67 94.5 104.5t129.5 37.5z" />
    <glyph glyph-name="uni04BB" unicode="&#x4bb;" horiz-adv-x="608" 
d="M416 526q90 0 130.5 -67t20.5 -163l-63 -296h-135l61 288q11 52 -13 83.5t-75 31.5q-54 0 -94.5 -32t-51.5 -82l-61 -289h-135l157 740h135l-75 -349q34 66 86 100.5t113 34.5z" />
    <glyph glyph-name="uni04BC" unicode="&#x4bc;" horiz-adv-x="932" 
d="M898 306h-574v-8q0 -77 48.5 -127t127.5 -50q68 0 127 34.5t96 88.5l124 -54q-55 -87 -148 -143.5t-207 -56.5q-136 0 -225.5 85.5t-89.5 210.5q0 15 1 22q-70 7 -108.5 40t-38.5 87q0 66 44 124h119q-35 -54 -35 -93q0 -40 39 -52q43 128 155.5 212t249.5 84
q77 0 141.5 -28.5t107.5 -81t57 -127t-11 -167.5zM595 579q-73 0 -136 -40t-99 -106h407q0 60 -46.5 103t-125.5 43z" />
    <glyph glyph-name="uni04BD" unicode="&#x4bd;" horiz-adv-x="738" 
d="M477 526q127 0 190.5 -93t23.5 -223h-400q4 -49 35.5 -76.5t80.5 -27.5q90 0 146 72l106 -50q-41 -61 -110.5 -99.5t-149.5 -38.5q-107 0 -174 61t-67 162q-64 9 -99.5 41.5t-35.5 84.5q0 65 44 124h120q-36 -54 -36 -94q0 -32 28 -47q35 90 116.5 147t181.5 57zM465 410
q-46 0 -88 -26t-65 -71h260q-3 40 -33 68.5t-74 28.5z" />
    <glyph glyph-name="uni04BE" unicode="&#x4be;" horiz-adv-x="932" 
d="M898 306h-574v-8q0 -77 48.5 -127t127.5 -50q68 0 127 34.5t96 88.5l124 -54q-46 -73 -120 -125.5t-165 -68.5l-33 -156h-143l34 157q-109 22 -176 102t-67 187q0 15 1 22q-70 7 -108.5 40t-38.5 87q0 66 44 124h119q-35 -54 -35 -93q0 -40 39 -52q43 128 155.5 212
t249.5 84q77 0 141.5 -28.5t107.5 -81t57 -127t-11 -167.5zM595 579q-73 0 -136 -40t-99 -106h407q0 60 -46.5 103t-125.5 43z" />
    <glyph glyph-name="uni04BF" unicode="&#x4bf;" horiz-adv-x="738" 
d="M477 526q127 0 190.5 -93t23.5 -223h-400q4 -49 35.5 -76.5t80.5 -27.5q90 0 146 72l106 -50q-33 -50 -87.5 -85.5t-118.5 -47.5l-31 -143h-127l31 146q-77 19 -122.5 76t-45.5 139q-64 9 -99.5 41.5t-35.5 84.5q0 65 44 124h120q-36 -54 -36 -94q0 -32 28 -47
q35 90 116.5 147t181.5 57zM465 410q-46 0 -88 -26t-65 -71h260q-3 40 -33 68.5t-74 28.5z" />
    <glyph glyph-name="uni04C0" unicode="&#x4c0;" horiz-adv-x="251" 
d="M143 0h-143l149 700h143z" />
    <glyph glyph-name="uni04C1" unicode="&#x4c1;" horiz-adv-x="1043" 
d="M616 732q-78 0 -125.5 44.5t-38.5 123.5h119q-14 -76 54 -76q70 0 87 76h118q-12 -80 -71.5 -124t-142.5 -44zM937 700h158l-267 -349l138 -351h-153l-114 287h-100l-61 -287h-143l61 287h-89l-230 -287h-170l290 368l-120 332h143l105 -287h98l61 287h143l-61 -287h91z
" />
    <glyph glyph-name="uni04C2" unicode="&#x4c2;" horiz-adv-x="837" 
d="M479 572q-72 0 -110.5 44.5t-28.5 121.5h107q-17 -74 41 -74t74 74h107q-10 -76 -63 -121t-127 -45zM720 516h152l-208 -257l115 -259h-147l-89 199h-70l-41 -199h-135l41 199h-60l-166 -199h-162l226 274l-100 242h136l84 -199h68l43 199h135l-43 -199h60z" />
    <glyph glyph-name="uni04C3" unicode="&#x4c3;" horiz-adv-x="673" 
d="M746 700l-268 -310q121 -52 121 -200q0 -168 -106 -284t-263 -116q-62 0 -102 10l37 130q37 -9 75 -9q83 0 145 72.5t62 165.5q0 128 -142 128h-101l-61 -287h-143l149 700h143l-61 -287h97l244 287h174z" />
    <glyph glyph-name="uni04C4" unicode="&#x4c4;" horiz-adv-x="582" 
d="M612 516l-213 -228q90 -47 90 -167q0 -150 -84 -240.5t-213 -90.5q-45 0 -86 10l34 119q33 -6 59 -6q62 0 104.5 49.5t42.5 136.5q0 54 -29 77t-91 23h-49l-42 -199h-135l110 516h135l-42 -199h44h19l178 199h168z" />
    <glyph glyph-name="uni04C5" unicode="&#x4c5;" horiz-adv-x="782" 
d="M239 700h543l-122 -573h90l-158 -287h-143l89 160h-48l122 573h-265l-49 -231q-42 -201 -109.5 -276t-215.5 -75h-19l27 127h16q48 0 75 16t48.5 65.5t43.5 150.5z" />
    <glyph glyph-name="uni04C6" unicode="&#x4c6;" horiz-adv-x="658" 
d="M182 516h447l-85 -397h81l-147 -267h-127l83 148h-50l85 397h-185l-31 -147q-31 -146 -85.5 -202.5t-184.5 -56.5h-19l25 119h17q54 0 77.5 26.5t43.5 121.5z" />
    <glyph glyph-name="uni04C7" unicode="&#x4c7;" horiz-adv-x="718" 
d="M554 413l61 287h143l-146 -686q-23 -106 -96.5 -165t-183.5 -59q-45 0 -86 10l37 130q31 -9 65 -9q47 0 80 28t44 78l55 260h-324l-60 -287h-143l149 700h143l-62 -287h324z" />
    <glyph glyph-name="uni04C8" unicode="&#x4c8;" horiz-adv-x="613" 
d="M437 317l42 199h135l-107 -502q-23 -106 -94.5 -165t-179.5 -59q-44 0 -85 10l34 119q33 -6 59 -6q108 0 132 106l38 180h-235l-41 -199h-135l110 516h135l-43 -199h235z" />
    <glyph glyph-name="uni04C9" unicode="&#x4c9;" horiz-adv-x="758" 
d="M615 700h143l-122 -573h90l-158 -287h-143l89 160h-48l61 287h-324l-60 -287h-143l149 700h143l-62 -287h324z" />
    <glyph glyph-name="uni04CA" unicode="&#x4ca;" horiz-adv-x="642" 
d="M479 516h135l-85 -397h80l-147 -267h-127l83 148h-49l42 199h-235l-41 -199h-135l110 516h135l-43 -199h234z" />
    <glyph glyph-name="uni04CB" unicode="&#x4cb;" horiz-adv-x="648" 
d="M474 371l71 329h143l-149 -700h-82l-34 -160h-143l61 287h82l24 116q-78 -17 -146 -17q-286 0 -223 286l40 188h143l-42 -196q-17 -78 6.5 -114.5t104.5 -36.5q64 0 144 18z" />
    <glyph glyph-name="uni04CC" unicode="&#x4cc;" horiz-adv-x="553" 
d="M369 284l49 232h135l-109 -516h-78l-32 -148h-127l51 235h69l17 80q-60 -12 -116 -12q-119 0 -160.5 56.5t-18.5 166.5l30 138h135l-31 -146q-11 -50 6 -73.5t74 -23.5q51 0 106 11z" />
    <glyph glyph-name="uni04CD" unicode="&#x4cd;" horiz-adv-x="929" 
d="M922 700l-122 -573h97l-158 -287h-143l89 160h-47l142 668l-268 -668h-253l17 663l-141 -663h-135l149 700h259l-17 -663l266 663h265z" />
    <glyph glyph-name="uni04CE" unicode="&#x4ce;" horiz-adv-x="779" 
d="M741 516l-84 -397h89l-147 -267h-127l83 148h-42l102 483l-190 -483h-219l15 483l-102 -483h-119l109 516h227l-15 -483l189 483h231z" />
    <glyph glyph-name="uni04CF" unicode="&#x4cf;" horiz-adv-x="243" 
d="M135 0h-135l157 740h135z" />
    <glyph glyph-name="uni04D0" unicode="&#x4d0;" horiz-adv-x="734" 
d="M461 732q-78 0 -125.5 44.5t-38.5 123.5h119q-14 -76 54 -76q70 0 87 76h118q-12 -80 -71.5 -124t-142.5 -44zM580 700l95 -700h-144l-19 152h-330l-80 -152h-152l376 700h254zM449 659l-200 -380h247z" />
    <glyph glyph-name="uni04D1" unicode="&#x4d1;" horiz-adv-x="539" 
d="M321 572q-72 0 -110.5 44.5t-28.5 121.5h107q-17 -74 41 -74t74 74h107q-10 -76 -63 -121t-127 -45zM317 526q101 0 154.5 -53t30.5 -160l-67 -313h-135l27 124q-66 -134 -190 -134q-58 0 -98 37.5t-40 97.5q0 75 57 121.5t159 56.5l103 10q51 5 57 40q5 28 -14.5 45
t-55.5 17q-91 0 -115 -78l-128 30q23 70 91 114.5t164 44.5zM191 97q53 0 99.5 36t55.5 82l3 15q-16 -12 -50 -16l-88 -10q-37 -4 -56.5 -21t-19.5 -41q0 -45 56 -45z" />
    <glyph glyph-name="uni04D2" unicode="&#x4d2;" horiz-adv-x="734" 
d="M372 748q-32 0 -55 23t-23 54t23 54.5t55 23.5q31 0 54 -23t23 -55q0 -31 -22.5 -54t-54.5 -23zM606 748q-32 0 -55 22.5t-23 54.5t23 55t55 23q31 0 54 -23t23 -55q0 -31 -22.5 -54t-54.5 -23zM580 700l95 -700h-144l-19 152h-330l-80 -152h-152l376 700h254zM449 659
l-200 -380h247z" />
    <glyph glyph-name="uni04D3" unicode="&#x4d3;" horiz-adv-x="539" 
d="M230 581q-32 0 -55 23t-23 55t23 54.5t55 22.5t54.5 -23t22.5 -54q0 -32 -23 -55t-54 -23zM461 736q32 0 55 -22.5t23 -54.5t-23 -55t-55 -23q-31 0 -54 23t-23 55q0 31 23 54t54 23zM317 526q101 0 154.5 -53t30.5 -160l-67 -313h-135l27 124q-66 -134 -190 -134
q-58 0 -98 37.5t-40 97.5q0 75 57 121.5t159 56.5l103 10q51 5 57 40q5 28 -14.5 45t-55.5 17q-91 0 -115 -78l-128 30q23 70 91 114.5t164 44.5zM191 97q53 0 99.5 36t55.5 82l3 15q-16 -12 -50 -16l-88 -10q-37 -4 -56.5 -21t-19.5 -41q0 -45 56 -45z" />
    <glyph glyph-name="uni04D4" unicode="&#x4d4;" horiz-adv-x="992" 
d="M1044 700l-27 -127h-322l-35 -160h313l-27 -126h-313l-33 -160h322l-27 -127h-465l32 152h-243l-119 -152h-170l557 700h557zM552 576l-233 -297h170z" />
    <glyph glyph-name="uni04D5" unicode="&#x4d5;" horiz-adv-x="947" 
d="M700 526q121 0 181 -93t20 -223h-400q4 -49 35 -76.5t80 -27.5q91 0 147 72l106 -50q-35 -61 -94.5 -99.5t-132.5 -38.5q-69 0 -116 42.5t-59 119.5l-32 -152h-135l27 124q-66 -134 -190 -134q-58 0 -98 37.5t-40 97.5q0 75 57 121.5t159 56.5l103 10q29 4 41.5 13
t15.5 27q5 28 -14.5 45t-55.5 17q-91 0 -115 -78l-128 30q23 70 91 114.5t164 44.5q135 0 177 -86q86 86 206 86zM674 410q-46 0 -87.5 -26t-64.5 -71h260q-3 40 -33 68.5t-75 28.5zM191 97q53 0 99.5 36t55.5 82l3 15q-16 -12 -50 -16l-88 -10q-75 -8 -75 -62q0 -45 55 -45
z" />
    <glyph glyph-name="uni04D6" unicode="&#x4d6;" horiz-adv-x="562" 
d="M211 900h119q-14 -76 54 -76q70 0 87 76h118q-12 -80 -71.5 -124t-142.5 -44q-78 0 -125.5 44.5t-38.5 123.5zM465 0h-465l149 700h465l-27 -127h-322l-35 -160h313l-27 -126h-313l-34 -160h323z" />
    <glyph glyph-name="uni04D7" unicode="&#x4d7;" horiz-adv-x="610" 
d="M356 572q-72 0 -110.5 44.5t-28.5 121.5h107q-17 -74 41 -74t74 74h107q-10 -76 -63 -121t-127 -45zM350 526q127 0 190.5 -93t23.5 -223h-400q4 -49 35 -76.5t80 -27.5q90 0 146 72l107 -50q-41 -60 -110.5 -99t-149.5 -39q-107 0 -174 61t-67 162q0 127 94 220t225 93z
M337 410q-46 0 -87.5 -26t-64.5 -71h260q-3 40 -33 68.5t-75 28.5z" />
    <glyph glyph-name="uni04D8" unicode="&#x4d8;" horiz-adv-x="804" 
d="M479 710q136 0 225.5 -85.5t89.5 -210.5q0 -112 -58.5 -210t-157 -156t-211.5 -58q-77 0 -141.5 28.5t-107.5 81t-56.5 127t11.5 167.5h574v8q0 77 -49 127t-127 50q-68 0 -127 -34.5t-96 -88.5l-125 54q56 87 148.5 143.5t207.5 56.5zM375 121q73 0 136.5 40.5
t99.5 105.5h-407q0 -60 46 -103t125 -43z" />
    <glyph glyph-name="uni04D9" unicode="&#x4d9;" horiz-adv-x="610" 
d="M338 526q107 0 174 -61t67 -163q0 -126 -94 -219t-224 -93q-127 0 -191 93t-23 223h399q-4 49 -35 76.5t-80 27.5q-90 0 -146 -73l-107 51q42 61 111.5 99.5t148.5 38.5zM273 106q46 0 87.5 26t64.5 71h-260q3 -40 33 -68.5t75 -28.5z" />
    <glyph glyph-name="uni04DA" unicode="&#x4da;" horiz-adv-x="804" 
d="M389 748q-32 0 -55 23t-23 54t23.5 54.5t54.5 23.5t54 -23t23 -55q0 -31 -23 -54t-54 -23zM623 748q-32 0 -55 22.5t-23 54.5t23 55t55 23q31 0 54 -23t23 -55q0 -31 -23 -54t-54 -23zM479 710q136 0 225.5 -85.5t89.5 -210.5q0 -112 -58.5 -210t-157 -156t-211.5 -58
q-77 0 -141.5 28.5t-107.5 81t-56.5 127t11.5 167.5h574v8q0 77 -49 127t-127 50q-68 0 -127 -34.5t-96 -88.5l-125 54q56 87 148.5 143.5t207.5 56.5zM375 121q73 0 136.5 40.5t99.5 105.5h-407q0 -60 46 -103t125 -43z" />
    <glyph glyph-name="uni04DB" unicode="&#x4db;" horiz-adv-x="610" 
d="M255 581q-32 0 -55 23t-23 55t23 54.5t55 22.5q31 0 54 -23t23 -54q0 -32 -23 -55t-54 -23zM486 581q-31 0 -54 23t-23 55q0 31 22.5 54t54.5 23t55 -22.5t23 -54.5t-23 -55t-55 -23zM338 526q107 0 174 -61t67 -163q0 -126 -94 -219t-224 -93q-127 0 -191 93t-23 223
h399q-4 49 -35 76.5t-80 27.5q-90 0 -146 -73l-107 51q42 61 111.5 99.5t148.5 38.5zM273 106q46 0 87.5 26t64.5 71h-260q3 -40 33 -68.5t75 -28.5z" />
    <glyph glyph-name="uni04DC" unicode="&#x4dc;" horiz-adv-x="1043" 
d="M526 748q-32 0 -55 23t-23 54t23 54.5t55 23.5q31 0 54 -23t23 -55q0 -31 -22.5 -54t-54.5 -23zM760 748q-32 0 -55 22.5t-23 54.5t23 55t55 23q31 0 54 -23t23 -55q0 -31 -22.5 -54t-54.5 -23zM937 700h158l-267 -349l138 -351h-153l-114 287h-100l-61 -287h-143l61 287
h-89l-230 -287h-170l290 368l-120 332h143l105 -287h98l61 287h143l-61 -287h91z" />
    <glyph glyph-name="uni04DD" unicode="&#x4dd;" horiz-adv-x="837" 
d="M388 581q-32 0 -55 23t-23 55t23 54.5t55 22.5t54.5 -23t22.5 -54q0 -32 -23 -55t-54 -23zM619 581q-31 0 -54 23t-23 55q0 31 23 54t54 23q32 0 55 -22.5t23 -54.5t-23 -55t-55 -23zM720 516h152l-208 -257l115 -259h-147l-89 199h-70l-41 -199h-135l41 199h-60
l-166 -199h-162l226 274l-100 242h136l84 -199h68l43 199h135l-43 -199h60z" />
    <glyph glyph-name="uni04DE" unicode="&#x4de;" horiz-adv-x="630" 
d="M309 748q-32 0 -55 23t-23 54t23.5 54.5t54.5 23.5t54 -23t23 -55q0 -31 -23 -54t-54 -23zM543 748q-32 0 -55 22.5t-23 54.5t23 55t55 23q31 0 54 -23t23 -55q0 -31 -23 -54t-54 -23zM646 536q0 -63 -56 -115.5t-159 -71.5q74 -15 110 -54t36 -92q0 -89 -85.5 -151
t-210.5 -62q-89 0 -161 32t-112 89l97 94q34 -40 85.5 -62t101.5 -22q58 0 98.5 28t40.5 68q0 70 -130 70h-90l27 126h90q78 0 121.5 24t43.5 69q0 34 -29 53.5t-75 19.5q-50 0 -111 -22t-111 -62l-70 103q59 53 140.5 82.5t161.5 29.5q107 0 177 -47.5t70 -126.5z" />
    <glyph glyph-name="uni04DF" unicode="&#x4df;" horiz-adv-x="528" 
d="M218 581q-32 0 -55 23t-23 55t23 54.5t55 22.5t54.5 -23t22.5 -54q0 -32 -23 -55t-54 -23zM449 581q-31 0 -54 23t-23 55q0 31 23 54t54 23q32 0 55 -22.5t23 -54.5t-23 -55t-55 -23zM303 526q101 0 156.5 -34t55.5 -95q0 -50 -48 -89.5t-128 -49.5q62 -8 92.5 -36.5
t30.5 -69.5q0 -68 -72 -115t-174 -47q-153 0 -228 92l89 86q26 -31 70.5 -46.5t83.5 -15.5q43 0 69 16t26 41q0 40 -92 40h-77l23 110h77q112 0 112 56q0 41 -73 41q-41 0 -91 -15.5t-90 -47.5l-54 92q42 41 108.5 64t133.5 23z" />
    <glyph glyph-name="uni04E0" unicode="&#x4e0;" horiz-adv-x="630" 
d="M171 700h490l-24 -110l-202 -176q65 -19 104.5 -68.5t39.5 -118.5q0 -104 -87 -170.5t-211 -66.5q-89 0 -161 32t-112 89l97 94q34 -40 85.5 -62t101.5 -22q59 0 99.5 29.5t40.5 76.5q0 79 -129 79h-65l23 109l184 158h-301z" />
    <glyph glyph-name="uni04E1" unicode="&#x4e1;" horiz-adv-x="510" 
d="M99 516h422l-23 -111l-198 -186q59 -23 94 -71t35 -115q0 -104 -78 -173.5t-188 -69.5q-99 0 -154.5 50.5t-57.5 128.5l125 29q-1 -37 25.5 -61t66.5 -24q50 0 85.5 33t35.5 83q0 44 -30.5 67t-87.5 23h-38l24 111l176 167h-258z" />
    <glyph glyph-name="uni04E2" unicode="&#x4e2;" horiz-adv-x="734" 
d="M337 876h325l-22 -102h-326zM149 32l342 668h283l-149 -700h-143l143 668l-342 -668h-283l149 700h143z" />
    <glyph glyph-name="uni04E3" unicode="&#x4e3;" horiz-adv-x="620" 
d="M248 710h316l-22 -102h-316zM132 26l247 490h243l-110 -516h-127l103 487l-246 -487h-242l110 516h127z" />
    <glyph glyph-name="uni04E4" unicode="&#x4e4;" horiz-adv-x="734" 
d="M372 748q-32 0 -55 23t-23 54t23 54.5t55 23.5q31 0 54 -23t23 -55q0 -31 -22.5 -54t-54.5 -23zM606 748q-32 0 -55 22.5t-23 54.5t23 55t55 23q31 0 54 -23t23 -55q0 -31 -22.5 -54t-54.5 -23zM149 32l342 668h283l-149 -700h-143l143 668l-342 -668h-283l149 700h143z
" />
    <glyph glyph-name="uni04E5" unicode="&#x4e5;" horiz-adv-x="620" 
d="M280 581q-32 0 -55 23t-23 55t23 54.5t55 22.5t54.5 -23t22.5 -54q0 -32 -23 -55t-54 -23zM511 581q-31 0 -54 23t-23 55q0 31 23 54t54 23q32 0 55 -22.5t23 -54.5t-23 -55t-55 -23zM132 26l247 490h243l-110 -516h-127l103 487l-246 -487h-242l110 516h127z" />
    <glyph glyph-name="uni04E6" unicode="&#x4e6;" horiz-adv-x="804" 
d="M329 825q0 31 23.5 54.5t54.5 23.5t54 -23t23 -55q0 -31 -23 -54t-54 -23q-32 0 -55 23t-23 54zM563 825q0 32 23 55t55 23q31 0 54 -23t23 -55q0 -31 -23 -54t-54 -23q-32 0 -55 22.5t-23 54.5zM49 286q0 113 58.5 210.5t158 155.5t213.5 58q139 0 227 -81.5t88 -214.5
q0 -112 -58.5 -210t-157.5 -156t-213 -58q-139 0 -227.5 81.5t-88.5 214.5zM196 298q0 -77 49 -127t128 -50q112 0 193 84.5t81 196.5q0 77 -49 127t-128 50q-112 0 -193 -84.5t-81 -196.5z" />
    <glyph glyph-name="uni04E7" unicode="&#x4e7;" horiz-adv-x="620" 
d="M188 659q0 32 23 54.5t55 22.5t54.5 -23t22.5 -54q0 -32 -23 -55t-54 -23q-32 0 -55 23t-23 55zM420 659q0 31 23 54t54 23q32 0 55 -22.5t23 -54.5t-23 -55t-55 -23q-31 0 -54 23t-23 55zM31 213q0 127 94 220t225 93q106 0 172.5 -61t66.5 -163q0 -126 -94 -219
t-223 -93q-107 0 -174 61t-67 162zM171 224q0 -49 29.5 -80t78.5 -31q69 0 119.5 54t50.5 125q0 49 -29.5 79.5t-78.5 30.5q-69 0 -119.5 -53.5t-50.5 -124.5z" />
    <glyph glyph-name="uni04E8" unicode="&#x4e8;" horiz-adv-x="804" 
d="M479 710q139 0 227 -81.5t88 -214.5q0 -112 -58.5 -210t-157.5 -156t-213 -58q-139 0 -227.5 81.5t-88.5 214.5q0 113 58.5 210.5t158 155.5t213.5 58zM470 579q-81 0 -148 -46.5t-100 -119.5h425q-4 73 -52.5 119.5t-124.5 46.5zM373 121q81 0 148 46.5t100 119.5h-425
q4 -73 52.5 -119.5t124.5 -46.5z" />
    <glyph glyph-name="uni04E9" unicode="&#x4e9;" horiz-adv-x="620" 
d="M350 526q106 0 172.5 -61t66.5 -163q0 -126 -94 -219t-223 -93q-107 0 -174 61t-67 162q0 127 94 220t225 93zM341 410q-48 0 -89.5 -26.5t-65.5 -70.5h270q-7 44 -38 70.5t-77 26.5zM279 106q48 0 89.5 26.5t65.5 70.5h-270q7 -44 38 -70.5t77 -26.5z" />
    <glyph glyph-name="uni04EA" unicode="&#x4ea;" horiz-adv-x="804" 
d="M407 748q-32 0 -55 23t-23 54t23.5 54.5t54.5 23.5t54 -23t23 -55q0 -31 -23 -54t-54 -23zM641 748q-32 0 -55 22.5t-23 54.5t23 55t55 23q31 0 54 -23t23 -55q0 -31 -23 -54t-54 -23zM479 710q139 0 227 -81.5t88 -214.5q0 -112 -58.5 -210t-157.5 -156t-213 -58
q-139 0 -227.5 81.5t-88.5 214.5q0 113 58.5 210.5t158 155.5t213.5 58zM470 579q-81 0 -148 -46.5t-100 -119.5h425q-4 73 -52.5 119.5t-124.5 46.5zM373 121q81 0 148 46.5t100 119.5h-425q4 -73 52.5 -119.5t124.5 -46.5z" />
    <glyph glyph-name="uni04EB" unicode="&#x4eb;" horiz-adv-x="620" 
d="M280 581q-32 0 -55 23t-23 55t23 54.5t55 22.5t54.5 -23t22.5 -54q0 -32 -23 -55t-54 -23zM511 581q-31 0 -54 23t-23 55q0 31 23 54t54 23q32 0 55 -22.5t23 -54.5t-23 -55t-55 -23zM350 526q106 0 172.5 -61t66.5 -163q0 -126 -94 -219t-223 -93q-107 0 -174 61
t-67 162q0 127 94 220t225 93zM341 410q-48 0 -89.5 -26.5t-65.5 -70.5h270q-7 44 -38 70.5t-77 26.5zM279 106q48 0 89.5 26.5t65.5 70.5h-270q7 -44 38 -70.5t77 -26.5z" />
    <glyph glyph-name="uni04EC" unicode="&#x4ec;" horiz-adv-x="763" 
d="M347 748q-32 0 -55 23t-23 54t23.5 54.5t54.5 23.5t54 -23t23 -55q0 -31 -23 -54t-54 -23zM581 748q-32 0 -55 22.5t-23 54.5t23 55t55 23q31 0 54 -23t23 -55q0 -31 -23 -54t-54 -23zM437 710q139 0 227.5 -81.5t88.5 -214.5q0 -112 -58.5 -210t-157.5 -156t-213 -58
q-117 0 -196 56.5t-106 146.5l140 50q16 -54 60.5 -88t109.5 -34q80 0 147.5 46.5t101.5 119.5h-306l27 126h305q-4 73 -53 119.5t-125 46.5q-67 0 -126 -33t-96 -89l-130 54q55 85 150 142t210 57z" />
    <glyph glyph-name="uni04ED" unicode="&#x4ed;" horiz-adv-x="584" 
d="M228 581q-32 0 -55 23t-23 55t23 54.5t55 22.5t54.5 -23t22.5 -54q0 -32 -23 -55t-54 -23zM459 581q-31 0 -54 23t-23 55q0 31 23 54t54 23q32 0 55 -22.5t23 -54.5t-23 -55t-55 -23zM313 526q107 0 174 -61t67 -163q0 -127 -94 -219.5t-225 -92.5q-84 0 -146 44t-78 120
l116 39q10 -40 41 -63.5t76 -23.5q48 0 89.5 26.5t65.5 70.5h-204l24 110h202q-7 44 -38 70.5t-77 26.5q-96 0 -154 -88l-115 40q43 77 116.5 120.5t159.5 43.5z" />
    <glyph glyph-name="uni04EE" unicode="&#x4ee;" horiz-adv-x="655" 
d="M298 876h325l-22 -102h-326zM360 371l240 329h156l-511 -700h-156l169 231l-159 469h150z" />
    <glyph glyph-name="uni04EF" unicode="&#x4ef;" horiz-adv-x="548" 
d="M212 710h316l-22 -102h-316zM224 36l239 480h146l-361 -716h-145l103 200h-101l-56 516h137z" />
    <glyph glyph-name="uni04F0" unicode="&#x4f0;" horiz-adv-x="655" 
d="M332 748q-32 0 -55 23t-23 54t23 54.5t55 23.5q31 0 54 -23t23 -55q0 -31 -22.5 -54t-54.5 -23zM566 748q-32 0 -55 22.5t-23 54.5t23 55t55 23q31 0 54 -23t23 -55q0 -31 -22.5 -54t-54.5 -23zM360 371l240 329h156l-511 -700h-156l169 231l-159 469h150z" />
    <glyph glyph-name="uni04F1" unicode="&#x4f1;" horiz-adv-x="548" 
d="M244 581q-32 0 -55 23t-23 55t23 54.5t55 22.5t54.5 -23t22.5 -54q0 -32 -23 -55t-54 -23zM475 581q-31 0 -54 23t-23 55q0 31 23 54t54 23q32 0 55 -22.5t23 -54.5t-23 -55t-55 -23zM224 36l239 480h146l-361 -716h-145l103 200h-101l-56 516h137z" />
    <glyph glyph-name="uni04F2" unicode="&#x4f2;" horiz-adv-x="655" 
d="M385 900h158l-188 -154h-134zM757 900l-188 -154h-134l164 154h158zM249 700l111 -329l240 329h156l-511 -700h-156l169 231l-159 469h150z" />
    <glyph glyph-name="uni04F3" unicode="&#x4f3;" horiz-adv-x="548" 
d="M298 739h142l-151 -160h-122zM631 739l-151 -160h-122l130 160h143zM186 516l38 -480l239 480h146l-361 -716h-145l103 200h-101l-56 516h137z" />
    <glyph glyph-name="uni04F4" unicode="&#x4f4;" horiz-adv-x="648" 
d="M329 748q-32 0 -55 23t-23 54t23.5 54.5t54.5 23.5t54 -23t23 -55q0 -31 -23 -54t-54 -23zM563 748q-32 0 -55 22.5t-23 54.5t23 55t55 23q31 0 54 -23t23 -55q0 -31 -23 -54t-54 -23zM474 371l71 329h143l-149 -700h-143l51 243q-78 -17 -146 -17q-286 0 -223 286
l40 188h143l-42 -196q-17 -78 6.5 -114.5t104.5 -36.5q64 0 144 18z" />
    <glyph glyph-name="uni04F5" unicode="&#x4f5;" horiz-adv-x="553" 
d="M246 581q-32 0 -55 23t-23 55t23 54.5t55 22.5t54.5 -23t22.5 -54q0 -32 -23 -55t-54 -23zM477 581q-31 0 -54 23t-23 55q0 31 23 54t54 23q32 0 55 -22.5t23 -54.5t-23 -55t-55 -23zM369 284l49 232h135l-109 -516h-135l35 167q-60 -12 -116 -12q-119 0 -160.5 56.5
t-18.5 166.5l30 138h135l-31 -146q-11 -50 6 -73.5t74 -23.5q51 0 106 11z" />
    <glyph glyph-name="uni04F6" unicode="&#x4f6;" horiz-adv-x="530" 
d="M0 0l149 700h465l-27 -127h-322l-95 -446h81l-61 -287h-142l34 160h-82z" />
    <glyph glyph-name="uni04F7" unicode="&#x4f7;" horiz-adv-x="455" 
d="M501 516l-26 -119h-256l-59 -278h72l-57 -267h-127l31 148h-79l110 516h391z" />
    <glyph glyph-name="uni04F8" unicode="&#x4f8;" horiz-adv-x="848" 
d="M351 825q0 31 23.5 54.5t54.5 23.5t54 -23t23 -55q0 -31 -23 -54t-54 -23q-32 0 -55 23t-23 54zM585 825q0 32 23 55t55 23q31 0 54 -23t23 -55q0 -31 -23 -54t-54 -23q-32 0 -55 22.5t-23 54.5zM292 0h-292l149 700h143l-51 -235h124q100 0 164 -56.5t64 -138.5
q0 -118 -84.5 -194t-216.5 -76zM740 0h-143l149 700h143zM214 338l-45 -211h131q62 0 103.5 38t41.5 93q0 36 -25 58t-67 22h-139z" />
    <glyph glyph-name="uni04F9" unicode="&#x4f9;" horiz-adv-x="748" 
d="M266 659q0 32 23 54.5t55 22.5t54.5 -23t22.5 -54q0 -32 -23 -55t-54 -23q-32 0 -55 23t-23 55zM498 659q0 31 23 54t54 23q32 0 55 -22.5t23 -54.5t-23 -55t-55 -23q-31 0 -54 23t-23 55zM264 0h-264l110 516h135l-32 -148h105q85 0 135.5 -43.5t50.5 -114.5
q0 -89 -68 -149.5t-172 -60.5zM640 0h-135l110 516h135zM187 249l-27 -130h116q38 0 63 22t25 53q0 26 -17 40.5t-46 14.5h-114z" />
    <glyph glyph-name="uni04FC" unicode="&#x4fc;" horiz-adv-x="676" 
d="M766 700l-323 -355l112 -222q36 -69 36 -128q0 -94 -63.5 -149.5t-165.5 -55.5q-44 0 -85 10l34 119q32 -6 59 -6q34 0 55.5 19t21.5 52q0 28 -16 59l-93 194l-210 -237h-178l323 355l-174 345h164l115 -236l210 236h178z" />
    <glyph glyph-name="uni04FD" unicode="&#x4fd;" horiz-adv-x="560" 
d="M603 516l-242 -261l73 -141q32 -61 32 -119q0 -94 -63.5 -149.5t-165.5 -55.5q-44 0 -85 10l34 119q33 -6 59 -6q41 0 63.5 18.5t22.5 52.5q0 28 -14 56l-56 123l-138 -163h-166l243 260l-133 256h157l75 -164l138 164h166z" />
    <glyph glyph-name="uni0510" unicode="&#x510;" horiz-adv-x="630" 
d="M280 121q50 0 111 22t111 62l71 -103q-60 -53 -141.5 -82.5t-161.5 -29.5q-107 0 -177 47.5t-70 126.5q0 63 56 115.5t159 71.5q-74 15 -110 54t-36 92q0 89 85.5 151t210.5 62q89 0 161.5 -32t112.5 -89l-98 -94q-33 40 -84.5 62t-101.5 22q-58 0 -99 -28t-41 -68
q0 -70 130 -70h90l-27 -126h-90q-78 0 -121 -24t-43 -69q0 -34 28.5 -53.5t74.5 -19.5z" />
    <glyph glyph-name="uni0511" unicode="&#x511;" horiz-adv-x="528" 
d="M232 106q45 0 94 17t83 50l58 -96q-43 -41 -110.5 -64t-139.5 -23q-95 0 -149 33t-54 96q0 50 48 89.5t127 49.5q-62 9 -93.5 38t-31.5 71q0 63 72.5 111t175.5 48q150 0 232 -87l-88 -87q-32 30 -77.5 44t-81.5 14q-45 0 -70 -15.5t-25 -40.5q0 -41 95 -41h75l-24 -110
h-75q-114 0 -114 -55q0 -18 18 -30t55 -12z" />
    <glyph glyph-name="uni0512" unicode="&#x512;" horiz-adv-x="742" 
d="M-27 -9h-19l27 127h16q48 0 75 16t48.5 65.5t43.5 150.5l75 350h543l-146 -686q-23 -106 -96.5 -165t-183.5 -59q-44 0 -87 10l37 130q32 -9 66 -9q47 0 80 28t44 78l116 546h-265l-49 -231q-42 -201 -109.5 -276t-215.5 -75z" />
    <glyph glyph-name="uni0513" unicode="&#x513;" horiz-adv-x="627" 
d="M-17 -9h-19l25 119h17q54 0 77.5 26.5t43.5 121.5l55 258h446l-106 -502q-22 -106 -93.5 -165t-179.5 -59q-45 0 -85 10l33 119q33 -6 60 -6q53 0 86.5 27.5t44.5 78.5l80 378h-184l-31 -147q-31 -146 -85.5 -202.5t-184.5 -56.5z" />
    <glyph glyph-name="uni051C" unicode="&#x51c;" horiz-adv-x="1064" 
d="M722 35l250 665h144l-263 -700h-259l22 658l-243 -658h-254l18 700h127l-17 -665l245 665h252z" />
    <glyph glyph-name="uni051D" unicode="&#x51d;" horiz-adv-x="847" 
d="M573 37l193 479h132l-217 -516h-224l14 482l-183 -482h-224l-5 516h123l-3 -480l174 480h243z" />
    <glyph glyph-name="uni0524" unicode="&#x524;" horiz-adv-x="758" 
d="M149 700h609l-122 -573h82l-61 -287h-142l34 160h-83l122 573h-323l-122 -573h-143z" />
    <glyph glyph-name="uni0525" unicode="&#x525;" horiz-adv-x="632" 
d="M110 516h494l-85 -397h72l-57 -267h-127l31 148h-79l84 397h-224l-84 -397h-135z" />
    <glyph glyph-name="uni0526" unicode="&#x526;" horiz-adv-x="694" 
d="M592 222l-20 -95h82l-61 -287h-142l34 160h-83l46 218q12 56 -16 91.5t-82 35.5q-59 0 -104.5 -35.5t-56.5 -91.5l-46 -218h-143l149 700h143l-80 -374q35 67 94.5 104.5t129.5 37.5q90 0 134.5 -68t21.5 -178z" />
    <glyph glyph-name="uni0527" unicode="&#x527;" horiz-adv-x="642" 
d="M567 296l-38 -177h72l-57 -267h-127l31 148h-79l61 288q11 52 -13 83.5t-75 31.5q-54 0 -94.5 -32t-51.5 -82l-61 -289h-135l157 740h135l-75 -349q34 66 86 100.5t113 34.5q90 0 130.5 -67t20.5 -163z" />
    <glyph glyph-name="Wgrave" unicode="&#x1e80;" horiz-adv-x="1064" 
d="M631 900l120 -154h-149l-128 154h157zM722 35l250 665h144l-263 -700h-259l22 658l-243 -658h-254l18 700h127l-17 -665l245 665h252z" />
    <glyph glyph-name="wgrave" unicode="&#x1e81;" horiz-adv-x="847" 
d="M499 739l80 -160h-133l-88 160h141zM573 37l193 479h132l-217 -516h-224l14 482l-183 -482h-224l-5 516h123l-3 -480l174 480h243z" />
    <glyph glyph-name="Wacute" unicode="&#x1e82;" horiz-adv-x="1064" 
d="M690 900h173l-192 -154h-149zM722 35l250 665h144l-263 -700h-259l22 658l-243 -658h-254l18 700h127l-17 -665l245 665h252z" />
    <glyph glyph-name="wacute" unicode="&#x1e83;" horiz-adv-x="847" 
d="M535 739h158l-154 -160h-135zM573 37l193 479h132l-217 -516h-224l14 482l-183 -482h-224l-5 516h123l-3 -480l174 480h243z" />
    <glyph glyph-name="Wdieresis" unicode="&#x1e84;" horiz-adv-x="1064" 
d="M537 748q-32 0 -55 23t-23 54t23.5 54.5t54.5 23.5t54 -23t23 -55q0 -31 -23 -54t-54 -23zM771 748q-32 0 -55 22.5t-23 54.5t23 55t55 23q31 0 54 -23t23 -55q0 -31 -23 -54t-54 -23zM722 35l250 665h144l-263 -700h-259l22 658l-243 -658h-254l18 700h127l-17 -665
l245 665h252z" />
    <glyph glyph-name="wdieresis" unicode="&#x1e85;" horiz-adv-x="847" 
d="M393 581q-32 0 -55 23t-23 55t23 54.5t55 22.5q31 0 54 -23t23 -54q0 -32 -23 -55t-54 -23zM624 581q-31 0 -54 23t-23 55q0 31 22.5 54t54.5 23t55 -22.5t23 -54.5t-23 -55t-55 -23zM573 37l193 479h132l-217 -516h-224l14 482l-183 -482h-224l-5 516h123l-3 -480
l174 480h243z" />
    <glyph glyph-name="uni1E9E" unicode="&#x1e9e;" horiz-adv-x="688" 
d="M382 700h322l-26 -119l-174 -167q63 -20 100 -69t37 -113q0 -105 -82.5 -173.5t-206.5 -68.5q-81 0 -148 32l41 112q48 -21 99 -21q64 0 105.5 34t41.5 84q0 80 -107 80h-64l23 110l154 152h-124q-51 0 -86.5 -31t-46.5 -84l-97 -458h-143l97 458q24 112 102.5 177
t182.5 65z" />
    <glyph glyph-name="uni1EA0" unicode="&#x1ea0;" horiz-adv-x="734" 
d="M580 700l95 -700h-144l-19 152h-330l-80 -152h-152l376 700h254zM449 659l-200 -380h247zM281 -62q34 0 58 -23.5t24 -57.5q0 -33 -24 -57.5t-58 -24.5q-33 0 -57 24.5t-24 57.5q0 34 24 57.5t57 23.5z" />
    <glyph glyph-name="uni1EA1" unicode="&#x1ea1;" horiz-adv-x="539" 
d="M317 526q101 0 154.5 -53t30.5 -160l-67 -313h-135l27 124q-66 -134 -190 -134q-58 0 -98 37.5t-40 97.5q0 75 57 121.5t159 56.5l103 10q51 5 57 40q5 28 -14.5 45t-55.5 17q-91 0 -115 -78l-128 30q23 70 91 114.5t164 44.5zM191 97q53 0 99.5 36t55.5 82l3 15
q-16 -12 -50 -16l-88 -10q-37 -4 -56.5 -21t-19.5 -41q0 -45 56 -45zM184 -62q34 0 58 -23.5t24 -57.5q0 -33 -24 -57.5t-58 -24.5q-33 0 -57 24.5t-24 57.5q0 34 24 57.5t57 23.5z" />
    <glyph glyph-name="uni1EA2" unicode="&#x1ea2;" horiz-adv-x="734" 
d="M506 895q-18 0 -30.5 -13t-14.5 -34h-103q5 57 49 91.5t109 34.5q60 0 93.5 -29t33.5 -72q0 -56 -44.5 -96t-120.5 -51l-16 71q76 24 76 66q0 32 -32 32zM675 0h-144l-19 152h-330l-80 -152h-152l376 700h254zM449 659l-200 -380h247z" />
    <glyph glyph-name="uni1EA3" unicode="&#x1ea3;" horiz-adv-x="539" 
d="M359 711q-19 0 -31.5 -13t-14.5 -34h-99q6 57 49.5 91.5t104.5 34.5q58 0 91 -29t33 -72q0 -56 -44.5 -96t-120.5 -51l-16 71q79 25 79 66q0 32 -31 32zM317 526q101 0 154.5 -53t30.5 -160l-67 -313h-135l27 124q-66 -134 -190 -134q-58 0 -98 37.5t-40 97.5
q0 75 57 121.5t159 56.5l103 10q51 5 57 40q5 28 -14.5 45t-55.5 17q-91 0 -115 -78l-128 30q23 70 91 114.5t164 44.5zM191 97q53 0 99.5 36t55.5 82l3 15q-16 -12 -50 -16l-88 -10q-37 -4 -56.5 -21t-19.5 -41q0 -45 56 -45z" />
    <glyph glyph-name="uni1EA4" unicode="&#x1ea4;" horiz-adv-x="734" 
d="M629 886l155 142h159l-176 -142h-138zM256 746l179 154h141l114 -154h-144l-53 69l-83 -69h-154zM580 700l95 -700h-144l-19 152h-330l-80 -152h-152l376 700h254zM449 659l-200 -380h247z" />
    </font>
</defs>
</svg>
