<svg width="42" height="40" viewBox="0 0 42 40" fill="none" xmlns="http://www.w3.org/2000/svg">
<path fill-rule="evenodd" clip-rule="evenodd" d="M18.1692 3.01184C18.1692 1.51186 19.3851 0.295898 20.8851 0.295898C22.3851 0.295898 23.601 1.51187 23.601 3.01184C23.601 4.25165 22.7703 5.29743 21.6351 5.6229V7.44714H20.1351V5.62289C18.9999 5.2974 18.1692 4.25163 18.1692 3.01184ZM20.8851 1.7959C20.2136 1.7959 19.6692 2.34029 19.6692 3.01184C19.6692 3.68338 20.2136 4.22777 20.8851 4.22777C21.5566 4.22777 22.101 3.68338 22.101 3.01184C22.101 2.34029 21.5566 1.7959 20.8851 1.7959Z" fill="white"/>
<path fill-rule="evenodd" clip-rule="evenodd" d="M15.2507 13.3839C13.2485 13.3839 11.6254 15.007 11.6254 17.0092C11.6254 19.0114 13.2485 20.6345 15.2507 20.6345C17.2529 20.6345 18.876 19.0114 18.876 17.0092C18.876 15.007 17.2529 13.3839 15.2507 13.3839ZM13.1254 17.0092C13.1254 15.8354 14.0769 14.8839 15.2507 14.8839C16.4245 14.8839 17.376 15.8354 17.376 17.0092C17.376 18.183 16.4245 19.1345 15.2507 19.1345C14.0769 19.1345 13.1254 18.183 13.1254 17.0092Z" fill="white"/>
<path fill-rule="evenodd" clip-rule="evenodd" d="M23.1566 17.0092C23.1566 15.007 24.7798 13.3839 26.782 13.3839C28.7842 13.3839 30.4073 15.007 30.4073 17.0092C30.4073 19.0114 28.7842 20.6345 26.782 20.6345C24.7798 20.6345 23.1566 19.0114 23.1566 17.0092ZM26.782 14.8839C25.6082 14.8839 24.6566 15.8354 24.6566 17.0092C24.6566 18.183 25.6082 19.1345 26.782 19.1345C27.9557 19.1345 28.9073 18.183 28.9073 17.0092C28.9073 15.8354 27.9557 14.8839 26.782 14.8839Z" fill="white"/>
<path fill-rule="evenodd" clip-rule="evenodd" d="M13.8208 23.672L13.9398 24.5255C14.3972 27.8089 17.3647 30.2814 20.8851 30.2814C24.4064 30.2814 27.3729 27.8089 27.8304 24.5255L27.9493 23.672H13.8208ZM20.8851 28.7814C18.3855 28.7814 16.3159 27.2402 15.6257 25.172H26.1445C25.4544 27.2403 23.3855 28.7814 20.8851 28.7814Z" fill="white"/>
<path fill-rule="evenodd" clip-rule="evenodd" d="M10.3916 8.73293C7.21175 8.73293 4.63492 11.3103 4.63492 14.4896V16.959H3.10867C1.78555 16.959 0.712891 18.0317 0.712891 19.3548V24.0943C0.712891 25.4172 1.78568 26.4894 3.10828 26.4901H4.63492V28.6965C4.63492 31.8758 7.21175 34.4532 10.3916 34.4532H13.4624V38.9129C13.4624 39.5434 14.1703 39.9261 14.6969 39.5667L22.3306 34.5062L24.0669 34.4739L29.564 34.4739L31.6135 34.4532C34.7911 34.4511 37.3663 31.8746 37.3663 28.6965V26.4901H38.8921C40.2152 26.4901 41.2879 25.4174 41.2879 24.0943V19.3548C41.2879 18.0317 40.2152 16.959 38.8921 16.959H37.3663V14.4896C37.3663 11.3103 34.789 8.73293 31.6096 8.73293H10.3916ZM6.13492 14.4896C6.13492 12.1387 8.04027 10.2329 10.3916 10.2329H31.6096C33.9605 10.2329 35.8663 12.1387 35.8663 14.4896V28.6965C35.8663 31.0475 33.9605 32.9532 31.6096 32.9532L29.5602 32.9739H24.0599L24.0459 32.974L21.8658 33.0146L14.9624 37.591V32.9532H10.3916C8.04027 32.9532 6.13492 31.0475 6.13492 28.6965V14.4896ZM2.21289 19.3548C2.21289 18.8601 2.61398 18.459 3.10867 18.459H4.53742V24.9901H3.10906C2.61385 24.9899 2.21289 24.5883 2.21289 24.0943V19.3548ZM37.4634 24.9901V18.459H38.8921C39.3868 18.459 39.7879 18.8601 39.7879 19.3548V24.0943C39.7879 24.589 39.3868 24.9901 38.8921 24.9901H37.4634Z" fill="white"/>
</svg>
