<svg width="24" height="24" viewBox="0 0 24 24" fill="none" xmlns="http://www.w3.org/2000/svg">
<g clip-path="url(#clip0_1_4588)">
<path d="M18.1398 2.34721L3.29055 7.29696C2.70542 7.49319 2.19505 7.86512 1.82902 8.36202C1.46299 8.85892 1.25912 9.45661 1.24521 10.0736C1.23129 10.6906 1.408 11.2969 1.75125 11.8098C2.0945 12.3227 2.58758 12.7173 3.16327 12.9397L8.65749 15.0398C8.7878 15.0931 8.90619 15.1718 9.00574 15.2714C9.1053 15.3709 9.18402 15.4893 9.23732 15.6196L11.3374 21.1138C11.5166 21.5805 11.8096 21.995 12.1897 22.3197C12.5699 22.6444 13.0251 22.8689 13.5141 22.9729C14.0031 23.0769 14.5103 23.057 14.9897 22.9151C15.469 22.7732 15.9053 22.5138 16.2589 22.1603C16.5867 21.826 16.8355 21.4225 16.9872 20.9795L21.937 6.13023C22.1115 5.60244 22.1359 5.03654 22.0075 4.49568C21.8791 3.95481 21.603 3.46025 21.2099 3.06718C20.8168 2.6741 20.3223 2.39797 19.7814 2.26959C19.2406 2.14122 18.6747 2.16564 18.1469 2.34014L18.1398 2.34721ZM20.0348 5.50091L15.0851 20.3502C15.0175 20.5426 14.8927 20.7097 14.7275 20.8292C14.5622 20.9487 14.3643 21.0148 14.1605 21.0186C13.9566 21.0225 13.7564 20.9639 13.5867 20.8507C13.417 20.7376 13.286 20.5752 13.2113 20.3855L11.1041 14.8984C11.0753 14.8258 11.0422 14.7549 11.0051 14.6862L15.8771 9.81426C16.0646 9.62672 16.1699 9.37237 16.1699 9.10715C16.1699 8.84194 16.0646 8.58758 15.8771 8.40005C15.6895 8.21251 15.4352 8.10715 15.1699 8.10715C14.9047 8.10715 14.6504 8.21251 14.4628 8.40005L9.59087 13.272C9.52215 13.2349 9.45132 13.2018 9.37874 13.173L3.89159 11.0658C3.70187 10.9911 3.53954 10.86 3.42638 10.6904C3.31323 10.5207 3.25464 10.3205 3.25849 10.1166C3.26234 9.91275 3.32843 9.7149 3.44791 9.54964C3.56739 9.38437 3.73454 9.25958 3.92695 9.19201L18.7762 4.24226C18.9514 4.18577 19.1387 4.17872 19.3176 4.22189C19.4965 4.26505 19.6601 4.35675 19.7902 4.48689C19.9203 4.61703 20.012 4.78056 20.0552 4.95948C20.0984 5.13839 20.0913 5.32574 20.0348 5.50091V5.50091Z" fill="#A7A7A7"/>
</g>
<defs>
<clipPath id="clip0_1_4588">
<rect width="24" height="24" fill="white"/>
</clipPath>
</defs>
</svg>
