<svg width="110" height="110" viewBox="0 0 110 110" fill="none" xmlns="http://www.w3.org/2000/svg">
<path fill-rule="evenodd" clip-rule="evenodd" d="M42.4961 43.2936V34.8165C42.4961 21.7497 53.3665 11 66.5801 11H78.8262C80.8549 11 82.5 12.6268 82.5 14.633V30.7798C82.5 32.7861 80.8549 34.4128 78.8262 34.4128H66.5801C66.3556 34.4128 66.1719 34.5945 66.1719 34.8165V43.2936H78.8262C79.9569 43.2936 81.0264 43.8103 81.7203 44.6903C82.4184 45.5743 82.6633 46.7207 82.3898 47.8066L78.3078 63.9534C77.8996 65.5721 76.43 66.7064 74.7441 66.7064H66.1719V95.367C66.1719 97.3732 64.5268 99 62.4981 99H46.1699C44.1412 99 42.4961 97.3732 42.4961 95.367V66.7064H33.9238C31.8951 66.7064 30.25 65.0796 30.25 63.0734V46.9266C30.25 44.9204 31.8951 43.2936 33.9238 43.2936H42.4961ZM75.1523 18.2661H66.5801C57.3996 18.2661 49.8438 25.738 49.8438 34.8165V46.9266C49.8438 48.9328 48.1987 50.5596 46.1699 50.5596H37.5977V59.4404H46.1699C48.1987 59.4404 49.8438 61.0672 49.8438 63.0734V91.7339H58.8242V63.0734C58.8242 61.0672 60.4693 59.4404 62.4981 59.4404H71.8745L74.1196 50.5596H62.4981C60.4693 50.5596 58.8242 48.9328 58.8242 46.9266V34.8165C58.8242 30.6103 62.3266 27.1468 66.5801 27.1468H75.1523V18.2661Z" fill="#1877F2"/>
</svg>
