<svg width="110" height="110" viewBox="0 0 110 110" fill="none" xmlns="http://www.w3.org/2000/svg">
<path d="M55 13C31.8407 13 13 31.8407 13 55C13 78.1593 31.8407 97 55 97C78.1593 97 97 78.1593 97 55C97 31.8407 78.1593 13 55 13ZM73.027 63.4724C73.2594 60.6777 73.3869 57.839 73.3869 55C73.3869 52.161 73.2594 49.3223 73.027 46.5276C83.3716 48.7799 88.871 52.6428 88.871 55C88.871 57.3572 83.3716 61.2201 73.027 63.4724ZM55 88.871C52.6428 88.871 48.7799 83.3716 46.5276 73.027C49.3223 73.2594 52.161 73.3869 55 73.3869C57.839 73.3869 60.6777 73.2594 63.4724 73.027C61.2201 83.3716 57.3572 88.871 55 88.871ZM55 65.2579C51.4768 65.2579 48.2407 65.0678 45.2406 64.7594C44.9321 61.7593 44.7421 58.5232 44.7421 55C44.7421 51.4768 44.9322 48.2407 45.2406 45.2406C48.2407 44.9322 51.4768 44.7421 55 44.7421C58.5232 44.7421 61.7593 44.9322 64.7594 45.2406C65.0678 48.2407 65.2579 51.4768 65.2579 55C65.2579 58.5232 65.0678 61.7593 64.7594 64.7594C61.7593 65.0679 58.5232 65.2579 55 65.2579ZM21.129 55C21.129 52.6428 26.6284 48.7799 36.973 46.5276C36.7406 49.3223 36.6131 52.161 36.6131 55C36.6131 57.839 36.7406 60.6777 36.973 63.4724C26.6284 61.2201 21.129 57.3572 21.129 55ZM55 21.129C57.3572 21.129 61.2201 26.6284 63.4724 36.973C60.6777 36.7406 57.839 36.6131 55 36.6131C52.161 36.6131 49.3223 36.7406 46.5276 36.973C48.7799 26.6284 52.6428 21.129 55 21.129ZM86.416 42.4034C82.3473 40.4801 77.3571 39.0401 71.928 38.072C70.9599 32.6429 69.5199 27.6527 67.5966 23.584C76.1495 27.0262 82.9738 33.8505 86.416 42.4034ZM42.4034 23.5842C40.4801 27.6529 39.0401 32.643 38.072 38.072C32.643 39.0401 27.6529 40.4798 23.5842 42.4033C27.0263 33.8503 33.8507 27.0263 42.4034 23.5842ZM23.5844 67.5967C27.653 69.5202 32.643 70.9599 38.072 71.928C39.0401 77.357 40.4798 82.347 42.4033 86.4156C33.8507 82.9735 27.0265 76.1493 23.5844 67.5967ZM67.5967 86.4158C69.5202 82.3471 70.9599 77.357 71.928 71.928C77.357 70.9599 82.3471 69.5199 86.4158 67.5966C82.9737 76.1493 76.1497 82.9737 67.5967 86.4158Z" fill="#00B1E0"/>
</svg>
