<svg width="110" height="110" viewBox="0 0 110 110" fill="none" xmlns="http://www.w3.org/2000/svg">
<path d="M39.4204 55C39.4204 46.3939 46.3955 39.4154 55.0019 39.4154C63.6083 39.4154 70.5871 46.3939 70.5871 55C70.5871 63.6061 63.6083 70.5846 55.0019 70.5846C46.3955 70.5846 39.4204 63.6061 39.4204 55ZM30.9953 55C30.9953 68.2584 41.7429 79.0056 55.0019 79.0056C68.2608 79.0056 79.0085 68.2584 79.0085 55C79.0085 41.7416 68.2608 30.9944 55.0019 30.9944C41.7429 30.9944 30.9953 41.7416 30.9953 55ZM74.3484 30.0427C74.3484 33.1393 76.8597 35.6543 79.9601 35.6543C83.0568 35.6543 85.5719 33.1393 85.5719 30.0427C85.5719 26.9462 83.0606 24.435 79.9601 24.435C76.8597 24.435 74.3484 26.9462 74.3484 30.0427ZM36.1123 93.0533C31.5542 92.8456 29.0769 92.0866 27.4304 91.4446C25.2476 90.595 23.6917 89.5829 22.0528 87.9478C20.4176 86.3127 19.4017 84.7569 18.5558 82.5742C17.9138 80.9277 17.1548 78.4505 16.9471 73.8926C16.7205 68.9646 16.6752 67.4843 16.6752 55C16.6752 42.5157 16.7243 41.0392 16.9471 36.1074C17.1548 31.5495 17.9176 29.076 18.5558 27.4258C19.4055 25.2431 20.4176 23.6873 22.0528 22.0484C23.6879 20.4133 25.2438 19.3975 27.4304 18.5516C29.0769 17.9097 31.5542 17.1506 36.1123 16.9429C41.0405 16.7164 42.5209 16.671 55.0019 16.671C67.4867 16.671 68.9633 16.7201 73.8952 16.9429C78.4534 17.1506 80.9269 17.9134 82.5772 18.5516C84.76 19.3975 86.3158 20.4133 87.9548 22.0484C89.59 23.6835 90.6021 25.2431 91.4517 27.4258C92.0937 29.0723 92.8528 31.5495 93.0605 36.1074C93.2871 41.0392 93.3324 42.5157 93.3324 55C93.3324 67.4805 93.2871 68.9608 93.0605 73.8926C92.8528 78.4505 92.09 80.9277 91.4517 82.5742C90.6021 84.7569 89.59 86.3127 87.9548 87.9478C86.3196 89.5829 84.76 90.595 82.5772 91.4446C80.9307 92.0866 78.4534 92.8456 73.8952 93.0533C68.967 93.2799 67.4867 93.3252 55.0019 93.3252C42.5209 93.3252 41.0405 93.2799 36.1123 93.0533M35.7271 8.53322C30.7498 8.75979 27.3511 9.54903 24.379 10.7046C21.305 11.8979 18.6993 13.499 16.0974 16.0971C13.4992 18.6951 11.898 21.3007 10.7047 24.3784C9.54908 27.3503 8.75981 30.7489 8.53323 35.726C8.30287 40.7107 8.25 42.3042 8.25 55C8.25 67.6958 8.30287 69.2893 8.53323 74.274C8.75981 79.2511 9.54908 82.6497 10.7047 85.6216C11.898 88.6955 13.4954 91.3049 16.0974 93.9029C18.6955 96.501 21.3013 98.0984 24.379 99.2954C27.3548 100.451 30.7498 101.24 35.7271 101.467C40.7157 101.693 42.3056 101.75 55.0019 101.75C67.7019 101.75 69.2918 101.697 74.2767 101.467C79.254 101.24 82.6527 100.451 85.6248 99.2954C88.6987 98.0984 91.3045 96.501 93.9064 93.9029C96.5046 91.3049 98.102 88.6955 99.2991 85.6216C100.455 82.6497 101.248 79.2511 101.471 74.274C101.697 69.2856 101.75 67.6958 101.75 55C101.75 42.3042 101.697 40.7107 101.471 35.726C101.244 30.7489 100.455 27.3503 99.2991 24.3784C98.102 21.3045 96.5046 18.6989 93.9064 16.0971C91.3082 13.499 88.6987 11.8979 85.6285 10.7046C82.6527 9.54903 79.254 8.75602 74.2804 8.53322C69.2956 8.30664 67.7019 8.25 55.0057 8.25C42.3056 8.25 40.7157 8.30287 35.7271 8.53322" fill="#969696"/>
<path d="M39.4204 55C39.4204 46.3939 46.3955 39.4154 55.0019 39.4154C63.6083 39.4154 70.5871 46.3939 70.5871 55C70.5871 63.6061 63.6083 70.5846 55.0019 70.5846C46.3955 70.5846 39.4204 63.6061 39.4204 55ZM30.9953 55C30.9953 68.2584 41.7429 79.0056 55.0019 79.0056C68.2608 79.0056 79.0085 68.2584 79.0085 55C79.0085 41.7416 68.2608 30.9944 55.0019 30.9944C41.7429 30.9944 30.9953 41.7416 30.9953 55ZM74.3484 30.0427C74.3484 33.1393 76.8597 35.6543 79.9601 35.6543C83.0568 35.6543 85.5719 33.1393 85.5719 30.0427C85.5719 26.9462 83.0606 24.435 79.9601 24.435C76.8597 24.435 74.3484 26.9462 74.3484 30.0427ZM36.1123 93.0533C31.5542 92.8456 29.0769 92.0866 27.4304 91.4446C25.2476 90.595 23.6917 89.5829 22.0528 87.9478C20.4176 86.3127 19.4017 84.7569 18.5558 82.5742C17.9138 80.9277 17.1548 78.4505 16.9471 73.8926C16.7205 68.9646 16.6752 67.4843 16.6752 55C16.6752 42.5157 16.7243 41.0392 16.9471 36.1074C17.1548 31.5495 17.9176 29.076 18.5558 27.4258C19.4055 25.2431 20.4176 23.6873 22.0528 22.0484C23.6879 20.4133 25.2438 19.3975 27.4304 18.5516C29.0769 17.9097 31.5542 17.1506 36.1123 16.9429C41.0405 16.7164 42.5209 16.671 55.0019 16.671C67.4867 16.671 68.9633 16.7201 73.8952 16.9429C78.4534 17.1506 80.9269 17.9134 82.5772 18.5516C84.76 19.3975 86.3158 20.4133 87.9548 22.0484C89.59 23.6835 90.6021 25.2431 91.4517 27.4258C92.0937 29.0723 92.8528 31.5495 93.0605 36.1074C93.2871 41.0392 93.3324 42.5157 93.3324 55C93.3324 67.4805 93.2871 68.9608 93.0605 73.8926C92.8528 78.4505 92.09 80.9277 91.4517 82.5742C90.6021 84.7569 89.59 86.3127 87.9548 87.9478C86.3196 89.5829 84.76 90.595 82.5772 91.4446C80.9307 92.0866 78.4534 92.8456 73.8952 93.0533C68.967 93.2799 67.4867 93.3252 55.0019 93.3252C42.5209 93.3252 41.0405 93.2799 36.1123 93.0533M35.7271 8.53322C30.7498 8.75979 27.3511 9.54903 24.379 10.7046C21.305 11.8979 18.6993 13.499 16.0974 16.0971C13.4992 18.6951 11.898 21.3007 10.7047 24.3784C9.54908 27.3503 8.75981 30.7489 8.53323 35.726C8.30287 40.7107 8.25 42.3042 8.25 55C8.25 67.6958 8.30287 69.2893 8.53323 74.274C8.75981 79.2511 9.54908 82.6497 10.7047 85.6216C11.898 88.6955 13.4954 91.3049 16.0974 93.9029C18.6955 96.501 21.3013 98.0984 24.379 99.2954C27.3548 100.451 30.7498 101.24 35.7271 101.467C40.7157 101.693 42.3056 101.75 55.0019 101.75C67.7019 101.75 69.2918 101.697 74.2767 101.467C79.254 101.24 82.6527 100.451 85.6248 99.2954C88.6987 98.0984 91.3045 96.501 93.9064 93.9029C96.5046 91.3049 98.102 88.6955 99.2991 85.6216C100.455 82.6497 101.248 79.2511 101.471 74.274C101.697 69.2856 101.75 67.6958 101.75 55C101.75 42.3042 101.697 40.7107 101.471 35.726C101.244 30.7489 100.455 27.3503 99.2991 24.3784C98.102 21.3045 96.5046 18.6989 93.9064 16.0971C91.3082 13.499 88.6987 11.8979 85.6285 10.7046C82.6527 9.54903 79.254 8.75602 74.2804 8.53322C69.2956 8.30664 67.7019 8.25 55.0057 8.25C42.3056 8.25 40.7157 8.30287 35.7271 8.53322" fill="url(#paint0_radial_1_4635)"/>
<defs>
<radialGradient id="paint0_radial_1_4635" cx="0" cy="0" r="1" gradientUnits="userSpaceOnUse" gradientTransform="translate(14.3009 99.7013) scale(118.709)">
<stop offset="0.09" stop-color="#FA8F21"/>
<stop offset="0.78" stop-color="#D82D7E"/>
</radialGradient>
</defs>
</svg>
