<svg width="111" height="110" viewBox="0 0 111 110" fill="none" xmlns="http://www.w3.org/2000/svg">
<path d="M76.5832 64.1668C75.6665 63.7085 69.7082 60.9585 68.7915 60.5002C67.8748 60.0418 66.9582 60.0418 66.0415 60.9585C65.1248 61.8752 63.2915 64.6252 62.3748 65.5418C61.9165 66.4585 60.9998 66.4585 60.0832 66.0002C56.8748 64.6252 53.6665 62.7918 50.9165 60.5002C48.6248 58.2085 46.3332 55.4585 44.4998 52.7085C44.0415 51.7918 44.4998 50.8752 44.9582 50.4168C45.4165 49.9585 45.8748 49.0418 46.7915 48.5835C47.2498 48.1252 47.7082 47.2085 47.7082 46.7502C48.1665 46.2918 48.1665 45.3752 47.7082 44.9168C47.2498 44.4585 44.9582 38.9585 44.0415 36.6668C43.5832 33.4585 42.6665 33.4585 41.7498 33.4585H39.4582C38.5415 33.4585 37.1665 34.3752 36.7082 34.8335C33.9582 37.5835 32.5832 40.7918 32.5832 44.4585C33.0415 48.5835 34.4165 52.7085 37.1665 56.3752C42.2082 63.7085 48.6248 69.6668 56.4165 73.3335C58.7082 74.2502 60.5415 75.1668 62.8332 75.6252C65.1248 76.5418 67.4165 76.5418 70.1665 76.0835C73.3748 75.6252 76.1248 73.3335 77.9582 70.5835C78.8748 68.7502 78.8748 66.9168 78.4165 65.0835L76.5832 64.1668M88.0415 22.4585C70.1665 4.5835 41.2915 4.5835 23.4165 22.4585C8.74984 37.1252 5.99984 59.5835 16.0832 77.4585L9.6665 100.833L33.9582 94.4168C40.8332 98.0835 48.1665 99.9168 55.4998 99.9168C80.7082 99.9168 100.875 79.7502 100.875 54.5418C101.333 42.6252 96.2915 31.1668 88.0415 22.4585M75.6665 86.6252C69.7082 90.2918 62.8332 92.5835 55.4998 92.5835C48.6248 92.5835 42.2082 90.7502 36.2498 87.5418L34.8748 86.6252L20.6665 90.2918L24.3332 76.5418L23.4165 75.1668C12.4165 56.8335 17.9165 33.9168 35.7915 22.4585C53.6665 11.0002 76.5832 16.9585 87.5832 34.3752C98.5832 52.2502 93.5415 75.6252 75.6665 86.6252Z" fill="#969696"/>
<path d="M76.5832 64.1668C75.6665 63.7085 69.7082 60.9585 68.7915 60.5002C67.8748 60.0418 66.9582 60.0418 66.0415 60.9585C65.1248 61.8752 63.2915 64.6252 62.3748 65.5418C61.9165 66.4585 60.9998 66.4585 60.0832 66.0002C56.8748 64.6252 53.6665 62.7918 50.9165 60.5002C48.6248 58.2085 46.3332 55.4585 44.4998 52.7085C44.0415 51.7918 44.4998 50.8752 44.9582 50.4168C45.4165 49.9585 45.8748 49.0418 46.7915 48.5835C47.2498 48.1252 47.7082 47.2085 47.7082 46.7502C48.1665 46.2918 48.1665 45.3752 47.7082 44.9168C47.2498 44.4585 44.9582 38.9585 44.0415 36.6668C43.5832 33.4585 42.6665 33.4585 41.7498 33.4585H39.4582C38.5415 33.4585 37.1665 34.3752 36.7082 34.8335C33.9582 37.5835 32.5832 40.7918 32.5832 44.4585C33.0415 48.5835 34.4165 52.7085 37.1665 56.3752C42.2082 63.7085 48.6248 69.6668 56.4165 73.3335C58.7082 74.2502 60.5415 75.1668 62.8332 75.6252C65.1248 76.5418 67.4165 76.5418 70.1665 76.0835C73.3748 75.6252 76.1248 73.3335 77.9582 70.5835C78.8748 68.7502 78.8748 66.9168 78.4165 65.0835L76.5832 64.1668M88.0415 22.4585C70.1665 4.5835 41.2915 4.5835 23.4165 22.4585C8.74984 37.1252 5.99984 59.5835 16.0832 77.4585L9.6665 100.833L33.9582 94.4168C40.8332 98.0835 48.1665 99.9168 55.4998 99.9168C80.7082 99.9168 100.875 79.7502 100.875 54.5418C101.333 42.6252 96.2915 31.1668 88.0415 22.4585M75.6665 86.6252C69.7082 90.2918 62.8332 92.5835 55.4998 92.5835C48.6248 92.5835 42.2082 90.7502 36.2498 87.5418L34.8748 86.6252L20.6665 90.2918L24.3332 76.5418L23.4165 75.1668C12.4165 56.8335 17.9165 33.9168 35.7915 22.4585C53.6665 11.0002 76.5832 16.9585 87.5832 34.3752C98.5832 52.2502 93.5415 75.6252 75.6665 86.6252Z" fill="url(#paint0_linear_1_4630)"/>
<defs>
<linearGradient id="paint0_linear_1_4630" x1="55.285" y1="9.05225" x2="55.285" y2="100.834" gradientUnits="userSpaceOnUse">
<stop stop-color="#61FD7D"/>
<stop offset="1" stop-color="#2BB826"/>
</linearGradient>
</defs>
</svg>
