<svg width="20" height="20" viewBox="0 0 20 20" fill="none" xmlns="http://www.w3.org/2000/svg">
<path d="M7.77842 10.4167C7.77842 8.95931 8.95957 7.77756 10.417 7.77756C11.8744 7.77756 13.0562 8.95931 13.0562 10.4167C13.0562 11.874 11.8744 13.0558 10.417 13.0558C8.95957 13.0558 7.77842 11.874 7.77842 10.4167ZM6.3517 10.4167C6.3517 12.6619 8.17171 14.4818 10.417 14.4818C12.6623 14.4818 14.4823 12.6619 14.4823 10.4167C14.4823 8.17148 12.6623 6.35154 10.417 6.35154C8.17171 6.35154 6.3517 8.17148 6.3517 10.4167ZM13.6931 6.19039C13.6931 6.71476 14.1184 7.14065 14.6434 7.14065C15.1678 7.14065 15.5937 6.71476 15.5937 6.19039C15.5937 5.66603 15.1685 5.24078 14.6434 5.24078C14.1184 5.24078 13.6931 5.66603 13.6931 6.19039ZM7.21822 16.8606C6.44634 16.8255 6.02683 16.6969 5.74801 16.5882C5.37838 16.4443 5.11491 16.273 4.83737 15.9961C4.56046 15.7192 4.38844 15.4557 4.24519 15.0861C4.13648 14.8073 4.00794 14.3878 3.97276 13.6159C3.93439 12.7814 3.92672 12.5308 3.92672 10.4167C3.92672 8.30257 3.93503 8.05254 3.97276 7.21739C4.00794 6.44554 4.13712 6.02669 4.24519 5.74724C4.38908 5.37762 4.56046 5.11416 4.83737 4.83663C5.11427 4.55974 5.37774 4.38772 5.74801 4.24448C6.02683 4.13577 6.44634 4.00724 7.21822 3.97207C8.05276 3.9337 8.30345 3.92602 10.417 3.92602C12.5312 3.92602 12.7812 3.93434 13.6164 3.97207C14.3883 4.00724 14.8071 4.13641 15.0866 4.24448C15.4562 4.38772 15.7197 4.55974 15.9972 4.83663C16.2741 5.11352 16.4455 5.37762 16.5894 5.74724C16.6981 6.02605 16.8267 6.44554 16.8618 7.21739C16.9002 8.05254 16.9079 8.30257 16.9079 10.4167C16.9079 12.5301 16.9002 12.7808 16.8618 13.6159C16.8267 14.3878 16.6975 14.8073 16.5894 15.0861C16.4455 15.4557 16.2741 15.7192 15.9972 15.9961C15.7203 16.273 15.4562 16.4443 15.0866 16.5882C14.8078 16.6969 14.3883 16.8255 13.6164 16.8606C12.7819 16.899 12.5312 16.9067 10.417 16.9067C8.30345 16.9067 8.05276 16.899 7.21822 16.8606ZM7.15299 2.54796C6.31013 2.58633 5.73458 2.71998 5.2313 2.91566C4.71074 3.11773 4.26949 3.38887 3.82888 3.82882C3.3889 4.26878 3.11776 4.71002 2.91567 5.23119C2.71999 5.73445 2.58633 6.30998 2.54796 7.1528C2.50895 7.9969 2.5 8.26676 2.5 10.4167C2.5 12.5666 2.50895 12.8364 2.54796 13.6805C2.58633 14.5234 2.71999 15.0989 2.91567 15.6021C3.11776 16.1227 3.38826 16.5646 3.82888 17.0045C4.26885 17.4445 4.71011 17.715 5.2313 17.9177C5.73522 18.1134 6.31013 18.247 7.15299 18.2854C7.99777 18.3237 8.26699 18.3333 10.417 18.3333C12.5676 18.3333 12.8368 18.3244 13.681 18.2854C14.5238 18.247 15.0994 18.1134 15.6027 17.9177C16.1232 17.715 16.5645 17.4445 17.0051 17.0045C17.4451 16.5646 17.7156 16.1227 17.9183 15.6021C18.114 15.0989 18.2483 14.5234 18.286 13.6805C18.3244 12.8358 18.3333 12.5666 18.3333 10.4167C18.3333 8.26676 18.3244 7.9969 18.286 7.1528C18.2476 6.30998 18.114 5.73445 17.9183 5.23119C17.7156 4.71066 17.4451 4.26942 17.0051 3.82882C16.5651 3.38887 16.1232 3.11773 15.6033 2.91566C15.0994 2.71998 14.5238 2.58569 13.6816 2.54796C12.8375 2.50959 12.5676 2.5 10.4176 2.5C8.26699 2.5 7.99777 2.50895 7.15299 2.54796Z" fill="#626262"/>
</svg>
