<svg width="375" height="353" viewBox="0 0 375 353" fill="none" xmlns="http://www.w3.org/2000/svg">
<circle cx="253" cy="183" r="121.5" stroke="#FFB3B0"/>
<circle cx="205" cy="183" r="169.5" stroke="#FFB3B0"/>
<circle cx="63.5" cy="102.5" r="30" fill="#68000F" stroke="#FFB3B0"/>
<path d="M59.0012 102C59.0012 99.2387 61.2392 96.9996 64.0006 96.9996C66.762 96.9996 69.0012 99.2387 69.0012 102C69.0012 104.761 66.762 107 64.0006 107C61.2392 107 59.0012 104.761 59.0012 102ZM56.298 102C56.298 106.254 59.7464 109.702 64.0006 109.702C68.2548 109.702 71.7033 106.254 71.7033 102C71.7033 97.746 68.2548 94.2977 64.0006 94.2977C59.7464 94.2977 56.298 97.746 56.298 102ZM70.208 93.9923C70.208 94.9859 71.0138 95.7928 72.0086 95.7928C73.0022 95.7928 73.8092 94.9859 73.8092 93.9923C73.8092 92.9988 73.0034 92.1931 72.0086 92.1931C71.0138 92.1931 70.208 92.9988 70.208 93.9923ZM57.9398 114.21C56.4773 114.143 55.6824 113.899 55.1541 113.693C54.4538 113.421 53.9546 113.096 53.4287 112.571C52.904 112.047 52.5781 111.548 52.3067 110.847C52.1007 110.319 51.8571 109.524 51.7905 108.062C51.7178 106.481 51.7033 106.006 51.7033 102C51.7033 97.9943 51.719 97.5206 51.7905 95.9382C51.8571 94.4758 52.1019 93.6821 52.3067 93.1527C52.5793 92.4523 52.904 91.9532 53.4287 91.4273C53.9534 90.9027 54.4526 90.5767 55.1541 90.3053C55.6824 90.0994 56.4773 89.8558 57.9398 89.7892C59.521 89.7165 59.996 89.7019 64.0006 89.7019C68.0064 89.7019 68.4802 89.7177 70.0626 89.7892C71.5251 89.8558 72.3188 90.1006 72.8483 90.3053C73.5486 90.5767 74.0479 90.9027 74.5737 91.4273C75.0984 91.9519 75.4231 92.4523 75.6957 93.1527C75.9017 93.6809 76.1453 94.4758 76.2119 95.9382C76.2846 97.5206 76.2992 97.9943 76.2992 102C76.2992 106.004 76.2846 106.479 76.2119 108.062C76.1453 109.524 75.9005 110.319 75.6957 110.847C75.4231 111.548 75.0984 112.047 74.5737 112.571C74.0491 113.096 73.5486 113.421 72.8483 113.693C72.32 113.899 71.5251 114.143 70.0626 114.21C68.4814 114.282 68.0064 114.297 64.0006 114.297C59.996 114.297 59.521 114.282 57.9398 114.21ZM57.8162 87.0909C56.2192 87.1636 55.1287 87.4168 54.1751 87.7876C53.1888 88.1704 52.3527 88.6842 51.5179 89.5178C50.6842 90.3514 50.1705 91.1874 49.7876 92.1749C49.4168 93.1284 49.1636 94.2189 49.0909 95.8158C49.017 97.4152 49 97.9265 49 102C49 106.074 49.017 106.585 49.0909 108.184C49.1636 109.781 49.4168 110.872 49.7876 111.825C50.1705 112.811 50.683 113.649 51.5179 114.482C52.3515 115.316 53.1876 115.828 54.1751 116.212C55.1299 116.583 56.2192 116.836 57.8162 116.909C59.4168 116.982 59.9269 117 64.0006 117C68.0755 117 68.5856 116.983 70.185 116.909C71.782 116.836 72.8725 116.583 73.8261 116.212C74.8124 115.828 75.6485 115.316 76.4833 114.482C77.317 113.649 77.8295 112.811 78.2136 111.825C78.5844 110.872 78.8388 109.781 78.9103 108.184C78.983 106.584 79 106.074 79 102C79 97.9265 78.983 97.4152 78.9103 95.8158C78.8376 94.2189 78.5844 93.1284 78.2136 92.1749C77.8295 91.1886 77.317 90.3526 76.4833 89.5178C75.6497 88.6842 74.8124 88.1704 73.8273 87.7876C72.8725 87.4168 71.782 87.1624 70.1862 87.0909C68.5868 87.0182 68.0755 87 64.0018 87C59.9269 87 59.4168 87.017 57.8162 87.0909Z" fill="white"/>
<circle cx="138.5" cy="213.5" r="30" fill="#68000F" stroke="#FFB3B0"/>
<path d="M145.9 216C145.6 215.85 143.65 214.95 143.35 214.8C143.05 214.65 142.75 214.65 142.45 214.95C142.15 215.25 141.55 216.15 141.25 216.45C141.1 216.75 140.8 216.75 140.5 216.6C139.45 216.15 138.4 215.55 137.5 214.8C136.75 214.05 136 213.15 135.4 212.25C135.25 211.95 135.4 211.65 135.55 211.5C135.7 211.35 135.85 211.05 136.15 210.9C136.3 210.75 136.45 210.45 136.45 210.3C136.6 210.15 136.6 209.85 136.45 209.7C136.3 209.55 135.55 207.75 135.25 207C135.1 205.95 134.8 205.95 134.5 205.95H133.75C133.45 205.95 133 206.25 132.85 206.4C131.95 207.3 131.5 208.35 131.5 209.55C131.65 210.9 132.1 212.25 133 213.45C134.65 215.85 136.75 217.8 139.3 219C140.05 219.3 140.65 219.6 141.4 219.75C142.15 220.05 142.9 220.05 143.8 219.9C144.85 219.75 145.75 219 146.35 218.1C146.65 217.5 146.65 216.9 146.5 216.3L145.9 216ZM149.65 202.35C143.8 196.5 134.35 196.5 128.5 202.35C123.7 207.15 122.8 214.5 126.1 220.35L124 228L131.95 225.9C134.2 227.1 136.6 227.7 139 227.7C147.25 227.7 153.85 221.1 153.85 212.85C154 208.95 152.35 205.2 149.65 202.35ZM145.6 223.35C143.65 224.55 141.4 225.3 139 225.3C136.75 225.3 134.65 224.7 132.7 223.65L132.25 223.35L127.6 224.55L128.8 220.05L128.5 219.6C124.9 213.6 126.7 206.1 132.55 202.35C138.4 198.6 145.9 200.55 149.5 206.25C153.1 212.1 151.45 219.75 145.6 223.35Z" fill="white"/>
<circle cx="220.5" cy="71.5" r="30" fill="#68000F" stroke="#FFB3B0"/>
<g clip-path="url(#clip0_2_465)">
<path fill-rule="evenodd" clip-rule="evenodd" d="M214.65 66.6499V63.4999C214.65 58.6444 218.645 54.6499 223.5 54.6499H228C228.746 54.6499 229.35 55.2544 229.35 55.9999V61.9999C229.35 62.7454 228.746 63.3499 228 63.3499H223.5C223.418 63.3499 223.35 63.4174 223.35 63.4999V66.6499H228C228.416 66.6499 228.809 66.8419 229.064 67.1689C229.32 67.4974 229.41 67.9234 229.31 68.3269L227.81 74.3269C227.66 74.9284 227.12 75.3499 226.5 75.3499H223.35V85.9999C223.35 86.7454 222.746 87.3499 222 87.3499H216C215.255 87.3499 214.65 86.7454 214.65 85.9999V75.3499H211.5C210.755 75.3499 210.15 74.7454 210.15 73.9999V67.9999C210.15 67.2544 210.755 66.6499 211.5 66.6499H214.65ZM226.65 57.3499H223.5C220.127 57.3499 217.35 60.1264 217.35 63.4999V67.9999C217.35 68.7454 216.746 69.3499 216 69.3499H212.85V72.6499H216C216.746 72.6499 217.35 73.2544 217.35 73.9999V84.6499H220.65V73.9999C220.65 73.2544 221.255 72.6499 222 72.6499H225.446L226.271 69.3499H222C221.255 69.3499 220.65 68.7454 220.65 67.9999V63.4999C220.65 61.9369 221.937 60.6499 223.5 60.6499H226.65V57.3499Z" fill="white"/>
</g>
<rect x="160" width="122" height="34" rx="10" fill="#FFEDEB"/>
<path d="M176.965 15.764C177.621 15.828 178.141 16.044 178.525 16.412C178.909 16.78 179.101 17.244 179.101 17.804C179.101 18.436 178.873 18.96 178.417 19.376C177.961 19.792 177.365 20 176.629 20H172.765V11.6H176.269C176.997 11.6 177.589 11.812 178.045 12.236C178.509 12.66 178.741 13.184 178.741 13.808C178.741 14.312 178.581 14.736 178.261 15.08C177.949 15.424 177.517 15.652 176.965 15.764ZM176.161 12.752H174.061V15.236H176.161C176.561 15.236 176.885 15.12 177.133 14.888C177.381 14.648 177.505 14.348 177.505 13.988C177.505 13.628 177.381 13.332 177.133 13.1C176.885 12.868 176.561 12.752 176.161 12.752ZM174.061 18.848H176.425C176.825 18.848 177.149 18.732 177.397 18.5C177.645 18.26 177.769 17.96 177.769 17.6C177.769 17.24 177.645 16.944 177.397 16.712C177.149 16.48 176.825 16.364 176.425 16.364H174.061V18.848ZM183.681 13.748C184.665 13.748 185.465 14.1 186.081 14.804C186.697 15.508 186.949 16.36 186.837 17.36H181.761C181.849 17.856 182.077 18.26 182.445 18.572C182.813 18.876 183.257 19.028 183.777 19.028C184.177 19.028 184.533 18.932 184.845 18.74C185.165 18.54 185.413 18.272 185.589 17.936L186.645 18.404C186.373 18.924 185.985 19.34 185.481 19.652C184.977 19.964 184.397 20.12 183.741 20.12C182.821 20.12 182.049 19.816 181.425 19.208C180.801 18.6 180.489 17.844 180.489 16.94C180.489 16.036 180.793 15.28 181.401 14.672C182.017 14.056 182.777 13.748 183.681 13.748ZM183.681 14.84C183.217 14.84 182.813 14.984 182.469 15.272C182.133 15.552 181.909 15.92 181.797 16.376H185.565C185.461 15.92 185.237 15.552 184.893 15.272C184.557 14.984 184.153 14.84 183.681 14.84ZM188.194 18.38L189.454 18.116C189.566 18.772 190.014 19.1 190.798 19.1C191.198 19.1 191.518 19.024 191.758 18.872C192.006 18.712 192.13 18.512 192.13 18.272C192.13 18.016 192.002 17.824 191.746 17.696C191.49 17.56 191.178 17.464 190.81 17.408C190.442 17.344 190.07 17.268 189.694 17.18C189.326 17.092 189.014 16.92 188.758 16.664C188.502 16.4 188.374 16.048 188.374 15.608C188.374 15.072 188.602 14.628 189.058 14.276C189.522 13.924 190.102 13.748 190.798 13.748C191.494 13.748 192.062 13.904 192.502 14.216C192.95 14.528 193.218 14.952 193.306 15.488L192.046 15.752C191.95 15.096 191.534 14.768 190.798 14.768C190.462 14.768 190.186 14.84 189.97 14.984C189.754 15.128 189.646 15.316 189.646 15.548C189.646 15.756 189.738 15.924 189.922 16.052C190.106 16.18 190.338 16.264 190.618 16.304C190.898 16.344 191.198 16.404 191.518 16.484C191.846 16.564 192.15 16.656 192.43 16.76C192.71 16.856 192.942 17.032 193.126 17.288C193.31 17.544 193.402 17.864 193.402 18.248C193.402 18.784 193.15 19.232 192.646 19.592C192.15 19.944 191.534 20.12 190.798 20.12C190.07 20.12 189.478 19.964 189.022 19.652C188.566 19.34 188.29 18.916 188.194 18.38ZM195.647 14.984H194.339V13.868H195.647V11.876L196.907 11.48V13.868H198.635V14.984H196.907V17.816C196.907 18.192 196.991 18.464 197.159 18.632C197.327 18.8 197.595 18.884 197.963 18.884H198.635V20H197.963C197.171 20 196.587 19.816 196.211 19.448C195.835 19.08 195.647 18.516 195.647 17.756V14.984ZM207.853 20H206.533V12.788H203.821V11.6H210.565V12.788H207.853V20ZM212.568 13.868V15.488C212.768 14.76 213.08 14.268 213.504 14.012C213.936 13.756 214.424 13.692 214.968 13.82V15.02C214.304 14.836 213.736 14.896 213.264 15.2C212.8 15.496 212.568 15.94 212.568 16.532V20H211.308V13.868H212.568ZM218.582 13.748C219.318 13.748 219.918 13.94 220.382 14.324C220.846 14.708 221.078 15.26 221.078 15.98V20H219.818V18.368C219.442 19.536 218.686 20.12 217.55 20.12C217.022 20.12 216.582 19.964 216.23 19.652C215.878 19.332 215.702 18.916 215.702 18.404C215.702 17.804 215.914 17.356 216.338 17.06C216.762 16.756 217.302 16.568 217.958 16.496L219.146 16.376C219.594 16.336 219.818 16.136 219.818 15.776C219.818 15.48 219.702 15.244 219.47 15.068C219.246 14.892 218.95 14.804 218.582 14.804C218.206 14.804 217.886 14.9 217.622 15.092C217.366 15.284 217.202 15.564 217.13 15.932L215.882 15.632C215.994 15.056 216.294 14.6 216.782 14.264C217.27 13.92 217.87 13.748 218.582 13.748ZM217.958 19.1C218.478 19.1 218.918 18.928 219.278 18.584C219.638 18.232 219.818 17.824 219.818 17.36V17.024C219.722 17.184 219.49 17.284 219.122 17.324L217.958 17.468C217.654 17.508 217.41 17.6 217.226 17.744C217.05 17.88 216.962 18.068 216.962 18.308C216.962 18.548 217.05 18.74 217.226 18.884C217.41 19.028 217.654 19.1 217.958 19.1ZM225.305 19.616L227.189 13.868H228.473L226.325 20H224.189L222.041 13.868H223.409L225.305 19.616ZM232.26 13.748C233.244 13.748 234.044 14.1 234.66 14.804C235.276 15.508 235.528 16.36 235.416 17.36H230.34C230.428 17.856 230.656 18.26 231.024 18.572C231.392 18.876 231.836 19.028 232.356 19.028C232.756 19.028 233.112 18.932 233.424 18.74C233.744 18.54 233.992 18.272 234.168 17.936L235.224 18.404C234.952 18.924 234.564 19.34 234.06 19.652C233.556 19.964 232.976 20.12 232.32 20.12C231.4 20.12 230.628 19.816 230.004 19.208C229.38 18.6 229.068 17.844 229.068 16.94C229.068 16.036 229.372 15.28 229.98 14.672C230.596 14.056 231.356 13.748 232.26 13.748ZM232.26 14.84C231.796 14.84 231.392 14.984 231.048 15.272C230.712 15.552 230.488 15.92 230.376 16.376H234.144C234.04 15.92 233.816 15.552 233.472 15.272C233.136 14.984 232.732 14.84 232.26 14.84ZM238.392 20H237.132V11.12H238.392V20ZM247.545 20H244.401V11.6H247.545C248.769 11.6 249.785 12.004 250.593 12.812C251.409 13.612 251.817 14.608 251.817 15.8C251.817 16.992 251.409 17.992 250.593 18.8C249.785 19.6 248.769 20 247.545 20ZM245.733 12.788V18.812H247.449C248.321 18.812 249.037 18.528 249.597 17.96C250.165 17.384 250.449 16.664 250.449 15.8C250.449 14.928 250.165 14.208 249.597 13.64C249.037 13.072 248.321 12.788 247.449 12.788H245.733ZM256.232 13.748C257.216 13.748 258.016 14.1 258.632 14.804C259.248 15.508 259.5 16.36 259.388 17.36H254.312C254.4 17.856 254.628 18.26 254.996 18.572C255.364 18.876 255.808 19.028 256.328 19.028C256.728 19.028 257.084 18.932 257.396 18.74C257.716 18.54 257.964 18.272 258.14 17.936L259.196 18.404C258.924 18.924 258.536 19.34 258.032 19.652C257.528 19.964 256.948 20.12 256.292 20.12C255.372 20.12 254.6 19.816 253.976 19.208C253.352 18.6 253.04 17.844 253.04 16.94C253.04 16.036 253.344 15.28 253.952 14.672C254.568 14.056 255.328 13.748 256.232 13.748ZM256.232 14.84C255.768 14.84 255.364 14.984 255.02 15.272C254.684 15.552 254.46 15.92 254.348 16.376H258.116C258.012 15.92 257.788 15.552 257.444 15.272C257.108 14.984 256.704 14.84 256.232 14.84ZM263.624 13.748C264.36 13.748 264.96 13.94 265.424 14.324C265.888 14.708 266.12 15.26 266.12 15.98V20H264.86V18.368C264.484 19.536 263.728 20.12 262.592 20.12C262.064 20.12 261.624 19.964 261.272 19.652C260.92 19.332 260.744 18.916 260.744 18.404C260.744 17.804 260.956 17.356 261.38 17.06C261.804 16.756 262.344 16.568 263 16.496L264.188 16.376C264.636 16.336 264.86 16.136 264.86 15.776C264.86 15.48 264.744 15.244 264.512 15.068C264.288 14.892 263.992 14.804 263.624 14.804C263.248 14.804 262.928 14.9 262.664 15.092C262.408 15.284 262.244 15.564 262.172 15.932L260.924 15.632C261.036 15.056 261.336 14.6 261.824 14.264C262.312 13.92 262.912 13.748 263.624 13.748ZM263 19.1C263.52 19.1 263.96 18.928 264.32 18.584C264.68 18.232 264.86 17.824 264.86 17.36V17.024C264.764 17.184 264.532 17.284 264.164 17.324L263 17.468C262.696 17.508 262.452 17.6 262.268 17.744C262.092 17.88 262.004 18.068 262.004 18.308C262.004 18.548 262.092 18.74 262.268 18.884C262.452 19.028 262.696 19.1 263 19.1ZM269.239 20H267.979V11.12H269.239V20Z" fill="#442928"/>
<path d="M220.5 41L213.5 34H228.5L220.5 41Z" fill="#FFEDEB"/>
<rect x="73" y="143" width="132" height="34" rx="10" fill="#FFEDEB"/>
<path d="M86.7905 161.872C85.9505 161.04 85.5305 160.016 85.5305 158.8C85.5305 157.584 85.9505 156.56 86.7905 155.728C87.6385 154.896 88.6825 154.48 89.9225 154.48C90.8185 154.48 91.6105 154.716 92.2985 155.188C92.9865 155.652 93.4865 156.228 93.7985 156.916L92.5745 157.396C92.3345 156.892 91.9785 156.484 91.5065 156.172C91.0425 155.86 90.5145 155.704 89.9225 155.704C89.0665 155.704 88.3465 156.004 87.7625 156.604C87.1865 157.196 86.8985 157.928 86.8985 158.8C86.8985 159.672 87.1865 160.408 87.7625 161.008C88.3465 161.6 89.0665 161.896 89.9225 161.896C90.5145 161.896 91.0425 161.74 91.5065 161.428C91.9785 161.116 92.3345 160.708 92.5745 160.204L93.7985 160.684C93.4865 161.372 92.9865 161.952 92.2985 162.424C91.6105 162.888 90.8185 163.12 89.9225 163.12C88.6825 163.12 87.6385 162.704 86.7905 161.872ZM95.9548 162.208C95.3308 161.6 95.0188 160.844 95.0188 159.94C95.0188 159.036 95.3308 158.28 95.9548 157.672C96.5788 157.056 97.3508 156.748 98.2708 156.748C99.1908 156.748 99.9628 157.056 100.587 157.672C101.211 158.28 101.523 159.036 101.523 159.94C101.523 160.844 101.211 161.6 100.587 162.208C99.9628 162.816 99.1908 163.12 98.2708 163.12C97.3508 163.12 96.5788 162.816 95.9548 162.208ZM96.8788 158.5C96.5028 158.884 96.3148 159.364 96.3148 159.94C96.3148 160.516 96.5028 160.996 96.8788 161.38C97.2548 161.764 97.7188 161.956 98.2708 161.956C98.8308 161.956 99.2948 161.764 99.6628 161.38C100.039 160.996 100.227 160.516 100.227 159.94C100.227 159.356 100.039 158.872 99.6628 158.488C99.2948 158.104 98.8308 157.912 98.2708 157.912C97.7188 157.912 97.2548 158.108 96.8788 158.5ZM110.472 156.748C111.104 156.748 111.62 156.992 112.02 157.48C112.428 157.968 112.632 158.588 112.632 159.34V163H111.372V159.532C111.372 159.06 111.24 158.672 110.976 158.368C110.72 158.056 110.4 157.9 110.016 157.9C109.584 157.9 109.228 158.056 108.948 158.368C108.676 158.672 108.54 159.06 108.54 159.532V163H107.28V159.532C107.28 159.06 107.152 158.672 106.896 158.368C106.64 158.056 106.32 157.9 105.936 157.9C105.504 157.9 105.148 158.056 104.868 158.368C104.596 158.672 104.46 159.06 104.46 159.532V163H103.2V156.868H104.46V158.368C104.628 157.864 104.88 157.468 105.216 157.18C105.56 156.892 105.96 156.748 106.416 156.748C106.904 156.748 107.324 156.904 107.676 157.216C108.036 157.52 108.288 157.932 108.432 158.452C108.576 157.932 108.828 157.52 109.188 157.216C109.556 156.904 109.984 156.748 110.472 156.748ZM116.405 163H115.145V157.984H113.837V156.868H115.145V156.364C115.145 155.604 115.333 155.04 115.709 154.672C116.085 154.304 116.669 154.12 117.461 154.12H118.133V155.236H117.461C117.093 155.236 116.825 155.32 116.657 155.488C116.489 155.656 116.405 155.928 116.405 156.304V156.868H118.133V157.984H116.405V163ZM119.955 162.208C119.331 161.6 119.019 160.844 119.019 159.94C119.019 159.036 119.331 158.28 119.955 157.672C120.579 157.056 121.351 156.748 122.271 156.748C123.191 156.748 123.963 157.056 124.587 157.672C125.211 158.28 125.523 159.036 125.523 159.94C125.523 160.844 125.211 161.6 124.587 162.208C123.963 162.816 123.191 163.12 122.271 163.12C121.351 163.12 120.579 162.816 119.955 162.208ZM120.879 158.5C120.503 158.884 120.315 159.364 120.315 159.94C120.315 160.516 120.503 160.996 120.879 161.38C121.255 161.764 121.719 161.956 122.271 161.956C122.831 161.956 123.295 161.764 123.663 161.38C124.039 160.996 124.227 160.516 124.227 159.94C124.227 159.356 124.039 158.872 123.663 158.488C123.295 158.104 122.831 157.912 122.271 157.912C121.719 157.912 121.255 158.108 120.879 158.5ZM128.46 156.868V158.488C128.66 157.76 128.972 157.268 129.396 157.012C129.828 156.756 130.316 156.692 130.86 156.82V158.02C130.196 157.836 129.628 157.896 129.156 158.2C128.692 158.496 128.46 158.94 128.46 159.532V163H127.2V156.868H128.46ZM133.134 157.984H131.826V156.868H133.134V154.876L134.394 154.48V156.868H136.122V157.984H134.394V160.816C134.394 161.192 134.478 161.464 134.646 161.632C134.814 161.8 135.082 161.884 135.45 161.884H136.122V163H135.45C134.658 163 134.074 162.816 133.698 162.448C133.322 162.08 133.134 161.516 133.134 160.756V157.984ZM149.348 162.112L148.736 163.12C148.136 162.768 147.612 162.44 147.164 162.136C146.428 162.792 145.492 163.12 144.355 163.12C143.524 163.12 142.848 162.908 142.328 162.484C141.808 162.06 141.548 161.516 141.548 160.852C141.548 159.932 142.104 159.22 143.216 158.716C142.632 157.948 142.34 157.252 142.34 156.628C142.34 156.028 142.556 155.52 142.988 155.104C143.42 154.688 143.996 154.48 144.715 154.48C145.38 154.48 145.912 154.676 146.312 155.068C146.712 155.46 146.912 155.928 146.912 156.472C146.912 157.496 146.22 158.288 144.836 158.848C145.388 159.392 146.072 159.952 146.888 160.528C147.176 159.904 147.224 159.196 147.032 158.404H148.243C148.468 159.444 148.352 160.384 147.896 161.224C148.408 161.552 148.892 161.848 149.348 162.112ZM144.692 155.584C144.372 155.584 144.108 155.692 143.9 155.908C143.692 156.124 143.588 156.404 143.588 156.748C143.588 157.148 143.808 157.628 144.248 158.188C144.72 157.948 145.084 157.708 145.34 157.468C145.596 157.228 145.724 156.936 145.724 156.592C145.724 156.296 145.628 156.056 145.436 155.872C145.244 155.68 144.996 155.584 144.692 155.584ZM144.392 162.016C145.096 162.016 145.692 161.824 146.18 161.44C145.252 160.768 144.472 160.1 143.84 159.436C143.176 159.836 142.844 160.292 142.844 160.804C142.844 161.164 142.984 161.456 143.264 161.68C143.544 161.904 143.92 162.016 144.392 162.016ZM154.318 160.816L155.65 160.54C155.722 160.988 155.922 161.336 156.25 161.584C156.578 161.832 157.014 161.956 157.558 161.956C158.054 161.956 158.458 161.844 158.77 161.62C159.09 161.388 159.25 161.096 159.25 160.744C159.25 160.512 159.182 160.312 159.046 160.144C158.91 159.968 158.73 159.832 158.506 159.736C158.29 159.64 158.038 159.548 157.75 159.46C157.47 159.364 157.182 159.284 156.886 159.22C156.59 159.148 156.298 159.048 156.01 158.92C155.73 158.792 155.478 158.648 155.254 158.488C155.038 158.328 154.862 158.108 154.726 157.828C154.59 157.548 154.522 157.224 154.522 156.856C154.522 156.176 154.802 155.612 155.362 155.164C155.93 154.708 156.634 154.48 157.474 154.48C158.306 154.48 158.998 154.696 159.55 155.128C160.102 155.552 160.43 156.104 160.534 156.784L159.19 157.06C159.118 156.636 158.926 156.292 158.614 156.028C158.302 155.764 157.906 155.632 157.426 155.632C156.978 155.632 156.61 155.744 156.322 155.968C156.034 156.184 155.89 156.456 155.89 156.784C155.89 157.072 156.006 157.312 156.238 157.504C156.47 157.696 156.762 157.836 157.114 157.924C157.466 158.004 157.846 158.112 158.254 158.248C158.662 158.376 159.042 158.52 159.394 158.68C159.746 158.832 160.038 159.084 160.27 159.436C160.502 159.78 160.618 160.204 160.618 160.708C160.618 161.404 160.322 161.98 159.73 162.436C159.138 162.892 158.402 163.12 157.522 163.12C156.642 163.12 155.914 162.912 155.338 162.496C154.762 162.08 154.422 161.52 154.318 160.816ZM166.088 156.748C166.88 156.748 167.54 157.056 168.068 157.672C168.596 158.28 168.86 159.036 168.86 159.94C168.86 160.844 168.596 161.6 168.068 162.208C167.54 162.816 166.88 163.12 166.088 163.12C165.512 163.12 165.008 162.952 164.576 162.616C164.152 162.272 163.844 161.808 163.652 161.224V165.4H162.392V156.868H163.652V158.644C163.844 158.06 164.152 157.6 164.576 157.264C165.008 156.92 165.512 156.748 166.088 156.748ZM165.668 161.956C166.196 161.956 166.64 161.764 167 161.38C167.368 160.988 167.552 160.508 167.552 159.94C167.552 159.364 167.368 158.884 167 158.5C166.64 158.108 166.196 157.912 165.668 157.912C165.084 157.912 164.6 158.104 164.216 158.488C163.84 158.872 163.652 159.356 163.652 159.94C163.652 160.516 163.84 160.996 164.216 161.38C164.6 161.764 165.084 161.956 165.668 161.956ZM173.426 156.748C174.41 156.748 175.21 157.1 175.826 157.804C176.442 158.508 176.694 159.36 176.582 160.36H171.506C171.594 160.856 171.822 161.26 172.19 161.572C172.558 161.876 173.002 162.028 173.522 162.028C173.922 162.028 174.278 161.932 174.59 161.74C174.91 161.54 175.158 161.272 175.334 160.936L176.39 161.404C176.118 161.924 175.73 162.34 175.226 162.652C174.722 162.964 174.142 163.12 173.486 163.12C172.566 163.12 171.794 162.816 171.17 162.208C170.546 161.6 170.234 160.844 170.234 159.94C170.234 159.036 170.538 158.28 171.146 157.672C171.762 157.056 172.522 156.748 173.426 156.748ZM173.426 157.84C172.962 157.84 172.558 157.984 172.214 158.272C171.878 158.552 171.654 158.92 171.542 159.376H175.31C175.206 158.92 174.982 158.552 174.638 158.272C174.302 157.984 173.898 157.84 173.426 157.84ZM181.191 156.748C182.175 156.748 182.975 157.1 183.591 157.804C184.207 158.508 184.459 159.36 184.347 160.36H179.271C179.359 160.856 179.587 161.26 179.955 161.572C180.323 161.876 180.767 162.028 181.287 162.028C181.687 162.028 182.043 161.932 182.355 161.74C182.675 161.54 182.923 161.272 183.099 160.936L184.155 161.404C183.883 161.924 183.495 162.34 182.991 162.652C182.487 162.964 181.907 163.12 181.251 163.12C180.331 163.12 179.559 162.816 178.935 162.208C178.311 161.6 177.999 160.844 177.999 159.94C177.999 159.036 178.303 158.28 178.911 157.672C179.527 157.056 180.287 156.748 181.191 156.748ZM181.191 157.84C180.727 157.84 180.323 157.984 179.979 158.272C179.643 158.552 179.419 158.92 179.307 159.376H183.075C182.971 158.92 182.747 158.552 182.403 158.272C182.067 157.984 181.663 157.84 181.191 157.84ZM190.973 158.644V154.12H192.233V163H190.973V161.224C190.781 161.808 190.469 162.272 190.037 162.616C189.613 162.952 189.113 163.12 188.537 163.12C187.745 163.12 187.085 162.816 186.557 162.208C186.029 161.6 185.765 160.844 185.765 159.94C185.765 159.036 186.029 158.28 186.557 157.672C187.085 157.056 187.745 156.748 188.537 156.748C189.113 156.748 189.613 156.92 190.037 157.264C190.469 157.6 190.781 158.06 190.973 158.644ZM188.957 161.956C189.541 161.956 190.021 161.764 190.397 161.38C190.781 160.996 190.973 160.516 190.973 159.94C190.973 159.356 190.781 158.872 190.397 158.488C190.021 158.104 189.541 157.912 188.957 157.912C188.429 157.912 187.981 158.108 187.613 158.5C187.245 158.884 187.061 159.364 187.061 159.94C187.061 160.508 187.245 160.988 187.613 161.38C187.981 161.764 188.429 161.956 188.957 161.956Z" fill="#442928"/>
<path d="M138.5 184L131.5 177H146.5L138.5 184Z" fill="#FFEDEB"/>
<rect y="32" width="128" height="34" rx="10" fill="#FFEDEB"/>
<path d="M13.9194 50.872C13.0794 50.04 12.6594 49.016 12.6594 47.8C12.6594 46.584 13.0794 45.56 13.9194 44.728C14.7674 43.896 15.8114 43.48 17.0514 43.48C17.9474 43.48 18.7394 43.716 19.4274 44.188C20.1154 44.652 20.6154 45.228 20.9274 45.916L19.7034 46.396C19.4634 45.892 19.1074 45.484 18.6354 45.172C18.1714 44.86 17.6434 44.704 17.0514 44.704C16.1954 44.704 15.4754 45.004 14.8914 45.604C14.3154 46.196 14.0274 46.928 14.0274 47.8C14.0274 48.672 14.3154 49.408 14.8914 50.008C15.4754 50.6 16.1954 50.896 17.0514 50.896C17.6434 50.896 18.1714 50.74 18.6354 50.428C19.1074 50.116 19.4634 49.708 19.7034 49.204L20.9274 49.684C20.6154 50.372 20.1154 50.952 19.4274 51.424C18.7394 51.888 17.9474 52.12 17.0514 52.12C15.8114 52.12 14.7674 51.704 13.9194 50.872ZM26.0546 45.748C26.7506 45.748 27.3186 45.992 27.7586 46.48C28.1986 46.968 28.4186 47.588 28.4186 48.34V52H27.1586V48.532C27.1586 48.06 27.0066 47.672 26.7026 47.368C26.3986 47.056 26.0226 46.9 25.5746 46.9C25.0706 46.9 24.6586 47.056 24.3386 47.368C24.0186 47.672 23.8586 48.06 23.8586 48.532V52H22.5986V43.12H23.8586V47.452C24.0266 46.924 24.3026 46.508 24.6866 46.204C25.0786 45.9 25.5346 45.748 26.0546 45.748ZM33.2342 45.748C34.2182 45.748 35.0182 46.1 35.6342 46.804C36.2502 47.508 36.5022 48.36 36.3902 49.36H31.3142C31.4022 49.856 31.6302 50.26 31.9982 50.572C32.3662 50.876 32.8102 51.028 33.3302 51.028C33.7302 51.028 34.0862 50.932 34.3982 50.74C34.7182 50.54 34.9662 50.272 35.1422 49.936L36.1982 50.404C35.9262 50.924 35.5382 51.34 35.0342 51.652C34.5302 51.964 33.9502 52.12 33.2942 52.12C32.3742 52.12 31.6022 51.816 30.9782 51.208C30.3542 50.6 30.0422 49.844 30.0422 48.94C30.0422 48.036 30.3462 47.28 30.9542 46.672C31.5702 46.056 32.3302 45.748 33.2342 45.748ZM33.2342 46.84C32.7702 46.84 32.3662 46.984 32.0222 47.272C31.6862 47.552 31.4622 47.92 31.3502 48.376H35.1182C35.0142 47.92 34.7902 47.552 34.4462 47.272C34.1102 46.984 33.7062 46.84 33.2342 46.84ZM40.6264 45.748C41.3624 45.748 41.9624 45.94 42.4264 46.324C42.8904 46.708 43.1224 47.26 43.1224 47.98V52H41.8624V50.368C41.4864 51.536 40.7304 52.12 39.5944 52.12C39.0664 52.12 38.6264 51.964 38.2744 51.652C37.9224 51.332 37.7464 50.916 37.7464 50.404C37.7464 49.804 37.9584 49.356 38.3824 49.06C38.8064 48.756 39.3464 48.568 40.0024 48.496L41.1904 48.376C41.6384 48.336 41.8624 48.136 41.8624 47.776C41.8624 47.48 41.7464 47.244 41.5144 47.068C41.2904 46.892 40.9944 46.804 40.6264 46.804C40.2504 46.804 39.9304 46.9 39.6664 47.092C39.4104 47.284 39.2464 47.564 39.1744 47.932L37.9264 47.632C38.0384 47.056 38.3384 46.6 38.8264 46.264C39.3144 45.92 39.9144 45.748 40.6264 45.748ZM40.0024 51.1C40.5224 51.1 40.9624 50.928 41.3224 50.584C41.6824 50.232 41.8624 49.824 41.8624 49.36V49.024C41.7664 49.184 41.5344 49.284 41.1664 49.324L40.0024 49.468C39.6984 49.508 39.4544 49.6 39.2704 49.744C39.0944 49.88 39.0064 50.068 39.0064 50.308C39.0064 50.548 39.0944 50.74 39.2704 50.884C39.4544 51.028 39.6984 51.1 40.0024 51.1ZM48.6774 45.748C49.4694 45.748 50.1294 46.056 50.6574 46.672C51.1854 47.28 51.4494 48.036 51.4494 48.94C51.4494 49.844 51.1854 50.6 50.6574 51.208C50.1294 51.816 49.4694 52.12 48.6774 52.12C48.1014 52.12 47.5974 51.952 47.1654 51.616C46.7414 51.272 46.4334 50.808 46.2414 50.224V54.4H44.9814V45.868H46.2414V47.644C46.4334 47.06 46.7414 46.6 47.1654 46.264C47.5974 45.92 48.1014 45.748 48.6774 45.748ZM48.2574 50.956C48.7854 50.956 49.2294 50.764 49.5894 50.38C49.9574 49.988 50.1414 49.508 50.1414 48.94C50.1414 48.364 49.9574 47.884 49.5894 47.5C49.2294 47.108 48.7854 46.912 48.2574 46.912C47.6734 46.912 47.1894 47.104 46.8054 47.488C46.4294 47.872 46.2414 48.356 46.2414 48.94C46.2414 49.516 46.4294 49.996 46.8054 50.38C47.1894 50.764 47.6734 50.956 48.2574 50.956ZM56.0155 45.748C56.9995 45.748 57.7995 46.1 58.4155 46.804C59.0315 47.508 59.2835 48.36 59.1715 49.36H54.0955C54.1835 49.856 54.4115 50.26 54.7795 50.572C55.1475 50.876 55.5915 51.028 56.1115 51.028C56.5115 51.028 56.8675 50.932 57.1795 50.74C57.4995 50.54 57.7475 50.272 57.9235 49.936L58.9795 50.404C58.7075 50.924 58.3195 51.34 57.8155 51.652C57.3115 51.964 56.7315 52.12 56.0755 52.12C55.1555 52.12 54.3835 51.816 53.7595 51.208C53.1355 50.6 52.8235 49.844 52.8235 48.94C52.8235 48.036 53.1275 47.28 53.7355 46.672C54.3515 46.056 55.1115 45.748 56.0155 45.748ZM56.0155 46.84C55.5515 46.84 55.1475 46.984 54.8035 47.272C54.4675 47.552 54.2435 47.92 54.1315 48.376H57.8995C57.7955 47.92 57.5715 47.552 57.2275 47.272C56.8915 46.984 56.4875 46.84 56.0155 46.84ZM60.5277 50.38L61.7877 50.116C61.8997 50.772 62.3477 51.1 63.1317 51.1C63.5317 51.1 63.8517 51.024 64.0917 50.872C64.3397 50.712 64.4637 50.512 64.4637 50.272C64.4637 50.016 64.3357 49.824 64.0797 49.696C63.8237 49.56 63.5117 49.464 63.1437 49.408C62.7757 49.344 62.4037 49.268 62.0277 49.18C61.6597 49.092 61.3477 48.92 61.0917 48.664C60.8357 48.4 60.7077 48.048 60.7077 47.608C60.7077 47.072 60.9357 46.628 61.3917 46.276C61.8557 45.924 62.4357 45.748 63.1317 45.748C63.8277 45.748 64.3957 45.904 64.8357 46.216C65.2837 46.528 65.5517 46.952 65.6397 47.488L64.3797 47.752C64.2837 47.096 63.8677 46.768 63.1317 46.768C62.7957 46.768 62.5197 46.84 62.3037 46.984C62.0877 47.128 61.9797 47.316 61.9797 47.548C61.9797 47.756 62.0717 47.924 62.2557 48.052C62.4397 48.18 62.6717 48.264 62.9517 48.304C63.2317 48.344 63.5317 48.404 63.8517 48.484C64.1797 48.564 64.4837 48.656 64.7637 48.76C65.0437 48.856 65.2757 49.032 65.4597 49.288C65.6437 49.544 65.7357 49.864 65.7357 50.248C65.7357 50.784 65.4837 51.232 64.9797 51.592C64.4837 51.944 63.8677 52.12 63.1317 52.12C62.4037 52.12 61.8117 51.964 61.3557 51.652C60.8997 51.34 60.6237 50.916 60.5277 50.38ZM67.9813 46.984H66.6733V45.868H67.9813V43.876L69.2413 43.48V45.868H70.9693V46.984H69.2413V49.816C69.2413 50.192 69.3253 50.464 69.4933 50.632C69.6613 50.8 69.9293 50.884 70.2973 50.884H70.9693V52H70.2973C69.5053 52 68.9213 51.816 68.5453 51.448C68.1693 51.08 67.9813 50.516 67.9813 49.756V46.984ZM78.0752 52H76.7432V43.6H81.8792V44.788H78.0752V47.332H81.7592V48.52H78.0752V52ZM84.6438 52H83.3838V43.12H84.6438V52ZM86.6277 44.656C86.4757 44.504 86.3997 44.32 86.3997 44.104C86.3997 43.888 86.4757 43.704 86.6277 43.552C86.7877 43.4 86.9757 43.324 87.1917 43.324C87.4077 43.324 87.5917 43.4 87.7437 43.552C87.8957 43.704 87.9717 43.888 87.9717 44.104C87.9717 44.32 87.8957 44.504 87.7437 44.656C87.5917 44.808 87.4077 44.884 87.1917 44.884C86.9757 44.884 86.7877 44.808 86.6277 44.656ZM87.8157 52H86.5557V45.868H87.8157V52ZM94.6955 47.608V45.868H95.9555V51.34C95.9555 52.244 95.6435 53 95.0195 53.608C94.3955 54.216 93.6235 54.52 92.7035 54.52C92.0555 54.52 91.4755 54.364 90.9635 54.052C90.4595 53.74 90.0795 53.32 89.8235 52.792L90.9635 52.228C91.1315 52.58 91.3635 52.856 91.6595 53.056C91.9635 53.264 92.3115 53.368 92.7035 53.368C93.2635 53.368 93.7355 53.172 94.1195 52.78C94.5035 52.396 94.6955 51.916 94.6955 51.34V50.14C94.4955 50.7 94.1795 51.148 93.7475 51.484C93.3235 51.82 92.8275 51.988 92.2595 51.988C91.4675 51.988 90.8075 51.692 90.2795 51.1C89.7515 50.5 89.4875 49.756 89.4875 48.868C89.4875 47.98 89.7515 47.24 90.2795 46.648C90.8075 46.048 91.4675 45.748 92.2595 45.748C92.8275 45.748 93.3275 45.916 93.7595 46.252C94.1915 46.588 94.5035 47.04 94.6955 47.608ZM92.7155 50.836C93.2835 50.836 93.7555 50.648 94.1315 50.272C94.5075 49.896 94.6955 49.428 94.6955 48.868C94.6955 48.308 94.5075 47.844 94.1315 47.476C93.7555 47.1 93.2835 46.912 92.7155 46.912C92.1715 46.912 91.7115 47.1 91.3355 47.476C90.9675 47.852 90.7835 48.316 90.7835 48.868C90.7835 49.428 90.9675 49.896 91.3355 50.272C91.7115 50.648 92.1715 50.836 92.7155 50.836ZM101.324 45.748C102.02 45.748 102.588 45.992 103.028 46.48C103.468 46.968 103.688 47.588 103.688 48.34V52H102.428V48.532C102.428 48.06 102.276 47.672 101.972 47.368C101.668 47.056 101.292 46.9 100.844 46.9C100.34 46.9 99.9282 47.056 99.6082 47.368C99.2882 47.672 99.1282 48.06 99.1282 48.532V52H97.8682V43.12H99.1282V47.452C99.2962 46.924 99.5722 46.508 99.9562 46.204C100.348 45.9 100.804 45.748 101.324 45.748ZM106.075 46.984H104.767V45.868H106.075V43.876L107.335 43.48V45.868H109.063V46.984H107.335V49.816C107.335 50.192 107.419 50.464 107.587 50.632C107.755 50.8 108.023 50.884 108.391 50.884H109.063V52H108.391C107.599 52 107.015 51.816 106.639 51.448C106.263 51.08 106.075 50.516 106.075 49.756V46.984ZM110.25 50.38L111.51 50.116C111.622 50.772 112.07 51.1 112.854 51.1C113.254 51.1 113.574 51.024 113.814 50.872C114.062 50.712 114.186 50.512 114.186 50.272C114.186 50.016 114.058 49.824 113.802 49.696C113.546 49.56 113.234 49.464 112.866 49.408C112.498 49.344 112.126 49.268 111.75 49.18C111.382 49.092 111.07 48.92 110.814 48.664C110.558 48.4 110.43 48.048 110.43 47.608C110.43 47.072 110.658 46.628 111.114 46.276C111.578 45.924 112.158 45.748 112.854 45.748C113.55 45.748 114.118 45.904 114.558 46.216C115.006 46.528 115.274 46.952 115.362 47.488L114.102 47.752C114.006 47.096 113.59 46.768 112.854 46.768C112.518 46.768 112.242 46.84 112.026 46.984C111.81 47.128 111.702 47.316 111.702 47.548C111.702 47.756 111.794 47.924 111.978 48.052C112.162 48.18 112.394 48.264 112.674 48.304C112.954 48.344 113.254 48.404 113.574 48.484C113.902 48.564 114.206 48.656 114.486 48.76C114.766 48.856 114.998 49.032 115.182 49.288C115.366 49.544 115.458 49.864 115.458 50.248C115.458 50.784 115.206 51.232 114.702 51.592C114.206 51.944 113.59 52.12 112.854 52.12C112.126 52.12 111.534 51.964 111.078 51.652C110.622 51.34 110.346 50.916 110.25 50.38Z" fill="#442928"/>
<path d="M63.5 73L56.5 66H71.5L63.5 73Z" fill="#FFEDEB"/>
<defs>
<clipPath id="clip0_2_465">
<rect width="36" height="36" fill="white" transform="translate(201 53)"/>
</clipPath>
</defs>
</svg>
