<svg width="268" height="209" viewBox="0 0 268 209" fill="none" xmlns="http://www.w3.org/2000/svg">
<g clip-path="url(#clip0_1_2217)">
<path d="M209.243 62.3693C191.244 49.7476 169.562 41.2576 148.762 36.6072C143.696 35.4744 138.597 34.5106 133.464 33.7156C82.5302 25.7622 24.8744 57.9574 20.5392 106.053C16.2039 154.149 33.166 181.575 73.4391 177.199C113.712 172.822 133.458 156.928 159.517 163.689C185.576 170.449 197.812 187.93 229.794 176.406C246.087 170.533 251.239 150.948 251.05 135.297C250.665 103.245 233.193 79.1585 209.243 62.3693Z" fill="#FFEDEB"/>
<path d="M132.475 209C189.281 209 235.332 204.729 235.332 199.461C235.332 194.192 189.281 189.921 132.475 189.921C75.669 189.921 29.6187 194.192 29.6187 199.461C29.6187 204.729 75.669 209 132.475 209Z" fill="#FFB3B0"/>
<path opacity="0.4" d="M132.475 209C189.281 209 235.332 204.729 235.332 199.461C235.332 194.192 189.281 189.921 132.475 189.921C75.669 189.921 29.6187 194.192 29.6187 199.461C29.6187 204.729 75.669 209 132.475 209Z" fill="white"/>
<path opacity="0.3" d="M130.651 202.138C151.173 202.138 167.809 199.509 167.809 196.265C167.809 193.022 151.173 190.393 130.651 190.393C110.129 190.393 93.4932 193.022 93.4932 196.265C93.4932 199.509 110.129 202.138 130.651 202.138Z" fill="black"/>
<path d="M105.646 189.266H109.94V194.429C109.94 194.677 109.891 194.923 109.797 195.152C109.703 195.381 109.564 195.59 109.39 195.765C109.216 195.941 109.009 196.08 108.781 196.175C108.553 196.27 108.309 196.319 108.062 196.319H107.518C107.271 196.319 107.027 196.27 106.799 196.175C106.571 196.08 106.364 195.941 106.19 195.765C106.016 195.59 105.877 195.381 105.783 195.152C105.689 194.923 105.64 194.677 105.64 194.429V189.266H105.646Z" fill="#263238" stroke="#263238" stroke-linecap="round" stroke-linejoin="round"/>
<path d="M112.196 191.09H116.49V196.253C116.49 196.755 116.292 197.235 115.94 197.59C115.588 197.944 115.111 198.143 114.613 198.143H114.068C113.57 198.143 113.092 197.944 112.74 197.59C112.388 197.235 112.19 196.755 112.19 196.253V191.09H112.196Z" fill="#263238" stroke="#263238" stroke-linecap="round" stroke-linejoin="round"/>
<path d="M145.652 191.317H149.946V196.48C149.946 196.728 149.898 196.974 149.803 197.203C149.709 197.433 149.571 197.641 149.396 197.816C149.222 197.992 149.015 198.131 148.787 198.226C148.559 198.321 148.315 198.37 148.069 198.37H147.524C147.026 198.37 146.548 198.171 146.196 197.816C145.844 197.462 145.646 196.981 145.646 196.48V191.317H145.652Z" fill="#263238" stroke="#263238" stroke-linecap="round" stroke-linejoin="round"/>
<path d="M151.527 189.039H155.821V194.202C155.821 194.703 155.624 195.184 155.271 195.539C154.919 195.893 154.442 196.092 153.944 196.092H153.393C152.895 196.092 152.418 195.893 152.066 195.539C151.713 195.184 151.516 194.703 151.516 194.202V189.039H151.527Z" fill="#263238" stroke="#263238" stroke-linecap="round" stroke-linejoin="round"/>
<path d="M157.569 178.117C157.338 174.021 154.607 162.192 148.3 154C141.992 145.808 144.231 135.798 144.231 135.798L130.929 137.855L117.621 135.798C117.621 135.798 119.884 145.808 113.552 154C107.221 162.192 104.515 174.021 104.29 178.117C104.065 182.212 104.515 191.77 104.515 191.77C104.515 191.77 109.495 195.52 129.537 195.842H132.315C152.363 195.52 157.338 191.77 157.338 191.77C157.338 191.77 157.794 182.212 157.569 178.117Z" fill="#FF5357" stroke="#263238" stroke-linecap="round" stroke-linejoin="round"/>
<path d="M112.202 191.561C112.137 190.154 111.781 181.861 111.989 178.117C112.214 174.021 114.95 162.192 121.252 154C126.582 147.108 125.824 138.922 125.451 136.507L120.878 135.798C120.878 135.798 123.141 145.808 116.81 154C110.478 162.192 107.79 174.021 107.547 178.117C107.375 181.211 107.588 187.411 107.707 190.267C109.16 190.845 110.665 191.278 112.202 191.561V191.561Z" fill="#263238"/>
<path d="M115.815 191.978C115.695 191.915 115.581 191.843 115.471 191.764C115.471 191.764 115.015 182.225 115.246 178.111C115.477 173.997 118.207 162.186 124.509 153.994C129.839 147.102 129.081 138.916 128.708 136.501L124.136 135.792C124.136 135.792 126.398 145.802 120.067 153.994C113.736 162.186 111.029 174.015 110.804 178.111C110.603 181.688 110.923 189.349 111.006 191.299C112.584 191.674 114.194 191.901 115.815 191.978Z" fill="white"/>
<path d="M149.697 191.561C149.763 190.154 150.118 181.861 149.911 178.117C149.686 174.021 146.949 162.192 140.648 154C135.318 147.108 136.076 138.922 136.449 136.507L141.021 135.798C141.021 135.798 138.759 145.808 145.09 154C151.421 162.192 154.128 174.021 154.353 178.117C154.524 181.211 154.311 187.411 154.193 190.267C152.74 190.845 151.234 191.278 149.697 191.561V191.561Z" fill="#263238"/>
<path d="M146.085 191.978C146.204 191.915 146.319 191.843 146.428 191.764C146.428 191.764 146.878 182.224 146.653 178.111C146.428 173.997 143.716 162.168 137.402 154C132.072 147.108 132.83 138.922 133.203 136.507L137.775 135.798C137.775 135.798 135.513 145.808 141.844 154C148.175 162.192 150.882 174.021 151.107 178.117C151.302 181.694 150.989 189.355 150.906 191.305C149.323 191.678 147.709 191.904 146.085 191.978V191.978Z" fill="white"/>
<path d="M152.724 161.351C151.514 158.749 150.031 156.285 148.3 154C141.969 145.808 144.231 135.798 144.231 135.798L130.929 137.855L117.621 135.798C117.621 135.798 119.884 145.808 113.553 154C111.906 156.173 110.485 158.511 109.312 160.976C111.213 162.365 113.884 163.414 117.604 163.36C125.854 163.182 125.054 157.655 131.391 157.44C137.728 157.225 145.007 164.857 152.724 161.351Z" fill="#263238" stroke="#263238" stroke-linecap="round" stroke-linejoin="round"/>
<path d="M132.09 171.517C133.837 171.517 135.252 170.091 135.252 168.333C135.252 166.575 133.837 165.149 132.09 165.149C130.343 165.149 128.927 166.575 128.927 168.333C128.927 170.091 130.343 171.517 132.09 171.517Z" fill="white" stroke="white" stroke-linecap="round" stroke-linejoin="round"/>
<path d="M132.09 179.709C133.837 179.709 135.252 178.283 135.252 176.525C135.252 174.767 133.837 173.341 132.09 173.341C130.343 173.341 128.927 174.767 128.927 176.525C128.927 178.283 130.343 179.709 132.09 179.709Z" fill="#263238" stroke="#263238" stroke-linecap="round" stroke-linejoin="round"/>
<path d="M132.09 187.901C133.837 187.901 135.252 186.475 135.252 184.717C135.252 182.959 133.837 181.533 132.09 181.533C130.343 181.533 128.927 182.959 128.927 184.717C128.927 186.475 130.343 187.901 132.09 187.901Z" fill="#263238" stroke="#263238" stroke-linecap="round" stroke-linejoin="round"/>
<path d="M107.902 86.8795V101.552C107.902 126.372 118.125 146.494 130.734 146.494C143.343 146.494 153.559 126.372 153.559 101.552V86.647L107.902 86.8795Z" fill="white" stroke="#263238" stroke-linecap="round" stroke-linejoin="round"/>
<path d="M110.159 88.3343V101.952C110.159 124.935 119.368 143.561 130.734 143.561C142.099 143.561 151.302 124.906 151.302 101.952V88.1196L110.159 88.3343Z" fill="#FFEDEB"/>
<path opacity="0.5" d="M110.159 88.3343V101.952C110.159 124.935 119.368 143.561 130.734 143.561C142.099 143.561 151.302 124.906 151.302 101.952V88.1196L110.159 88.3343Z" fill="white"/>
<path d="M153.18 80.959H108.287C107.577 80.959 107.002 81.5382 107.002 82.2528V88.3102C107.002 89.0247 107.577 89.604 108.287 89.604H153.18C153.89 89.604 154.465 89.0247 154.465 88.3102V82.2528C154.465 81.5382 153.89 80.959 153.18 80.959Z" fill="#263238" stroke="#263238" stroke-linecap="round" stroke-linejoin="round"/>
<path d="M121.346 116.749C118.376 116.741 115.531 115.548 113.434 113.431C111.336 111.315 110.159 108.447 110.159 105.457C110.159 102.462 111.341 99.5901 113.444 97.4724C115.548 95.3547 118.401 94.165 121.376 94.165C124.351 94.165 127.204 95.3547 129.308 97.4724C131.411 99.5901 132.593 102.462 132.593 105.457C132.593 106.943 132.302 108.413 131.737 109.785C131.171 111.157 130.342 112.404 129.297 113.452C128.253 114.501 127.012 115.333 125.648 115.898C124.284 116.464 122.822 116.753 121.346 116.749V116.749Z" fill="#263238" stroke="white" stroke-miterlimit="10"/>
<path fill-rule="evenodd" clip-rule="evenodd" d="M118.109 103.138V101.789C118.109 99.7102 119.982 98 122.258 98H124.367C124.717 98 125 98.2588 125 98.578V101.147C125 101.466 124.717 101.725 124.367 101.725H122.258C122.219 101.725 122.187 101.754 122.187 101.789V103.138H124.367C124.562 103.138 124.746 103.22 124.866 103.36C124.986 103.5 125.028 103.683 124.981 103.856L124.278 106.424C124.208 106.682 123.954 106.862 123.664 106.862H122.187V111.422C122.187 111.741 121.904 112 121.555 112H118.742C118.393 112 118.109 111.741 118.109 111.422V106.862H116.633C116.283 106.862 116 106.604 116 106.284V103.716C116 103.396 116.283 103.138 116.633 103.138H118.109ZM123.734 99.156H122.258C120.676 99.156 119.375 100.345 119.375 101.789V103.716C119.375 104.035 119.092 104.294 118.742 104.294H117.266V105.706H118.742C119.092 105.706 119.375 105.965 119.375 106.284V110.844H120.922V106.284C120.922 105.965 121.205 105.706 121.555 105.706H123.17L123.556 104.294H121.555C121.205 104.294 120.922 104.035 120.922 103.716V101.789C120.922 101.12 121.525 100.569 122.258 100.569H123.734V99.156Z" fill="white"/>
<path d="M130.017 136.811C128.544 136.812 127.085 136.521 125.723 135.953C124.362 135.386 123.125 134.554 122.084 133.506C121.042 132.457 120.216 131.212 119.652 129.841C119.089 128.471 118.799 127.002 118.8 125.519V125.519C118.799 124.036 119.089 122.567 119.652 121.197C120.216 119.827 121.042 118.581 122.084 117.533C123.125 116.484 124.362 115.652 125.723 115.085C127.085 114.518 128.544 114.226 130.017 114.227V114.227C131.49 114.227 132.948 114.519 134.309 115.087C135.669 115.654 136.906 116.486 137.947 117.535C138.988 118.583 139.814 119.828 140.377 121.198C140.94 122.568 141.229 124.037 141.228 125.519V125.519C141.229 127.002 140.94 128.47 140.377 129.84C139.814 131.21 138.988 132.455 137.947 133.504C136.906 134.552 135.669 135.384 134.309 135.952C132.948 136.519 131.49 136.811 130.017 136.811V136.811Z" fill="#263238" stroke="white" stroke-miterlimit="10"/>
<path d="M128 126C128 124.895 128.896 124 130 124C131.105 124 132 124.895 132 126C132 127.105 131.105 128 130 128C128.896 128 128 127.105 128 126ZM126.919 126C126.919 127.702 128.299 129.081 130 129.081C131.702 129.081 133.081 127.702 133.081 126C133.081 124.298 131.702 122.919 130 122.919C128.299 122.919 126.919 124.298 126.919 126ZM132.483 122.797C132.483 123.194 132.806 123.517 133.203 123.517C133.601 123.517 133.924 123.194 133.924 122.797C133.924 122.4 133.601 122.077 133.203 122.077C132.806 122.077 132.483 122.4 132.483 122.797ZM127.576 130.884C126.991 130.857 126.673 130.76 126.462 130.677C126.182 130.568 125.982 130.438 125.771 130.229C125.562 130.019 125.431 129.819 125.323 129.539C125.24 129.328 125.143 129.01 125.116 128.425C125.087 127.792 125.081 127.602 125.081 126C125.081 124.398 125.088 124.208 125.116 123.575C125.143 122.99 125.241 122.673 125.323 122.461C125.432 122.181 125.562 121.981 125.771 121.771C125.981 121.561 126.181 121.431 126.462 121.322C126.673 121.24 126.991 121.142 127.576 121.116C128.208 121.087 128.398 121.081 130 121.081C131.603 121.081 131.792 121.087 132.425 121.116C133.01 121.142 133.328 121.24 133.539 121.322C133.819 121.431 134.019 121.561 134.229 121.771C134.439 121.981 134.569 122.181 134.678 122.461C134.761 122.672 134.858 122.99 134.885 123.575C134.914 124.208 134.92 124.398 134.92 126C134.92 127.602 134.914 127.792 134.885 128.425C134.858 129.01 134.76 129.328 134.678 129.539C134.569 129.819 134.439 130.019 134.229 130.229C134.02 130.438 133.819 130.568 133.539 130.677C133.328 130.76 133.01 130.857 132.425 130.884C131.793 130.913 131.603 130.919 130 130.919C128.398 130.919 128.208 130.913 127.576 130.884M127.526 120.036C126.888 120.065 126.451 120.167 126.07 120.315C125.676 120.468 125.341 120.674 125.007 121.007C124.674 121.341 124.468 121.675 124.315 122.07C124.167 122.451 124.065 122.888 124.036 123.526C124.007 124.166 124 124.371 124 126C124 127.629 124.007 127.834 124.036 128.474C124.065 129.112 124.167 129.549 124.315 129.93C124.468 130.325 124.673 130.659 125.007 130.993C125.341 131.326 125.675 131.531 126.07 131.685C126.452 131.833 126.888 131.935 127.526 131.964C128.167 131.993 128.371 132 130 132C131.63 132 131.834 131.993 132.474 131.964C133.113 131.935 133.549 131.833 133.93 131.685C134.325 131.531 134.659 131.326 134.993 130.993C135.327 130.659 135.532 130.325 135.685 129.93C135.834 129.549 135.936 129.112 135.964 128.474C135.993 127.833 136 127.629 136 126C136 124.371 135.993 124.166 135.964 123.526C135.935 122.888 135.834 122.451 135.685 122.07C135.532 121.675 135.327 121.341 134.993 121.007C134.66 120.674 134.325 120.468 133.931 120.315C133.549 120.167 133.113 120.065 132.474 120.036C131.835 120.007 131.63 120 130.001 120C128.371 120 128.167 120.007 127.526 120.036" fill="white"/>
<path d="M139.558 119.742C136.583 119.742 133.73 118.552 131.626 116.435C129.523 114.317 128.341 111.445 128.341 108.45C128.347 105.459 129.532 102.593 131.635 100.481C133.738 98.3681 136.587 97.1816 139.558 97.1816V97.1816C142.533 97.1816 145.386 98.3713 147.49 100.489C149.594 102.607 150.775 105.479 150.775 108.474C150.769 111.465 149.584 114.331 147.482 116.443C145.379 118.556 142.529 119.742 139.558 119.742Z" fill="#263238" stroke="white" stroke-miterlimit="10"/>
<path d="M142.801 109.206C142.681 109.146 141.897 108.787 141.776 108.727C141.656 108.667 141.535 108.667 141.415 108.787C141.294 108.906 141.053 109.266 140.932 109.386C140.872 109.506 140.752 109.506 140.631 109.446C140.209 109.266 139.787 109.026 139.425 108.727C139.124 108.427 138.823 108.067 138.581 107.708C138.521 107.588 138.581 107.468 138.642 107.408C138.702 107.348 138.762 107.228 138.883 107.169C138.943 107.109 139.003 106.989 139.003 106.929C139.064 106.869 139.064 106.749 139.003 106.689C138.943 106.629 138.642 105.91 138.521 105.61C138.461 105.191 138.34 105.191 138.22 105.191H137.918C137.798 105.191 137.617 105.311 137.557 105.371C137.195 105.73 137.014 106.15 137.014 106.629C137.074 107.169 137.255 107.708 137.617 108.187C138.28 109.146 139.124 109.925 140.149 110.404C140.45 110.524 140.691 110.644 140.993 110.704C141.294 110.824 141.596 110.824 141.957 110.764C142.379 110.704 142.741 110.404 142.982 110.045C143.103 109.805 143.103 109.566 143.042 109.326L142.801 109.206M144.308 103.753C141.957 101.416 138.159 101.416 135.808 103.753C133.879 105.67 133.518 108.607 134.844 110.944L134 114L137.195 113.161C138.099 113.64 139.064 113.88 140.028 113.88C143.344 113.88 145.996 111.243 145.996 107.948C146.056 106.39 145.393 104.891 144.308 103.753M142.681 112.142C141.897 112.622 140.993 112.921 140.028 112.921C139.124 112.921 138.28 112.682 137.496 112.262L137.316 112.142L135.447 112.622L135.929 110.824L135.808 110.644C134.362 108.247 135.085 105.251 137.436 103.753C139.787 102.255 142.801 103.034 144.248 105.311C145.695 107.648 145.032 110.704 142.681 112.142Z" fill="white"/>
<path d="M208.709 157.184L204.872 137.843L212.328 136.937L208.709 157.184Z" stroke="#263238" stroke-linecap="round" stroke-linejoin="round"/>
<path d="M211.529 125.358L206.198 126.002C206.198 126.002 188.543 130.068 180.672 134.349C172.801 138.63 160.293 149.254 154.092 154.024C145.682 160.481 139.629 161.942 138.776 163.873C137.924 165.805 143.668 167.939 151.113 164.941C158.558 161.942 164.936 155.735 167.696 153.613C167.696 153.613 165.996 160.248 164.077 163.247C162.159 166.246 169.183 171.594 172.588 175.452C175.994 179.309 178.54 182.087 179.82 180.376C181.099 178.665 180.666 177.395 180.666 177.395C180.666 177.395 183.859 180.376 185.997 180.376C188.135 180.376 186.636 176.948 185.357 174.808C184.078 172.667 183.231 168.601 183.231 168.601L184.51 164.106C184.51 164.106 190.462 175.022 191.102 177.377C191.742 179.732 194.715 176.733 194.715 173.311C194.715 169.889 191.528 161.107 191.528 161.107L194.294 155.109C197.088 153.802 199.787 152.3 202.372 150.614C205.152 148.847 207.6 146.601 209.604 143.978L213.856 143.334L211.529 125.358ZM175.745 160.767L174.217 165.948L173.24 162.729L177.83 155.312L175.745 160.767Z" fill="white"/>
<path d="M212.559 133.246L207.987 135.279C207.987 135.279 202.657 141.957 197.919 146.231C193.181 150.506 190.486 151.043 189.959 153.714C189.432 156.385 187.039 161.465 187.833 162.8C188.626 164.136 193.406 172.685 192.873 175.917C192.76 176.626 192.665 177.336 192.618 178.009C193.631 177.365 194.744 175.434 194.744 173.341C194.744 169.913 191.558 161.137 191.558 161.137L194.324 155.139C197.117 153.832 199.817 152.33 202.402 150.643C205.181 148.877 207.629 146.63 209.633 144.008L213.886 143.364L212.559 133.246Z" fill="#FFEDEB"/>
<path d="M184.101 150.244C184.101 152.384 179.588 164.672 179.588 166.813C179.588 168.464 184.326 176.978 186.749 180.144C187.667 179.333 186.447 176.626 185.369 174.82C184.095 172.679 183.243 168.613 183.243 168.613L184.332 164.774C184.001 163.051 184.102 161.272 184.628 159.599C185.955 156.123 187.288 150.84 187.288 150.84V146.989C187.288 146.989 184.101 148.104 184.101 150.244Z" fill="#FFEDEB"/>
<path d="M150.124 161.733C146.268 163.671 141.287 164.487 138.871 164.786C139.777 166.36 144.853 167.498 151.148 164.964C158.593 161.983 164.972 155.759 167.732 153.636C167.732 153.636 167.489 154.573 167.092 155.896H167.122C167.122 155.896 168.715 151.884 168.188 148.414C168.199 148.372 155.436 159.056 150.124 161.733Z" fill="#FFEDEB"/>
<path d="M178.789 172.953L174.738 168.184L173.239 162.734C173.239 162.734 176.609 157.178 177.829 155.317C178.29 154.559 178.593 153.713 178.719 152.833C178.846 151.952 178.793 151.055 178.564 150.196C178.262 149.445 178.789 147.573 178.789 147.573C178.789 147.573 175.342 149.177 174.276 151.317C173.21 153.457 168.436 162.538 168.703 165.745C168.898 168.094 176.36 176.036 180.334 179.589C180.722 178.926 180.849 178.141 180.69 177.389C180.69 177.389 181.033 177.711 181.56 178.134C180.394 175.743 178.789 172.953 178.789 172.953Z" fill="#FFEDEB"/>
<g opacity="0.5">
<path d="M212.559 133.246L207.987 135.279C207.987 135.279 202.657 141.957 197.919 146.231C193.181 150.506 190.486 151.043 189.959 153.714C189.432 156.385 187.039 161.465 187.833 162.8C188.626 164.136 193.406 172.685 192.873 175.917C192.76 176.626 192.665 177.336 192.618 178.009C193.631 177.365 194.744 175.434 194.744 173.341C194.744 169.913 191.558 161.137 191.558 161.137L194.324 155.139C197.117 153.832 199.817 152.33 202.402 150.643C205.181 148.877 207.629 146.63 209.633 144.008L213.886 143.364L212.559 133.246Z" fill="white"/>
<path d="M184.101 150.244C184.101 152.384 179.588 164.672 179.588 166.813C179.588 168.464 184.326 176.978 186.749 180.144C187.667 179.333 186.447 176.626 185.369 174.82C184.095 172.679 183.243 168.613 183.243 168.613L184.332 164.774C184.001 163.051 184.102 161.272 184.628 159.599C185.955 156.123 187.288 150.84 187.288 150.84V146.989C187.288 146.989 184.101 148.104 184.101 150.244Z" fill="white"/>
<path d="M150.124 161.733C146.268 163.671 141.287 164.487 138.871 164.786C139.777 166.36 144.853 167.498 151.148 164.964C158.593 161.983 164.972 155.759 167.732 153.636C167.732 153.636 167.489 154.573 167.092 155.896H167.122C167.122 155.896 168.715 151.884 168.188 148.414C168.199 148.372 155.436 159.056 150.124 161.733Z" fill="white"/>
<path d="M178.789 172.953L174.738 168.184L173.239 162.734C173.239 162.734 176.609 157.178 177.829 155.317C178.29 154.559 178.593 153.713 178.719 152.833C178.846 151.952 178.793 151.055 178.564 150.196C178.262 149.445 178.789 147.573 178.789 147.573C178.789 147.573 175.342 149.177 174.276 151.317C173.21 153.457 168.436 162.538 168.703 165.745C168.898 168.094 176.36 176.036 180.334 179.589C180.722 178.926 180.849 178.141 180.69 177.389C180.69 177.389 181.033 177.711 181.56 178.134C180.394 175.743 178.789 172.953 178.789 172.953Z" fill="white"/>
</g>
<path d="M211.529 125.358L206.198 126.002C206.198 126.002 188.543 130.068 180.672 134.349C172.801 138.63 160.293 149.254 154.092 154.024C145.682 160.481 139.629 161.942 138.776 163.873C137.924 165.805 143.668 167.939 151.113 164.941C158.558 161.942 164.936 155.735 167.696 153.613C167.696 153.613 165.996 160.248 164.077 163.247C162.159 166.246 169.183 171.594 172.588 175.452C175.994 179.309 178.54 182.087 179.82 180.376C181.099 178.665 180.666 177.395 180.666 177.395C180.666 177.395 183.859 180.376 185.997 180.376C188.135 180.376 186.636 176.948 185.357 174.808C184.078 172.667 183.231 168.601 183.231 168.601L184.51 164.106C184.51 164.106 190.462 175.022 191.102 177.377C191.742 179.732 194.715 176.733 194.715 173.311C194.715 169.889 191.528 161.107 191.528 161.107L194.294 155.109C197.088 153.802 199.787 152.3 202.372 150.614C205.152 148.847 207.6 146.601 209.604 143.978L213.856 143.334L211.529 125.358ZM175.745 160.767L174.217 165.948L173.24 162.729L177.83 155.312L175.745 160.767Z" stroke="#263238" stroke-linecap="round" stroke-linejoin="round"/>
<path d="M167.72 153.618L168.792 149.767C168.792 149.767 168.158 146.553 169.645 145.266" stroke="#263238" stroke-miterlimit="10"/>
<path d="M179.417 145.695C179.417 145.695 177.93 148.479 178.564 150.19C179.198 151.901 176.651 158.537 175.603 161.327C174.554 164.118 173.69 166.252 174.756 168.178C175.822 170.103 180.678 177.383 180.678 177.383" stroke="#263238" stroke-linecap="round" stroke-linejoin="round"/>
<path d="M184.522 164.111C184.522 164.111 184.096 164.32 184.522 160.469C184.948 156.617 187.288 151.907 187.288 150.834V146.982C187.288 146.124 188.561 144.627 188.561 144.627" stroke="#263238" stroke-linecap="round" stroke-linejoin="round"/>
<path d="M220.466 167.2L216.397 153.314L221.597 152.635L220.466 167.2Z" fill="white" stroke="#263238" stroke-linecap="round" stroke-linejoin="round"/>
<path d="M205.221 125.8C205.221 125.8 207.809 133.968 208.484 141.021C209.16 148.074 208.71 157.172 208.71 157.172L221.822 155.61C221.822 155.61 221.597 132.859 219.56 124.44C219.56 124.422 209.539 124.691 205.221 125.8Z" fill="white" stroke="#263238" stroke-linecap="round" stroke-linejoin="round"/>
<path d="M261.828 119.641L212.885 124.69C212.885 124.69 220.649 140.722 220.466 167.2L267.698 161.965L261.828 119.641Z" fill="#263238" stroke="#263238" stroke-linecap="round" stroke-linejoin="round"/>
<path d="M226.033 163.336C227.207 163.336 228.159 162.378 228.159 161.196C228.159 160.014 227.207 159.056 226.033 159.056C224.859 159.056 223.907 160.014 223.907 161.196C223.907 162.378 224.859 163.336 226.033 163.336Z" fill="white" stroke="#263238" stroke-linecap="round" stroke-linejoin="round"/>
<path d="M232.672 162.27C233.846 162.27 234.798 161.311 234.798 160.129C234.798 158.947 233.846 157.989 232.672 157.989C231.498 157.989 230.546 158.947 230.546 160.129C230.546 161.311 231.498 162.27 232.672 162.27Z" fill="white" stroke="#263238" stroke-linecap="round" stroke-linejoin="round"/>
<path d="M73.8653 108.742C73.8653 108.742 78.011 99.3277 76.2935 91.8871C74.576 84.4464 67.1965 92.4833 69.4708 99.0416C71.745 105.6 72.0648 109.559 73.8653 108.742Z" fill="white" stroke="#263238" stroke-linecap="round" stroke-linejoin="round"/>
<path d="M82.1096 97.1816C82.1096 97.1816 83.9279 84.0293 82.6545 81.2868C81.3812 78.5442 77.7566 81.4716 78.3015 88.0478C78.8463 94.6239 82.1096 97.1816 82.1096 97.1816Z" fill="white" stroke="#263238" stroke-linecap="round" stroke-linejoin="round"/>
<path d="M75.0322 70.1493C75.0322 70.1493 90.0932 66.3157 98.4439 64.1217C106.795 61.9276 111.693 59.9482 116.591 59.9482C116.591 59.9482 120.405 60.6816 122.762 61.4089C125.119 62.1363 139.457 65.0637 140.369 66.7092C141.282 68.3547 150.165 78.216 151.255 79.313C152.345 80.41 150.349 81.1434 148.169 81.1434H107.34C105.705 81.1434 98.8052 85.913 93.1788 86.8073C87.5524 87.7016 81.7484 84.6133 81.7484 84.6133L75.2336 85.5255C75.2336 85.5255 71.5853 78.9195 75.0322 70.1493Z" fill="white"/>
<path d="M151.255 79.2954C150.165 78.1984 141.275 68.3372 140.369 66.6916C139.463 65.0461 125.125 62.1247 122.762 61.3914C120.399 60.658 116.59 59.9307 116.59 59.9307C111.692 59.9307 106.795 61.9399 98.4438 64.1041C90.093 66.2683 75.032 70.1317 75.032 70.1317C73.8643 73.0356 73.3759 76.1711 73.6047 79.2954L74.2562 79.8201C74.2562 79.8201 82.2694 80.1301 94.2921 77.9599C106.315 75.7897 107.239 73.6136 112.172 75.7838C115.199 77.1193 116.721 78.9198 120.144 81.1139H148.169C150.349 81.1139 152.345 80.3805 151.255 79.2954ZM117.461 72.0873C113.256 69.5117 114.719 68.9572 118.924 70.0662C121.43 70.7173 123.707 72.0546 125.504 73.9296C127.879 75.3903 121.666 74.651 117.461 72.0754V72.0873ZM123.49 67.3177C121.482 64.3784 130.076 68.7903 130.076 68.7903C130.988 70.6028 125.504 70.2331 123.49 67.2878V67.3177Z" fill="#FFEDEB"/>
<path opacity="0.5" d="M151.255 79.2954C150.165 78.1984 141.275 68.3372 140.369 66.6916C139.463 65.0461 125.125 62.1247 122.762 61.3914C120.399 60.658 116.59 59.9307 116.59 59.9307C111.692 59.9307 106.795 61.9399 98.4438 64.1041C90.093 66.2683 75.032 70.1317 75.032 70.1317C73.8643 73.0356 73.3759 76.1711 73.6047 79.2954L74.2562 79.8201C74.2562 79.8201 82.2694 80.1301 94.2921 77.9599C106.315 75.7897 107.239 73.6136 112.172 75.7838C115.199 77.1193 116.721 78.9198 120.144 81.1139H148.169C150.349 81.1139 152.345 80.3805 151.255 79.2954ZM117.461 72.0873C113.256 69.5117 114.719 68.9572 118.924 70.0662C121.43 70.7173 123.707 72.0546 125.504 73.9296C127.879 75.3903 121.666 74.651 117.461 72.0754V72.0873ZM123.49 67.3177C121.482 64.3784 130.076 68.7903 130.076 68.7903C130.988 70.6028 125.504 70.2331 123.49 67.2878V67.3177Z" fill="#FFEDEB"/>
<path d="M75.0322 70.1493C75.0322 70.1493 90.0932 66.3157 98.4439 64.1217C106.795 61.9276 111.693 59.9482 116.591 59.9482C116.591 59.9482 120.405 60.6816 122.762 61.4089C125.119 62.1363 139.457 65.0637 140.369 66.7092C141.282 68.3547 150.165 78.216 151.255 79.313C152.345 80.41 150.349 81.1434 148.169 81.1434H107.34C105.705 81.1434 98.8052 85.913 93.1788 86.8073C87.5524 87.7016 81.7484 84.6133 81.7484 84.6133L75.2336 85.5255C75.2336 85.5255 71.5853 78.9195 75.0322 70.1493Z" stroke="#263238" stroke-linecap="round" stroke-linejoin="round"/>
<path d="M103.164 73.4404C103.164 73.4404 108.246 72.707 109.513 72.707C110.78 72.707 120.955 78.5737 120.955 78.5737C120.955 78.5737 124.935 78.9433 123.851 80.9585" stroke="#263238" stroke-linecap="round" stroke-linejoin="round"/>
<path d="M112.237 67.5918C112.237 67.5918 117.864 68.6888 119.676 68.6888C121.488 68.6888 124.758 71.2465 126.783 73.6194C128.809 75.9923 134.014 78.7587 134.014 78.7587C134.014 78.7587 138.545 78.5739 138.752 81.1436" stroke="#263238" stroke-linecap="round" stroke-linejoin="round"/>
<path d="M121.127 64.3066C121.127 64.3066 128.933 66.131 130.206 66.4947C131.48 66.8584 138.498 76.034 143.585 78.5738C143.585 78.5738 147.565 80.2194 146.298 80.9587" stroke="#263238" stroke-linecap="round" stroke-linejoin="round"/>
<path d="M79.2078 69.0527C79.2078 69.0527 77.2119 86.9389 82.1098 97.1877L68.488 97.3725C68.488 97.3725 66.4921 79.6533 69.3942 70.1498L79.2078 69.0527Z" fill="white" stroke="#263238" stroke-linecap="round" stroke-linejoin="round"/>
<path d="M73.2199 68.6888C73.2199 68.6888 71.5853 80.7501 71.5853 90.6113C71.6148 96.7254 72.3804 102.813 73.8655 108.742L1.38564 98.0162L0.295898 54.3501L73.2199 68.6888Z" fill="#263238" stroke="#263238" stroke-linecap="round" stroke-linejoin="round"/>
<path d="M66.6635 101.79C66.6647 102.283 66.5207 102.764 66.2497 103.174C65.9788 103.584 65.5932 103.903 65.1417 104.092C64.6901 104.281 64.1931 104.331 63.7135 104.235C63.2338 104.139 62.7932 103.902 62.4475 103.554C62.1017 103.206 61.8664 102.763 61.7713 102.28C61.6762 101.797 61.7256 101.297 61.9132 100.842C62.1009 100.388 62.4184 99.9993 62.8254 99.7266C63.2325 99.4538 63.7108 99.3089 64.1997 99.3101C64.8527 99.3116 65.4784 99.5734 65.9401 100.038C66.4019 100.503 66.6619 101.133 66.6635 101.79V101.79Z" fill="white" stroke="#263238" stroke-linecap="round" stroke-linejoin="round"/>
<path d="M57.7265 100.55C57.7277 101.042 57.5838 101.523 57.3132 101.933C57.0425 102.343 56.6572 102.662 56.206 102.851C55.7548 103.04 55.2581 103.09 54.7786 102.995C54.2992 102.9 53.8586 102.664 53.5126 102.316C53.1666 101.969 52.9308 101.526 52.835 101.043C52.7392 100.561 52.7878 100.061 52.9745 99.606C53.1613 99.1513 53.4778 98.7627 53.8841 98.4892C54.2904 98.2158 54.7681 98.0698 55.2568 98.0698C55.9108 98.0698 56.5381 98.3309 57.001 98.7959C57.464 99.2609 57.7249 99.8917 57.7265 100.55V100.55Z" fill="white" stroke="#263238" stroke-linecap="round" stroke-linejoin="round"/>
</g>
<defs>
<clipPath id="clip0_1_2217">
<rect width="268" height="209" fill="white"/>
</clipPath>
</defs>
</svg>
