<svg width="40" height="40" viewBox="0 0 40 40" fill="none" xmlns="http://www.w3.org/2000/svg">
<g clip-path="url(#clip0_1_4611)">
<path fill-rule="evenodd" clip-rule="evenodd" d="M15.4531 15.7431V12.6606C15.4531 7.90899 19.406 4 24.2109 4H28.6641C29.4018 4 30 4.59156 30 5.3211V11.1927C30 11.9222 29.4018 12.5138 28.6641 12.5138H24.2109C24.1293 12.5138 24.0625 12.5798 24.0625 12.6606V15.7431H28.6641C29.0752 15.7431 29.4641 15.931 29.7165 16.251C29.9703 16.5725 30.0594 16.9894 29.9599 17.3842L28.4755 23.2558C28.3271 23.8444 27.7927 24.2569 27.1797 24.2569H24.0625V34.6789C24.0625 35.4084 23.4643 36 22.7266 36H16.7891C16.0513 36 15.4531 35.4084 15.4531 34.6789V24.2569H12.3359C11.5982 24.2569 11 23.6653 11 22.9358V17.0642C11 16.3347 11.5982 15.7431 12.3359 15.7431H15.4531ZM27.3281 6.6422H24.2109C20.8726 6.6422 18.125 9.35927 18.125 12.6606V17.0642C18.125 17.7938 17.5268 18.3853 16.7891 18.3853H13.6719V21.6147H16.7891C17.5268 21.6147 18.125 22.2062 18.125 22.9358V33.3578H21.3906V22.9358C21.3906 22.2062 21.9888 21.6147 22.7266 21.6147H26.1362L26.9526 18.3853H22.7266C21.9888 18.3853 21.3906 17.7938 21.3906 17.0642V12.6606C21.3906 11.131 22.6642 9.87156 24.2109 9.87156H27.3281V6.6422Z" fill="#969696"/>
</g>
<defs>
<clipPath id="clip0_1_4611">
<rect width="40" height="40" fill="white"/>
</clipPath>
</defs>
</svg>
