<svg width="40" height="40" viewBox="0 0 40 40" fill="none" xmlns="http://www.w3.org/2000/svg">
<path d="M27.6668 23.3332C27.3335 23.1665 25.1668 22.1665 24.8335 21.9998C24.5002 21.8332 24.1668 21.8332 23.8335 22.1665C23.5002 22.4998 22.8335 23.4998 22.5002 23.8332C22.3335 24.1665 22.0002 24.1665 21.6668 23.9998C20.5002 23.4998 19.3335 22.8332 18.3335 21.9998C17.5002 21.1665 16.6668 20.1665 16.0002 19.1665C15.8335 18.8332 16.0002 18.4998 16.1668 18.3332C16.3335 18.1665 16.5002 17.8332 16.8335 17.6665C17.0002 17.4998 17.1668 17.1665 17.1668 16.9998C17.3335 16.8332 17.3335 16.4998 17.1668 16.3332C17.0002 16.1665 16.1668 14.1665 15.8335 13.3332C15.6668 12.1665 15.3335 12.1665 15.0002 12.1665H14.1668C13.8335 12.1665 13.3335 12.4998 13.1668 12.6665C12.1668 13.6665 11.6668 14.8332 11.6668 16.1665C11.8335 17.6665 12.3335 19.1665 13.3335 20.4998C15.1668 23.1665 17.5002 25.3332 20.3335 26.6665C21.1668 26.9998 21.8335 27.3332 22.6668 27.4998C23.5002 27.8332 24.3335 27.8332 25.3335 27.6665C26.5002 27.4998 27.5002 26.6665 28.1668 25.6665C28.5002 24.9998 28.5002 24.3332 28.3335 23.6665L27.6668 23.3332M31.8335 8.1665C25.3335 1.6665 14.8335 1.6665 8.3335 8.1665C3.00016 13.4998 2.00016 21.6665 5.66683 28.1665L3.3335 36.6665L12.1668 34.3332C14.6668 35.6665 17.3335 36.3332 20.0002 36.3332C29.1668 36.3332 36.5002 28.9998 36.5002 19.8332C36.6668 15.4998 34.8335 11.3332 31.8335 8.1665M27.3335 31.4998C25.1668 32.8332 22.6668 33.6665 20.0002 33.6665C17.5002 33.6665 15.1668 32.9998 13.0002 31.8332L12.5002 31.4998L7.3335 32.8332L8.66683 27.8332L8.3335 27.3332C4.3335 20.6665 6.3335 12.3332 12.8335 8.1665C19.3335 3.99984 27.6668 6.1665 31.6668 12.4998C35.6668 18.9998 33.8335 27.4998 27.3335 31.4998Z" fill="#969696"/>
</svg>
