<svg width="40" height="40" viewBox="0 0 40 40" fill="none" xmlns="http://www.w3.org/2000/svg">
<path d="M14.3347 20C14.3347 16.8705 16.8711 14.3329 20.0007 14.3329C23.1303 14.3329 25.668 16.8705 25.668 20C25.668 23.1295 23.1303 25.6671 20.0007 25.6671C16.8711 25.6671 14.3347 23.1295 14.3347 20ZM11.271 20C11.271 24.8212 15.1792 28.7293 20.0007 28.7293C24.8221 28.7293 28.7304 24.8212 28.7304 20C28.7304 15.1788 24.8221 11.2707 20.0007 11.2707C15.1792 11.2707 11.271 15.1788 11.271 20ZM27.0358 10.9246C27.0358 12.0506 27.949 12.9652 29.0764 12.9652C30.2025 12.9652 31.117 12.0506 31.117 10.9246C31.117 9.79863 30.2038 8.88546 29.0764 8.88546C27.949 8.88546 27.0358 9.79863 27.0358 10.9246ZM13.1317 33.8376C11.4743 33.762 10.5734 33.486 9.97468 33.2526C9.18094 32.9436 8.61517 32.5756 8.01918 31.981C7.42457 31.3864 7.05517 30.8207 6.74757 30.027C6.51412 29.4283 6.2381 28.5275 6.16257 26.87C6.08017 25.078 6.06369 24.5397 6.06369 20C6.06369 15.4603 6.08155 14.9233 6.16257 13.13C6.2381 11.4725 6.51549 10.5731 6.74757 9.97302C7.05655 9.17932 7.42457 8.61357 8.01918 8.01761C8.6138 7.42302 9.17957 7.05363 9.97468 6.74604C10.5734 6.5126 11.4743 6.23659 13.1317 6.16107C14.9238 6.07868 15.4621 6.0622 20.0007 6.0622C24.5406 6.0622 25.0775 6.08005 26.871 6.16107C28.5285 6.23659 29.428 6.51397 30.0281 6.74604C30.8218 7.05363 31.3876 7.42302 31.9836 8.01761C32.5782 8.6122 32.9462 9.17932 33.2552 9.97302C33.4886 10.5717 33.7647 11.4725 33.8402 13.13C33.9226 14.9233 33.9391 15.4603 33.9391 20C33.9391 24.5384 33.9226 25.0767 33.8402 26.87C33.7647 28.5275 33.4873 29.4283 33.2552 30.027C32.9462 30.8207 32.5782 31.3864 31.9836 31.981C31.389 32.5756 30.8218 32.9436 30.0281 33.2526C29.4293 33.486 28.5285 33.762 26.871 33.8376C25.0789 33.92 24.5406 33.9364 20.0007 33.9364C15.4621 33.9364 14.9238 33.92 13.1317 33.8376M12.9917 3.10299C11.1818 3.18538 9.94584 3.47237 8.8651 3.89257C7.74728 4.32649 6.79975 4.90872 5.85359 5.85347C4.9088 6.79822 4.32655 7.74572 3.8926 8.86486C3.47239 9.94556 3.18539 11.1814 3.10299 12.9913C3.01923 14.8039 3 15.3834 3 20C3 24.6166 3.01923 25.1961 3.10299 27.0087C3.18539 28.8186 3.47239 30.0544 3.8926 31.1351C4.32655 32.2529 4.90743 33.2018 5.85359 34.1465C6.79838 35.0913 7.74591 35.6721 8.8651 36.1074C9.94721 36.5276 11.1818 36.8146 12.9917 36.897C14.8057 36.9794 15.3839 37 20.0007 37C24.6189 37 25.197 36.9808 27.0097 36.897C28.8196 36.8146 30.0555 36.5276 31.1363 36.1074C32.2541 35.6721 33.2016 35.0913 34.1478 34.1465C35.0926 33.2018 35.6735 32.2529 36.1088 31.1351C36.529 30.0544 36.8174 28.8186 36.8984 27.0087C36.9808 25.1947 37 24.6166 37 20C37 15.3834 36.9808 14.8039 36.8984 12.9913C36.816 11.1814 36.529 9.94556 36.1088 8.86486C35.6735 7.74709 35.0926 6.7996 34.1478 5.85347C33.203 4.90872 32.2541 4.32649 31.1376 3.89257C30.0555 3.47237 28.8196 3.18401 27.0111 3.10299C25.1984 3.0206 24.6189 3 20.0021 3C15.3839 3 14.8057 3.01922 12.9917 3.10299" fill="#969696"/>
</svg>
