<svg width="20" height="20" viewBox="0 0 20 20" fill="none" xmlns="http://www.w3.org/2000/svg">
<path d="M13.8337 11.6663C13.667 11.583 12.5837 11.083 12.417 10.9997C12.2503 10.9163 12.0837 10.9163 11.917 11.083C11.7503 11.2497 11.417 11.7497 11.2503 11.9163C11.167 12.083 11.0003 12.083 10.8337 11.9997C10.2503 11.7497 9.66699 11.4163 9.16699 10.9997C8.75033 10.583 8.33366 10.083 8.00033 9.58301C7.91699 9.41634 8.00033 9.24967 8.08366 9.16634C8.16699 9.08301 8.25033 8.91634 8.41699 8.83301C8.50033 8.74967 8.58366 8.58301 8.58366 8.49967C8.66699 8.41634 8.66699 8.24967 8.58366 8.16634C8.50033 8.08301 8.08366 7.08301 7.91699 6.66634C7.83366 6.08301 7.66699 6.08301 7.50033 6.08301H7.08366C6.91699 6.08301 6.66699 6.24967 6.58366 6.33301C6.08366 6.83301 5.83366 7.41634 5.83366 8.08301C5.91699 8.83301 6.16699 9.58301 6.66699 10.2497C7.58366 11.583 8.75033 12.6663 10.167 13.333C10.5837 13.4997 10.917 13.6663 11.3337 13.7497C11.7503 13.9163 12.167 13.9163 12.667 13.833C13.2503 13.7497 13.7503 13.333 14.0837 12.833C14.2503 12.4997 14.2503 12.1663 14.167 11.833L13.8337 11.6663ZM15.917 4.08301C12.667 0.833008 7.41699 0.833008 4.16699 4.08301C1.50033 6.74967 1.00033 10.833 2.83366 14.083L1.66699 18.333L6.08366 17.1663C7.33366 17.833 8.66699 18.1663 10.0003 18.1663C14.5837 18.1663 18.2503 14.4997 18.2503 9.91634C18.3337 7.74967 17.417 5.66634 15.917 4.08301ZM13.667 15.7497C12.5837 16.4163 11.3337 16.833 10.0003 16.833C8.75033 16.833 7.58366 16.4997 6.50033 15.9163L6.25033 15.7497L3.66699 16.4163L4.33366 13.9163L4.16699 13.6663C2.16699 10.333 3.16699 6.16634 6.41699 4.08301C9.66699 1.99967 13.8337 3.08301 15.8337 6.24967C17.8337 9.49967 16.917 13.7497 13.667 15.7497Z" fill="#626262"/>
</svg>
